{
  "header": {
    "PPQ": 480,
    "timeSignature": [
      4,
      4
    ],
    "bpm": 75,
    "name": ""
  },
  "startTime": 0,
  "duration": 193.4383333333327,
  "tracks": [
    {
      "startTime": 0,
      "duration": 193.4383333333327,
      "length": 552,
      "notes": [
        {
          "name": "C#5",
          "midi": 73,
          "time": 0,
          "velocity": 0.6299212598425197,
          "duration": 0.18833333333333335
        },
        {
          "name": "D#5",
          "midi": 75,
          "time": 0.2,
          "velocity": 0.6299212598425197,
          "duration": 0.18833333333333335
        },
        {
          "name": "D#5",
          "midi": 75,
          "time": 0.4,
          "velocity": 0.6299212598425197,
          "duration": 0.18833333333333335
        },
        {
          "name": "D#5",
          "midi": 75,
          "time": 0.6000000000000001,
          "velocity": 0.6299212598425197,
          "duration": 0.18833333333333335
        },
        {
          "name": "D#5",
          "midi": 75,
          "time": 0.8000000000000002,
          "velocity": 0.6299212598425197,
          "duration": 0.18833333333333335
        },
        {
          "name": "D#5",
          "midi": 75,
          "time": 1.0000000000000002,
          "velocity": 0.6299212598425197,
          "duration": 0.18833333333333324
        },
        {
          "name": "D#5",
          "midi": 75,
          "time": 1.2000000000000002,
          "velocity": 0.6299212598425197,
          "duration": 0.18833333333333346
        },
        {
          "name": "C#5",
          "midi": 73,
          "time": 1.4000000000000004,
          "velocity": 0.6299212598425197,
          "duration": 0.18833333333333346
        },
        {
          "name": "C#5",
          "midi": 73,
          "time": 1.6000000000000005,
          "velocity": 0.6299212598425197,
          "duration": 0.18833333333333346
        },
        {
          "name": "D#5",
          "midi": 75,
          "time": 1.8000000000000007,
          "velocity": 0.6299212598425197,
          "duration": 0.7583333333333333
        },
        {
          "name": "C#5",
          "midi": 73,
          "time": 3.000000000000001,
          "velocity": 0.6299212598425197,
          "duration": 0.18833333333333346
        },
        {
          "name": "C#5",
          "midi": 73,
          "time": 3.200000000000001,
          "velocity": 0.6299212598425197,
          "duration": 0.18833333333333346
        },
        {
          "name": "D#5",
          "midi": 75,
          "time": 3.4000000000000012,
          "velocity": 0.6299212598425197,
          "duration": 0.18833333333333346
        },
        {
          "name": "D#5",
          "midi": 75,
          "time": 3.6000000000000014,
          "velocity": 0.6299212598425197,
          "duration": 0.18833333333333346
        },
        {
          "name": "D#5",
          "midi": 75,
          "time": 3.8000000000000016,
          "velocity": 0.6299212598425197,
          "duration": 0.18833333333333346
        },
        {
          "name": "D#5",
          "midi": 75,
          "time": 4.000000000000002,
          "velocity": 0.6299212598425197,
          "duration": 0.18833333333333346
        },
        {
          "name": "D#5",
          "midi": 75,
          "time": 4.200000000000002,
          "velocity": 0.6299212598425197,
          "duration": 0.18833333333333346
        },
        {
          "name": "D#5",
          "midi": 75,
          "time": 4.400000000000002,
          "velocity": 0.6299212598425197,
          "duration": 0.18833333333333346
        },
        {
          "name": "C#5",
          "midi": 73,
          "time": 4.600000000000002,
          "velocity": 0.6299212598425197,
          "duration": 0.18833333333333346
        },
        {
          "name": "F5",
          "midi": 77,
          "time": 4.8000000000000025,
          "velocity": 0.6299212598425197,
          "duration": 0.18833333333333346
        },
        {
          "name": "D#5",
          "midi": 75,
          "time": 5.000000000000003,
          "velocity": 0.6299212598425197,
          "duration": 0.18833333333333346
        },
        {
          "name": "D#5",
          "midi": 75,
          "time": 6.200000000000003,
          "velocity": 0.6299212598425197,
          "duration": 0.0983333333333336
        },
        {
          "name": "F5",
          "midi": 77,
          "time": 6.300000000000003,
          "velocity": 0.6299212598425197,
          "duration": 0.09333333333333371
        },
        {
          "name": "D#5",
          "midi": 75,
          "time": 6.400000000000004,
          "velocity": 0.6299212598425197,
          "duration": 0.7583333333333329
        },
        {
          "name": "D#5",
          "midi": 75,
          "time": 7.200000000000004,
          "velocity": 0.6299212598425197,
          "duration": 0.7583333333333337
        },
        {
          "name": "D#5",
          "midi": 75,
          "time": 8.000000000000004,
          "velocity": 0.6299212598425197,
          "duration": 0.18833333333333258
        },
        {
          "name": "C#5",
          "midi": 73,
          "time": 8.200000000000003,
          "velocity": 0.6299212598425197,
          "duration": 0.18833333333333258
        },
        {
          "name": "D#5",
          "midi": 75,
          "time": 8.400000000000002,
          "velocity": 0.6299212598425197,
          "duration": 0.18833333333333258
        },
        {
          "name": "C#5",
          "midi": 73,
          "time": 8.600000000000001,
          "velocity": 0.6299212598425197,
          "duration": 0.18833333333333258
        },
        {
          "name": "F5",
          "midi": 77,
          "time": 8.8,
          "velocity": 0.6299212598425197,
          "duration": 0.37833333333333385
        },
        {
          "name": "C#5",
          "midi": 73,
          "time": 9.200000000000001,
          "velocity": 0.6299212598425197,
          "duration": 0.18833333333333258
        },
        {
          "name": "C#5",
          "midi": 73,
          "time": 9.4,
          "velocity": 0.6299212598425197,
          "duration": 0.37833333333333385
        },
        {
          "name": "A#4",
          "midi": 70,
          "time": 9.8,
          "velocity": 0.6299212598425197,
          "duration": 0.37833333333333385
        },
        {
          "name": "A#4",
          "midi": 70,
          "time": 10.8,
          "velocity": 0.6299212598425197,
          "duration": 0.7583333333333329
        },
        {
          "name": "C#5",
          "midi": 73,
          "time": 10.8,
          "velocity": 0.6299212598425197,
          "duration": 0.7583333333333329
        },
        {
          "name": "C#5",
          "midi": 73,
          "time": 12.6,
          "velocity": 0.6299212598425197,
          "duration": 0.18833333333333258
        },
        {
          "name": "C#5",
          "midi": 73,
          "time": 12.799999999999999,
          "velocity": 0.6299212598425197,
          "duration": 0.18833333333333258
        },
        {
          "name": "D#5",
          "midi": 75,
          "time": 12.999999999999998,
          "velocity": 0.6299212598425197,
          "duration": 0.18833333333333258
        },
        {
          "name": "D#5",
          "midi": 75,
          "time": 13.199999999999998,
          "velocity": 0.6299212598425197,
          "duration": 0.18833333333333258
        },
        {
          "name": "D#5",
          "midi": 75,
          "time": 13.399999999999997,
          "velocity": 0.6299212598425197,
          "duration": 0.18833333333333258
        },
        {
          "name": "D#5",
          "midi": 75,
          "time": 13.599999999999996,
          "velocity": 0.6299212598425197,
          "duration": 0.18833333333333258
        },
        {
          "name": "D#5",
          "midi": 75,
          "time": 13.799999999999995,
          "velocity": 0.6299212598425197,
          "duration": 0.18833333333333258
        },
        {
          "name": "D#5",
          "midi": 75,
          "time": 13.999999999999995,
          "velocity": 0.6299212598425197,
          "duration": 0.18833333333333258
        },
        {
          "name": "C#5",
          "midi": 73,
          "time": 14.199999999999994,
          "velocity": 0.6299212598425197,
          "duration": 0.18833333333333258
        },
        {
          "name": "C#5",
          "midi": 73,
          "time": 14.399999999999993,
          "velocity": 0.6299212598425197,
          "duration": 0.18833333333333258
        },
        {
          "name": "D#5",
          "midi": 75,
          "time": 14.599999999999993,
          "velocity": 0.6299212598425197,
          "duration": 0.7583333333333329
        },
        {
          "name": "C#5",
          "midi": 73,
          "time": 15.799999999999992,
          "velocity": 0.6299212598425197,
          "duration": 0.18833333333333258
        },
        {
          "name": "C#5",
          "midi": 73,
          "time": 15.999999999999991,
          "velocity": 0.6299212598425197,
          "duration": 0.18833333333333435
        },
        {
          "name": "D#5",
          "midi": 75,
          "time": 16.199999999999992,
          "velocity": 0.6299212598425197,
          "duration": 0.18833333333333258
        },
        {
          "name": "D#5",
          "midi": 75,
          "time": 16.39999999999999,
          "velocity": 0.6299212598425197,
          "duration": 0.18833333333333258
        },
        {
          "name": "D#5",
          "midi": 75,
          "time": 16.59999999999999,
          "velocity": 0.6299212598425197,
          "duration": 0.18833333333333258
        },
        {
          "name": "D#5",
          "midi": 75,
          "time": 16.79999999999999,
          "velocity": 0.6299212598425197,
          "duration": 0.18833333333333258
        },
        {
          "name": "D#5",
          "midi": 75,
          "time": 16.99999999999999,
          "velocity": 0.6299212598425197,
          "duration": 0.18833333333333258
        },
        {
          "name": "D#5",
          "midi": 75,
          "time": 17.19999999999999,
          "velocity": 0.6299212598425197,
          "duration": 0.18833333333333258
        },
        {
          "name": "C#5",
          "midi": 73,
          "time": 17.399999999999988,
          "velocity": 0.6299212598425197,
          "duration": 0.18833333333333258
        },
        {
          "name": "F5",
          "midi": 77,
          "time": 17.599999999999987,
          "velocity": 0.6299212598425197,
          "duration": 0.18833333333333258
        },
        {
          "name": "D#5",
          "midi": 75,
          "time": 17.799999999999986,
          "velocity": 0.6299212598425197,
          "duration": 0.18833333333333258
        },
        {
          "name": "D#5",
          "midi": 75,
          "time": 18.999999999999986,
          "velocity": 0.6299212598425197,
          "duration": 0.09833333333333272
        },
        {
          "name": "F5",
          "midi": 77,
          "time": 19.099999999999984,
          "velocity": 0.6299212598425197,
          "duration": 0.09333333333333371
        },
        {
          "name": "D#5",
          "midi": 75,
          "time": 19.199999999999985,
          "velocity": 0.6299212598425197,
          "duration": 0.7583333333333329
        },
        {
          "name": "D#5",
          "midi": 75,
          "time": 19.999999999999986,
          "velocity": 0.6299212598425197,
          "duration": 0.7583333333333329
        },
        {
          "name": "D#5",
          "midi": 75,
          "time": 20.799999999999986,
          "velocity": 0.6299212598425197,
          "duration": 0.18833333333333258
        },
        {
          "name": "C#5",
          "midi": 73,
          "time": 20.999999999999986,
          "velocity": 0.6299212598425197,
          "duration": 0.18833333333333258
        },
        {
          "name": "D#5",
          "midi": 75,
          "time": 21.199999999999985,
          "velocity": 0.6299212598425197,
          "duration": 0.18833333333333258
        },
        {
          "name": "C#5",
          "midi": 73,
          "time": 21.399999999999984,
          "velocity": 0.6299212598425197,
          "duration": 0.18833333333333258
        },
        {
          "name": "F5",
          "midi": 77,
          "time": 21.599999999999984,
          "velocity": 0.6299212598425197,
          "duration": 0.37833333333333385
        },
        {
          "name": "C#5",
          "midi": 73,
          "time": 21.999999999999986,
          "velocity": 0.6299212598425197,
          "duration": 0.18833333333333258
        },
        {
          "name": "C#5",
          "midi": 73,
          "time": 22.199999999999985,
          "velocity": 0.6299212598425197,
          "duration": 0.37833333333333385
        },
        {
          "name": "A#4",
          "midi": 70,
          "time": 22.599999999999987,
          "velocity": 0.6299212598425197,
          "duration": 0.37833333333333385
        },
        {
          "name": "A#4",
          "midi": 70,
          "time": 23.599999999999987,
          "velocity": 0.6299212598425197,
          "duration": 0.7583333333333329
        },
        {
          "name": "C#5",
          "midi": 73,
          "time": 23.599999999999987,
          "velocity": 0.6299212598425197,
          "duration": 0.7583333333333329
        },
        {
          "name": "C5",
          "midi": 72,
          "time": 24.799999999999986,
          "velocity": 0.6299212598425197,
          "duration": 0.18833333333333258
        },
        {
          "name": "C#5",
          "midi": 73,
          "time": 25.199999999999985,
          "velocity": 0.6299212598425197,
          "duration": 0.09333333333333371
        },
        {
          "name": "G#5",
          "midi": 80,
          "time": 25.399999999999984,
          "velocity": 0.6299212598425197,
          "duration": 0.7583333333333329
        },
        {
          "name": "F5",
          "midi": 77,
          "time": 26.799999999999983,
          "velocity": 0.6299212598425197,
          "duration": 0.18833333333333258
        },
        {
          "name": "C5",
          "midi": 72,
          "time": 27.999999999999982,
          "velocity": 0.6299212598425197,
          "duration": 0.18833333333333258
        },
        {
          "name": "C#5",
          "midi": 73,
          "time": 28.39999999999998,
          "velocity": 0.6299212598425197,
          "duration": 0.09333333333333371
        },
        {
          "name": "F5",
          "midi": 77,
          "time": 28.59999999999998,
          "velocity": 0.6299212598425197,
          "duration": 0.18833333333333258
        },
        {
          "name": "G#5",
          "midi": 80,
          "time": 28.59999999999998,
          "velocity": 0.6299212598425197,
          "duration": 0.7583333333333329
        },
        {
          "name": "C#5",
          "midi": 73,
          "time": 29.99999999999998,
          "velocity": 0.6299212598425197,
          "duration": 0.18833333333333258
        },
        {
          "name": "F5",
          "midi": 77,
          "time": 29.99999999999998,
          "velocity": 0.6299212598425197,
          "duration": 0.18833333333333258
        },
        {
          "name": "D#5",
          "midi": 75,
          "time": 31.79999999999998,
          "velocity": 0.6299212598425197,
          "duration": 0.09833333333333272
        },
        {
          "name": "F5",
          "midi": 77,
          "time": 31.899999999999977,
          "velocity": 0.6299212598425197,
          "duration": 0.09333333333333371
        },
        {
          "name": "D#5",
          "midi": 75,
          "time": 31.99999999999998,
          "velocity": 0.6299212598425197,
          "duration": 0.7583333333333329
        },
        {
          "name": "D#5",
          "midi": 75,
          "time": 33.39999999999998,
          "velocity": 0.6299212598425197,
          "duration": 0.09833333333333627
        },
        {
          "name": "F5",
          "midi": 77,
          "time": 33.49999999999998,
          "velocity": 0.6299212598425197,
          "duration": 0.09333333333333371
        },
        {
          "name": "D#5",
          "midi": 75,
          "time": 33.59999999999998,
          "velocity": 0.6299212598425197,
          "duration": 0.7583333333333329
        },
        {
          "name": "C#5",
          "midi": 73,
          "time": 34.79999999999998,
          "velocity": 0.6299212598425197,
          "duration": 0.18833333333333258
        },
        {
          "name": "D#5",
          "midi": 75,
          "time": 34.99999999999998,
          "velocity": 0.6299212598425197,
          "duration": 0.18833333333333258
        },
        {
          "name": "F5",
          "midi": 77,
          "time": 35.199999999999974,
          "velocity": 0.6299212598425197,
          "duration": 0.18833333333333258
        },
        {
          "name": "D#5",
          "midi": 75,
          "time": 35.39999999999997,
          "velocity": 0.6299212598425197,
          "duration": 0.18833333333333258
        },
        {
          "name": "D#5",
          "midi": 75,
          "time": 35.599999999999966,
          "velocity": 0.6299212598425197,
          "duration": 0.18833333333333258
        },
        {
          "name": "C#5",
          "midi": 73,
          "time": 35.79999999999996,
          "velocity": 0.6299212598425197,
          "duration": 0.18833333333333258
        },
        {
          "name": "D#5",
          "midi": 75,
          "time": 35.99999999999996,
          "velocity": 0.6299212598425197,
          "duration": 0.3783333333333303
        },
        {
          "name": "C#5",
          "midi": 73,
          "time": 36.399999999999956,
          "velocity": 0.6299212598425197,
          "duration": 0.18833333333333258
        },
        {
          "name": "C#5",
          "midi": 73,
          "time": 36.59999999999995,
          "velocity": 0.6299212598425197,
          "duration": 0.18833333333333258
        },
        {
          "name": "A#4",
          "midi": 70,
          "time": 36.99999999999995,
          "velocity": 0.6299212598425197,
          "duration": 0.7583333333333329
        },
        {
          "name": "C#5",
          "midi": 73,
          "time": 37.99999999999995,
          "velocity": 0.6299212598425197,
          "duration": 0.3783333333333303
        },
        {
          "name": "F5",
          "midi": 77,
          "time": 38.39999999999995,
          "velocity": 0.6299212598425197,
          "duration": 0.7583333333333329
        },
        {
          "name": "G#5",
          "midi": 80,
          "time": 38.39999999999995,
          "velocity": 0.6299212598425197,
          "duration": 0.7583333333333329
        },
        {
          "name": "C#5",
          "midi": 73,
          "time": 39.59999999999995,
          "velocity": 0.6299212598425197,
          "duration": 0.18833333333333258
        },
        {
          "name": "F5",
          "midi": 77,
          "time": 39.59999999999995,
          "velocity": 0.6299212598425197,
          "duration": 0.18833333333333258
        },
        {
          "name": "C#5",
          "midi": 73,
          "time": 41.19999999999995,
          "velocity": 0.6299212598425197,
          "duration": 0.3783333333333303
        },
        {
          "name": "F5",
          "midi": 77,
          "time": 41.59999999999995,
          "velocity": 0.6299212598425197,
          "duration": 0.7583333333333329
        },
        {
          "name": "G#5",
          "midi": 80,
          "time": 41.59999999999995,
          "velocity": 0.6299212598425197,
          "duration": 0.7583333333333329
        },
        {
          "name": "C#5",
          "midi": 73,
          "time": 42.799999999999955,
          "velocity": 0.6299212598425197,
          "duration": 0.3783333333333303
        },
        {
          "name": "F5",
          "midi": 77,
          "time": 42.799999999999955,
          "velocity": 0.6299212598425197,
          "duration": 0.3783333333333303
        },
        {
          "name": "C6",
          "midi": 84,
          "time": 44.59999999999995,
          "velocity": 0.6299212598425197,
          "duration": 0.09833333333333627
        },
        {
          "name": "C#6",
          "midi": 85,
          "time": 44.69999999999995,
          "velocity": 0.6299212598425197,
          "duration": 0.09333333333333371
        },
        {
          "name": "C6",
          "midi": 84,
          "time": 44.799999999999955,
          "velocity": 0.6299212598425197,
          "duration": 0.7583333333333329
        },
        {
          "name": "C6",
          "midi": 84,
          "time": 46.19999999999995,
          "velocity": 0.6299212598425197,
          "duration": 0.09833333333333627
        },
        {
          "name": "C#6",
          "midi": 85,
          "time": 46.299999999999955,
          "velocity": 0.6299212598425197,
          "duration": 0.09333333333333371
        },
        {
          "name": "C6",
          "midi": 84,
          "time": 46.399999999999956,
          "velocity": 0.6299212598425197,
          "duration": 0.7583333333333329
        },
        {
          "name": "C6",
          "midi": 84,
          "time": 47.799999999999955,
          "velocity": 0.6299212598425197,
          "duration": 0.09833333333333627
        },
        {
          "name": "C#6",
          "midi": 85,
          "time": 47.899999999999956,
          "velocity": 0.6299212598425197,
          "duration": 0.09333333333333371
        },
        {
          "name": "C6",
          "midi": 84,
          "time": 47.99999999999996,
          "velocity": 0.6299212598425197,
          "duration": 0.18833333333333258
        },
        {
          "name": "A#5",
          "midi": 82,
          "time": 48.399999999999956,
          "velocity": 0.6299212598425197,
          "duration": 0.18833333333333258
        },
        {
          "name": "A5",
          "midi": 81,
          "time": 48.799999999999955,
          "velocity": 0.6299212598425197,
          "duration": 0.18833333333333258
        },
        {
          "name": "F#5",
          "midi": 78,
          "time": 49.19999999999995,
          "velocity": 0.6299212598425197,
          "duration": 0.18833333333333258
        },
        {
          "name": "F5",
          "midi": 77,
          "time": 49.59999999999995,
          "velocity": 0.6299212598425197,
          "duration": 0.18833333333333258
        },
        {
          "name": "C#5",
          "midi": 73,
          "time": 49.99999999999995,
          "velocity": 0.6299212598425197,
          "duration": 0.18833333333333258
        },
        {
          "name": "C#5",
          "midi": 73,
          "time": 50.199999999999946,
          "velocity": 0.6299212598425197,
          "duration": 0.18833333333333258
        },
        {
          "name": "C#5",
          "midi": 73,
          "time": 50.39999999999994,
          "velocity": 0.6299212598425197,
          "duration": 0.18833333333333258
        },
        {
          "name": "D#5",
          "midi": 75,
          "time": 50.59999999999994,
          "velocity": 0.6299212598425197,
          "duration": 0.18833333333333258
        },
        {
          "name": "C#5",
          "midi": 73,
          "time": 50.79999999999993,
          "velocity": 0.6299212598425197,
          "duration": 0.18833333333333258
        },
        {
          "name": "F5",
          "midi": 77,
          "time": 50.99999999999993,
          "velocity": 0.6299212598425197,
          "duration": 0.18833333333333258
        },
        {
          "name": "G#5",
          "midi": 80,
          "time": 50.99999999999993,
          "velocity": 0.6299212598425197,
          "duration": 0.3783333333333303
        },
        {
          "name": "C#5",
          "midi": 73,
          "time": 51.59999999999992,
          "velocity": 0.6299212598425197,
          "duration": 0.18833333333333258
        },
        {
          "name": "F5",
          "midi": 77,
          "time": 51.59999999999992,
          "velocity": 0.6299212598425197,
          "duration": 0.18833333333333258
        },
        {
          "name": "F5",
          "midi": 77,
          "time": 51.79999999999992,
          "velocity": 0.6299212598425197,
          "duration": 0.18833333333333258
        },
        {
          "name": "G#5",
          "midi": 80,
          "time": 51.79999999999992,
          "velocity": 0.6299212598425197,
          "duration": 0.3783333333333303
        },
        {
          "name": "C#5",
          "midi": 73,
          "time": 52.19999999999992,
          "velocity": 0.6299212598425197,
          "duration": 0.3783333333333303
        },
        {
          "name": "F5",
          "midi": 77,
          "time": 52.19999999999992,
          "velocity": 0.6299212598425197,
          "duration": 0.3783333333333303
        },
        {
          "name": "C#5",
          "midi": 73,
          "time": 53.39999999999991,
          "velocity": 0.6299212598425197,
          "duration": 0.18833333333333258
        },
        {
          "name": "C#5",
          "midi": 73,
          "time": 53.59999999999991,
          "velocity": 0.6299212598425197,
          "duration": 0.18833333333333258
        },
        {
          "name": "D#5",
          "midi": 75,
          "time": 53.799999999999905,
          "velocity": 0.6299212598425197,
          "duration": 0.18833333333333258
        },
        {
          "name": "C#5",
          "midi": 73,
          "time": 53.9999999999999,
          "velocity": 0.6299212598425197,
          "duration": 0.18833333333333258
        },
        {
          "name": "F5",
          "midi": 77,
          "time": 54.199999999999896,
          "velocity": 0.6299212598425197,
          "duration": 0.18833333333333258
        },
        {
          "name": "G#5",
          "midi": 80,
          "time": 54.199999999999896,
          "velocity": 0.6299212598425197,
          "duration": 0.3783333333333303
        },
        {
          "name": "C#5",
          "midi": 73,
          "time": 54.599999999999895,
          "velocity": 0.6299212598425197,
          "duration": 0.3783333333333303
        },
        {
          "name": "F5",
          "midi": 77,
          "time": 54.599999999999895,
          "velocity": 0.6299212598425197,
          "duration": 0.3783333333333303
        },
        {
          "name": "F5",
          "midi": 77,
          "time": 54.99999999999989,
          "velocity": 0.6299212598425197,
          "duration": 0.18833333333333258
        },
        {
          "name": "G#5",
          "midi": 80,
          "time": 54.99999999999989,
          "velocity": 0.6299212598425197,
          "duration": 0.3783333333333303
        },
        {
          "name": "C#5",
          "midi": 73,
          "time": 55.39999999999989,
          "velocity": 0.6299212598425197,
          "duration": 0.3783333333333303
        },
        {
          "name": "F5",
          "midi": 77,
          "time": 55.39999999999989,
          "velocity": 0.6299212598425197,
          "duration": 0.3783333333333303
        },
        {
          "name": "G#5",
          "midi": 80,
          "time": 56.79999999999989,
          "velocity": 0.6299212598425197,
          "duration": 0.18833333333333258
        },
        {
          "name": "G#5",
          "midi": 80,
          "time": 56.999999999999886,
          "velocity": 0.6299212598425197,
          "duration": 0.18833333333333258
        },
        {
          "name": "G#5",
          "midi": 80,
          "time": 57.19999999999988,
          "velocity": 0.6299212598425197,
          "duration": 0.18833333333333258
        },
        {
          "name": "C#6",
          "midi": 85,
          "time": 57.39999999999988,
          "velocity": 0.6299212598425197,
          "duration": 0.18833333333333258
        },
        {
          "name": "C6",
          "midi": 84,
          "time": 57.59999999999987,
          "velocity": 0.6299212598425197,
          "duration": 0.18833333333333258
        },
        {
          "name": "G#5",
          "midi": 80,
          "time": 57.79999999999987,
          "velocity": 0.6299212598425197,
          "duration": 0.18833333333333258
        },
        {
          "name": "F5",
          "midi": 77,
          "time": 58.19999999999987,
          "velocity": 0.6299212598425197,
          "duration": 0.18833333333333258
        },
        {
          "name": "D#5",
          "midi": 75,
          "time": 58.399999999999864,
          "velocity": 0.6299212598425197,
          "duration": 0.3783333333333303
        },
        {
          "name": "C#6",
          "midi": 85,
          "time": 58.99999999999986,
          "velocity": 0.6299212598425197,
          "duration": 0.18833333333333258
        },
        {
          "name": "C6",
          "midi": 84,
          "time": 59.199999999999854,
          "velocity": 0.6299212598425197,
          "duration": 0.18833333333333258
        },
        {
          "name": "G#5",
          "midi": 80,
          "time": 59.39999999999985,
          "velocity": 0.6299212598425197,
          "duration": 0.18833333333333258
        },
        {
          "name": "F5",
          "midi": 77,
          "time": 59.79999999999985,
          "velocity": 0.6299212598425197,
          "duration": 0.18833333333333258
        },
        {
          "name": "D#5",
          "midi": 75,
          "time": 59.999999999999844,
          "velocity": 0.6299212598425197,
          "duration": 0.3783333333333303
        },
        {
          "name": "C#5",
          "midi": 73,
          "time": 60.39999999999984,
          "velocity": 0.6299212598425197,
          "duration": 0.18833333333333258
        },
        {
          "name": "D#5",
          "midi": 75,
          "time": 60.59999999999984,
          "velocity": 0.6299212598425197,
          "duration": 0.18833333333333258
        },
        {
          "name": "C#5",
          "midi": 73,
          "time": 61.19999999999984,
          "velocity": 0.6299212598425197,
          "duration": 0.18833333333333258
        },
        {
          "name": "D#5",
          "midi": 75,
          "time": 61.399999999999835,
          "velocity": 0.6299212598425197,
          "duration": 0.18833333333333258
        },
        {
          "name": "C#5",
          "midi": 73,
          "time": 61.799999999999834,
          "velocity": 0.6299212598425197,
          "duration": 0.18833333333333258
        },
        {
          "name": "C#5",
          "midi": 73,
          "time": 61.99999999999983,
          "velocity": 0.6299212598425197,
          "duration": 0.18833333333333258
        },
        {
          "name": "A#4",
          "midi": 70,
          "time": 62.199999999999825,
          "velocity": 0.6299212598425197,
          "duration": 0.3783333333333303
        },
        {
          "name": "C#5",
          "midi": 73,
          "time": 62.99999999999982,
          "velocity": 0.6299212598425197,
          "duration": 0.18833333333333258
        },
        {
          "name": "C#5",
          "midi": 73,
          "time": 63.19999999999982,
          "velocity": 0.6299212598425197,
          "duration": 0.18833333333333258
        },
        {
          "name": "D#5",
          "midi": 75,
          "time": 63.399999999999814,
          "velocity": 0.6299212598425197,
          "duration": 0.18833333333333258
        },
        {
          "name": "C#5",
          "midi": 73,
          "time": 63.59999999999981,
          "velocity": 0.6299212598425197,
          "duration": 0.18833333333333258
        },
        {
          "name": "F5",
          "midi": 77,
          "time": 63.799999999999805,
          "velocity": 0.6299212598425197,
          "duration": 0.18833333333333258
        },
        {
          "name": "G#5",
          "midi": 80,
          "time": 63.799999999999805,
          "velocity": 0.6299212598425197,
          "duration": 0.3783333333333374
        },
        {
          "name": "C#5",
          "midi": 73,
          "time": 64.3999999999998,
          "velocity": 0.6299212598425197,
          "duration": 0.18833333333333258
        },
        {
          "name": "F5",
          "midi": 77,
          "time": 64.3999999999998,
          "velocity": 0.6299212598425197,
          "duration": 0.18833333333333258
        },
        {
          "name": "F5",
          "midi": 77,
          "time": 64.59999999999981,
          "velocity": 0.6299212598425197,
          "duration": 0.18833333333333258
        },
        {
          "name": "G#5",
          "midi": 80,
          "time": 64.59999999999981,
          "velocity": 0.6299212598425197,
          "duration": 0.3783333333333303
        },
        {
          "name": "C#5",
          "midi": 73,
          "time": 64.9999999999998,
          "velocity": 0.6299212598425197,
          "duration": 0.3783333333333303
        },
        {
          "name": "F5",
          "midi": 77,
          "time": 64.9999999999998,
          "velocity": 0.6299212598425197,
          "duration": 0.3783333333333303
        },
        {
          "name": "C#5",
          "midi": 73,
          "time": 66.1999999999998,
          "velocity": 0.6299212598425197,
          "duration": 0.18833333333333258
        },
        {
          "name": "C#5",
          "midi": 73,
          "time": 66.3999999999998,
          "velocity": 0.6299212598425197,
          "duration": 0.18833333333333258
        },
        {
          "name": "D#5",
          "midi": 75,
          "time": 66.59999999999981,
          "velocity": 0.6299212598425197,
          "duration": 0.18833333333333258
        },
        {
          "name": "C#5",
          "midi": 73,
          "time": 66.79999999999981,
          "velocity": 0.6299212598425197,
          "duration": 0.18833333333333258
        },
        {
          "name": "F5",
          "midi": 77,
          "time": 66.99999999999982,
          "velocity": 0.6299212598425197,
          "duration": 0.18833333333333258
        },
        {
          "name": "G#5",
          "midi": 80,
          "time": 66.99999999999982,
          "velocity": 0.6299212598425197,
          "duration": 0.3783333333333303
        },
        {
          "name": "C#5",
          "midi": 73,
          "time": 67.3999999999998,
          "velocity": 0.6299212598425197,
          "duration": 0.3783333333333303
        },
        {
          "name": "F5",
          "midi": 77,
          "time": 67.3999999999998,
          "velocity": 0.6299212598425197,
          "duration": 0.3783333333333303
        },
        {
          "name": "F5",
          "midi": 77,
          "time": 67.7999999999998,
          "velocity": 0.6299212598425197,
          "duration": 0.18833333333333258
        },
        {
          "name": "G#5",
          "midi": 80,
          "time": 67.7999999999998,
          "velocity": 0.6299212598425197,
          "duration": 0.3783333333333303
        },
        {
          "name": "C#5",
          "midi": 73,
          "time": 68.19999999999979,
          "velocity": 0.6299212598425197,
          "duration": 0.3783333333333303
        },
        {
          "name": "F5",
          "midi": 77,
          "time": 68.19999999999979,
          "velocity": 0.6299212598425197,
          "duration": 0.3783333333333303
        },
        {
          "name": "G#5",
          "midi": 80,
          "time": 69.59999999999978,
          "velocity": 0.6299212598425197,
          "duration": 0.18833333333333258
        },
        {
          "name": "G#5",
          "midi": 80,
          "time": 69.79999999999978,
          "velocity": 0.6299212598425197,
          "duration": 0.18833333333333258
        },
        {
          "name": "G#5",
          "midi": 80,
          "time": 69.99999999999979,
          "velocity": 0.6299212598425197,
          "duration": 0.18833333333333258
        },
        {
          "name": "C#6",
          "midi": 85,
          "time": 70.19999999999979,
          "velocity": 0.6299212598425197,
          "duration": 0.18833333333333258
        },
        {
          "name": "C6",
          "midi": 84,
          "time": 70.39999999999979,
          "velocity": 0.6299212598425197,
          "duration": 0.18833333333333258
        },
        {
          "name": "G#5",
          "midi": 80,
          "time": 70.5999999999998,
          "velocity": 0.6299212598425197,
          "duration": 0.18833333333333258
        },
        {
          "name": "F5",
          "midi": 77,
          "time": 70.9999999999998,
          "velocity": 0.6299212598425197,
          "duration": 0.18833333333333258
        },
        {
          "name": "D#5",
          "midi": 75,
          "time": 71.1999999999998,
          "velocity": 0.6299212598425197,
          "duration": 0.3783333333333303
        },
        {
          "name": "C#6",
          "midi": 85,
          "time": 71.7999999999998,
          "velocity": 0.6299212598425197,
          "duration": 0.18833333333333258
        },
        {
          "name": "C6",
          "midi": 84,
          "time": 71.9999999999998,
          "velocity": 0.6299212598425197,
          "duration": 0.18833333333333258
        },
        {
          "name": "G#5",
          "midi": 80,
          "time": 72.1999999999998,
          "velocity": 0.6299212598425197,
          "duration": 0.18833333333333258
        },
        {
          "name": "F5",
          "midi": 77,
          "time": 72.59999999999981,
          "velocity": 0.6299212598425197,
          "duration": 0.18833333333333258
        },
        {
          "name": "D#5",
          "midi": 75,
          "time": 72.79999999999981,
          "velocity": 0.6299212598425197,
          "duration": 0.3783333333333303
        },
        {
          "name": "C#5",
          "midi": 73,
          "time": 73.1999999999998,
          "velocity": 0.6299212598425197,
          "duration": 0.18833333333333258
        },
        {
          "name": "D#5",
          "midi": 75,
          "time": 73.3999999999998,
          "velocity": 0.6299212598425197,
          "duration": 0.18833333333333258
        },
        {
          "name": "C#5",
          "midi": 73,
          "time": 73.9999999999998,
          "velocity": 0.6299212598425197,
          "duration": 0.18833333333333258
        },
        {
          "name": "D#5",
          "midi": 75,
          "time": 74.1999999999998,
          "velocity": 0.6299212598425197,
          "duration": 0.18833333333333258
        },
        {
          "name": "C#5",
          "midi": 73,
          "time": 74.59999999999981,
          "velocity": 0.6299212598425197,
          "duration": 0.18833333333333258
        },
        {
          "name": "C#5",
          "midi": 73,
          "time": 74.79999999999981,
          "velocity": 0.6299212598425197,
          "duration": 0.18833333333333258
        },
        {
          "name": "A#4",
          "midi": 70,
          "time": 74.99999999999982,
          "velocity": 0.6299212598425197,
          "duration": 0.3783333333333303
        },
        {
          "name": "C4",
          "midi": 60,
          "time": 75.99999999999982,
          "velocity": 0.6299212598425197,
          "duration": 0.3783333333333303
        },
        {
          "name": "C#4",
          "midi": 61,
          "time": 76.3999999999998,
          "velocity": 0.6299212598425197,
          "duration": 0.18833333333333258
        },
        {
          "name": "G#4",
          "midi": 68,
          "time": 76.59999999999981,
          "velocity": 0.6299212598425197,
          "duration": 1.5183333333333309
        },
        {
          "name": "C#4",
          "midi": 61,
          "time": 78.79999999999981,
          "velocity": 0.6299212598425197,
          "duration": 0.18833333333333258
        },
        {
          "name": "C#4",
          "midi": 61,
          "time": 78.99999999999982,
          "velocity": 0.6299212598425197,
          "duration": 0.18833333333333258
        },
        {
          "name": "C4",
          "midi": 60,
          "time": 79.19999999999982,
          "velocity": 0.6299212598425197,
          "duration": 0.3783333333333303
        },
        {
          "name": "C#4",
          "midi": 61,
          "time": 79.59999999999981,
          "velocity": 0.6299212598425197,
          "duration": 0.18833333333333258
        },
        {
          "name": "C#4",
          "midi": 61,
          "time": 79.79999999999981,
          "velocity": 0.6299212598425197,
          "duration": 0.3783333333333303
        },
        {
          "name": "G#4",
          "midi": 68,
          "time": 79.79999999999981,
          "velocity": 0.6299212598425197,
          "duration": 0.3783333333333303
        },
        {
          "name": "C#4",
          "midi": 61,
          "time": 81.3999999999998,
          "velocity": 0.6299212598425197,
          "duration": 0.75833333333334
        },
        {
          "name": "F#4",
          "midi": 66,
          "time": 81.3999999999998,
          "velocity": 0.6299212598425197,
          "duration": 0.75833333333334
        },
        {
          "name": "C#4",
          "midi": 61,
          "time": 82.79999999999981,
          "velocity": 0.6299212598425197,
          "duration": 0.18833333333333258
        },
        {
          "name": "C#4",
          "midi": 61,
          "time": 82.99999999999982,
          "velocity": 0.6299212598425197,
          "duration": 0.18833333333333258
        },
        {
          "name": "C#4",
          "midi": 61,
          "time": 83.19999999999982,
          "velocity": 0.6299212598425197,
          "duration": 0.18833333333333258
        },
        {
          "name": "G#4",
          "midi": 68,
          "time": 83.19999999999982,
          "velocity": 0.6299212598425197,
          "duration": 0.18833333333333258
        },
        {
          "name": "C#4",
          "midi": 61,
          "time": 83.39999999999982,
          "velocity": 0.6299212598425197,
          "duration": 0.3783333333333303
        },
        {
          "name": "G#4",
          "midi": 68,
          "time": 83.39999999999982,
          "velocity": 0.6299212598425197,
          "duration": 0.3783333333333303
        },
        {
          "name": "C#4",
          "midi": 61,
          "time": 83.79999999999981,
          "velocity": 0.6299212598425197,
          "duration": 0.3783333333333303
        },
        {
          "name": "F#4",
          "midi": 66,
          "time": 83.79999999999981,
          "velocity": 0.6299212598425197,
          "duration": 0.3783333333333303
        },
        {
          "name": "C#4",
          "midi": 61,
          "time": 84.3999999999998,
          "velocity": 0.6299212598425197,
          "duration": 0.3783333333333303
        },
        {
          "name": "C#4",
          "midi": 61,
          "time": 84.7999999999998,
          "velocity": 0.6299212598425197,
          "duration": 0.18833333333333258
        },
        {
          "name": "G#4",
          "midi": 68,
          "time": 84.7999999999998,
          "velocity": 0.6299212598425197,
          "duration": 0.18833333333333258
        },
        {
          "name": "C#4",
          "midi": 61,
          "time": 84.9999999999998,
          "velocity": 0.6299212598425197,
          "duration": 0.3783333333333303
        },
        {
          "name": "G#4",
          "midi": 68,
          "time": 84.9999999999998,
          "velocity": 0.6299212598425197,
          "duration": 0.3783333333333303
        },
        {
          "name": "C#4",
          "midi": 61,
          "time": 85.39999999999979,
          "velocity": 0.6299212598425197,
          "duration": 0.3783333333333303
        },
        {
          "name": "F#4",
          "midi": 66,
          "time": 85.39999999999979,
          "velocity": 0.6299212598425197,
          "duration": 0.3783333333333303
        },
        {
          "name": "G#4",
          "midi": 68,
          "time": 85.99999999999979,
          "velocity": 0.6299212598425197,
          "duration": 0.3783333333333303
        },
        {
          "name": "F4",
          "midi": 65,
          "time": 86.39999999999978,
          "velocity": 0.6299212598425197,
          "duration": 1.5183333333333309
        },
        {
          "name": "C4",
          "midi": 60,
          "time": 88.79999999999977,
          "velocity": 0.6299212598425197,
          "duration": 0.3783333333333303
        },
        {
          "name": "C#4",
          "midi": 61,
          "time": 89.19999999999976,
          "velocity": 0.6299212598425197,
          "duration": 0.18833333333333258
        },
        {
          "name": "G#4",
          "midi": 68,
          "time": 89.39999999999976,
          "velocity": 0.6299212598425197,
          "duration": 1.5183333333333309
        },
        {
          "name": "C#4",
          "midi": 61,
          "time": 91.59999999999977,
          "velocity": 0.6299212598425197,
          "duration": 0.18833333333333258
        },
        {
          "name": "C#4",
          "midi": 61,
          "time": 91.79999999999977,
          "velocity": 0.6299212598425197,
          "duration": 0.18833333333333258
        },
        {
          "name": "C4",
          "midi": 60,
          "time": 91.99999999999977,
          "velocity": 0.6299212598425197,
          "duration": 0.3783333333333303
        },
        {
          "name": "C#4",
          "midi": 61,
          "time": 92.39999999999976,
          "velocity": 0.6299212598425197,
          "duration": 0.18833333333333258
        },
        {
          "name": "C#4",
          "midi": 61,
          "time": 92.59999999999977,
          "velocity": 0.6299212598425197,
          "duration": 0.18833333333333258
        },
        {
          "name": "G#4",
          "midi": 68,
          "time": 92.59999999999977,
          "velocity": 0.6299212598425197,
          "duration": 0.9483333333333377
        },
        {
          "name": "C#4",
          "midi": 61,
          "time": 94.19999999999978,
          "velocity": 0.6299212598425197,
          "duration": 0.75833333333334
        },
        {
          "name": "F#4",
          "midi": 66,
          "time": 94.19999999999978,
          "velocity": 0.6299212598425197,
          "duration": 0.75833333333334
        },
        {
          "name": "C#4",
          "midi": 61,
          "time": 95.59999999999978,
          "velocity": 0.6299212598425197,
          "duration": 0.18833333333333258
        },
        {
          "name": "C#4",
          "midi": 61,
          "time": 95.79999999999978,
          "velocity": 0.6299212598425197,
          "duration": 0.18833333333333258
        },
        {
          "name": "C#4",
          "midi": 61,
          "time": 95.99999999999979,
          "velocity": 0.6299212598425197,
          "duration": 0.18833333333333258
        },
        {
          "name": "G#4",
          "midi": 68,
          "time": 95.99999999999979,
          "velocity": 0.6299212598425197,
          "duration": 0.18833333333333258
        },
        {
          "name": "C#4",
          "midi": 61,
          "time": 96.19999999999979,
          "velocity": 0.6299212598425197,
          "duration": 0.3783333333333303
        },
        {
          "name": "G#4",
          "midi": 68,
          "time": 96.19999999999979,
          "velocity": 0.6299212598425197,
          "duration": 0.3783333333333303
        },
        {
          "name": "C#4",
          "midi": 61,
          "time": 96.59999999999978,
          "velocity": 0.6299212598425197,
          "duration": 0.3783333333333303
        },
        {
          "name": "F#4",
          "midi": 66,
          "time": 96.59999999999978,
          "velocity": 0.6299212598425197,
          "duration": 0.3783333333333303
        },
        {
          "name": "C#4",
          "midi": 61,
          "time": 97.19999999999978,
          "velocity": 0.6299212598425197,
          "duration": 0.3783333333333303
        },
        {
          "name": "C#4",
          "midi": 61,
          "time": 97.59999999999977,
          "velocity": 0.6299212598425197,
          "duration": 0.18833333333333258
        },
        {
          "name": "G#4",
          "midi": 68,
          "time": 97.59999999999977,
          "velocity": 0.6299212598425197,
          "duration": 0.18833333333333258
        },
        {
          "name": "C#4",
          "midi": 61,
          "time": 97.79999999999977,
          "velocity": 0.6299212598425197,
          "duration": 0.3783333333333303
        },
        {
          "name": "G#4",
          "midi": 68,
          "time": 97.79999999999977,
          "velocity": 0.6299212598425197,
          "duration": 0.3783333333333303
        },
        {
          "name": "C#4",
          "midi": 61,
          "time": 98.19999999999976,
          "velocity": 0.6299212598425197,
          "duration": 0.3783333333333303
        },
        {
          "name": "F#4",
          "midi": 66,
          "time": 98.19999999999976,
          "velocity": 0.6299212598425197,
          "duration": 0.3783333333333303
        },
        {
          "name": "G#4",
          "midi": 68,
          "time": 98.79999999999976,
          "velocity": 0.6299212598425197,
          "duration": 0.3783333333333303
        },
        {
          "name": "C#4",
          "midi": 61,
          "time": 99.19999999999975,
          "velocity": 0.6299212598425197,
          "duration": 0.3783333333333303
        },
        {
          "name": "F4",
          "midi": 65,
          "time": 99.19999999999975,
          "velocity": 0.6299212598425197,
          "duration": 0.3783333333333303
        },
        {
          "name": "D#4",
          "midi": 63,
          "time": 100.19999999999975,
          "velocity": 0.6299212598425197,
          "duration": 0.18833333333333258
        },
        {
          "name": "F4",
          "midi": 65,
          "time": 100.39999999999975,
          "velocity": 0.6299212598425197,
          "duration": 0.18833333333333258
        },
        {
          "name": "D#4",
          "midi": 63,
          "time": 100.59999999999975,
          "velocity": 0.6299212598425197,
          "duration": 0.18833333333333258
        },
        {
          "name": "C#4",
          "midi": 61,
          "time": 100.79999999999976,
          "velocity": 0.6299212598425197,
          "duration": 1.1383333333333354
        },
        {
          "name": "F#5",
          "midi": 78,
          "time": 102.39999999999976,
          "velocity": 0.6299212598425197,
          "duration": 0.18833333333333258
        },
        {
          "name": "G#5",
          "midi": 80,
          "time": 102.59999999999977,
          "velocity": 0.6299212598425197,
          "duration": 0.18833333333333258
        },
        {
          "name": "C#5",
          "midi": 73,
          "time": 102.79999999999977,
          "velocity": 0.6299212598425197,
          "duration": 0.18833333333333258
        },
        {
          "name": "F#5",
          "midi": 78,
          "time": 103.19999999999978,
          "velocity": 0.6299212598425197,
          "duration": 0.18833333333333258
        },
        {
          "name": "G#5",
          "midi": 80,
          "time": 103.39999999999978,
          "velocity": 0.6299212598425197,
          "duration": 0.18833333333333258
        },
        {
          "name": "C#5",
          "midi": 73,
          "time": 103.59999999999978,
          "velocity": 0.6299212598425197,
          "duration": 0.18833333333333258
        },
        {
          "name": "F#5",
          "midi": 78,
          "time": 103.99999999999979,
          "velocity": 0.6299212598425197,
          "duration": 0.18833333333333258
        },
        {
          "name": "G#5",
          "midi": 80,
          "time": 104.19999999999979,
          "velocity": 0.6299212598425197,
          "duration": 0.18833333333333258
        },
        {
          "name": "C#5",
          "midi": 73,
          "time": 104.39999999999979,
          "velocity": 0.6299212598425197,
          "duration": 0.18833333333333258
        },
        {
          "name": "F#5",
          "midi": 78,
          "time": 104.7999999999998,
          "velocity": 0.6299212598425197,
          "duration": 0.18833333333333258
        },
        {
          "name": "G#5",
          "midi": 80,
          "time": 104.9999999999998,
          "velocity": 0.6299212598425197,
          "duration": 0.18833333333333258
        },
        {
          "name": "C#5",
          "midi": 73,
          "time": 105.1999999999998,
          "velocity": 0.6299212598425197,
          "duration": 0.18833333333333258
        },
        {
          "name": "G#5",
          "midi": 80,
          "time": 105.59999999999981,
          "velocity": 0.6299212598425197,
          "duration": 0.18833333333333258
        },
        {
          "name": "A5",
          "midi": 81,
          "time": 105.79999999999981,
          "velocity": 0.6299212598425197,
          "duration": 0.18833333333333258
        },
        {
          "name": "F#5",
          "midi": 78,
          "time": 105.99999999999982,
          "velocity": 0.6299212598425197,
          "duration": 0.18833333333333258
        },
        {
          "name": "G#5",
          "midi": 80,
          "time": 106.39999999999982,
          "velocity": 0.6299212598425197,
          "duration": 0.18833333333333258
        },
        {
          "name": "A5",
          "midi": 81,
          "time": 106.59999999999982,
          "velocity": 0.6299212598425197,
          "duration": 0.18833333333333258
        },
        {
          "name": "F#5",
          "midi": 78,
          "time": 106.79999999999983,
          "velocity": 0.6299212598425197,
          "duration": 0.18833333333333258
        },
        {
          "name": "G#5",
          "midi": 80,
          "time": 107.19999999999983,
          "velocity": 0.6299212598425197,
          "duration": 0.18833333333333258
        },
        {
          "name": "A5",
          "midi": 81,
          "time": 107.39999999999984,
          "velocity": 0.6299212598425197,
          "duration": 0.18833333333333258
        },
        {
          "name": "F#5",
          "midi": 78,
          "time": 107.59999999999984,
          "velocity": 0.6299212598425197,
          "duration": 0.18833333333333258
        },
        {
          "name": "G#5",
          "midi": 80,
          "time": 107.99999999999984,
          "velocity": 0.6299212598425197,
          "duration": 0.18833333333333258
        },
        {
          "name": "A5",
          "midi": 81,
          "time": 108.19999999999985,
          "velocity": 0.6299212598425197,
          "duration": 0.18833333333333258
        },
        {
          "name": "F#5",
          "midi": 78,
          "time": 108.39999999999985,
          "velocity": 0.6299212598425197,
          "duration": 0.18833333333333258
        },
        {
          "name": "F#5",
          "midi": 78,
          "time": 108.79999999999986,
          "velocity": 0.6299212598425197,
          "duration": 0.18833333333333258
        },
        {
          "name": "G#5",
          "midi": 80,
          "time": 108.99999999999986,
          "velocity": 0.6299212598425197,
          "duration": 0.18833333333333258
        },
        {
          "name": "C#5",
          "midi": 73,
          "time": 109.19999999999986,
          "velocity": 0.6299212598425197,
          "duration": 0.18833333333333258
        },
        {
          "name": "F#5",
          "midi": 78,
          "time": 109.59999999999987,
          "velocity": 0.6299212598425197,
          "duration": 0.18833333333333258
        },
        {
          "name": "G#5",
          "midi": 80,
          "time": 109.79999999999987,
          "velocity": 0.6299212598425197,
          "duration": 0.18833333333333258
        },
        {
          "name": "C#5",
          "midi": 73,
          "time": 109.99999999999987,
          "velocity": 0.6299212598425197,
          "duration": 0.18833333333333258
        },
        {
          "name": "F#5",
          "midi": 78,
          "time": 110.39999999999988,
          "velocity": 0.6299212598425197,
          "duration": 0.18833333333333258
        },
        {
          "name": "G#5",
          "midi": 80,
          "time": 110.59999999999988,
          "velocity": 0.6299212598425197,
          "duration": 0.18833333333333258
        },
        {
          "name": "C#5",
          "midi": 73,
          "time": 110.79999999999988,
          "velocity": 0.6299212598425197,
          "duration": 0.18833333333333258
        },
        {
          "name": "F#5",
          "midi": 78,
          "time": 111.19999999999989,
          "velocity": 0.6299212598425197,
          "duration": 0.18833333333333258
        },
        {
          "name": "G#5",
          "midi": 80,
          "time": 111.39999999999989,
          "velocity": 0.6299212598425197,
          "duration": 0.18833333333333258
        },
        {
          "name": "C#5",
          "midi": 73,
          "time": 111.5999999999999,
          "velocity": 0.6299212598425197,
          "duration": 0.18833333333333258
        },
        {
          "name": "F#5",
          "midi": 78,
          "time": 111.9999999999999,
          "velocity": 0.6299212598425197,
          "duration": 0.18833333333333258
        },
        {
          "name": "G#5",
          "midi": 80,
          "time": 112.1999999999999,
          "velocity": 0.6299212598425197,
          "duration": 0.18833333333333258
        },
        {
          "name": "F5",
          "midi": 77,
          "time": 112.3999999999999,
          "velocity": 0.6299212598425197,
          "duration": 0.18833333333333258
        },
        {
          "name": "F#5",
          "midi": 78,
          "time": 112.79999999999991,
          "velocity": 0.6299212598425197,
          "duration": 0.18833333333333258
        },
        {
          "name": "G#5",
          "midi": 80,
          "time": 112.99999999999991,
          "velocity": 0.6299212598425197,
          "duration": 0.18833333333333258
        },
        {
          "name": "F5",
          "midi": 77,
          "time": 113.19999999999992,
          "velocity": 0.6299212598425197,
          "duration": 0.18833333333333258
        },
        {
          "name": "F#5",
          "midi": 78,
          "time": 113.59999999999992,
          "velocity": 0.6299212598425197,
          "duration": 0.18833333333333258
        },
        {
          "name": "G#5",
          "midi": 80,
          "time": 113.79999999999993,
          "velocity": 0.6299212598425197,
          "duration": 0.18833333333333258
        },
        {
          "name": "F5",
          "midi": 77,
          "time": 113.99999999999993,
          "velocity": 0.6299212598425197,
          "duration": 0.18833333333333258
        },
        {
          "name": "F#5",
          "midi": 78,
          "time": 114.39999999999993,
          "velocity": 0.6299212598425197,
          "duration": 0.18833333333333258
        },
        {
          "name": "G#5",
          "midi": 80,
          "time": 114.59999999999994,
          "velocity": 0.6299212598425197,
          "duration": 0.18833333333333258
        },
        {
          "name": "F5",
          "midi": 77,
          "time": 114.79999999999994,
          "velocity": 0.6299212598425197,
          "duration": 0.18833333333333258
        },
        {
          "name": "F#5",
          "midi": 78,
          "time": 115.19999999999995,
          "velocity": 0.6299212598425197,
          "duration": 0.18833333333333258
        },
        {
          "name": "G#5",
          "midi": 80,
          "time": 115.39999999999995,
          "velocity": 0.6299212598425197,
          "duration": 0.18833333333333258
        },
        {
          "name": "C#5",
          "midi": 73,
          "time": 115.59999999999995,
          "velocity": 0.6299212598425197,
          "duration": 0.18833333333333258
        },
        {
          "name": "F#5",
          "midi": 78,
          "time": 115.99999999999996,
          "velocity": 0.6299212598425197,
          "duration": 0.18833333333333258
        },
        {
          "name": "G#5",
          "midi": 80,
          "time": 116.19999999999996,
          "velocity": 0.6299212598425197,
          "duration": 0.18833333333333258
        },
        {
          "name": "C#5",
          "midi": 73,
          "time": 116.39999999999996,
          "velocity": 0.6299212598425197,
          "duration": 0.18833333333333258
        },
        {
          "name": "F#5",
          "midi": 78,
          "time": 116.79999999999997,
          "velocity": 0.6299212598425197,
          "duration": 0.18833333333333258
        },
        {
          "name": "G#5",
          "midi": 80,
          "time": 116.99999999999997,
          "velocity": 0.6299212598425197,
          "duration": 0.18833333333333258
        },
        {
          "name": "C#5",
          "midi": 73,
          "time": 117.19999999999997,
          "velocity": 0.6299212598425197,
          "duration": 0.18833333333333258
        },
        {
          "name": "F#5",
          "midi": 78,
          "time": 117.59999999999998,
          "velocity": 0.6299212598425197,
          "duration": 0.18833333333333258
        },
        {
          "name": "G#5",
          "midi": 80,
          "time": 117.79999999999998,
          "velocity": 0.6299212598425197,
          "duration": 0.18833333333333258
        },
        {
          "name": "C#5",
          "midi": 73,
          "time": 117.99999999999999,
          "velocity": 0.6299212598425197,
          "duration": 0.18833333333333258
        },
        {
          "name": "G#5",
          "midi": 80,
          "time": 118.39999999999999,
          "velocity": 0.6299212598425197,
          "duration": 0.18833333333333258
        },
        {
          "name": "A5",
          "midi": 81,
          "time": 118.6,
          "velocity": 0.6299212598425197,
          "duration": 0.18833333333333258
        },
        {
          "name": "F#5",
          "midi": 78,
          "time": 118.8,
          "velocity": 0.6299212598425197,
          "duration": 0.18833333333333258
        },
        {
          "name": "G#5",
          "midi": 80,
          "time": 119.2,
          "velocity": 0.6299212598425197,
          "duration": 0.18833333333333258
        },
        {
          "name": "A5",
          "midi": 81,
          "time": 119.4,
          "velocity": 0.6299212598425197,
          "duration": 0.18833333333333258
        },
        {
          "name": "F#5",
          "midi": 78,
          "time": 119.60000000000001,
          "velocity": 0.6299212598425197,
          "duration": 0.18833333333333258
        },
        {
          "name": "G#5",
          "midi": 80,
          "time": 120.00000000000001,
          "velocity": 0.6299212598425197,
          "duration": 0.18833333333333258
        },
        {
          "name": "A5",
          "midi": 81,
          "time": 120.20000000000002,
          "velocity": 0.6299212598425197,
          "duration": 0.18833333333333258
        },
        {
          "name": "F#5",
          "midi": 78,
          "time": 120.40000000000002,
          "velocity": 0.6299212598425197,
          "duration": 0.18833333333333258
        },
        {
          "name": "G#5",
          "midi": 80,
          "time": 120.80000000000003,
          "velocity": 0.6299212598425197,
          "duration": 0.18833333333333258
        },
        {
          "name": "A5",
          "midi": 81,
          "time": 121.00000000000003,
          "velocity": 0.6299212598425197,
          "duration": 0.18833333333333258
        },
        {
          "name": "F#5",
          "midi": 78,
          "time": 121.20000000000003,
          "velocity": 0.6299212598425197,
          "duration": 0.18833333333333258
        },
        {
          "name": "F#5",
          "midi": 78,
          "time": 121.60000000000004,
          "velocity": 0.6299212598425197,
          "duration": 0.18833333333333258
        },
        {
          "name": "G#5",
          "midi": 80,
          "time": 121.80000000000004,
          "velocity": 0.6299212598425197,
          "duration": 0.18833333333333258
        },
        {
          "name": "C#5",
          "midi": 73,
          "time": 122.00000000000004,
          "velocity": 0.6299212598425197,
          "duration": 0.18833333333333258
        },
        {
          "name": "F#5",
          "midi": 78,
          "time": 122.40000000000005,
          "velocity": 0.6299212598425197,
          "duration": 0.18833333333333258
        },
        {
          "name": "G#5",
          "midi": 80,
          "time": 122.60000000000005,
          "velocity": 0.6299212598425197,
          "duration": 0.18833333333333258
        },
        {
          "name": "C#5",
          "midi": 73,
          "time": 122.80000000000005,
          "velocity": 0.6299212598425197,
          "duration": 0.18833333333333258
        },
        {
          "name": "F#5",
          "midi": 78,
          "time": 123.20000000000006,
          "velocity": 0.6299212598425197,
          "duration": 0.18833333333333258
        },
        {
          "name": "G#5",
          "midi": 80,
          "time": 123.40000000000006,
          "velocity": 0.6299212598425197,
          "duration": 0.18833333333333258
        },
        {
          "name": "C#5",
          "midi": 73,
          "time": 123.60000000000007,
          "velocity": 0.6299212598425197,
          "duration": 0.18833333333333258
        },
        {
          "name": "F#5",
          "midi": 78,
          "time": 124.00000000000007,
          "velocity": 0.6299212598425197,
          "duration": 0.18833333333333258
        },
        {
          "name": "G#5",
          "midi": 80,
          "time": 124.20000000000007,
          "velocity": 0.6299212598425197,
          "duration": 0.18833333333333258
        },
        {
          "name": "C#5",
          "midi": 73,
          "time": 124.40000000000008,
          "velocity": 0.6299212598425197,
          "duration": 0.18833333333333258
        },
        {
          "name": "F#5",
          "midi": 78,
          "time": 124.80000000000008,
          "velocity": 0.6299212598425197,
          "duration": 0.18833333333333258
        },
        {
          "name": "G#5",
          "midi": 80,
          "time": 125.00000000000009,
          "velocity": 0.6299212598425197,
          "duration": 0.18833333333333258
        },
        {
          "name": "F5",
          "midi": 77,
          "time": 125.20000000000009,
          "velocity": 0.6299212598425197,
          "duration": 0.18833333333333258
        },
        {
          "name": "F#5",
          "midi": 78,
          "time": 125.6000000000001,
          "velocity": 0.6299212598425197,
          "duration": 0.18833333333333258
        },
        {
          "name": "G#5",
          "midi": 80,
          "time": 125.8000000000001,
          "velocity": 0.6299212598425197,
          "duration": 0.18833333333333258
        },
        {
          "name": "F5",
          "midi": 77,
          "time": 126.0000000000001,
          "velocity": 0.6299212598425197,
          "duration": 0.18833333333333258
        },
        {
          "name": "F#5",
          "midi": 78,
          "time": 126.4000000000001,
          "velocity": 0.6299212598425197,
          "duration": 0.18833333333333258
        },
        {
          "name": "G#5",
          "midi": 80,
          "time": 126.60000000000011,
          "velocity": 0.6299212598425197,
          "duration": 0.18833333333333258
        },
        {
          "name": "F#5",
          "midi": 78,
          "time": 126.80000000000011,
          "velocity": 0.6299212598425197,
          "duration": 0.18833333333333258
        },
        {
          "name": "F5",
          "midi": 77,
          "time": 127.00000000000011,
          "velocity": 0.6299212598425197,
          "duration": 0.18833333333333258
        },
        {
          "name": "D#5",
          "midi": 75,
          "time": 127.20000000000012,
          "velocity": 0.6299212598425197,
          "duration": 0.18833333333333258
        },
        {
          "name": "C#5",
          "midi": 73,
          "time": 127.40000000000012,
          "velocity": 0.6299212598425197,
          "duration": 0.18833333333333258
        },
        {
          "name": "C5",
          "midi": 72,
          "time": 127.60000000000012,
          "velocity": 0.6299212598425197,
          "duration": 0.18833333333333258
        },
        {
          "name": "C#5",
          "midi": 73,
          "time": 127.80000000000013,
          "velocity": 0.6299212598425197,
          "duration": 0.18833333333333258
        },
        {
          "name": "F5",
          "midi": 77,
          "time": 128.0000000000001,
          "velocity": 0.6299212598425197,
          "duration": 0.7583333333333258
        },
        {
          "name": "G#5",
          "midi": 80,
          "time": 128.0000000000001,
          "velocity": 0.6299212598425197,
          "duration": 0.7583333333333258
        },
        {
          "name": "C#5",
          "midi": 73,
          "time": 129.2000000000001,
          "velocity": 0.6299212598425197,
          "duration": 0.18833333333333258
        },
        {
          "name": "F5",
          "midi": 77,
          "time": 129.2000000000001,
          "velocity": 0.6299212598425197,
          "duration": 0.18833333333333258
        },
        {
          "name": "C#5",
          "midi": 73,
          "time": 130.8000000000001,
          "velocity": 0.6299212598425197,
          "duration": 0.3783333333333303
        },
        {
          "name": "F5",
          "midi": 77,
          "time": 131.2000000000001,
          "velocity": 0.6299212598425197,
          "duration": 0.7583333333333258
        },
        {
          "name": "G#5",
          "midi": 80,
          "time": 131.2000000000001,
          "velocity": 0.6299212598425197,
          "duration": 0.7583333333333258
        },
        {
          "name": "C#5",
          "midi": 73,
          "time": 132.4000000000001,
          "velocity": 0.6299212598425197,
          "duration": 0.3783333333333303
        },
        {
          "name": "F5",
          "midi": 77,
          "time": 132.4000000000001,
          "velocity": 0.6299212598425197,
          "duration": 0.3783333333333303
        },
        {
          "name": "C6",
          "midi": 84,
          "time": 134.2000000000001,
          "velocity": 0.6299212598425197,
          "duration": 0.09833333333332916
        },
        {
          "name": "C#6",
          "midi": 85,
          "time": 134.3000000000001,
          "velocity": 0.6299212598425197,
          "duration": 0.09333333333333371
        },
        {
          "name": "C6",
          "midi": 84,
          "time": 134.4000000000001,
          "velocity": 0.6299212598425197,
          "duration": 0.7583333333333258
        },
        {
          "name": "C6",
          "midi": 84,
          "time": 135.8000000000001,
          "velocity": 0.6299212598425197,
          "duration": 0.09833333333332916
        },
        {
          "name": "C#6",
          "midi": 85,
          "time": 135.9000000000001,
          "velocity": 0.6299212598425197,
          "duration": 0.09333333333333371
        },
        {
          "name": "C6",
          "midi": 84,
          "time": 136.00000000000009,
          "velocity": 0.6299212598425197,
          "duration": 0.7583333333333258
        },
        {
          "name": "C6",
          "midi": 84,
          "time": 137.4000000000001,
          "velocity": 0.6299212598425197,
          "duration": 0.09333333333333371
        },
        {
          "name": "C#6",
          "midi": 85,
          "time": 137.50000000000009,
          "velocity": 0.6299212598425197,
          "duration": 0.09333333333333371
        },
        {
          "name": "C6",
          "midi": 84,
          "time": 137.60000000000008,
          "velocity": 0.6299212598425197,
          "duration": 0.09333333333333371
        },
        {
          "name": "C#6",
          "midi": 85,
          "time": 137.70000000000007,
          "velocity": 0.6299212598425197,
          "duration": 0.09333333333333371
        },
        {
          "name": "C6",
          "midi": 84,
          "time": 137.80000000000007,
          "velocity": 0.6299212598425197,
          "duration": 0.09333333333333371
        },
        {
          "name": "C#6",
          "midi": 85,
          "time": 137.90000000000006,
          "velocity": 0.6299212598425197,
          "duration": 0.09333333333333371
        },
        {
          "name": "C6",
          "midi": 84,
          "time": 138.00000000000006,
          "velocity": 0.6299212598425197,
          "duration": 0.09333333333333371
        },
        {
          "name": "C#6",
          "midi": 85,
          "time": 138.10000000000005,
          "velocity": 0.6299212598425197,
          "duration": 0.09333333333333371
        },
        {
          "name": "C6",
          "midi": 84,
          "time": 138.20000000000005,
          "velocity": 0.6299212598425197,
          "duration": 0.09333333333333371
        },
        {
          "name": "C#6",
          "midi": 85,
          "time": 138.30000000000004,
          "velocity": 0.6299212598425197,
          "duration": 0.09333333333333371
        },
        {
          "name": "C6",
          "midi": 84,
          "time": 138.40000000000003,
          "velocity": 0.6299212598425197,
          "duration": 0.09333333333333371
        },
        {
          "name": "C#6",
          "midi": 85,
          "time": 138.50000000000003,
          "velocity": 0.6299212598425197,
          "duration": 0.09333333333333371
        },
        {
          "name": "C6",
          "midi": 84,
          "time": 138.60000000000002,
          "velocity": 0.6299212598425197,
          "duration": 0.09333333333333371
        },
        {
          "name": "C#6",
          "midi": 85,
          "time": 138.70000000000002,
          "velocity": 0.6299212598425197,
          "duration": 0.09333333333333371
        },
        {
          "name": "C6",
          "midi": 84,
          "time": 138.8,
          "velocity": 0.6299212598425197,
          "duration": 0.09333333333333371
        },
        {
          "name": "C#6",
          "midi": 85,
          "time": 138.9,
          "velocity": 0.6299212598425197,
          "duration": 0.09333333333333371
        },
        {
          "name": "C6",
          "midi": 84,
          "time": 139,
          "velocity": 0.6299212598425197,
          "duration": 0.09333333333333371
        },
        {
          "name": "C#6",
          "midi": 85,
          "time": 139.1,
          "velocity": 0.6299212598425197,
          "duration": 0.09333333333333371
        },
        {
          "name": "C6",
          "midi": 84,
          "time": 139.2,
          "velocity": 0.6299212598425197,
          "duration": 0.09333333333333371
        },
        {
          "name": "C#5",
          "midi": 73,
          "time": 139.6,
          "velocity": 0.6299212598425197,
          "duration": 0.18833333333333258
        },
        {
          "name": "C#5",
          "midi": 73,
          "time": 139.79999999999998,
          "velocity": 0.6299212598425197,
          "duration": 0.18833333333333258
        },
        {
          "name": "C#5",
          "midi": 73,
          "time": 139.99999999999997,
          "velocity": 0.6299212598425197,
          "duration": 0.18833333333333258
        },
        {
          "name": "D#5",
          "midi": 75,
          "time": 140.19999999999996,
          "velocity": 0.6299212598425197,
          "duration": 0.18833333333333258
        },
        {
          "name": "C#5",
          "midi": 73,
          "time": 140.39999999999995,
          "velocity": 0.6299212598425197,
          "duration": 0.18833333333333258
        },
        {
          "name": "F5",
          "midi": 77,
          "time": 140.59999999999994,
          "velocity": 0.6299212598425197,
          "duration": 0.18833333333333258
        },
        {
          "name": "G#5",
          "midi": 80,
          "time": 140.59999999999994,
          "velocity": 0.6299212598425197,
          "duration": 0.3783333333333303
        },
        {
          "name": "C#5",
          "midi": 73,
          "time": 141.19999999999993,
          "velocity": 0.6299212598425197,
          "duration": 0.18833333333333258
        },
        {
          "name": "F5",
          "midi": 77,
          "time": 141.19999999999993,
          "velocity": 0.6299212598425197,
          "duration": 0.18833333333333258
        },
        {
          "name": "F5",
          "midi": 77,
          "time": 141.39999999999992,
          "velocity": 0.6299212598425197,
          "duration": 0.18833333333333258
        },
        {
          "name": "G#5",
          "midi": 80,
          "time": 141.39999999999992,
          "velocity": 0.6299212598425197,
          "duration": 0.3783333333333303
        },
        {
          "name": "C#5",
          "midi": 73,
          "time": 141.79999999999993,
          "velocity": 0.6299212598425197,
          "duration": 0.3783333333333303
        },
        {
          "name": "F5",
          "midi": 77,
          "time": 141.79999999999993,
          "velocity": 0.6299212598425197,
          "duration": 0.3783333333333303
        },
        {
          "name": "C#5",
          "midi": 73,
          "time": 142.99999999999991,
          "velocity": 0.6299212598425197,
          "duration": 0.18833333333333258
        },
        {
          "name": "C#5",
          "midi": 73,
          "time": 143.1999999999999,
          "velocity": 0.6299212598425197,
          "duration": 0.18833333333333258
        },
        {
          "name": "D#5",
          "midi": 75,
          "time": 143.3999999999999,
          "velocity": 0.6299212598425197,
          "duration": 0.18833333333333258
        },
        {
          "name": "C#5",
          "midi": 73,
          "time": 143.59999999999988,
          "velocity": 0.6299212598425197,
          "duration": 0.18833333333333258
        },
        {
          "name": "F5",
          "midi": 77,
          "time": 143.79999999999987,
          "velocity": 0.6299212598425197,
          "duration": 0.18833333333333258
        },
        {
          "name": "G#5",
          "midi": 80,
          "time": 143.79999999999987,
          "velocity": 0.6299212598425197,
          "duration": 0.3783333333333303
        },
        {
          "name": "C#5",
          "midi": 73,
          "time": 144.19999999999987,
          "velocity": 0.6299212598425197,
          "duration": 0.3783333333333303
        },
        {
          "name": "F5",
          "midi": 77,
          "time": 144.19999999999987,
          "velocity": 0.6299212598425197,
          "duration": 0.3783333333333303
        },
        {
          "name": "F5",
          "midi": 77,
          "time": 144.59999999999988,
          "velocity": 0.6299212598425197,
          "duration": 0.18833333333333258
        },
        {
          "name": "G#5",
          "midi": 80,
          "time": 144.59999999999988,
          "velocity": 0.6299212598425197,
          "duration": 0.3783333333333303
        },
        {
          "name": "C#5",
          "midi": 73,
          "time": 144.9999999999999,
          "velocity": 0.6299212598425197,
          "duration": 0.3783333333333303
        },
        {
          "name": "F5",
          "midi": 77,
          "time": 144.9999999999999,
          "velocity": 0.6299212598425197,
          "duration": 0.3783333333333303
        },
        {
          "name": "G#5",
          "midi": 80,
          "time": 146.3999999999999,
          "velocity": 0.6299212598425197,
          "duration": 0.18833333333333258
        },
        {
          "name": "G#5",
          "midi": 80,
          "time": 146.59999999999988,
          "velocity": 0.6299212598425197,
          "duration": 0.18833333333333258
        },
        {
          "name": "G#5",
          "midi": 80,
          "time": 146.79999999999987,
          "velocity": 0.6299212598425197,
          "duration": 0.18833333333333258
        },
        {
          "name": "C#6",
          "midi": 85,
          "time": 146.99999999999986,
          "velocity": 0.6299212598425197,
          "duration": 0.18833333333333258
        },
        {
          "name": "C6",
          "midi": 84,
          "time": 147.19999999999985,
          "velocity": 0.6299212598425197,
          "duration": 0.18833333333333258
        },
        {
          "name": "G#5",
          "midi": 80,
          "time": 147.39999999999984,
          "velocity": 0.6299212598425197,
          "duration": 0.18833333333333258
        },
        {
          "name": "F5",
          "midi": 77,
          "time": 147.79999999999984,
          "velocity": 0.6299212598425197,
          "duration": 0.18833333333333258
        },
        {
          "name": "D#5",
          "midi": 75,
          "time": 147.99999999999983,
          "velocity": 0.6299212598425197,
          "duration": 0.3783333333333303
        },
        {
          "name": "C#6",
          "midi": 85,
          "time": 148.59999999999982,
          "velocity": 0.6299212598425197,
          "duration": 0.18833333333333258
        },
        {
          "name": "C6",
          "midi": 84,
          "time": 148.7999999999998,
          "velocity": 0.6299212598425197,
          "duration": 0.18833333333333258
        },
        {
          "name": "G#5",
          "midi": 80,
          "time": 148.9999999999998,
          "velocity": 0.6299212598425197,
          "duration": 0.18833333333333258
        },
        {
          "name": "F5",
          "midi": 77,
          "time": 149.3999999999998,
          "velocity": 0.6299212598425197,
          "duration": 0.18833333333333258
        },
        {
          "name": "D#5",
          "midi": 75,
          "time": 149.5999999999998,
          "velocity": 0.6299212598425197,
          "duration": 0.3783333333333303
        },
        {
          "name": "C#5",
          "midi": 73,
          "time": 149.9999999999998,
          "velocity": 0.6299212598425197,
          "duration": 0.18833333333333258
        },
        {
          "name": "D#5",
          "midi": 75,
          "time": 150.1999999999998,
          "velocity": 0.6299212598425197,
          "duration": 0.18833333333333258
        },
        {
          "name": "C#5",
          "midi": 73,
          "time": 150.79999999999978,
          "velocity": 0.6299212598425197,
          "duration": 0.18833333333333258
        },
        {
          "name": "D#5",
          "midi": 75,
          "time": 150.99999999999977,
          "velocity": 0.6299212598425197,
          "duration": 0.18833333333333258
        },
        {
          "name": "C#5",
          "midi": 73,
          "time": 151.39999999999978,
          "velocity": 0.6299212598425197,
          "duration": 0.18833333333333258
        },
        {
          "name": "C#5",
          "midi": 73,
          "time": 151.59999999999977,
          "velocity": 0.6299212598425197,
          "duration": 0.18833333333333258
        },
        {
          "name": "A#4",
          "midi": 70,
          "time": 151.79999999999976,
          "velocity": 0.6299212598425197,
          "duration": 0.3783333333333303
        },
        {
          "name": "C#5",
          "midi": 73,
          "time": 152.59999999999974,
          "velocity": 0.6299212598425197,
          "duration": 0.18833333333333258
        },
        {
          "name": "C#5",
          "midi": 73,
          "time": 152.79999999999973,
          "velocity": 0.6299212598425197,
          "duration": 0.18833333333333258
        },
        {
          "name": "D#5",
          "midi": 75,
          "time": 152.99999999999972,
          "velocity": 0.6299212598425197,
          "duration": 0.18833333333333258
        },
        {
          "name": "C#5",
          "midi": 73,
          "time": 153.1999999999997,
          "velocity": 0.6299212598425197,
          "duration": 0.18833333333333258
        },
        {
          "name": "F5",
          "midi": 77,
          "time": 153.3999999999997,
          "velocity": 0.6299212598425197,
          "duration": 0.18833333333333258
        },
        {
          "name": "G#5",
          "midi": 80,
          "time": 153.3999999999997,
          "velocity": 0.6299212598425197,
          "duration": 0.3783333333333303
        },
        {
          "name": "C#5",
          "midi": 73,
          "time": 153.9999999999997,
          "velocity": 0.6299212598425197,
          "duration": 0.18833333333333258
        },
        {
          "name": "F5",
          "midi": 77,
          "time": 153.9999999999997,
          "velocity": 0.6299212598425197,
          "duration": 0.18833333333333258
        },
        {
          "name": "F5",
          "midi": 77,
          "time": 154.19999999999968,
          "velocity": 0.6299212598425197,
          "duration": 0.18833333333333258
        },
        {
          "name": "G#5",
          "midi": 80,
          "time": 154.19999999999968,
          "velocity": 0.6299212598425197,
          "duration": 0.3783333333333303
        },
        {
          "name": "C#5",
          "midi": 73,
          "time": 154.59999999999968,
          "velocity": 0.6299212598425197,
          "duration": 0.3783333333333303
        },
        {
          "name": "F5",
          "midi": 77,
          "time": 154.59999999999968,
          "velocity": 0.6299212598425197,
          "duration": 0.3783333333333303
        },
        {
          "name": "C#5",
          "midi": 73,
          "time": 155.79999999999967,
          "velocity": 0.6299212598425197,
          "duration": 0.18833333333333258
        },
        {
          "name": "C#5",
          "midi": 73,
          "time": 155.99999999999966,
          "velocity": 0.6299212598425197,
          "duration": 0.18833333333333258
        },
        {
          "name": "D#5",
          "midi": 75,
          "time": 156.19999999999965,
          "velocity": 0.6299212598425197,
          "duration": 0.18833333333333258
        },
        {
          "name": "C#5",
          "midi": 73,
          "time": 156.39999999999964,
          "velocity": 0.6299212598425197,
          "duration": 0.18833333333333258
        },
        {
          "name": "F5",
          "midi": 77,
          "time": 156.59999999999962,
          "velocity": 0.6299212598425197,
          "duration": 0.18833333333333258
        },
        {
          "name": "G#5",
          "midi": 80,
          "time": 156.59999999999962,
          "velocity": 0.6299212598425197,
          "duration": 0.3783333333333303
        },
        {
          "name": "C#5",
          "midi": 73,
          "time": 156.99999999999963,
          "velocity": 0.6299212598425197,
          "duration": 0.3783333333333303
        },
        {
          "name": "F5",
          "midi": 77,
          "time": 156.99999999999963,
          "velocity": 0.6299212598425197,
          "duration": 0.3783333333333303
        },
        {
          "name": "F5",
          "midi": 77,
          "time": 157.39999999999964,
          "velocity": 0.6299212598425197,
          "duration": 0.18833333333333258
        },
        {
          "name": "G#5",
          "midi": 80,
          "time": 157.39999999999964,
          "velocity": 0.6299212598425197,
          "duration": 0.3783333333333303
        },
        {
          "name": "C#5",
          "midi": 73,
          "time": 157.79999999999964,
          "velocity": 0.6299212598425197,
          "duration": 0.3783333333333303
        },
        {
          "name": "F5",
          "midi": 77,
          "time": 157.79999999999964,
          "velocity": 0.6299212598425197,
          "duration": 0.3783333333333303
        },
        {
          "name": "G#5",
          "midi": 80,
          "time": 159.19999999999965,
          "velocity": 0.6299212598425197,
          "duration": 0.18833333333333258
        },
        {
          "name": "G#5",
          "midi": 80,
          "time": 159.39999999999964,
          "velocity": 0.6299212598425197,
          "duration": 0.18833333333333258
        },
        {
          "name": "G#5",
          "midi": 80,
          "time": 159.59999999999962,
          "velocity": 0.6299212598425197,
          "duration": 0.18833333333333258
        },
        {
          "name": "C#6",
          "midi": 85,
          "time": 159.7999999999996,
          "velocity": 0.6299212598425197,
          "duration": 0.18833333333333258
        },
        {
          "name": "C6",
          "midi": 84,
          "time": 159.9999999999996,
          "velocity": 0.6299212598425197,
          "duration": 0.18833333333333258
        },
        {
          "name": "G#5",
          "midi": 80,
          "time": 160.1999999999996,
          "velocity": 0.6299212598425197,
          "duration": 0.18833333333333258
        },
        {
          "name": "F5",
          "midi": 77,
          "time": 160.5999999999996,
          "velocity": 0.6299212598425197,
          "duration": 0.18833333333333258
        },
        {
          "name": "D#5",
          "midi": 75,
          "time": 160.79999999999959,
          "velocity": 0.6299212598425197,
          "duration": 0.3783333333333303
        },
        {
          "name": "C#6",
          "midi": 85,
          "time": 161.39999999999958,
          "velocity": 0.6299212598425197,
          "duration": 0.18833333333333258
        },
        {
          "name": "C6",
          "midi": 84,
          "time": 161.59999999999957,
          "velocity": 0.6299212598425197,
          "duration": 0.18833333333333258
        },
        {
          "name": "G#5",
          "midi": 80,
          "time": 161.79999999999956,
          "velocity": 0.6299212598425197,
          "duration": 0.18833333333333258
        },
        {
          "name": "F5",
          "midi": 77,
          "time": 162.19999999999956,
          "velocity": 0.6299212598425197,
          "duration": 0.18833333333333258
        },
        {
          "name": "D#5",
          "midi": 75,
          "time": 162.39999999999955,
          "velocity": 0.6299212598425197,
          "duration": 0.3783333333333303
        },
        {
          "name": "C#5",
          "midi": 73,
          "time": 162.79999999999956,
          "velocity": 0.6299212598425197,
          "duration": 0.18833333333333258
        },
        {
          "name": "D#5",
          "midi": 75,
          "time": 162.99999999999955,
          "velocity": 0.6299212598425197,
          "duration": 0.18833333333333258
        },
        {
          "name": "C#5",
          "midi": 73,
          "time": 163.59999999999954,
          "velocity": 0.6299212598425197,
          "duration": 0.18833333333333258
        },
        {
          "name": "D#5",
          "midi": 75,
          "time": 163.79999999999953,
          "velocity": 0.6299212598425197,
          "duration": 0.18833333333333258
        },
        {
          "name": "C#5",
          "midi": 73,
          "time": 164.19999999999953,
          "velocity": 0.6299212598425197,
          "duration": 0.18833333333333258
        },
        {
          "name": "C#5",
          "midi": 73,
          "time": 164.39999999999952,
          "velocity": 0.6299212598425197,
          "duration": 0.18833333333333258
        },
        {
          "name": "A#4",
          "midi": 70,
          "time": 164.5999999999995,
          "velocity": 0.6299212598425197,
          "duration": 0.3783333333333303
        },
        {
          "name": "C4",
          "midi": 60,
          "time": 165.5999999999995,
          "velocity": 0.6299212598425197,
          "duration": 0.3783333333333303
        },
        {
          "name": "C#4",
          "midi": 61,
          "time": 165.99999999999952,
          "velocity": 0.6299212598425197,
          "duration": 0.18833333333333258
        },
        {
          "name": "G#4",
          "midi": 68,
          "time": 166.1999999999995,
          "velocity": 0.6299212598425197,
          "duration": 1.518333333333345
        },
        {
          "name": "C#4",
          "midi": 61,
          "time": 168.39999999999952,
          "velocity": 0.6299212598425197,
          "duration": 0.18833333333333258
        },
        {
          "name": "C#4",
          "midi": 61,
          "time": 168.5999999999995,
          "velocity": 0.6299212598425197,
          "duration": 0.18833333333333258
        },
        {
          "name": "C4",
          "midi": 60,
          "time": 168.7999999999995,
          "velocity": 0.6299212598425197,
          "duration": 0.3783333333333303
        },
        {
          "name": "C#4",
          "midi": 61,
          "time": 169.1999999999995,
          "velocity": 0.6299212598425197,
          "duration": 0.18833333333333258
        },
        {
          "name": "C#4",
          "midi": 61,
          "time": 169.3999999999995,
          "velocity": 0.6299212598425197,
          "duration": 0.3783333333333303
        },
        {
          "name": "G#4",
          "midi": 68,
          "time": 169.3999999999995,
          "velocity": 0.6299212598425197,
          "duration": 0.3783333333333303
        },
        {
          "name": "C#4",
          "midi": 61,
          "time": 170.9999999999995,
          "velocity": 0.6299212598425197,
          "duration": 0.7583333333333258
        },
        {
          "name": "F#4",
          "midi": 66,
          "time": 170.9999999999995,
          "velocity": 0.6299212598425197,
          "duration": 0.7583333333333258
        },
        {
          "name": "C#4",
          "midi": 61,
          "time": 172.3999999999995,
          "velocity": 0.6299212598425197,
          "duration": 0.18833333333333258
        },
        {
          "name": "C#4",
          "midi": 61,
          "time": 172.59999999999948,
          "velocity": 0.6299212598425197,
          "duration": 0.18833333333333258
        },
        {
          "name": "C#4",
          "midi": 61,
          "time": 172.79999999999947,
          "velocity": 0.6299212598425197,
          "duration": 0.18833333333333258
        },
        {
          "name": "G#4",
          "midi": 68,
          "time": 172.79999999999947,
          "velocity": 0.6299212598425197,
          "duration": 0.18833333333333258
        },
        {
          "name": "C#4",
          "midi": 61,
          "time": 172.99999999999946,
          "velocity": 0.6299212598425197,
          "duration": 0.3783333333333303
        },
        {
          "name": "G#4",
          "midi": 68,
          "time": 172.99999999999946,
          "velocity": 0.6299212598425197,
          "duration": 0.3783333333333303
        },
        {
          "name": "C#4",
          "midi": 61,
          "time": 173.39999999999947,
          "velocity": 0.6299212598425197,
          "duration": 0.3783333333333303
        },
        {
          "name": "F#4",
          "midi": 66,
          "time": 173.39999999999947,
          "velocity": 0.6299212598425197,
          "duration": 0.3783333333333303
        },
        {
          "name": "C#4",
          "midi": 61,
          "time": 173.99999999999946,
          "velocity": 0.6299212598425197,
          "duration": 0.3783333333333303
        },
        {
          "name": "C#4",
          "midi": 61,
          "time": 174.39999999999947,
          "velocity": 0.6299212598425197,
          "duration": 0.18833333333333258
        },
        {
          "name": "G#4",
          "midi": 68,
          "time": 174.39999999999947,
          "velocity": 0.6299212598425197,
          "duration": 0.18833333333333258
        },
        {
          "name": "C#4",
          "midi": 61,
          "time": 174.59999999999945,
          "velocity": 0.6299212598425197,
          "duration": 0.3783333333333303
        },
        {
          "name": "G#4",
          "midi": 68,
          "time": 174.59999999999945,
          "velocity": 0.6299212598425197,
          "duration": 0.3783333333333303
        },
        {
          "name": "C#4",
          "midi": 61,
          "time": 174.99999999999946,
          "velocity": 0.6299212598425197,
          "duration": 0.3783333333333303
        },
        {
          "name": "F#4",
          "midi": 66,
          "time": 174.99999999999946,
          "velocity": 0.6299212598425197,
          "duration": 0.3783333333333303
        },
        {
          "name": "G#4",
          "midi": 68,
          "time": 175.59999999999945,
          "velocity": 0.6299212598425197,
          "duration": 0.3783333333333303
        },
        {
          "name": "F4",
          "midi": 65,
          "time": 175.99999999999946,
          "velocity": 0.6299212598425197,
          "duration": 1.518333333333345
        },
        {
          "name": "C5",
          "midi": 72,
          "time": 178.39999999999947,
          "velocity": 0.6299212598425197,
          "duration": 0.3783333333333303
        },
        {
          "name": "C#5",
          "midi": 73,
          "time": 178.79999999999947,
          "velocity": 0.6299212598425197,
          "duration": 0.18833333333333258
        },
        {
          "name": "G#5",
          "midi": 80,
          "time": 178.99999999999946,
          "velocity": 0.6299212598425197,
          "duration": 1.518333333333345
        },
        {
          "name": "C#5",
          "midi": 73,
          "time": 181.19999999999948,
          "velocity": 0.6299212598425197,
          "duration": 0.18833333333333258
        },
        {
          "name": "C#5",
          "midi": 73,
          "time": 181.39999999999947,
          "velocity": 0.6299212598425197,
          "duration": 0.18833333333333258
        },
        {
          "name": "C5",
          "midi": 72,
          "time": 181.59999999999945,
          "velocity": 0.6299212598425197,
          "duration": 0.3783333333333303
        },
        {
          "name": "C#5",
          "midi": 73,
          "time": 181.99999999999946,
          "velocity": 0.6299212598425197,
          "duration": 0.18833333333333258
        },
        {
          "name": "C#5",
          "midi": 73,
          "time": 182.19999999999945,
          "velocity": 0.6299212598425197,
          "duration": 0.18833333333333258
        },
        {
          "name": "G#5",
          "midi": 80,
          "time": 182.19999999999945,
          "velocity": 0.6299212598425197,
          "duration": 0.3783333333333303
        },
        {
          "name": "C#5",
          "midi": 73,
          "time": 183.79999999999944,
          "velocity": 0.6299212598425197,
          "duration": 0.7583333333333258
        },
        {
          "name": "F#5",
          "midi": 78,
          "time": 183.79999999999944,
          "velocity": 0.6299212598425197,
          "duration": 0.7583333333333258
        },
        {
          "name": "C#5",
          "midi": 73,
          "time": 185.19999999999945,
          "velocity": 0.6299212598425197,
          "duration": 0.18833333333333258
        },
        {
          "name": "C#5",
          "midi": 73,
          "time": 185.39999999999944,
          "velocity": 0.6299212598425197,
          "duration": 0.18833333333333258
        },
        {
          "name": "C#5",
          "midi": 73,
          "time": 185.59999999999943,
          "velocity": 0.6299212598425197,
          "duration": 0.18833333333333258
        },
        {
          "name": "G#5",
          "midi": 80,
          "time": 185.59999999999943,
          "velocity": 0.6299212598425197,
          "duration": 0.18833333333333258
        },
        {
          "name": "C#5",
          "midi": 73,
          "time": 185.79999999999941,
          "velocity": 0.6299212598425197,
          "duration": 0.3783333333333303
        },
        {
          "name": "G#5",
          "midi": 80,
          "time": 185.79999999999941,
          "velocity": 0.6299212598425197,
          "duration": 0.3783333333333303
        },
        {
          "name": "C#5",
          "midi": 73,
          "time": 186.19999999999942,
          "velocity": 0.6299212598425197,
          "duration": 0.3783333333333303
        },
        {
          "name": "F#5",
          "midi": 78,
          "time": 186.19999999999942,
          "velocity": 0.6299212598425197,
          "duration": 0.3783333333333303
        },
        {
          "name": "C#5",
          "midi": 73,
          "time": 186.79999999999941,
          "velocity": 0.6299212598425197,
          "duration": 0.3783333333333303
        },
        {
          "name": "C#5",
          "midi": 73,
          "time": 187.19999999999942,
          "velocity": 0.6299212598425197,
          "duration": 0.18833333333333258
        },
        {
          "name": "G#5",
          "midi": 80,
          "time": 187.19999999999942,
          "velocity": 0.6299212598425197,
          "duration": 0.18833333333333258
        },
        {
          "name": "C#5",
          "midi": 73,
          "time": 187.3999999999994,
          "velocity": 0.6299212598425197,
          "duration": 0.3783333333333303
        },
        {
          "name": "G#5",
          "midi": 80,
          "time": 187.3999999999994,
          "velocity": 0.6299212598425197,
          "duration": 0.3783333333333303
        },
        {
          "name": "C#5",
          "midi": 73,
          "time": 187.79999999999941,
          "velocity": 0.6299212598425197,
          "duration": 0.3783333333333303
        },
        {
          "name": "F#5",
          "midi": 78,
          "time": 187.79999999999941,
          "velocity": 0.6299212598425197,
          "duration": 0.3783333333333303
        },
        {
          "name": "G#5",
          "midi": 80,
          "time": 188.3999999999994,
          "velocity": 0.6299212598425197,
          "duration": 0.3783333333333303
        },
        {
          "name": "C#5",
          "midi": 73,
          "time": 188.79999999999941,
          "velocity": 0.6299212598425197,
          "duration": 0.3783333333333303
        },
        {
          "name": "F5",
          "midi": 77,
          "time": 188.79999999999941,
          "velocity": 0.6299212598425197,
          "duration": 0.3783333333333303
        },
        {
          "name": "D#5",
          "midi": 75,
          "time": 189.79999999999941,
          "velocity": 0.6299212598425197,
          "duration": 0.18833333333333258
        },
        {
          "name": "F5",
          "midi": 77,
          "time": 189.9999999999994,
          "velocity": 0.6299212598425197,
          "duration": 0.18833333333333258
        },
        {
          "name": "D#5",
          "midi": 75,
          "time": 190.1999999999994,
          "velocity": 0.6299212598425197,
          "duration": 0.18833333333333258
        },
        {
          "name": "C#5",
          "midi": 73,
          "time": 190.39999999999938,
          "velocity": 0.6299212598425197,
          "duration": 3.038333333333327
        }
      ],
      "controlChanges": {
        "7": [
          {
            "number": 7,
            "time": 0,
            "value": 0.7874015748031497
          }
        ],
        "10": [
          {
            "number": 10,
            "time": 0,
            "value": 0.5039370078740157
          }
        ],
        "91": [
          {
            "number": 91,
            "time": 0,
            "value": 0
          }
        ],
        "93": [
          {
            "number": 93,
            "time": 0,
            "value": 0
          }
        ],
        "121": [
          {
            "number": 121,
            "time": 0,
            "value": 0
          }
        ]
      },
      "id": 0,
      "instrumentNumber": 0,
      "instrument": "acoustic grand piano",
      "instrumentFamily": "piano",
      "channelNumber": 0,
      "isPercussion": false
    },
    {
      "startTime": 0,
      "duration": 193.43833333333131,
      "length": 552,
      "notes": [
        {
          "name": "F#3",
          "midi": 54,
          "time": 0,
          "velocity": 0.6299212598425197,
          "duration": 0.18833333333333335
        },
        {
          "name": "C#4",
          "midi": 61,
          "time": 0.2,
          "velocity": 0.6299212598425197,
          "duration": 0.18833333333333335
        },
        {
          "name": "D#4",
          "midi": 63,
          "time": 0.4,
          "velocity": 0.6299212598425197,
          "duration": 0.18833333333333335
        },
        {
          "name": "C#4",
          "midi": 61,
          "time": 0.6000000000000001,
          "velocity": 0.6299212598425197,
          "duration": 0.18833333333333335
        },
        {
          "name": "G#4",
          "midi": 68,
          "time": 0.8000000000000002,
          "velocity": 0.6299212598425197,
          "duration": 0.18833333333333335
        },
        {
          "name": "C#4",
          "midi": 61,
          "time": 1.0000000000000002,
          "velocity": 0.6299212598425197,
          "duration": 0.18833333333333324
        },
        {
          "name": "D#4",
          "midi": 63,
          "time": 1.2000000000000002,
          "velocity": 0.6299212598425197,
          "duration": 0.18833333333333346
        },
        {
          "name": "C#4",
          "midi": 61,
          "time": 1.4000000000000004,
          "velocity": 0.6299212598425197,
          "duration": 0.18833333333333346
        },
        {
          "name": "F#3",
          "midi": 54,
          "time": 1.6000000000000005,
          "velocity": 0.6299212598425197,
          "duration": 0.18833333333333346
        },
        {
          "name": "C#4",
          "midi": 61,
          "time": 1.8000000000000007,
          "velocity": 0.6299212598425197,
          "duration": 0.18833333333333346
        },
        {
          "name": "D#4",
          "midi": 63,
          "time": 2.000000000000001,
          "velocity": 0.6299212598425197,
          "duration": 0.18833333333333346
        },
        {
          "name": "C#4",
          "midi": 61,
          "time": 2.200000000000001,
          "velocity": 0.6299212598425197,
          "duration": 0.18833333333333346
        },
        {
          "name": "G#4",
          "midi": 68,
          "time": 2.4000000000000012,
          "velocity": 0.6299212598425197,
          "duration": 0.18833333333333346
        },
        {
          "name": "C#4",
          "midi": 61,
          "time": 2.6000000000000014,
          "velocity": 0.6299212598425197,
          "duration": 0.18833333333333346
        },
        {
          "name": "D#4",
          "midi": 63,
          "time": 2.8000000000000016,
          "velocity": 0.6299212598425197,
          "duration": 0.18833333333333346
        },
        {
          "name": "C#4",
          "midi": 61,
          "time": 3.0000000000000018,
          "velocity": 0.6299212598425197,
          "duration": 0.18833333333333346
        },
        {
          "name": "C#3",
          "midi": 49,
          "time": 3.200000000000002,
          "velocity": 0.6299212598425197,
          "duration": 0.18833333333333346
        },
        {
          "name": "G#3",
          "midi": 56,
          "time": 3.400000000000002,
          "velocity": 0.6299212598425197,
          "duration": 0.18833333333333346
        },
        {
          "name": "C#4",
          "midi": 61,
          "time": 3.6000000000000023,
          "velocity": 0.6299212598425197,
          "duration": 0.18833333333333346
        },
        {
          "name": "G#3",
          "midi": 56,
          "time": 3.8000000000000025,
          "velocity": 0.6299212598425197,
          "duration": 0.18833333333333346
        },
        {
          "name": "G#4",
          "midi": 68,
          "time": 4.000000000000003,
          "velocity": 0.6299212598425197,
          "duration": 0.18833333333333346
        },
        {
          "name": "G#3",
          "midi": 56,
          "time": 4.200000000000003,
          "velocity": 0.6299212598425197,
          "duration": 0.18833333333333346
        },
        {
          "name": "C#4",
          "midi": 61,
          "time": 4.400000000000003,
          "velocity": 0.6299212598425197,
          "duration": 0.18833333333333346
        },
        {
          "name": "G#3",
          "midi": 56,
          "time": 4.600000000000003,
          "velocity": 0.6299212598425197,
          "duration": 0.18833333333333346
        },
        {
          "name": "C#3",
          "midi": 49,
          "time": 4.800000000000003,
          "velocity": 0.6299212598425197,
          "duration": 0.18833333333333346
        },
        {
          "name": "G#3",
          "midi": 56,
          "time": 5.0000000000000036,
          "velocity": 0.6299212598425197,
          "duration": 0.18833333333333346
        },
        {
          "name": "C#4",
          "midi": 61,
          "time": 5.200000000000004,
          "velocity": 0.6299212598425197,
          "duration": 0.18833333333333346
        },
        {
          "name": "G#3",
          "midi": 56,
          "time": 5.400000000000004,
          "velocity": 0.6299212598425197,
          "duration": 0.18833333333333346
        },
        {
          "name": "G#4",
          "midi": 68,
          "time": 5.600000000000004,
          "velocity": 0.6299212598425197,
          "duration": 0.18833333333333346
        },
        {
          "name": "G#3",
          "midi": 56,
          "time": 5.800000000000004,
          "velocity": 0.6299212598425197,
          "duration": 0.18833333333333346
        },
        {
          "name": "C#4",
          "midi": 61,
          "time": 6.000000000000004,
          "velocity": 0.6299212598425197,
          "duration": 0.18833333333333346
        },
        {
          "name": "G#3",
          "midi": 56,
          "time": 6.200000000000005,
          "velocity": 0.6299212598425197,
          "duration": 0.18833333333333346
        },
        {
          "name": "F3",
          "midi": 53,
          "time": 6.400000000000005,
          "velocity": 0.6299212598425197,
          "duration": 0.18833333333333346
        },
        {
          "name": "C4",
          "midi": 60,
          "time": 6.600000000000005,
          "velocity": 0.6299212598425197,
          "duration": 0.18833333333333346
        },
        {
          "name": "D#4",
          "midi": 63,
          "time": 6.800000000000005,
          "velocity": 0.6299212598425197,
          "duration": 0.18833333333333346
        },
        {
          "name": "C4",
          "midi": 60,
          "time": 7.000000000000005,
          "velocity": 0.6299212598425197,
          "duration": 0.18833333333333346
        },
        {
          "name": "G#4",
          "midi": 68,
          "time": 7.2000000000000055,
          "velocity": 0.6299212598425197,
          "duration": 0.18833333333333346
        },
        {
          "name": "C4",
          "midi": 60,
          "time": 7.400000000000006,
          "velocity": 0.6299212598425197,
          "duration": 0.18833333333333346
        },
        {
          "name": "D#4",
          "midi": 63,
          "time": 7.600000000000006,
          "velocity": 0.6299212598425197,
          "duration": 0.18833333333333346
        },
        {
          "name": "C4",
          "midi": 60,
          "time": 7.800000000000006,
          "velocity": 0.6299212598425197,
          "duration": 0.18833333333333346
        },
        {
          "name": "F3",
          "midi": 53,
          "time": 8.000000000000005,
          "velocity": 0.6299212598425197,
          "duration": 0.18833333333333258
        },
        {
          "name": "C4",
          "midi": 60,
          "time": 8.200000000000005,
          "velocity": 0.6299212598425197,
          "duration": 0.18833333333333258
        },
        {
          "name": "D#4",
          "midi": 63,
          "time": 8.400000000000004,
          "velocity": 0.6299212598425197,
          "duration": 0.18833333333333258
        },
        {
          "name": "C4",
          "midi": 60,
          "time": 8.600000000000003,
          "velocity": 0.6299212598425197,
          "duration": 0.18833333333333258
        },
        {
          "name": "G#4",
          "midi": 68,
          "time": 8.800000000000002,
          "velocity": 0.6299212598425197,
          "duration": 0.18833333333333258
        },
        {
          "name": "C4",
          "midi": 60,
          "time": 9.000000000000002,
          "velocity": 0.6299212598425197,
          "duration": 0.18833333333333258
        },
        {
          "name": "D#4",
          "midi": 63,
          "time": 9.200000000000001,
          "velocity": 0.6299212598425197,
          "duration": 0.18833333333333258
        },
        {
          "name": "C4",
          "midi": 60,
          "time": 9.4,
          "velocity": 0.6299212598425197,
          "duration": 0.18833333333333258
        },
        {
          "name": "A#2",
          "midi": 46,
          "time": 9.6,
          "velocity": 0.6299212598425197,
          "duration": 0.18833333333333258
        },
        {
          "name": "F3",
          "midi": 53,
          "time": 9.799999999999999,
          "velocity": 0.6299212598425197,
          "duration": 0.18833333333333258
        },
        {
          "name": "A#3",
          "midi": 58,
          "time": 9.999999999999998,
          "velocity": 0.6299212598425197,
          "duration": 0.18833333333333258
        },
        {
          "name": "F3",
          "midi": 53,
          "time": 10.199999999999998,
          "velocity": 0.6299212598425197,
          "duration": 0.18833333333333258
        },
        {
          "name": "C#4",
          "midi": 61,
          "time": 10.399999999999997,
          "velocity": 0.6299212598425197,
          "duration": 0.18833333333333258
        },
        {
          "name": "F3",
          "midi": 53,
          "time": 10.599999999999996,
          "velocity": 0.6299212598425197,
          "duration": 0.18833333333333258
        },
        {
          "name": "A#3",
          "midi": 58,
          "time": 10.799999999999995,
          "velocity": 0.6299212598425197,
          "duration": 0.18833333333333258
        },
        {
          "name": "F3",
          "midi": 53,
          "time": 10.999999999999995,
          "velocity": 0.6299212598425197,
          "duration": 0.18833333333333258
        },
        {
          "name": "A#2",
          "midi": 46,
          "time": 11.199999999999994,
          "velocity": 0.6299212598425197,
          "duration": 0.18833333333333258
        },
        {
          "name": "F3",
          "midi": 53,
          "time": 11.399999999999993,
          "velocity": 0.6299212598425197,
          "duration": 0.18833333333333258
        },
        {
          "name": "C#4",
          "midi": 61,
          "time": 11.599999999999993,
          "velocity": 0.6299212598425197,
          "duration": 0.18833333333333258
        },
        {
          "name": "F3",
          "midi": 53,
          "time": 11.799999999999992,
          "velocity": 0.6299212598425197,
          "duration": 0.18833333333333258
        },
        {
          "name": "C4",
          "midi": 60,
          "time": 11.999999999999991,
          "velocity": 0.6299212598425197,
          "duration": 0.18833333333333258
        },
        {
          "name": "F3",
          "midi": 53,
          "time": 12.19999999999999,
          "velocity": 0.6299212598425197,
          "duration": 0.18833333333333258
        },
        {
          "name": "A#3",
          "midi": 58,
          "time": 12.39999999999999,
          "velocity": 0.6299212598425197,
          "duration": 0.18833333333333258
        },
        {
          "name": "F3",
          "midi": 53,
          "time": 12.599999999999989,
          "velocity": 0.6299212598425197,
          "duration": 0.18833333333333258
        },
        {
          "name": "F#3",
          "midi": 54,
          "time": 12.799999999999988,
          "velocity": 0.6299212598425197,
          "duration": 0.18833333333333258
        },
        {
          "name": "C#4",
          "midi": 61,
          "time": 12.999999999999988,
          "velocity": 0.6299212598425197,
          "duration": 0.18833333333333258
        },
        {
          "name": "D#4",
          "midi": 63,
          "time": 13.199999999999987,
          "velocity": 0.6299212598425197,
          "duration": 0.18833333333333258
        },
        {
          "name": "C#4",
          "midi": 61,
          "time": 13.399999999999986,
          "velocity": 0.6299212598425197,
          "duration": 0.18833333333333258
        },
        {
          "name": "G#4",
          "midi": 68,
          "time": 13.599999999999985,
          "velocity": 0.6299212598425197,
          "duration": 0.18833333333333258
        },
        {
          "name": "C#4",
          "midi": 61,
          "time": 13.799999999999985,
          "velocity": 0.6299212598425197,
          "duration": 0.18833333333333258
        },
        {
          "name": "D#4",
          "midi": 63,
          "time": 13.999999999999984,
          "velocity": 0.6299212598425197,
          "duration": 0.18833333333333258
        },
        {
          "name": "C#4",
          "midi": 61,
          "time": 14.199999999999983,
          "velocity": 0.6299212598425197,
          "duration": 0.18833333333333258
        },
        {
          "name": "F#3",
          "midi": 54,
          "time": 14.399999999999983,
          "velocity": 0.6299212598425197,
          "duration": 0.18833333333333258
        },
        {
          "name": "C#4",
          "midi": 61,
          "time": 14.599999999999982,
          "velocity": 0.6299212598425197,
          "duration": 0.18833333333333258
        },
        {
          "name": "D#4",
          "midi": 63,
          "time": 14.799999999999981,
          "velocity": 0.6299212598425197,
          "duration": 0.18833333333333258
        },
        {
          "name": "C#4",
          "midi": 61,
          "time": 14.99999999999998,
          "velocity": 0.6299212598425197,
          "duration": 0.18833333333333258
        },
        {
          "name": "G#4",
          "midi": 68,
          "time": 15.19999999999998,
          "velocity": 0.6299212598425197,
          "duration": 0.18833333333333258
        },
        {
          "name": "C#4",
          "midi": 61,
          "time": 15.399999999999979,
          "velocity": 0.6299212598425197,
          "duration": 0.18833333333333258
        },
        {
          "name": "D#4",
          "midi": 63,
          "time": 15.599999999999978,
          "velocity": 0.6299212598425197,
          "duration": 0.18833333333333258
        },
        {
          "name": "C#4",
          "midi": 61,
          "time": 15.799999999999978,
          "velocity": 0.6299212598425197,
          "duration": 0.18833333333333258
        },
        {
          "name": "C#3",
          "midi": 49,
          "time": 15.999999999999977,
          "velocity": 0.6299212598425197,
          "duration": 0.18833333333333435
        },
        {
          "name": "G#3",
          "midi": 56,
          "time": 16.199999999999978,
          "velocity": 0.6299212598425197,
          "duration": 0.18833333333333258
        },
        {
          "name": "C#4",
          "midi": 61,
          "time": 16.399999999999977,
          "velocity": 0.6299212598425197,
          "duration": 0.18833333333333258
        },
        {
          "name": "G#3",
          "midi": 56,
          "time": 16.599999999999977,
          "velocity": 0.6299212598425197,
          "duration": 0.18833333333333258
        },
        {
          "name": "G#4",
          "midi": 68,
          "time": 16.799999999999976,
          "velocity": 0.6299212598425197,
          "duration": 0.18833333333333258
        },
        {
          "name": "G#3",
          "midi": 56,
          "time": 16.999999999999975,
          "velocity": 0.6299212598425197,
          "duration": 0.18833333333333258
        },
        {
          "name": "C#4",
          "midi": 61,
          "time": 17.199999999999974,
          "velocity": 0.6299212598425197,
          "duration": 0.18833333333333258
        },
        {
          "name": "G#3",
          "midi": 56,
          "time": 17.399999999999974,
          "velocity": 0.6299212598425197,
          "duration": 0.18833333333333258
        },
        {
          "name": "C#3",
          "midi": 49,
          "time": 17.599999999999973,
          "velocity": 0.6299212598425197,
          "duration": 0.18833333333333258
        },
        {
          "name": "G#3",
          "midi": 56,
          "time": 17.799999999999972,
          "velocity": 0.6299212598425197,
          "duration": 0.18833333333333258
        },
        {
          "name": "C#4",
          "midi": 61,
          "time": 17.99999999999997,
          "velocity": 0.6299212598425197,
          "duration": 0.18833333333333258
        },
        {
          "name": "G#3",
          "midi": 56,
          "time": 18.19999999999997,
          "velocity": 0.6299212598425197,
          "duration": 0.18833333333333258
        },
        {
          "name": "G#4",
          "midi": 68,
          "time": 18.39999999999997,
          "velocity": 0.6299212598425197,
          "duration": 0.18833333333333258
        },
        {
          "name": "G#3",
          "midi": 56,
          "time": 18.59999999999997,
          "velocity": 0.6299212598425197,
          "duration": 0.18833333333333258
        },
        {
          "name": "C#4",
          "midi": 61,
          "time": 18.79999999999997,
          "velocity": 0.6299212598425197,
          "duration": 0.18833333333333258
        },
        {
          "name": "G#3",
          "midi": 56,
          "time": 18.999999999999968,
          "velocity": 0.6299212598425197,
          "duration": 0.18833333333333258
        },
        {
          "name": "F3",
          "midi": 53,
          "time": 19.199999999999967,
          "velocity": 0.6299212598425197,
          "duration": 0.18833333333333258
        },
        {
          "name": "C4",
          "midi": 60,
          "time": 19.399999999999967,
          "velocity": 0.6299212598425197,
          "duration": 0.18833333333333258
        },
        {
          "name": "D#4",
          "midi": 63,
          "time": 19.599999999999966,
          "velocity": 0.6299212598425197,
          "duration": 0.18833333333333258
        },
        {
          "name": "C4",
          "midi": 60,
          "time": 19.799999999999965,
          "velocity": 0.6299212598425197,
          "duration": 0.18833333333333258
        },
        {
          "name": "G#4",
          "midi": 68,
          "time": 19.999999999999964,
          "velocity": 0.6299212598425197,
          "duration": 0.18833333333333258
        },
        {
          "name": "C4",
          "midi": 60,
          "time": 20.199999999999964,
          "velocity": 0.6299212598425197,
          "duration": 0.18833333333333258
        },
        {
          "name": "D#4",
          "midi": 63,
          "time": 20.399999999999963,
          "velocity": 0.6299212598425197,
          "duration": 0.18833333333333258
        },
        {
          "name": "C4",
          "midi": 60,
          "time": 20.599999999999962,
          "velocity": 0.6299212598425197,
          "duration": 0.18833333333333258
        },
        {
          "name": "F3",
          "midi": 53,
          "time": 20.79999999999996,
          "velocity": 0.6299212598425197,
          "duration": 0.18833333333333258
        },
        {
          "name": "C4",
          "midi": 60,
          "time": 20.99999999999996,
          "velocity": 0.6299212598425197,
          "duration": 0.18833333333333258
        },
        {
          "name": "D#4",
          "midi": 63,
          "time": 21.19999999999996,
          "velocity": 0.6299212598425197,
          "duration": 0.18833333333333258
        },
        {
          "name": "C4",
          "midi": 60,
          "time": 21.39999999999996,
          "velocity": 0.6299212598425197,
          "duration": 0.18833333333333258
        },
        {
          "name": "G#4",
          "midi": 68,
          "time": 21.59999999999996,
          "velocity": 0.6299212598425197,
          "duration": 0.18833333333333258
        },
        {
          "name": "C4",
          "midi": 60,
          "time": 21.799999999999958,
          "velocity": 0.6299212598425197,
          "duration": 0.18833333333333258
        },
        {
          "name": "D#4",
          "midi": 63,
          "time": 21.999999999999957,
          "velocity": 0.6299212598425197,
          "duration": 0.18833333333333258
        },
        {
          "name": "C4",
          "midi": 60,
          "time": 22.199999999999957,
          "velocity": 0.6299212598425197,
          "duration": 0.18833333333333258
        },
        {
          "name": "A#2",
          "midi": 46,
          "time": 22.399999999999956,
          "velocity": 0.6299212598425197,
          "duration": 0.18833333333333258
        },
        {
          "name": "F3",
          "midi": 53,
          "time": 22.599999999999955,
          "velocity": 0.6299212598425197,
          "duration": 0.18833333333333258
        },
        {
          "name": "A#3",
          "midi": 58,
          "time": 22.799999999999955,
          "velocity": 0.6299212598425197,
          "duration": 0.18833333333333258
        },
        {
          "name": "F3",
          "midi": 53,
          "time": 22.999999999999954,
          "velocity": 0.6299212598425197,
          "duration": 0.18833333333333258
        },
        {
          "name": "C#4",
          "midi": 61,
          "time": 23.199999999999953,
          "velocity": 0.6299212598425197,
          "duration": 0.18833333333333258
        },
        {
          "name": "F3",
          "midi": 53,
          "time": 23.399999999999952,
          "velocity": 0.6299212598425197,
          "duration": 0.18833333333333258
        },
        {
          "name": "A#3",
          "midi": 58,
          "time": 23.59999999999995,
          "velocity": 0.6299212598425197,
          "duration": 0.18833333333333258
        },
        {
          "name": "F3",
          "midi": 53,
          "time": 23.79999999999995,
          "velocity": 0.6299212598425197,
          "duration": 0.18833333333333258
        },
        {
          "name": "A#2",
          "midi": 46,
          "time": 23.99999999999995,
          "velocity": 0.6299212598425197,
          "duration": 0.18833333333333258
        },
        {
          "name": "F3",
          "midi": 53,
          "time": 24.19999999999995,
          "velocity": 0.6299212598425197,
          "duration": 0.18833333333333258
        },
        {
          "name": "C#4",
          "midi": 61,
          "time": 24.39999999999995,
          "velocity": 0.6299212598425197,
          "duration": 0.18833333333333258
        },
        {
          "name": "F3",
          "midi": 53,
          "time": 24.599999999999948,
          "velocity": 0.6299212598425197,
          "duration": 0.18833333333333258
        },
        {
          "name": "C4",
          "midi": 60,
          "time": 24.799999999999947,
          "velocity": 0.6299212598425197,
          "duration": 0.18833333333333258
        },
        {
          "name": "F3",
          "midi": 53,
          "time": 24.999999999999947,
          "velocity": 0.6299212598425197,
          "duration": 0.18833333333333258
        },
        {
          "name": "A#3",
          "midi": 58,
          "time": 25.199999999999946,
          "velocity": 0.6299212598425197,
          "duration": 0.18833333333333258
        },
        {
          "name": "F3",
          "midi": 53,
          "time": 25.399999999999945,
          "velocity": 0.6299212598425197,
          "duration": 0.18833333333333258
        },
        {
          "name": "F#3",
          "midi": 54,
          "time": 25.599999999999945,
          "velocity": 0.6299212598425197,
          "duration": 0.18833333333333258
        },
        {
          "name": "C#4",
          "midi": 61,
          "time": 25.799999999999944,
          "velocity": 0.6299212598425197,
          "duration": 0.18833333333333258
        },
        {
          "name": "D#4",
          "midi": 63,
          "time": 25.999999999999943,
          "velocity": 0.6299212598425197,
          "duration": 0.18833333333333258
        },
        {
          "name": "C#4",
          "midi": 61,
          "time": 26.199999999999942,
          "velocity": 0.6299212598425197,
          "duration": 0.18833333333333258
        },
        {
          "name": "G#4",
          "midi": 68,
          "time": 26.39999999999994,
          "velocity": 0.6299212598425197,
          "duration": 0.18833333333333258
        },
        {
          "name": "C#4",
          "midi": 61,
          "time": 26.59999999999994,
          "velocity": 0.6299212598425197,
          "duration": 0.18833333333333258
        },
        {
          "name": "D#4",
          "midi": 63,
          "time": 26.79999999999994,
          "velocity": 0.6299212598425197,
          "duration": 0.18833333333333258
        },
        {
          "name": "C#4",
          "midi": 61,
          "time": 26.99999999999994,
          "velocity": 0.6299212598425197,
          "duration": 0.18833333333333258
        },
        {
          "name": "F#3",
          "midi": 54,
          "time": 27.19999999999994,
          "velocity": 0.6299212598425197,
          "duration": 0.18833333333333258
        },
        {
          "name": "C#4",
          "midi": 61,
          "time": 27.399999999999938,
          "velocity": 0.6299212598425197,
          "duration": 0.18833333333333258
        },
        {
          "name": "D#4",
          "midi": 63,
          "time": 27.599999999999937,
          "velocity": 0.6299212598425197,
          "duration": 0.18833333333333258
        },
        {
          "name": "C#4",
          "midi": 61,
          "time": 27.799999999999937,
          "velocity": 0.6299212598425197,
          "duration": 0.18833333333333258
        },
        {
          "name": "G#4",
          "midi": 68,
          "time": 27.999999999999936,
          "velocity": 0.6299212598425197,
          "duration": 0.18833333333333258
        },
        {
          "name": "C#4",
          "midi": 61,
          "time": 28.199999999999935,
          "velocity": 0.6299212598425197,
          "duration": 0.18833333333333258
        },
        {
          "name": "D#4",
          "midi": 63,
          "time": 28.399999999999935,
          "velocity": 0.6299212598425197,
          "duration": 0.18833333333333258
        },
        {
          "name": "C#4",
          "midi": 61,
          "time": 28.599999999999934,
          "velocity": 0.6299212598425197,
          "duration": 0.18833333333333258
        },
        {
          "name": "C#3",
          "midi": 49,
          "time": 28.799999999999933,
          "velocity": 0.6299212598425197,
          "duration": 0.18833333333333258
        },
        {
          "name": "G#3",
          "midi": 56,
          "time": 28.999999999999932,
          "velocity": 0.6299212598425197,
          "duration": 0.18833333333333258
        },
        {
          "name": "C#4",
          "midi": 61,
          "time": 29.199999999999932,
          "velocity": 0.6299212598425197,
          "duration": 0.18833333333333258
        },
        {
          "name": "G#3",
          "midi": 56,
          "time": 29.39999999999993,
          "velocity": 0.6299212598425197,
          "duration": 0.18833333333333258
        },
        {
          "name": "G#4",
          "midi": 68,
          "time": 29.59999999999993,
          "velocity": 0.6299212598425197,
          "duration": 0.18833333333333258
        },
        {
          "name": "G#3",
          "midi": 56,
          "time": 29.79999999999993,
          "velocity": 0.6299212598425197,
          "duration": 0.18833333333333258
        },
        {
          "name": "C#4",
          "midi": 61,
          "time": 29.99999999999993,
          "velocity": 0.6299212598425197,
          "duration": 0.18833333333333258
        },
        {
          "name": "G#3",
          "midi": 56,
          "time": 30.19999999999993,
          "velocity": 0.6299212598425197,
          "duration": 0.18833333333333258
        },
        {
          "name": "C#3",
          "midi": 49,
          "time": 30.399999999999928,
          "velocity": 0.6299212598425197,
          "duration": 0.18833333333333258
        },
        {
          "name": "G#3",
          "midi": 56,
          "time": 30.599999999999927,
          "velocity": 0.6299212598425197,
          "duration": 0.18833333333333258
        },
        {
          "name": "C#4",
          "midi": 61,
          "time": 30.799999999999926,
          "velocity": 0.6299212598425197,
          "duration": 0.18833333333333258
        },
        {
          "name": "G#3",
          "midi": 56,
          "time": 30.999999999999925,
          "velocity": 0.6299212598425197,
          "duration": 0.18833333333333258
        },
        {
          "name": "G#4",
          "midi": 68,
          "time": 31.199999999999925,
          "velocity": 0.6299212598425197,
          "duration": 0.18833333333333258
        },
        {
          "name": "G#3",
          "midi": 56,
          "time": 31.399999999999924,
          "velocity": 0.6299212598425197,
          "duration": 0.18833333333333258
        },
        {
          "name": "C#4",
          "midi": 61,
          "time": 31.599999999999923,
          "velocity": 0.6299212598425197,
          "duration": 0.18833333333333258
        },
        {
          "name": "G#3",
          "midi": 56,
          "time": 31.799999999999923,
          "velocity": 0.6299212598425197,
          "duration": 0.18833333333333258
        },
        {
          "name": "F3",
          "midi": 53,
          "time": 31.999999999999922,
          "velocity": 0.6299212598425197,
          "duration": 0.18833333333333258
        },
        {
          "name": "C4",
          "midi": 60,
          "time": 32.19999999999992,
          "velocity": 0.6299212598425197,
          "duration": 0.18833333333333258
        },
        {
          "name": "D#4",
          "midi": 63,
          "time": 32.39999999999991,
          "velocity": 0.6299212598425197,
          "duration": 0.18833333333333258
        },
        {
          "name": "C4",
          "midi": 60,
          "time": 32.59999999999991,
          "velocity": 0.6299212598425197,
          "duration": 0.18833333333333258
        },
        {
          "name": "G#4",
          "midi": 68,
          "time": 32.799999999999905,
          "velocity": 0.6299212598425197,
          "duration": 0.18833333333333258
        },
        {
          "name": "C4",
          "midi": 60,
          "time": 32.9999999999999,
          "velocity": 0.6299212598425197,
          "duration": 0.18833333333333258
        },
        {
          "name": "D#4",
          "midi": 63,
          "time": 33.199999999999896,
          "velocity": 0.6299212598425197,
          "duration": 0.18833333333333258
        },
        {
          "name": "C4",
          "midi": 60,
          "time": 33.39999999999989,
          "velocity": 0.6299212598425197,
          "duration": 0.18833333333333258
        },
        {
          "name": "F3",
          "midi": 53,
          "time": 33.59999999999989,
          "velocity": 0.6299212598425197,
          "duration": 0.18833333333333258
        },
        {
          "name": "C4",
          "midi": 60,
          "time": 33.79999999999988,
          "velocity": 0.6299212598425197,
          "duration": 0.18833333333333258
        },
        {
          "name": "D#4",
          "midi": 63,
          "time": 33.99999999999988,
          "velocity": 0.6299212598425197,
          "duration": 0.18833333333333258
        },
        {
          "name": "C4",
          "midi": 60,
          "time": 34.199999999999875,
          "velocity": 0.6299212598425197,
          "duration": 0.18833333333333258
        },
        {
          "name": "G#4",
          "midi": 68,
          "time": 34.39999999999987,
          "velocity": 0.6299212598425197,
          "duration": 0.18833333333333258
        },
        {
          "name": "C4",
          "midi": 60,
          "time": 34.599999999999866,
          "velocity": 0.6299212598425197,
          "duration": 0.18833333333333258
        },
        {
          "name": "D#4",
          "midi": 63,
          "time": 34.79999999999986,
          "velocity": 0.6299212598425197,
          "duration": 0.18833333333333258
        },
        {
          "name": "C4",
          "midi": 60,
          "time": 34.99999999999986,
          "velocity": 0.6299212598425197,
          "duration": 0.18833333333333258
        },
        {
          "name": "A#2",
          "midi": 46,
          "time": 35.199999999999854,
          "velocity": 0.6299212598425197,
          "duration": 0.18833333333333258
        },
        {
          "name": "F3",
          "midi": 53,
          "time": 35.39999999999985,
          "velocity": 0.6299212598425197,
          "duration": 0.18833333333333258
        },
        {
          "name": "A#3",
          "midi": 58,
          "time": 35.599999999999845,
          "velocity": 0.6299212598425197,
          "duration": 0.18833333333333258
        },
        {
          "name": "F3",
          "midi": 53,
          "time": 35.79999999999984,
          "velocity": 0.6299212598425197,
          "duration": 0.18833333333333258
        },
        {
          "name": "C#4",
          "midi": 61,
          "time": 35.99999999999984,
          "velocity": 0.6299212598425197,
          "duration": 0.18833333333333258
        },
        {
          "name": "F3",
          "midi": 53,
          "time": 36.19999999999983,
          "velocity": 0.6299212598425197,
          "duration": 0.18833333333333258
        },
        {
          "name": "A#3",
          "midi": 58,
          "time": 36.39999999999983,
          "velocity": 0.6299212598425197,
          "duration": 0.18833333333333258
        },
        {
          "name": "F3",
          "midi": 53,
          "time": 36.599999999999824,
          "velocity": 0.6299212598425197,
          "duration": 0.18833333333333258
        },
        {
          "name": "A#2",
          "midi": 46,
          "time": 36.79999999999982,
          "velocity": 0.6299212598425197,
          "duration": 0.18833333333333258
        },
        {
          "name": "F3",
          "midi": 53,
          "time": 36.999999999999815,
          "velocity": 0.6299212598425197,
          "duration": 0.18833333333333258
        },
        {
          "name": "C#4",
          "midi": 61,
          "time": 37.19999999999981,
          "velocity": 0.6299212598425197,
          "duration": 0.18833333333333258
        },
        {
          "name": "F3",
          "midi": 53,
          "time": 37.39999999999981,
          "velocity": 0.6299212598425197,
          "duration": 0.18833333333333258
        },
        {
          "name": "C4",
          "midi": 60,
          "time": 37.5999999999998,
          "velocity": 0.6299212598425197,
          "duration": 0.18833333333333258
        },
        {
          "name": "F3",
          "midi": 53,
          "time": 37.7999999999998,
          "velocity": 0.6299212598425197,
          "duration": 0.18833333333333258
        },
        {
          "name": "A#3",
          "midi": 58,
          "time": 37.999999999999794,
          "velocity": 0.6299212598425197,
          "duration": 0.18833333333333258
        },
        {
          "name": "F3",
          "midi": 53,
          "time": 38.19999999999979,
          "velocity": 0.6299212598425197,
          "duration": 0.18833333333333258
        },
        {
          "name": "F#3",
          "midi": 54,
          "time": 38.399999999999785,
          "velocity": 0.6299212598425197,
          "duration": 0.18833333333333258
        },
        {
          "name": "C#4",
          "midi": 61,
          "time": 38.59999999999978,
          "velocity": 0.6299212598425197,
          "duration": 0.18833333333333258
        },
        {
          "name": "D#4",
          "midi": 63,
          "time": 38.79999999999978,
          "velocity": 0.6299212598425197,
          "duration": 0.18833333333333258
        },
        {
          "name": "C#4",
          "midi": 61,
          "time": 38.99999999999977,
          "velocity": 0.6299212598425197,
          "duration": 0.18833333333333258
        },
        {
          "name": "G#4",
          "midi": 68,
          "time": 39.19999999999977,
          "velocity": 0.6299212598425197,
          "duration": 0.18833333333333258
        },
        {
          "name": "C#4",
          "midi": 61,
          "time": 39.399999999999764,
          "velocity": 0.6299212598425197,
          "duration": 0.18833333333333258
        },
        {
          "name": "D#4",
          "midi": 63,
          "time": 39.59999999999976,
          "velocity": 0.6299212598425197,
          "duration": 0.18833333333333258
        },
        {
          "name": "C#4",
          "midi": 61,
          "time": 39.799999999999756,
          "velocity": 0.6299212598425197,
          "duration": 0.18833333333333258
        },
        {
          "name": "F#3",
          "midi": 54,
          "time": 39.99999999999975,
          "velocity": 0.6299212598425197,
          "duration": 0.18833333333333258
        },
        {
          "name": "C#4",
          "midi": 61,
          "time": 40.19999999999975,
          "velocity": 0.6299212598425197,
          "duration": 0.18833333333333258
        },
        {
          "name": "D#4",
          "midi": 63,
          "time": 40.39999999999974,
          "velocity": 0.6299212598425197,
          "duration": 0.18833333333333258
        },
        {
          "name": "C#4",
          "midi": 61,
          "time": 40.59999999999974,
          "velocity": 0.6299212598425197,
          "duration": 0.18833333333333258
        },
        {
          "name": "G#4",
          "midi": 68,
          "time": 40.799999999999734,
          "velocity": 0.6299212598425197,
          "duration": 0.18833333333333258
        },
        {
          "name": "C#4",
          "midi": 61,
          "time": 40.99999999999973,
          "velocity": 0.6299212598425197,
          "duration": 0.18833333333333258
        },
        {
          "name": "D#4",
          "midi": 63,
          "time": 41.199999999999726,
          "velocity": 0.6299212598425197,
          "duration": 0.18833333333333258
        },
        {
          "name": "C#4",
          "midi": 61,
          "time": 41.39999999999972,
          "velocity": 0.6299212598425197,
          "duration": 0.18833333333333258
        },
        {
          "name": "C#3",
          "midi": 49,
          "time": 41.59999999999972,
          "velocity": 0.6299212598425197,
          "duration": 0.18833333333333258
        },
        {
          "name": "G#3",
          "midi": 56,
          "time": 41.79999999999971,
          "velocity": 0.6299212598425197,
          "duration": 0.18833333333333258
        },
        {
          "name": "C#4",
          "midi": 61,
          "time": 41.99999999999971,
          "velocity": 0.6299212598425197,
          "duration": 0.18833333333333258
        },
        {
          "name": "G#3",
          "midi": 56,
          "time": 42.199999999999704,
          "velocity": 0.6299212598425197,
          "duration": 0.18833333333333258
        },
        {
          "name": "G#4",
          "midi": 68,
          "time": 42.3999999999997,
          "velocity": 0.6299212598425197,
          "duration": 0.18833333333333258
        },
        {
          "name": "G#3",
          "midi": 56,
          "time": 42.599999999999696,
          "velocity": 0.6299212598425197,
          "duration": 0.18833333333333258
        },
        {
          "name": "C#4",
          "midi": 61,
          "time": 42.79999999999969,
          "velocity": 0.6299212598425197,
          "duration": 0.18833333333333258
        },
        {
          "name": "G#3",
          "midi": 56,
          "time": 42.99999999999969,
          "velocity": 0.6299212598425197,
          "duration": 0.18833333333333258
        },
        {
          "name": "C#3",
          "midi": 49,
          "time": 43.19999999999968,
          "velocity": 0.6299212598425197,
          "duration": 0.18833333333333258
        },
        {
          "name": "G#3",
          "midi": 56,
          "time": 43.39999999999968,
          "velocity": 0.6299212598425197,
          "duration": 0.18833333333333258
        },
        {
          "name": "C#4",
          "midi": 61,
          "time": 43.599999999999675,
          "velocity": 0.6299212598425197,
          "duration": 0.18833333333333258
        },
        {
          "name": "G#3",
          "midi": 56,
          "time": 43.79999999999967,
          "velocity": 0.6299212598425197,
          "duration": 0.18833333333333258
        },
        {
          "name": "G#4",
          "midi": 68,
          "time": 43.999999999999666,
          "velocity": 0.6299212598425197,
          "duration": 0.18833333333333258
        },
        {
          "name": "G#3",
          "midi": 56,
          "time": 44.19999999999966,
          "velocity": 0.6299212598425197,
          "duration": 0.18833333333333258
        },
        {
          "name": "C#4",
          "midi": 61,
          "time": 44.39999999999966,
          "velocity": 0.6299212598425197,
          "duration": 0.18833333333333258
        },
        {
          "name": "G#3",
          "midi": 56,
          "time": 44.59999999999965,
          "velocity": 0.6299212598425197,
          "duration": 0.18833333333333258
        },
        {
          "name": "F3",
          "midi": 53,
          "time": 44.79999999999965,
          "velocity": 0.6299212598425197,
          "duration": 0.18833333333333258
        },
        {
          "name": "C4",
          "midi": 60,
          "time": 44.999999999999645,
          "velocity": 0.6299212598425197,
          "duration": 0.18833333333333258
        },
        {
          "name": "D#4",
          "midi": 63,
          "time": 45.19999999999964,
          "velocity": 0.6299212598425197,
          "duration": 0.18833333333333258
        },
        {
          "name": "C4",
          "midi": 60,
          "time": 45.399999999999636,
          "velocity": 0.6299212598425197,
          "duration": 0.18833333333333258
        },
        {
          "name": "G#4",
          "midi": 68,
          "time": 45.59999999999963,
          "velocity": 0.6299212598425197,
          "duration": 0.18833333333333258
        },
        {
          "name": "C4",
          "midi": 60,
          "time": 45.79999999999963,
          "velocity": 0.6299212598425197,
          "duration": 0.18833333333333258
        },
        {
          "name": "D#4",
          "midi": 63,
          "time": 45.99999999999962,
          "velocity": 0.6299212598425197,
          "duration": 0.18833333333333258
        },
        {
          "name": "C4",
          "midi": 60,
          "time": 46.19999999999962,
          "velocity": 0.6299212598425197,
          "duration": 0.18833333333333258
        },
        {
          "name": "F3",
          "midi": 53,
          "time": 46.399999999999615,
          "velocity": 0.6299212598425197,
          "duration": 0.18833333333333258
        },
        {
          "name": "C4",
          "midi": 60,
          "time": 46.59999999999961,
          "velocity": 0.6299212598425197,
          "duration": 0.18833333333333258
        },
        {
          "name": "D#4",
          "midi": 63,
          "time": 46.799999999999606,
          "velocity": 0.6299212598425197,
          "duration": 0.18833333333333258
        },
        {
          "name": "C4",
          "midi": 60,
          "time": 46.9999999999996,
          "velocity": 0.6299212598425197,
          "duration": 0.18833333333333258
        },
        {
          "name": "G#4",
          "midi": 68,
          "time": 47.1999999999996,
          "velocity": 0.6299212598425197,
          "duration": 0.18833333333333258
        },
        {
          "name": "C4",
          "midi": 60,
          "time": 47.399999999999594,
          "velocity": 0.6299212598425197,
          "duration": 0.18833333333333258
        },
        {
          "name": "D#4",
          "midi": 63,
          "time": 47.59999999999959,
          "velocity": 0.6299212598425197,
          "duration": 0.18833333333333258
        },
        {
          "name": "C4",
          "midi": 60,
          "time": 47.799999999999585,
          "velocity": 0.6299212598425197,
          "duration": 0.18833333333333258
        },
        {
          "name": "F4",
          "midi": 65,
          "time": 47.99999999999958,
          "velocity": 0.6299212598425197,
          "duration": 0.3783333333333303
        },
        {
          "name": "F3",
          "midi": 53,
          "time": 49.599999999999575,
          "velocity": 0.6299212598425197,
          "duration": 0.7583333333333329
        },
        {
          "name": "F4",
          "midi": 65,
          "time": 49.599999999999575,
          "velocity": 0.6299212598425197,
          "duration": 0.7583333333333329
        },
        {
          "name": "F#2",
          "midi": 42,
          "time": 51.19999999999958,
          "velocity": 0.6299212598425197,
          "duration": 0.3783333333333303
        },
        {
          "name": "F#3",
          "midi": 54,
          "time": 51.999999999999574,
          "velocity": 0.6299212598425197,
          "duration": 0.3783333333333303
        },
        {
          "name": "C#4",
          "midi": 61,
          "time": 52.59999999999957,
          "velocity": 0.6299212598425197,
          "duration": 0.18833333333333258
        },
        {
          "name": "F4",
          "midi": 65,
          "time": 52.59999999999957,
          "velocity": 0.6299212598425197,
          "duration": 0.18833333333333258
        },
        {
          "name": "C#4",
          "midi": 61,
          "time": 53.19999999999957,
          "velocity": 0.6299212598425197,
          "duration": 0.3783333333333303
        },
        {
          "name": "F4",
          "midi": 65,
          "time": 53.19999999999957,
          "velocity": 0.6299212598425197,
          "duration": 0.3783333333333303
        },
        {
          "name": "C#4",
          "midi": 61,
          "time": 53.59999999999957,
          "velocity": 0.6299212598425197,
          "duration": 0.3783333333333303
        },
        {
          "name": "F4",
          "midi": 65,
          "time": 53.59999999999957,
          "velocity": 0.6299212598425197,
          "duration": 0.3783333333333303
        },
        {
          "name": "C#2",
          "midi": 37,
          "time": 54.399999999999565,
          "velocity": 0.6299212598425197,
          "duration": 0.3783333333333303
        },
        {
          "name": "G#3",
          "midi": 56,
          "time": 55.19999999999956,
          "velocity": 0.6299212598425197,
          "duration": 0.3783333333333303
        },
        {
          "name": "C#4",
          "midi": 61,
          "time": 55.79999999999956,
          "velocity": 0.6299212598425197,
          "duration": 0.18833333333333258
        },
        {
          "name": "F4",
          "midi": 65,
          "time": 55.79999999999956,
          "velocity": 0.6299212598425197,
          "duration": 0.18833333333333258
        },
        {
          "name": "C#4",
          "midi": 61,
          "time": 56.39999999999956,
          "velocity": 0.6299212598425197,
          "duration": 0.3783333333333303
        },
        {
          "name": "F4",
          "midi": 65,
          "time": 56.39999999999956,
          "velocity": 0.6299212598425197,
          "duration": 0.3783333333333303
        },
        {
          "name": "C#4",
          "midi": 61,
          "time": 56.79999999999956,
          "velocity": 0.6299212598425197,
          "duration": 0.3783333333333303
        },
        {
          "name": "F4",
          "midi": 65,
          "time": 56.79999999999956,
          "velocity": 0.6299212598425197,
          "duration": 0.3783333333333303
        },
        {
          "name": "F2",
          "midi": 41,
          "time": 57.599999999999554,
          "velocity": 0.6299212598425197,
          "duration": 0.3783333333333303
        },
        {
          "name": "C4",
          "midi": 60,
          "time": 58.39999999999955,
          "velocity": 0.6299212598425197,
          "duration": 0.3783333333333303
        },
        {
          "name": "D#4",
          "midi": 63,
          "time": 58.39999999999955,
          "velocity": 0.6299212598425197,
          "duration": 0.3783333333333303
        },
        {
          "name": "F3",
          "midi": 53,
          "time": 59.19999999999955,
          "velocity": 0.6299212598425197,
          "duration": 0.3783333333333303
        },
        {
          "name": "G#3",
          "midi": 56,
          "time": 59.999999999999545,
          "velocity": 0.6299212598425197,
          "duration": 0.3783333333333303
        },
        {
          "name": "C4",
          "midi": 60,
          "time": 59.999999999999545,
          "velocity": 0.6299212598425197,
          "duration": 0.3783333333333303
        },
        {
          "name": "D#4",
          "midi": 63,
          "time": 59.999999999999545,
          "velocity": 0.6299212598425197,
          "duration": 0.3783333333333303
        },
        {
          "name": "A#2",
          "midi": 46,
          "time": 60.79999999999954,
          "velocity": 0.6299212598425197,
          "duration": 0.3783333333333303
        },
        {
          "name": "F3",
          "midi": 53,
          "time": 61.59999999999954,
          "velocity": 0.6299212598425197,
          "duration": 0.3783333333333303
        },
        {
          "name": "A#3",
          "midi": 58,
          "time": 61.59999999999954,
          "velocity": 0.6299212598425197,
          "duration": 0.3783333333333303
        },
        {
          "name": "A#2",
          "midi": 46,
          "time": 62.39999999999954,
          "velocity": 0.6299212598425197,
          "duration": 0.3783333333333303
        },
        {
          "name": "A#3",
          "midi": 58,
          "time": 63.199999999999534,
          "velocity": 0.6299212598425197,
          "duration": 0.3783333333333303
        },
        {
          "name": "C#4",
          "midi": 61,
          "time": 63.199999999999534,
          "velocity": 0.6299212598425197,
          "duration": 0.3783333333333303
        },
        {
          "name": "F#2",
          "midi": 42,
          "time": 63.99999999999953,
          "velocity": 0.6299212598425197,
          "duration": 0.3783333333333303
        },
        {
          "name": "F#3",
          "midi": 54,
          "time": 64.79999999999953,
          "velocity": 0.6299212598425197,
          "duration": 0.3783333333333303
        },
        {
          "name": "C#4",
          "midi": 61,
          "time": 65.39999999999952,
          "velocity": 0.6299212598425197,
          "duration": 0.18833333333333258
        },
        {
          "name": "F4",
          "midi": 65,
          "time": 65.39999999999952,
          "velocity": 0.6299212598425197,
          "duration": 0.18833333333333258
        },
        {
          "name": "C#4",
          "midi": 61,
          "time": 65.99999999999952,
          "velocity": 0.6299212598425197,
          "duration": 0.3783333333333303
        },
        {
          "name": "F4",
          "midi": 65,
          "time": 65.99999999999952,
          "velocity": 0.6299212598425197,
          "duration": 0.3783333333333303
        },
        {
          "name": "C#4",
          "midi": 61,
          "time": 66.39999999999951,
          "velocity": 0.6299212598425197,
          "duration": 0.3783333333333303
        },
        {
          "name": "F4",
          "midi": 65,
          "time": 66.39999999999951,
          "velocity": 0.6299212598425197,
          "duration": 0.3783333333333303
        },
        {
          "name": "C#2",
          "midi": 37,
          "time": 67.1999999999995,
          "velocity": 0.6299212598425197,
          "duration": 0.3783333333333303
        },
        {
          "name": "G#3",
          "midi": 56,
          "time": 67.9999999999995,
          "velocity": 0.6299212598425197,
          "duration": 0.3783333333333303
        },
        {
          "name": "C#4",
          "midi": 61,
          "time": 68.5999999999995,
          "velocity": 0.6299212598425197,
          "duration": 0.18833333333333258
        },
        {
          "name": "F4",
          "midi": 65,
          "time": 68.5999999999995,
          "velocity": 0.6299212598425197,
          "duration": 0.18833333333333258
        },
        {
          "name": "C#4",
          "midi": 61,
          "time": 69.19999999999949,
          "velocity": 0.6299212598425197,
          "duration": 0.3783333333333303
        },
        {
          "name": "F4",
          "midi": 65,
          "time": 69.19999999999949,
          "velocity": 0.6299212598425197,
          "duration": 0.3783333333333303
        },
        {
          "name": "C#4",
          "midi": 61,
          "time": 69.59999999999948,
          "velocity": 0.6299212598425197,
          "duration": 0.3783333333333303
        },
        {
          "name": "F4",
          "midi": 65,
          "time": 69.59999999999948,
          "velocity": 0.6299212598425197,
          "duration": 0.3783333333333303
        },
        {
          "name": "F2",
          "midi": 41,
          "time": 70.39999999999948,
          "velocity": 0.6299212598425197,
          "duration": 0.3783333333333303
        },
        {
          "name": "C4",
          "midi": 60,
          "time": 71.19999999999948,
          "velocity": 0.6299212598425197,
          "duration": 0.3783333333333303
        },
        {
          "name": "D#4",
          "midi": 63,
          "time": 71.19999999999948,
          "velocity": 0.6299212598425197,
          "duration": 0.3783333333333303
        },
        {
          "name": "F3",
          "midi": 53,
          "time": 71.99999999999947,
          "velocity": 0.6299212598425197,
          "duration": 0.3783333333333303
        },
        {
          "name": "G#3",
          "midi": 56,
          "time": 72.79999999999947,
          "velocity": 0.6299212598425197,
          "duration": 0.3783333333333303
        },
        {
          "name": "C4",
          "midi": 60,
          "time": 72.79999999999947,
          "velocity": 0.6299212598425197,
          "duration": 0.3783333333333303
        },
        {
          "name": "D#4",
          "midi": 63,
          "time": 72.79999999999947,
          "velocity": 0.6299212598425197,
          "duration": 0.3783333333333303
        },
        {
          "name": "A#2",
          "midi": 46,
          "time": 73.59999999999947,
          "velocity": 0.6299212598425197,
          "duration": 0.3783333333333303
        },
        {
          "name": "F3",
          "midi": 53,
          "time": 74.39999999999947,
          "velocity": 0.6299212598425197,
          "duration": 0.3783333333333303
        },
        {
          "name": "A#3",
          "midi": 58,
          "time": 74.39999999999947,
          "velocity": 0.6299212598425197,
          "duration": 0.3783333333333303
        },
        {
          "name": "A#2",
          "midi": 46,
          "time": 75.19999999999946,
          "velocity": 0.6299212598425197,
          "duration": 0.3783333333333303
        },
        {
          "name": "F3",
          "midi": 53,
          "time": 75.99999999999946,
          "velocity": 0.6299212598425197,
          "duration": 0.3783333333333303
        },
        {
          "name": "G#3",
          "midi": 56,
          "time": 75.99999999999946,
          "velocity": 0.6299212598425197,
          "duration": 0.3783333333333303
        },
        {
          "name": "F#2",
          "midi": 42,
          "time": 76.79999999999946,
          "velocity": 0.6299212598425197,
          "duration": 0.75833333333334
        },
        {
          "name": "C#3",
          "midi": 49,
          "time": 77.59999999999947,
          "velocity": 0.6299212598425197,
          "duration": 0.568333333333328
        },
        {
          "name": "F3",
          "midi": 53,
          "time": 77.59999999999947,
          "velocity": 0.6299212598425197,
          "duration": 0.568333333333328
        },
        {
          "name": "C#3",
          "midi": 49,
          "time": 78.19999999999946,
          "velocity": 0.6299212598425197,
          "duration": 0.3783333333333303
        },
        {
          "name": "F3",
          "midi": 53,
          "time": 78.19999999999946,
          "velocity": 0.6299212598425197,
          "duration": 0.3783333333333303
        },
        {
          "name": "C#3",
          "midi": 49,
          "time": 78.59999999999945,
          "velocity": 0.6299212598425197,
          "duration": 0.3783333333333303
        },
        {
          "name": "F3",
          "midi": 53,
          "time": 78.59999999999945,
          "velocity": 0.6299212598425197,
          "duration": 0.3783333333333303
        },
        {
          "name": "C#3",
          "midi": 49,
          "time": 79.19999999999945,
          "velocity": 0.6299212598425197,
          "duration": 0.3783333333333303
        },
        {
          "name": "F3",
          "midi": 53,
          "time": 79.19999999999945,
          "velocity": 0.6299212598425197,
          "duration": 0.3783333333333303
        },
        {
          "name": "A2",
          "midi": 45,
          "time": 79.99999999999945,
          "velocity": 0.6299212598425197,
          "duration": 0.75833333333334
        },
        {
          "name": "C#3",
          "midi": 49,
          "time": 80.79999999999946,
          "velocity": 0.6299212598425197,
          "duration": 0.568333333333328
        },
        {
          "name": "A3",
          "midi": 57,
          "time": 80.79999999999946,
          "velocity": 0.6299212598425197,
          "duration": 0.568333333333328
        },
        {
          "name": "C#3",
          "midi": 49,
          "time": 81.39999999999945,
          "velocity": 0.6299212598425197,
          "duration": 0.3783333333333303
        },
        {
          "name": "A3",
          "midi": 57,
          "time": 81.39999999999945,
          "velocity": 0.6299212598425197,
          "duration": 0.3783333333333303
        },
        {
          "name": "C#3",
          "midi": 49,
          "time": 81.79999999999944,
          "velocity": 0.6299212598425197,
          "duration": 0.3783333333333303
        },
        {
          "name": "A3",
          "midi": 57,
          "time": 81.79999999999944,
          "velocity": 0.6299212598425197,
          "duration": 0.3783333333333303
        },
        {
          "name": "C#3",
          "midi": 49,
          "time": 82.39999999999944,
          "velocity": 0.6299212598425197,
          "duration": 0.3783333333333303
        },
        {
          "name": "A3",
          "midi": 57,
          "time": 82.39999999999944,
          "velocity": 0.6299212598425197,
          "duration": 0.3783333333333303
        },
        {
          "name": "B2",
          "midi": 47,
          "time": 83.19999999999943,
          "velocity": 0.6299212598425197,
          "duration": 0.75833333333334
        },
        {
          "name": "F#3",
          "midi": 54,
          "time": 83.99999999999945,
          "velocity": 0.6299212598425197,
          "duration": 0.3783333333333303
        },
        {
          "name": "B3",
          "midi": 59,
          "time": 83.99999999999945,
          "velocity": 0.6299212598425197,
          "duration": 0.3783333333333303
        },
        {
          "name": "B2",
          "midi": 47,
          "time": 84.79999999999944,
          "velocity": 0.6299212598425197,
          "duration": 0.3783333333333303
        },
        {
          "name": "F#3",
          "midi": 54,
          "time": 85.59999999999944,
          "velocity": 0.6299212598425197,
          "duration": 0.3783333333333303
        },
        {
          "name": "B3",
          "midi": 59,
          "time": 85.59999999999944,
          "velocity": 0.6299212598425197,
          "duration": 0.3783333333333303
        },
        {
          "name": "C#3",
          "midi": 49,
          "time": 86.39999999999944,
          "velocity": 0.6299212598425197,
          "duration": 0.75833333333334
        },
        {
          "name": "G#3",
          "midi": 56,
          "time": 87.19999999999945,
          "velocity": 0.6299212598425197,
          "duration": 0.568333333333328
        },
        {
          "name": "C#4",
          "midi": 61,
          "time": 87.19999999999945,
          "velocity": 0.6299212598425197,
          "duration": 0.568333333333328
        },
        {
          "name": "G#3",
          "midi": 56,
          "time": 87.79999999999944,
          "velocity": 0.6299212598425197,
          "duration": 0.3783333333333303
        },
        {
          "name": "C#4",
          "midi": 61,
          "time": 87.79999999999944,
          "velocity": 0.6299212598425197,
          "duration": 0.3783333333333303
        },
        {
          "name": "G#3",
          "midi": 56,
          "time": 88.19999999999943,
          "velocity": 0.6299212598425197,
          "duration": 0.3783333333333303
        },
        {
          "name": "C#4",
          "midi": 61,
          "time": 88.19999999999943,
          "velocity": 0.6299212598425197,
          "duration": 0.3783333333333303
        },
        {
          "name": "G#3",
          "midi": 56,
          "time": 88.79999999999943,
          "velocity": 0.6299212598425197,
          "duration": 0.3783333333333303
        },
        {
          "name": "C#4",
          "midi": 61,
          "time": 88.79999999999943,
          "velocity": 0.6299212598425197,
          "duration": 0.3783333333333303
        },
        {
          "name": "F#2",
          "midi": 42,
          "time": 89.59999999999943,
          "velocity": 0.6299212598425197,
          "duration": 0.75833333333334
        },
        {
          "name": "C#3",
          "midi": 49,
          "time": 90.39999999999944,
          "velocity": 0.6299212598425197,
          "duration": 0.568333333333328
        },
        {
          "name": "F3",
          "midi": 53,
          "time": 90.39999999999944,
          "velocity": 0.6299212598425197,
          "duration": 0.568333333333328
        },
        {
          "name": "C#3",
          "midi": 49,
          "time": 90.99999999999943,
          "velocity": 0.6299212598425197,
          "duration": 0.3783333333333303
        },
        {
          "name": "F3",
          "midi": 53,
          "time": 90.99999999999943,
          "velocity": 0.6299212598425197,
          "duration": 0.3783333333333303
        },
        {
          "name": "C#3",
          "midi": 49,
          "time": 91.39999999999942,
          "velocity": 0.6299212598425197,
          "duration": 0.3783333333333303
        },
        {
          "name": "F3",
          "midi": 53,
          "time": 91.39999999999942,
          "velocity": 0.6299212598425197,
          "duration": 0.3783333333333303
        },
        {
          "name": "C#3",
          "midi": 49,
          "time": 91.99999999999942,
          "velocity": 0.6299212598425197,
          "duration": 0.3783333333333303
        },
        {
          "name": "F3",
          "midi": 53,
          "time": 91.99999999999942,
          "velocity": 0.6299212598425197,
          "duration": 0.3783333333333303
        },
        {
          "name": "A2",
          "midi": 45,
          "time": 92.79999999999941,
          "velocity": 0.6299212598425197,
          "duration": 0.75833333333334
        },
        {
          "name": "C#3",
          "midi": 49,
          "time": 93.59999999999943,
          "velocity": 0.6299212598425197,
          "duration": 0.568333333333328
        },
        {
          "name": "A3",
          "midi": 57,
          "time": 93.59999999999943,
          "velocity": 0.6299212598425197,
          "duration": 0.568333333333328
        },
        {
          "name": "C#3",
          "midi": 49,
          "time": 94.19999999999942,
          "velocity": 0.6299212598425197,
          "duration": 0.3783333333333303
        },
        {
          "name": "A3",
          "midi": 57,
          "time": 94.19999999999942,
          "velocity": 0.6299212598425197,
          "duration": 0.3783333333333303
        },
        {
          "name": "C#3",
          "midi": 49,
          "time": 94.59999999999941,
          "velocity": 0.6299212598425197,
          "duration": 0.3783333333333303
        },
        {
          "name": "A3",
          "midi": 57,
          "time": 94.59999999999941,
          "velocity": 0.6299212598425197,
          "duration": 0.3783333333333303
        },
        {
          "name": "C#3",
          "midi": 49,
          "time": 95.1999999999994,
          "velocity": 0.6299212598425197,
          "duration": 0.3783333333333303
        },
        {
          "name": "A3",
          "midi": 57,
          "time": 95.1999999999994,
          "velocity": 0.6299212598425197,
          "duration": 0.3783333333333303
        },
        {
          "name": "B2",
          "midi": 47,
          "time": 95.9999999999994,
          "velocity": 0.6299212598425197,
          "duration": 0.75833333333334
        },
        {
          "name": "F#3",
          "midi": 54,
          "time": 96.79999999999941,
          "velocity": 0.6299212598425197,
          "duration": 0.3783333333333303
        },
        {
          "name": "B3",
          "midi": 59,
          "time": 96.79999999999941,
          "velocity": 0.6299212598425197,
          "duration": 0.3783333333333303
        },
        {
          "name": "B2",
          "midi": 47,
          "time": 97.59999999999941,
          "velocity": 0.6299212598425197,
          "duration": 0.3783333333333303
        },
        {
          "name": "F#3",
          "midi": 54,
          "time": 98.39999999999941,
          "velocity": 0.6299212598425197,
          "duration": 0.3783333333333303
        },
        {
          "name": "B3",
          "midi": 59,
          "time": 98.39999999999941,
          "velocity": 0.6299212598425197,
          "duration": 0.3783333333333303
        },
        {
          "name": "C#3",
          "midi": 49,
          "time": 99.1999999999994,
          "velocity": 0.6299212598425197,
          "duration": 0.3783333333333303
        },
        {
          "name": "G#3",
          "midi": 56,
          "time": 99.5999999999994,
          "velocity": 0.6299212598425197,
          "duration": 0.3783333333333303
        },
        {
          "name": "C#4",
          "midi": 61,
          "time": 99.99999999999939,
          "velocity": 0.6299212598425197,
          "duration": 0.3783333333333303
        },
        {
          "name": "G#3",
          "midi": 56,
          "time": 101.19999999999939,
          "velocity": 0.6299212598425197,
          "duration": 0.3783333333333303
        },
        {
          "name": "F#3",
          "midi": 54,
          "time": 101.59999999999938,
          "velocity": 0.6299212598425197,
          "duration": 0.3783333333333303
        },
        {
          "name": "G#3",
          "midi": 56,
          "time": 101.99999999999937,
          "velocity": 0.6299212598425197,
          "duration": 0.3783333333333303
        },
        {
          "name": "C#3",
          "midi": 49,
          "time": 102.99999999999937,
          "velocity": 0.6299212598425197,
          "duration": 3.038333333333327
        },
        {
          "name": "G#3",
          "midi": 56,
          "time": 106.19999999999936,
          "velocity": 0.6299212598425197,
          "duration": 3.038333333333327
        },
        {
          "name": "C#3",
          "midi": 49,
          "time": 109.39999999999935,
          "velocity": 0.6299212598425197,
          "duration": 3.038333333333327
        },
        {
          "name": "F3",
          "midi": 53,
          "time": 112.59999999999934,
          "velocity": 0.6299212598425197,
          "duration": 0.3783333333333303
        },
        {
          "name": "G#3",
          "midi": 56,
          "time": 113.19999999999933,
          "velocity": 0.6299212598425197,
          "duration": 1.5183333333333309
        },
        {
          "name": "G#3",
          "midi": 56,
          "time": 115.19999999999933,
          "velocity": 0.6299212598425197,
          "duration": 3.038333333333327
        },
        {
          "name": "C#4",
          "midi": 61,
          "time": 115.19999999999933,
          "velocity": 0.6299212598425197,
          "duration": 3.038333333333327
        },
        {
          "name": "F4",
          "midi": 65,
          "time": 115.19999999999933,
          "velocity": 0.6299212598425197,
          "duration": 3.038333333333327
        },
        {
          "name": "A3",
          "midi": 57,
          "time": 118.39999999999932,
          "velocity": 0.6299212598425197,
          "duration": 3.038333333333327
        },
        {
          "name": "C#4",
          "midi": 61,
          "time": 118.39999999999932,
          "velocity": 0.6299212598425197,
          "duration": 3.038333333333327
        },
        {
          "name": "A4",
          "midi": 69,
          "time": 118.39999999999932,
          "velocity": 0.6299212598425197,
          "duration": 3.038333333333327
        },
        {
          "name": "B3",
          "midi": 59,
          "time": 121.59999999999931,
          "velocity": 0.6299212598425197,
          "duration": 3.038333333333327
        },
        {
          "name": "C#4",
          "midi": 61,
          "time": 121.59999999999931,
          "velocity": 0.6299212598425197,
          "duration": 3.038333333333327
        },
        {
          "name": "F#4",
          "midi": 66,
          "time": 121.59999999999931,
          "velocity": 0.6299212598425197,
          "duration": 3.038333333333327
        },
        {
          "name": "C#4",
          "midi": 61,
          "time": 124.7999999999993,
          "velocity": 0.6299212598425197,
          "duration": 3.038333333333327
        },
        {
          "name": "F4",
          "midi": 65,
          "time": 124.7999999999993,
          "velocity": 0.6299212598425197,
          "duration": 3.038333333333327
        },
        {
          "name": "G#4",
          "midi": 68,
          "time": 124.7999999999993,
          "velocity": 0.6299212598425197,
          "duration": 3.038333333333327
        },
        {
          "name": "F#3",
          "midi": 54,
          "time": 127.99999999999929,
          "velocity": 0.6299212598425197,
          "duration": 0.18833333333333258
        },
        {
          "name": "C#4",
          "midi": 61,
          "time": 128.19999999999928,
          "velocity": 0.6299212598425197,
          "duration": 0.18833333333333258
        },
        {
          "name": "D#4",
          "midi": 63,
          "time": 128.39999999999927,
          "velocity": 0.6299212598425197,
          "duration": 0.18833333333333258
        },
        {
          "name": "C#4",
          "midi": 61,
          "time": 128.59999999999926,
          "velocity": 0.6299212598425197,
          "duration": 0.18833333333333258
        },
        {
          "name": "G#4",
          "midi": 68,
          "time": 128.79999999999924,
          "velocity": 0.6299212598425197,
          "duration": 0.18833333333333258
        },
        {
          "name": "C#4",
          "midi": 61,
          "time": 128.99999999999923,
          "velocity": 0.6299212598425197,
          "duration": 0.18833333333333258
        },
        {
          "name": "D#4",
          "midi": 63,
          "time": 129.19999999999922,
          "velocity": 0.6299212598425197,
          "duration": 0.18833333333333258
        },
        {
          "name": "C#4",
          "midi": 61,
          "time": 129.3999999999992,
          "velocity": 0.6299212598425197,
          "duration": 0.18833333333333258
        },
        {
          "name": "F#3",
          "midi": 54,
          "time": 129.5999999999992,
          "velocity": 0.6299212598425197,
          "duration": 0.18833333333333258
        },
        {
          "name": "C#4",
          "midi": 61,
          "time": 129.7999999999992,
          "velocity": 0.6299212598425197,
          "duration": 0.18833333333333258
        },
        {
          "name": "D#4",
          "midi": 63,
          "time": 129.99999999999918,
          "velocity": 0.6299212598425197,
          "duration": 0.18833333333333258
        },
        {
          "name": "C#4",
          "midi": 61,
          "time": 130.19999999999916,
          "velocity": 0.6299212598425197,
          "duration": 0.18833333333333258
        },
        {
          "name": "G#4",
          "midi": 68,
          "time": 130.39999999999915,
          "velocity": 0.6299212598425197,
          "duration": 0.18833333333333258
        },
        {
          "name": "C#4",
          "midi": 61,
          "time": 130.59999999999914,
          "velocity": 0.6299212598425197,
          "duration": 0.18833333333333258
        },
        {
          "name": "D#4",
          "midi": 63,
          "time": 130.79999999999913,
          "velocity": 0.6299212598425197,
          "duration": 0.18833333333333258
        },
        {
          "name": "C#4",
          "midi": 61,
          "time": 130.99999999999912,
          "velocity": 0.6299212598425197,
          "duration": 0.18833333333333258
        },
        {
          "name": "C#3",
          "midi": 49,
          "time": 131.1999999999991,
          "velocity": 0.6299212598425197,
          "duration": 0.18833333333333258
        },
        {
          "name": "G#3",
          "midi": 56,
          "time": 131.3999999999991,
          "velocity": 0.6299212598425197,
          "duration": 0.18833333333333258
        },
        {
          "name": "C#4",
          "midi": 61,
          "time": 131.59999999999908,
          "velocity": 0.6299212598425197,
          "duration": 0.18833333333333258
        },
        {
          "name": "G#3",
          "midi": 56,
          "time": 131.79999999999907,
          "velocity": 0.6299212598425197,
          "duration": 0.18833333333333258
        },
        {
          "name": "G#4",
          "midi": 68,
          "time": 131.99999999999906,
          "velocity": 0.6299212598425197,
          "duration": 0.18833333333333258
        },
        {
          "name": "G#3",
          "midi": 56,
          "time": 132.19999999999905,
          "velocity": 0.6299212598425197,
          "duration": 0.18833333333333258
        },
        {
          "name": "C#4",
          "midi": 61,
          "time": 132.39999999999904,
          "velocity": 0.6299212598425197,
          "duration": 0.18833333333333258
        },
        {
          "name": "G#3",
          "midi": 56,
          "time": 132.59999999999903,
          "velocity": 0.6299212598425197,
          "duration": 0.18833333333333258
        },
        {
          "name": "C#3",
          "midi": 49,
          "time": 132.79999999999902,
          "velocity": 0.6299212598425197,
          "duration": 0.18833333333333258
        },
        {
          "name": "G#3",
          "midi": 56,
          "time": 132.999999999999,
          "velocity": 0.6299212598425197,
          "duration": 0.18833333333333258
        },
        {
          "name": "C#4",
          "midi": 61,
          "time": 133.199999999999,
          "velocity": 0.6299212598425197,
          "duration": 0.18833333333333258
        },
        {
          "name": "G#3",
          "midi": 56,
          "time": 133.39999999999898,
          "velocity": 0.6299212598425197,
          "duration": 0.18833333333333258
        },
        {
          "name": "G#4",
          "midi": 68,
          "time": 133.59999999999897,
          "velocity": 0.6299212598425197,
          "duration": 0.18833333333333258
        },
        {
          "name": "G#3",
          "midi": 56,
          "time": 133.79999999999896,
          "velocity": 0.6299212598425197,
          "duration": 0.18833333333333258
        },
        {
          "name": "C#4",
          "midi": 61,
          "time": 133.99999999999895,
          "velocity": 0.6299212598425197,
          "duration": 0.18833333333333258
        },
        {
          "name": "G#3",
          "midi": 56,
          "time": 134.19999999999894,
          "velocity": 0.6299212598425197,
          "duration": 0.18833333333333258
        },
        {
          "name": "F3",
          "midi": 53,
          "time": 134.39999999999893,
          "velocity": 0.6299212598425197,
          "duration": 0.18833333333333258
        },
        {
          "name": "C4",
          "midi": 60,
          "time": 134.59999999999891,
          "velocity": 0.6299212598425197,
          "duration": 0.18833333333333258
        },
        {
          "name": "D#4",
          "midi": 63,
          "time": 134.7999999999989,
          "velocity": 0.6299212598425197,
          "duration": 0.18833333333333258
        },
        {
          "name": "C4",
          "midi": 60,
          "time": 134.9999999999989,
          "velocity": 0.6299212598425197,
          "duration": 0.18833333333333258
        },
        {
          "name": "G#4",
          "midi": 68,
          "time": 135.19999999999888,
          "velocity": 0.6299212598425197,
          "duration": 0.18833333333333258
        },
        {
          "name": "C4",
          "midi": 60,
          "time": 135.39999999999887,
          "velocity": 0.6299212598425197,
          "duration": 0.18833333333333258
        },
        {
          "name": "D#4",
          "midi": 63,
          "time": 135.59999999999886,
          "velocity": 0.6299212598425197,
          "duration": 0.18833333333333258
        },
        {
          "name": "C4",
          "midi": 60,
          "time": 135.79999999999885,
          "velocity": 0.6299212598425197,
          "duration": 0.18833333333333258
        },
        {
          "name": "F3",
          "midi": 53,
          "time": 135.99999999999883,
          "velocity": 0.6299212598425197,
          "duration": 0.18833333333333258
        },
        {
          "name": "C4",
          "midi": 60,
          "time": 136.19999999999882,
          "velocity": 0.6299212598425197,
          "duration": 0.18833333333333258
        },
        {
          "name": "D#4",
          "midi": 63,
          "time": 136.3999999999988,
          "velocity": 0.6299212598425197,
          "duration": 0.18833333333333258
        },
        {
          "name": "C4",
          "midi": 60,
          "time": 136.5999999999988,
          "velocity": 0.6299212598425197,
          "duration": 0.18833333333333258
        },
        {
          "name": "G#4",
          "midi": 68,
          "time": 136.7999999999988,
          "velocity": 0.6299212598425197,
          "duration": 0.18833333333333258
        },
        {
          "name": "C4",
          "midi": 60,
          "time": 136.99999999999878,
          "velocity": 0.6299212598425197,
          "duration": 0.18833333333333258
        },
        {
          "name": "D#4",
          "midi": 63,
          "time": 137.19999999999877,
          "velocity": 0.6299212598425197,
          "duration": 0.18833333333333258
        },
        {
          "name": "C4",
          "midi": 60,
          "time": 137.39999999999876,
          "velocity": 0.6299212598425197,
          "duration": 0.18833333333333258
        },
        {
          "name": "F4",
          "midi": 65,
          "time": 137.59999999999874,
          "velocity": 0.6299212598425197,
          "duration": 0.3783333333333303
        },
        {
          "name": "F3",
          "midi": 53,
          "time": 139.19999999999874,
          "velocity": 0.6299212598425197,
          "duration": 0.7583333333333258
        },
        {
          "name": "F4",
          "midi": 65,
          "time": 139.19999999999874,
          "velocity": 0.6299212598425197,
          "duration": 0.7583333333333258
        },
        {
          "name": "F#2",
          "midi": 42,
          "time": 140.79999999999873,
          "velocity": 0.6299212598425197,
          "duration": 0.3783333333333303
        },
        {
          "name": "F#3",
          "midi": 54,
          "time": 141.59999999999872,
          "velocity": 0.6299212598425197,
          "duration": 0.3783333333333303
        },
        {
          "name": "C#4",
          "midi": 61,
          "time": 142.1999999999987,
          "velocity": 0.6299212598425197,
          "duration": 0.18833333333333258
        },
        {
          "name": "F4",
          "midi": 65,
          "time": 142.1999999999987,
          "velocity": 0.6299212598425197,
          "duration": 0.18833333333333258
        },
        {
          "name": "C#4",
          "midi": 61,
          "time": 142.7999999999987,
          "velocity": 0.6299212598425197,
          "duration": 0.3783333333333303
        },
        {
          "name": "F4",
          "midi": 65,
          "time": 142.7999999999987,
          "velocity": 0.6299212598425197,
          "duration": 0.3783333333333303
        },
        {
          "name": "C#4",
          "midi": 61,
          "time": 143.1999999999987,
          "velocity": 0.6299212598425197,
          "duration": 0.3783333333333303
        },
        {
          "name": "F4",
          "midi": 65,
          "time": 143.1999999999987,
          "velocity": 0.6299212598425197,
          "duration": 0.3783333333333303
        },
        {
          "name": "C#2",
          "midi": 37,
          "time": 143.9999999999987,
          "velocity": 0.6299212598425197,
          "duration": 0.3783333333333303
        },
        {
          "name": "G#3",
          "midi": 56,
          "time": 144.79999999999868,
          "velocity": 0.6299212598425197,
          "duration": 0.3783333333333303
        },
        {
          "name": "C#4",
          "midi": 61,
          "time": 145.39999999999867,
          "velocity": 0.6299212598425197,
          "duration": 0.18833333333333258
        },
        {
          "name": "F4",
          "midi": 65,
          "time": 145.39999999999867,
          "velocity": 0.6299212598425197,
          "duration": 0.18833333333333258
        },
        {
          "name": "C#4",
          "midi": 61,
          "time": 145.99999999999866,
          "velocity": 0.6299212598425197,
          "duration": 0.3783333333333303
        },
        {
          "name": "F4",
          "midi": 65,
          "time": 145.99999999999866,
          "velocity": 0.6299212598425197,
          "duration": 0.3783333333333303
        },
        {
          "name": "C#4",
          "midi": 61,
          "time": 146.39999999999867,
          "velocity": 0.6299212598425197,
          "duration": 0.3783333333333303
        },
        {
          "name": "F4",
          "midi": 65,
          "time": 146.39999999999867,
          "velocity": 0.6299212598425197,
          "duration": 0.3783333333333303
        },
        {
          "name": "F2",
          "midi": 41,
          "time": 147.19999999999865,
          "velocity": 0.6299212598425197,
          "duration": 0.3783333333333303
        },
        {
          "name": "C4",
          "midi": 60,
          "time": 147.99999999999864,
          "velocity": 0.6299212598425197,
          "duration": 0.3783333333333303
        },
        {
          "name": "D#4",
          "midi": 63,
          "time": 147.99999999999864,
          "velocity": 0.6299212598425197,
          "duration": 0.3783333333333303
        },
        {
          "name": "F3",
          "midi": 53,
          "time": 148.79999999999862,
          "velocity": 0.6299212598425197,
          "duration": 0.3783333333333303
        },
        {
          "name": "G#3",
          "midi": 56,
          "time": 149.5999999999986,
          "velocity": 0.6299212598425197,
          "duration": 0.3783333333333303
        },
        {
          "name": "C4",
          "midi": 60,
          "time": 149.5999999999986,
          "velocity": 0.6299212598425197,
          "duration": 0.3783333333333303
        },
        {
          "name": "D#4",
          "midi": 63,
          "time": 149.5999999999986,
          "velocity": 0.6299212598425197,
          "duration": 0.3783333333333303
        },
        {
          "name": "A#2",
          "midi": 46,
          "time": 150.39999999999858,
          "velocity": 0.6299212598425197,
          "duration": 0.3783333333333303
        },
        {
          "name": "F3",
          "midi": 53,
          "time": 151.19999999999857,
          "velocity": 0.6299212598425197,
          "duration": 0.3783333333333303
        },
        {
          "name": "A#3",
          "midi": 58,
          "time": 151.19999999999857,
          "velocity": 0.6299212598425197,
          "duration": 0.3783333333333303
        },
        {
          "name": "A#2",
          "midi": 46,
          "time": 151.99999999999855,
          "velocity": 0.6299212598425197,
          "duration": 0.3783333333333303
        },
        {
          "name": "A#3",
          "midi": 58,
          "time": 152.79999999999853,
          "velocity": 0.6299212598425197,
          "duration": 0.3783333333333303
        },
        {
          "name": "C#4",
          "midi": 61,
          "time": 152.79999999999853,
          "velocity": 0.6299212598425197,
          "duration": 0.3783333333333303
        },
        {
          "name": "F#2",
          "midi": 42,
          "time": 153.59999999999852,
          "velocity": 0.6299212598425197,
          "duration": 0.3783333333333303
        },
        {
          "name": "F#3",
          "midi": 54,
          "time": 154.3999999999985,
          "velocity": 0.6299212598425197,
          "duration": 0.3783333333333303
        },
        {
          "name": "C#4",
          "midi": 61,
          "time": 154.9999999999985,
          "velocity": 0.6299212598425197,
          "duration": 0.18833333333333258
        },
        {
          "name": "F4",
          "midi": 65,
          "time": 154.9999999999985,
          "velocity": 0.6299212598425197,
          "duration": 0.18833333333333258
        },
        {
          "name": "C#4",
          "midi": 61,
          "time": 155.5999999999985,
          "velocity": 0.6299212598425197,
          "duration": 0.3783333333333303
        },
        {
          "name": "F4",
          "midi": 65,
          "time": 155.5999999999985,
          "velocity": 0.6299212598425197,
          "duration": 0.3783333333333303
        },
        {
          "name": "C#4",
          "midi": 61,
          "time": 155.9999999999985,
          "velocity": 0.6299212598425197,
          "duration": 0.3783333333333303
        },
        {
          "name": "F4",
          "midi": 65,
          "time": 155.9999999999985,
          "velocity": 0.6299212598425197,
          "duration": 0.3783333333333303
        },
        {
          "name": "C#2",
          "midi": 37,
          "time": 156.79999999999848,
          "velocity": 0.6299212598425197,
          "duration": 0.3783333333333303
        },
        {
          "name": "G#3",
          "midi": 56,
          "time": 157.59999999999846,
          "velocity": 0.6299212598425197,
          "duration": 0.3783333333333303
        },
        {
          "name": "C#4",
          "midi": 61,
          "time": 158.19999999999845,
          "velocity": 0.6299212598425197,
          "duration": 0.18833333333333258
        },
        {
          "name": "F4",
          "midi": 65,
          "time": 158.19999999999845,
          "velocity": 0.6299212598425197,
          "duration": 0.18833333333333258
        },
        {
          "name": "C#4",
          "midi": 61,
          "time": 158.79999999999845,
          "velocity": 0.6299212598425197,
          "duration": 0.3783333333333303
        },
        {
          "name": "F4",
          "midi": 65,
          "time": 158.79999999999845,
          "velocity": 0.6299212598425197,
          "duration": 0.3783333333333303
        },
        {
          "name": "C#4",
          "midi": 61,
          "time": 159.19999999999845,
          "velocity": 0.6299212598425197,
          "duration": 0.3783333333333303
        },
        {
          "name": "F4",
          "midi": 65,
          "time": 159.19999999999845,
          "velocity": 0.6299212598425197,
          "duration": 0.3783333333333303
        },
        {
          "name": "F2",
          "midi": 41,
          "time": 159.99999999999844,
          "velocity": 0.6299212598425197,
          "duration": 0.3783333333333303
        },
        {
          "name": "C4",
          "midi": 60,
          "time": 160.79999999999842,
          "velocity": 0.6299212598425197,
          "duration": 0.3783333333333303
        },
        {
          "name": "D#4",
          "midi": 63,
          "time": 160.79999999999842,
          "velocity": 0.6299212598425197,
          "duration": 0.3783333333333303
        },
        {
          "name": "F3",
          "midi": 53,
          "time": 161.5999999999984,
          "velocity": 0.6299212598425197,
          "duration": 0.3783333333333303
        },
        {
          "name": "G#3",
          "midi": 56,
          "time": 162.39999999999839,
          "velocity": 0.6299212598425197,
          "duration": 0.3783333333333303
        },
        {
          "name": "C4",
          "midi": 60,
          "time": 162.39999999999839,
          "velocity": 0.6299212598425197,
          "duration": 0.3783333333333303
        },
        {
          "name": "D#4",
          "midi": 63,
          "time": 162.39999999999839,
          "velocity": 0.6299212598425197,
          "duration": 0.3783333333333303
        },
        {
          "name": "A#2",
          "midi": 46,
          "time": 163.19999999999837,
          "velocity": 0.6299212598425197,
          "duration": 0.3783333333333303
        },
        {
          "name": "F3",
          "midi": 53,
          "time": 163.99999999999835,
          "velocity": 0.6299212598425197,
          "duration": 0.3783333333333303
        },
        {
          "name": "A#3",
          "midi": 58,
          "time": 163.99999999999835,
          "velocity": 0.6299212598425197,
          "duration": 0.3783333333333303
        },
        {
          "name": "A#2",
          "midi": 46,
          "time": 164.79999999999833,
          "velocity": 0.6299212598425197,
          "duration": 0.3783333333333303
        },
        {
          "name": "F3",
          "midi": 53,
          "time": 165.59999999999832,
          "velocity": 0.6299212598425197,
          "duration": 0.3783333333333303
        },
        {
          "name": "G#3",
          "midi": 56,
          "time": 165.59999999999832,
          "velocity": 0.6299212598425197,
          "duration": 0.3783333333333303
        },
        {
          "name": "F#2",
          "midi": 42,
          "time": 166.3999999999983,
          "velocity": 0.6299212598425197,
          "duration": 0.7583333333333258
        },
        {
          "name": "C#3",
          "midi": 49,
          "time": 167.19999999999828,
          "velocity": 0.6299212598425197,
          "duration": 0.568333333333328
        },
        {
          "name": "F3",
          "midi": 53,
          "time": 167.19999999999828,
          "velocity": 0.6299212598425197,
          "duration": 0.568333333333328
        },
        {
          "name": "C#3",
          "midi": 49,
          "time": 167.79999999999828,
          "velocity": 0.6299212598425197,
          "duration": 0.3783333333333303
        },
        {
          "name": "F3",
          "midi": 53,
          "time": 167.79999999999828,
          "velocity": 0.6299212598425197,
          "duration": 0.3783333333333303
        },
        {
          "name": "C#3",
          "midi": 49,
          "time": 168.19999999999828,
          "velocity": 0.6299212598425197,
          "duration": 0.3783333333333303
        },
        {
          "name": "F3",
          "midi": 53,
          "time": 168.19999999999828,
          "velocity": 0.6299212598425197,
          "duration": 0.3783333333333303
        },
        {
          "name": "C#3",
          "midi": 49,
          "time": 168.79999999999828,
          "velocity": 0.6299212598425197,
          "duration": 0.3783333333333303
        },
        {
          "name": "F3",
          "midi": 53,
          "time": 168.79999999999828,
          "velocity": 0.6299212598425197,
          "duration": 0.3783333333333303
        },
        {
          "name": "A2",
          "midi": 45,
          "time": 169.59999999999826,
          "velocity": 0.6299212598425197,
          "duration": 0.7583333333333258
        },
        {
          "name": "C#3",
          "midi": 49,
          "time": 170.39999999999824,
          "velocity": 0.6299212598425197,
          "duration": 0.568333333333328
        },
        {
          "name": "A3",
          "midi": 57,
          "time": 170.39999999999824,
          "velocity": 0.6299212598425197,
          "duration": 0.568333333333328
        },
        {
          "name": "C#3",
          "midi": 49,
          "time": 170.99999999999824,
          "velocity": 0.6299212598425197,
          "duration": 0.3783333333333303
        },
        {
          "name": "A3",
          "midi": 57,
          "time": 170.99999999999824,
          "velocity": 0.6299212598425197,
          "duration": 0.3783333333333303
        },
        {
          "name": "C#3",
          "midi": 49,
          "time": 171.39999999999824,
          "velocity": 0.6299212598425197,
          "duration": 0.3783333333333303
        },
        {
          "name": "A3",
          "midi": 57,
          "time": 171.39999999999824,
          "velocity": 0.6299212598425197,
          "duration": 0.3783333333333303
        },
        {
          "name": "C#3",
          "midi": 49,
          "time": 171.99999999999824,
          "velocity": 0.6299212598425197,
          "duration": 0.3783333333333303
        },
        {
          "name": "A3",
          "midi": 57,
          "time": 171.99999999999824,
          "velocity": 0.6299212598425197,
          "duration": 0.3783333333333303
        },
        {
          "name": "B2",
          "midi": 47,
          "time": 172.79999999999822,
          "velocity": 0.6299212598425197,
          "duration": 0.7583333333333258
        },
        {
          "name": "F#3",
          "midi": 54,
          "time": 173.5999999999982,
          "velocity": 0.6299212598425197,
          "duration": 0.3783333333333303
        },
        {
          "name": "B3",
          "midi": 59,
          "time": 173.5999999999982,
          "velocity": 0.6299212598425197,
          "duration": 0.3783333333333303
        },
        {
          "name": "B2",
          "midi": 47,
          "time": 174.3999999999982,
          "velocity": 0.6299212598425197,
          "duration": 0.3783333333333303
        },
        {
          "name": "F#3",
          "midi": 54,
          "time": 175.19999999999817,
          "velocity": 0.6299212598425197,
          "duration": 0.3783333333333303
        },
        {
          "name": "B3",
          "midi": 59,
          "time": 175.19999999999817,
          "velocity": 0.6299212598425197,
          "duration": 0.3783333333333303
        },
        {
          "name": "C#3",
          "midi": 49,
          "time": 175.99999999999815,
          "velocity": 0.6299212598425197,
          "duration": 0.7583333333333258
        },
        {
          "name": "G#3",
          "midi": 56,
          "time": 176.79999999999814,
          "velocity": 0.6299212598425197,
          "duration": 0.568333333333328
        },
        {
          "name": "C#4",
          "midi": 61,
          "time": 176.79999999999814,
          "velocity": 0.6299212598425197,
          "duration": 0.568333333333328
        },
        {
          "name": "G#3",
          "midi": 56,
          "time": 177.39999999999813,
          "velocity": 0.6299212598425197,
          "duration": 0.3783333333333303
        },
        {
          "name": "C#4",
          "midi": 61,
          "time": 177.39999999999813,
          "velocity": 0.6299212598425197,
          "duration": 0.3783333333333303
        },
        {
          "name": "G#3",
          "midi": 56,
          "time": 177.79999999999814,
          "velocity": 0.6299212598425197,
          "duration": 0.3783333333333303
        },
        {
          "name": "C#4",
          "midi": 61,
          "time": 177.79999999999814,
          "velocity": 0.6299212598425197,
          "duration": 0.3783333333333303
        },
        {
          "name": "G#3",
          "midi": 56,
          "time": 178.39999999999813,
          "velocity": 0.6299212598425197,
          "duration": 0.3783333333333303
        },
        {
          "name": "C#4",
          "midi": 61,
          "time": 178.39999999999813,
          "velocity": 0.6299212598425197,
          "duration": 0.3783333333333303
        },
        {
          "name": "F#3",
          "midi": 54,
          "time": 179.1999999999981,
          "velocity": 0.6299212598425197,
          "duration": 0.7583333333333258
        },
        {
          "name": "C#4",
          "midi": 61,
          "time": 179.9999999999981,
          "velocity": 0.6299212598425197,
          "duration": 0.568333333333328
        },
        {
          "name": "F4",
          "midi": 65,
          "time": 179.9999999999981,
          "velocity": 0.6299212598425197,
          "duration": 0.568333333333328
        },
        {
          "name": "C#4",
          "midi": 61,
          "time": 180.5999999999981,
          "velocity": 0.6299212598425197,
          "duration": 0.3783333333333303
        },
        {
          "name": "F4",
          "midi": 65,
          "time": 180.5999999999981,
          "velocity": 0.6299212598425197,
          "duration": 0.3783333333333303
        },
        {
          "name": "C#4",
          "midi": 61,
          "time": 180.9999999999981,
          "velocity": 0.6299212598425197,
          "duration": 0.3783333333333303
        },
        {
          "name": "F4",
          "midi": 65,
          "time": 180.9999999999981,
          "velocity": 0.6299212598425197,
          "duration": 0.3783333333333303
        },
        {
          "name": "C#4",
          "midi": 61,
          "time": 181.5999999999981,
          "velocity": 0.6299212598425197,
          "duration": 0.3783333333333303
        },
        {
          "name": "F4",
          "midi": 65,
          "time": 181.5999999999981,
          "velocity": 0.6299212598425197,
          "duration": 0.3783333333333303
        },
        {
          "name": "A3",
          "midi": 57,
          "time": 182.39999999999807,
          "velocity": 0.6299212598425197,
          "duration": 0.7583333333333258
        },
        {
          "name": "C#4",
          "midi": 61,
          "time": 183.19999999999806,
          "velocity": 0.6299212598425197,
          "duration": 0.568333333333328
        },
        {
          "name": "A4",
          "midi": 69,
          "time": 183.19999999999806,
          "velocity": 0.6299212598425197,
          "duration": 0.568333333333328
        },
        {
          "name": "C#4",
          "midi": 61,
          "time": 183.79999999999805,
          "velocity": 0.6299212598425197,
          "duration": 0.3783333333333303
        },
        {
          "name": "A4",
          "midi": 69,
          "time": 183.79999999999805,
          "velocity": 0.6299212598425197,
          "duration": 0.3783333333333303
        },
        {
          "name": "C#4",
          "midi": 61,
          "time": 184.19999999999806,
          "velocity": 0.6299212598425197,
          "duration": 0.3783333333333303
        },
        {
          "name": "A4",
          "midi": 69,
          "time": 184.19999999999806,
          "velocity": 0.6299212598425197,
          "duration": 0.3783333333333303
        },
        {
          "name": "C#4",
          "midi": 61,
          "time": 184.79999999999805,
          "velocity": 0.6299212598425197,
          "duration": 0.3783333333333303
        },
        {
          "name": "A4",
          "midi": 69,
          "time": 184.79999999999805,
          "velocity": 0.6299212598425197,
          "duration": 0.3783333333333303
        },
        {
          "name": "B3",
          "midi": 59,
          "time": 185.59999999999803,
          "velocity": 0.6299212598425197,
          "duration": 0.7583333333333258
        },
        {
          "name": "F#4",
          "midi": 66,
          "time": 186.39999999999802,
          "velocity": 0.6299212598425197,
          "duration": 0.3783333333333303
        },
        {
          "name": "B4",
          "midi": 71,
          "time": 186.39999999999802,
          "velocity": 0.6299212598425197,
          "duration": 0.3783333333333303
        },
        {
          "name": "B3",
          "midi": 59,
          "time": 187.199999999998,
          "velocity": 0.6299212598425197,
          "duration": 0.3783333333333303
        },
        {
          "name": "F#4",
          "midi": 66,
          "time": 187.99999999999798,
          "velocity": 0.6299212598425197,
          "duration": 0.3783333333333303
        },
        {
          "name": "B4",
          "midi": 71,
          "time": 187.99999999999798,
          "velocity": 0.6299212598425197,
          "duration": 0.3783333333333303
        },
        {
          "name": "C#3",
          "midi": 49,
          "time": 188.79999999999797,
          "velocity": 0.6299212598425197,
          "duration": 0.3783333333333303
        },
        {
          "name": "G#3",
          "midi": 56,
          "time": 189.19999999999797,
          "velocity": 0.6299212598425197,
          "duration": 0.3783333333333303
        },
        {
          "name": "C#4",
          "midi": 61,
          "time": 189.59999999999798,
          "velocity": 0.6299212598425197,
          "duration": 0.3783333333333303
        },
        {
          "name": "D#4",
          "midi": 63,
          "time": 189.99999999999798,
          "velocity": 0.6299212598425197,
          "duration": 0.3783333333333303
        },
        {
          "name": "F4",
          "midi": 65,
          "time": 190.399999999998,
          "velocity": 0.6299212598425197,
          "duration": 3.038333333333327
        }
      ],
      "controlChanges": {},
      "id": 1,
      "channelNumber": 0,
      "isPercussion": false
    }
  ]
}