{
  "header": {
    "PPQ": 96,
    "timeSignature": [
      4,
      4
    ],
    "bpm": 154.99990958338608,
    "name": "Orchestral #2"
  },
  "startTime": 0,
  "duration": 163.45170825000065,
  "tracks": [
    {
      "startTime": 0,
      "duration": 0,
      "length": 0,
      "notes": [],
      "controlChanges": {},
      "id": 0
    },
    {
      "startTime": 0,
      "duration": 0,
      "length": 0,
      "notes": [],
      "controlChanges": {},
      "id": 1
    },
    {
      "startTime": 0,
      "duration": 0,
      "length": 0,
      "notes": [],
      "controlChanges": {},
      "id": 2,
      "name": "Orchestral #2"
    },
    {
      "startTime": 0,
      "duration": 0,
      "length": 0,
      "notes": [],
      "controlChanges": {},
      "id": 3,
      "name": "Orchestral"
    },
    {
      "startTime": 0.38709699999999997,
      "duration": 163.45170825000065,
      "length": 666,
      "notes": [
        {
          "name": "A#4",
          "midi": 70,
          "time": 0.38709699999999997,
          "velocity": 0.7874015748031497,
          "duration": 0.19354849999999996
        },
        {
          "name": "A#4",
          "midi": 70,
          "time": 0.5806454999999999,
          "velocity": 0.7874015748031497,
          "duration": 0.1935485
        },
        {
          "name": "F5",
          "midi": 77,
          "time": 0.7741939999999999,
          "velocity": 0.7874015748031497,
          "duration": 0.1935485
        },
        {
          "name": "F5",
          "midi": 77,
          "time": 0.9677425,
          "velocity": 0.7874015748031497,
          "duration": 0.1935484999999999
        },
        {
          "name": "F5",
          "midi": 77,
          "time": 1.1612909999999999,
          "velocity": 0.7874015748031497,
          "duration": 0.1935484999999999
        },
        {
          "name": "F5",
          "midi": 77,
          "time": 1.3548394999999998,
          "velocity": 0.7874015748031497,
          "duration": 0.1935484999999999
        },
        {
          "name": "D#5",
          "midi": 75,
          "time": 1.5483879999999997,
          "velocity": 0.7874015748031497,
          "duration": 0.1935484999999999
        },
        {
          "name": "D#5",
          "midi": 75,
          "time": 1.7419364999999996,
          "velocity": 0.7874015748031497,
          "duration": 0.9677425
        },
        {
          "name": "D#5",
          "midi": 75,
          "time": 3.2903244999999997,
          "velocity": 0.7874015748031497,
          "duration": 0.1935484999999999
        },
        {
          "name": "D#5",
          "midi": 75,
          "time": 3.4838729999999996,
          "velocity": 0.7874015748031497,
          "duration": 0.1935484999999999
        },
        {
          "name": "D#5",
          "midi": 75,
          "time": 3.6774214999999995,
          "velocity": 0.7874015748031497,
          "duration": 0.1935484999999999
        },
        {
          "name": "D#5",
          "midi": 75,
          "time": 3.8709699999999994,
          "velocity": 0.7874015748031497,
          "duration": 0.1935484999999999
        },
        {
          "name": "D#5",
          "midi": 75,
          "time": 4.064518499999999,
          "velocity": 0.7874015748031497,
          "duration": 0.19354850000000035
        },
        {
          "name": "D#5",
          "midi": 75,
          "time": 4.258067,
          "velocity": 0.7874015748031497,
          "duration": 0.19354850000000035
        },
        {
          "name": "D#5",
          "midi": 75,
          "time": 4.4516155,
          "velocity": 0.7874015748031497,
          "duration": 0.19354850000000035
        },
        {
          "name": "C#5",
          "midi": 73,
          "time": 4.645164,
          "velocity": 0.7874015748031497,
          "duration": 0.19354850000000035
        },
        {
          "name": "C#5",
          "midi": 73,
          "time": 4.838712500000001,
          "velocity": 0.7874015748031497,
          "duration": 0.7741939999999996
        },
        {
          "name": "A#4",
          "midi": 70,
          "time": 5.6129065,
          "velocity": 0.7874015748031497,
          "duration": 0.29032274999999963
        },
        {
          "name": "A#4",
          "midi": 70,
          "time": 6.3871005,
          "velocity": 0.7874015748031497,
          "duration": 0.19354850000000035
        },
        {
          "name": "A#4",
          "midi": 70,
          "time": 6.580649,
          "velocity": 0.7874015748031497,
          "duration": 0.19354850000000035
        },
        {
          "name": "A#4",
          "midi": 70,
          "time": 6.7741975000000005,
          "velocity": 0.7874015748031497,
          "duration": 0.19354850000000035
        },
        {
          "name": "F5",
          "midi": 77,
          "time": 6.967746000000001,
          "velocity": 0.7874015748031497,
          "duration": 0.19354850000000035
        },
        {
          "name": "F5",
          "midi": 77,
          "time": 7.161294500000001,
          "velocity": 0.7874015748031497,
          "duration": 0.19354850000000035
        },
        {
          "name": "F5",
          "midi": 77,
          "time": 7.354843000000002,
          "velocity": 0.7874015748031497,
          "duration": 0.19354850000000035
        },
        {
          "name": "F5",
          "midi": 77,
          "time": 7.548391500000002,
          "velocity": 0.7874015748031497,
          "duration": 0.19354850000000035
        },
        {
          "name": "D#5",
          "midi": 75,
          "time": 7.741940000000002,
          "velocity": 0.7874015748031497,
          "duration": 0.19354850000000035
        },
        {
          "name": "D#5",
          "midi": 75,
          "time": 7.935488500000003,
          "velocity": 0.7874015748031497,
          "duration": 0.9677424999999991
        },
        {
          "name": "F5",
          "midi": 77,
          "time": 9.290328000000002,
          "velocity": 0.7874015748031497,
          "duration": 0.19354850000000035
        },
        {
          "name": "D#5",
          "midi": 75,
          "time": 9.677425000000003,
          "velocity": 0.7874015748031497,
          "duration": 0.19354850000000035
        },
        {
          "name": "C#5",
          "midi": 73,
          "time": 10.064522000000004,
          "velocity": 0.7874015748031497,
          "duration": 0.19354850000000035
        },
        {
          "name": "F5",
          "midi": 77,
          "time": 10.258070500000004,
          "velocity": 0.7874015748031497,
          "duration": 0.09677424999999928
        },
        {
          "name": "F5",
          "midi": 77,
          "time": 10.451619000000003,
          "velocity": 0.7874015748031497,
          "duration": 0.09677424999999928
        },
        {
          "name": "F5",
          "midi": 77,
          "time": 10.645167500000001,
          "velocity": 0.7874015748031497,
          "duration": 0.09677424999999928
        },
        {
          "name": "F5",
          "midi": 77,
          "time": 10.838716,
          "velocity": 0.7874015748031497,
          "duration": 0.19354850000000035
        },
        {
          "name": "D#5",
          "midi": 75,
          "time": 11.225813,
          "velocity": 0.7874015748031497,
          "duration": 0.19354850000000035
        },
        {
          "name": "C#5",
          "midi": 73,
          "time": 11.612910000000001,
          "velocity": 0.7874015748031497,
          "duration": 0.19354850000000035
        },
        {
          "name": "G#5",
          "midi": 80,
          "time": 12.000007000000002,
          "velocity": 0.7874015748031497,
          "duration": 0.19354850000000035
        },
        {
          "name": "F5",
          "midi": 77,
          "time": 12.387104000000003,
          "velocity": 0.7874015748031497,
          "duration": 0.19354850000000035
        },
        {
          "name": "A#4",
          "midi": 70,
          "time": 12.774201000000003,
          "velocity": 0.7874015748031497,
          "duration": 0.19354850000000035
        },
        {
          "name": "A#4",
          "midi": 70,
          "time": 12.967749500000004,
          "velocity": 0.7874015748031497,
          "duration": 0.19354850000000035
        },
        {
          "name": "F5",
          "midi": 77,
          "time": 13.161298000000004,
          "velocity": 0.7874015748031497,
          "duration": 0.19354850000000035
        },
        {
          "name": "F5",
          "midi": 77,
          "time": 13.354846500000004,
          "velocity": 0.7874015748031497,
          "duration": 0.19354850000000035
        },
        {
          "name": "F5",
          "midi": 77,
          "time": 13.548395000000005,
          "velocity": 0.7874015748031497,
          "duration": 0.19354850000000035
        },
        {
          "name": "F5",
          "midi": 77,
          "time": 13.741943500000005,
          "velocity": 0.7874015748031497,
          "duration": 0.19354850000000035
        },
        {
          "name": "D#5",
          "midi": 75,
          "time": 13.935492000000005,
          "velocity": 0.7874015748031497,
          "duration": 0.19354850000000035
        },
        {
          "name": "D#5",
          "midi": 75,
          "time": 14.129040500000006,
          "velocity": 0.7874015748031497,
          "duration": 0.9677425
        },
        {
          "name": "D#5",
          "midi": 75,
          "time": 15.677428500000005,
          "velocity": 0.7874015748031497,
          "duration": 0.19354850000000035
        },
        {
          "name": "D#5",
          "midi": 75,
          "time": 15.870977000000005,
          "velocity": 0.7874015748031497,
          "duration": 0.19354850000000035
        },
        {
          "name": "D#5",
          "midi": 75,
          "time": 16.064525500000006,
          "velocity": 0.7874015748031497,
          "duration": 0.19354849999999857
        },
        {
          "name": "D#5",
          "midi": 75,
          "time": 16.258074000000004,
          "velocity": 0.7874015748031497,
          "duration": 0.19354849999999857
        },
        {
          "name": "D#5",
          "midi": 75,
          "time": 16.451622500000003,
          "velocity": 0.7874015748031497,
          "duration": 0.19354849999999857
        },
        {
          "name": "D#5",
          "midi": 75,
          "time": 16.645171,
          "velocity": 0.7874015748031497,
          "duration": 0.19354849999999857
        },
        {
          "name": "D#5",
          "midi": 75,
          "time": 16.8387195,
          "velocity": 0.7874015748031497,
          "duration": 0.19354849999999857
        },
        {
          "name": "C#5",
          "midi": 73,
          "time": 17.032268,
          "velocity": 0.7874015748031497,
          "duration": 0.19354849999999857
        },
        {
          "name": "C#5",
          "midi": 73,
          "time": 17.225816499999997,
          "velocity": 0.7874015748031497,
          "duration": 0.7741940000000014
        },
        {
          "name": "A#4",
          "midi": 70,
          "time": 18.0000105,
          "velocity": 0.7874015748031497,
          "duration": 0.2903227500000014
        },
        {
          "name": "A#4",
          "midi": 70,
          "time": 18.7742045,
          "velocity": 0.7874015748031497,
          "duration": 0.19354849999999857
        },
        {
          "name": "A#4",
          "midi": 70,
          "time": 18.967753,
          "velocity": 0.7874015748031497,
          "duration": 0.19354849999999857
        },
        {
          "name": "A#4",
          "midi": 70,
          "time": 19.161301499999997,
          "velocity": 0.7874015748031497,
          "duration": 0.19354849999999857
        },
        {
          "name": "F5",
          "midi": 77,
          "time": 19.354849999999995,
          "velocity": 0.7874015748031497,
          "duration": 0.19354849999999857
        },
        {
          "name": "F5",
          "midi": 77,
          "time": 19.548398499999994,
          "velocity": 0.7874015748031497,
          "duration": 0.19354849999999857
        },
        {
          "name": "F5",
          "midi": 77,
          "time": 19.741946999999993,
          "velocity": 0.7874015748031497,
          "duration": 0.19354849999999857
        },
        {
          "name": "F5",
          "midi": 77,
          "time": 19.93549549999999,
          "velocity": 0.7874015748031497,
          "duration": 0.19354849999999857
        },
        {
          "name": "D#5",
          "midi": 75,
          "time": 20.12904399999999,
          "velocity": 0.7874015748031497,
          "duration": 0.19354849999999857
        },
        {
          "name": "D#5",
          "midi": 75,
          "time": 20.32259249999999,
          "velocity": 0.7874015748031497,
          "duration": 0.9677425
        },
        {
          "name": "F6",
          "midi": 89,
          "time": 21.67743199999999,
          "velocity": 0.7874015748031497,
          "duration": 0.19354849999999857
        },
        {
          "name": "D#6",
          "midi": 87,
          "time": 21.870980499999988,
          "velocity": 0.7874015748031497,
          "duration": 0.19354849999999857
        },
        {
          "name": "C#6",
          "midi": 85,
          "time": 22.064528999999986,
          "velocity": 0.7874015748031497,
          "duration": 0.19354849999999857
        },
        {
          "name": "C#6",
          "midi": 85,
          "time": 22.258077499999985,
          "velocity": 0.7874015748031497,
          "duration": 0.19354849999999857
        },
        {
          "name": "F6",
          "midi": 89,
          "time": 22.838722999999984,
          "velocity": 0.7874015748031497,
          "duration": 0.19354849999999857
        },
        {
          "name": "D#6",
          "midi": 87,
          "time": 23.032271499999982,
          "velocity": 0.7874015748031497,
          "duration": 0.19354849999999857
        },
        {
          "name": "C#6",
          "midi": 85,
          "time": 23.22581999999998,
          "velocity": 0.7874015748031497,
          "duration": 0.19354849999999857
        },
        {
          "name": "C#6",
          "midi": 85,
          "time": 23.41936849999998,
          "velocity": 0.7874015748031497,
          "duration": 0.19354849999999857
        },
        {
          "name": "C#5",
          "midi": 73,
          "time": 23.612916999999978,
          "velocity": 0.7874015748031497,
          "duration": 0.19354849999999857
        },
        {
          "name": "C#6",
          "midi": 85,
          "time": 23.612916999999978,
          "velocity": 0.7874015748031497,
          "duration": 0.19354849999999857
        },
        {
          "name": "C#6",
          "midi": 85,
          "time": 24.000013999999975,
          "velocity": 0.7874015748031497,
          "duration": 0.19354849999999857
        },
        {
          "name": "C#5",
          "midi": 73,
          "time": 24.000013999999975,
          "velocity": 0.7874015748031497,
          "duration": 0.19354849999999857
        },
        {
          "name": "A#6",
          "midi": 94,
          "time": 24.387110999999972,
          "velocity": 0.7874015748031497,
          "duration": 0.19354849999999857
        },
        {
          "name": "A#4",
          "midi": 70,
          "time": 24.77420799999997,
          "velocity": 0.7874015748031497,
          "duration": 0.19354849999999857
        },
        {
          "name": "A#5",
          "midi": 82,
          "time": 24.77420799999997,
          "velocity": 0.7874015748031497,
          "duration": 0.19354849999999857
        },
        {
          "name": "A#4",
          "midi": 70,
          "time": 25.161304999999967,
          "velocity": 0.7874015748031497,
          "duration": 0.19354849999999857
        },
        {
          "name": "A#5",
          "midi": 82,
          "time": 25.161304999999967,
          "velocity": 0.7874015748031497,
          "duration": 0.19354849999999857
        },
        {
          "name": "A#4",
          "midi": 70,
          "time": 25.548401999999964,
          "velocity": 0.7874015748031497,
          "duration": 0.19354849999999857
        },
        {
          "name": "A#5",
          "midi": 82,
          "time": 25.548401999999964,
          "velocity": 0.7874015748031497,
          "duration": 0.19354849999999857
        },
        {
          "name": "A#4",
          "midi": 70,
          "time": 25.93549899999996,
          "velocity": 0.7874015748031497,
          "duration": 0.19354849999999857
        },
        {
          "name": "A#5",
          "midi": 82,
          "time": 25.93549899999996,
          "velocity": 0.7874015748031497,
          "duration": 0.19354849999999857
        },
        {
          "name": "G#4",
          "midi": 68,
          "time": 26.12904749999996,
          "velocity": 0.7874015748031497,
          "duration": 0.19354849999999857
        },
        {
          "name": "G#5",
          "midi": 80,
          "time": 26.12904749999996,
          "velocity": 0.7874015748031497,
          "duration": 0.19354849999999857
        },
        {
          "name": "A#4",
          "midi": 70,
          "time": 26.322595999999958,
          "velocity": 0.7874015748031497,
          "duration": 0.19354849999999857
        },
        {
          "name": "A#5",
          "midi": 82,
          "time": 26.322595999999958,
          "velocity": 0.7874015748031497,
          "duration": 0.19354849999999857
        },
        {
          "name": "G#4",
          "midi": 68,
          "time": 26.520176760416625,
          "velocity": 0.7874015748031497,
          "duration": 0.19354849999999857
        },
        {
          "name": "G#5",
          "midi": 80,
          "time": 26.520176760416625,
          "velocity": 0.7874015748031497,
          "duration": 0.19354849999999857
        },
        {
          "name": "A#4",
          "midi": 70,
          "time": 26.721789781249957,
          "velocity": 0.7874015748031497,
          "duration": 0.19354850000000212
        },
        {
          "name": "A#5",
          "midi": 82,
          "time": 26.721789781249957,
          "velocity": 0.7874015748031497,
          "duration": 0.19354850000000212
        },
        {
          "name": "F5",
          "midi": 77,
          "time": 26.903241499999957,
          "velocity": 0.7874015748031497,
          "duration": 0.19354850000000212
        },
        {
          "name": "F6",
          "midi": 89,
          "time": 26.903241499999957,
          "velocity": 0.7874015748031497,
          "duration": 0.19354850000000212
        },
        {
          "name": "C#5",
          "midi": 73,
          "time": 27.290338499999958,
          "velocity": 0.7874015748031497,
          "duration": 0.19354849999999857
        },
        {
          "name": "C#6",
          "midi": 85,
          "time": 27.290338499999958,
          "velocity": 0.7874015748031497,
          "duration": 0.19354849999999857
        },
        {
          "name": "F5",
          "midi": 77,
          "time": 27.483886999999957,
          "velocity": 0.7874015748031497,
          "duration": 0.19354849999999857
        },
        {
          "name": "F6",
          "midi": 89,
          "time": 27.483886999999957,
          "velocity": 0.7874015748031497,
          "duration": 0.19354849999999857
        },
        {
          "name": "A#4",
          "midi": 70,
          "time": 27.870983999999954,
          "velocity": 0.7874015748031497,
          "duration": 0.19354849999999857
        },
        {
          "name": "A#5",
          "midi": 82,
          "time": 27.870983999999954,
          "velocity": 0.7874015748031497,
          "duration": 0.19354849999999857
        },
        {
          "name": "A#4",
          "midi": 70,
          "time": 28.25808099999995,
          "velocity": 0.7874015748031497,
          "duration": 0.19354849999999857
        },
        {
          "name": "A#5",
          "midi": 82,
          "time": 28.25808099999995,
          "velocity": 0.7874015748031497,
          "duration": 0.19354849999999857
        },
        {
          "name": "A#4",
          "midi": 70,
          "time": 28.645177999999948,
          "velocity": 0.7874015748031497,
          "duration": 0.19354849999999857
        },
        {
          "name": "A#5",
          "midi": 82,
          "time": 28.645177999999948,
          "velocity": 0.7874015748031497,
          "duration": 0.19354849999999857
        },
        {
          "name": "G#4",
          "midi": 68,
          "time": 29.032274999999945,
          "velocity": 0.7874015748031497,
          "duration": 0.19354849999999857
        },
        {
          "name": "G#5",
          "midi": 80,
          "time": 29.032274999999945,
          "velocity": 0.7874015748031497,
          "duration": 0.19354849999999857
        },
        {
          "name": "A#4",
          "midi": 70,
          "time": 29.225823499999944,
          "velocity": 0.7874015748031497,
          "duration": 0.19354849999999857
        },
        {
          "name": "A#5",
          "midi": 82,
          "time": 29.225823499999944,
          "velocity": 0.7874015748031497,
          "duration": 0.19354849999999857
        },
        {
          "name": "G#4",
          "midi": 68,
          "time": 29.419371999999942,
          "velocity": 0.7874015748031497,
          "duration": 0.19354849999999857
        },
        {
          "name": "G#5",
          "midi": 80,
          "time": 29.419371999999942,
          "velocity": 0.7874015748031497,
          "duration": 0.19354849999999857
        },
        {
          "name": "A#4",
          "midi": 70,
          "time": 29.61292049999994,
          "velocity": 0.7874015748031497,
          "duration": 0.19354849999999857
        },
        {
          "name": "A#5",
          "midi": 82,
          "time": 29.61292049999994,
          "velocity": 0.7874015748031497,
          "duration": 0.19354849999999857
        },
        {
          "name": "F4",
          "midi": 65,
          "time": 29.80646899999994,
          "velocity": 0.7874015748031497,
          "duration": 0.19354849999999857
        },
        {
          "name": "F5",
          "midi": 77,
          "time": 29.80646899999994,
          "velocity": 0.7874015748031497,
          "duration": 0.19354849999999857
        },
        {
          "name": "D#4",
          "midi": 63,
          "time": 30.193565999999937,
          "velocity": 0.7874015748031497,
          "duration": 0.19354849999999857
        },
        {
          "name": "D#5",
          "midi": 75,
          "time": 30.193565999999937,
          "velocity": 0.7874015748031497,
          "duration": 0.19354849999999857
        },
        {
          "name": "C#5",
          "midi": 73,
          "time": 30.580662999999934,
          "velocity": 0.7874015748031497,
          "duration": 0.19354849999999857
        },
        {
          "name": "C#6",
          "midi": 85,
          "time": 30.580662999999934,
          "velocity": 0.7874015748031497,
          "duration": 0.19354849999999857
        },
        {
          "name": "A#5",
          "midi": 82,
          "time": 30.96775999999993,
          "velocity": 0.7874015748031497,
          "duration": 0.19354849999999857
        },
        {
          "name": "A#4",
          "midi": 70,
          "time": 30.96775999999993,
          "velocity": 0.7874015748031497,
          "duration": 0.19354849999999857
        },
        {
          "name": "A#5",
          "midi": 82,
          "time": 31.354856999999928,
          "velocity": 0.7874015748031497,
          "duration": 0.19354849999999857
        },
        {
          "name": "A#4",
          "midi": 70,
          "time": 31.354856999999928,
          "velocity": 0.7874015748031497,
          "duration": 0.19354849999999857
        },
        {
          "name": "A#5",
          "midi": 82,
          "time": 31.741953999999925,
          "velocity": 0.7874015748031497,
          "duration": 0.19354849999999857
        },
        {
          "name": "A#4",
          "midi": 70,
          "time": 31.741953999999925,
          "velocity": 0.7874015748031497,
          "duration": 0.19354849999999857
        },
        {
          "name": "G#4",
          "midi": 68,
          "time": 32.129050999999926,
          "velocity": 0.7874015748031497,
          "duration": 0.19354849999999857
        },
        {
          "name": "G#5",
          "midi": 80,
          "time": 32.129050999999926,
          "velocity": 0.7874015748031497,
          "duration": 0.19354849999999857
        },
        {
          "name": "A#4",
          "midi": 70,
          "time": 32.322599499999924,
          "velocity": 0.7874015748031497,
          "duration": 0.19354849999999857
        },
        {
          "name": "A#5",
          "midi": 82,
          "time": 32.322599499999924,
          "velocity": 0.7874015748031497,
          "duration": 0.19354849999999857
        },
        {
          "name": "G#5",
          "midi": 80,
          "time": 32.51614799999992,
          "velocity": 0.7874015748031497,
          "duration": 0.19354849999999857
        },
        {
          "name": "G#4",
          "midi": 68,
          "time": 32.51614799999992,
          "velocity": 0.7874015748031497,
          "duration": 0.19354849999999857
        },
        {
          "name": "A#4",
          "midi": 70,
          "time": 32.70969649999992,
          "velocity": 0.7874015748031497,
          "duration": 0.19354849999999857
        },
        {
          "name": "A#5",
          "midi": 82,
          "time": 32.70969649999992,
          "velocity": 0.7874015748031497,
          "duration": 0.19354849999999857
        },
        {
          "name": "G#4",
          "midi": 68,
          "time": 32.90324499999992,
          "velocity": 0.7874015748031497,
          "duration": 0.19354849999999857
        },
        {
          "name": "G#5",
          "midi": 80,
          "time": 32.90324499999992,
          "velocity": 0.7874015748031497,
          "duration": 0.19354849999999857
        },
        {
          "name": "F6",
          "midi": 89,
          "time": 33.09679349999992,
          "velocity": 0.7874015748031497,
          "duration": 0.19354849999999857
        },
        {
          "name": "F5",
          "midi": 77,
          "time": 33.09679349999992,
          "velocity": 0.7874015748031497,
          "duration": 0.19354849999999857
        },
        {
          "name": "C#6",
          "midi": 85,
          "time": 33.483890499999916,
          "velocity": 0.7874015748031497,
          "duration": 0.19354849999999857
        },
        {
          "name": "C#5",
          "midi": 73,
          "time": 33.483890499999916,
          "velocity": 0.7874015748031497,
          "duration": 0.19354849999999857
        },
        {
          "name": "F5",
          "midi": 77,
          "time": 33.677438999999914,
          "velocity": 0.7874015748031497,
          "duration": 0.19354849999999857
        },
        {
          "name": "F6",
          "midi": 89,
          "time": 33.677438999999914,
          "velocity": 0.7874015748031497,
          "duration": 0.19354849999999857
        },
        {
          "name": "A#5",
          "midi": 82,
          "time": 34.06453599999991,
          "velocity": 0.7874015748031497,
          "duration": 0.19354849999999857
        },
        {
          "name": "C#6",
          "midi": 85,
          "time": 34.45163299999991,
          "velocity": 0.7874015748031497,
          "duration": 0.19354849999999857
        },
        {
          "name": "A#5",
          "midi": 82,
          "time": 34.838729999999906,
          "velocity": 0.7874015748031497,
          "duration": 0.19354849999999857
        },
        {
          "name": "F5",
          "midi": 77,
          "time": 35.2258269999999,
          "velocity": 0.7874015748031497,
          "duration": 0.19354849999999857
        },
        {
          "name": "A#5",
          "midi": 82,
          "time": 35.4193754999999,
          "velocity": 0.7874015748031497,
          "duration": 0.19354849999999857
        },
        {
          "name": "F5",
          "midi": 77,
          "time": 35.6129239999999,
          "velocity": 0.7874015748031497,
          "duration": 0.19354849999999857
        },
        {
          "name": "D#5",
          "midi": 75,
          "time": 35.8064724999999,
          "velocity": 0.7874015748031497,
          "duration": 0.19354849999999857
        },
        {
          "name": "C#5",
          "midi": 73,
          "time": 36.0000209999999,
          "velocity": 0.7874015748031497,
          "duration": 0.38709699999999714
        },
        {
          "name": "A#4",
          "midi": 70,
          "time": 36.387117999999894,
          "velocity": 0.7874015748031497,
          "duration": 0.38709699999999714
        },
        {
          "name": "A#4",
          "midi": 70,
          "time": 36.77421499999989,
          "velocity": 0.7874015748031497,
          "duration": 0.38709699999999714
        },
        {
          "name": "A#4",
          "midi": 70,
          "time": 37.548408999999886,
          "velocity": 0.7874015748031497,
          "duration": 0.19354849999999857
        },
        {
          "name": "A#4",
          "midi": 70,
          "time": 37.741957499999884,
          "velocity": 0.7874015748031497,
          "duration": 0.19354849999999857
        },
        {
          "name": "A#4",
          "midi": 70,
          "time": 37.93550599999988,
          "velocity": 0.7874015748031497,
          "duration": 0.19354849999999857
        },
        {
          "name": "A#4",
          "midi": 70,
          "time": 38.12905449999988,
          "velocity": 0.7874015748031497,
          "duration": 0.19354849999999857
        },
        {
          "name": "A#4",
          "midi": 70,
          "time": 38.32260299999988,
          "velocity": 0.7874015748031497,
          "duration": 0.19354849999999857
        },
        {
          "name": "A#4",
          "midi": 70,
          "time": 38.51615149999988,
          "velocity": 0.7874015748031497,
          "duration": 0.19354849999999857
        },
        {
          "name": "G#4",
          "midi": 68,
          "time": 38.70969999999988,
          "velocity": 0.7874015748031497,
          "duration": 0.19354849999999857
        },
        {
          "name": "G#4",
          "midi": 68,
          "time": 38.903248499999876,
          "velocity": 0.7874015748031497,
          "duration": 0.5806455000000028
        },
        {
          "name": "C5",
          "midi": 72,
          "time": 40.64518499999988,
          "velocity": 0.7874015748031497,
          "duration": 0.19354849999999857
        },
        {
          "name": "C5",
          "midi": 72,
          "time": 40.838733499999876,
          "velocity": 0.7874015748031497,
          "duration": 0.19354849999999857
        },
        {
          "name": "C5",
          "midi": 72,
          "time": 41.032281999999874,
          "velocity": 0.7874015748031497,
          "duration": 0.19354849999999857
        },
        {
          "name": "C5",
          "midi": 72,
          "time": 41.22583049999987,
          "velocity": 0.7874015748031497,
          "duration": 0.19354849999999857
        },
        {
          "name": "C5",
          "midi": 72,
          "time": 41.41937899999987,
          "velocity": 0.7874015748031497,
          "duration": 0.19354849999999857
        },
        {
          "name": "C5",
          "midi": 72,
          "time": 41.61292749999987,
          "velocity": 0.7874015748031497,
          "duration": 0.19354849999999857
        },
        {
          "name": "A#4",
          "midi": 70,
          "time": 41.80647599999987,
          "velocity": 0.7874015748031497,
          "duration": 0.19354849999999857
        },
        {
          "name": "A#4",
          "midi": 70,
          "time": 42.00002449999987,
          "velocity": 0.7874015748031497,
          "duration": 0.5806455000000028
        },
        {
          "name": "G#4",
          "midi": 68,
          "time": 42.77421849999987,
          "velocity": 0.7874015748031497,
          "duration": 0.19354849999999857
        },
        {
          "name": "A#4",
          "midi": 70,
          "time": 42.96776699999987,
          "velocity": 0.7874015748031497,
          "duration": 0.19354849999999857
        },
        {
          "name": "C#5",
          "midi": 73,
          "time": 43.161315499999866,
          "velocity": 0.7874015748031497,
          "duration": 0.19354849999999857
        },
        {
          "name": "A#4",
          "midi": 70,
          "time": 43.74196099999986,
          "velocity": 0.7874015748031497,
          "duration": 0.19354849999999857
        },
        {
          "name": "A#4",
          "midi": 70,
          "time": 43.93550949999986,
          "velocity": 0.7874015748031497,
          "duration": 0.19354849999999857
        },
        {
          "name": "A#4",
          "midi": 70,
          "time": 44.12905799999986,
          "velocity": 0.7874015748031497,
          "duration": 0.19354849999999857
        },
        {
          "name": "A#4",
          "midi": 70,
          "time": 44.32260649999986,
          "velocity": 0.7874015748031497,
          "duration": 0.19354849999999857
        },
        {
          "name": "A#4",
          "midi": 70,
          "time": 44.516154999999856,
          "velocity": 0.7874015748031497,
          "duration": 0.19354849999999857
        },
        {
          "name": "A#4",
          "midi": 70,
          "time": 44.709703499999854,
          "velocity": 0.7874015748031497,
          "duration": 0.19354849999999857
        },
        {
          "name": "G#4",
          "midi": 68,
          "time": 44.90325199999985,
          "velocity": 0.7874015748031497,
          "duration": 0.19354849999999857
        },
        {
          "name": "G#4",
          "midi": 68,
          "time": 45.09680049999985,
          "velocity": 0.7874015748031497,
          "duration": 0.5806455000000028
        },
        {
          "name": "D#5",
          "midi": 75,
          "time": 45.677445999999854,
          "velocity": 0.7874015748031497,
          "duration": 0.19354849999999857
        },
        {
          "name": "D#5",
          "midi": 75,
          "time": 45.87099449999985,
          "velocity": 0.7874015748031497,
          "duration": 0.19354849999999857
        },
        {
          "name": "D#5",
          "midi": 75,
          "time": 46.06454299999985,
          "velocity": 0.7874015748031497,
          "duration": 0.19354849999999857
        },
        {
          "name": "D#5",
          "midi": 75,
          "time": 46.25809149999985,
          "velocity": 0.7874015748031497,
          "duration": 0.19354849999999857
        },
        {
          "name": "F5",
          "midi": 77,
          "time": 46.45163999999985,
          "velocity": 0.7874015748031497,
          "duration": 0.38709699999999714
        },
        {
          "name": "A#4",
          "midi": 70,
          "time": 46.838736999999846,
          "velocity": 0.7874015748031497,
          "duration": 0.38709699999999714
        },
        {
          "name": "D#5",
          "midi": 75,
          "time": 47.22583399999984,
          "velocity": 0.7874015748031497,
          "duration": 0.19354849999999857
        },
        {
          "name": "D#5",
          "midi": 75,
          "time": 47.41938249999984,
          "velocity": 0.7874015748031497,
          "duration": 0.19354849999999857
        },
        {
          "name": "D#5",
          "midi": 75,
          "time": 47.61293099999984,
          "velocity": 0.7874015748031497,
          "duration": 0.19354849999999857
        },
        {
          "name": "D#5",
          "midi": 75,
          "time": 47.80647949999984,
          "velocity": 0.7874015748031497,
          "duration": 0.19354849999999857
        },
        {
          "name": "F5",
          "midi": 77,
          "time": 48.00002799999984,
          "velocity": 0.7874015748031497,
          "duration": 0.38709699999999714
        },
        {
          "name": "A#4",
          "midi": 70,
          "time": 48.387124999999834,
          "velocity": 0.7874015748031497,
          "duration": 0.38709699999999714
        },
        {
          "name": "C#5",
          "midi": 73,
          "time": 48.77422199999983,
          "velocity": 0.7874015748031497,
          "duration": 0.19354849999999857
        },
        {
          "name": "D#5",
          "midi": 75,
          "time": 48.96777049999983,
          "velocity": 0.7874015748031497,
          "duration": 0.19354849999999857
        },
        {
          "name": "C#5",
          "midi": 73,
          "time": 49.16131899999983,
          "velocity": 0.7874015748031497,
          "duration": 0.19354849999999857
        },
        {
          "name": "F5",
          "midi": 77,
          "time": 49.35486749999983,
          "velocity": 0.7874015748031497,
          "duration": 0.5806455000000028
        },
        {
          "name": "C#5",
          "midi": 73,
          "time": 50.70970699999983,
          "velocity": 0.7874015748031497,
          "duration": 0.19354849999999857
        },
        {
          "name": "D#5",
          "midi": 75,
          "time": 50.90325549999983,
          "velocity": 0.7874015748031497,
          "duration": 0.38709699999999714
        },
        {
          "name": "F5",
          "midi": 77,
          "time": 51.29035249999983,
          "velocity": 0.7874015748031497,
          "duration": 0.38709699999999714
        },
        {
          "name": "C#5",
          "midi": 73,
          "time": 51.87099799999982,
          "velocity": 0.7874015748031497,
          "duration": 0.19354849999999857
        },
        {
          "name": "D#5",
          "midi": 75,
          "time": 52.06454649999982,
          "velocity": 0.7874015748031497,
          "duration": 0.19354849999999857
        },
        {
          "name": "C#5",
          "midi": 73,
          "time": 52.25809499999982,
          "velocity": 0.7874015748031497,
          "duration": 0.19354849999999857
        },
        {
          "name": "D#5",
          "midi": 75,
          "time": 52.45164349999982,
          "velocity": 0.7874015748031497,
          "duration": 0.19354849999999857
        },
        {
          "name": "F5",
          "midi": 77,
          "time": 52.64519199999982,
          "velocity": 0.7874015748031497,
          "duration": 0.38709699999999714
        },
        {
          "name": "D#5",
          "midi": 75,
          "time": 53.032288999999814,
          "velocity": 0.7874015748031497,
          "duration": 0.38709699999999714
        },
        {
          "name": "C#5",
          "midi": 73,
          "time": 53.41938599999981,
          "velocity": 0.7874015748031497,
          "duration": 0.38709699999999714
        },
        {
          "name": "G#5",
          "midi": 80,
          "time": 53.80648299999981,
          "velocity": 0.7874015748031497,
          "duration": 0.19354849999999857
        },
        {
          "name": "F5",
          "midi": 77,
          "time": 54.00003149999981,
          "velocity": 0.7874015748031497,
          "duration": 0.6774197499999985
        },
        {
          "name": "C#5",
          "midi": 73,
          "time": 54.96777399999981,
          "velocity": 0.7874015748031497,
          "duration": 0.19354849999999857
        },
        {
          "name": "D#5",
          "midi": 75,
          "time": 55.161322499999805,
          "velocity": 0.7874015748031497,
          "duration": 0.19354849999999857
        },
        {
          "name": "C#5",
          "midi": 73,
          "time": 55.354870999999804,
          "velocity": 0.7874015748031497,
          "duration": 0.19354849999999857
        },
        {
          "name": "F5",
          "midi": 77,
          "time": 55.5484194999998,
          "velocity": 0.7874015748031497,
          "duration": 0.38709699999999714
        },
        {
          "name": "F5",
          "midi": 77,
          "time": 55.9355164999998,
          "velocity": 0.7874015748031497,
          "duration": 0.38709699999999714
        },
        {
          "name": "F6",
          "midi": 89,
          "time": 56.3226134999998,
          "velocity": 0.7874015748031497,
          "duration": 0.38709699999999714
        },
        {
          "name": "F6",
          "midi": 89,
          "time": 56.709710499999794,
          "velocity": 0.7874015748031497,
          "duration": 0.38709699999999714
        },
        {
          "name": "F5",
          "midi": 77,
          "time": 57.09680749999979,
          "velocity": 0.7874015748031497,
          "duration": 0.38709699999999714
        },
        {
          "name": "F5",
          "midi": 77,
          "time": 57.48390449999979,
          "velocity": 0.7874015748031497,
          "duration": 0.38709699999999714
        },
        {
          "name": "F6",
          "midi": 89,
          "time": 57.871001499999785,
          "velocity": 0.7874015748031497,
          "duration": 0.38709699999999714
        },
        {
          "name": "F6",
          "midi": 89,
          "time": 58.25809849999978,
          "velocity": 0.7874015748031497,
          "duration": 0.38709699999999714
        },
        {
          "name": "F5",
          "midi": 77,
          "time": 58.64519549999978,
          "velocity": 0.7874015748031497,
          "duration": 0.19354849999999857
        },
        {
          "name": "F5",
          "midi": 77,
          "time": 58.83874399999978,
          "velocity": 0.7874015748031497,
          "duration": 0.38709699999999714
        },
        {
          "name": "A#4",
          "midi": 70,
          "time": 59.225840999999775,
          "velocity": 0.7874015748031497,
          "duration": 0.38709699999999714
        },
        {
          "name": "A#4",
          "midi": 70,
          "time": 59.61293799999977,
          "velocity": 0.7874015748031497,
          "duration": 0.38709699999999714
        },
        {
          "name": "F5",
          "midi": 77,
          "time": 60.00003499999977,
          "velocity": 0.7874015748031497,
          "duration": 0.19354849999999857
        },
        {
          "name": "F5",
          "midi": 77,
          "time": 60.19358349999977,
          "velocity": 0.7874015748031497,
          "duration": 0.19354849999999857
        },
        {
          "name": "F5",
          "midi": 77,
          "time": 60.38713199999977,
          "velocity": 0.7874015748031497,
          "duration": 0.38709699999999714
        },
        {
          "name": "A#4",
          "midi": 70,
          "time": 60.774228999999764,
          "velocity": 0.7874015748031497,
          "duration": 0.38709699999999714
        },
        {
          "name": "A#4",
          "midi": 70,
          "time": 61.16132599999976,
          "velocity": 0.7874015748031497,
          "duration": 0.38709699999999714
        },
        {
          "name": "A#5",
          "midi": 82,
          "time": 61.54842299999976,
          "velocity": 0.7874015748031497,
          "duration": 0.19354849999999857
        },
        {
          "name": "A#5",
          "midi": 82,
          "time": 61.935519999999755,
          "velocity": 0.7874015748031497,
          "duration": 0.19354849999999857
        },
        {
          "name": "A#4",
          "midi": 70,
          "time": 61.935519999999755,
          "velocity": 0.7874015748031497,
          "duration": 0.19354849999999857
        },
        {
          "name": "A#4",
          "midi": 70,
          "time": 62.32261699999975,
          "velocity": 0.7874015748031497,
          "duration": 0.19354849999999857
        },
        {
          "name": "A#5",
          "midi": 82,
          "time": 62.32261699999975,
          "velocity": 0.7874015748031497,
          "duration": 0.19354849999999857
        },
        {
          "name": "A#4",
          "midi": 70,
          "time": 62.70971399999975,
          "velocity": 0.7874015748031497,
          "duration": 0.19354849999999857
        },
        {
          "name": "A#5",
          "midi": 82,
          "time": 62.70971399999975,
          "velocity": 0.7874015748031497,
          "duration": 0.19354849999999857
        },
        {
          "name": "A#5",
          "midi": 82,
          "time": 63.09681099999975,
          "velocity": 0.7874015748031497,
          "duration": 0.19354849999999857
        },
        {
          "name": "A#4",
          "midi": 70,
          "time": 63.09681099999975,
          "velocity": 0.7874015748031497,
          "duration": 0.19354849999999857
        },
        {
          "name": "G#5",
          "midi": 80,
          "time": 63.290359499999745,
          "velocity": 0.7874015748031497,
          "duration": 0.19354849999999857
        },
        {
          "name": "G#4",
          "midi": 68,
          "time": 63.290359499999745,
          "velocity": 0.7874015748031497,
          "duration": 0.19354849999999857
        },
        {
          "name": "A#4",
          "midi": 70,
          "time": 63.483907999999744,
          "velocity": 0.7874015748031497,
          "duration": 0.19354849999999857
        },
        {
          "name": "A#5",
          "midi": 82,
          "time": 63.483907999999744,
          "velocity": 0.7874015748031497,
          "duration": 0.19354849999999857
        },
        {
          "name": "G#5",
          "midi": 80,
          "time": 63.68148876041641,
          "velocity": 0.7874015748031497,
          "duration": 0.19354849999999857
        },
        {
          "name": "G#4",
          "midi": 68,
          "time": 63.68148876041641,
          "velocity": 0.7874015748031497,
          "duration": 0.19354849999999857
        },
        {
          "name": "A#4",
          "midi": 70,
          "time": 63.88310178124974,
          "velocity": 0.7874015748031497,
          "duration": 0.19354849999999857
        },
        {
          "name": "A#5",
          "midi": 82,
          "time": 63.88310178124974,
          "velocity": 0.7874015748031497,
          "duration": 0.19354849999999857
        },
        {
          "name": "F5",
          "midi": 77,
          "time": 64.06455349999975,
          "velocity": 0.7874015748031497,
          "duration": 0.19354849999999146
        },
        {
          "name": "F6",
          "midi": 89,
          "time": 64.06455349999975,
          "velocity": 0.7874015748031497,
          "duration": 0.19354849999999146
        },
        {
          "name": "C#5",
          "midi": 73,
          "time": 64.45165049999974,
          "velocity": 0.7874015748031497,
          "duration": 0.19354850000000567
        },
        {
          "name": "C#6",
          "midi": 85,
          "time": 64.45165049999974,
          "velocity": 0.7874015748031497,
          "duration": 0.19354850000000567
        },
        {
          "name": "F5",
          "midi": 77,
          "time": 64.64519899999975,
          "velocity": 0.7874015748031497,
          "duration": 0.19354850000000567
        },
        {
          "name": "F6",
          "midi": 89,
          "time": 64.64519899999975,
          "velocity": 0.7874015748031497,
          "duration": 0.19354850000000567
        },
        {
          "name": "A#4",
          "midi": 70,
          "time": 65.03229599999976,
          "velocity": 0.7874015748031497,
          "duration": 0.19354850000000567
        },
        {
          "name": "A#5",
          "midi": 82,
          "time": 65.03229599999976,
          "velocity": 0.7874015748031497,
          "duration": 0.19354850000000567
        },
        {
          "name": "A#4",
          "midi": 70,
          "time": 65.41939299999977,
          "velocity": 0.7874015748031497,
          "duration": 0.19354850000000567
        },
        {
          "name": "A#5",
          "midi": 82,
          "time": 65.41939299999977,
          "velocity": 0.7874015748031497,
          "duration": 0.19354850000000567
        },
        {
          "name": "A#4",
          "midi": 70,
          "time": 65.80648999999978,
          "velocity": 0.7874015748031497,
          "duration": 0.19354850000000567
        },
        {
          "name": "A#5",
          "midi": 82,
          "time": 65.80648999999978,
          "velocity": 0.7874015748031497,
          "duration": 0.19354850000000567
        },
        {
          "name": "G#5",
          "midi": 80,
          "time": 66.1935869999998,
          "velocity": 0.7874015748031497,
          "duration": 0.19354850000000567
        },
        {
          "name": "G#4",
          "midi": 68,
          "time": 66.1935869999998,
          "velocity": 0.7874015748031497,
          "duration": 0.19354850000000567
        },
        {
          "name": "A#4",
          "midi": 70,
          "time": 66.3871354999998,
          "velocity": 0.7874015748031497,
          "duration": 0.19354850000000567
        },
        {
          "name": "A#5",
          "midi": 82,
          "time": 66.3871354999998,
          "velocity": 0.7874015748031497,
          "duration": 0.19354850000000567
        },
        {
          "name": "G#4",
          "midi": 68,
          "time": 66.5806839999998,
          "velocity": 0.7874015748031497,
          "duration": 0.19354850000000567
        },
        {
          "name": "G#5",
          "midi": 80,
          "time": 66.5806839999998,
          "velocity": 0.7874015748031497,
          "duration": 0.19354850000000567
        },
        {
          "name": "A#4",
          "midi": 70,
          "time": 66.77423249999981,
          "velocity": 0.7874015748031497,
          "duration": 0.19354850000000567
        },
        {
          "name": "A#5",
          "midi": 82,
          "time": 66.77423249999981,
          "velocity": 0.7874015748031497,
          "duration": 0.19354850000000567
        },
        {
          "name": "F4",
          "midi": 65,
          "time": 66.96778099999982,
          "velocity": 0.7874015748031497,
          "duration": 0.19354850000000567
        },
        {
          "name": "F5",
          "midi": 77,
          "time": 66.96778099999982,
          "velocity": 0.7874015748031497,
          "duration": 0.19354850000000567
        },
        {
          "name": "D#4",
          "midi": 63,
          "time": 67.35487799999983,
          "velocity": 0.7874015748031497,
          "duration": 0.19354850000000567
        },
        {
          "name": "D#5",
          "midi": 75,
          "time": 67.35487799999983,
          "velocity": 0.7874015748031497,
          "duration": 0.19354850000000567
        },
        {
          "name": "C#6",
          "midi": 85,
          "time": 67.74197499999984,
          "velocity": 0.7874015748031497,
          "duration": 0.19354850000000567
        },
        {
          "name": "C#5",
          "midi": 73,
          "time": 67.74197499999984,
          "velocity": 0.7874015748031497,
          "duration": 0.19354850000000567
        },
        {
          "name": "A#5",
          "midi": 82,
          "time": 68.12907199999985,
          "velocity": 0.7874015748031497,
          "duration": 0.19354850000000567
        },
        {
          "name": "A#4",
          "midi": 70,
          "time": 68.12907199999985,
          "velocity": 0.7874015748031497,
          "duration": 0.19354850000000567
        },
        {
          "name": "A#5",
          "midi": 82,
          "time": 68.51616899999986,
          "velocity": 0.7874015748031497,
          "duration": 0.19354850000000567
        },
        {
          "name": "A#4",
          "midi": 70,
          "time": 68.51616899999986,
          "velocity": 0.7874015748031497,
          "duration": 0.19354850000000567
        },
        {
          "name": "A#5",
          "midi": 82,
          "time": 68.90326599999987,
          "velocity": 0.7874015748031497,
          "duration": 0.19354850000000567
        },
        {
          "name": "A#4",
          "midi": 70,
          "time": 68.90326599999987,
          "velocity": 0.7874015748031497,
          "duration": 0.19354850000000567
        },
        {
          "name": "G#4",
          "midi": 68,
          "time": 69.29036299999989,
          "velocity": 0.7874015748031497,
          "duration": 0.19354850000000567
        },
        {
          "name": "G#5",
          "midi": 80,
          "time": 69.29036299999989,
          "velocity": 0.7874015748031497,
          "duration": 0.19354850000000567
        },
        {
          "name": "A#4",
          "midi": 70,
          "time": 69.48391149999989,
          "velocity": 0.7874015748031497,
          "duration": 0.19354850000000567
        },
        {
          "name": "A#5",
          "midi": 82,
          "time": 69.48391149999989,
          "velocity": 0.7874015748031497,
          "duration": 0.19354850000000567
        },
        {
          "name": "G#4",
          "midi": 68,
          "time": 69.6774599999999,
          "velocity": 0.7874015748031497,
          "duration": 0.19354850000000567
        },
        {
          "name": "G#5",
          "midi": 80,
          "time": 69.6774599999999,
          "velocity": 0.7874015748031497,
          "duration": 0.19354850000000567
        },
        {
          "name": "A#5",
          "midi": 82,
          "time": 69.8710084999999,
          "velocity": 0.7874015748031497,
          "duration": 0.19354850000000567
        },
        {
          "name": "A#4",
          "midi": 70,
          "time": 69.8710084999999,
          "velocity": 0.7874015748031497,
          "duration": 0.19354850000000567
        },
        {
          "name": "G#4",
          "midi": 68,
          "time": 70.06455699999991,
          "velocity": 0.7874015748031497,
          "duration": 0.19354850000000567
        },
        {
          "name": "G#5",
          "midi": 80,
          "time": 70.06455699999991,
          "velocity": 0.7874015748031497,
          "duration": 0.19354850000000567
        },
        {
          "name": "F6",
          "midi": 89,
          "time": 70.25810549999991,
          "velocity": 0.7874015748031497,
          "duration": 0.19354850000000567
        },
        {
          "name": "F5",
          "midi": 77,
          "time": 70.25810549999991,
          "velocity": 0.7874015748031497,
          "duration": 0.19354850000000567
        },
        {
          "name": "C#5",
          "midi": 73,
          "time": 70.64520249999993,
          "velocity": 0.7874015748031497,
          "duration": 0.19354850000000567
        },
        {
          "name": "C#6",
          "midi": 85,
          "time": 70.64520249999993,
          "velocity": 0.7874015748031497,
          "duration": 0.19354850000000567
        },
        {
          "name": "F6",
          "midi": 89,
          "time": 70.83875099999993,
          "velocity": 0.7874015748031497,
          "duration": 0.19354850000000567
        },
        {
          "name": "F5",
          "midi": 77,
          "time": 70.83875099999993,
          "velocity": 0.7874015748031497,
          "duration": 0.19354850000000567
        },
        {
          "name": "A#5",
          "midi": 82,
          "time": 71.22584799999994,
          "velocity": 0.7874015748031497,
          "duration": 0.19354850000000567
        },
        {
          "name": "C#6",
          "midi": 85,
          "time": 71.61294499999995,
          "velocity": 0.7874015748031497,
          "duration": 0.19354850000000567
        },
        {
          "name": "A#5",
          "midi": 82,
          "time": 72.00004199999997,
          "velocity": 0.7874015748031497,
          "duration": 0.19354850000000567
        },
        {
          "name": "F5",
          "midi": 77,
          "time": 72.38713899999998,
          "velocity": 0.7874015748031497,
          "duration": 0.19354850000000567
        },
        {
          "name": "A#5",
          "midi": 82,
          "time": 72.58068749999998,
          "velocity": 0.7874015748031497,
          "duration": 0.19354850000000567
        },
        {
          "name": "F5",
          "midi": 77,
          "time": 72.77423599999999,
          "velocity": 0.7874015748031497,
          "duration": 0.19354850000000567
        },
        {
          "name": "D#5",
          "midi": 75,
          "time": 72.9677845,
          "velocity": 0.7874015748031497,
          "duration": 0.19354850000000567
        },
        {
          "name": "C#5",
          "midi": 73,
          "time": 73.161333,
          "velocity": 0.7874015748031497,
          "duration": 0.38709699999999714
        },
        {
          "name": "A#4",
          "midi": 70,
          "time": 73.54843,
          "velocity": 0.7874015748031497,
          "duration": 0.38709699999999714
        },
        {
          "name": "A#4",
          "midi": 70,
          "time": 73.935527,
          "velocity": 0.7874015748031497,
          "duration": 0.38709699999999714
        },
        {
          "name": "A#4",
          "midi": 70,
          "time": 74.32262399999999,
          "velocity": 0.7874015748031497,
          "duration": 0.19354850000000567
        },
        {
          "name": "A#5",
          "midi": 82,
          "time": 74.32262399999999,
          "velocity": 0.7874015748031497,
          "duration": 0.19354850000000567
        },
        {
          "name": "A#4",
          "midi": 70,
          "time": 74.709721,
          "velocity": 0.7874015748031497,
          "duration": 0.19354850000000567
        },
        {
          "name": "A#5",
          "midi": 82,
          "time": 74.709721,
          "velocity": 0.7874015748031497,
          "duration": 0.19354850000000567
        },
        {
          "name": "A#4",
          "midi": 70,
          "time": 75.09681800000001,
          "velocity": 0.7874015748031497,
          "duration": 0.19354850000000567
        },
        {
          "name": "A#5",
          "midi": 82,
          "time": 75.09681800000001,
          "velocity": 0.7874015748031497,
          "duration": 0.19354850000000567
        },
        {
          "name": "A#5",
          "midi": 82,
          "time": 75.48391500000002,
          "velocity": 0.7874015748031497,
          "duration": 0.19354850000000567
        },
        {
          "name": "A#4",
          "midi": 70,
          "time": 75.48391500000002,
          "velocity": 0.7874015748031497,
          "duration": 0.19354850000000567
        },
        {
          "name": "G#5",
          "midi": 80,
          "time": 75.67746350000003,
          "velocity": 0.7874015748031497,
          "duration": 0.19354850000000567
        },
        {
          "name": "G#4",
          "midi": 68,
          "time": 75.67746350000003,
          "velocity": 0.7874015748031497,
          "duration": 0.19354850000000567
        },
        {
          "name": "A#5",
          "midi": 82,
          "time": 75.87101200000004,
          "velocity": 0.7874015748031497,
          "duration": 0.19354850000000567
        },
        {
          "name": "A#4",
          "midi": 70,
          "time": 75.87101200000004,
          "velocity": 0.7874015748031497,
          "duration": 0.19354850000000567
        },
        {
          "name": "G#5",
          "midi": 80,
          "time": 76.0685927604167,
          "velocity": 0.7874015748031497,
          "duration": 0.19354850000000567
        },
        {
          "name": "G#4",
          "midi": 68,
          "time": 76.0685927604167,
          "velocity": 0.7874015748031497,
          "duration": 0.19354850000000567
        },
        {
          "name": "A#5",
          "midi": 82,
          "time": 76.27020578125004,
          "velocity": 0.7874015748031497,
          "duration": 0.19354849999999146
        },
        {
          "name": "A#4",
          "midi": 70,
          "time": 76.27020578125004,
          "velocity": 0.7874015748031497,
          "duration": 0.19354849999999146
        },
        {
          "name": "F6",
          "midi": 89,
          "time": 76.45165750000004,
          "velocity": 0.7874015748031497,
          "duration": 0.19354849999999146
        },
        {
          "name": "F5",
          "midi": 77,
          "time": 76.45165750000004,
          "velocity": 0.7874015748031497,
          "duration": 0.19354849999999146
        },
        {
          "name": "C#5",
          "midi": 73,
          "time": 76.83875450000004,
          "velocity": 0.7874015748031497,
          "duration": 0.19354850000000567
        },
        {
          "name": "C#6",
          "midi": 85,
          "time": 76.83875450000004,
          "velocity": 0.7874015748031497,
          "duration": 0.19354850000000567
        },
        {
          "name": "F5",
          "midi": 77,
          "time": 77.03230300000004,
          "velocity": 0.7874015748031497,
          "duration": 0.19354850000000567
        },
        {
          "name": "F6",
          "midi": 89,
          "time": 77.03230300000004,
          "velocity": 0.7874015748031497,
          "duration": 0.19354850000000567
        },
        {
          "name": "A#4",
          "midi": 70,
          "time": 77.41940000000005,
          "velocity": 0.7874015748031497,
          "duration": 0.19354850000000567
        },
        {
          "name": "A#5",
          "midi": 82,
          "time": 77.41940000000005,
          "velocity": 0.7874015748031497,
          "duration": 0.19354850000000567
        },
        {
          "name": "A#4",
          "midi": 70,
          "time": 77.80649700000006,
          "velocity": 0.7874015748031497,
          "duration": 0.19354850000000567
        },
        {
          "name": "A#5",
          "midi": 82,
          "time": 77.80649700000006,
          "velocity": 0.7874015748031497,
          "duration": 0.19354850000000567
        },
        {
          "name": "A#4",
          "midi": 70,
          "time": 78.19359400000008,
          "velocity": 0.7874015748031497,
          "duration": 0.19354850000000567
        },
        {
          "name": "A#5",
          "midi": 82,
          "time": 78.19359400000008,
          "velocity": 0.7874015748031497,
          "duration": 0.19354850000000567
        },
        {
          "name": "G#5",
          "midi": 80,
          "time": 78.58069100000009,
          "velocity": 0.7874015748031497,
          "duration": 0.19354850000000567
        },
        {
          "name": "G#4",
          "midi": 68,
          "time": 78.58069100000009,
          "velocity": 0.7874015748031497,
          "duration": 0.19354850000000567
        },
        {
          "name": "A#5",
          "midi": 82,
          "time": 78.77423950000009,
          "velocity": 0.7874015748031497,
          "duration": 0.19354850000000567
        },
        {
          "name": "A#4",
          "midi": 70,
          "time": 78.77423950000009,
          "velocity": 0.7874015748031497,
          "duration": 0.19354850000000567
        },
        {
          "name": "G#5",
          "midi": 80,
          "time": 78.9677880000001,
          "velocity": 0.7874015748031497,
          "duration": 0.19354850000000567
        },
        {
          "name": "G#4",
          "midi": 68,
          "time": 78.9677880000001,
          "velocity": 0.7874015748031497,
          "duration": 0.19354850000000567
        },
        {
          "name": "A#5",
          "midi": 82,
          "time": 79.1613365000001,
          "velocity": 0.7874015748031497,
          "duration": 0.19354850000000567
        },
        {
          "name": "A#4",
          "midi": 70,
          "time": 79.1613365000001,
          "velocity": 0.7874015748031497,
          "duration": 0.19354850000000567
        },
        {
          "name": "F5",
          "midi": 77,
          "time": 79.35488500000011,
          "velocity": 0.7874015748031497,
          "duration": 0.19354850000000567
        },
        {
          "name": "F4",
          "midi": 65,
          "time": 79.35488500000011,
          "velocity": 0.7874015748031497,
          "duration": 0.19354850000000567
        },
        {
          "name": "D#5",
          "midi": 75,
          "time": 79.74198200000012,
          "velocity": 0.7874015748031497,
          "duration": 0.19354850000000567
        },
        {
          "name": "D#4",
          "midi": 63,
          "time": 79.74198200000012,
          "velocity": 0.7874015748031497,
          "duration": 0.19354850000000567
        },
        {
          "name": "C#5",
          "midi": 73,
          "time": 80.12907900000013,
          "velocity": 0.7874015748031497,
          "duration": 0.19354850000000567
        },
        {
          "name": "C#6",
          "midi": 85,
          "time": 80.12907900000013,
          "velocity": 0.7874015748031497,
          "duration": 0.19354850000000567
        },
        {
          "name": "A#4",
          "midi": 70,
          "time": 80.51617600000014,
          "velocity": 0.7874015748031497,
          "duration": 0.19354850000000567
        },
        {
          "name": "A#5",
          "midi": 82,
          "time": 80.51617600000014,
          "velocity": 0.7874015748031497,
          "duration": 0.19354850000000567
        },
        {
          "name": "A#4",
          "midi": 70,
          "time": 80.90327300000015,
          "velocity": 0.7874015748031497,
          "duration": 0.19354850000000567
        },
        {
          "name": "A#5",
          "midi": 82,
          "time": 80.90327300000015,
          "velocity": 0.7874015748031497,
          "duration": 0.19354850000000567
        },
        {
          "name": "A#4",
          "midi": 70,
          "time": 81.29037000000017,
          "velocity": 0.7874015748031497,
          "duration": 0.19354850000000567
        },
        {
          "name": "A#5",
          "midi": 82,
          "time": 81.29037000000017,
          "velocity": 0.7874015748031497,
          "duration": 0.19354850000000567
        },
        {
          "name": "G#5",
          "midi": 80,
          "time": 81.67746700000018,
          "velocity": 0.7874015748031497,
          "duration": 0.19354850000000567
        },
        {
          "name": "G#4",
          "midi": 68,
          "time": 81.67746700000018,
          "velocity": 0.7874015748031497,
          "duration": 0.19354850000000567
        },
        {
          "name": "A#5",
          "midi": 82,
          "time": 81.87101550000018,
          "velocity": 0.7874015748031497,
          "duration": 0.19354850000000567
        },
        {
          "name": "A#4",
          "midi": 70,
          "time": 81.87101550000018,
          "velocity": 0.7874015748031497,
          "duration": 0.19354850000000567
        },
        {
          "name": "G#4",
          "midi": 68,
          "time": 82.06456400000019,
          "velocity": 0.7874015748031497,
          "duration": 0.19354850000000567
        },
        {
          "name": "G#5",
          "midi": 80,
          "time": 82.06456400000019,
          "velocity": 0.7874015748031497,
          "duration": 0.19354850000000567
        },
        {
          "name": "A#4",
          "midi": 70,
          "time": 82.2581125000002,
          "velocity": 0.7874015748031497,
          "duration": 0.19354850000000567
        },
        {
          "name": "A#5",
          "midi": 82,
          "time": 82.2581125000002,
          "velocity": 0.7874015748031497,
          "duration": 0.19354850000000567
        },
        {
          "name": "G#4",
          "midi": 68,
          "time": 82.4516610000002,
          "velocity": 0.7874015748031497,
          "duration": 0.19354850000000567
        },
        {
          "name": "G#5",
          "midi": 80,
          "time": 82.4516610000002,
          "velocity": 0.7874015748031497,
          "duration": 0.19354850000000567
        },
        {
          "name": "F6",
          "midi": 89,
          "time": 82.6452095000002,
          "velocity": 0.7874015748031497,
          "duration": 0.19354850000000567
        },
        {
          "name": "F5",
          "midi": 77,
          "time": 82.6452095000002,
          "velocity": 0.7874015748031497,
          "duration": 0.19354850000000567
        },
        {
          "name": "C#6",
          "midi": 85,
          "time": 83.03230650000022,
          "velocity": 0.7874015748031497,
          "duration": 0.19354850000000567
        },
        {
          "name": "C#5",
          "midi": 73,
          "time": 83.03230650000022,
          "velocity": 0.7874015748031497,
          "duration": 0.19354850000000567
        },
        {
          "name": "F5",
          "midi": 77,
          "time": 83.22585500000022,
          "velocity": 0.7874015748031497,
          "duration": 0.19354850000000567
        },
        {
          "name": "F6",
          "midi": 89,
          "time": 83.22585500000022,
          "velocity": 0.7874015748031497,
          "duration": 0.19354850000000567
        },
        {
          "name": "A#5",
          "midi": 82,
          "time": 83.61295200000023,
          "velocity": 0.7874015748031497,
          "duration": 0.19354850000000567
        },
        {
          "name": "C#6",
          "midi": 85,
          "time": 84.00004900000025,
          "velocity": 0.7874015748031497,
          "duration": 0.19354850000000567
        },
        {
          "name": "A#5",
          "midi": 82,
          "time": 84.38714600000026,
          "velocity": 0.7874015748031497,
          "duration": 0.19354850000000567
        },
        {
          "name": "F5",
          "midi": 77,
          "time": 84.77424300000027,
          "velocity": 0.7874015748031497,
          "duration": 0.19354850000000567
        },
        {
          "name": "A#5",
          "midi": 82,
          "time": 84.96779150000027,
          "velocity": 0.7874015748031497,
          "duration": 0.19354850000000567
        },
        {
          "name": "F5",
          "midi": 77,
          "time": 85.16134000000028,
          "velocity": 0.7874015748031497,
          "duration": 0.19354850000000567
        },
        {
          "name": "D#5",
          "midi": 75,
          "time": 85.35488850000029,
          "velocity": 0.7874015748031497,
          "duration": 0.19354850000000567
        },
        {
          "name": "C#5",
          "midi": 73,
          "time": 85.54843700000029,
          "velocity": 0.7874015748031497,
          "duration": 0.38709699999999714
        },
        {
          "name": "A#4",
          "midi": 70,
          "time": 85.93553400000029,
          "velocity": 0.7874015748031497,
          "duration": 0.38709699999999714
        },
        {
          "name": "A#4",
          "midi": 70,
          "time": 86.32263100000029,
          "velocity": 0.7874015748031497,
          "duration": 0.38709699999999714
        },
        {
          "name": "A#4",
          "midi": 70,
          "time": 87.09682500000028,
          "velocity": 0.7874015748031497,
          "duration": 0.19354850000000567
        },
        {
          "name": "A#4",
          "midi": 70,
          "time": 87.29037350000029,
          "velocity": 0.7874015748031497,
          "duration": 0.19354850000000567
        },
        {
          "name": "A#4",
          "midi": 70,
          "time": 87.48392200000029,
          "velocity": 0.7874015748031497,
          "duration": 0.19354850000000567
        },
        {
          "name": "A#4",
          "midi": 70,
          "time": 87.6774705000003,
          "velocity": 0.7874015748031497,
          "duration": 0.19354850000000567
        },
        {
          "name": "A#4",
          "midi": 70,
          "time": 87.8710190000003,
          "velocity": 0.7874015748031497,
          "duration": 0.19354850000000567
        },
        {
          "name": "A#4",
          "midi": 70,
          "time": 88.06456750000031,
          "velocity": 0.7874015748031497,
          "duration": 0.19354850000000567
        },
        {
          "name": "G#4",
          "midi": 68,
          "time": 88.25811600000031,
          "velocity": 0.7874015748031497,
          "duration": 0.19354850000000567
        },
        {
          "name": "G#4",
          "midi": 68,
          "time": 88.45166450000032,
          "velocity": 0.7874015748031497,
          "duration": 0.5806455000000028
        },
        {
          "name": "C5",
          "midi": 72,
          "time": 90.19360100000033,
          "velocity": 0.7874015748031497,
          "duration": 0.19354850000000567
        },
        {
          "name": "C5",
          "midi": 72,
          "time": 90.38714950000033,
          "velocity": 0.7874015748031497,
          "duration": 0.19354850000000567
        },
        {
          "name": "C5",
          "midi": 72,
          "time": 90.58069800000034,
          "velocity": 0.7874015748031497,
          "duration": 0.19354850000000567
        },
        {
          "name": "C5",
          "midi": 72,
          "time": 90.77424650000034,
          "velocity": 0.7874015748031497,
          "duration": 0.19354850000000567
        },
        {
          "name": "C5",
          "midi": 72,
          "time": 90.96779500000035,
          "velocity": 0.7874015748031497,
          "duration": 0.19354850000000567
        },
        {
          "name": "C5",
          "midi": 72,
          "time": 91.16134350000036,
          "velocity": 0.7874015748031497,
          "duration": 0.19354850000000567
        },
        {
          "name": "A#4",
          "midi": 70,
          "time": 91.35489200000036,
          "velocity": 0.7874015748031497,
          "duration": 0.19354850000000567
        },
        {
          "name": "A#4",
          "midi": 70,
          "time": 91.54844050000037,
          "velocity": 0.7874015748031497,
          "duration": 0.5806455000000028
        },
        {
          "name": "G#4",
          "midi": 68,
          "time": 92.32263450000038,
          "velocity": 0.7874015748031497,
          "duration": 0.19354850000000567
        },
        {
          "name": "A#4",
          "midi": 70,
          "time": 92.51618300000038,
          "velocity": 0.7874015748031497,
          "duration": 0.19354850000000567
        },
        {
          "name": "C#5",
          "midi": 73,
          "time": 92.70973150000039,
          "velocity": 0.7874015748031497,
          "duration": 0.5806455000000028
        },
        {
          "name": "A#4",
          "midi": 70,
          "time": 93.29037700000039,
          "velocity": 0.7874015748031497,
          "duration": 0.19354850000000567
        },
        {
          "name": "A#4",
          "midi": 70,
          "time": 93.4839255000004,
          "velocity": 0.7874015748031497,
          "duration": 0.19354850000000567
        },
        {
          "name": "A#4",
          "midi": 70,
          "time": 93.6774740000004,
          "velocity": 0.7874015748031497,
          "duration": 0.19354850000000567
        },
        {
          "name": "A#4",
          "midi": 70,
          "time": 93.87102250000041,
          "velocity": 0.7874015748031497,
          "duration": 0.19354850000000567
        },
        {
          "name": "A#4",
          "midi": 70,
          "time": 94.06457100000041,
          "velocity": 0.7874015748031497,
          "duration": 0.19354850000000567
        },
        {
          "name": "A#4",
          "midi": 70,
          "time": 94.25811950000042,
          "velocity": 0.7874015748031497,
          "duration": 0.19354850000000567
        },
        {
          "name": "G#4",
          "midi": 68,
          "time": 94.45166800000042,
          "velocity": 0.7874015748031497,
          "duration": 0.19354850000000567
        },
        {
          "name": "G#4",
          "midi": 68,
          "time": 94.64521650000043,
          "velocity": 0.7874015748031497,
          "duration": 0.5806455000000028
        },
        {
          "name": "D#5",
          "midi": 75,
          "time": 95.22586200000043,
          "velocity": 0.7874015748031497,
          "duration": 0.19354850000000567
        },
        {
          "name": "D#5",
          "midi": 75,
          "time": 95.41941050000044,
          "velocity": 0.7874015748031497,
          "duration": 0.19354850000000567
        },
        {
          "name": "D#5",
          "midi": 75,
          "time": 95.61295900000044,
          "velocity": 0.7874015748031497,
          "duration": 0.19354850000000567
        },
        {
          "name": "D#5",
          "midi": 75,
          "time": 95.80650750000045,
          "velocity": 0.7874015748031497,
          "duration": 0.19354850000000567
        },
        {
          "name": "F5",
          "midi": 77,
          "time": 96.00005600000046,
          "velocity": 0.7874015748031497,
          "duration": 0.38709699999999714
        },
        {
          "name": "A#4",
          "midi": 70,
          "time": 96.38715300000045,
          "velocity": 0.7874015748031497,
          "duration": 0.38709699999999714
        },
        {
          "name": "D#5",
          "midi": 75,
          "time": 96.77425000000045,
          "velocity": 0.7874015748031497,
          "duration": 0.19354850000000567
        },
        {
          "name": "D#5",
          "midi": 75,
          "time": 96.96779850000046,
          "velocity": 0.7874015748031497,
          "duration": 0.19354850000000567
        },
        {
          "name": "D#5",
          "midi": 75,
          "time": 97.16134700000046,
          "velocity": 0.7874015748031497,
          "duration": 0.19354850000000567
        },
        {
          "name": "D#5",
          "midi": 75,
          "time": 97.35489550000047,
          "velocity": 0.7874015748031497,
          "duration": 0.19354850000000567
        },
        {
          "name": "F5",
          "midi": 77,
          "time": 97.54844400000047,
          "velocity": 0.7874015748031497,
          "duration": 0.38709699999999714
        },
        {
          "name": "A#4",
          "midi": 70,
          "time": 97.93554100000047,
          "velocity": 0.7874015748031497,
          "duration": 0.38709699999999714
        },
        {
          "name": "C#5",
          "midi": 73,
          "time": 98.32263800000047,
          "velocity": 0.7874015748031497,
          "duration": 0.19354850000000567
        },
        {
          "name": "D#5",
          "midi": 75,
          "time": 98.51618650000047,
          "velocity": 0.7874015748031497,
          "duration": 0.19354850000000567
        },
        {
          "name": "C#5",
          "midi": 73,
          "time": 98.70973500000048,
          "velocity": 0.7874015748031497,
          "duration": 0.19354850000000567
        },
        {
          "name": "F5",
          "midi": 77,
          "time": 98.90328350000048,
          "velocity": 0.7874015748031497,
          "duration": 1.354839499999997
        },
        {
          "name": "C#5",
          "midi": 73,
          "time": 100.25812300000048,
          "velocity": 0.7874015748031497,
          "duration": 0.19354850000000567
        },
        {
          "name": "D#5",
          "midi": 75,
          "time": 100.45167150000049,
          "velocity": 0.7874015748031497,
          "duration": 0.38709699999999714
        },
        {
          "name": "F5",
          "midi": 77,
          "time": 100.83876850000048,
          "velocity": 0.7874015748031497,
          "duration": 0.38709699999999714
        },
        {
          "name": "C#5",
          "midi": 73,
          "time": 101.41941400000049,
          "velocity": 0.7874015748031497,
          "duration": 0.19354850000000567
        },
        {
          "name": "D#5",
          "midi": 75,
          "time": 101.61296250000049,
          "velocity": 0.7874015748031497,
          "duration": 0.19354850000000567
        },
        {
          "name": "C#5",
          "midi": 73,
          "time": 101.8065110000005,
          "velocity": 0.7874015748031497,
          "duration": 0.19354850000000567
        },
        {
          "name": "D#5",
          "midi": 75,
          "time": 102.0000595000005,
          "velocity": 0.7874015748031497,
          "duration": 0.19354850000000567
        },
        {
          "name": "F5",
          "midi": 77,
          "time": 102.19360800000051,
          "velocity": 0.7874015748031497,
          "duration": 0.38709699999999714
        },
        {
          "name": "D#5",
          "midi": 75,
          "time": 102.5807050000005,
          "velocity": 0.7874015748031497,
          "duration": 0.38709699999999714
        },
        {
          "name": "C#5",
          "midi": 73,
          "time": 102.9678020000005,
          "velocity": 0.7874015748031497,
          "duration": 0.38709699999999714
        },
        {
          "name": "G#5",
          "midi": 80,
          "time": 103.3548990000005,
          "velocity": 0.7874015748031497,
          "duration": 0.19354850000000567
        },
        {
          "name": "F5",
          "midi": 77,
          "time": 103.5484475000005,
          "velocity": 0.7874015748031497,
          "duration": 0.19354850000000567
        },
        {
          "name": "C#5",
          "midi": 73,
          "time": 104.5161900000005,
          "velocity": 0.7874015748031497,
          "duration": 0.19354850000000567
        },
        {
          "name": "D#5",
          "midi": 75,
          "time": 104.70973850000051,
          "velocity": 0.7874015748031497,
          "duration": 0.19354850000000567
        },
        {
          "name": "C#5",
          "midi": 73,
          "time": 104.90328700000052,
          "velocity": 0.7874015748031497,
          "duration": 0.19354850000000567
        },
        {
          "name": "F5",
          "midi": 77,
          "time": 105.09683550000052,
          "velocity": 0.7874015748031497,
          "duration": 0.38709699999999714
        },
        {
          "name": "F5",
          "midi": 77,
          "time": 105.48393250000052,
          "velocity": 0.7874015748031497,
          "duration": 0.38709699999999714
        },
        {
          "name": "F6",
          "midi": 89,
          "time": 105.87102950000052,
          "velocity": 0.7874015748031497,
          "duration": 0.38709699999999714
        },
        {
          "name": "F6",
          "midi": 89,
          "time": 106.25812650000051,
          "velocity": 0.7874015748031497,
          "duration": 0.38709699999999714
        },
        {
          "name": "F5",
          "midi": 77,
          "time": 106.64522350000051,
          "velocity": 0.7874015748031497,
          "duration": 0.38709699999999714
        },
        {
          "name": "F5",
          "midi": 77,
          "time": 107.03232050000051,
          "velocity": 0.7874015748031497,
          "duration": 0.38709699999999714
        },
        {
          "name": "F6",
          "midi": 89,
          "time": 107.4194175000005,
          "velocity": 0.7874015748031497,
          "duration": 0.38709699999999714
        },
        {
          "name": "F6",
          "midi": 89,
          "time": 107.8065145000005,
          "velocity": 0.7874015748031497,
          "duration": 0.38709699999999714
        },
        {
          "name": "F5",
          "midi": 77,
          "time": 108.1936115000005,
          "velocity": 0.7874015748031497,
          "duration": 0.19354850000000567
        },
        {
          "name": "F5",
          "midi": 77,
          "time": 108.3871600000005,
          "velocity": 0.7874015748031497,
          "duration": 0.38709699999999714
        },
        {
          "name": "A#4",
          "midi": 70,
          "time": 108.7742570000005,
          "velocity": 0.7874015748031497,
          "duration": 0.38709699999999714
        },
        {
          "name": "A#4",
          "midi": 70,
          "time": 109.1613540000005,
          "velocity": 0.7874015748031497,
          "duration": 0.38709699999999714
        },
        {
          "name": "F5",
          "midi": 77,
          "time": 109.5484510000005,
          "velocity": 0.7874015748031497,
          "duration": 0.19354850000000567
        },
        {
          "name": "F5",
          "midi": 77,
          "time": 109.7419995000005,
          "velocity": 0.7874015748031497,
          "duration": 0.19354850000000567
        },
        {
          "name": "F5",
          "midi": 77,
          "time": 109.93554800000051,
          "velocity": 0.7874015748031497,
          "duration": 0.38709699999999714
        },
        {
          "name": "A#4",
          "midi": 70,
          "time": 110.3226450000005,
          "velocity": 0.7874015748031497,
          "duration": 0.38709699999999714
        },
        {
          "name": "A#4",
          "midi": 70,
          "time": 110.7097420000005,
          "velocity": 0.7874015748031497,
          "duration": 0.38709699999999714
        },
        {
          "name": "A#5",
          "midi": 82,
          "time": 111.0968390000005,
          "velocity": 0.7874015748031497,
          "duration": 0.19354850000000567
        },
        {
          "name": "A#5",
          "midi": 82,
          "time": 111.48393600000051,
          "velocity": 0.7874015748031497,
          "duration": 0.19354850000000567
        },
        {
          "name": "A#4",
          "midi": 70,
          "time": 111.48393600000051,
          "velocity": 0.7874015748031497,
          "duration": 0.19354850000000567
        },
        {
          "name": "A#5",
          "midi": 82,
          "time": 111.87103300000052,
          "velocity": 0.7874015748031497,
          "duration": 0.19354850000000567
        },
        {
          "name": "A#4",
          "midi": 70,
          "time": 111.87103300000052,
          "velocity": 0.7874015748031497,
          "duration": 0.19354850000000567
        },
        {
          "name": "A#4",
          "midi": 70,
          "time": 112.25813000000053,
          "velocity": 0.7874015748031497,
          "duration": 0.19354850000000567
        },
        {
          "name": "A#5",
          "midi": 82,
          "time": 112.25813000000053,
          "velocity": 0.7874015748031497,
          "duration": 0.19354850000000567
        },
        {
          "name": "A#4",
          "midi": 70,
          "time": 112.64522700000055,
          "velocity": 0.7874015748031497,
          "duration": 0.19354850000000567
        },
        {
          "name": "A#5",
          "midi": 82,
          "time": 112.64522700000055,
          "velocity": 0.7874015748031497,
          "duration": 0.19354850000000567
        },
        {
          "name": "G#5",
          "midi": 80,
          "time": 112.83877550000055,
          "velocity": 0.7874015748031497,
          "duration": 0.19354850000000567
        },
        {
          "name": "G#4",
          "midi": 68,
          "time": 112.83877550000055,
          "velocity": 0.7874015748031497,
          "duration": 0.19354850000000567
        },
        {
          "name": "A#4",
          "midi": 70,
          "time": 113.03232400000056,
          "velocity": 0.7874015748031497,
          "duration": 0.19354850000000567
        },
        {
          "name": "A#5",
          "midi": 82,
          "time": 113.03232400000056,
          "velocity": 0.7874015748031497,
          "duration": 0.19354850000000567
        },
        {
          "name": "G#5",
          "midi": 80,
          "time": 113.22990476041723,
          "velocity": 0.7874015748031497,
          "duration": 0.19354850000000567
        },
        {
          "name": "G#4",
          "midi": 68,
          "time": 113.22990476041723,
          "velocity": 0.7874015748031497,
          "duration": 0.19354850000000567
        },
        {
          "name": "A#5",
          "midi": 82,
          "time": 113.43151778125056,
          "velocity": 0.7874015748031497,
          "duration": 0.19354849999999146
        },
        {
          "name": "A#4",
          "midi": 70,
          "time": 113.43151778125056,
          "velocity": 0.7874015748031497,
          "duration": 0.19354849999999146
        },
        {
          "name": "F6",
          "midi": 89,
          "time": 113.61296950000056,
          "velocity": 0.7874015748031497,
          "duration": 0.19354849999999146
        },
        {
          "name": "F5",
          "midi": 77,
          "time": 113.61296950000056,
          "velocity": 0.7874015748031497,
          "duration": 0.19354849999999146
        },
        {
          "name": "C#6",
          "midi": 85,
          "time": 114.00006650000056,
          "velocity": 0.7874015748031497,
          "duration": 0.19354850000000567
        },
        {
          "name": "C#5",
          "midi": 73,
          "time": 114.00006650000056,
          "velocity": 0.7874015748031497,
          "duration": 0.19354850000000567
        },
        {
          "name": "F6",
          "midi": 89,
          "time": 114.19361500000056,
          "velocity": 0.7874015748031497,
          "duration": 0.19354850000000567
        },
        {
          "name": "F5",
          "midi": 77,
          "time": 114.19361500000056,
          "velocity": 0.7874015748031497,
          "duration": 0.19354850000000567
        },
        {
          "name": "A#5",
          "midi": 82,
          "time": 114.58071200000057,
          "velocity": 0.7874015748031497,
          "duration": 0.19354850000000567
        },
        {
          "name": "A#4",
          "midi": 70,
          "time": 114.58071200000057,
          "velocity": 0.7874015748031497,
          "duration": 0.19354850000000567
        },
        {
          "name": "A#4",
          "midi": 70,
          "time": 114.96780900000059,
          "velocity": 0.7874015748031497,
          "duration": 0.19354850000000567
        },
        {
          "name": "A#5",
          "midi": 82,
          "time": 114.96780900000059,
          "velocity": 0.7874015748031497,
          "duration": 0.19354850000000567
        },
        {
          "name": "A#4",
          "midi": 70,
          "time": 115.3549060000006,
          "velocity": 0.7874015748031497,
          "duration": 0.19354850000000567
        },
        {
          "name": "A#5",
          "midi": 82,
          "time": 115.3549060000006,
          "velocity": 0.7874015748031497,
          "duration": 0.19354850000000567
        },
        {
          "name": "G#4",
          "midi": 68,
          "time": 115.74200300000061,
          "velocity": 0.7874015748031497,
          "duration": 0.19354850000000567
        },
        {
          "name": "G#5",
          "midi": 80,
          "time": 115.74200300000061,
          "velocity": 0.7874015748031497,
          "duration": 0.19354850000000567
        },
        {
          "name": "A#4",
          "midi": 70,
          "time": 115.93555150000061,
          "velocity": 0.7874015748031497,
          "duration": 0.19354850000000567
        },
        {
          "name": "A#5",
          "midi": 82,
          "time": 115.93555150000061,
          "velocity": 0.7874015748031497,
          "duration": 0.19354850000000567
        },
        {
          "name": "G#4",
          "midi": 68,
          "time": 116.12910000000062,
          "velocity": 0.7874015748031497,
          "duration": 0.19354850000000567
        },
        {
          "name": "G#5",
          "midi": 80,
          "time": 116.12910000000062,
          "velocity": 0.7874015748031497,
          "duration": 0.19354850000000567
        },
        {
          "name": "A#4",
          "midi": 70,
          "time": 116.32264850000062,
          "velocity": 0.7874015748031497,
          "duration": 0.19354850000000567
        },
        {
          "name": "A#5",
          "midi": 82,
          "time": 116.32264850000062,
          "velocity": 0.7874015748031497,
          "duration": 0.19354850000000567
        },
        {
          "name": "F5",
          "midi": 77,
          "time": 116.51619700000063,
          "velocity": 0.7874015748031497,
          "duration": 0.19354850000000567
        },
        {
          "name": "F4",
          "midi": 65,
          "time": 116.51619700000063,
          "velocity": 0.7874015748031497,
          "duration": 0.19354850000000567
        },
        {
          "name": "D#5",
          "midi": 75,
          "time": 116.90329400000064,
          "velocity": 0.7874015748031497,
          "duration": 0.19354850000000567
        },
        {
          "name": "D#4",
          "midi": 63,
          "time": 116.90329400000064,
          "velocity": 0.7874015748031497,
          "duration": 0.19354850000000567
        },
        {
          "name": "C#5",
          "midi": 73,
          "time": 117.29039100000065,
          "velocity": 0.7874015748031497,
          "duration": 0.19354850000000567
        },
        {
          "name": "C#6",
          "midi": 85,
          "time": 117.29039100000065,
          "velocity": 0.7874015748031497,
          "duration": 0.19354850000000567
        },
        {
          "name": "A#4",
          "midi": 70,
          "time": 117.67748800000066,
          "velocity": 0.7874015748031497,
          "duration": 0.19354850000000567
        },
        {
          "name": "A#5",
          "midi": 82,
          "time": 117.67748800000066,
          "velocity": 0.7874015748031497,
          "duration": 0.19354850000000567
        },
        {
          "name": "A#5",
          "midi": 82,
          "time": 118.06458500000068,
          "velocity": 0.7874015748031497,
          "duration": 0.19354850000000567
        },
        {
          "name": "A#4",
          "midi": 70,
          "time": 118.06458500000068,
          "velocity": 0.7874015748031497,
          "duration": 0.19354850000000567
        },
        {
          "name": "A#5",
          "midi": 82,
          "time": 118.45168200000069,
          "velocity": 0.7874015748031497,
          "duration": 0.19354850000000567
        },
        {
          "name": "A#4",
          "midi": 70,
          "time": 118.45168200000069,
          "velocity": 0.7874015748031497,
          "duration": 0.19354850000000567
        },
        {
          "name": "G#5",
          "midi": 80,
          "time": 118.8387790000007,
          "velocity": 0.7874015748031497,
          "duration": 0.19354850000000567
        },
        {
          "name": "G#4",
          "midi": 68,
          "time": 118.8387790000007,
          "velocity": 0.7874015748031497,
          "duration": 0.19354850000000567
        },
        {
          "name": "A#4",
          "midi": 70,
          "time": 119.0323275000007,
          "velocity": 0.7874015748031497,
          "duration": 0.19354850000000567
        },
        {
          "name": "A#5",
          "midi": 82,
          "time": 119.0323275000007,
          "velocity": 0.7874015748031497,
          "duration": 0.19354850000000567
        },
        {
          "name": "G#4",
          "midi": 68,
          "time": 119.22587600000071,
          "velocity": 0.7874015748031497,
          "duration": 0.19354850000000567
        },
        {
          "name": "G#5",
          "midi": 80,
          "time": 119.22587600000071,
          "velocity": 0.7874015748031497,
          "duration": 0.19354850000000567
        },
        {
          "name": "A#5",
          "midi": 82,
          "time": 119.41942450000072,
          "velocity": 0.7874015748031497,
          "duration": 0.19354850000000567
        },
        {
          "name": "A#4",
          "midi": 70,
          "time": 119.41942450000072,
          "velocity": 0.7874015748031497,
          "duration": 0.19354850000000567
        },
        {
          "name": "G#5",
          "midi": 80,
          "time": 119.61297300000072,
          "velocity": 0.7874015748031497,
          "duration": 0.19354850000000567
        },
        {
          "name": "G#4",
          "midi": 68,
          "time": 119.61297300000072,
          "velocity": 0.7874015748031497,
          "duration": 0.19354850000000567
        },
        {
          "name": "F5",
          "midi": 77,
          "time": 119.80652150000073,
          "velocity": 0.7874015748031497,
          "duration": 0.19354850000000567
        },
        {
          "name": "F6",
          "midi": 89,
          "time": 119.80652150000073,
          "velocity": 0.7874015748031497,
          "duration": 0.19354850000000567
        },
        {
          "name": "C#6",
          "midi": 85,
          "time": 120.19361850000074,
          "velocity": 0.7874015748031497,
          "duration": 0.19354850000000567
        },
        {
          "name": "C#5",
          "midi": 73,
          "time": 120.19361850000074,
          "velocity": 0.7874015748031497,
          "duration": 0.19354850000000567
        },
        {
          "name": "F5",
          "midi": 77,
          "time": 120.38716700000074,
          "velocity": 0.7874015748031497,
          "duration": 0.19354850000000567
        },
        {
          "name": "F6",
          "midi": 89,
          "time": 120.38716700000074,
          "velocity": 0.7874015748031497,
          "duration": 0.19354850000000567
        },
        {
          "name": "A#5",
          "midi": 82,
          "time": 120.77426400000076,
          "velocity": 0.7874015748031497,
          "duration": 0.19354850000000567
        },
        {
          "name": "C#6",
          "midi": 85,
          "time": 121.16136100000077,
          "velocity": 0.7874015748031497,
          "duration": 0.19354850000000567
        },
        {
          "name": "A#5",
          "midi": 82,
          "time": 121.54845800000078,
          "velocity": 0.7874015748031497,
          "duration": 0.19354850000000567
        },
        {
          "name": "F5",
          "midi": 77,
          "time": 121.93555500000079,
          "velocity": 0.7874015748031497,
          "duration": 0.19354850000000567
        },
        {
          "name": "A#5",
          "midi": 82,
          "time": 122.1291035000008,
          "velocity": 0.7874015748031497,
          "duration": 0.19354850000000567
        },
        {
          "name": "F5",
          "midi": 77,
          "time": 122.3226520000008,
          "velocity": 0.7874015748031497,
          "duration": 0.19354850000000567
        },
        {
          "name": "D#5",
          "midi": 75,
          "time": 122.5162005000008,
          "velocity": 0.7874015748031497,
          "duration": 0.19354850000000567
        },
        {
          "name": "C#5",
          "midi": 73,
          "time": 122.70974900000081,
          "velocity": 0.7874015748031497,
          "duration": 0.38709699999999714
        },
        {
          "name": "A#4",
          "midi": 70,
          "time": 123.09684600000081,
          "velocity": 0.7874015748031497,
          "duration": 0.38709699999999714
        },
        {
          "name": "A#4",
          "midi": 70,
          "time": 123.4839430000008,
          "velocity": 0.7874015748031497,
          "duration": 0.38709699999999714
        },
        {
          "name": "A#5",
          "midi": 82,
          "time": 123.8710400000008,
          "velocity": 0.7874015748031497,
          "duration": 0.19354850000000567
        },
        {
          "name": "A#4",
          "midi": 70,
          "time": 123.8710400000008,
          "velocity": 0.7874015748031497,
          "duration": 0.19354850000000567
        },
        {
          "name": "A#5",
          "midi": 82,
          "time": 124.25813700000081,
          "velocity": 0.7874015748031497,
          "duration": 0.19354850000000567
        },
        {
          "name": "A#4",
          "midi": 70,
          "time": 124.25813700000081,
          "velocity": 0.7874015748031497,
          "duration": 0.19354850000000567
        },
        {
          "name": "A#5",
          "midi": 82,
          "time": 124.64523400000083,
          "velocity": 0.7874015748031497,
          "duration": 0.19354850000000567
        },
        {
          "name": "A#4",
          "midi": 70,
          "time": 124.64523400000083,
          "velocity": 0.7874015748031497,
          "duration": 0.19354850000000567
        },
        {
          "name": "A#4",
          "midi": 70,
          "time": 125.03233100000084,
          "velocity": 0.7874015748031497,
          "duration": 0.19354850000000567
        },
        {
          "name": "A#5",
          "midi": 82,
          "time": 125.03233100000084,
          "velocity": 0.7874015748031497,
          "duration": 0.19354850000000567
        },
        {
          "name": "G#5",
          "midi": 80,
          "time": 125.22587950000084,
          "velocity": 0.7874015748031497,
          "duration": 0.19354850000000567
        },
        {
          "name": "G#4",
          "midi": 68,
          "time": 125.22587950000084,
          "velocity": 0.7874015748031497,
          "duration": 0.19354850000000567
        },
        {
          "name": "A#5",
          "midi": 82,
          "time": 125.41942800000085,
          "velocity": 0.7874015748031497,
          "duration": 0.19354850000000567
        },
        {
          "name": "A#4",
          "midi": 70,
          "time": 125.41942800000085,
          "velocity": 0.7874015748031497,
          "duration": 0.19354850000000567
        },
        {
          "name": "G#4",
          "midi": 68,
          "time": 125.61700876041752,
          "velocity": 0.7874015748031497,
          "duration": 0.19354850000000567
        },
        {
          "name": "G#5",
          "midi": 80,
          "time": 125.61700876041752,
          "velocity": 0.7874015748031497,
          "duration": 0.19354850000000567
        },
        {
          "name": "A#5",
          "midi": 82,
          "time": 125.81862178125085,
          "velocity": 0.7874015748031497,
          "duration": 0.19354849999999146
        },
        {
          "name": "A#4",
          "midi": 70,
          "time": 125.81862178125085,
          "velocity": 0.7874015748031497,
          "duration": 0.19354849999999146
        },
        {
          "name": "F6",
          "midi": 89,
          "time": 126.00007350000085,
          "velocity": 0.7874015748031497,
          "duration": 0.19354849999999146
        },
        {
          "name": "F5",
          "midi": 77,
          "time": 126.00007350000085,
          "velocity": 0.7874015748031497,
          "duration": 0.19354849999999146
        },
        {
          "name": "C#6",
          "midi": 85,
          "time": 126.38717050000085,
          "velocity": 0.7874015748031497,
          "duration": 0.19354850000000567
        },
        {
          "name": "C#5",
          "midi": 73,
          "time": 126.38717050000085,
          "velocity": 0.7874015748031497,
          "duration": 0.19354850000000567
        },
        {
          "name": "F6",
          "midi": 89,
          "time": 126.58071900000085,
          "velocity": 0.7874015748031497,
          "duration": 0.19354850000000567
        },
        {
          "name": "F5",
          "midi": 77,
          "time": 126.58071900000085,
          "velocity": 0.7874015748031497,
          "duration": 0.19354850000000567
        },
        {
          "name": "A#5",
          "midi": 82,
          "time": 126.96781600000087,
          "velocity": 0.7874015748031497,
          "duration": 0.19354850000000567
        },
        {
          "name": "A#4",
          "midi": 70,
          "time": 126.96781600000087,
          "velocity": 0.7874015748031497,
          "duration": 0.19354850000000567
        },
        {
          "name": "A#5",
          "midi": 82,
          "time": 127.35491300000088,
          "velocity": 0.7874015748031497,
          "duration": 0.19354850000000567
        },
        {
          "name": "A#4",
          "midi": 70,
          "time": 127.35491300000088,
          "velocity": 0.7874015748031497,
          "duration": 0.19354850000000567
        },
        {
          "name": "A#5",
          "midi": 82,
          "time": 127.74201000000089,
          "velocity": 0.7874015748031497,
          "duration": 0.19354850000000567
        },
        {
          "name": "A#4",
          "midi": 70,
          "time": 127.74201000000089,
          "velocity": 0.7874015748031497,
          "duration": 0.19354850000000567
        },
        {
          "name": "G#4",
          "midi": 68,
          "time": 128.1291070000009,
          "velocity": 0.7874015748031497,
          "duration": 0.19354849999999146
        },
        {
          "name": "G#5",
          "midi": 80,
          "time": 128.1291070000009,
          "velocity": 0.7874015748031497,
          "duration": 0.19354849999999146
        },
        {
          "name": "A#5",
          "midi": 82,
          "time": 128.32265550000088,
          "velocity": 0.7874015748031497,
          "duration": 0.19354849999999146
        },
        {
          "name": "A#4",
          "midi": 70,
          "time": 128.32265550000088,
          "velocity": 0.7874015748031497,
          "duration": 0.19354849999999146
        },
        {
          "name": "G#5",
          "midi": 80,
          "time": 128.51620400000087,
          "velocity": 0.7874015748031497,
          "duration": 0.19354849999999146
        },
        {
          "name": "G#4",
          "midi": 68,
          "time": 128.51620400000087,
          "velocity": 0.7874015748031497,
          "duration": 0.19354849999999146
        },
        {
          "name": "A#4",
          "midi": 70,
          "time": 128.70975250000086,
          "velocity": 0.7874015748031497,
          "duration": 0.19354849999999146
        },
        {
          "name": "A#5",
          "midi": 82,
          "time": 128.70975250000086,
          "velocity": 0.7874015748031497,
          "duration": 0.19354849999999146
        },
        {
          "name": "F5",
          "midi": 77,
          "time": 128.90330100000085,
          "velocity": 0.7874015748031497,
          "duration": 0.19354849999999146
        },
        {
          "name": "F4",
          "midi": 65,
          "time": 128.90330100000085,
          "velocity": 0.7874015748031497,
          "duration": 0.19354849999999146
        },
        {
          "name": "D#5",
          "midi": 75,
          "time": 129.29039800000083,
          "velocity": 0.7874015748031497,
          "duration": 0.19354849999999146
        },
        {
          "name": "D#4",
          "midi": 63,
          "time": 129.29039800000083,
          "velocity": 0.7874015748031497,
          "duration": 0.19354849999999146
        },
        {
          "name": "C#6",
          "midi": 85,
          "time": 129.67749500000082,
          "velocity": 0.7874015748031497,
          "duration": 0.19354849999999146
        },
        {
          "name": "C#5",
          "midi": 73,
          "time": 129.67749500000082,
          "velocity": 0.7874015748031497,
          "duration": 0.19354849999999146
        },
        {
          "name": "A#5",
          "midi": 82,
          "time": 130.0645920000008,
          "velocity": 0.7874015748031497,
          "duration": 0.19354849999999146
        },
        {
          "name": "A#4",
          "midi": 70,
          "time": 130.0645920000008,
          "velocity": 0.7874015748031497,
          "duration": 0.19354849999999146
        },
        {
          "name": "A#5",
          "midi": 82,
          "time": 130.45168900000078,
          "velocity": 0.7874015748031497,
          "duration": 0.19354849999999146
        },
        {
          "name": "A#4",
          "midi": 70,
          "time": 130.45168900000078,
          "velocity": 0.7874015748031497,
          "duration": 0.19354849999999146
        },
        {
          "name": "A#5",
          "midi": 82,
          "time": 130.83878600000077,
          "velocity": 0.7874015748031497,
          "duration": 0.19354849999999146
        },
        {
          "name": "A#4",
          "midi": 70,
          "time": 130.83878600000077,
          "velocity": 0.7874015748031497,
          "duration": 0.19354849999999146
        },
        {
          "name": "G#4",
          "midi": 68,
          "time": 131.22588300000075,
          "velocity": 0.7874015748031497,
          "duration": 0.19354849999999146
        },
        {
          "name": "G#5",
          "midi": 80,
          "time": 131.22588300000075,
          "velocity": 0.7874015748031497,
          "duration": 0.19354849999999146
        },
        {
          "name": "A#5",
          "midi": 82,
          "time": 131.41943150000074,
          "velocity": 0.7874015748031497,
          "duration": 0.19354849999999146
        },
        {
          "name": "A#4",
          "midi": 70,
          "time": 131.41943150000074,
          "velocity": 0.7874015748031497,
          "duration": 0.19354849999999146
        },
        {
          "name": "G#4",
          "midi": 68,
          "time": 131.61298000000073,
          "velocity": 0.7874015748031497,
          "duration": 0.19354849999999146
        },
        {
          "name": "G#5",
          "midi": 80,
          "time": 131.61298000000073,
          "velocity": 0.7874015748031497,
          "duration": 0.19354849999999146
        },
        {
          "name": "A#5",
          "midi": 82,
          "time": 131.80652850000072,
          "velocity": 0.7874015748031497,
          "duration": 0.19354849999999146
        },
        {
          "name": "A#4",
          "midi": 70,
          "time": 131.80652850000072,
          "velocity": 0.7874015748031497,
          "duration": 0.19354849999999146
        },
        {
          "name": "G#4",
          "midi": 68,
          "time": 132.00007700000072,
          "velocity": 0.7874015748031497,
          "duration": 0.19354849999999146
        },
        {
          "name": "G#5",
          "midi": 80,
          "time": 132.00007700000072,
          "velocity": 0.7874015748031497,
          "duration": 0.19354849999999146
        },
        {
          "name": "F6",
          "midi": 89,
          "time": 132.1936255000007,
          "velocity": 0.7874015748031497,
          "duration": 0.19354849999999146
        },
        {
          "name": "F5",
          "midi": 77,
          "time": 132.1936255000007,
          "velocity": 0.7874015748031497,
          "duration": 0.19354849999999146
        },
        {
          "name": "C#5",
          "midi": 73,
          "time": 132.5807225000007,
          "velocity": 0.7874015748031497,
          "duration": 0.19354849999999146
        },
        {
          "name": "C#6",
          "midi": 85,
          "time": 132.5807225000007,
          "velocity": 0.7874015748031497,
          "duration": 0.19354849999999146
        },
        {
          "name": "F6",
          "midi": 89,
          "time": 132.77427100000068,
          "velocity": 0.7874015748031497,
          "duration": 0.19354849999999146
        },
        {
          "name": "F5",
          "midi": 77,
          "time": 132.77427100000068,
          "velocity": 0.7874015748031497,
          "duration": 0.19354849999999146
        },
        {
          "name": "A#5",
          "midi": 82,
          "time": 133.16136800000066,
          "velocity": 0.7874015748031497,
          "duration": 0.19354849999999146
        },
        {
          "name": "C#6",
          "midi": 85,
          "time": 133.54846500000065,
          "velocity": 0.7874015748031497,
          "duration": 0.19354849999999146
        },
        {
          "name": "A#5",
          "midi": 82,
          "time": 133.93556200000063,
          "velocity": 0.7874015748031497,
          "duration": 0.19354849999999146
        },
        {
          "name": "F5",
          "midi": 77,
          "time": 134.3226590000006,
          "velocity": 0.7874015748031497,
          "duration": 0.19354849999999146
        },
        {
          "name": "A#5",
          "midi": 82,
          "time": 134.5162075000006,
          "velocity": 0.7874015748031497,
          "duration": 0.19354849999999146
        },
        {
          "name": "F5",
          "midi": 77,
          "time": 134.7097560000006,
          "velocity": 0.7874015748031497,
          "duration": 0.19354849999999146
        },
        {
          "name": "D#5",
          "midi": 75,
          "time": 134.9033045000006,
          "velocity": 0.7874015748031497,
          "duration": 0.19354849999999146
        },
        {
          "name": "C#5",
          "midi": 73,
          "time": 135.09685300000058,
          "velocity": 0.7874015748031497,
          "duration": 0.38709700000001135
        },
        {
          "name": "A#4",
          "midi": 70,
          "time": 135.4839500000006,
          "velocity": 0.7874015748031497,
          "duration": 0.38709700000001135
        },
        {
          "name": "A#4",
          "midi": 70,
          "time": 135.8710470000006,
          "velocity": 0.7874015748031497,
          "duration": 0.38709700000001135
        },
        {
          "name": "A#4",
          "midi": 70,
          "time": 137.0323380000006,
          "velocity": 0.84251968503937,
          "duration": 0.19354849999999146
        },
        {
          "name": "A#4",
          "midi": 70,
          "time": 137.2258865000006,
          "velocity": 0.84251968503937,
          "duration": 0.19354849999999146
        },
        {
          "name": "A#4",
          "midi": 70,
          "time": 137.4194350000006,
          "velocity": 0.8346456692913385,
          "duration": 0.19354849999999146
        },
        {
          "name": "F5",
          "midi": 77,
          "time": 137.61298350000058,
          "velocity": 0.8267716535433071,
          "duration": 0.38709700000001135
        },
        {
          "name": "D#5",
          "midi": 75,
          "time": 138.0000805000006,
          "velocity": 0.8267716535433071,
          "duration": 0.38709700000001135
        },
        {
          "name": "D#5",
          "midi": 75,
          "time": 138.3871775000006,
          "velocity": 0.8267716535433071,
          "duration": 0.38709700000001135
        },
        {
          "name": "F5",
          "midi": 77,
          "time": 138.77427450000062,
          "velocity": 0.8346456692913385,
          "duration": 0.38709700000001135
        },
        {
          "name": "C#5",
          "midi": 73,
          "time": 140.12911400000064,
          "velocity": 0.8267716535433071,
          "duration": 0.19354849999999146
        },
        {
          "name": "C#5",
          "midi": 73,
          "time": 140.32266250000063,
          "velocity": 0.8188976377952756,
          "duration": 0.19354849999999146
        },
        {
          "name": "C#5",
          "midi": 73,
          "time": 140.51621100000062,
          "velocity": 0.8188976377952756,
          "duration": 0.19354849999999146
        },
        {
          "name": "A#5",
          "midi": 82,
          "time": 140.70975950000062,
          "velocity": 0.8188976377952756,
          "duration": 0.38709700000001135
        },
        {
          "name": "F5",
          "midi": 77,
          "time": 141.09685650000063,
          "velocity": 0.8267716535433071,
          "duration": 0.38709700000001135
        },
        {
          "name": "D#5",
          "midi": 75,
          "time": 141.48395350000064,
          "velocity": 0.8267716535433071,
          "duration": 0.38709700000001135
        },
        {
          "name": "C#5",
          "midi": 73,
          "time": 141.87105050000065,
          "velocity": 0.8267716535433071,
          "duration": 0.38709700000001135
        },
        {
          "name": "A#4",
          "midi": 70,
          "time": 142.25814750000066,
          "velocity": 0.8267716535433071,
          "duration": 0.38709700000001135
        },
        {
          "name": "A#4",
          "midi": 70,
          "time": 143.22589000000067,
          "velocity": 0.8267716535433071,
          "duration": 0.19354849999999146
        },
        {
          "name": "A#4",
          "midi": 70,
          "time": 143.41943850000067,
          "velocity": 0.8267716535433071,
          "duration": 0.19354849999999146
        },
        {
          "name": "A#4",
          "midi": 70,
          "time": 143.61298700000066,
          "velocity": 0.8346456692913385,
          "duration": 0.19354849999999146
        },
        {
          "name": "F5",
          "midi": 77,
          "time": 143.80653550000065,
          "velocity": 0.8346456692913385,
          "duration": 0.38709700000001135
        },
        {
          "name": "D#5",
          "midi": 75,
          "time": 144.19363250000066,
          "velocity": 0.8346456692913385,
          "duration": 0.38709700000001135
        },
        {
          "name": "D#5",
          "midi": 75,
          "time": 144.58072950000067,
          "velocity": 0.8346456692913385,
          "duration": 0.38709700000001135
        },
        {
          "name": "F5",
          "midi": 77,
          "time": 144.96782650000068,
          "velocity": 0.84251968503937,
          "duration": 0.38709700000001135
        },
        {
          "name": "F5",
          "midi": 77,
          "time": 146.3226660000007,
          "velocity": 0.8346456692913385,
          "duration": 0.19354849999999146
        },
        {
          "name": "D#5",
          "midi": 75,
          "time": 146.5162145000007,
          "velocity": 0.8346456692913385,
          "duration": 0.19354849999999146
        },
        {
          "name": "C#5",
          "midi": 73,
          "time": 146.7097630000007,
          "velocity": 0.8346456692913385,
          "duration": 0.19354849999999146
        },
        {
          "name": "D#5",
          "midi": 75,
          "time": 146.90331150000068,
          "velocity": 0.8346456692913385,
          "duration": 0.38709700000001135
        },
        {
          "name": "C#5",
          "midi": 73,
          "time": 147.2904085000007,
          "velocity": 0.8346456692913385,
          "duration": 0.38709700000001135
        },
        {
          "name": "F5",
          "midi": 77,
          "time": 147.6775055000007,
          "velocity": 0.8346456692913385,
          "duration": 0.5806455000000028
        },
        {
          "name": "C#5",
          "midi": 73,
          "time": 148.4516995000007,
          "velocity": 0.8267716535433071,
          "duration": 0.38709700000001135
        },
        {
          "name": "D#5",
          "midi": 75,
          "time": 148.8387965000007,
          "velocity": 0.8267716535433071,
          "duration": 0.38709700000001135
        },
        {
          "name": "A#4",
          "midi": 70,
          "time": 149.4194420000007,
          "velocity": 0.8267716535433071,
          "duration": 0.19354849999999146
        },
        {
          "name": "A#4",
          "midi": 70,
          "time": 149.6129905000007,
          "velocity": 0.8267716535433071,
          "duration": 0.19354849999999146
        },
        {
          "name": "A#4",
          "midi": 70,
          "time": 149.8065390000007,
          "velocity": 0.8346456692913385,
          "duration": 0.19354849999999146
        },
        {
          "name": "F5",
          "midi": 77,
          "time": 150.0000875000007,
          "velocity": 0.8346456692913385,
          "duration": 0.38709700000001135
        },
        {
          "name": "D#5",
          "midi": 75,
          "time": 150.3871845000007,
          "velocity": 0.8346456692913385,
          "duration": 0.38709700000001135
        },
        {
          "name": "D#5",
          "midi": 75,
          "time": 150.7742815000007,
          "velocity": 0.8346456692913385,
          "duration": 0.38709700000001135
        },
        {
          "name": "F5",
          "midi": 77,
          "time": 151.16137850000072,
          "velocity": 0.8346456692913385,
          "duration": 0.38709700000001135
        },
        {
          "name": "C#5",
          "midi": 73,
          "time": 152.51621800000072,
          "velocity": 0.84251968503937,
          "duration": 0.19354849999999146
        },
        {
          "name": "C#5",
          "midi": 73,
          "time": 152.7097665000007,
          "velocity": 0.84251968503937,
          "duration": 0.19354849999999146
        },
        {
          "name": "C#5",
          "midi": 73,
          "time": 152.9033150000007,
          "velocity": 0.84251968503937,
          "duration": 0.19354849999999146
        },
        {
          "name": "A#5",
          "midi": 82,
          "time": 153.0968635000007,
          "velocity": 0.84251968503937,
          "duration": 0.38709700000001135
        },
        {
          "name": "F5",
          "midi": 77,
          "time": 153.4839605000007,
          "velocity": 0.84251968503937,
          "duration": 0.38709700000001135
        },
        {
          "name": "D#5",
          "midi": 75,
          "time": 153.87105750000072,
          "velocity": 0.8503937007874016,
          "duration": 0.38709700000001135
        },
        {
          "name": "C#5",
          "midi": 73,
          "time": 154.25815450000073,
          "velocity": 0.8503937007874016,
          "duration": 0.38709700000001135
        },
        {
          "name": "D#5",
          "midi": 75,
          "time": 154.64525150000074,
          "velocity": 0.8503937007874016,
          "duration": 0.38709700000001135
        },
        {
          "name": "A#4",
          "midi": 70,
          "time": 155.61299400000075,
          "velocity": 0.8503937007874016,
          "duration": 0.19354849999999146
        },
        {
          "name": "A#4",
          "midi": 70,
          "time": 155.80654250000075,
          "velocity": 0.8503937007874016,
          "duration": 0.19354849999999146
        },
        {
          "name": "A#4",
          "midi": 70,
          "time": 156.00009100000074,
          "velocity": 0.8503937007874016,
          "duration": 0.19354849999999146
        },
        {
          "name": "F5",
          "midi": 77,
          "time": 156.19363950000073,
          "velocity": 0.8503937007874016,
          "duration": 0.38709700000001135
        },
        {
          "name": "D#5",
          "midi": 75,
          "time": 156.58073650000074,
          "velocity": 0.8503937007874016,
          "duration": 0.38709700000001135
        },
        {
          "name": "D#5",
          "midi": 75,
          "time": 156.96783350000075,
          "velocity": 0.84251968503937,
          "duration": 0.38709700000001135
        },
        {
          "name": "F5",
          "midi": 77,
          "time": 157.35493050000076,
          "velocity": 0.8346456692913385,
          "duration": 0.38709700000001135
        },
        {
          "name": "F6",
          "midi": 89,
          "time": 157.93557600000076,
          "velocity": 0.7874015748031497,
          "duration": 0.19354849999999146
        },
        {
          "name": "D#6",
          "midi": 87,
          "time": 158.12912450000076,
          "velocity": 0.7874015748031497,
          "duration": 0.19354849999999146
        },
        {
          "name": "C#6",
          "midi": 85,
          "time": 158.32267300000075,
          "velocity": 0.7874015748031497,
          "duration": 0.19354849999999146
        },
        {
          "name": "C#6",
          "midi": 85,
          "time": 158.51622150000074,
          "velocity": 0.7874015748031497,
          "duration": 0.19354849999999146
        },
        {
          "name": "F6",
          "midi": 89,
          "time": 159.09686700000074,
          "velocity": 0.7874015748031497,
          "duration": 0.19354849999999146
        },
        {
          "name": "D#6",
          "midi": 87,
          "time": 159.29041550000073,
          "velocity": 0.7874015748031497,
          "duration": 0.19354849999999146
        },
        {
          "name": "C#6",
          "midi": 85,
          "time": 159.48396400000073,
          "velocity": 0.7874015748031497,
          "duration": 0.19354849999999146
        },
        {
          "name": "C#6",
          "midi": 85,
          "time": 159.67751250000072,
          "velocity": 0.7874015748031497,
          "duration": 0.19354849999999146
        },
        {
          "name": "C#5",
          "midi": 73,
          "time": 159.8710610000007,
          "velocity": 0.7874015748031497,
          "duration": 0.19354849999999146
        },
        {
          "name": "C#6",
          "midi": 85,
          "time": 159.8710610000007,
          "velocity": 0.7874015748031497,
          "duration": 0.19354849999999146
        },
        {
          "name": "C#6",
          "midi": 85,
          "time": 160.2581580000007,
          "velocity": 0.7874015748031497,
          "duration": 0.19354849999999146
        },
        {
          "name": "C#5",
          "midi": 73,
          "time": 160.2581580000007,
          "velocity": 0.7874015748031497,
          "duration": 0.19354849999999146
        },
        {
          "name": "A#5",
          "midi": 82,
          "time": 160.64525500000067,
          "velocity": 0.7874015748031497,
          "duration": 0.19354849999999146
        },
        {
          "name": "A#5",
          "midi": 82,
          "time": 161.03235200000066,
          "velocity": 0.7874015748031497,
          "duration": 2.4193562499999928
        }
      ],
      "controlChanges": {
        "6": [
          {
            "number": 6,
            "time": 0,
            "value": 0.09448818897637795
          },
          {
            "number": 6,
            "time": 0,
            "value": 0.09448818897637795
          },
          {
            "number": 6,
            "time": 0,
            "value": 0.09448818897637795
          },
          {
            "number": 6,
            "time": 164.12912800000066,
            "value": 0.09448818897637795
          },
          {
            "number": 6,
            "time": 164.13316026041733,
            "value": 0.09448818897637795
          },
          {
            "number": 6,
            "time": 164.13316026041733,
            "value": 0.09448818897637795
          }
        ],
        "7": [
          {
            "number": 7,
            "time": 0,
            "value": 0.7874015748031497
          },
          {
            "number": 7,
            "time": 0,
            "value": 0.7874015748031497
          },
          {
            "number": 7,
            "time": 0,
            "value": 0.7874015748031497
          },
          {
            "number": 7,
            "time": 0,
            "value": 0.7874015748031497
          },
          {
            "number": 7,
            "time": 164.12912800000066,
            "value": 0.7874015748031497
          },
          {
            "number": 7,
            "time": 164.13316026041733,
            "value": 0.7874015748031497
          },
          {
            "number": 7,
            "time": 164.13316026041733,
            "value": 0.7874015748031497
          }
        ],
        "10": [
          {
            "number": 10,
            "time": 0,
            "value": 0.5039370078740157
          },
          {
            "number": 10,
            "time": 0,
            "value": 0.5039370078740157
          },
          {
            "number": 10,
            "time": 0,
            "value": 0.5039370078740157
          },
          {
            "number": 10,
            "time": 0,
            "value": 0.5039370078740157
          },
          {
            "number": 10,
            "time": 164.12912800000066,
            "value": 0.5039370078740157
          },
          {
            "number": 10,
            "time": 164.13316026041733,
            "value": 0.5039370078740157
          },
          {
            "number": 10,
            "time": 164.13316026041733,
            "value": 0.5039370078740157
          }
        ],
        "100": [
          {
            "number": 100,
            "time": 0,
            "value": 0
          },
          {
            "number": 100,
            "time": 0,
            "value": 0
          },
          {
            "number": 100,
            "time": 0,
            "value": 0
          },
          {
            "number": 100,
            "time": 164.12912800000066,
            "value": 0
          },
          {
            "number": 100,
            "time": 164.13316026041733,
            "value": 0
          },
          {
            "number": 100,
            "time": 164.13316026041733,
            "value": 0
          }
        ],
        "101": [
          {
            "number": 101,
            "time": 0,
            "value": 0
          },
          {
            "number": 101,
            "time": 0,
            "value": 0
          },
          {
            "number": 101,
            "time": 0,
            "value": 0
          },
          {
            "number": 101,
            "time": 164.12912800000066,
            "value": 0
          },
          {
            "number": 101,
            "time": 164.13316026041733,
            "value": 0
          },
          {
            "number": 101,
            "time": 164.13316026041733,
            "value": 0
          }
        ]
      },
      "id": 4,
      "name": "MIDI out #2",
      "channelNumber": 1,
      "isPercussion": false
    },
    {
      "startTime": 0,
      "duration": 163.45170824999911,
      "length": 762,
      "notes": [
        {
          "name": "A#3",
          "midi": 58,
          "time": 0,
          "velocity": 0.7874015748031497,
          "duration": 1.5483879999999999
        },
        {
          "name": "F3",
          "midi": 53,
          "time": 0,
          "velocity": 0.7874015748031497,
          "duration": 1.5483879999999999
        },
        {
          "name": "A#2",
          "midi": 46,
          "time": 0,
          "velocity": 0.7874015748031497,
          "duration": 1.5483879999999999
        },
        {
          "name": "G#2",
          "midi": 44,
          "time": 1.5483879999999999,
          "velocity": 0.7874015748031497,
          "duration": 0.5806454999999999
        },
        {
          "name": "D#3",
          "midi": 51,
          "time": 1.5483879999999999,
          "velocity": 0.7874015748031497,
          "duration": 0.5806454999999999
        },
        {
          "name": "G#3",
          "midi": 56,
          "time": 1.5483879999999999,
          "velocity": 0.7874015748031497,
          "duration": 0.5806454999999999
        },
        {
          "name": "G#2",
          "midi": 44,
          "time": 2.1290335,
          "velocity": 0.7874015748031497,
          "duration": 0.5806454999999997
        },
        {
          "name": "D#3",
          "midi": 51,
          "time": 2.3225819999999997,
          "velocity": 0.7874015748031497,
          "duration": 0.7741939999999996
        },
        {
          "name": "G#3",
          "midi": 56,
          "time": 2.3225819999999997,
          "velocity": 0.7874015748031497,
          "duration": 0.7741939999999996
        },
        {
          "name": "G#2",
          "midi": 44,
          "time": 2.7096789999999995,
          "velocity": 0.7874015748031497,
          "duration": 0.3870969999999998
        },
        {
          "name": "F3",
          "midi": 53,
          "time": 3.0967759999999993,
          "velocity": 0.7874015748031497,
          "duration": 1.548388
        },
        {
          "name": "C3",
          "midi": 48,
          "time": 3.0967759999999993,
          "velocity": 0.7874015748031497,
          "duration": 1.548388
        },
        {
          "name": "F2",
          "midi": 41,
          "time": 3.0967759999999993,
          "velocity": 0.7874015748031497,
          "duration": 1.548388
        },
        {
          "name": "F#3",
          "midi": 54,
          "time": 4.645163999999999,
          "velocity": 0.7874015748031497,
          "duration": 0.5806455000000001
        },
        {
          "name": "C#3",
          "midi": 49,
          "time": 4.645163999999999,
          "velocity": 0.7874015748031497,
          "duration": 0.5806455000000001
        },
        {
          "name": "F#2",
          "midi": 42,
          "time": 4.645163999999999,
          "velocity": 0.7874015748031497,
          "duration": 0.5806455000000001
        },
        {
          "name": "F#2",
          "midi": 42,
          "time": 5.2258094999999996,
          "velocity": 0.7874015748031497,
          "duration": 0.5806455000000001
        },
        {
          "name": "F#3",
          "midi": 54,
          "time": 5.419358,
          "velocity": 0.7874015748031497,
          "duration": 0.7741939999999996
        },
        {
          "name": "C#3",
          "midi": 49,
          "time": 5.419358,
          "velocity": 0.7874015748031497,
          "duration": 0.7741939999999996
        },
        {
          "name": "F#2",
          "midi": 42,
          "time": 5.806455,
          "velocity": 0.7874015748031497,
          "duration": 0.3870969999999998
        },
        {
          "name": "A#2",
          "midi": 46,
          "time": 6.1935519999999995,
          "velocity": 0.7874015748031497,
          "duration": 1.548388
        },
        {
          "name": "F3",
          "midi": 53,
          "time": 6.1935519999999995,
          "velocity": 0.7874015748031497,
          "duration": 1.548388
        },
        {
          "name": "A#3",
          "midi": 58,
          "time": 6.1935519999999995,
          "velocity": 0.7874015748031497,
          "duration": 1.548388
        },
        {
          "name": "G#3",
          "midi": 56,
          "time": 7.74194,
          "velocity": 0.7874015748031497,
          "duration": 0.5806454999999993
        },
        {
          "name": "D#3",
          "midi": 51,
          "time": 7.74194,
          "velocity": 0.7874015748031497,
          "duration": 0.5806454999999993
        },
        {
          "name": "G#2",
          "midi": 44,
          "time": 7.74194,
          "velocity": 0.7874015748031497,
          "duration": 0.5806454999999993
        },
        {
          "name": "G#2",
          "midi": 44,
          "time": 8.322585499999999,
          "velocity": 0.7874015748031497,
          "duration": 0.580645500000001
        },
        {
          "name": "G#3",
          "midi": 56,
          "time": 8.516134,
          "velocity": 0.7874015748031497,
          "duration": 0.7741940000000014
        },
        {
          "name": "D#3",
          "midi": 51,
          "time": 8.516134,
          "velocity": 0.7874015748031497,
          "duration": 0.7741940000000014
        },
        {
          "name": "G#2",
          "midi": 44,
          "time": 8.903231,
          "velocity": 0.7874015748031497,
          "duration": 0.3870970000000007
        },
        {
          "name": "F2",
          "midi": 41,
          "time": 9.290328,
          "velocity": 0.7874015748031497,
          "duration": 1.5483879999999992
        },
        {
          "name": "C3",
          "midi": 48,
          "time": 9.290328,
          "velocity": 0.7874015748031497,
          "duration": 1.5483879999999992
        },
        {
          "name": "F3",
          "midi": 53,
          "time": 9.290328,
          "velocity": 0.7874015748031497,
          "duration": 1.5483879999999992
        },
        {
          "name": "F#2",
          "midi": 42,
          "time": 10.838716,
          "velocity": 0.7874015748031497,
          "duration": 0.5806454999999993
        },
        {
          "name": "C#3",
          "midi": 49,
          "time": 10.838716,
          "velocity": 0.7874015748031497,
          "duration": 0.5806454999999993
        },
        {
          "name": "F#3",
          "midi": 54,
          "time": 10.838716,
          "velocity": 0.7874015748031497,
          "duration": 0.5806454999999993
        },
        {
          "name": "F#2",
          "midi": 42,
          "time": 11.419361499999999,
          "velocity": 0.7874015748031497,
          "duration": 0.580645500000001
        },
        {
          "name": "F#3",
          "midi": 54,
          "time": 11.61291,
          "velocity": 0.7874015748031497,
          "duration": 0.7741940000000014
        },
        {
          "name": "C#3",
          "midi": 49,
          "time": 11.61291,
          "velocity": 0.7874015748031497,
          "duration": 0.7741940000000014
        },
        {
          "name": "F#2",
          "midi": 42,
          "time": 12.000007,
          "velocity": 0.7874015748031497,
          "duration": 0.3870970000000007
        },
        {
          "name": "A#2",
          "midi": 46,
          "time": 12.387104,
          "velocity": 0.7874015748031497,
          "duration": 1.5483879999999992
        },
        {
          "name": "F3",
          "midi": 53,
          "time": 12.387104,
          "velocity": 0.7874015748031497,
          "duration": 0.5806454999999993
        },
        {
          "name": "A#3",
          "midi": 58,
          "time": 12.387104,
          "velocity": 0.7874015748031497,
          "duration": 0.5806454999999993
        },
        {
          "name": "A#3",
          "midi": 58,
          "time": 12.9677495,
          "velocity": 0.7874015748031497,
          "duration": 0.5806454999999993
        },
        {
          "name": "F3",
          "midi": 53,
          "time": 12.9677495,
          "velocity": 0.7874015748031497,
          "duration": 0.5806454999999993
        },
        {
          "name": "A#3",
          "midi": 58,
          "time": 13.548395,
          "velocity": 0.7874015748031497,
          "duration": 0.3870970000000007
        },
        {
          "name": "F3",
          "midi": 53,
          "time": 13.548395,
          "velocity": 0.7874015748031497,
          "duration": 0.3870970000000007
        },
        {
          "name": "G#2",
          "midi": 44,
          "time": 13.935492,
          "velocity": 0.7874015748031497,
          "duration": 1.5483879999999992
        },
        {
          "name": "G#3",
          "midi": 56,
          "time": 13.935492,
          "velocity": 0.7874015748031497,
          "duration": 0.5806454999999993
        },
        {
          "name": "D#3",
          "midi": 51,
          "time": 13.935492,
          "velocity": 0.7874015748031497,
          "duration": 0.5806454999999993
        },
        {
          "name": "D#3",
          "midi": 51,
          "time": 14.5161375,
          "velocity": 0.7874015748031497,
          "duration": 0.5806454999999993
        },
        {
          "name": "G#3",
          "midi": 56,
          "time": 14.5161375,
          "velocity": 0.7874015748031497,
          "duration": 0.5806454999999993
        },
        {
          "name": "D#3",
          "midi": 51,
          "time": 15.096782999999999,
          "velocity": 0.7874015748031497,
          "duration": 0.3870970000000007
        },
        {
          "name": "G#3",
          "midi": 56,
          "time": 15.096782999999999,
          "velocity": 0.7874015748031497,
          "duration": 0.3870970000000007
        },
        {
          "name": "C3",
          "midi": 48,
          "time": 15.48388,
          "velocity": 0.7874015748031497,
          "duration": 0.5806454999999993
        },
        {
          "name": "F3",
          "midi": 53,
          "time": 15.48388,
          "velocity": 0.7874015748031497,
          "duration": 0.5806454999999993
        },
        {
          "name": "F2",
          "midi": 41,
          "time": 15.48388,
          "velocity": 0.7874015748031497,
          "duration": 1.5483879999999992
        },
        {
          "name": "C3",
          "midi": 48,
          "time": 16.0645255,
          "velocity": 0.7874015748031497,
          "duration": 0.5806454999999993
        },
        {
          "name": "F3",
          "midi": 53,
          "time": 16.0645255,
          "velocity": 0.7874015748031497,
          "duration": 0.5806454999999993
        },
        {
          "name": "F3",
          "midi": 53,
          "time": 16.645170999999998,
          "velocity": 0.7874015748031497,
          "duration": 0.3870970000000007
        },
        {
          "name": "C3",
          "midi": 48,
          "time": 16.645170999999998,
          "velocity": 0.7874015748031497,
          "duration": 0.3870970000000007
        },
        {
          "name": "C#3",
          "midi": 49,
          "time": 17.032268,
          "velocity": 0.7874015748031497,
          "duration": 0.5806454999999993
        },
        {
          "name": "F#3",
          "midi": 54,
          "time": 17.032268,
          "velocity": 0.7874015748031497,
          "duration": 0.5806454999999993
        },
        {
          "name": "F#2",
          "midi": 42,
          "time": 17.032268,
          "velocity": 0.7874015748031497,
          "duration": 1.5483879999999992
        },
        {
          "name": "F#3",
          "midi": 54,
          "time": 17.612913499999998,
          "velocity": 0.7874015748031497,
          "duration": 0.5806454999999993
        },
        {
          "name": "C#3",
          "midi": 49,
          "time": 17.612913499999998,
          "velocity": 0.7874015748031497,
          "duration": 0.5806454999999993
        },
        {
          "name": "F#3",
          "midi": 54,
          "time": 18.193558999999997,
          "velocity": 0.7874015748031497,
          "duration": 0.3870970000000007
        },
        {
          "name": "C#3",
          "midi": 49,
          "time": 18.193558999999997,
          "velocity": 0.7874015748031497,
          "duration": 0.3870970000000007
        },
        {
          "name": "A#3",
          "midi": 58,
          "time": 18.580655999999998,
          "velocity": 0.7874015748031497,
          "duration": 0.5806454999999993
        },
        {
          "name": "F3",
          "midi": 53,
          "time": 18.580655999999998,
          "velocity": 0.7874015748031497,
          "duration": 0.5806454999999993
        },
        {
          "name": "A#2",
          "midi": 46,
          "time": 18.580655999999998,
          "velocity": 0.7874015748031497,
          "duration": 1.5483879999999992
        },
        {
          "name": "A#3",
          "midi": 58,
          "time": 19.161301499999997,
          "velocity": 0.7874015748031497,
          "duration": 0.5806454999999993
        },
        {
          "name": "F3",
          "midi": 53,
          "time": 19.161301499999997,
          "velocity": 0.7874015748031497,
          "duration": 0.5806454999999993
        },
        {
          "name": "A#3",
          "midi": 58,
          "time": 19.741946999999996,
          "velocity": 0.7874015748031497,
          "duration": 0.3870970000000007
        },
        {
          "name": "F3",
          "midi": 53,
          "time": 19.741946999999996,
          "velocity": 0.7874015748031497,
          "duration": 0.3870970000000007
        },
        {
          "name": "D#3",
          "midi": 51,
          "time": 20.129043999999997,
          "velocity": 0.7874015748031497,
          "duration": 0.5806454999999993
        },
        {
          "name": "G#3",
          "midi": 56,
          "time": 20.129043999999997,
          "velocity": 0.7874015748031497,
          "duration": 0.5806454999999993
        },
        {
          "name": "G#2",
          "midi": 44,
          "time": 20.129043999999997,
          "velocity": 0.7874015748031497,
          "duration": 1.5483879999999992
        },
        {
          "name": "D#3",
          "midi": 51,
          "time": 20.709689499999996,
          "velocity": 0.7874015748031497,
          "duration": 0.5806454999999993
        },
        {
          "name": "G#3",
          "midi": 56,
          "time": 20.709689499999996,
          "velocity": 0.7874015748031497,
          "duration": 0.5806454999999993
        },
        {
          "name": "G#3",
          "midi": 56,
          "time": 21.290334999999995,
          "velocity": 0.7874015748031497,
          "duration": 0.3870970000000007
        },
        {
          "name": "D#3",
          "midi": 51,
          "time": 21.290334999999995,
          "velocity": 0.7874015748031497,
          "duration": 0.3870970000000007
        },
        {
          "name": "C3",
          "midi": 48,
          "time": 21.677431999999996,
          "velocity": 0.7874015748031497,
          "duration": 0.5806454999999993
        },
        {
          "name": "F3",
          "midi": 53,
          "time": 21.677431999999996,
          "velocity": 0.7874015748031497,
          "duration": 0.5806454999999993
        },
        {
          "name": "F2",
          "midi": 41,
          "time": 21.677431999999996,
          "velocity": 0.7874015748031497,
          "duration": 1.5483879999999992
        },
        {
          "name": "C3",
          "midi": 48,
          "time": 22.258077499999995,
          "velocity": 0.7874015748031497,
          "duration": 0.5806454999999993
        },
        {
          "name": "F3",
          "midi": 53,
          "time": 22.258077499999995,
          "velocity": 0.7874015748031497,
          "duration": 0.5806454999999993
        },
        {
          "name": "C3",
          "midi": 48,
          "time": 22.838722999999995,
          "velocity": 0.7874015748031497,
          "duration": 0.3870970000000007
        },
        {
          "name": "F3",
          "midi": 53,
          "time": 22.838722999999995,
          "velocity": 0.7874015748031497,
          "duration": 0.3870970000000007
        },
        {
          "name": "C#3",
          "midi": 49,
          "time": 23.225819999999995,
          "velocity": 0.7874015748031497,
          "duration": 1.5483879999999992
        },
        {
          "name": "F#3",
          "midi": 54,
          "time": 23.225819999999995,
          "velocity": 0.7874015748031497,
          "duration": 1.5483879999999992
        },
        {
          "name": "F#2",
          "midi": 42,
          "time": 23.225819999999995,
          "velocity": 0.7874015748031497,
          "duration": 1.5483879999999992
        },
        {
          "name": "A#2",
          "midi": 46,
          "time": 24.774207999999994,
          "velocity": 0.7874015748031497,
          "duration": 0.7741940000000014
        },
        {
          "name": "A#1",
          "midi": 34,
          "time": 24.774207999999994,
          "velocity": 0.7874015748031497,
          "duration": 0.7741940000000014
        },
        {
          "name": "A#2",
          "midi": 46,
          "time": 25.548401999999996,
          "velocity": 0.7874015748031497,
          "duration": 0.3870970000000007
        },
        {
          "name": "A#1",
          "midi": 34,
          "time": 25.935498999999997,
          "velocity": 0.7874015748031497,
          "duration": 0.38709699999999714
        },
        {
          "name": "A#2",
          "midi": 46,
          "time": 26.129047499999995,
          "velocity": 0.7874015748031497,
          "duration": 0.38709699999999714
        },
        {
          "name": "A#1",
          "midi": 34,
          "time": 26.516144499999992,
          "velocity": 0.7874015748031497,
          "duration": 0.19354849999999857
        },
        {
          "name": "F1",
          "midi": 29,
          "time": 26.70969299999999,
          "velocity": 0.7874015748031497,
          "duration": 0.3870970000000007
        },
        {
          "name": "F2",
          "midi": 41,
          "time": 26.70969299999999,
          "velocity": 0.7874015748031497,
          "duration": 0.6774197499999985
        },
        {
          "name": "F1",
          "midi": 29,
          "time": 27.29033849999999,
          "velocity": 0.7874015748031497,
          "duration": 0.38709699999999714
        },
        {
          "name": "F2",
          "midi": 41,
          "time": 27.48388699999999,
          "velocity": 0.7874015748031497,
          "duration": 0.38709699999999714
        },
        {
          "name": "A#2",
          "midi": 46,
          "time": 27.870983999999986,
          "velocity": 0.7874015748031497,
          "duration": 0.7741940000000014
        },
        {
          "name": "A#1",
          "midi": 34,
          "time": 27.870983999999986,
          "velocity": 0.7874015748031497,
          "duration": 0.7741940000000014
        },
        {
          "name": "A#2",
          "midi": 46,
          "time": 28.645177999999987,
          "velocity": 0.7874015748031497,
          "duration": 0.3870970000000007
        },
        {
          "name": "A#1",
          "midi": 34,
          "time": 29.032274999999988,
          "velocity": 0.7874015748031497,
          "duration": 0.38709699999999714
        },
        {
          "name": "A#2",
          "midi": 46,
          "time": 29.225823499999986,
          "velocity": 0.7874015748031497,
          "duration": 0.38709699999999714
        },
        {
          "name": "A#1",
          "midi": 34,
          "time": 29.612920499999984,
          "velocity": 0.7874015748031497,
          "duration": 0.19354849999999857
        },
        {
          "name": "F2",
          "midi": 41,
          "time": 29.806468999999982,
          "velocity": 0.7874015748031497,
          "duration": 0.5806454999999993
        },
        {
          "name": "F1",
          "midi": 29,
          "time": 29.806468999999982,
          "velocity": 0.7874015748031497,
          "duration": 0.5806454999999993
        },
        {
          "name": "D#1",
          "midi": 27,
          "time": 30.38711449999998,
          "velocity": 0.7874015748031497,
          "duration": 0.5806454999999993
        },
        {
          "name": "D#2",
          "midi": 39,
          "time": 30.38711449999998,
          "velocity": 0.7874015748031497,
          "duration": 0.5806454999999993
        },
        {
          "name": "A#2",
          "midi": 46,
          "time": 30.96775999999998,
          "velocity": 0.7874015748031497,
          "duration": 0.7741940000000014
        },
        {
          "name": "A#1",
          "midi": 34,
          "time": 30.96775999999998,
          "velocity": 0.7874015748031497,
          "duration": 0.7741940000000014
        },
        {
          "name": "A#2",
          "midi": 46,
          "time": 31.741953999999982,
          "velocity": 0.7874015748031497,
          "duration": 0.3870970000000007
        },
        {
          "name": "A#1",
          "midi": 34,
          "time": 32.12905099999998,
          "velocity": 0.7874015748031497,
          "duration": 0.38709699999999714
        },
        {
          "name": "A#2",
          "midi": 46,
          "time": 32.32259949999998,
          "velocity": 0.7874015748031497,
          "duration": 0.38709699999999714
        },
        {
          "name": "A#1",
          "midi": 34,
          "time": 32.70969649999998,
          "velocity": 0.7874015748031497,
          "duration": 0.19354849999999857
        },
        {
          "name": "F1",
          "midi": 29,
          "time": 32.90324499999998,
          "velocity": 0.7874015748031497,
          "duration": 0.38709699999999714
        },
        {
          "name": "F2",
          "midi": 41,
          "time": 32.90324499999998,
          "velocity": 0.7874015748031497,
          "duration": 0.6774197499999985
        },
        {
          "name": "F1",
          "midi": 29,
          "time": 33.48389049999997,
          "velocity": 0.7874015748031497,
          "duration": 0.38709700000000424
        },
        {
          "name": "F2",
          "midi": 41,
          "time": 33.67743899999998,
          "velocity": 0.7874015748031497,
          "duration": 0.38709699999999714
        },
        {
          "name": "A#1",
          "midi": 34,
          "time": 34.064535999999976,
          "velocity": 0.7874015748031497,
          "duration": 0.7741940000000014
        },
        {
          "name": "A#2",
          "midi": 46,
          "time": 34.064535999999976,
          "velocity": 0.7874015748031497,
          "duration": 0.7741940000000014
        },
        {
          "name": "A#2",
          "midi": 46,
          "time": 34.83872999999998,
          "velocity": 0.7874015748031497,
          "duration": 0.38709699999999714
        },
        {
          "name": "A#1",
          "midi": 34,
          "time": 35.225826999999974,
          "velocity": 0.7874015748031497,
          "duration": 0.38709699999999714
        },
        {
          "name": "A#2",
          "midi": 46,
          "time": 35.41937549999997,
          "velocity": 0.7874015748031497,
          "duration": 0.38709699999999714
        },
        {
          "name": "A#1",
          "midi": 34,
          "time": 35.80647249999997,
          "velocity": 0.7874015748031497,
          "duration": 0.19354849999999857
        },
        {
          "name": "F2",
          "midi": 41,
          "time": 36.00002099999997,
          "velocity": 0.7874015748031497,
          "duration": 0.5806455000000028
        },
        {
          "name": "F1",
          "midi": 29,
          "time": 36.00002099999997,
          "velocity": 0.7874015748031497,
          "duration": 0.5806455000000028
        },
        {
          "name": "D#2",
          "midi": 39,
          "time": 36.58066649999997,
          "velocity": 0.7874015748031497,
          "duration": 0.5806455000000028
        },
        {
          "name": "D#1",
          "midi": 27,
          "time": 36.58066649999997,
          "velocity": 0.7874015748031497,
          "duration": 0.5806455000000028
        },
        {
          "name": "A#2",
          "midi": 46,
          "time": 37.161311999999974,
          "velocity": 0.7874015748031497,
          "duration": 0.5806455000000028
        },
        {
          "name": "F3",
          "midi": 53,
          "time": 37.161311999999974,
          "velocity": 0.7874015748031497,
          "duration": 0.5806455000000028
        },
        {
          "name": "A#3",
          "midi": 58,
          "time": 37.161311999999974,
          "velocity": 0.7874015748031497,
          "duration": 0.5806455000000028
        },
        {
          "name": "A#2",
          "midi": 46,
          "time": 37.74195749999998,
          "velocity": 0.7874015748031497,
          "duration": 0.5806454999999957
        },
        {
          "name": "F3",
          "midi": 53,
          "time": 37.935505999999975,
          "velocity": 0.7874015748031497,
          "duration": 0.7741939999999943
        },
        {
          "name": "A#3",
          "midi": 58,
          "time": 37.935505999999975,
          "velocity": 0.7874015748031497,
          "duration": 0.7741939999999943
        },
        {
          "name": "A#2",
          "midi": 46,
          "time": 38.32260299999997,
          "velocity": 0.7874015748031497,
          "duration": 0.38709699999999714
        },
        {
          "name": "G#2",
          "midi": 44,
          "time": 38.70969999999997,
          "velocity": 0.7874015748031497,
          "duration": 0.5806455000000028
        },
        {
          "name": "D#3",
          "midi": 51,
          "time": 38.70969999999997,
          "velocity": 0.7874015748031497,
          "duration": 0.5806455000000028
        },
        {
          "name": "G#3",
          "midi": 56,
          "time": 38.70969999999997,
          "velocity": 0.7874015748031497,
          "duration": 0.5806455000000028
        },
        {
          "name": "G#2",
          "midi": 44,
          "time": 39.29034549999997,
          "velocity": 0.7874015748031497,
          "duration": 0.5806454999999957
        },
        {
          "name": "G#3",
          "midi": 56,
          "time": 39.48389399999997,
          "velocity": 0.7874015748031497,
          "duration": 0.7741939999999943
        },
        {
          "name": "D#3",
          "midi": 51,
          "time": 39.48389399999997,
          "velocity": 0.7874015748031497,
          "duration": 0.7741939999999943
        },
        {
          "name": "G#2",
          "midi": 44,
          "time": 39.87099099999997,
          "velocity": 0.7874015748031497,
          "duration": 0.38709699999999714
        },
        {
          "name": "F3",
          "midi": 53,
          "time": 40.258087999999965,
          "velocity": 0.7874015748031497,
          "duration": 0.5806455000000028
        },
        {
          "name": "C3",
          "midi": 48,
          "time": 40.258087999999965,
          "velocity": 0.7874015748031497,
          "duration": 0.5806455000000028
        },
        {
          "name": "F2",
          "midi": 41,
          "time": 40.258087999999965,
          "velocity": 0.7874015748031497,
          "duration": 0.5806455000000028
        },
        {
          "name": "F2",
          "midi": 41,
          "time": 40.83873349999997,
          "velocity": 0.7874015748031497,
          "duration": 0.5806454999999957
        },
        {
          "name": "C3",
          "midi": 48,
          "time": 41.03228199999997,
          "velocity": 0.7874015748031497,
          "duration": 0.7741939999999943
        },
        {
          "name": "F3",
          "midi": 53,
          "time": 41.03228199999997,
          "velocity": 0.7874015748031497,
          "duration": 0.7741939999999943
        },
        {
          "name": "F2",
          "midi": 41,
          "time": 41.419378999999964,
          "velocity": 0.7874015748031497,
          "duration": 0.38709699999999714
        },
        {
          "name": "F#2",
          "midi": 42,
          "time": 41.80647599999996,
          "velocity": 0.7874015748031497,
          "duration": 0.5806455000000028
        },
        {
          "name": "C#3",
          "midi": 49,
          "time": 41.80647599999996,
          "velocity": 0.7874015748031497,
          "duration": 0.5806455000000028
        },
        {
          "name": "F#3",
          "midi": 54,
          "time": 41.80647599999996,
          "velocity": 0.7874015748031497,
          "duration": 0.5806455000000028
        },
        {
          "name": "F#2",
          "midi": 42,
          "time": 42.387121499999964,
          "velocity": 0.7874015748031497,
          "duration": 0.5806454999999957
        },
        {
          "name": "F#3",
          "midi": 54,
          "time": 42.58066999999996,
          "velocity": 0.7874015748031497,
          "duration": 0.7741939999999943
        },
        {
          "name": "C#3",
          "midi": 49,
          "time": 42.58066999999996,
          "velocity": 0.7874015748031497,
          "duration": 0.7741939999999943
        },
        {
          "name": "F#2",
          "midi": 42,
          "time": 42.96776699999996,
          "velocity": 0.7874015748031497,
          "duration": 0.38709699999999714
        },
        {
          "name": "A#2",
          "midi": 46,
          "time": 43.35486399999996,
          "velocity": 0.7874015748031497,
          "duration": 0.5806455000000028
        },
        {
          "name": "F3",
          "midi": 53,
          "time": 43.35486399999996,
          "velocity": 0.7874015748031497,
          "duration": 0.5806455000000028
        },
        {
          "name": "A#3",
          "midi": 58,
          "time": 43.35486399999996,
          "velocity": 0.7874015748031497,
          "duration": 0.5806455000000028
        },
        {
          "name": "A#2",
          "midi": 46,
          "time": 43.93550949999996,
          "velocity": 0.7874015748031497,
          "duration": 0.5806454999999957
        },
        {
          "name": "A#3",
          "midi": 58,
          "time": 44.12905799999996,
          "velocity": 0.7874015748031497,
          "duration": 0.7741939999999943
        },
        {
          "name": "F3",
          "midi": 53,
          "time": 44.12905799999996,
          "velocity": 0.7874015748031497,
          "duration": 0.7741939999999943
        },
        {
          "name": "A#2",
          "midi": 46,
          "time": 44.516154999999955,
          "velocity": 0.7874015748031497,
          "duration": 0.38709699999999714
        },
        {
          "name": "G#3",
          "midi": 56,
          "time": 44.90325199999995,
          "velocity": 0.7874015748031497,
          "duration": 0.5806455000000028
        },
        {
          "name": "D#3",
          "midi": 51,
          "time": 44.90325199999995,
          "velocity": 0.7874015748031497,
          "duration": 0.5806455000000028
        },
        {
          "name": "G#2",
          "midi": 44,
          "time": 44.90325199999995,
          "velocity": 0.7874015748031497,
          "duration": 0.5806455000000028
        },
        {
          "name": "G#2",
          "midi": 44,
          "time": 45.483897499999955,
          "velocity": 0.7874015748031497,
          "duration": 0.5806454999999957
        },
        {
          "name": "D#3",
          "midi": 51,
          "time": 45.677445999999954,
          "velocity": 0.7874015748031497,
          "duration": 0.7741939999999943
        },
        {
          "name": "G#3",
          "midi": 56,
          "time": 45.677445999999954,
          "velocity": 0.7874015748031497,
          "duration": 0.7741939999999943
        },
        {
          "name": "G#2",
          "midi": 44,
          "time": 46.06454299999995,
          "velocity": 0.7874015748031497,
          "duration": 0.38709699999999714
        },
        {
          "name": "F2",
          "midi": 41,
          "time": 46.45163999999995,
          "velocity": 0.7874015748031497,
          "duration": 0.5806455000000028
        },
        {
          "name": "C3",
          "midi": 48,
          "time": 46.45163999999995,
          "velocity": 0.7874015748031497,
          "duration": 0.5806455000000028
        },
        {
          "name": "F3",
          "midi": 53,
          "time": 46.45163999999995,
          "velocity": 0.7874015748031497,
          "duration": 0.5806455000000028
        },
        {
          "name": "F2",
          "midi": 41,
          "time": 47.03228549999995,
          "velocity": 0.7874015748031497,
          "duration": 0.5806454999999957
        },
        {
          "name": "F3",
          "midi": 53,
          "time": 47.22583399999995,
          "velocity": 0.7874015748031497,
          "duration": 0.7741939999999943
        },
        {
          "name": "C3",
          "midi": 48,
          "time": 47.22583399999995,
          "velocity": 0.7874015748031497,
          "duration": 0.7741939999999943
        },
        {
          "name": "F2",
          "midi": 41,
          "time": 47.612930999999946,
          "velocity": 0.7874015748031497,
          "duration": 0.38709699999999714
        },
        {
          "name": "F#3",
          "midi": 54,
          "time": 48.00002799999994,
          "velocity": 0.7874015748031497,
          "duration": 0.5806455000000028
        },
        {
          "name": "C#3",
          "midi": 49,
          "time": 48.00002799999994,
          "velocity": 0.7874015748031497,
          "duration": 0.5806455000000028
        },
        {
          "name": "F#2",
          "midi": 42,
          "time": 48.00002799999994,
          "velocity": 0.7874015748031497,
          "duration": 0.5806455000000028
        },
        {
          "name": "F#2",
          "midi": 42,
          "time": 48.580673499999946,
          "velocity": 0.7874015748031497,
          "duration": 0.5806454999999957
        },
        {
          "name": "F#3",
          "midi": 54,
          "time": 48.774221999999945,
          "velocity": 0.7874015748031497,
          "duration": 0.7741939999999943
        },
        {
          "name": "C#3",
          "midi": 49,
          "time": 48.774221999999945,
          "velocity": 0.7874015748031497,
          "duration": 0.7741939999999943
        },
        {
          "name": "F#2",
          "midi": 42,
          "time": 49.16131899999994,
          "velocity": 0.7874015748031497,
          "duration": 0.38709699999999714
        },
        {
          "name": "A#3",
          "midi": 58,
          "time": 49.54841599999994,
          "velocity": 0.7874015748031497,
          "duration": 0.5806455000000028
        },
        {
          "name": "F3",
          "midi": 53,
          "time": 49.54841599999994,
          "velocity": 0.7874015748031497,
          "duration": 0.5806455000000028
        },
        {
          "name": "A#2",
          "midi": 46,
          "time": 49.54841599999994,
          "velocity": 0.7874015748031497,
          "duration": 1.5483880000000028
        },
        {
          "name": "A#3",
          "midi": 58,
          "time": 50.12906149999994,
          "velocity": 0.7874015748031497,
          "duration": 0.5806455000000028
        },
        {
          "name": "F3",
          "midi": 53,
          "time": 50.12906149999994,
          "velocity": 0.7874015748031497,
          "duration": 0.5806455000000028
        },
        {
          "name": "F3",
          "midi": 53,
          "time": 50.709706999999945,
          "velocity": 0.7874015748031497,
          "duration": 0.38709699999999714
        },
        {
          "name": "A#3",
          "midi": 58,
          "time": 50.709706999999945,
          "velocity": 0.7874015748031497,
          "duration": 0.38709699999999714
        },
        {
          "name": "D#3",
          "midi": 51,
          "time": 51.09680399999994,
          "velocity": 0.7874015748031497,
          "duration": 0.5806455000000028
        },
        {
          "name": "G#3",
          "midi": 56,
          "time": 51.09680399999994,
          "velocity": 0.7874015748031497,
          "duration": 0.5806455000000028
        },
        {
          "name": "G#2",
          "midi": 44,
          "time": 51.09680399999994,
          "velocity": 0.7874015748031497,
          "duration": 1.5483880000000028
        },
        {
          "name": "D#3",
          "midi": 51,
          "time": 51.677449499999945,
          "velocity": 0.7874015748031497,
          "duration": 0.5806455000000028
        },
        {
          "name": "G#3",
          "midi": 56,
          "time": 51.677449499999945,
          "velocity": 0.7874015748031497,
          "duration": 0.5806455000000028
        },
        {
          "name": "G#3",
          "midi": 56,
          "time": 52.25809499999995,
          "velocity": 0.7874015748031497,
          "duration": 0.38709699999999714
        },
        {
          "name": "D#3",
          "midi": 51,
          "time": 52.25809499999995,
          "velocity": 0.7874015748031497,
          "duration": 0.38709699999999714
        },
        {
          "name": "A#2",
          "midi": 46,
          "time": 52.645191999999945,
          "velocity": 0.7874015748031497,
          "duration": 1.5483880000000028
        },
        {
          "name": "A#3",
          "midi": 58,
          "time": 52.645191999999945,
          "velocity": 0.7874015748031497,
          "duration": 0.5806455000000028
        },
        {
          "name": "F3",
          "midi": 53,
          "time": 52.645191999999945,
          "velocity": 0.7874015748031497,
          "duration": 0.5806455000000028
        },
        {
          "name": "A#3",
          "midi": 58,
          "time": 53.22583749999995,
          "velocity": 0.7874015748031497,
          "duration": 0.5806455000000028
        },
        {
          "name": "F3",
          "midi": 53,
          "time": 53.22583749999995,
          "velocity": 0.7874015748031497,
          "duration": 0.5806455000000028
        },
        {
          "name": "F3",
          "midi": 53,
          "time": 53.80648299999995,
          "velocity": 0.7874015748031497,
          "duration": 0.38709699999999714
        },
        {
          "name": "A#3",
          "midi": 58,
          "time": 53.80648299999995,
          "velocity": 0.7874015748031497,
          "duration": 0.38709699999999714
        },
        {
          "name": "A#2",
          "midi": 46,
          "time": 54.19357999999995,
          "velocity": 0.7874015748031497,
          "duration": 1.5483880000000028
        },
        {
          "name": "A#3",
          "midi": 58,
          "time": 54.19357999999995,
          "velocity": 0.7874015748031497,
          "duration": 0.5806455000000028
        },
        {
          "name": "F3",
          "midi": 53,
          "time": 54.19357999999995,
          "velocity": 0.7874015748031497,
          "duration": 0.5806455000000028
        },
        {
          "name": "A#3",
          "midi": 58,
          "time": 54.77422549999995,
          "velocity": 0.7874015748031497,
          "duration": 0.5806455000000028
        },
        {
          "name": "F3",
          "midi": 53,
          "time": 54.77422549999995,
          "velocity": 0.7874015748031497,
          "duration": 0.5806455000000028
        },
        {
          "name": "A#3",
          "midi": 58,
          "time": 55.35487099999995,
          "velocity": 0.7874015748031497,
          "duration": 0.38709699999999714
        },
        {
          "name": "F3",
          "midi": 53,
          "time": 55.35487099999995,
          "velocity": 0.7874015748031497,
          "duration": 0.38709699999999714
        },
        {
          "name": "F#3",
          "midi": 54,
          "time": 55.74196799999995,
          "velocity": 0.7874015748031497,
          "duration": 0.5806455000000028
        },
        {
          "name": "C#3",
          "midi": 49,
          "time": 55.74196799999995,
          "velocity": 0.7874015748031497,
          "duration": 0.5806455000000028
        },
        {
          "name": "F#2",
          "midi": 42,
          "time": 55.74196799999995,
          "velocity": 0.7874015748031497,
          "duration": 1.5483880000000028
        },
        {
          "name": "F#3",
          "midi": 54,
          "time": 56.32261349999995,
          "velocity": 0.7874015748031497,
          "duration": 0.5806455000000028
        },
        {
          "name": "C#3",
          "midi": 49,
          "time": 56.32261349999995,
          "velocity": 0.7874015748031497,
          "duration": 0.5806455000000028
        },
        {
          "name": "C#3",
          "midi": 49,
          "time": 56.903258999999956,
          "velocity": 0.7874015748031497,
          "duration": 0.38709699999999714
        },
        {
          "name": "F#3",
          "midi": 54,
          "time": 56.903258999999956,
          "velocity": 0.7874015748031497,
          "duration": 0.38709699999999714
        },
        {
          "name": "G#2",
          "midi": 44,
          "time": 57.29035599999995,
          "velocity": 0.7874015748031497,
          "duration": 1.5483880000000028
        },
        {
          "name": "G#3",
          "midi": 56,
          "time": 57.29035599999995,
          "velocity": 0.7874015748031497,
          "duration": 0.5806455000000028
        },
        {
          "name": "D#3",
          "midi": 51,
          "time": 57.29035599999995,
          "velocity": 0.7874015748031497,
          "duration": 0.5806455000000028
        },
        {
          "name": "G#3",
          "midi": 56,
          "time": 57.871001499999956,
          "velocity": 0.7874015748031497,
          "duration": 0.5806455000000028
        },
        {
          "name": "D#3",
          "midi": 51,
          "time": 57.871001499999956,
          "velocity": 0.7874015748031497,
          "duration": 0.5806455000000028
        },
        {
          "name": "G#3",
          "midi": 56,
          "time": 58.45164699999996,
          "velocity": 0.7874015748031497,
          "duration": 0.38709699999999714
        },
        {
          "name": "D#3",
          "midi": 51,
          "time": 58.45164699999996,
          "velocity": 0.7874015748031497,
          "duration": 0.38709699999999714
        },
        {
          "name": "F3",
          "midi": 53,
          "time": 58.838743999999956,
          "velocity": 0.7874015748031497,
          "duration": 0.5806455000000028
        },
        {
          "name": "A#3",
          "midi": 58,
          "time": 58.838743999999956,
          "velocity": 0.7874015748031497,
          "duration": 0.5806455000000028
        },
        {
          "name": "A#2",
          "midi": 46,
          "time": 58.838743999999956,
          "velocity": 0.7874015748031497,
          "duration": 1.5483880000000028
        },
        {
          "name": "F3",
          "midi": 53,
          "time": 59.41938949999996,
          "velocity": 0.7874015748031497,
          "duration": 0.5806455000000028
        },
        {
          "name": "A#3",
          "midi": 58,
          "time": 59.41938949999996,
          "velocity": 0.7874015748031497,
          "duration": 0.5806455000000028
        },
        {
          "name": "F3",
          "midi": 53,
          "time": 60.00003499999996,
          "velocity": 0.7874015748031497,
          "duration": 0.38709699999999714
        },
        {
          "name": "A#3",
          "midi": 58,
          "time": 60.00003499999996,
          "velocity": 0.7874015748031497,
          "duration": 0.38709699999999714
        },
        {
          "name": "A#2",
          "midi": 46,
          "time": 61.93551999999996,
          "velocity": 0.7874015748031497,
          "duration": 0.7741940000000014
        },
        {
          "name": "A#1",
          "midi": 34,
          "time": 61.93551999999996,
          "velocity": 0.7874015748031497,
          "duration": 0.7741940000000014
        },
        {
          "name": "A#2",
          "midi": 46,
          "time": 62.70971399999996,
          "velocity": 0.7874015748031497,
          "duration": 0.38709699999999714
        },
        {
          "name": "A#1",
          "midi": 34,
          "time": 63.09681099999996,
          "velocity": 0.7874015748031497,
          "duration": 0.38709699999999714
        },
        {
          "name": "A#2",
          "midi": 46,
          "time": 63.29035949999996,
          "velocity": 0.7874015748031497,
          "duration": 0.38709699999999714
        },
        {
          "name": "A#1",
          "midi": 34,
          "time": 63.677456499999955,
          "velocity": 0.7874015748031497,
          "duration": 0.19354849999999857
        },
        {
          "name": "F1",
          "midi": 29,
          "time": 63.871004999999954,
          "velocity": 0.7874015748031497,
          "duration": 0.38709699999999714
        },
        {
          "name": "F2",
          "midi": 41,
          "time": 63.871004999999954,
          "velocity": 0.7874015748031497,
          "duration": 0.6774197499999985
        },
        {
          "name": "F1",
          "midi": 29,
          "time": 64.45165049999996,
          "velocity": 0.7874015748031497,
          "duration": 0.38709699999999714
        },
        {
          "name": "F2",
          "midi": 41,
          "time": 64.64519899999995,
          "velocity": 0.7874015748031497,
          "duration": 0.38709700000001135
        },
        {
          "name": "A#2",
          "midi": 46,
          "time": 65.03229599999996,
          "velocity": 0.7874015748031497,
          "duration": 0.7741939999999943
        },
        {
          "name": "A#1",
          "midi": 34,
          "time": 65.03229599999996,
          "velocity": 0.7874015748031497,
          "duration": 0.7741939999999943
        },
        {
          "name": "A#2",
          "midi": 46,
          "time": 65.80648999999995,
          "velocity": 0.7874015748031497,
          "duration": 0.38709699999999714
        },
        {
          "name": "A#1",
          "midi": 34,
          "time": 66.19358699999995,
          "velocity": 0.7874015748031497,
          "duration": 0.38709700000001135
        },
        {
          "name": "A#2",
          "midi": 46,
          "time": 66.38713549999996,
          "velocity": 0.7874015748031497,
          "duration": 0.38709700000001135
        },
        {
          "name": "A#1",
          "midi": 34,
          "time": 66.77423249999997,
          "velocity": 0.7874015748031497,
          "duration": 0.19354850000000567
        },
        {
          "name": "F2",
          "midi": 41,
          "time": 66.96778099999997,
          "velocity": 0.7874015748031497,
          "duration": 0.5806455000000028
        },
        {
          "name": "F1",
          "midi": 29,
          "time": 66.96778099999997,
          "velocity": 0.7874015748031497,
          "duration": 0.5806455000000028
        },
        {
          "name": "D#1",
          "midi": 27,
          "time": 67.54842649999998,
          "velocity": 0.7874015748031497,
          "duration": 0.5806455000000028
        },
        {
          "name": "D#2",
          "midi": 39,
          "time": 67.54842649999998,
          "velocity": 0.7874015748031497,
          "duration": 0.5806455000000028
        },
        {
          "name": "A#1",
          "midi": 34,
          "time": 68.12907199999998,
          "velocity": 0.7874015748031497,
          "duration": 0.7741939999999943
        },
        {
          "name": "A#2",
          "midi": 46,
          "time": 68.12907199999998,
          "velocity": 0.7874015748031497,
          "duration": 0.7741939999999943
        },
        {
          "name": "A#2",
          "midi": 46,
          "time": 68.90326599999997,
          "velocity": 0.7874015748031497,
          "duration": 0.38709699999999714
        },
        {
          "name": "A#1",
          "midi": 34,
          "time": 69.29036299999997,
          "velocity": 0.7874015748031497,
          "duration": 0.38709700000001135
        },
        {
          "name": "A#2",
          "midi": 46,
          "time": 69.48391149999998,
          "velocity": 0.7874015748031497,
          "duration": 0.38709700000001135
        },
        {
          "name": "A#1",
          "midi": 34,
          "time": 69.87100849999999,
          "velocity": 0.7874015748031497,
          "duration": 0.19354850000000567
        },
        {
          "name": "F2",
          "midi": 41,
          "time": 70.064557,
          "velocity": 0.7874015748031497,
          "duration": 0.6774197499999985
        },
        {
          "name": "F1",
          "midi": 29,
          "time": 70.064557,
          "velocity": 0.7874015748031497,
          "duration": 0.38709699999999714
        },
        {
          "name": "F1",
          "midi": 29,
          "time": 70.6452025,
          "velocity": 0.7874015748031497,
          "duration": 0.38709699999999714
        },
        {
          "name": "F2",
          "midi": 41,
          "time": 70.83875099999999,
          "velocity": 0.7874015748031497,
          "duration": 0.38709700000001135
        },
        {
          "name": "A#1",
          "midi": 34,
          "time": 71.225848,
          "velocity": 0.7874015748031497,
          "duration": 0.7741939999999943
        },
        {
          "name": "A#2",
          "midi": 46,
          "time": 71.225848,
          "velocity": 0.7874015748031497,
          "duration": 0.7741939999999943
        },
        {
          "name": "A#2",
          "midi": 46,
          "time": 72.000042,
          "velocity": 0.7874015748031497,
          "duration": 0.38709699999999714
        },
        {
          "name": "A#1",
          "midi": 34,
          "time": 72.38713899999999,
          "velocity": 0.7874015748031497,
          "duration": 0.38709700000001135
        },
        {
          "name": "A#2",
          "midi": 46,
          "time": 72.5806875,
          "velocity": 0.7874015748031497,
          "duration": 0.38709700000001135
        },
        {
          "name": "A#1",
          "midi": 34,
          "time": 72.96778450000001,
          "velocity": 0.7874015748031497,
          "duration": 0.19354850000000567
        },
        {
          "name": "F1",
          "midi": 29,
          "time": 73.16133300000001,
          "velocity": 0.7874015748031497,
          "duration": 0.5806455000000028
        },
        {
          "name": "F2",
          "midi": 41,
          "time": 73.16133300000001,
          "velocity": 0.7874015748031497,
          "duration": 0.5806455000000028
        },
        {
          "name": "D#2",
          "midi": 39,
          "time": 73.74197850000002,
          "velocity": 0.7874015748031497,
          "duration": 0.5806455000000028
        },
        {
          "name": "D#1",
          "midi": 27,
          "time": 73.74197850000002,
          "velocity": 0.7874015748031497,
          "duration": 0.5806455000000028
        },
        {
          "name": "A#2",
          "midi": 46,
          "time": 74.32262400000002,
          "velocity": 0.7874015748031497,
          "duration": 0.7741939999999943
        },
        {
          "name": "A#1",
          "midi": 34,
          "time": 74.32262400000002,
          "velocity": 0.7874015748031497,
          "duration": 0.7741939999999943
        },
        {
          "name": "A#2",
          "midi": 46,
          "time": 75.09681800000001,
          "velocity": 0.7874015748031497,
          "duration": 0.38709699999999714
        },
        {
          "name": "A#1",
          "midi": 34,
          "time": 75.48391500000001,
          "velocity": 0.7874015748031497,
          "duration": 0.38709700000001135
        },
        {
          "name": "A#2",
          "midi": 46,
          "time": 75.67746350000002,
          "velocity": 0.7874015748031497,
          "duration": 0.38709700000001135
        },
        {
          "name": "A#1",
          "midi": 34,
          "time": 76.06456050000003,
          "velocity": 0.7874015748031497,
          "duration": 0.19354850000000567
        },
        {
          "name": "F1",
          "midi": 29,
          "time": 76.25810900000003,
          "velocity": 0.7874015748031497,
          "duration": 0.38709699999999714
        },
        {
          "name": "F2",
          "midi": 41,
          "time": 76.25810900000003,
          "velocity": 0.7874015748031497,
          "duration": 0.6774197499999985
        },
        {
          "name": "F1",
          "midi": 29,
          "time": 76.83875450000004,
          "velocity": 0.7874015748031497,
          "duration": 0.38709699999999714
        },
        {
          "name": "F2",
          "midi": 41,
          "time": 77.03230300000003,
          "velocity": 0.7874015748031497,
          "duration": 0.38709700000001135
        },
        {
          "name": "A#2",
          "midi": 46,
          "time": 77.41940000000004,
          "velocity": 0.7874015748031497,
          "duration": 0.7741939999999943
        },
        {
          "name": "A#1",
          "midi": 34,
          "time": 77.41940000000004,
          "velocity": 0.7874015748031497,
          "duration": 0.7741939999999943
        },
        {
          "name": "A#2",
          "midi": 46,
          "time": 78.19359400000003,
          "velocity": 0.7874015748031497,
          "duration": 0.38709699999999714
        },
        {
          "name": "A#1",
          "midi": 34,
          "time": 78.58069100000003,
          "velocity": 0.7874015748031497,
          "duration": 0.38709700000001135
        },
        {
          "name": "A#2",
          "midi": 46,
          "time": 78.77423950000004,
          "velocity": 0.7874015748031497,
          "duration": 0.38709700000001135
        },
        {
          "name": "A#1",
          "midi": 34,
          "time": 79.16133650000005,
          "velocity": 0.7874015748031497,
          "duration": 0.19354850000000567
        },
        {
          "name": "F2",
          "midi": 41,
          "time": 79.35488500000005,
          "velocity": 0.7874015748031497,
          "duration": 0.5806455000000028
        },
        {
          "name": "F1",
          "midi": 29,
          "time": 79.35488500000005,
          "velocity": 0.7874015748031497,
          "duration": 0.5806455000000028
        },
        {
          "name": "D#1",
          "midi": 27,
          "time": 79.93553050000006,
          "velocity": 0.7874015748031497,
          "duration": 0.5806455000000028
        },
        {
          "name": "D#2",
          "midi": 39,
          "time": 79.93553050000006,
          "velocity": 0.7874015748031497,
          "duration": 0.5806455000000028
        },
        {
          "name": "A#1",
          "midi": 34,
          "time": 80.51617600000006,
          "velocity": 0.7874015748031497,
          "duration": 0.7741939999999943
        },
        {
          "name": "A#2",
          "midi": 46,
          "time": 80.51617600000006,
          "velocity": 0.7874015748031497,
          "duration": 0.7741939999999943
        },
        {
          "name": "A#2",
          "midi": 46,
          "time": 81.29037000000005,
          "velocity": 0.7874015748031497,
          "duration": 0.38709699999999714
        },
        {
          "name": "A#1",
          "midi": 34,
          "time": 81.67746700000005,
          "velocity": 0.7874015748031497,
          "duration": 0.38709700000001135
        },
        {
          "name": "A#2",
          "midi": 46,
          "time": 81.87101550000006,
          "velocity": 0.7874015748031497,
          "duration": 0.38709700000001135
        },
        {
          "name": "A#1",
          "midi": 34,
          "time": 82.25811250000007,
          "velocity": 0.7874015748031497,
          "duration": 0.19354850000000567
        },
        {
          "name": "F2",
          "midi": 41,
          "time": 82.45166100000007,
          "velocity": 0.7874015748031497,
          "duration": 0.6774197499999985
        },
        {
          "name": "F1",
          "midi": 29,
          "time": 82.45166100000007,
          "velocity": 0.7874015748031497,
          "duration": 0.38709699999999714
        },
        {
          "name": "F1",
          "midi": 29,
          "time": 83.03230650000008,
          "velocity": 0.7874015748031497,
          "duration": 0.38709699999999714
        },
        {
          "name": "F2",
          "midi": 41,
          "time": 83.22585500000007,
          "velocity": 0.7874015748031497,
          "duration": 0.38709700000001135
        },
        {
          "name": "A#2",
          "midi": 46,
          "time": 83.61295200000008,
          "velocity": 0.7874015748031497,
          "duration": 0.7741939999999943
        },
        {
          "name": "A#1",
          "midi": 34,
          "time": 83.61295200000008,
          "velocity": 0.7874015748031497,
          "duration": 0.7741939999999943
        },
        {
          "name": "A#2",
          "midi": 46,
          "time": 84.38714600000007,
          "velocity": 0.7874015748031497,
          "duration": 0.38709699999999714
        },
        {
          "name": "A#1",
          "midi": 34,
          "time": 84.77424300000007,
          "velocity": 0.7874015748031497,
          "duration": 0.38709700000001135
        },
        {
          "name": "A#2",
          "midi": 46,
          "time": 84.96779150000008,
          "velocity": 0.7874015748031497,
          "duration": 0.38709700000001135
        },
        {
          "name": "A#1",
          "midi": 34,
          "time": 85.35488850000009,
          "velocity": 0.7874015748031497,
          "duration": 0.19354850000000567
        },
        {
          "name": "F2",
          "midi": 41,
          "time": 85.54843700000009,
          "velocity": 0.7874015748031497,
          "duration": 0.5806455000000028
        },
        {
          "name": "F1",
          "midi": 29,
          "time": 85.54843700000009,
          "velocity": 0.7874015748031497,
          "duration": 0.5806455000000028
        },
        {
          "name": "D#1",
          "midi": 27,
          "time": 86.1290825000001,
          "velocity": 0.7874015748031497,
          "duration": 0.5806455000000028
        },
        {
          "name": "D#2",
          "midi": 39,
          "time": 86.1290825000001,
          "velocity": 0.7874015748031497,
          "duration": 0.5806455000000028
        },
        {
          "name": "A#2",
          "midi": 46,
          "time": 86.7097280000001,
          "velocity": 0.7874015748031497,
          "duration": 0.5806455000000028
        },
        {
          "name": "F3",
          "midi": 53,
          "time": 86.7097280000001,
          "velocity": 0.7874015748031497,
          "duration": 0.5806455000000028
        },
        {
          "name": "A#3",
          "midi": 58,
          "time": 86.7097280000001,
          "velocity": 0.7874015748031497,
          "duration": 0.5806455000000028
        },
        {
          "name": "A#2",
          "midi": 46,
          "time": 87.2903735000001,
          "velocity": 0.7874015748031497,
          "duration": 0.5806455000000028
        },
        {
          "name": "F3",
          "midi": 53,
          "time": 87.4839220000001,
          "velocity": 0.7874015748031497,
          "duration": 0.7741939999999943
        },
        {
          "name": "A#3",
          "midi": 58,
          "time": 87.4839220000001,
          "velocity": 0.7874015748031497,
          "duration": 0.7741939999999943
        },
        {
          "name": "A#2",
          "midi": 46,
          "time": 87.8710190000001,
          "velocity": 0.7874015748031497,
          "duration": 0.38709699999999714
        },
        {
          "name": "G#3",
          "midi": 56,
          "time": 88.2581160000001,
          "velocity": 0.7874015748031497,
          "duration": 0.5806455000000028
        },
        {
          "name": "D#3",
          "midi": 51,
          "time": 88.2581160000001,
          "velocity": 0.7874015748031497,
          "duration": 0.5806455000000028
        },
        {
          "name": "G#2",
          "midi": 44,
          "time": 88.2581160000001,
          "velocity": 0.7874015748031497,
          "duration": 0.5806455000000028
        },
        {
          "name": "G#2",
          "midi": 44,
          "time": 88.8387615000001,
          "velocity": 0.7874015748031497,
          "duration": 0.5806455000000028
        },
        {
          "name": "D#3",
          "midi": 51,
          "time": 89.03231000000011,
          "velocity": 0.7874015748031497,
          "duration": 0.7741939999999943
        },
        {
          "name": "G#3",
          "midi": 56,
          "time": 89.03231000000011,
          "velocity": 0.7874015748031497,
          "duration": 0.7741939999999943
        },
        {
          "name": "G#2",
          "midi": 44,
          "time": 89.4194070000001,
          "velocity": 0.7874015748031497,
          "duration": 0.38709699999999714
        },
        {
          "name": "F3",
          "midi": 53,
          "time": 89.8065040000001,
          "velocity": 0.7874015748031497,
          "duration": 0.5806455000000028
        },
        {
          "name": "C3",
          "midi": 48,
          "time": 89.8065040000001,
          "velocity": 0.7874015748031497,
          "duration": 0.5806455000000028
        },
        {
          "name": "F2",
          "midi": 41,
          "time": 89.8065040000001,
          "velocity": 0.7874015748031497,
          "duration": 0.5806455000000028
        },
        {
          "name": "F2",
          "midi": 41,
          "time": 90.3871495000001,
          "velocity": 0.7874015748031497,
          "duration": 0.5806455000000028
        },
        {
          "name": "C3",
          "midi": 48,
          "time": 90.58069800000011,
          "velocity": 0.7874015748031497,
          "duration": 0.7741939999999943
        },
        {
          "name": "F3",
          "midi": 53,
          "time": 90.58069800000011,
          "velocity": 0.7874015748031497,
          "duration": 0.7741939999999943
        },
        {
          "name": "F2",
          "midi": 41,
          "time": 90.96779500000011,
          "velocity": 0.7874015748031497,
          "duration": 0.38709699999999714
        },
        {
          "name": "F#2",
          "midi": 42,
          "time": 91.3548920000001,
          "velocity": 0.7874015748031497,
          "duration": 0.5806455000000028
        },
        {
          "name": "C#3",
          "midi": 49,
          "time": 91.3548920000001,
          "velocity": 0.7874015748031497,
          "duration": 0.5806455000000028
        },
        {
          "name": "F#3",
          "midi": 54,
          "time": 91.3548920000001,
          "velocity": 0.7874015748031497,
          "duration": 0.5806455000000028
        },
        {
          "name": "F#2",
          "midi": 42,
          "time": 91.93553750000011,
          "velocity": 0.7874015748031497,
          "duration": 0.5806455000000028
        },
        {
          "name": "F#3",
          "midi": 54,
          "time": 92.12908600000011,
          "velocity": 0.7874015748031497,
          "duration": 0.7741939999999943
        },
        {
          "name": "C#3",
          "midi": 49,
          "time": 92.12908600000011,
          "velocity": 0.7874015748031497,
          "duration": 0.7741939999999943
        },
        {
          "name": "F#2",
          "midi": 42,
          "time": 92.51618300000011,
          "velocity": 0.7874015748031497,
          "duration": 0.38709699999999714
        },
        {
          "name": "A#2",
          "midi": 46,
          "time": 92.90328000000011,
          "velocity": 0.7874015748031497,
          "duration": 0.5806455000000028
        },
        {
          "name": "F3",
          "midi": 53,
          "time": 92.90328000000011,
          "velocity": 0.7874015748031497,
          "duration": 0.5806455000000028
        },
        {
          "name": "A#3",
          "midi": 58,
          "time": 92.90328000000011,
          "velocity": 0.7874015748031497,
          "duration": 0.5806455000000028
        },
        {
          "name": "A#2",
          "midi": 46,
          "time": 93.48392550000011,
          "velocity": 0.7874015748031497,
          "duration": 0.5806455000000028
        },
        {
          "name": "F3",
          "midi": 53,
          "time": 93.67747400000012,
          "velocity": 0.7874015748031497,
          "duration": 0.7741939999999943
        },
        {
          "name": "A#3",
          "midi": 58,
          "time": 93.67747400000012,
          "velocity": 0.7874015748031497,
          "duration": 0.7741939999999943
        },
        {
          "name": "A#2",
          "midi": 46,
          "time": 94.06457100000011,
          "velocity": 0.7874015748031497,
          "duration": 0.38709699999999714
        },
        {
          "name": "G#3",
          "midi": 56,
          "time": 94.45166800000011,
          "velocity": 0.7874015748031497,
          "duration": 0.5806455000000028
        },
        {
          "name": "D#3",
          "midi": 51,
          "time": 94.45166800000011,
          "velocity": 0.7874015748031497,
          "duration": 0.5806455000000028
        },
        {
          "name": "G#2",
          "midi": 44,
          "time": 94.45166800000011,
          "velocity": 0.7874015748031497,
          "duration": 0.5806455000000028
        },
        {
          "name": "G#2",
          "midi": 44,
          "time": 95.03231350000011,
          "velocity": 0.7874015748031497,
          "duration": 0.5806455000000028
        },
        {
          "name": "D#3",
          "midi": 51,
          "time": 95.22586200000012,
          "velocity": 0.7874015748031497,
          "duration": 0.7741939999999943
        },
        {
          "name": "G#3",
          "midi": 56,
          "time": 95.22586200000012,
          "velocity": 0.7874015748031497,
          "duration": 0.7741939999999943
        },
        {
          "name": "G#2",
          "midi": 44,
          "time": 95.61295900000012,
          "velocity": 0.7874015748031497,
          "duration": 0.38709699999999714
        },
        {
          "name": "F2",
          "midi": 41,
          "time": 96.00005600000011,
          "velocity": 0.7874015748031497,
          "duration": 0.5806455000000028
        },
        {
          "name": "C3",
          "midi": 48,
          "time": 96.00005600000011,
          "velocity": 0.7874015748031497,
          "duration": 0.5806455000000028
        },
        {
          "name": "F3",
          "midi": 53,
          "time": 96.00005600000011,
          "velocity": 0.7874015748031497,
          "duration": 0.5806455000000028
        },
        {
          "name": "F2",
          "midi": 41,
          "time": 96.58070150000012,
          "velocity": 0.7874015748031497,
          "duration": 0.5806455000000028
        },
        {
          "name": "F3",
          "midi": 53,
          "time": 96.77425000000012,
          "velocity": 0.7874015748031497,
          "duration": 0.7741939999999943
        },
        {
          "name": "C3",
          "midi": 48,
          "time": 96.77425000000012,
          "velocity": 0.7874015748031497,
          "duration": 0.7741939999999943
        },
        {
          "name": "F2",
          "midi": 41,
          "time": 97.16134700000012,
          "velocity": 0.7874015748031497,
          "duration": 0.38709699999999714
        },
        {
          "name": "F#3",
          "midi": 54,
          "time": 97.54844400000012,
          "velocity": 0.7874015748031497,
          "duration": 0.5806455000000028
        },
        {
          "name": "C#3",
          "midi": 49,
          "time": 97.54844400000012,
          "velocity": 0.7874015748031497,
          "duration": 0.5806455000000028
        },
        {
          "name": "F#2",
          "midi": 42,
          "time": 97.54844400000012,
          "velocity": 0.7874015748031497,
          "duration": 0.5806455000000028
        },
        {
          "name": "F#2",
          "midi": 42,
          "time": 98.12908950000012,
          "velocity": 0.7874015748031497,
          "duration": 0.5806455000000028
        },
        {
          "name": "F#3",
          "midi": 54,
          "time": 98.32263800000013,
          "velocity": 0.7874015748031497,
          "duration": 0.7741939999999943
        },
        {
          "name": "C#3",
          "midi": 49,
          "time": 98.32263800000013,
          "velocity": 0.7874015748031497,
          "duration": 0.7741939999999943
        },
        {
          "name": "F#2",
          "midi": 42,
          "time": 98.70973500000012,
          "velocity": 0.7874015748031497,
          "duration": 0.38709699999999714
        },
        {
          "name": "A#3",
          "midi": 58,
          "time": 99.09683200000012,
          "velocity": 0.7874015748031497,
          "duration": 0.5806455000000028
        },
        {
          "name": "F3",
          "midi": 53,
          "time": 99.09683200000012,
          "velocity": 0.7874015748031497,
          "duration": 0.5806455000000028
        },
        {
          "name": "A#2",
          "midi": 46,
          "time": 99.09683200000012,
          "velocity": 0.7874015748031497,
          "duration": 1.5483880000000028
        },
        {
          "name": "A#3",
          "midi": 58,
          "time": 99.67747750000012,
          "velocity": 0.7874015748031497,
          "duration": 0.5806455000000028
        },
        {
          "name": "F3",
          "midi": 53,
          "time": 99.67747750000012,
          "velocity": 0.7874015748031497,
          "duration": 0.5806455000000028
        },
        {
          "name": "F3",
          "midi": 53,
          "time": 100.25812300000013,
          "velocity": 0.7874015748031497,
          "duration": 0.38709699999999714
        },
        {
          "name": "A#3",
          "midi": 58,
          "time": 100.25812300000013,
          "velocity": 0.7874015748031497,
          "duration": 0.38709699999999714
        },
        {
          "name": "D#3",
          "midi": 51,
          "time": 100.64522000000012,
          "velocity": 0.7874015748031497,
          "duration": 0.5806455000000028
        },
        {
          "name": "G#3",
          "midi": 56,
          "time": 100.64522000000012,
          "velocity": 0.7874015748031497,
          "duration": 0.5806455000000028
        },
        {
          "name": "G#2",
          "midi": 44,
          "time": 100.64522000000012,
          "velocity": 0.7874015748031497,
          "duration": 1.5483880000000028
        },
        {
          "name": "D#3",
          "midi": 51,
          "time": 101.22586550000013,
          "velocity": 0.7874015748031497,
          "duration": 0.5806455000000028
        },
        {
          "name": "G#3",
          "midi": 56,
          "time": 101.22586550000013,
          "velocity": 0.7874015748031497,
          "duration": 0.5806455000000028
        },
        {
          "name": "G#3",
          "midi": 56,
          "time": 101.80651100000013,
          "velocity": 0.7874015748031497,
          "duration": 0.38709699999999714
        },
        {
          "name": "D#3",
          "midi": 51,
          "time": 101.80651100000013,
          "velocity": 0.7874015748031497,
          "duration": 0.38709699999999714
        },
        {
          "name": "A#2",
          "midi": 46,
          "time": 102.19360800000013,
          "velocity": 0.7874015748031497,
          "duration": 1.5483880000000028
        },
        {
          "name": "A#3",
          "midi": 58,
          "time": 102.19360800000013,
          "velocity": 0.7874015748031497,
          "duration": 0.5806455000000028
        },
        {
          "name": "F3",
          "midi": 53,
          "time": 102.19360800000013,
          "velocity": 0.7874015748031497,
          "duration": 0.5806455000000028
        },
        {
          "name": "A#3",
          "midi": 58,
          "time": 102.77425350000013,
          "velocity": 0.7874015748031497,
          "duration": 0.5806455000000028
        },
        {
          "name": "F3",
          "midi": 53,
          "time": 102.77425350000013,
          "velocity": 0.7874015748031497,
          "duration": 0.5806455000000028
        },
        {
          "name": "F3",
          "midi": 53,
          "time": 103.35489900000013,
          "velocity": 0.7874015748031497,
          "duration": 0.38709699999999714
        },
        {
          "name": "A#3",
          "midi": 58,
          "time": 103.35489900000013,
          "velocity": 0.7874015748031497,
          "duration": 0.38709699999999714
        },
        {
          "name": "A#2",
          "midi": 46,
          "time": 103.74199600000013,
          "velocity": 0.7874015748031497,
          "duration": 1.5483880000000028
        },
        {
          "name": "A#3",
          "midi": 58,
          "time": 103.74199600000013,
          "velocity": 0.7874015748031497,
          "duration": 0.5806455000000028
        },
        {
          "name": "F3",
          "midi": 53,
          "time": 103.74199600000013,
          "velocity": 0.7874015748031497,
          "duration": 0.5806455000000028
        },
        {
          "name": "A#3",
          "midi": 58,
          "time": 104.32264150000013,
          "velocity": 0.7874015748031497,
          "duration": 0.5806455000000028
        },
        {
          "name": "F3",
          "midi": 53,
          "time": 104.32264150000013,
          "velocity": 0.7874015748031497,
          "duration": 0.5806455000000028
        },
        {
          "name": "A#3",
          "midi": 58,
          "time": 104.90328700000013,
          "velocity": 0.7874015748031497,
          "duration": 0.38709699999999714
        },
        {
          "name": "F3",
          "midi": 53,
          "time": 104.90328700000013,
          "velocity": 0.7874015748031497,
          "duration": 0.38709699999999714
        },
        {
          "name": "F#3",
          "midi": 54,
          "time": 105.29038400000013,
          "velocity": 0.7874015748031497,
          "duration": 0.5806455000000028
        },
        {
          "name": "C#3",
          "midi": 49,
          "time": 105.29038400000013,
          "velocity": 0.7874015748031497,
          "duration": 0.5806455000000028
        },
        {
          "name": "F#2",
          "midi": 42,
          "time": 105.29038400000013,
          "velocity": 0.7874015748031497,
          "duration": 1.5483880000000028
        },
        {
          "name": "F#3",
          "midi": 54,
          "time": 105.87102950000013,
          "velocity": 0.7874015748031497,
          "duration": 0.5806455000000028
        },
        {
          "name": "C#3",
          "midi": 49,
          "time": 105.87102950000013,
          "velocity": 0.7874015748031497,
          "duration": 0.5806455000000028
        },
        {
          "name": "C#3",
          "midi": 49,
          "time": 106.45167500000014,
          "velocity": 0.7874015748031497,
          "duration": 0.38709699999999714
        },
        {
          "name": "F#3",
          "midi": 54,
          "time": 106.45167500000014,
          "velocity": 0.7874015748031497,
          "duration": 0.38709699999999714
        },
        {
          "name": "G#2",
          "midi": 44,
          "time": 106.83877200000013,
          "velocity": 0.7874015748031497,
          "duration": 1.5483880000000028
        },
        {
          "name": "G#3",
          "midi": 56,
          "time": 106.83877200000013,
          "velocity": 0.7874015748031497,
          "duration": 0.5806455000000028
        },
        {
          "name": "D#3",
          "midi": 51,
          "time": 106.83877200000013,
          "velocity": 0.7874015748031497,
          "duration": 0.5806455000000028
        },
        {
          "name": "G#3",
          "midi": 56,
          "time": 107.41941750000014,
          "velocity": 0.7874015748031497,
          "duration": 0.5806455000000028
        },
        {
          "name": "D#3",
          "midi": 51,
          "time": 107.41941750000014,
          "velocity": 0.7874015748031497,
          "duration": 0.5806455000000028
        },
        {
          "name": "G#3",
          "midi": 56,
          "time": 108.00006300000014,
          "velocity": 0.7874015748031497,
          "duration": 0.38709699999999714
        },
        {
          "name": "D#3",
          "midi": 51,
          "time": 108.00006300000014,
          "velocity": 0.7874015748031497,
          "duration": 0.38709699999999714
        },
        {
          "name": "F3",
          "midi": 53,
          "time": 108.38716000000014,
          "velocity": 0.7874015748031497,
          "duration": 0.5806455000000028
        },
        {
          "name": "A#3",
          "midi": 58,
          "time": 108.38716000000014,
          "velocity": 0.7874015748031497,
          "duration": 0.5806455000000028
        },
        {
          "name": "A#2",
          "midi": 46,
          "time": 108.38716000000014,
          "velocity": 0.7874015748031497,
          "duration": 1.5483880000000028
        },
        {
          "name": "F3",
          "midi": 53,
          "time": 108.96780550000014,
          "velocity": 0.7874015748031497,
          "duration": 0.5806455000000028
        },
        {
          "name": "A#3",
          "midi": 58,
          "time": 108.96780550000014,
          "velocity": 0.7874015748031497,
          "duration": 0.5806455000000028
        },
        {
          "name": "F3",
          "midi": 53,
          "time": 109.54845100000014,
          "velocity": 0.7874015748031497,
          "duration": 0.38709699999999714
        },
        {
          "name": "A#3",
          "midi": 58,
          "time": 109.54845100000014,
          "velocity": 0.7874015748031497,
          "duration": 0.38709699999999714
        },
        {
          "name": "A#1",
          "midi": 34,
          "time": 111.48393600000014,
          "velocity": 0.7874015748031497,
          "duration": 0.7741939999999943
        },
        {
          "name": "A#2",
          "midi": 46,
          "time": 111.48393600000014,
          "velocity": 0.7874015748031497,
          "duration": 0.7741939999999943
        },
        {
          "name": "A#2",
          "midi": 46,
          "time": 112.25813000000014,
          "velocity": 0.7874015748031497,
          "duration": 0.38709699999999714
        },
        {
          "name": "A#1",
          "midi": 34,
          "time": 112.64522700000013,
          "velocity": 0.7874015748031497,
          "duration": 0.38709700000001135
        },
        {
          "name": "A#2",
          "midi": 46,
          "time": 112.83877550000014,
          "velocity": 0.7874015748031497,
          "duration": 0.38709700000001135
        },
        {
          "name": "A#1",
          "midi": 34,
          "time": 113.22587250000015,
          "velocity": 0.7874015748031497,
          "duration": 0.19354850000000567
        },
        {
          "name": "F1",
          "midi": 29,
          "time": 113.41942100000016,
          "velocity": 0.7874015748031497,
          "duration": 0.38709699999999714
        },
        {
          "name": "F2",
          "midi": 41,
          "time": 113.41942100000016,
          "velocity": 0.7874015748031497,
          "duration": 0.6774197499999985
        },
        {
          "name": "F1",
          "midi": 29,
          "time": 114.00006650000016,
          "velocity": 0.7874015748031497,
          "duration": 0.38709699999999714
        },
        {
          "name": "F2",
          "midi": 41,
          "time": 114.19361500000015,
          "velocity": 0.7874015748031497,
          "duration": 0.38709700000001135
        },
        {
          "name": "A#1",
          "midi": 34,
          "time": 114.58071200000016,
          "velocity": 0.7874015748031497,
          "duration": 0.7741939999999943
        },
        {
          "name": "A#2",
          "midi": 46,
          "time": 114.58071200000016,
          "velocity": 0.7874015748031497,
          "duration": 0.7741939999999943
        },
        {
          "name": "A#2",
          "midi": 46,
          "time": 115.35490600000016,
          "velocity": 0.7874015748031497,
          "duration": 0.38709699999999714
        },
        {
          "name": "A#1",
          "midi": 34,
          "time": 115.74200300000015,
          "velocity": 0.7874015748031497,
          "duration": 0.38709700000001135
        },
        {
          "name": "A#2",
          "midi": 46,
          "time": 115.93555150000016,
          "velocity": 0.7874015748031497,
          "duration": 0.38709700000001135
        },
        {
          "name": "A#1",
          "midi": 34,
          "time": 116.32264850000017,
          "velocity": 0.7874015748031497,
          "duration": 0.19354850000000567
        },
        {
          "name": "F1",
          "midi": 29,
          "time": 116.51619700000018,
          "velocity": 0.7874015748031497,
          "duration": 0.5806455000000028
        },
        {
          "name": "F2",
          "midi": 41,
          "time": 116.51619700000018,
          "velocity": 0.7874015748031497,
          "duration": 0.5806455000000028
        },
        {
          "name": "D#2",
          "midi": 39,
          "time": 117.09684250000018,
          "velocity": 0.7874015748031497,
          "duration": 0.5806455000000028
        },
        {
          "name": "D#1",
          "midi": 27,
          "time": 117.09684250000018,
          "velocity": 0.7874015748031497,
          "duration": 0.5806455000000028
        },
        {
          "name": "A#2",
          "midi": 46,
          "time": 117.67748800000018,
          "velocity": 0.7874015748031497,
          "duration": 0.7741939999999943
        },
        {
          "name": "A#1",
          "midi": 34,
          "time": 117.67748800000018,
          "velocity": 0.7874015748031497,
          "duration": 0.7741939999999943
        },
        {
          "name": "A#2",
          "midi": 46,
          "time": 118.45168200000018,
          "velocity": 0.7874015748031497,
          "duration": 0.38709699999999714
        },
        {
          "name": "A#1",
          "midi": 34,
          "time": 118.83877900000017,
          "velocity": 0.7874015748031497,
          "duration": 0.38709700000001135
        },
        {
          "name": "A#2",
          "midi": 46,
          "time": 119.03232750000018,
          "velocity": 0.7874015748031497,
          "duration": 0.38709700000001135
        },
        {
          "name": "A#1",
          "midi": 34,
          "time": 119.41942450000019,
          "velocity": 0.7874015748031497,
          "duration": 0.19354850000000567
        },
        {
          "name": "F2",
          "midi": 41,
          "time": 119.6129730000002,
          "velocity": 0.7874015748031497,
          "duration": 0.6774197499999985
        },
        {
          "name": "F1",
          "midi": 29,
          "time": 119.6129730000002,
          "velocity": 0.7874015748031497,
          "duration": 0.38709699999999714
        },
        {
          "name": "F1",
          "midi": 29,
          "time": 120.1936185000002,
          "velocity": 0.7874015748031497,
          "duration": 0.38709699999999714
        },
        {
          "name": "F2",
          "midi": 41,
          "time": 120.38716700000019,
          "velocity": 0.7874015748031497,
          "duration": 0.38709700000001135
        },
        {
          "name": "A#2",
          "midi": 46,
          "time": 120.7742640000002,
          "velocity": 0.7874015748031497,
          "duration": 0.7741939999999943
        },
        {
          "name": "A#1",
          "midi": 34,
          "time": 120.7742640000002,
          "velocity": 0.7874015748031497,
          "duration": 0.7741939999999943
        },
        {
          "name": "A#2",
          "midi": 46,
          "time": 121.5484580000002,
          "velocity": 0.7874015748031497,
          "duration": 0.38709699999999714
        },
        {
          "name": "A#1",
          "midi": 34,
          "time": 121.93555500000019,
          "velocity": 0.7874015748031497,
          "duration": 0.38709700000001135
        },
        {
          "name": "A#2",
          "midi": 46,
          "time": 122.1291035000002,
          "velocity": 0.7874015748031497,
          "duration": 0.38709700000001135
        },
        {
          "name": "A#1",
          "midi": 34,
          "time": 122.51620050000021,
          "velocity": 0.7874015748031497,
          "duration": 0.19354850000000567
        },
        {
          "name": "F2",
          "midi": 41,
          "time": 122.70974900000022,
          "velocity": 0.7874015748031497,
          "duration": 0.5806455000000028
        },
        {
          "name": "F1",
          "midi": 29,
          "time": 122.70974900000022,
          "velocity": 0.7874015748031497,
          "duration": 0.5806455000000028
        },
        {
          "name": "D#1",
          "midi": 27,
          "time": 123.29039450000022,
          "velocity": 0.7874015748031497,
          "duration": 0.5806455000000028
        },
        {
          "name": "D#2",
          "midi": 39,
          "time": 123.29039450000022,
          "velocity": 0.7874015748031497,
          "duration": 0.5806455000000028
        },
        {
          "name": "A#1",
          "midi": 34,
          "time": 123.87104000000022,
          "velocity": 0.7874015748031497,
          "duration": 0.7741939999999943
        },
        {
          "name": "A#2",
          "midi": 46,
          "time": 123.87104000000022,
          "velocity": 0.7874015748031497,
          "duration": 0.7741939999999943
        },
        {
          "name": "A#2",
          "midi": 46,
          "time": 124.64523400000022,
          "velocity": 0.7874015748031497,
          "duration": 0.38709699999999714
        },
        {
          "name": "A#1",
          "midi": 34,
          "time": 125.03233100000021,
          "velocity": 0.7874015748031497,
          "duration": 0.38709700000001135
        },
        {
          "name": "A#2",
          "midi": 46,
          "time": 125.22587950000022,
          "velocity": 0.7874015748031497,
          "duration": 0.38709700000001135
        },
        {
          "name": "A#1",
          "midi": 34,
          "time": 125.61297650000023,
          "velocity": 0.7874015748031497,
          "duration": 0.19354850000000567
        },
        {
          "name": "F1",
          "midi": 29,
          "time": 125.80652500000024,
          "velocity": 0.7874015748031497,
          "duration": 0.38709699999999714
        },
        {
          "name": "F2",
          "midi": 41,
          "time": 125.80652500000024,
          "velocity": 0.7874015748031497,
          "duration": 0.6774197499999985
        },
        {
          "name": "F1",
          "midi": 29,
          "time": 126.38717050000024,
          "velocity": 0.7874015748031497,
          "duration": 0.38709699999999714
        },
        {
          "name": "F2",
          "midi": 41,
          "time": 126.58071900000023,
          "velocity": 0.7874015748031497,
          "duration": 0.38709700000001135
        },
        {
          "name": "A#1",
          "midi": 34,
          "time": 126.96781600000024,
          "velocity": 0.7874015748031497,
          "duration": 0.7741939999999943
        },
        {
          "name": "A#2",
          "midi": 46,
          "time": 126.96781600000024,
          "velocity": 0.7874015748031497,
          "duration": 0.7741939999999943
        },
        {
          "name": "A#2",
          "midi": 46,
          "time": 127.74201000000023,
          "velocity": 0.7874015748031497,
          "duration": 0.38709699999999714
        },
        {
          "name": "A#1",
          "midi": 34,
          "time": 128.12910700000023,
          "velocity": 0.7874015748031497,
          "duration": 0.3870969999999829
        },
        {
          "name": "A#2",
          "midi": 46,
          "time": 128.32265550000022,
          "velocity": 0.7874015748031497,
          "duration": 0.3870969999999829
        },
        {
          "name": "A#1",
          "midi": 34,
          "time": 128.7097525000002,
          "velocity": 0.7874015748031497,
          "duration": 0.19354849999999146
        },
        {
          "name": "F1",
          "midi": 29,
          "time": 128.9033010000002,
          "velocity": 0.7874015748031497,
          "duration": 0.5806455000000028
        },
        {
          "name": "F2",
          "midi": 41,
          "time": 128.9033010000002,
          "velocity": 0.7874015748031497,
          "duration": 0.5806455000000028
        },
        {
          "name": "D#2",
          "midi": 39,
          "time": 129.4839465000002,
          "velocity": 0.7874015748031497,
          "duration": 0.5806455000000028
        },
        {
          "name": "D#1",
          "midi": 27,
          "time": 129.4839465000002,
          "velocity": 0.7874015748031497,
          "duration": 0.5806455000000028
        },
        {
          "name": "A#2",
          "midi": 46,
          "time": 130.0645920000002,
          "velocity": 0.7874015748031497,
          "duration": 0.7741939999999943
        },
        {
          "name": "A#1",
          "midi": 34,
          "time": 130.0645920000002,
          "velocity": 0.7874015748031497,
          "duration": 0.7741939999999943
        },
        {
          "name": "A#2",
          "midi": 46,
          "time": 130.8387860000002,
          "velocity": 0.7874015748031497,
          "duration": 0.38709700000001135
        },
        {
          "name": "A#1",
          "midi": 34,
          "time": 131.2258830000002,
          "velocity": 0.7874015748031497,
          "duration": 0.3870969999999829
        },
        {
          "name": "A#2",
          "midi": 46,
          "time": 131.4194315000002,
          "velocity": 0.7874015748031497,
          "duration": 0.3870969999999829
        },
        {
          "name": "A#1",
          "midi": 34,
          "time": 131.80652850000018,
          "velocity": 0.7874015748031497,
          "duration": 0.19354849999999146
        },
        {
          "name": "F2",
          "midi": 41,
          "time": 132.00007700000018,
          "velocity": 0.7874015748031497,
          "duration": 0.6774197500000128
        },
        {
          "name": "F1",
          "midi": 29,
          "time": 132.00007700000018,
          "velocity": 0.7874015748031497,
          "duration": 0.38709700000001135
        },
        {
          "name": "F1",
          "midi": 29,
          "time": 132.58072250000018,
          "velocity": 0.7874015748031497,
          "duration": 0.38709700000001135
        },
        {
          "name": "F2",
          "midi": 41,
          "time": 132.7742710000002,
          "velocity": 0.7874015748031497,
          "duration": 0.3870969999999829
        },
        {
          "name": "A#2",
          "midi": 46,
          "time": 133.16136800000018,
          "velocity": 0.7874015748031497,
          "duration": 0.7741939999999943
        },
        {
          "name": "A#1",
          "midi": 34,
          "time": 133.16136800000018,
          "velocity": 0.7874015748031497,
          "duration": 0.7741939999999943
        },
        {
          "name": "A#2",
          "midi": 46,
          "time": 133.93556200000017,
          "velocity": 0.7874015748031497,
          "duration": 0.38709700000001135
        },
        {
          "name": "A#1",
          "midi": 34,
          "time": 134.3226590000002,
          "velocity": 0.7874015748031497,
          "duration": 0.3870969999999829
        },
        {
          "name": "A#2",
          "midi": 46,
          "time": 134.51620750000018,
          "velocity": 0.7874015748031497,
          "duration": 0.3870969999999829
        },
        {
          "name": "A#1",
          "midi": 34,
          "time": 134.90330450000016,
          "velocity": 0.7874015748031497,
          "duration": 0.19354849999999146
        },
        {
          "name": "F2",
          "midi": 41,
          "time": 135.09685300000015,
          "velocity": 0.7874015748031497,
          "duration": 0.5806455000000028
        },
        {
          "name": "F1",
          "midi": 29,
          "time": 135.09685300000015,
          "velocity": 0.7874015748031497,
          "duration": 0.5806455000000028
        },
        {
          "name": "D#1",
          "midi": 27,
          "time": 135.67749850000015,
          "velocity": 0.7874015748031497,
          "duration": 0.5806455000000028
        },
        {
          "name": "D#2",
          "midi": 39,
          "time": 135.67749850000015,
          "velocity": 0.7874015748031497,
          "duration": 0.5806455000000028
        },
        {
          "name": "F3",
          "midi": 53,
          "time": 136.25814400000016,
          "velocity": 0.7086614173228346,
          "duration": 0.19354849999999146
        },
        {
          "name": "A#3",
          "midi": 58,
          "time": 136.25814400000016,
          "velocity": 0.7086614173228346,
          "duration": 0.19354849999999146
        },
        {
          "name": "A#2",
          "midi": 46,
          "time": 136.25814400000016,
          "velocity": 0.7874015748031497,
          "duration": 0.19354849999999146
        },
        {
          "name": "F3",
          "midi": 53,
          "time": 136.45169250000015,
          "velocity": 0.7244094488188977,
          "duration": 0.19354849999999146
        },
        {
          "name": "A#3",
          "midi": 58,
          "time": 136.45169250000015,
          "velocity": 0.7244094488188977,
          "duration": 0.19354849999999146
        },
        {
          "name": "F3",
          "midi": 53,
          "time": 136.64524100000014,
          "velocity": 0.7244094488188977,
          "duration": 0.19354849999999146
        },
        {
          "name": "A#3",
          "midi": 58,
          "time": 136.64524100000014,
          "velocity": 0.7244094488188977,
          "duration": 0.19354849999999146
        },
        {
          "name": "F3",
          "midi": 53,
          "time": 136.83878950000013,
          "velocity": 0.7244094488188977,
          "duration": 0.19354849999999146
        },
        {
          "name": "A#3",
          "midi": 58,
          "time": 136.83878950000013,
          "velocity": 0.7244094488188977,
          "duration": 0.19354849999999146
        },
        {
          "name": "F3",
          "midi": 53,
          "time": 137.03233800000012,
          "velocity": 0.7165354330708661,
          "duration": 0.19354849999999146
        },
        {
          "name": "A#3",
          "midi": 58,
          "time": 137.03233800000012,
          "velocity": 0.7165354330708661,
          "duration": 0.19354849999999146
        },
        {
          "name": "F3",
          "midi": 53,
          "time": 137.22588650000012,
          "velocity": 0.7165354330708661,
          "duration": 0.19354849999999146
        },
        {
          "name": "A#3",
          "midi": 58,
          "time": 137.22588650000012,
          "velocity": 0.7165354330708661,
          "duration": 0.19354849999999146
        },
        {
          "name": "A#3",
          "midi": 58,
          "time": 137.4194350000001,
          "velocity": 0.7165354330708661,
          "duration": 0.19354849999999146
        },
        {
          "name": "F3",
          "midi": 53,
          "time": 137.4194350000001,
          "velocity": 0.7165354330708661,
          "duration": 0.19354849999999146
        },
        {
          "name": "F3",
          "midi": 53,
          "time": 137.6129835000001,
          "velocity": 0.7165354330708661,
          "duration": 0.19354849999999146
        },
        {
          "name": "A#3",
          "midi": 58,
          "time": 137.6129835000001,
          "velocity": 0.7165354330708661,
          "duration": 0.19354849999999146
        },
        {
          "name": "G#2",
          "midi": 44,
          "time": 137.8065320000001,
          "velocity": 0.7874015748031497,
          "duration": 0.3870969999999829
        },
        {
          "name": "G#3",
          "midi": 56,
          "time": 137.8065320000001,
          "velocity": 0.7165354330708661,
          "duration": 0.19354849999999146
        },
        {
          "name": "D#3",
          "midi": 51,
          "time": 137.8065320000001,
          "velocity": 0.7165354330708661,
          "duration": 0.19354849999999146
        },
        {
          "name": "G#3",
          "midi": 56,
          "time": 138.00008050000008,
          "velocity": 0.7165354330708661,
          "duration": 0.19354849999999146
        },
        {
          "name": "D#3",
          "midi": 51,
          "time": 138.00008050000008,
          "velocity": 0.7165354330708661,
          "duration": 0.19354849999999146
        },
        {
          "name": "D#3",
          "midi": 51,
          "time": 138.19362900000007,
          "velocity": 0.7165354330708661,
          "duration": 0.19354849999999146
        },
        {
          "name": "G#3",
          "midi": 56,
          "time": 138.19362900000007,
          "velocity": 0.7165354330708661,
          "duration": 0.19354849999999146
        },
        {
          "name": "G#3",
          "midi": 56,
          "time": 138.38717750000006,
          "velocity": 0.7165354330708661,
          "duration": 0.19354849999999146
        },
        {
          "name": "D#3",
          "midi": 51,
          "time": 138.38717750000006,
          "velocity": 0.7165354330708661,
          "duration": 0.19354849999999146
        },
        {
          "name": "D#3",
          "midi": 51,
          "time": 138.58072600000006,
          "velocity": 0.7165354330708661,
          "duration": 0.19354849999999146
        },
        {
          "name": "G#3",
          "midi": 56,
          "time": 138.58072600000006,
          "velocity": 0.7165354330708661,
          "duration": 0.19354849999999146
        },
        {
          "name": "G#3",
          "midi": 56,
          "time": 138.77427450000005,
          "velocity": 0.7165354330708661,
          "duration": 0.19354849999999146
        },
        {
          "name": "D#3",
          "midi": 51,
          "time": 138.77427450000005,
          "velocity": 0.7165354330708661,
          "duration": 0.19354849999999146
        },
        {
          "name": "G#3",
          "midi": 56,
          "time": 138.96782300000004,
          "velocity": 0.7165354330708661,
          "duration": 0.19354849999999146
        },
        {
          "name": "D#3",
          "midi": 51,
          "time": 138.96782300000004,
          "velocity": 0.7165354330708661,
          "duration": 0.19354849999999146
        },
        {
          "name": "G#3",
          "midi": 56,
          "time": 139.16137150000003,
          "velocity": 0.7165354330708661,
          "duration": 0.19354849999999146
        },
        {
          "name": "D#3",
          "midi": 51,
          "time": 139.16137150000003,
          "velocity": 0.7165354330708661,
          "duration": 0.19354849999999146
        },
        {
          "name": "F3",
          "midi": 53,
          "time": 139.35492000000002,
          "velocity": 0.7165354330708661,
          "duration": 0.19354849999999146
        },
        {
          "name": "C3",
          "midi": 48,
          "time": 139.35492000000002,
          "velocity": 0.7165354330708661,
          "duration": 0.19354849999999146
        },
        {
          "name": "F2",
          "midi": 41,
          "time": 139.35492000000002,
          "velocity": 0.7874015748031497,
          "duration": 0.3870969999999829
        },
        {
          "name": "C3",
          "midi": 48,
          "time": 139.5484685,
          "velocity": 0.7165354330708661,
          "duration": 0.19354849999999146
        },
        {
          "name": "F3",
          "midi": 53,
          "time": 139.5484685,
          "velocity": 0.7165354330708661,
          "duration": 0.19354849999999146
        },
        {
          "name": "F3",
          "midi": 53,
          "time": 139.742017,
          "velocity": 0.7165354330708661,
          "duration": 0.19354849999999146
        },
        {
          "name": "C3",
          "midi": 48,
          "time": 139.742017,
          "velocity": 0.7165354330708661,
          "duration": 0.19354849999999146
        },
        {
          "name": "F3",
          "midi": 53,
          "time": 139.9355655,
          "velocity": 0.7165354330708661,
          "duration": 0.19354849999999146
        },
        {
          "name": "C3",
          "midi": 48,
          "time": 139.9355655,
          "velocity": 0.7165354330708661,
          "duration": 0.19354849999999146
        },
        {
          "name": "F3",
          "midi": 53,
          "time": 140.129114,
          "velocity": 0.7165354330708661,
          "duration": 0.19354849999999146
        },
        {
          "name": "C3",
          "midi": 48,
          "time": 140.129114,
          "velocity": 0.7165354330708661,
          "duration": 0.19354849999999146
        },
        {
          "name": "F3",
          "midi": 53,
          "time": 140.32266249999998,
          "velocity": 0.7165354330708661,
          "duration": 0.19354849999999146
        },
        {
          "name": "C3",
          "midi": 48,
          "time": 140.32266249999998,
          "velocity": 0.7165354330708661,
          "duration": 0.19354849999999146
        },
        {
          "name": "C3",
          "midi": 48,
          "time": 140.51621099999997,
          "velocity": 0.7165354330708661,
          "duration": 0.19354849999999146
        },
        {
          "name": "F3",
          "midi": 53,
          "time": 140.51621099999997,
          "velocity": 0.7165354330708661,
          "duration": 0.19354849999999146
        },
        {
          "name": "C3",
          "midi": 48,
          "time": 140.70975949999996,
          "velocity": 0.7165354330708661,
          "duration": 0.19354849999999146
        },
        {
          "name": "F3",
          "midi": 53,
          "time": 140.70975949999996,
          "velocity": 0.7165354330708661,
          "duration": 0.19354849999999146
        },
        {
          "name": "F#2",
          "midi": 42,
          "time": 140.90330799999995,
          "velocity": 0.7874015748031497,
          "duration": 0.3870969999999829
        },
        {
          "name": "F#3",
          "midi": 54,
          "time": 140.90330799999995,
          "velocity": 0.7165354330708661,
          "duration": 0.19354849999999146
        },
        {
          "name": "C#3",
          "midi": 49,
          "time": 140.90330799999995,
          "velocity": 0.7165354330708661,
          "duration": 0.19354849999999146
        },
        {
          "name": "F#3",
          "midi": 54,
          "time": 141.09685649999994,
          "velocity": 0.7165354330708661,
          "duration": 0.19354849999999146
        },
        {
          "name": "C#3",
          "midi": 49,
          "time": 141.09685649999994,
          "velocity": 0.7165354330708661,
          "duration": 0.19354849999999146
        },
        {
          "name": "F#3",
          "midi": 54,
          "time": 141.29040499999994,
          "velocity": 0.7165354330708661,
          "duration": 0.19354849999999146
        },
        {
          "name": "C#3",
          "midi": 49,
          "time": 141.29040499999994,
          "velocity": 0.7165354330708661,
          "duration": 0.19354849999999146
        },
        {
          "name": "F#3",
          "midi": 54,
          "time": 141.48395349999993,
          "velocity": 0.7165354330708661,
          "duration": 0.19354849999999146
        },
        {
          "name": "C#3",
          "midi": 49,
          "time": 141.48395349999993,
          "velocity": 0.7165354330708661,
          "duration": 0.19354849999999146
        },
        {
          "name": "F#3",
          "midi": 54,
          "time": 141.67750199999992,
          "velocity": 0.7165354330708661,
          "duration": 0.19354849999999146
        },
        {
          "name": "C#3",
          "midi": 49,
          "time": 141.67750199999992,
          "velocity": 0.7165354330708661,
          "duration": 0.19354849999999146
        },
        {
          "name": "C#3",
          "midi": 49,
          "time": 141.8710504999999,
          "velocity": 0.7165354330708661,
          "duration": 0.19354849999999146
        },
        {
          "name": "F#3",
          "midi": 54,
          "time": 141.8710504999999,
          "velocity": 0.7165354330708661,
          "duration": 0.19354849999999146
        },
        {
          "name": "C#3",
          "midi": 49,
          "time": 142.0645989999999,
          "velocity": 0.7165354330708661,
          "duration": 0.19354849999999146
        },
        {
          "name": "F#3",
          "midi": 54,
          "time": 142.0645989999999,
          "velocity": 0.7165354330708661,
          "duration": 0.19354849999999146
        },
        {
          "name": "F#3",
          "midi": 54,
          "time": 142.2581474999999,
          "velocity": 0.7165354330708661,
          "duration": 0.19354849999999146
        },
        {
          "name": "C#3",
          "midi": 49,
          "time": 142.2581474999999,
          "velocity": 0.7165354330708661,
          "duration": 0.19354849999999146
        },
        {
          "name": "A#2",
          "midi": 46,
          "time": 142.45169599999988,
          "velocity": 0.7874015748031497,
          "duration": 0.3870969999999829
        },
        {
          "name": "A#3",
          "midi": 58,
          "time": 142.45169599999988,
          "velocity": 0.7165354330708661,
          "duration": 0.19354849999999146
        },
        {
          "name": "F3",
          "midi": 53,
          "time": 142.45169599999988,
          "velocity": 0.7165354330708661,
          "duration": 0.19354849999999146
        },
        {
          "name": "F3",
          "midi": 53,
          "time": 142.64524449999988,
          "velocity": 0.7165354330708661,
          "duration": 0.19354849999999146
        },
        {
          "name": "A#3",
          "midi": 58,
          "time": 142.64524449999988,
          "velocity": 0.7165354330708661,
          "duration": 0.19354849999999146
        },
        {
          "name": "A#3",
          "midi": 58,
          "time": 142.83879299999987,
          "velocity": 0.7165354330708661,
          "duration": 0.19354849999999146
        },
        {
          "name": "F3",
          "midi": 53,
          "time": 142.83879299999987,
          "velocity": 0.7165354330708661,
          "duration": 0.19354849999999146
        },
        {
          "name": "F3",
          "midi": 53,
          "time": 143.03234149999986,
          "velocity": 0.7165354330708661,
          "duration": 0.19354849999999146
        },
        {
          "name": "A#3",
          "midi": 58,
          "time": 143.03234149999986,
          "velocity": 0.7165354330708661,
          "duration": 0.19354849999999146
        },
        {
          "name": "F3",
          "midi": 53,
          "time": 143.22588999999985,
          "velocity": 0.7165354330708661,
          "duration": 0.19354849999999146
        },
        {
          "name": "A#3",
          "midi": 58,
          "time": 143.22588999999985,
          "velocity": 0.7165354330708661,
          "duration": 0.19354849999999146
        },
        {
          "name": "A#3",
          "midi": 58,
          "time": 143.41943849999984,
          "velocity": 0.7165354330708661,
          "duration": 0.19354849999999146
        },
        {
          "name": "F3",
          "midi": 53,
          "time": 143.41943849999984,
          "velocity": 0.7165354330708661,
          "duration": 0.19354849999999146
        },
        {
          "name": "A#3",
          "midi": 58,
          "time": 143.61298699999983,
          "velocity": 0.7165354330708661,
          "duration": 0.19354849999999146
        },
        {
          "name": "F3",
          "midi": 53,
          "time": 143.61298699999983,
          "velocity": 0.7165354330708661,
          "duration": 0.19354849999999146
        },
        {
          "name": "F3",
          "midi": 53,
          "time": 143.80653549999982,
          "velocity": 0.7165354330708661,
          "duration": 0.19354849999999146
        },
        {
          "name": "A#3",
          "midi": 58,
          "time": 143.80653549999982,
          "velocity": 0.7165354330708661,
          "duration": 0.19354849999999146
        },
        {
          "name": "G#3",
          "midi": 56,
          "time": 144.00008399999982,
          "velocity": 0.7165354330708661,
          "duration": 0.19354849999999146
        },
        {
          "name": "D#3",
          "midi": 51,
          "time": 144.00008399999982,
          "velocity": 0.7165354330708661,
          "duration": 0.19354849999999146
        },
        {
          "name": "G#2",
          "midi": 44,
          "time": 144.00008399999982,
          "velocity": 0.7874015748031497,
          "duration": 0.3870969999999829
        },
        {
          "name": "D#3",
          "midi": 51,
          "time": 144.1936324999998,
          "velocity": 0.7165354330708661,
          "duration": 0.19354849999999146
        },
        {
          "name": "G#3",
          "midi": 56,
          "time": 144.1936324999998,
          "velocity": 0.7165354330708661,
          "duration": 0.19354849999999146
        },
        {
          "name": "G#3",
          "midi": 56,
          "time": 144.3871809999998,
          "velocity": 0.7165354330708661,
          "duration": 0.19354849999999146
        },
        {
          "name": "D#3",
          "midi": 51,
          "time": 144.3871809999998,
          "velocity": 0.7165354330708661,
          "duration": 0.19354849999999146
        },
        {
          "name": "D#3",
          "midi": 51,
          "time": 144.5807294999998,
          "velocity": 0.7165354330708661,
          "duration": 0.19354849999999146
        },
        {
          "name": "G#3",
          "midi": 56,
          "time": 144.5807294999998,
          "velocity": 0.7165354330708661,
          "duration": 0.19354849999999146
        },
        {
          "name": "G#3",
          "midi": 56,
          "time": 144.77427799999978,
          "velocity": 0.7165354330708661,
          "duration": 0.19354849999999146
        },
        {
          "name": "D#3",
          "midi": 51,
          "time": 144.77427799999978,
          "velocity": 0.7165354330708661,
          "duration": 0.19354849999999146
        },
        {
          "name": "G#3",
          "midi": 56,
          "time": 144.96782649999977,
          "velocity": 0.7165354330708661,
          "duration": 0.19354849999999146
        },
        {
          "name": "D#3",
          "midi": 51,
          "time": 144.96782649999977,
          "velocity": 0.7165354330708661,
          "duration": 0.19354849999999146
        },
        {
          "name": "G#3",
          "midi": 56,
          "time": 145.16137499999977,
          "velocity": 0.7165354330708661,
          "duration": 0.19354849999999146
        },
        {
          "name": "D#3",
          "midi": 51,
          "time": 145.16137499999977,
          "velocity": 0.7165354330708661,
          "duration": 0.19354849999999146
        },
        {
          "name": "D#3",
          "midi": 51,
          "time": 145.35492349999976,
          "velocity": 0.7874015748031497,
          "duration": 0.19354849999999146
        },
        {
          "name": "G#3",
          "midi": 56,
          "time": 145.35492349999976,
          "velocity": 0.7874015748031497,
          "duration": 0.19354849999999146
        },
        {
          "name": "F2",
          "midi": 41,
          "time": 145.54847199999975,
          "velocity": 0.7874015748031497,
          "duration": 0.3870969999999829
        },
        {
          "name": "F3",
          "midi": 53,
          "time": 145.54847199999975,
          "velocity": 0.7165354330708661,
          "duration": 0.19354849999999146
        },
        {
          "name": "C3",
          "midi": 48,
          "time": 145.54847199999975,
          "velocity": 0.7165354330708661,
          "duration": 0.19354849999999146
        },
        {
          "name": "C3",
          "midi": 48,
          "time": 145.74202049999974,
          "velocity": 0.7165354330708661,
          "duration": 0.19354849999999146
        },
        {
          "name": "F3",
          "midi": 53,
          "time": 145.74202049999974,
          "velocity": 0.7165354330708661,
          "duration": 0.19354849999999146
        },
        {
          "name": "C3",
          "midi": 48,
          "time": 145.93556899999973,
          "velocity": 0.7165354330708661,
          "duration": 0.19354849999999146
        },
        {
          "name": "F3",
          "midi": 53,
          "time": 145.93556899999973,
          "velocity": 0.7165354330708661,
          "duration": 0.19354849999999146
        },
        {
          "name": "C3",
          "midi": 48,
          "time": 146.12911749999972,
          "velocity": 0.7874015748031497,
          "duration": 0.19354849999999146
        },
        {
          "name": "F3",
          "midi": 53,
          "time": 146.12911749999972,
          "velocity": 0.7874015748031497,
          "duration": 0.19354849999999146
        },
        {
          "name": "C3",
          "midi": 48,
          "time": 146.3226659999997,
          "velocity": 0.7165354330708661,
          "duration": 0.19354849999999146
        },
        {
          "name": "F3",
          "midi": 53,
          "time": 146.3226659999997,
          "velocity": 0.7165354330708661,
          "duration": 0.19354849999999146
        },
        {
          "name": "C3",
          "midi": 48,
          "time": 146.5162144999997,
          "velocity": 0.7165354330708661,
          "duration": 0.19354849999999146
        },
        {
          "name": "F3",
          "midi": 53,
          "time": 146.5162144999997,
          "velocity": 0.7165354330708661,
          "duration": 0.19354849999999146
        },
        {
          "name": "F3",
          "midi": 53,
          "time": 146.7097629999997,
          "velocity": 0.7874015748031497,
          "duration": 0.19354849999999146
        },
        {
          "name": "C3",
          "midi": 48,
          "time": 146.7097629999997,
          "velocity": 0.7874015748031497,
          "duration": 0.19354849999999146
        },
        {
          "name": "F3",
          "midi": 53,
          "time": 146.9033114999997,
          "velocity": 0.7165354330708661,
          "duration": 0.19354849999999146
        },
        {
          "name": "C3",
          "midi": 48,
          "time": 146.9033114999997,
          "velocity": 0.7165354330708661,
          "duration": 0.19354849999999146
        },
        {
          "name": "F#3",
          "midi": 54,
          "time": 147.09685999999968,
          "velocity": 0.7165354330708661,
          "duration": 0.19354849999999146
        },
        {
          "name": "C#3",
          "midi": 49,
          "time": 147.09685999999968,
          "velocity": 0.7165354330708661,
          "duration": 0.19354849999999146
        },
        {
          "name": "F#2",
          "midi": 42,
          "time": 147.09685999999968,
          "velocity": 0.7874015748031497,
          "duration": 0.3870969999999829
        },
        {
          "name": "F#3",
          "midi": 54,
          "time": 147.29040849999967,
          "velocity": 0.7165354330708661,
          "duration": 0.19354849999999146
        },
        {
          "name": "C#3",
          "midi": 49,
          "time": 147.29040849999967,
          "velocity": 0.7165354330708661,
          "duration": 0.19354849999999146
        },
        {
          "name": "C#3",
          "midi": 49,
          "time": 147.48395699999966,
          "velocity": 0.7874015748031497,
          "duration": 0.19354849999999146
        },
        {
          "name": "F#3",
          "midi": 54,
          "time": 147.48395699999966,
          "velocity": 0.7874015748031497,
          "duration": 0.19354849999999146
        },
        {
          "name": "F#3",
          "midi": 54,
          "time": 147.67750549999965,
          "velocity": 0.7165354330708661,
          "duration": 0.19354849999999146
        },
        {
          "name": "C#3",
          "midi": 49,
          "time": 147.67750549999965,
          "velocity": 0.7165354330708661,
          "duration": 0.19354849999999146
        },
        {
          "name": "C#3",
          "midi": 49,
          "time": 147.87105399999965,
          "velocity": 0.7165354330708661,
          "duration": 0.19354849999999146
        },
        {
          "name": "F#3",
          "midi": 54,
          "time": 147.87105399999965,
          "velocity": 0.7165354330708661,
          "duration": 0.19354849999999146
        },
        {
          "name": "C#3",
          "midi": 49,
          "time": 148.06460249999964,
          "velocity": 0.7165354330708661,
          "duration": 0.19354849999999146
        },
        {
          "name": "F#3",
          "midi": 54,
          "time": 148.06460249999964,
          "velocity": 0.7165354330708661,
          "duration": 0.19354849999999146
        },
        {
          "name": "F#3",
          "midi": 54,
          "time": 148.25815099999963,
          "velocity": 0.7165354330708661,
          "duration": 0.19354849999999146
        },
        {
          "name": "C#3",
          "midi": 49,
          "time": 148.25815099999963,
          "velocity": 0.7165354330708661,
          "duration": 0.19354849999999146
        },
        {
          "name": "F#3",
          "midi": 54,
          "time": 148.45169949999962,
          "velocity": 0.7165354330708661,
          "duration": 0.19354849999999146
        },
        {
          "name": "C#3",
          "midi": 49,
          "time": 148.45169949999962,
          "velocity": 0.7165354330708661,
          "duration": 0.19354849999999146
        },
        {
          "name": "F3",
          "midi": 53,
          "time": 148.6452479999996,
          "velocity": 0.7165354330708661,
          "duration": 0.19354849999999146
        },
        {
          "name": "A#3",
          "midi": 58,
          "time": 148.6452479999996,
          "velocity": 0.7165354330708661,
          "duration": 0.19354849999999146
        },
        {
          "name": "A#2",
          "midi": 46,
          "time": 148.6452479999996,
          "velocity": 0.7874015748031497,
          "duration": 0.19354849999999146
        },
        {
          "name": "F3",
          "midi": 53,
          "time": 148.8387964999996,
          "velocity": 0.7165354330708661,
          "duration": 0.19354849999999146
        },
        {
          "name": "A#3",
          "midi": 58,
          "time": 148.8387964999996,
          "velocity": 0.7165354330708661,
          "duration": 0.19354849999999146
        },
        {
          "name": "A#3",
          "midi": 58,
          "time": 149.0323449999996,
          "velocity": 0.7165354330708661,
          "duration": 0.19354849999999146
        },
        {
          "name": "F3",
          "midi": 53,
          "time": 149.0323449999996,
          "velocity": 0.7165354330708661,
          "duration": 0.19354849999999146
        },
        {
          "name": "F3",
          "midi": 53,
          "time": 149.2258934999996,
          "velocity": 0.7165354330708661,
          "duration": 0.19354849999999146
        },
        {
          "name": "A#3",
          "midi": 58,
          "time": 149.2258934999996,
          "velocity": 0.7165354330708661,
          "duration": 0.19354849999999146
        },
        {
          "name": "A#3",
          "midi": 58,
          "time": 149.41944199999958,
          "velocity": 0.7165354330708661,
          "duration": 0.19354849999999146
        },
        {
          "name": "F3",
          "midi": 53,
          "time": 149.41944199999958,
          "velocity": 0.7165354330708661,
          "duration": 0.19354849999999146
        },
        {
          "name": "F3",
          "midi": 53,
          "time": 149.61299049999957,
          "velocity": 0.7244094488188977,
          "duration": 0.19354849999999146
        },
        {
          "name": "A#3",
          "midi": 58,
          "time": 149.61299049999957,
          "velocity": 0.7244094488188977,
          "duration": 0.19354849999999146
        },
        {
          "name": "F3",
          "midi": 53,
          "time": 149.80653899999956,
          "velocity": 0.7244094488188977,
          "duration": 0.19354849999999146
        },
        {
          "name": "A#3",
          "midi": 58,
          "time": 149.80653899999956,
          "velocity": 0.7244094488188977,
          "duration": 0.19354849999999146
        },
        {
          "name": "A#3",
          "midi": 58,
          "time": 150.00008749999955,
          "velocity": 0.7244094488188977,
          "duration": 0.19354849999999146
        },
        {
          "name": "F3",
          "midi": 53,
          "time": 150.00008749999955,
          "velocity": 0.7244094488188977,
          "duration": 0.19354849999999146
        },
        {
          "name": "G#2",
          "midi": 44,
          "time": 150.19363599999954,
          "velocity": 0.7874015748031497,
          "duration": 0.3870969999999829
        },
        {
          "name": "G#3",
          "midi": 56,
          "time": 150.19363599999954,
          "velocity": 0.7244094488188977,
          "duration": 0.19354849999999146
        },
        {
          "name": "D#3",
          "midi": 51,
          "time": 150.19363599999954,
          "velocity": 0.7244094488188977,
          "duration": 0.19354849999999146
        },
        {
          "name": "G#3",
          "midi": 56,
          "time": 150.38718449999953,
          "velocity": 0.7244094488188977,
          "duration": 0.19354849999999146
        },
        {
          "name": "D#3",
          "midi": 51,
          "time": 150.38718449999953,
          "velocity": 0.7244094488188977,
          "duration": 0.19354849999999146
        },
        {
          "name": "G#3",
          "midi": 56,
          "time": 150.58073299999953,
          "velocity": 0.7244094488188977,
          "duration": 0.19354849999999146
        },
        {
          "name": "D#3",
          "midi": 51,
          "time": 150.58073299999953,
          "velocity": 0.7244094488188977,
          "duration": 0.19354849999999146
        },
        {
          "name": "G#3",
          "midi": 56,
          "time": 150.77428149999952,
          "velocity": 0.7244094488188977,
          "duration": 0.19354849999999146
        },
        {
          "name": "D#3",
          "midi": 51,
          "time": 150.77428149999952,
          "velocity": 0.7244094488188977,
          "duration": 0.19354849999999146
        },
        {
          "name": "D#3",
          "midi": 51,
          "time": 150.9678299999995,
          "velocity": 0.7244094488188977,
          "duration": 0.19354849999999146
        },
        {
          "name": "G#3",
          "midi": 56,
          "time": 150.9678299999995,
          "velocity": 0.7244094488188977,
          "duration": 0.19354849999999146
        },
        {
          "name": "D#3",
          "midi": 51,
          "time": 151.1613784999995,
          "velocity": 0.7244094488188977,
          "duration": 0.19354849999999146
        },
        {
          "name": "G#3",
          "midi": 56,
          "time": 151.1613784999995,
          "velocity": 0.7244094488188977,
          "duration": 0.19354849999999146
        },
        {
          "name": "D#3",
          "midi": 51,
          "time": 151.3549269999995,
          "velocity": 0.7244094488188977,
          "duration": 0.19354849999999146
        },
        {
          "name": "G#3",
          "midi": 56,
          "time": 151.3549269999995,
          "velocity": 0.7244094488188977,
          "duration": 0.19354849999999146
        },
        {
          "name": "D#3",
          "midi": 51,
          "time": 151.54847549999948,
          "velocity": 0.7244094488188977,
          "duration": 0.19354849999999146
        },
        {
          "name": "G#3",
          "midi": 56,
          "time": 151.54847549999948,
          "velocity": 0.7244094488188977,
          "duration": 0.19354849999999146
        },
        {
          "name": "F2",
          "midi": 41,
          "time": 151.74202399999947,
          "velocity": 0.7874015748031497,
          "duration": 0.3870969999999829
        },
        {
          "name": "C3",
          "midi": 48,
          "time": 151.74202399999947,
          "velocity": 0.7244094488188977,
          "duration": 0.19354849999999146
        },
        {
          "name": "F3",
          "midi": 53,
          "time": 151.74202399999947,
          "velocity": 0.7244094488188977,
          "duration": 0.19354849999999146
        },
        {
          "name": "C3",
          "midi": 48,
          "time": 151.93557249999947,
          "velocity": 0.7244094488188977,
          "duration": 0.19354849999999146
        },
        {
          "name": "F3",
          "midi": 53,
          "time": 151.93557249999947,
          "velocity": 0.7244094488188977,
          "duration": 0.19354849999999146
        },
        {
          "name": "C3",
          "midi": 48,
          "time": 152.12912099999946,
          "velocity": 0.7244094488188977,
          "duration": 0.19354849999999146
        },
        {
          "name": "F3",
          "midi": 53,
          "time": 152.12912099999946,
          "velocity": 0.7244094488188977,
          "duration": 0.19354849999999146
        },
        {
          "name": "C3",
          "midi": 48,
          "time": 152.32266949999945,
          "velocity": 0.7244094488188977,
          "duration": 0.19354849999999146
        },
        {
          "name": "F3",
          "midi": 53,
          "time": 152.32266949999945,
          "velocity": 0.7244094488188977,
          "duration": 0.19354849999999146
        },
        {
          "name": "C3",
          "midi": 48,
          "time": 152.51621799999944,
          "velocity": 0.7244094488188977,
          "duration": 0.19354849999999146
        },
        {
          "name": "F3",
          "midi": 53,
          "time": 152.51621799999944,
          "velocity": 0.7244094488188977,
          "duration": 0.19354849999999146
        },
        {
          "name": "F3",
          "midi": 53,
          "time": 152.70976649999943,
          "velocity": 0.7244094488188977,
          "duration": 0.19354849999999146
        },
        {
          "name": "C3",
          "midi": 48,
          "time": 152.70976649999943,
          "velocity": 0.7244094488188977,
          "duration": 0.19354849999999146
        },
        {
          "name": "F3",
          "midi": 53,
          "time": 152.90331499999942,
          "velocity": 0.7244094488188977,
          "duration": 0.19354849999999146
        },
        {
          "name": "C3",
          "midi": 48,
          "time": 152.90331499999942,
          "velocity": 0.7244094488188977,
          "duration": 0.19354849999999146
        },
        {
          "name": "C3",
          "midi": 48,
          "time": 153.09686349999942,
          "velocity": 0.7244094488188977,
          "duration": 0.19354849999999146
        },
        {
          "name": "F3",
          "midi": 53,
          "time": 153.09686349999942,
          "velocity": 0.7244094488188977,
          "duration": 0.19354849999999146
        },
        {
          "name": "C#3",
          "midi": 49,
          "time": 153.2904119999994,
          "velocity": 0.7244094488188977,
          "duration": 0.19354849999999146
        },
        {
          "name": "F#3",
          "midi": 54,
          "time": 153.2904119999994,
          "velocity": 0.7244094488188977,
          "duration": 0.19354849999999146
        },
        {
          "name": "F#2",
          "midi": 42,
          "time": 153.2904119999994,
          "velocity": 0.7874015748031497,
          "duration": 0.3870969999999829
        },
        {
          "name": "C#3",
          "midi": 49,
          "time": 153.4839604999994,
          "velocity": 0.7244094488188977,
          "duration": 0.19354849999999146
        },
        {
          "name": "F#3",
          "midi": 54,
          "time": 153.4839604999994,
          "velocity": 0.7244094488188977,
          "duration": 0.19354849999999146
        },
        {
          "name": "F#3",
          "midi": 54,
          "time": 153.6775089999994,
          "velocity": 0.7244094488188977,
          "duration": 0.19354849999999146
        },
        {
          "name": "C#3",
          "midi": 49,
          "time": 153.6775089999994,
          "velocity": 0.7244094488188977,
          "duration": 0.19354849999999146
        },
        {
          "name": "F#3",
          "midi": 54,
          "time": 153.87105749999938,
          "velocity": 0.7244094488188977,
          "duration": 0.19354849999999146
        },
        {
          "name": "C#3",
          "midi": 49,
          "time": 153.87105749999938,
          "velocity": 0.7244094488188977,
          "duration": 0.19354849999999146
        },
        {
          "name": "F#3",
          "midi": 54,
          "time": 154.06460599999937,
          "velocity": 0.7244094488188977,
          "duration": 0.19354849999999146
        },
        {
          "name": "C#3",
          "midi": 49,
          "time": 154.06460599999937,
          "velocity": 0.7244094488188977,
          "duration": 0.19354849999999146
        },
        {
          "name": "F#3",
          "midi": 54,
          "time": 154.25815449999936,
          "velocity": 0.7244094488188977,
          "duration": 0.19354849999999146
        },
        {
          "name": "C#3",
          "midi": 49,
          "time": 154.25815449999936,
          "velocity": 0.7244094488188977,
          "duration": 0.19354849999999146
        },
        {
          "name": "C#3",
          "midi": 49,
          "time": 154.45170299999936,
          "velocity": 0.7244094488188977,
          "duration": 0.19354849999999146
        },
        {
          "name": "F#3",
          "midi": 54,
          "time": 154.45170299999936,
          "velocity": 0.7244094488188977,
          "duration": 0.19354849999999146
        },
        {
          "name": "F#3",
          "midi": 54,
          "time": 154.64525149999935,
          "velocity": 0.7244094488188977,
          "duration": 0.19354849999999146
        },
        {
          "name": "C#3",
          "midi": 49,
          "time": 154.64525149999935,
          "velocity": 0.7244094488188977,
          "duration": 0.19354849999999146
        },
        {
          "name": "A#2",
          "midi": 46,
          "time": 154.83879999999934,
          "velocity": 0.7874015748031497,
          "duration": 0.3870969999999829
        },
        {
          "name": "A#3",
          "midi": 58,
          "time": 154.83879999999934,
          "velocity": 0.7244094488188977,
          "duration": 0.19354849999999146
        },
        {
          "name": "F3",
          "midi": 53,
          "time": 154.83879999999934,
          "velocity": 0.7244094488188977,
          "duration": 0.19354849999999146
        },
        {
          "name": "A#3",
          "midi": 58,
          "time": 155.03234849999933,
          "velocity": 0.7244094488188977,
          "duration": 0.19354849999999146
        },
        {
          "name": "F3",
          "midi": 53,
          "time": 155.03234849999933,
          "velocity": 0.7244094488188977,
          "duration": 0.19354849999999146
        },
        {
          "name": "A#3",
          "midi": 58,
          "time": 155.22589699999932,
          "velocity": 0.7244094488188977,
          "duration": 0.19354849999999146
        },
        {
          "name": "F3",
          "midi": 53,
          "time": 155.22589699999932,
          "velocity": 0.7244094488188977,
          "duration": 0.19354849999999146
        },
        {
          "name": "F3",
          "midi": 53,
          "time": 155.4194454999993,
          "velocity": 0.7244094488188977,
          "duration": 0.19354849999999146
        },
        {
          "name": "A#3",
          "midi": 58,
          "time": 155.4194454999993,
          "velocity": 0.7244094488188977,
          "duration": 0.19354849999999146
        },
        {
          "name": "A#3",
          "midi": 58,
          "time": 155.6129939999993,
          "velocity": 0.7244094488188977,
          "duration": 0.19354849999999146
        },
        {
          "name": "F3",
          "midi": 53,
          "time": 155.6129939999993,
          "velocity": 0.7244094488188977,
          "duration": 0.19354849999999146
        },
        {
          "name": "F3",
          "midi": 53,
          "time": 155.8065424999993,
          "velocity": 0.7244094488188977,
          "duration": 0.19354849999999146
        },
        {
          "name": "A#3",
          "midi": 58,
          "time": 155.8065424999993,
          "velocity": 0.7244094488188977,
          "duration": 0.19354849999999146
        },
        {
          "name": "A#3",
          "midi": 58,
          "time": 156.0000909999993,
          "velocity": 0.7244094488188977,
          "duration": 0.19354849999999146
        },
        {
          "name": "F3",
          "midi": 53,
          "time": 156.0000909999993,
          "velocity": 0.7244094488188977,
          "duration": 0.19354849999999146
        },
        {
          "name": "F3",
          "midi": 53,
          "time": 156.19363949999928,
          "velocity": 0.7244094488188977,
          "duration": 0.19354849999999146
        },
        {
          "name": "A#3",
          "midi": 58,
          "time": 156.19363949999928,
          "velocity": 0.7244094488188977,
          "duration": 0.19354849999999146
        },
        {
          "name": "G#3",
          "midi": 56,
          "time": 156.38718799999927,
          "velocity": 0.7244094488188977,
          "duration": 0.19354849999999146
        },
        {
          "name": "D#3",
          "midi": 51,
          "time": 156.38718799999927,
          "velocity": 0.7244094488188977,
          "duration": 0.19354849999999146
        },
        {
          "name": "G#2",
          "midi": 44,
          "time": 156.38718799999927,
          "velocity": 0.7874015748031497,
          "duration": 0.3870969999999829
        },
        {
          "name": "G#3",
          "midi": 56,
          "time": 156.58073649999926,
          "velocity": 0.7244094488188977,
          "duration": 0.19354849999999146
        },
        {
          "name": "D#3",
          "midi": 51,
          "time": 156.58073649999926,
          "velocity": 0.7244094488188977,
          "duration": 0.19354849999999146
        },
        {
          "name": "G#3",
          "midi": 56,
          "time": 156.77428499999925,
          "velocity": 0.7244094488188977,
          "duration": 0.19354849999999146
        },
        {
          "name": "D#3",
          "midi": 51,
          "time": 156.77428499999925,
          "velocity": 0.7244094488188977,
          "duration": 0.19354849999999146
        },
        {
          "name": "G#3",
          "midi": 56,
          "time": 156.96783349999924,
          "velocity": 0.7244094488188977,
          "duration": 0.19354849999999146
        },
        {
          "name": "D#3",
          "midi": 51,
          "time": 156.96783349999924,
          "velocity": 0.7244094488188977,
          "duration": 0.19354849999999146
        },
        {
          "name": "D#3",
          "midi": 51,
          "time": 157.16138199999924,
          "velocity": 0.7244094488188977,
          "duration": 0.19354849999999146
        },
        {
          "name": "G#3",
          "midi": 56,
          "time": 157.16138199999924,
          "velocity": 0.7244094488188977,
          "duration": 0.19354849999999146
        },
        {
          "name": "D#3",
          "midi": 51,
          "time": 157.35493049999923,
          "velocity": 0.7244094488188977,
          "duration": 0.19354849999999146
        },
        {
          "name": "G#3",
          "midi": 56,
          "time": 157.35493049999923,
          "velocity": 0.7244094488188977,
          "duration": 0.19354849999999146
        },
        {
          "name": "G#3",
          "midi": 56,
          "time": 157.54847899999922,
          "velocity": 0.7244094488188977,
          "duration": 0.19354849999999146
        },
        {
          "name": "D#3",
          "midi": 51,
          "time": 157.54847899999922,
          "velocity": 0.7244094488188977,
          "duration": 0.19354849999999146
        },
        {
          "name": "G#3",
          "midi": 56,
          "time": 157.7420274999992,
          "velocity": 0.7244094488188977,
          "duration": 0.19354849999999146
        },
        {
          "name": "D#3",
          "midi": 51,
          "time": 157.7420274999992,
          "velocity": 0.7244094488188977,
          "duration": 0.19354849999999146
        },
        {
          "name": "C3",
          "midi": 48,
          "time": 157.9355759999992,
          "velocity": 0.7244094488188977,
          "duration": 0.19354849999999146
        },
        {
          "name": "F3",
          "midi": 53,
          "time": 157.9355759999992,
          "velocity": 0.7244094488188977,
          "duration": 0.19354849999999146
        },
        {
          "name": "F2",
          "midi": 41,
          "time": 157.9355759999992,
          "velocity": 0.7874015748031497,
          "duration": 0.3870969999999829
        },
        {
          "name": "C3",
          "midi": 48,
          "time": 158.1291244999992,
          "velocity": 0.7244094488188977,
          "duration": 0.19354849999999146
        },
        {
          "name": "F3",
          "midi": 53,
          "time": 158.1291244999992,
          "velocity": 0.7244094488188977,
          "duration": 0.19354849999999146
        },
        {
          "name": "C3",
          "midi": 48,
          "time": 158.32267299999918,
          "velocity": 0.7244094488188977,
          "duration": 0.19354849999999146
        },
        {
          "name": "F3",
          "midi": 53,
          "time": 158.32267299999918,
          "velocity": 0.7244094488188977,
          "duration": 0.19354849999999146
        },
        {
          "name": "C3",
          "midi": 48,
          "time": 158.51622149999918,
          "velocity": 0.7244094488188977,
          "duration": 0.19354849999999146
        },
        {
          "name": "F3",
          "midi": 53,
          "time": 158.51622149999918,
          "velocity": 0.7244094488188977,
          "duration": 0.19354849999999146
        },
        {
          "name": "C3",
          "midi": 48,
          "time": 158.70976999999917,
          "velocity": 0.7244094488188977,
          "duration": 0.19354849999999146
        },
        {
          "name": "F3",
          "midi": 53,
          "time": 158.70976999999917,
          "velocity": 0.7244094488188977,
          "duration": 0.19354849999999146
        },
        {
          "name": "F3",
          "midi": 53,
          "time": 158.90331849999916,
          "velocity": 0.7244094488188977,
          "duration": 0.19354849999999146
        },
        {
          "name": "C3",
          "midi": 48,
          "time": 158.90331849999916,
          "velocity": 0.7244094488188977,
          "duration": 0.19354849999999146
        },
        {
          "name": "C3",
          "midi": 48,
          "time": 159.09686699999915,
          "velocity": 0.7244094488188977,
          "duration": 0.19354849999999146
        },
        {
          "name": "F3",
          "midi": 53,
          "time": 159.09686699999915,
          "velocity": 0.7244094488188977,
          "duration": 0.19354849999999146
        },
        {
          "name": "F3",
          "midi": 53,
          "time": 159.29041549999914,
          "velocity": 0.7244094488188977,
          "duration": 0.19354849999999146
        },
        {
          "name": "C3",
          "midi": 48,
          "time": 159.29041549999914,
          "velocity": 0.7244094488188977,
          "duration": 0.19354849999999146
        },
        {
          "name": "F#2",
          "midi": 42,
          "time": 159.48396399999913,
          "velocity": 0.7874015748031497,
          "duration": 1.5483879999999886
        },
        {
          "name": "C#3",
          "midi": 49,
          "time": 159.48396399999913,
          "velocity": 0.7874015748031497,
          "duration": 1.5483879999999886
        },
        {
          "name": "F#3",
          "midi": 54,
          "time": 159.48396399999913,
          "velocity": 0.7874015748031497,
          "duration": 1.5483879999999886
        },
        {
          "name": "A#1",
          "midi": 34,
          "time": 161.03235199999912,
          "velocity": 0.7874015748031497,
          "duration": 2.4193562499999928
        },
        {
          "name": "A#2",
          "midi": 46,
          "time": 161.03235199999912,
          "velocity": 0.7874015748031497,
          "duration": 2.4193562499999928
        }
      ],
      "controlChanges": {
        "6": [
          {
            "number": 6,
            "time": 0,
            "value": 0.09448818897637795
          },
          {
            "number": 6,
            "time": 0,
            "value": 0.09448818897637795
          },
          {
            "number": 6,
            "time": 0,
            "value": 0.09448818897637795
          },
          {
            "number": 6,
            "time": 164.12912799999913,
            "value": 0.09448818897637795
          },
          {
            "number": 6,
            "time": 164.1331602604158,
            "value": 0.09448818897637795
          },
          {
            "number": 6,
            "time": 164.1331602604158,
            "value": 0.09448818897637795
          }
        ],
        "7": [
          {
            "number": 7,
            "time": 0,
            "value": 0.7874015748031497
          },
          {
            "number": 7,
            "time": 0,
            "value": 0.7874015748031497
          },
          {
            "number": 7,
            "time": 0,
            "value": 0.7874015748031497
          },
          {
            "number": 7,
            "time": 0,
            "value": 0.7874015748031497
          },
          {
            "number": 7,
            "time": 164.12912799999913,
            "value": 0.7874015748031497
          },
          {
            "number": 7,
            "time": 164.1331602604158,
            "value": 0.7874015748031497
          },
          {
            "number": 7,
            "time": 164.1331602604158,
            "value": 0.7874015748031497
          }
        ],
        "10": [
          {
            "number": 10,
            "time": 0,
            "value": 0.5039370078740157
          },
          {
            "number": 10,
            "time": 0,
            "value": 0.5039370078740157
          },
          {
            "number": 10,
            "time": 0,
            "value": 0.5039370078740157
          },
          {
            "number": 10,
            "time": 0,
            "value": 0.5039370078740157
          },
          {
            "number": 10,
            "time": 164.12912799999913,
            "value": 0.5039370078740157
          },
          {
            "number": 10,
            "time": 164.1331602604158,
            "value": 0.5039370078740157
          },
          {
            "number": 10,
            "time": 164.1331602604158,
            "value": 0.5039370078740157
          }
        ],
        "100": [
          {
            "number": 100,
            "time": 0,
            "value": 0
          },
          {
            "number": 100,
            "time": 0,
            "value": 0
          },
          {
            "number": 100,
            "time": 0,
            "value": 0
          },
          {
            "number": 100,
            "time": 164.12912799999913,
            "value": 0
          },
          {
            "number": 100,
            "time": 164.1331602604158,
            "value": 0
          },
          {
            "number": 100,
            "time": 164.1331602604158,
            "value": 0
          }
        ],
        "101": [
          {
            "number": 101,
            "time": 0,
            "value": 0
          },
          {
            "number": 101,
            "time": 0,
            "value": 0
          },
          {
            "number": 101,
            "time": 0,
            "value": 0
          },
          {
            "number": 101,
            "time": 164.12912799999913,
            "value": 0
          },
          {
            "number": 101,
            "time": 164.1331602604158,
            "value": 0
          },
          {
            "number": 101,
            "time": 164.1331602604158,
            "value": 0
          }
        ]
      },
      "id": 5,
      "name": "MIDI out",
      "channelNumber": 0,
      "isPercussion": false
    }
  ]
}