{
  "header": {
    "PPQ": 96,
    "timeSignature": [
      4,
      4
    ],
    "bpm": 100,
    "name": ""
  },
  "startTime": 0,
  "duration": 124.79999999999944,
  "tracks": [
    {
      "startTime": 0,
      "duration": 0,
      "length": 0,
      "notes": [],
      "controlChanges": {},
      "id": 0
    },
    {
      "startTime": 0,
      "duration": 0,
      "length": 0,
      "notes": [],
      "controlChanges": {},
      "id": 1
    },
    {
      "startTime": 0.3,
      "duration": 124.19999999999978,
      "length": 448,
      "notes": [
        {
          "name": "D#5",
          "midi": 75,
          "time": 0.3,
          "velocity": 0.7874015748031497,
          "duration": 0.3
        },
        {
          "name": "D#4",
          "midi": 63,
          "time": 0.3,
          "velocity": 0.7874015748031497,
          "duration": 0.3
        },
        {
          "name": "B4",
          "midi": 71,
          "time": 0.8999999999999999,
          "velocity": 0.7874015748031497,
          "duration": 0.6000000000000001
        },
        {
          "name": "B3",
          "midi": 59,
          "time": 0.8999999999999999,
          "velocity": 0.7874015748031497,
          "duration": 0.6000000000000001
        },
        {
          "name": "A#3",
          "midi": 58,
          "time": 1.5,
          "velocity": 0.7874015748031497,
          "duration": 0.1499999999999999
        },
        {
          "name": "A#4",
          "midi": 70,
          "time": 1.5,
          "velocity": 0.7874015748031497,
          "duration": 0.1499999999999999
        },
        {
          "name": "B3",
          "midi": 59,
          "time": 1.65,
          "velocity": 0.7874015748031497,
          "duration": 0.1499999999999999
        },
        {
          "name": "B4",
          "midi": 71,
          "time": 1.65,
          "velocity": 0.7874015748031497,
          "duration": 0.1499999999999999
        },
        {
          "name": "A#4",
          "midi": 70,
          "time": 1.7999999999999998,
          "velocity": 0.7874015748031497,
          "duration": 0.2999999999999998
        },
        {
          "name": "A#3",
          "midi": 58,
          "time": 1.7999999999999998,
          "velocity": 0.7874015748031497,
          "duration": 0.2999999999999998
        },
        {
          "name": "F#4",
          "midi": 66,
          "time": 2.0999999999999996,
          "velocity": 0.7874015748031497,
          "duration": 0.2999999999999998
        },
        {
          "name": "F#3",
          "midi": 54,
          "time": 2.0999999999999996,
          "velocity": 0.7874015748031497,
          "duration": 0.2999999999999998
        },
        {
          "name": "D#5",
          "midi": 75,
          "time": 2.6999999999999993,
          "velocity": 0.7874015748031497,
          "duration": 0.6000000000000001
        },
        {
          "name": "D#4",
          "midi": 63,
          "time": 2.6999999999999993,
          "velocity": 0.7874015748031497,
          "duration": 0.6000000000000001
        },
        {
          "name": "B3",
          "midi": 59,
          "time": 3.2999999999999994,
          "velocity": 0.7874015748031497,
          "duration": 0.6000000000000001
        },
        {
          "name": "B4",
          "midi": 71,
          "time": 3.2999999999999994,
          "velocity": 0.7874015748031497,
          "duration": 0.6000000000000001
        },
        {
          "name": "A#4",
          "midi": 70,
          "time": 3.8999999999999995,
          "velocity": 0.7874015748031497,
          "duration": 0.15000000000000036
        },
        {
          "name": "A#3",
          "midi": 58,
          "time": 3.8999999999999995,
          "velocity": 0.7874015748031497,
          "duration": 0.15000000000000036
        },
        {
          "name": "B3",
          "midi": 59,
          "time": 4.05,
          "velocity": 0.7874015748031497,
          "duration": 0.15000000000000036
        },
        {
          "name": "B4",
          "midi": 71,
          "time": 4.05,
          "velocity": 0.7874015748031497,
          "duration": 0.15000000000000036
        },
        {
          "name": "A#4",
          "midi": 70,
          "time": 4.2,
          "velocity": 0.7874015748031497,
          "duration": 0.2999999999999998
        },
        {
          "name": "A#3",
          "midi": 58,
          "time": 4.2,
          "velocity": 0.7874015748031497,
          "duration": 0.2999999999999998
        },
        {
          "name": "F#4",
          "midi": 66,
          "time": 4.5,
          "velocity": 0.7874015748031497,
          "duration": 0.2999999999999998
        },
        {
          "name": "F#3",
          "midi": 54,
          "time": 4.5,
          "velocity": 0.7874015748031497,
          "duration": 0.2999999999999998
        },
        {
          "name": "D#5",
          "midi": 75,
          "time": 5.1,
          "velocity": 0.7874015748031497,
          "duration": 0.5999999999999996
        },
        {
          "name": "D#4",
          "midi": 63,
          "time": 5.1,
          "velocity": 0.7874015748031497,
          "duration": 0.5999999999999996
        },
        {
          "name": "B4",
          "midi": 71,
          "time": 5.699999999999999,
          "velocity": 0.7874015748031497,
          "duration": 0.5999999999999996
        },
        {
          "name": "B3",
          "midi": 59,
          "time": 5.699999999999999,
          "velocity": 0.7874015748031497,
          "duration": 0.5999999999999996
        },
        {
          "name": "A#3",
          "midi": 58,
          "time": 6.299999999999999,
          "velocity": 0.7874015748031497,
          "duration": 0.15000000000000036
        },
        {
          "name": "A#4",
          "midi": 70,
          "time": 6.299999999999999,
          "velocity": 0.7874015748031497,
          "duration": 0.15000000000000036
        },
        {
          "name": "B3",
          "midi": 59,
          "time": 6.449999999999999,
          "velocity": 0.7874015748031497,
          "duration": 0.15000000000000036
        },
        {
          "name": "B4",
          "midi": 71,
          "time": 6.449999999999999,
          "velocity": 0.7874015748031497,
          "duration": 0.15000000000000036
        },
        {
          "name": "A#4",
          "midi": 70,
          "time": 6.6,
          "velocity": 0.7874015748031497,
          "duration": 0.2999999999999998
        },
        {
          "name": "A#3",
          "midi": 58,
          "time": 6.6,
          "velocity": 0.7874015748031497,
          "duration": 0.2999999999999998
        },
        {
          "name": "F#4",
          "midi": 66,
          "time": 6.8999999999999995,
          "velocity": 0.7874015748031497,
          "duration": 0.2999999999999998
        },
        {
          "name": "F#3",
          "midi": 54,
          "time": 6.8999999999999995,
          "velocity": 0.7874015748031497,
          "duration": 0.2999999999999998
        },
        {
          "name": "D#4",
          "midi": 63,
          "time": 7.199999999999999,
          "velocity": 0.7874015748031497,
          "duration": 0.15000000000000036
        },
        {
          "name": "D#5",
          "midi": 75,
          "time": 7.199999999999999,
          "velocity": 0.7874015748031497,
          "duration": 0.15000000000000036
        },
        {
          "name": "D#4",
          "midi": 63,
          "time": 7.5,
          "velocity": 0.7874015748031497,
          "duration": 0.15000000000000036
        },
        {
          "name": "D#5",
          "midi": 75,
          "time": 7.5,
          "velocity": 0.7874015748031497,
          "duration": 0.15000000000000036
        },
        {
          "name": "D#4",
          "midi": 63,
          "time": 7.65,
          "velocity": 0.7874015748031497,
          "duration": 0.15000000000000036
        },
        {
          "name": "D#5",
          "midi": 75,
          "time": 7.65,
          "velocity": 0.7874015748031497,
          "duration": 0.15000000000000036
        },
        {
          "name": "D#4",
          "midi": 63,
          "time": 7.800000000000001,
          "velocity": 0.7874015748031497,
          "duration": 0.3000000000000007
        },
        {
          "name": "D#5",
          "midi": 75,
          "time": 7.800000000000001,
          "velocity": 0.7874015748031497,
          "duration": 0.3000000000000007
        },
        {
          "name": "D#4",
          "midi": 63,
          "time": 8.100000000000001,
          "velocity": 0.7874015748031497,
          "duration": 0.15000000000000036
        },
        {
          "name": "D#5",
          "midi": 75,
          "time": 8.100000000000001,
          "velocity": 0.7874015748031497,
          "duration": 0.15000000000000036
        },
        {
          "name": "D#5",
          "midi": 75,
          "time": 8.250000000000002,
          "velocity": 0.7874015748031497,
          "duration": 0.15000000000000036
        },
        {
          "name": "D#4",
          "midi": 63,
          "time": 8.250000000000002,
          "velocity": 0.7874015748031497,
          "duration": 0.15000000000000036
        },
        {
          "name": "D#4",
          "midi": 63,
          "time": 8.400000000000002,
          "velocity": 0.7874015748031497,
          "duration": 0.15000000000000036
        },
        {
          "name": "D#5",
          "midi": 75,
          "time": 8.400000000000002,
          "velocity": 0.7874015748031497,
          "duration": 0.15000000000000036
        },
        {
          "name": "D#4",
          "midi": 63,
          "time": 8.550000000000002,
          "velocity": 0.7874015748031497,
          "duration": 0.15000000000000036
        },
        {
          "name": "D#5",
          "midi": 75,
          "time": 8.550000000000002,
          "velocity": 0.7874015748031497,
          "duration": 0.15000000000000036
        },
        {
          "name": "D#5",
          "midi": 75,
          "time": 8.700000000000003,
          "velocity": 0.7874015748031497,
          "duration": 0.3000000000000007
        },
        {
          "name": "D#4",
          "midi": 63,
          "time": 8.700000000000003,
          "velocity": 0.7874015748031497,
          "duration": 0.3000000000000007
        },
        {
          "name": "C#4",
          "midi": 61,
          "time": 9.000000000000004,
          "velocity": 0.7874015748031497,
          "duration": 0.15000000000000036
        },
        {
          "name": "C#4",
          "midi": 61,
          "time": 9.150000000000004,
          "velocity": 0.7874015748031497,
          "duration": 0.15000000000000036
        },
        {
          "name": "D#4",
          "midi": 63,
          "time": 9.300000000000004,
          "velocity": 0.7874015748031497,
          "duration": 0.3000000000000007
        },
        {
          "name": "F#4",
          "midi": 66,
          "time": 9.600000000000005,
          "velocity": 0.7874015748031497,
          "duration": 0.3000000000000007
        },
        {
          "name": "D#4",
          "midi": 63,
          "time": 9.900000000000006,
          "velocity": 0.7874015748031497,
          "duration": 0.3000000000000007
        },
        {
          "name": "A#3",
          "midi": 58,
          "time": 11.100000000000007,
          "velocity": 0.7874015748031497,
          "duration": 0.15000000000000036
        },
        {
          "name": "A#3",
          "midi": 58,
          "time": 11.250000000000007,
          "velocity": 0.7874015748031497,
          "duration": 0.15000000000000036
        },
        {
          "name": "C#4",
          "midi": 61,
          "time": 11.400000000000007,
          "velocity": 0.7874015748031497,
          "duration": 0.3000000000000007
        },
        {
          "name": "D#4",
          "midi": 63,
          "time": 11.700000000000008,
          "velocity": 0.7874015748031497,
          "duration": 0.3000000000000007
        },
        {
          "name": "D#4",
          "midi": 63,
          "time": 12.000000000000009,
          "velocity": 0.7874015748031497,
          "duration": 0.3000000000000007
        },
        {
          "name": "C#4",
          "midi": 61,
          "time": 13.80000000000001,
          "velocity": 0.7874015748031497,
          "duration": 0.3000000000000007
        },
        {
          "name": "D#4",
          "midi": 63,
          "time": 14.10000000000001,
          "velocity": 0.7874015748031497,
          "duration": 0.3000000000000007
        },
        {
          "name": "F#4",
          "midi": 66,
          "time": 14.400000000000011,
          "velocity": 0.7874015748031497,
          "duration": 0.3000000000000007
        },
        {
          "name": "D#4",
          "midi": 63,
          "time": 14.700000000000012,
          "velocity": 0.7874015748031497,
          "duration": 0.3000000000000007
        },
        {
          "name": "A#3",
          "midi": 58,
          "time": 15.900000000000013,
          "velocity": 0.7874015748031497,
          "duration": 0.14999999999999858
        },
        {
          "name": "A#3",
          "midi": 58,
          "time": 16.05000000000001,
          "velocity": 0.7874015748031497,
          "duration": 0.14999999999999858
        },
        {
          "name": "C#4",
          "midi": 61,
          "time": 16.20000000000001,
          "velocity": 0.7874015748031497,
          "duration": 0.3000000000000007
        },
        {
          "name": "D#4",
          "midi": 63,
          "time": 16.50000000000001,
          "velocity": 0.7874015748031497,
          "duration": 0.3000000000000007
        },
        {
          "name": "D#4",
          "midi": 63,
          "time": 16.80000000000001,
          "velocity": 0.7874015748031497,
          "duration": 0.3000000000000007
        },
        {
          "name": "D#4",
          "midi": 63,
          "time": 18.30000000000001,
          "velocity": 0.7874015748031497,
          "duration": 0.3000000000000007
        },
        {
          "name": "D#4",
          "midi": 63,
          "time": 18.600000000000012,
          "velocity": 0.7874015748031497,
          "duration": 0.3000000000000007
        },
        {
          "name": "C#4",
          "midi": 61,
          "time": 18.900000000000013,
          "velocity": 0.7874015748031497,
          "duration": 0.3000000000000007
        },
        {
          "name": "G#4",
          "midi": 68,
          "time": 19.200000000000014,
          "velocity": 0.7874015748031497,
          "duration": 0.3000000000000007
        },
        {
          "name": "A#4",
          "midi": 70,
          "time": 19.500000000000014,
          "velocity": 0.7874015748031497,
          "duration": 0.14999999999999858
        },
        {
          "name": "G#4",
          "midi": 68,
          "time": 19.650000000000013,
          "velocity": 0.7874015748031497,
          "duration": 0.3000000000000007
        },
        {
          "name": "F#4",
          "midi": 66,
          "time": 19.950000000000014,
          "velocity": 0.7874015748031497,
          "duration": 0.14999999999999858
        },
        {
          "name": "D#4",
          "midi": 63,
          "time": 20.100000000000012,
          "velocity": 0.7874015748031497,
          "duration": 0.3000000000000007
        },
        {
          "name": "C#4",
          "midi": 61,
          "time": 21.30000000000001,
          "velocity": 0.7874015748031497,
          "duration": 0.3000000000000007
        },
        {
          "name": "G#4",
          "midi": 68,
          "time": 21.600000000000012,
          "velocity": 0.7874015748031497,
          "duration": 0.3000000000000007
        },
        {
          "name": "A#4",
          "midi": 70,
          "time": 21.900000000000013,
          "velocity": 0.7874015748031497,
          "duration": 0.14999999999999858
        },
        {
          "name": "G#4",
          "midi": 68,
          "time": 22.05000000000001,
          "velocity": 0.7874015748031497,
          "duration": 0.3000000000000007
        },
        {
          "name": "F#4",
          "midi": 66,
          "time": 22.350000000000012,
          "velocity": 0.7874015748031497,
          "duration": 0.14999999999999858
        },
        {
          "name": "D#4",
          "midi": 63,
          "time": 22.50000000000001,
          "velocity": 0.7874015748031497,
          "duration": 0.3000000000000007
        },
        {
          "name": "D#4",
          "midi": 63,
          "time": 23.70000000000001,
          "velocity": 0.7874015748031497,
          "duration": 0.3000000000000007
        },
        {
          "name": "A#4",
          "midi": 70,
          "time": 24.00000000000001,
          "velocity": 0.7874015748031497,
          "duration": 0.3000000000000007
        },
        {
          "name": "G#4",
          "midi": 68,
          "time": 24.30000000000001,
          "velocity": 0.7874015748031497,
          "duration": 0.3000000000000007
        },
        {
          "name": "D#4",
          "midi": 63,
          "time": 24.900000000000013,
          "velocity": 0.7874015748031497,
          "duration": 0.3000000000000007
        },
        {
          "name": "A#4",
          "midi": 70,
          "time": 25.200000000000014,
          "velocity": 0.7874015748031497,
          "duration": 0.3000000000000007
        },
        {
          "name": "G#4",
          "midi": 68,
          "time": 25.500000000000014,
          "velocity": 0.7874015748031497,
          "duration": 0.3000000000000007
        },
        {
          "name": "F#4",
          "midi": 66,
          "time": 25.800000000000015,
          "velocity": 0.7874015748031497,
          "duration": 0.3000000000000007
        },
        {
          "name": "G#4",
          "midi": 68,
          "time": 26.100000000000016,
          "velocity": 0.7874015748031497,
          "duration": 0.3000000000000007
        },
        {
          "name": "A#4",
          "midi": 70,
          "time": 26.400000000000016,
          "velocity": 0.7874015748031497,
          "duration": 0.3000000000000007
        },
        {
          "name": "A#4",
          "midi": 70,
          "time": 26.700000000000017,
          "velocity": 0.7874015748031497,
          "duration": 0.3000000000000007
        },
        {
          "name": "A#4",
          "midi": 70,
          "time": 27.000000000000018,
          "velocity": 0.7874015748031497,
          "duration": 0.3000000000000007
        },
        {
          "name": "A#4",
          "midi": 70,
          "time": 27.30000000000002,
          "velocity": 0.7874015748031497,
          "duration": 0.3000000000000007
        },
        {
          "name": "A#4",
          "midi": 70,
          "time": 29.10000000000002,
          "velocity": 0.7874015748031497,
          "duration": 0.3000000000000007
        },
        {
          "name": "D#5",
          "midi": 75,
          "time": 29.10000000000002,
          "velocity": 0.7874015748031497,
          "duration": 0.3000000000000007
        },
        {
          "name": "B4",
          "midi": 71,
          "time": 29.70000000000002,
          "velocity": 0.7874015748031497,
          "duration": 0.6000000000000014
        },
        {
          "name": "A#4",
          "midi": 70,
          "time": 30.300000000000022,
          "velocity": 0.7874015748031497,
          "duration": 0.14999999999999858
        },
        {
          "name": "B4",
          "midi": 71,
          "time": 30.45000000000002,
          "velocity": 0.7874015748031497,
          "duration": 0.14999999999999858
        },
        {
          "name": "A#4",
          "midi": 70,
          "time": 30.60000000000002,
          "velocity": 0.7874015748031497,
          "duration": 0.3000000000000007
        },
        {
          "name": "F#4",
          "midi": 66,
          "time": 30.90000000000002,
          "velocity": 0.7874015748031497,
          "duration": 0.3000000000000007
        },
        {
          "name": "A#4",
          "midi": 70,
          "time": 31.50000000000002,
          "velocity": 0.7874015748031497,
          "duration": 0.3000000000000007
        },
        {
          "name": "D#5",
          "midi": 75,
          "time": 31.50000000000002,
          "velocity": 0.7874015748031497,
          "duration": 0.6000000000000014
        },
        {
          "name": "B4",
          "midi": 71,
          "time": 32.10000000000002,
          "velocity": 0.7874015748031497,
          "duration": 0.6000000000000014
        },
        {
          "name": "A#4",
          "midi": 70,
          "time": 32.700000000000024,
          "velocity": 0.7874015748031497,
          "duration": 0.14999999999999858
        },
        {
          "name": "B4",
          "midi": 71,
          "time": 32.85000000000002,
          "velocity": 0.7874015748031497,
          "duration": 0.14999999999999858
        },
        {
          "name": "A#4",
          "midi": 70,
          "time": 33.00000000000002,
          "velocity": 0.7874015748031497,
          "duration": 0.29999999999999716
        },
        {
          "name": "F#4",
          "midi": 66,
          "time": 33.30000000000002,
          "velocity": 0.7874015748031497,
          "duration": 0.29999999999999716
        },
        {
          "name": "A#4",
          "midi": 70,
          "time": 33.90000000000001,
          "velocity": 0.7874015748031497,
          "duration": 0.29999999999999716
        },
        {
          "name": "D#5",
          "midi": 75,
          "time": 33.90000000000001,
          "velocity": 0.7874015748031497,
          "duration": 0.29999999999999716
        },
        {
          "name": "B4",
          "midi": 71,
          "time": 34.50000000000001,
          "velocity": 0.7874015748031497,
          "duration": 0.6000000000000014
        },
        {
          "name": "A#4",
          "midi": 70,
          "time": 35.10000000000001,
          "velocity": 0.7874015748031497,
          "duration": 0.14999999999999858
        },
        {
          "name": "B4",
          "midi": 71,
          "time": 35.25000000000001,
          "velocity": 0.7874015748031497,
          "duration": 0.14999999999999858
        },
        {
          "name": "A#4",
          "midi": 70,
          "time": 35.400000000000006,
          "velocity": 0.7874015748031497,
          "duration": 0.29999999999999716
        },
        {
          "name": "F#4",
          "midi": 66,
          "time": 35.7,
          "velocity": 0.7874015748031497,
          "duration": 0.29999999999999716
        },
        {
          "name": "D#5",
          "midi": 75,
          "time": 36,
          "velocity": 0.7874015748031497,
          "duration": 0.14999999999999858
        },
        {
          "name": "D#4",
          "midi": 63,
          "time": 36,
          "velocity": 0.7874015748031497,
          "duration": 0.14999999999999858
        },
        {
          "name": "D#5",
          "midi": 75,
          "time": 36.3,
          "velocity": 0.7874015748031497,
          "duration": 0.14999999999999858
        },
        {
          "name": "D#4",
          "midi": 63,
          "time": 36.3,
          "velocity": 0.7874015748031497,
          "duration": 0.14999999999999858
        },
        {
          "name": "D#5",
          "midi": 75,
          "time": 36.3,
          "velocity": 0.7874015748031497,
          "duration": 0.14999999999999858
        },
        {
          "name": "D#4",
          "midi": 63,
          "time": 36.449999999999996,
          "velocity": 0.7874015748031497,
          "duration": 0.14999999999999858
        },
        {
          "name": "D#5",
          "midi": 75,
          "time": 36.449999999999996,
          "velocity": 0.7874015748031497,
          "duration": 0.14999999999999858
        },
        {
          "name": "D#4",
          "midi": 63,
          "time": 36.599999999999994,
          "velocity": 0.7874015748031497,
          "duration": 0.29999999999999716
        },
        {
          "name": "D#5",
          "midi": 75,
          "time": 36.599999999999994,
          "velocity": 0.7874015748031497,
          "duration": 0.29999999999999716
        },
        {
          "name": "D#4",
          "midi": 63,
          "time": 36.89999999999999,
          "velocity": 0.7874015748031497,
          "duration": 0.14999999999999858
        },
        {
          "name": "D#5",
          "midi": 75,
          "time": 36.89999999999999,
          "velocity": 0.7874015748031497,
          "duration": 0.14999999999999858
        },
        {
          "name": "D#4",
          "midi": 63,
          "time": 37.04999999999999,
          "velocity": 0.7874015748031497,
          "duration": 0.14999999999999858
        },
        {
          "name": "D#5",
          "midi": 75,
          "time": 37.04999999999999,
          "velocity": 0.7874015748031497,
          "duration": 0.14999999999999858
        },
        {
          "name": "D#4",
          "midi": 63,
          "time": 37.19999999999999,
          "velocity": 0.7874015748031497,
          "duration": 0.14999999999999858
        },
        {
          "name": "D#5",
          "midi": 75,
          "time": 37.19999999999999,
          "velocity": 0.7874015748031497,
          "duration": 0.14999999999999858
        },
        {
          "name": "D#5",
          "midi": 75,
          "time": 37.34999999999999,
          "velocity": 0.7874015748031497,
          "duration": 0.14999999999999858
        },
        {
          "name": "D#4",
          "midi": 63,
          "time": 37.34999999999999,
          "velocity": 0.7874015748031497,
          "duration": 0.14999999999999858
        },
        {
          "name": "D#5",
          "midi": 75,
          "time": 37.499999999999986,
          "velocity": 0.7874015748031497,
          "duration": 0.29999999999999716
        },
        {
          "name": "D#4",
          "midi": 63,
          "time": 37.499999999999986,
          "velocity": 0.7874015748031497,
          "duration": 0.29999999999999716
        },
        {
          "name": "D#5",
          "midi": 75,
          "time": 37.79999999999998,
          "velocity": 0.7874015748031497,
          "duration": 0.29999999999999716
        },
        {
          "name": "D#4",
          "midi": 63,
          "time": 37.79999999999998,
          "velocity": 0.7874015748031497,
          "duration": 0.29999999999999716
        },
        {
          "name": "D#5",
          "midi": 75,
          "time": 38.09999999999998,
          "velocity": 0.7874015748031497,
          "duration": 0.29999999999999716
        },
        {
          "name": "D#4",
          "midi": 63,
          "time": 38.09999999999998,
          "velocity": 0.7874015748031497,
          "duration": 0.29999999999999716
        },
        {
          "name": "D#5",
          "midi": 75,
          "time": 38.699999999999974,
          "velocity": 0.7874015748031497,
          "duration": 0.29999999999999716
        },
        {
          "name": "B4",
          "midi": 71,
          "time": 39.29999999999997,
          "velocity": 0.7874015748031497,
          "duration": 0.6000000000000014
        },
        {
          "name": "A#4",
          "midi": 70,
          "time": 39.89999999999997,
          "velocity": 0.7874015748031497,
          "duration": 0.14999999999999858
        },
        {
          "name": "B4",
          "midi": 71,
          "time": 40.04999999999997,
          "velocity": 0.7874015748031497,
          "duration": 0.14999999999999858
        },
        {
          "name": "A#4",
          "midi": 70,
          "time": 40.19999999999997,
          "velocity": 0.7874015748031497,
          "duration": 0.29999999999999716
        },
        {
          "name": "F#4",
          "midi": 66,
          "time": 40.499999999999964,
          "velocity": 0.7874015748031497,
          "duration": 0.29999999999999716
        },
        {
          "name": "D#5",
          "midi": 75,
          "time": 41.09999999999996,
          "velocity": 0.7874015748031497,
          "duration": 0.6000000000000014
        },
        {
          "name": "B4",
          "midi": 71,
          "time": 41.69999999999996,
          "velocity": 0.7874015748031497,
          "duration": 0.6000000000000014
        },
        {
          "name": "A#4",
          "midi": 70,
          "time": 42.29999999999996,
          "velocity": 0.7874015748031497,
          "duration": 0.14999999999999858
        },
        {
          "name": "B4",
          "midi": 71,
          "time": 42.44999999999996,
          "velocity": 0.7874015748031497,
          "duration": 0.14999999999999858
        },
        {
          "name": "A#4",
          "midi": 70,
          "time": 42.59999999999996,
          "velocity": 0.7874015748031497,
          "duration": 0.29999999999999716
        },
        {
          "name": "F#4",
          "midi": 66,
          "time": 42.899999999999956,
          "velocity": 0.7874015748031497,
          "duration": 0.29999999999999716
        },
        {
          "name": "D#5",
          "midi": 75,
          "time": 43.49999999999995,
          "velocity": 0.7874015748031497,
          "duration": 0.29999999999999716
        },
        {
          "name": "B4",
          "midi": 71,
          "time": 44.099999999999945,
          "velocity": 0.7874015748031497,
          "duration": 0.6000000000000014
        },
        {
          "name": "A#4",
          "midi": 70,
          "time": 44.699999999999946,
          "velocity": 0.7874015748031497,
          "duration": 0.14999999999999858
        },
        {
          "name": "B4",
          "midi": 71,
          "time": 44.849999999999945,
          "velocity": 0.7874015748031497,
          "duration": 0.14999999999999858
        },
        {
          "name": "A#4",
          "midi": 70,
          "time": 44.99999999999994,
          "velocity": 0.7874015748031497,
          "duration": 0.29999999999999716
        },
        {
          "name": "F#4",
          "midi": 66,
          "time": 45.29999999999994,
          "velocity": 0.7874015748031497,
          "duration": 0.29999999999999716
        },
        {
          "name": "D#5",
          "midi": 75,
          "time": 45.59999999999994,
          "velocity": 0.7874015748031497,
          "duration": 0.14999999999999858
        },
        {
          "name": "D#4",
          "midi": 63,
          "time": 45.59999999999994,
          "velocity": 0.7874015748031497,
          "duration": 0.14999999999999858
        },
        {
          "name": "D#4",
          "midi": 63,
          "time": 45.899999999999935,
          "velocity": 0.7874015748031497,
          "duration": 0.14999999999999858
        },
        {
          "name": "D#5",
          "midi": 75,
          "time": 45.899999999999935,
          "velocity": 0.7874015748031497,
          "duration": 0.14999999999999858
        },
        {
          "name": "D#4",
          "midi": 63,
          "time": 46.04999999999993,
          "velocity": 0.7874015748031497,
          "duration": 0.14999999999999858
        },
        {
          "name": "D#5",
          "midi": 75,
          "time": 46.04999999999993,
          "velocity": 0.7874015748031497,
          "duration": 0.14999999999999858
        },
        {
          "name": "D#4",
          "midi": 63,
          "time": 46.19999999999993,
          "velocity": 0.7874015748031497,
          "duration": 0.29999999999999716
        },
        {
          "name": "D#5",
          "midi": 75,
          "time": 46.19999999999993,
          "velocity": 0.7874015748031497,
          "duration": 0.29999999999999716
        },
        {
          "name": "D#5",
          "midi": 75,
          "time": 46.49999999999993,
          "velocity": 0.7874015748031497,
          "duration": 0.14999999999999858
        },
        {
          "name": "D#4",
          "midi": 63,
          "time": 46.49999999999993,
          "velocity": 0.7874015748031497,
          "duration": 0.14999999999999858
        },
        {
          "name": "D#5",
          "midi": 75,
          "time": 46.64999999999993,
          "velocity": 0.7874015748031497,
          "duration": 0.14999999999999858
        },
        {
          "name": "D#4",
          "midi": 63,
          "time": 46.64999999999993,
          "velocity": 0.7874015748031497,
          "duration": 0.14999999999999858
        },
        {
          "name": "D#5",
          "midi": 75,
          "time": 46.799999999999926,
          "velocity": 0.7874015748031497,
          "duration": 0.14999999999999858
        },
        {
          "name": "D#4",
          "midi": 63,
          "time": 46.799999999999926,
          "velocity": 0.7874015748031497,
          "duration": 0.14999999999999858
        },
        {
          "name": "D#5",
          "midi": 75,
          "time": 46.949999999999925,
          "velocity": 0.7874015748031497,
          "duration": 0.14999999999999858
        },
        {
          "name": "D#4",
          "midi": 63,
          "time": 46.949999999999925,
          "velocity": 0.7874015748031497,
          "duration": 0.14999999999999858
        },
        {
          "name": "D#5",
          "midi": 75,
          "time": 47.09999999999992,
          "velocity": 0.7874015748031497,
          "duration": 0.29999999999999716
        },
        {
          "name": "D#4",
          "midi": 63,
          "time": 47.09999999999992,
          "velocity": 0.7874015748031497,
          "duration": 0.29999999999999716
        },
        {
          "name": "C#4",
          "midi": 61,
          "time": 47.39999999999992,
          "velocity": 0.7874015748031497,
          "duration": 0.14999999999999858
        },
        {
          "name": "C#4",
          "midi": 61,
          "time": 47.54999999999992,
          "velocity": 0.7874015748031497,
          "duration": 0.14999999999999858
        },
        {
          "name": "D#4",
          "midi": 63,
          "time": 47.69999999999992,
          "velocity": 0.7874015748031497,
          "duration": 0.29999999999999716
        },
        {
          "name": "F#4",
          "midi": 66,
          "time": 47.999999999999915,
          "velocity": 0.7874015748031497,
          "duration": 0.29999999999999716
        },
        {
          "name": "D#4",
          "midi": 63,
          "time": 48.29999999999991,
          "velocity": 0.7874015748031497,
          "duration": 0.29999999999999716
        },
        {
          "name": "A#3",
          "midi": 58,
          "time": 49.49999999999991,
          "velocity": 0.7874015748031497,
          "duration": 0.14999999999999858
        },
        {
          "name": "A#3",
          "midi": 58,
          "time": 49.649999999999906,
          "velocity": 0.7874015748031497,
          "duration": 0.14999999999999858
        },
        {
          "name": "C#4",
          "midi": 61,
          "time": 49.799999999999905,
          "velocity": 0.7874015748031497,
          "duration": 0.29999999999999716
        },
        {
          "name": "D#4",
          "midi": 63,
          "time": 50.0999999999999,
          "velocity": 0.7874015748031497,
          "duration": 0.29999999999999716
        },
        {
          "name": "D#4",
          "midi": 63,
          "time": 50.3999999999999,
          "velocity": 0.7874015748031497,
          "duration": 0.29999999999999716
        },
        {
          "name": "C#4",
          "midi": 61,
          "time": 52.199999999999896,
          "velocity": 0.7874015748031497,
          "duration": 0.29999999999999716
        },
        {
          "name": "D#4",
          "midi": 63,
          "time": 52.49999999999989,
          "velocity": 0.7874015748031497,
          "duration": 0.29999999999999716
        },
        {
          "name": "F#4",
          "midi": 66,
          "time": 52.79999999999989,
          "velocity": 0.7874015748031497,
          "duration": 0.29999999999999716
        },
        {
          "name": "D#4",
          "midi": 63,
          "time": 53.09999999999989,
          "velocity": 0.7874015748031497,
          "duration": 0.29999999999999716
        },
        {
          "name": "A#3",
          "midi": 58,
          "time": 54.29999999999988,
          "velocity": 0.7874015748031497,
          "duration": 0.14999999999999858
        },
        {
          "name": "A#3",
          "midi": 58,
          "time": 54.44999999999988,
          "velocity": 0.7874015748031497,
          "duration": 0.14999999999999858
        },
        {
          "name": "C#4",
          "midi": 61,
          "time": 54.59999999999988,
          "velocity": 0.7874015748031497,
          "duration": 0.29999999999999716
        },
        {
          "name": "D#4",
          "midi": 63,
          "time": 54.89999999999988,
          "velocity": 0.7874015748031497,
          "duration": 0.29999999999999716
        },
        {
          "name": "D#4",
          "midi": 63,
          "time": 55.199999999999875,
          "velocity": 0.7874015748031497,
          "duration": 0.29999999999999716
        },
        {
          "name": "D#4",
          "midi": 63,
          "time": 56.699999999999875,
          "velocity": 0.7874015748031497,
          "duration": 0.29999999999999716
        },
        {
          "name": "D#4",
          "midi": 63,
          "time": 56.99999999999987,
          "velocity": 0.7874015748031497,
          "duration": 0.29999999999999716
        },
        {
          "name": "C#4",
          "midi": 61,
          "time": 57.29999999999987,
          "velocity": 0.7874015748031497,
          "duration": 0.29999999999999716
        },
        {
          "name": "G#4",
          "midi": 68,
          "time": 57.599999999999866,
          "velocity": 0.7874015748031497,
          "duration": 0.29999999999999716
        },
        {
          "name": "A#4",
          "midi": 70,
          "time": 57.899999999999864,
          "velocity": 0.7874015748031497,
          "duration": 0.14999999999999858
        },
        {
          "name": "G#4",
          "midi": 68,
          "time": 58.04999999999986,
          "velocity": 0.7874015748031497,
          "duration": 0.29999999999999716
        },
        {
          "name": "F#4",
          "midi": 66,
          "time": 58.34999999999986,
          "velocity": 0.7874015748031497,
          "duration": 0.14999999999999858
        },
        {
          "name": "D#4",
          "midi": 63,
          "time": 58.49999999999986,
          "velocity": 0.7874015748031497,
          "duration": 0.29999999999999716
        },
        {
          "name": "C#4",
          "midi": 61,
          "time": 59.699999999999854,
          "velocity": 0.7874015748031497,
          "duration": 0.29999999999999716
        },
        {
          "name": "G#4",
          "midi": 68,
          "time": 59.99999999999985,
          "velocity": 0.7874015748031497,
          "duration": 0.29999999999999716
        },
        {
          "name": "A#4",
          "midi": 70,
          "time": 60.29999999999985,
          "velocity": 0.7874015748031497,
          "duration": 0.14999999999999858
        },
        {
          "name": "G#4",
          "midi": 68,
          "time": 60.44999999999985,
          "velocity": 0.7874015748031497,
          "duration": 0.29999999999999716
        },
        {
          "name": "F#4",
          "midi": 66,
          "time": 60.749999999999844,
          "velocity": 0.7874015748031497,
          "duration": 0.14999999999999858
        },
        {
          "name": "D#4",
          "midi": 63,
          "time": 60.89999999999984,
          "velocity": 0.7874015748031497,
          "duration": 0.29999999999999716
        },
        {
          "name": "D#4",
          "midi": 63,
          "time": 62.09999999999984,
          "velocity": 0.7874015748031497,
          "duration": 0.29999999999999716
        },
        {
          "name": "A#4",
          "midi": 70,
          "time": 62.399999999999835,
          "velocity": 0.7874015748031497,
          "duration": 0.29999999999999716
        },
        {
          "name": "G#4",
          "midi": 68,
          "time": 62.69999999999983,
          "velocity": 0.7874015748031497,
          "duration": 0.29999999999999716
        },
        {
          "name": "D#4",
          "midi": 63,
          "time": 63.29999999999983,
          "velocity": 0.7874015748031497,
          "duration": 0.29999999999999716
        },
        {
          "name": "A#4",
          "midi": 70,
          "time": 63.599999999999824,
          "velocity": 0.7874015748031497,
          "duration": 0.29999999999999716
        },
        {
          "name": "G#4",
          "midi": 68,
          "time": 63.89999999999982,
          "velocity": 0.7874015748031497,
          "duration": 0.29999999999999716
        },
        {
          "name": "F#4",
          "midi": 66,
          "time": 64.19999999999982,
          "velocity": 0.7874015748031497,
          "duration": 0.29999999999999716
        },
        {
          "name": "G#4",
          "midi": 68,
          "time": 64.49999999999982,
          "velocity": 0.7874015748031497,
          "duration": 0.29999999999999716
        },
        {
          "name": "A#4",
          "midi": 70,
          "time": 64.79999999999981,
          "velocity": 0.7874015748031497,
          "duration": 0.29999999999999716
        },
        {
          "name": "A#4",
          "midi": 70,
          "time": 65.09999999999981,
          "velocity": 0.7874015748031497,
          "duration": 0.29999999999999716
        },
        {
          "name": "A#4",
          "midi": 70,
          "time": 65.3999999999998,
          "velocity": 0.7874015748031497,
          "duration": 0.29999999999999716
        },
        {
          "name": "A#4",
          "midi": 70,
          "time": 65.6999999999998,
          "velocity": 0.7874015748031497,
          "duration": 0.29999999999999716
        },
        {
          "name": "A#4",
          "midi": 70,
          "time": 67.4999999999998,
          "velocity": 0.7874015748031497,
          "duration": 0.29999999999999716
        },
        {
          "name": "D#5",
          "midi": 75,
          "time": 67.4999999999998,
          "velocity": 0.7874015748031497,
          "duration": 0.29999999999999716
        },
        {
          "name": "B4",
          "midi": 71,
          "time": 68.0999999999998,
          "velocity": 0.7874015748031497,
          "duration": 0.5999999999999943
        },
        {
          "name": "A#4",
          "midi": 70,
          "time": 68.69999999999979,
          "velocity": 0.7874015748031497,
          "duration": 0.15000000000000568
        },
        {
          "name": "B4",
          "midi": 71,
          "time": 68.8499999999998,
          "velocity": 0.7874015748031497,
          "duration": 0.15000000000000568
        },
        {
          "name": "A#4",
          "midi": 70,
          "time": 68.9999999999998,
          "velocity": 0.7874015748031497,
          "duration": 0.29999999999999716
        },
        {
          "name": "F#4",
          "midi": 66,
          "time": 69.2999999999998,
          "velocity": 0.7874015748031497,
          "duration": 0.29999999999999716
        },
        {
          "name": "A#4",
          "midi": 70,
          "time": 69.89999999999979,
          "velocity": 0.7874015748031497,
          "duration": 0.29999999999999716
        },
        {
          "name": "D#5",
          "midi": 75,
          "time": 69.89999999999979,
          "velocity": 0.7874015748031497,
          "duration": 0.5999999999999943
        },
        {
          "name": "B4",
          "midi": 71,
          "time": 70.49999999999979,
          "velocity": 0.7874015748031497,
          "duration": 0.5999999999999943
        },
        {
          "name": "A#4",
          "midi": 70,
          "time": 71.09999999999978,
          "velocity": 0.7874015748031497,
          "duration": 0.15000000000000568
        },
        {
          "name": "B4",
          "midi": 71,
          "time": 71.24999999999979,
          "velocity": 0.7874015748031497,
          "duration": 0.15000000000000568
        },
        {
          "name": "A#4",
          "midi": 70,
          "time": 71.39999999999979,
          "velocity": 0.7874015748031497,
          "duration": 0.29999999999999716
        },
        {
          "name": "F#4",
          "midi": 66,
          "time": 71.69999999999979,
          "velocity": 0.7874015748031497,
          "duration": 0.29999999999999716
        },
        {
          "name": "A#4",
          "midi": 70,
          "time": 72.29999999999978,
          "velocity": 0.7874015748031497,
          "duration": 0.29999999999999716
        },
        {
          "name": "D#5",
          "midi": 75,
          "time": 72.29999999999978,
          "velocity": 0.7874015748031497,
          "duration": 0.29999999999999716
        },
        {
          "name": "B4",
          "midi": 71,
          "time": 72.89999999999978,
          "velocity": 0.7874015748031497,
          "duration": 0.5999999999999943
        },
        {
          "name": "A#4",
          "midi": 70,
          "time": 73.49999999999977,
          "velocity": 0.7874015748031497,
          "duration": 0.15000000000000568
        },
        {
          "name": "B4",
          "midi": 71,
          "time": 73.64999999999978,
          "velocity": 0.7874015748031497,
          "duration": 0.15000000000000568
        },
        {
          "name": "A#4",
          "midi": 70,
          "time": 73.79999999999978,
          "velocity": 0.7874015748031497,
          "duration": 0.29999999999999716
        },
        {
          "name": "F#4",
          "midi": 66,
          "time": 74.09999999999978,
          "velocity": 0.7874015748031497,
          "duration": 0.29999999999999716
        },
        {
          "name": "D#5",
          "midi": 75,
          "time": 74.39999999999978,
          "velocity": 0.7874015748031497,
          "duration": 0.15000000000000568
        },
        {
          "name": "D#4",
          "midi": 63,
          "time": 74.39999999999978,
          "velocity": 0.7874015748031497,
          "duration": 0.15000000000000568
        },
        {
          "name": "D#5",
          "midi": 75,
          "time": 74.69999999999979,
          "velocity": 0.7874015748031497,
          "duration": 0.15000000000000568
        },
        {
          "name": "D#4",
          "midi": 63,
          "time": 74.69999999999979,
          "velocity": 0.7874015748031497,
          "duration": 0.15000000000000568
        },
        {
          "name": "D#5",
          "midi": 75,
          "time": 74.69999999999979,
          "velocity": 0.7874015748031497,
          "duration": 0.15000000000000568
        },
        {
          "name": "D#4",
          "midi": 63,
          "time": 74.8499999999998,
          "velocity": 0.7874015748031497,
          "duration": 0.15000000000000568
        },
        {
          "name": "D#5",
          "midi": 75,
          "time": 74.8499999999998,
          "velocity": 0.7874015748031497,
          "duration": 0.15000000000000568
        },
        {
          "name": "D#4",
          "midi": 63,
          "time": 74.9999999999998,
          "velocity": 0.7874015748031497,
          "duration": 0.29999999999999716
        },
        {
          "name": "D#5",
          "midi": 75,
          "time": 74.9999999999998,
          "velocity": 0.7874015748031497,
          "duration": 0.29999999999999716
        },
        {
          "name": "D#4",
          "midi": 63,
          "time": 75.2999999999998,
          "velocity": 0.7874015748031497,
          "duration": 0.15000000000000568
        },
        {
          "name": "D#5",
          "midi": 75,
          "time": 75.2999999999998,
          "velocity": 0.7874015748031497,
          "duration": 0.15000000000000568
        },
        {
          "name": "D#4",
          "midi": 63,
          "time": 75.4499999999998,
          "velocity": 0.7874015748031497,
          "duration": 0.15000000000000568
        },
        {
          "name": "D#5",
          "midi": 75,
          "time": 75.4499999999998,
          "velocity": 0.7874015748031497,
          "duration": 0.15000000000000568
        },
        {
          "name": "D#4",
          "midi": 63,
          "time": 75.59999999999981,
          "velocity": 0.7874015748031497,
          "duration": 0.15000000000000568
        },
        {
          "name": "D#5",
          "midi": 75,
          "time": 75.59999999999981,
          "velocity": 0.7874015748031497,
          "duration": 0.15000000000000568
        },
        {
          "name": "D#5",
          "midi": 75,
          "time": 75.74999999999982,
          "velocity": 0.7874015748031497,
          "duration": 0.15000000000000568
        },
        {
          "name": "D#4",
          "midi": 63,
          "time": 75.74999999999982,
          "velocity": 0.7874015748031497,
          "duration": 0.15000000000000568
        },
        {
          "name": "D#5",
          "midi": 75,
          "time": 75.89999999999982,
          "velocity": 0.7874015748031497,
          "duration": 0.29999999999999716
        },
        {
          "name": "D#4",
          "midi": 63,
          "time": 75.89999999999982,
          "velocity": 0.7874015748031497,
          "duration": 0.29999999999999716
        },
        {
          "name": "D#5",
          "midi": 75,
          "time": 76.19999999999982,
          "velocity": 0.7874015748031497,
          "duration": 0.29999999999999716
        },
        {
          "name": "D#4",
          "midi": 63,
          "time": 76.19999999999982,
          "velocity": 0.7874015748031497,
          "duration": 0.29999999999999716
        },
        {
          "name": "D#5",
          "midi": 75,
          "time": 76.49999999999982,
          "velocity": 0.7874015748031497,
          "duration": 0.29999999999999716
        },
        {
          "name": "D#4",
          "midi": 63,
          "time": 76.49999999999982,
          "velocity": 0.7874015748031497,
          "duration": 0.29999999999999716
        },
        {
          "name": "D#5",
          "midi": 75,
          "time": 77.09999999999981,
          "velocity": 0.7874015748031497,
          "duration": 0.29999999999999716
        },
        {
          "name": "B4",
          "midi": 71,
          "time": 77.6999999999998,
          "velocity": 0.7874015748031497,
          "duration": 0.5999999999999943
        },
        {
          "name": "A#4",
          "midi": 70,
          "time": 78.2999999999998,
          "velocity": 0.7874015748031497,
          "duration": 0.15000000000000568
        },
        {
          "name": "B4",
          "midi": 71,
          "time": 78.4499999999998,
          "velocity": 0.7874015748031497,
          "duration": 0.15000000000000568
        },
        {
          "name": "A#4",
          "midi": 70,
          "time": 78.59999999999981,
          "velocity": 0.7874015748031497,
          "duration": 0.29999999999999716
        },
        {
          "name": "F#4",
          "midi": 66,
          "time": 78.8999999999998,
          "velocity": 0.7874015748031497,
          "duration": 0.29999999999999716
        },
        {
          "name": "D#5",
          "midi": 75,
          "time": 79.4999999999998,
          "velocity": 0.7874015748031497,
          "duration": 0.5999999999999943
        },
        {
          "name": "B4",
          "midi": 71,
          "time": 80.0999999999998,
          "velocity": 0.7874015748031497,
          "duration": 0.5999999999999943
        },
        {
          "name": "A#4",
          "midi": 70,
          "time": 80.69999999999979,
          "velocity": 0.7874015748031497,
          "duration": 0.15000000000000568
        },
        {
          "name": "B4",
          "midi": 71,
          "time": 80.8499999999998,
          "velocity": 0.7874015748031497,
          "duration": 0.15000000000000568
        },
        {
          "name": "A#4",
          "midi": 70,
          "time": 80.9999999999998,
          "velocity": 0.7874015748031497,
          "duration": 0.29999999999999716
        },
        {
          "name": "F#4",
          "midi": 66,
          "time": 81.2999999999998,
          "velocity": 0.7874015748031497,
          "duration": 0.29999999999999716
        },
        {
          "name": "D#5",
          "midi": 75,
          "time": 81.89999999999979,
          "velocity": 0.7874015748031497,
          "duration": 0.29999999999999716
        },
        {
          "name": "B4",
          "midi": 71,
          "time": 82.49999999999979,
          "velocity": 0.7874015748031497,
          "duration": 0.5999999999999943
        },
        {
          "name": "A#4",
          "midi": 70,
          "time": 83.09999999999978,
          "velocity": 0.7874015748031497,
          "duration": 0.15000000000000568
        },
        {
          "name": "B4",
          "midi": 71,
          "time": 83.24999999999979,
          "velocity": 0.7874015748031497,
          "duration": 0.15000000000000568
        },
        {
          "name": "A#4",
          "midi": 70,
          "time": 83.39999999999979,
          "velocity": 0.7874015748031497,
          "duration": 0.29999999999999716
        },
        {
          "name": "F#4",
          "midi": 66,
          "time": 83.69999999999979,
          "velocity": 0.7874015748031497,
          "duration": 0.29999999999999716
        },
        {
          "name": "D#5",
          "midi": 75,
          "time": 83.99999999999979,
          "velocity": 0.7874015748031497,
          "duration": 0.15000000000000568
        },
        {
          "name": "D#4",
          "midi": 63,
          "time": 83.99999999999979,
          "velocity": 0.7874015748031497,
          "duration": 0.15000000000000568
        },
        {
          "name": "D#4",
          "midi": 63,
          "time": 84.2999999999998,
          "velocity": 0.7874015748031497,
          "duration": 0.15000000000000568
        },
        {
          "name": "D#5",
          "midi": 75,
          "time": 84.2999999999998,
          "velocity": 0.7874015748031497,
          "duration": 0.15000000000000568
        },
        {
          "name": "D#4",
          "midi": 63,
          "time": 84.4499999999998,
          "velocity": 0.7874015748031497,
          "duration": 0.15000000000000568
        },
        {
          "name": "D#5",
          "midi": 75,
          "time": 84.4499999999998,
          "velocity": 0.7874015748031497,
          "duration": 0.15000000000000568
        },
        {
          "name": "D#4",
          "midi": 63,
          "time": 84.59999999999981,
          "velocity": 0.7874015748031497,
          "duration": 0.29999999999999716
        },
        {
          "name": "D#5",
          "midi": 75,
          "time": 84.59999999999981,
          "velocity": 0.7874015748031497,
          "duration": 0.29999999999999716
        },
        {
          "name": "D#5",
          "midi": 75,
          "time": 84.8999999999998,
          "velocity": 0.7874015748031497,
          "duration": 0.15000000000000568
        },
        {
          "name": "D#4",
          "midi": 63,
          "time": 84.8999999999998,
          "velocity": 0.7874015748031497,
          "duration": 0.15000000000000568
        },
        {
          "name": "D#5",
          "midi": 75,
          "time": 85.04999999999981,
          "velocity": 0.7874015748031497,
          "duration": 0.15000000000000568
        },
        {
          "name": "D#4",
          "midi": 63,
          "time": 85.04999999999981,
          "velocity": 0.7874015748031497,
          "duration": 0.15000000000000568
        },
        {
          "name": "D#5",
          "midi": 75,
          "time": 85.19999999999982,
          "velocity": 0.7874015748031497,
          "duration": 0.15000000000000568
        },
        {
          "name": "D#4",
          "midi": 63,
          "time": 85.19999999999982,
          "velocity": 0.7874015748031497,
          "duration": 0.15000000000000568
        },
        {
          "name": "D#5",
          "midi": 75,
          "time": 85.34999999999982,
          "velocity": 0.7874015748031497,
          "duration": 0.15000000000000568
        },
        {
          "name": "D#4",
          "midi": 63,
          "time": 85.34999999999982,
          "velocity": 0.7874015748031497,
          "duration": 0.15000000000000568
        },
        {
          "name": "D#5",
          "midi": 75,
          "time": 85.49999999999983,
          "velocity": 0.7874015748031497,
          "duration": 0.29999999999999716
        },
        {
          "name": "D#4",
          "midi": 63,
          "time": 85.49999999999983,
          "velocity": 0.7874015748031497,
          "duration": 0.29999999999999716
        },
        {
          "name": "C#4",
          "midi": 61,
          "time": 86.39999999999982,
          "velocity": 0.6535433070866141,
          "duration": 0.29999999999999716
        },
        {
          "name": "D#4",
          "midi": 63,
          "time": 86.39999999999982,
          "velocity": 0.7874015748031497,
          "duration": 0.29999999999999716
        },
        {
          "name": "D#4",
          "midi": 63,
          "time": 86.69999999999982,
          "velocity": 0.7874015748031497,
          "duration": 0.75
        },
        {
          "name": "C#4",
          "midi": 61,
          "time": 86.69999999999982,
          "velocity": 0.6929133858267716,
          "duration": 0.75
        },
        {
          "name": "C#4",
          "midi": 61,
          "time": 87.59999999999982,
          "velocity": 0.7874015748031497,
          "duration": 0.29999999999999716
        },
        {
          "name": "C#4",
          "midi": 61,
          "time": 87.89999999999982,
          "velocity": 0.7874015748031497,
          "duration": 0.29999999999999716
        },
        {
          "name": "C#4",
          "midi": 61,
          "time": 88.19999999999982,
          "velocity": 0.7874015748031497,
          "duration": 0.29999999999999716
        },
        {
          "name": "C#4",
          "midi": 61,
          "time": 88.49999999999982,
          "velocity": 0.7874015748031497,
          "duration": 0.29999999999999716
        },
        {
          "name": "C#4",
          "midi": 61,
          "time": 88.79999999999981,
          "velocity": 0.6535433070866141,
          "duration": 0.29999999999999716
        },
        {
          "name": "D#4",
          "midi": 63,
          "time": 88.79999999999981,
          "velocity": 0.7874015748031497,
          "duration": 0.29999999999999716
        },
        {
          "name": "D#4",
          "midi": 63,
          "time": 89.09999999999981,
          "velocity": 0.7874015748031497,
          "duration": 0.9000000000000057
        },
        {
          "name": "C#4",
          "midi": 61,
          "time": 89.09999999999981,
          "velocity": 0.6535433070866141,
          "duration": 0.75
        },
        {
          "name": "G#3",
          "midi": 56,
          "time": 89.99999999999982,
          "velocity": 0.6692913385826772,
          "duration": 0.29999999999999716
        },
        {
          "name": "C#4",
          "midi": 61,
          "time": 89.99999999999982,
          "velocity": 0.7874015748031497,
          "duration": 0.29999999999999716
        },
        {
          "name": "C#4",
          "midi": 61,
          "time": 90.29999999999981,
          "velocity": 0.7874015748031497,
          "duration": 0.29999999999999716
        },
        {
          "name": "G#3",
          "midi": 56,
          "time": 90.29999999999981,
          "velocity": 0.6535433070866141,
          "duration": 0.29999999999999716
        },
        {
          "name": "G#3",
          "midi": 56,
          "time": 90.59999999999981,
          "velocity": 0.6377952755905512,
          "duration": 0.29999999999999716
        },
        {
          "name": "C#4",
          "midi": 61,
          "time": 90.59999999999981,
          "velocity": 0.7874015748031497,
          "duration": 0.29999999999999716
        },
        {
          "name": "C#4",
          "midi": 61,
          "time": 90.8999999999998,
          "velocity": 0.7874015748031497,
          "duration": 0.29999999999999716
        },
        {
          "name": "G#3",
          "midi": 56,
          "time": 90.8999999999998,
          "velocity": 0.6299212598425197,
          "duration": 0.29999999999999716
        },
        {
          "name": "D#4",
          "midi": 63,
          "time": 91.1999999999998,
          "velocity": 0.7874015748031497,
          "duration": 0.29999999999999716
        },
        {
          "name": "C#4",
          "midi": 61,
          "time": 91.1999999999998,
          "velocity": 0.6535433070866141,
          "duration": 0.29999999999999716
        },
        {
          "name": "D#4",
          "midi": 63,
          "time": 91.4999999999998,
          "velocity": 0.7874015748031497,
          "duration": 0.5999999999999943
        },
        {
          "name": "C#4",
          "midi": 61,
          "time": 91.4999999999998,
          "velocity": 0.6299212598425197,
          "duration": 0.5999999999999943
        },
        {
          "name": "A#3",
          "midi": 58,
          "time": 92.0999999999998,
          "velocity": 0.7874015748031497,
          "duration": 0.29999999999999716
        },
        {
          "name": "C#4",
          "midi": 61,
          "time": 92.0999999999998,
          "velocity": 0.7874015748031497,
          "duration": 0.29999999999999716
        },
        {
          "name": "A#3",
          "midi": 58,
          "time": 92.39999999999979,
          "velocity": 0.7874015748031497,
          "duration": 0.29999999999999716
        },
        {
          "name": "C#4",
          "midi": 61,
          "time": 92.39999999999979,
          "velocity": 0.7874015748031497,
          "duration": 0.29999999999999716
        },
        {
          "name": "A#3",
          "midi": 58,
          "time": 92.69999999999979,
          "velocity": 0.7874015748031497,
          "duration": 0.29999999999999716
        },
        {
          "name": "D#4",
          "midi": 63,
          "time": 92.69999999999979,
          "velocity": 0.7874015748031497,
          "duration": 0.29999999999999716
        },
        {
          "name": "A#3",
          "midi": 58,
          "time": 92.99999999999979,
          "velocity": 0.7874015748031497,
          "duration": 0.29999999999999716
        },
        {
          "name": "D#4",
          "midi": 63,
          "time": 92.99999999999979,
          "velocity": 0.7874015748031497,
          "duration": 0.29999999999999716
        },
        {
          "name": "B3",
          "midi": 59,
          "time": 93.29999999999978,
          "velocity": 0.7874015748031497,
          "duration": 0.29999999999999716
        },
        {
          "name": "F#4",
          "midi": 66,
          "time": 93.29999999999978,
          "velocity": 0.7874015748031497,
          "duration": 0.29999999999999716
        },
        {
          "name": "C#4",
          "midi": 61,
          "time": 93.59999999999978,
          "velocity": 0.7874015748031497,
          "duration": 0.5999999999999943
        },
        {
          "name": "G#4",
          "midi": 68,
          "time": 93.59999999999978,
          "velocity": 0.7874015748031497,
          "duration": 0.5999999999999943
        },
        {
          "name": "A#3",
          "midi": 58,
          "time": 94.19999999999978,
          "velocity": 0.7874015748031497,
          "duration": 0.5999999999999943
        },
        {
          "name": "F#4",
          "midi": 66,
          "time": 94.19999999999978,
          "velocity": 0.7874015748031497,
          "duration": 0.5999999999999943
        },
        {
          "name": "C#4",
          "midi": 61,
          "time": 94.79999999999977,
          "velocity": 0.7874015748031497,
          "duration": 0.29999999999999716
        },
        {
          "name": "A#3",
          "midi": 58,
          "time": 95.09999999999977,
          "velocity": 0.7874015748031497,
          "duration": 0.29999999999999716
        },
        {
          "name": "C#4",
          "midi": 61,
          "time": 95.39999999999976,
          "velocity": 0.7874015748031497,
          "duration": 0.5999999999999943
        },
        {
          "name": "C#4",
          "midi": 61,
          "time": 95.99999999999976,
          "velocity": 0.7874015748031497,
          "duration": 0.29999999999999716
        },
        {
          "name": "D#4",
          "midi": 63,
          "time": 95.99999999999976,
          "velocity": 0.7874015748031497,
          "duration": 0.29999999999999716
        },
        {
          "name": "D#4",
          "midi": 63,
          "time": 96.29999999999976,
          "velocity": 0.7874015748031497,
          "duration": 0.5999999999999943
        },
        {
          "name": "C#4",
          "midi": 61,
          "time": 96.29999999999976,
          "velocity": 0.7874015748031497,
          "duration": 0.5999999999999943
        },
        {
          "name": "C#4",
          "midi": 61,
          "time": 96.89999999999975,
          "velocity": 0.7874015748031497,
          "duration": 0.29999999999999716
        },
        {
          "name": "C#4",
          "midi": 61,
          "time": 97.19999999999975,
          "velocity": 0.7874015748031497,
          "duration": 0.29999999999999716
        },
        {
          "name": "C#4",
          "midi": 61,
          "time": 97.49999999999974,
          "velocity": 0.7874015748031497,
          "duration": 0.29999999999999716
        },
        {
          "name": "C#4",
          "midi": 61,
          "time": 97.79999999999974,
          "velocity": 0.7874015748031497,
          "duration": 0.29999999999999716
        },
        {
          "name": "C#4",
          "midi": 61,
          "time": 98.09999999999974,
          "velocity": 0.7874015748031497,
          "duration": 0.29999999999999716
        },
        {
          "name": "D#4",
          "midi": 63,
          "time": 98.39999999999974,
          "velocity": 0.7874015748031497,
          "duration": 0.29999999999999716
        },
        {
          "name": "C#4",
          "midi": 61,
          "time": 98.39999999999974,
          "velocity": 0.7874015748031497,
          "duration": 0.29999999999999716
        },
        {
          "name": "C#4",
          "midi": 61,
          "time": 98.69999999999973,
          "velocity": 0.7874015748031497,
          "duration": 0.9000000000000057
        },
        {
          "name": "D#4",
          "midi": 63,
          "time": 98.69999999999973,
          "velocity": 0.7874015748031497,
          "duration": 0.9000000000000057
        },
        {
          "name": "C#4",
          "midi": 61,
          "time": 99.59999999999974,
          "velocity": 0.7874015748031497,
          "duration": 0.29999999999999716
        },
        {
          "name": "A#4",
          "midi": 70,
          "time": 100.04999999999974,
          "velocity": 0.7874015748031497,
          "duration": 0.29999999999999716
        },
        {
          "name": "G#4",
          "midi": 68,
          "time": 100.49999999999974,
          "velocity": 0.7874015748031497,
          "duration": 0.29999999999999716
        },
        {
          "name": "F#4",
          "midi": 66,
          "time": 100.79999999999974,
          "velocity": 0.7874015748031497,
          "duration": 0.45000000000000284
        },
        {
          "name": "D#4",
          "midi": 63,
          "time": 100.94999999999975,
          "velocity": 0.7874015748031497,
          "duration": 0.75
        },
        {
          "name": "A#4",
          "midi": 70,
          "time": 103.19999999999975,
          "velocity": 0.7874015748031497,
          "duration": 0.45000000000000284
        },
        {
          "name": "G#4",
          "midi": 68,
          "time": 103.64999999999975,
          "velocity": 0.7874015748031497,
          "duration": 0.15000000000000568
        },
        {
          "name": "G#4",
          "midi": 68,
          "time": 103.79999999999976,
          "velocity": 0.7874015748031497,
          "duration": 0.29999999999999716
        },
        {
          "name": "F#4",
          "midi": 66,
          "time": 104.09999999999975,
          "velocity": 0.7874015748031497,
          "duration": 0.29999999999999716
        },
        {
          "name": "A#4",
          "midi": 70,
          "time": 104.39999999999975,
          "velocity": 0.7874015748031497,
          "duration": 0.29999999999999716
        },
        {
          "name": "A#4",
          "midi": 70,
          "time": 105.89999999999975,
          "velocity": 0.7874015748031497,
          "duration": 0.29999999999999716
        },
        {
          "name": "D#5",
          "midi": 75,
          "time": 105.89999999999975,
          "velocity": 0.7874015748031497,
          "duration": 0.29999999999999716
        },
        {
          "name": "B4",
          "midi": 71,
          "time": 106.49999999999974,
          "velocity": 0.7874015748031497,
          "duration": 0.5999999999999943
        },
        {
          "name": "A#4",
          "midi": 70,
          "time": 107.09999999999974,
          "velocity": 0.7874015748031497,
          "duration": 0.15000000000000568
        },
        {
          "name": "B4",
          "midi": 71,
          "time": 107.24999999999974,
          "velocity": 0.7874015748031497,
          "duration": 0.15000000000000568
        },
        {
          "name": "A#4",
          "midi": 70,
          "time": 107.39999999999975,
          "velocity": 0.7874015748031497,
          "duration": 0.29999999999999716
        },
        {
          "name": "F#4",
          "midi": 66,
          "time": 107.69999999999975,
          "velocity": 0.7874015748031497,
          "duration": 0.29999999999999716
        },
        {
          "name": "A#4",
          "midi": 70,
          "time": 108.29999999999974,
          "velocity": 0.7874015748031497,
          "duration": 0.29999999999999716
        },
        {
          "name": "D#5",
          "midi": 75,
          "time": 108.29999999999974,
          "velocity": 0.7874015748031497,
          "duration": 0.5999999999999943
        },
        {
          "name": "B4",
          "midi": 71,
          "time": 108.89999999999974,
          "velocity": 0.7874015748031497,
          "duration": 0.5999999999999943
        },
        {
          "name": "A#4",
          "midi": 70,
          "time": 109.49999999999973,
          "velocity": 0.7874015748031497,
          "duration": 0.15000000000000568
        },
        {
          "name": "B4",
          "midi": 71,
          "time": 109.64999999999974,
          "velocity": 0.7874015748031497,
          "duration": 0.15000000000000568
        },
        {
          "name": "A#4",
          "midi": 70,
          "time": 109.79999999999974,
          "velocity": 0.7874015748031497,
          "duration": 0.29999999999999716
        },
        {
          "name": "F#4",
          "midi": 66,
          "time": 110.09999999999974,
          "velocity": 0.7874015748031497,
          "duration": 0.29999999999999716
        },
        {
          "name": "A#4",
          "midi": 70,
          "time": 110.69999999999973,
          "velocity": 0.7874015748031497,
          "duration": 0.29999999999999716
        },
        {
          "name": "D#5",
          "midi": 75,
          "time": 110.69999999999973,
          "velocity": 0.7874015748031497,
          "duration": 0.29999999999999716
        },
        {
          "name": "B4",
          "midi": 71,
          "time": 111.29999999999973,
          "velocity": 0.7874015748031497,
          "duration": 0.5999999999999943
        },
        {
          "name": "A#4",
          "midi": 70,
          "time": 111.89999999999972,
          "velocity": 0.7874015748031497,
          "duration": 0.15000000000000568
        },
        {
          "name": "B4",
          "midi": 71,
          "time": 112.04999999999973,
          "velocity": 0.7874015748031497,
          "duration": 0.15000000000000568
        },
        {
          "name": "A#4",
          "midi": 70,
          "time": 112.19999999999973,
          "velocity": 0.7874015748031497,
          "duration": 0.29999999999999716
        },
        {
          "name": "F#4",
          "midi": 66,
          "time": 112.49999999999973,
          "velocity": 0.7874015748031497,
          "duration": 0.29999999999999716
        },
        {
          "name": "D#5",
          "midi": 75,
          "time": 112.79999999999973,
          "velocity": 0.7874015748031497,
          "duration": 0.15000000000000568
        },
        {
          "name": "D#4",
          "midi": 63,
          "time": 112.79999999999973,
          "velocity": 0.7874015748031497,
          "duration": 0.15000000000000568
        },
        {
          "name": "D#5",
          "midi": 75,
          "time": 113.09999999999974,
          "velocity": 0.7874015748031497,
          "duration": 0.15000000000000568
        },
        {
          "name": "D#4",
          "midi": 63,
          "time": 113.09999999999974,
          "velocity": 0.7874015748031497,
          "duration": 0.15000000000000568
        },
        {
          "name": "D#5",
          "midi": 75,
          "time": 113.09999999999974,
          "velocity": 0.7874015748031497,
          "duration": 0.15000000000000568
        },
        {
          "name": "D#4",
          "midi": 63,
          "time": 113.24999999999974,
          "velocity": 0.7874015748031497,
          "duration": 0.15000000000000568
        },
        {
          "name": "D#5",
          "midi": 75,
          "time": 113.24999999999974,
          "velocity": 0.7874015748031497,
          "duration": 0.15000000000000568
        },
        {
          "name": "D#4",
          "midi": 63,
          "time": 113.39999999999975,
          "velocity": 0.7874015748031497,
          "duration": 0.29999999999999716
        },
        {
          "name": "D#5",
          "midi": 75,
          "time": 113.39999999999975,
          "velocity": 0.7874015748031497,
          "duration": 0.29999999999999716
        },
        {
          "name": "D#4",
          "midi": 63,
          "time": 113.69999999999975,
          "velocity": 0.7874015748031497,
          "duration": 0.15000000000000568
        },
        {
          "name": "D#5",
          "midi": 75,
          "time": 113.69999999999975,
          "velocity": 0.7874015748031497,
          "duration": 0.15000000000000568
        },
        {
          "name": "D#4",
          "midi": 63,
          "time": 113.84999999999975,
          "velocity": 0.7874015748031497,
          "duration": 0.15000000000000568
        },
        {
          "name": "D#5",
          "midi": 75,
          "time": 113.84999999999975,
          "velocity": 0.7874015748031497,
          "duration": 0.15000000000000568
        },
        {
          "name": "D#4",
          "midi": 63,
          "time": 113.99999999999976,
          "velocity": 0.7874015748031497,
          "duration": 0.15000000000000568
        },
        {
          "name": "D#5",
          "midi": 75,
          "time": 113.99999999999976,
          "velocity": 0.7874015748031497,
          "duration": 0.15000000000000568
        },
        {
          "name": "D#5",
          "midi": 75,
          "time": 114.14999999999976,
          "velocity": 0.7874015748031497,
          "duration": 0.15000000000000568
        },
        {
          "name": "D#4",
          "midi": 63,
          "time": 114.14999999999976,
          "velocity": 0.7874015748031497,
          "duration": 0.15000000000000568
        },
        {
          "name": "D#5",
          "midi": 75,
          "time": 114.29999999999977,
          "velocity": 0.7874015748031497,
          "duration": 0.29999999999999716
        },
        {
          "name": "D#4",
          "midi": 63,
          "time": 114.29999999999977,
          "velocity": 0.7874015748031497,
          "duration": 0.29999999999999716
        },
        {
          "name": "D#5",
          "midi": 75,
          "time": 114.59999999999977,
          "velocity": 0.7874015748031497,
          "duration": 0.29999999999999716
        },
        {
          "name": "D#4",
          "midi": 63,
          "time": 114.59999999999977,
          "velocity": 0.7874015748031497,
          "duration": 0.29999999999999716
        },
        {
          "name": "D#5",
          "midi": 75,
          "time": 114.89999999999976,
          "velocity": 0.7874015748031497,
          "duration": 0.29999999999999716
        },
        {
          "name": "D#4",
          "midi": 63,
          "time": 114.89999999999976,
          "velocity": 0.7874015748031497,
          "duration": 0.29999999999999716
        },
        {
          "name": "D#5",
          "midi": 75,
          "time": 115.49999999999976,
          "velocity": 0.7874015748031497,
          "duration": 0.29999999999999716
        },
        {
          "name": "B4",
          "midi": 71,
          "time": 116.09999999999975,
          "velocity": 0.7874015748031497,
          "duration": 0.5999999999999943
        },
        {
          "name": "A#4",
          "midi": 70,
          "time": 116.69999999999975,
          "velocity": 0.7874015748031497,
          "duration": 0.15000000000000568
        },
        {
          "name": "B4",
          "midi": 71,
          "time": 116.84999999999975,
          "velocity": 0.7874015748031497,
          "duration": 0.15000000000000568
        },
        {
          "name": "A#4",
          "midi": 70,
          "time": 116.99999999999976,
          "velocity": 0.7874015748031497,
          "duration": 0.29999999999999716
        },
        {
          "name": "F#4",
          "midi": 66,
          "time": 117.29999999999976,
          "velocity": 0.7874015748031497,
          "duration": 0.29999999999999716
        },
        {
          "name": "D#5",
          "midi": 75,
          "time": 117.89999999999975,
          "velocity": 0.7874015748031497,
          "duration": 0.5999999999999943
        },
        {
          "name": "B4",
          "midi": 71,
          "time": 118.49999999999974,
          "velocity": 0.7874015748031497,
          "duration": 0.5999999999999943
        },
        {
          "name": "A#4",
          "midi": 70,
          "time": 119.09999999999974,
          "velocity": 0.7874015748031497,
          "duration": 0.15000000000000568
        },
        {
          "name": "B4",
          "midi": 71,
          "time": 119.24999999999974,
          "velocity": 0.7874015748031497,
          "duration": 0.15000000000000568
        },
        {
          "name": "A#4",
          "midi": 70,
          "time": 119.39999999999975,
          "velocity": 0.7874015748031497,
          "duration": 0.29999999999999716
        },
        {
          "name": "F#4",
          "midi": 66,
          "time": 119.69999999999975,
          "velocity": 0.7874015748031497,
          "duration": 0.29999999999999716
        },
        {
          "name": "D#5",
          "midi": 75,
          "time": 120.29999999999974,
          "velocity": 0.7874015748031497,
          "duration": 0.29999999999999716
        },
        {
          "name": "B4",
          "midi": 71,
          "time": 120.89999999999974,
          "velocity": 0.7874015748031497,
          "duration": 0.5999999999999943
        },
        {
          "name": "A#4",
          "midi": 70,
          "time": 121.49999999999973,
          "velocity": 0.7874015748031497,
          "duration": 0.15000000000000568
        },
        {
          "name": "B4",
          "midi": 71,
          "time": 121.64999999999974,
          "velocity": 0.7874015748031497,
          "duration": 0.15000000000000568
        },
        {
          "name": "A#4",
          "midi": 70,
          "time": 121.79999999999974,
          "velocity": 0.7874015748031497,
          "duration": 0.29999999999999716
        },
        {
          "name": "F#4",
          "midi": 66,
          "time": 122.09999999999974,
          "velocity": 0.7874015748031497,
          "duration": 0.29999999999999716
        },
        {
          "name": "D#5",
          "midi": 75,
          "time": 122.39999999999974,
          "velocity": 0.7874015748031497,
          "duration": 0.15000000000000568
        },
        {
          "name": "D#4",
          "midi": 63,
          "time": 122.39999999999974,
          "velocity": 0.7874015748031497,
          "duration": 0.15000000000000568
        },
        {
          "name": "D#4",
          "midi": 63,
          "time": 122.69999999999975,
          "velocity": 0.7874015748031497,
          "duration": 0.15000000000000568
        },
        {
          "name": "D#5",
          "midi": 75,
          "time": 122.69999999999975,
          "velocity": 0.7874015748031497,
          "duration": 0.15000000000000568
        },
        {
          "name": "D#4",
          "midi": 63,
          "time": 122.84999999999975,
          "velocity": 0.7874015748031497,
          "duration": 0.15000000000000568
        },
        {
          "name": "D#5",
          "midi": 75,
          "time": 122.84999999999975,
          "velocity": 0.7874015748031497,
          "duration": 0.15000000000000568
        },
        {
          "name": "D#4",
          "midi": 63,
          "time": 122.99999999999976,
          "velocity": 0.7874015748031497,
          "duration": 0.29999999999999716
        },
        {
          "name": "D#5",
          "midi": 75,
          "time": 122.99999999999976,
          "velocity": 0.7874015748031497,
          "duration": 0.29999999999999716
        },
        {
          "name": "D#5",
          "midi": 75,
          "time": 123.29999999999976,
          "velocity": 0.7874015748031497,
          "duration": 0.15000000000000568
        },
        {
          "name": "D#4",
          "midi": 63,
          "time": 123.29999999999976,
          "velocity": 0.7874015748031497,
          "duration": 0.15000000000000568
        },
        {
          "name": "D#5",
          "midi": 75,
          "time": 123.44999999999976,
          "velocity": 0.7874015748031497,
          "duration": 0.15000000000000568
        },
        {
          "name": "D#4",
          "midi": 63,
          "time": 123.44999999999976,
          "velocity": 0.7874015748031497,
          "duration": 0.15000000000000568
        },
        {
          "name": "D#5",
          "midi": 75,
          "time": 123.59999999999977,
          "velocity": 0.7874015748031497,
          "duration": 0.15000000000000568
        },
        {
          "name": "D#4",
          "midi": 63,
          "time": 123.59999999999977,
          "velocity": 0.7874015748031497,
          "duration": 0.15000000000000568
        },
        {
          "name": "D#5",
          "midi": 75,
          "time": 123.74999999999977,
          "velocity": 0.7874015748031497,
          "duration": 0.15000000000000568
        },
        {
          "name": "D#4",
          "midi": 63,
          "time": 123.74999999999977,
          "velocity": 0.7874015748031497,
          "duration": 0.15000000000000568
        },
        {
          "name": "D#5",
          "midi": 75,
          "time": 123.89999999999978,
          "velocity": 0.7874015748031497,
          "duration": 0.29999999999999716
        },
        {
          "name": "D#4",
          "midi": 63,
          "time": 123.89999999999978,
          "velocity": 0.7874015748031497,
          "duration": 0.29999999999999716
        }
      ],
      "controlChanges": {
        "6": [
          {
            "number": 6,
            "time": 0,
            "value": 0.09448818897637795
          },
          {
            "number": 6,
            "time": 0,
            "value": 0.09448818897637795
          },
          {
            "number": 6,
            "time": 0,
            "value": 0.09448818897637795
          },
          {
            "number": 6,
            "time": 136.79999999999978,
            "value": 0.09448818897637795
          },
          {
            "number": 6,
            "time": 136.80624999999978,
            "value": 0.09448818897637795
          },
          {
            "number": 6,
            "time": 136.80624999999978,
            "value": 0.09448818897637795
          }
        ],
        "7": [
          {
            "number": 7,
            "time": 0,
            "value": 0.7874015748031497
          },
          {
            "number": 7,
            "time": 0,
            "value": 0.7874015748031497
          },
          {
            "number": 7,
            "time": 0,
            "value": 0.7874015748031497
          },
          {
            "number": 7,
            "time": 0,
            "value": 0.7874015748031497
          },
          {
            "number": 7,
            "time": 136.79999999999978,
            "value": 0.7874015748031497
          },
          {
            "number": 7,
            "time": 136.80624999999978,
            "value": 0.7874015748031497
          },
          {
            "number": 7,
            "time": 136.80624999999978,
            "value": 0.7874015748031497
          }
        ],
        "10": [
          {
            "number": 10,
            "time": 0,
            "value": 0.5039370078740157
          },
          {
            "number": 10,
            "time": 0,
            "value": 0.5039370078740157
          },
          {
            "number": 10,
            "time": 0,
            "value": 0.5039370078740157
          },
          {
            "number": 10,
            "time": 0,
            "value": 0.5039370078740157
          },
          {
            "number": 10,
            "time": 136.79999999999978,
            "value": 0.5039370078740157
          },
          {
            "number": 10,
            "time": 136.80624999999978,
            "value": 0.5039370078740157
          },
          {
            "number": 10,
            "time": 136.80624999999978,
            "value": 0.5039370078740157
          }
        ],
        "64": [
          {
            "number": 64,
            "time": 0,
            "value": 0.10236220472440945
          },
          {
            "number": 64,
            "time": 0,
            "value": 0.10236220472440945
          },
          {
            "number": 64,
            "time": 0,
            "value": 0.10236220472440945
          },
          {
            "number": 64,
            "time": 136.79999999999978,
            "value": 0.10236220472440945
          },
          {
            "number": 64,
            "time": 136.80624999999978,
            "value": 0.10236220472440945
          },
          {
            "number": 64,
            "time": 136.80624999999978,
            "value": 0.10236220472440945
          }
        ],
        "100": [
          {
            "number": 100,
            "time": 0,
            "value": 0
          },
          {
            "number": 100,
            "time": 0,
            "value": 0
          },
          {
            "number": 100,
            "time": 0,
            "value": 0
          },
          {
            "number": 100,
            "time": 136.79999999999978,
            "value": 0
          },
          {
            "number": 100,
            "time": 136.80624999999978,
            "value": 0
          },
          {
            "number": 100,
            "time": 136.80624999999978,
            "value": 0
          }
        ],
        "101": [
          {
            "number": 101,
            "time": 0,
            "value": 0
          },
          {
            "number": 101,
            "time": 0,
            "value": 0
          },
          {
            "number": 101,
            "time": 0,
            "value": 0
          },
          {
            "number": 101,
            "time": 136.79999999999978,
            "value": 0
          },
          {
            "number": 101,
            "time": 136.80624999999978,
            "value": 0
          },
          {
            "number": 101,
            "time": 136.80624999999978,
            "value": 0
          }
        ]
      },
      "id": 2,
      "name": "MO1",
      "instrumentNumber": 0,
      "instrument": "acoustic grand piano",
      "instrumentFamily": "piano",
      "channelNumber": 0,
      "isPercussion": false
    },
    {
      "startTime": 0,
      "duration": 124.79999999999944,
      "length": 353,
      "notes": [
        {
          "name": "D#2",
          "midi": 39,
          "time": 0,
          "velocity": 0.7874015748031497,
          "duration": 0.3
        },
        {
          "name": "D#3",
          "midi": 51,
          "time": 0.3,
          "velocity": 0.7874015748031497,
          "duration": 0.3
        },
        {
          "name": "D#2",
          "midi": 39,
          "time": 0.8999999999999999,
          "velocity": 0.7874015748031497,
          "duration": 0.30000000000000004
        },
        {
          "name": "D#3",
          "midi": 51,
          "time": 1.2,
          "velocity": 0.7874015748031497,
          "duration": 0.30000000000000004
        },
        {
          "name": "D#2",
          "midi": 39,
          "time": 1.5,
          "velocity": 0.7874015748031497,
          "duration": 0.30000000000000004
        },
        {
          "name": "D#3",
          "midi": 51,
          "time": 1.8,
          "velocity": 0.7874015748031497,
          "duration": 0.30000000000000004
        },
        {
          "name": "D#2",
          "midi": 39,
          "time": 2.4,
          "velocity": 0.7874015748031497,
          "duration": 0.2999999999999998
        },
        {
          "name": "D#3",
          "midi": 51,
          "time": 2.6999999999999997,
          "velocity": 0.7874015748031497,
          "duration": 0.2999999999999998
        },
        {
          "name": "D#2",
          "midi": 39,
          "time": 3.2999999999999994,
          "velocity": 0.7874015748031497,
          "duration": 0.2999999999999998
        },
        {
          "name": "D#3",
          "midi": 51,
          "time": 3.599999999999999,
          "velocity": 0.7874015748031497,
          "duration": 0.2999999999999998
        },
        {
          "name": "D#2",
          "midi": 39,
          "time": 3.899999999999999,
          "velocity": 0.7874015748031497,
          "duration": 0.30000000000000027
        },
        {
          "name": "D#3",
          "midi": 51,
          "time": 4.199999999999999,
          "velocity": 0.7874015748031497,
          "duration": 0.2999999999999998
        },
        {
          "name": "D#2",
          "midi": 39,
          "time": 4.799999999999999,
          "velocity": 0.7874015748031497,
          "duration": 0.2999999999999998
        },
        {
          "name": "D#3",
          "midi": 51,
          "time": 5.099999999999999,
          "velocity": 0.7874015748031497,
          "duration": 0.2999999999999998
        },
        {
          "name": "D#2",
          "midi": 39,
          "time": 5.699999999999998,
          "velocity": 0.7874015748031497,
          "duration": 0.2999999999999998
        },
        {
          "name": "D#3",
          "midi": 51,
          "time": 5.999999999999998,
          "velocity": 0.7874015748031497,
          "duration": 0.2999999999999998
        },
        {
          "name": "D#2",
          "midi": 39,
          "time": 6.299999999999998,
          "velocity": 0.7874015748031497,
          "duration": 0.2999999999999998
        },
        {
          "name": "D#3",
          "midi": 51,
          "time": 6.599999999999998,
          "velocity": 0.7874015748031497,
          "duration": 0.2999999999999998
        },
        {
          "name": "D#2",
          "midi": 39,
          "time": 7.1999999999999975,
          "velocity": 0.7874015748031497,
          "duration": 0.2999999999999998
        },
        {
          "name": "D#3",
          "midi": 51,
          "time": 7.499999999999997,
          "velocity": 0.7874015748031497,
          "duration": 0.2999999999999998
        },
        {
          "name": "D#2",
          "midi": 39,
          "time": 8.099999999999998,
          "velocity": 0.7874015748031497,
          "duration": 0.3000000000000007
        },
        {
          "name": "D#3",
          "midi": 51,
          "time": 8.399999999999999,
          "velocity": 0.7874015748031497,
          "duration": 0.3000000000000007
        },
        {
          "name": "D#2",
          "midi": 39,
          "time": 8.7,
          "velocity": 0.7874015748031497,
          "duration": 0.3000000000000007
        },
        {
          "name": "D#3",
          "midi": 51,
          "time": 9,
          "velocity": 0.7874015748031497,
          "duration": 0.3000000000000007
        },
        {
          "name": "B2",
          "midi": 47,
          "time": 9.600000000000001,
          "velocity": 0.7874015748031497,
          "duration": 0.3000000000000007
        },
        {
          "name": "B1",
          "midi": 35,
          "time": 9.600000000000001,
          "velocity": 0.7874015748031497,
          "duration": 2.2500000000000053
        },
        {
          "name": "B2",
          "midi": 47,
          "time": 10.050000000000002,
          "velocity": 0.7874015748031497,
          "duration": 0.3000000000000007
        },
        {
          "name": "B2",
          "midi": 47,
          "time": 10.500000000000004,
          "velocity": 0.7874015748031497,
          "duration": 0.3000000000000007
        },
        {
          "name": "B2",
          "midi": 47,
          "time": 10.950000000000005,
          "velocity": 0.7874015748031497,
          "duration": 0.3000000000000007
        },
        {
          "name": "B2",
          "midi": 47,
          "time": 11.400000000000006,
          "velocity": 0.7874015748031497,
          "duration": 0.3000000000000007
        },
        {
          "name": "C#3",
          "midi": 49,
          "time": 11.700000000000006,
          "velocity": 0.7874015748031497,
          "duration": 0.3000000000000007
        },
        {
          "name": "D#2",
          "midi": 39,
          "time": 12.000000000000007,
          "velocity": 0.7874015748031497,
          "duration": 2.4000000000000057
        },
        {
          "name": "D#3",
          "midi": 51,
          "time": 12.000000000000007,
          "velocity": 0.7874015748031497,
          "duration": 0.3000000000000007
        },
        {
          "name": "D#3",
          "midi": 51,
          "time": 12.450000000000008,
          "velocity": 0.7874015748031497,
          "duration": 0.3000000000000007
        },
        {
          "name": "D#3",
          "midi": 51,
          "time": 12.90000000000001,
          "velocity": 0.7874015748031497,
          "duration": 0.3000000000000007
        },
        {
          "name": "D#3",
          "midi": 51,
          "time": 13.35000000000001,
          "velocity": 0.7874015748031497,
          "duration": 0.3000000000000007
        },
        {
          "name": "D#3",
          "midi": 51,
          "time": 13.800000000000011,
          "velocity": 0.7874015748031497,
          "duration": 0.3000000000000007
        },
        {
          "name": "F3",
          "midi": 53,
          "time": 14.100000000000012,
          "velocity": 0.7874015748031497,
          "duration": 0.3000000000000007
        },
        {
          "name": "B1",
          "midi": 35,
          "time": 14.400000000000013,
          "velocity": 0.7874015748031497,
          "duration": 2.25
        },
        {
          "name": "B2",
          "midi": 47,
          "time": 14.400000000000013,
          "velocity": 0.7874015748031497,
          "duration": 0.3000000000000007
        },
        {
          "name": "B2",
          "midi": 47,
          "time": 14.850000000000014,
          "velocity": 0.7874015748031497,
          "duration": 0.3000000000000007
        },
        {
          "name": "B2",
          "midi": 47,
          "time": 15.300000000000015,
          "velocity": 0.7874015748031497,
          "duration": 0.3000000000000007
        },
        {
          "name": "B2",
          "midi": 47,
          "time": 15.750000000000016,
          "velocity": 0.7874015748031497,
          "duration": 0.29999999999999893
        },
        {
          "name": "B2",
          "midi": 47,
          "time": 16.200000000000014,
          "velocity": 0.7874015748031497,
          "duration": 0.3000000000000007
        },
        {
          "name": "C#3",
          "midi": 49,
          "time": 16.500000000000014,
          "velocity": 0.7874015748031497,
          "duration": 0.29999999999999716
        },
        {
          "name": "D#2",
          "midi": 39,
          "time": 16.80000000000001,
          "velocity": 0.7874015748031497,
          "duration": 2.3999999999999986
        },
        {
          "name": "D#3",
          "midi": 51,
          "time": 16.80000000000001,
          "velocity": 0.7874015748031497,
          "duration": 0.3000000000000007
        },
        {
          "name": "D#3",
          "midi": 51,
          "time": 17.25000000000001,
          "velocity": 0.7874015748031497,
          "duration": 0.3000000000000007
        },
        {
          "name": "D#3",
          "midi": 51,
          "time": 17.70000000000001,
          "velocity": 0.7874015748031497,
          "duration": 0.3000000000000007
        },
        {
          "name": "D#3",
          "midi": 51,
          "time": 18.15000000000001,
          "velocity": 0.7874015748031497,
          "duration": 0.3000000000000007
        },
        {
          "name": "D#3",
          "midi": 51,
          "time": 18.60000000000001,
          "velocity": 0.7874015748031497,
          "duration": 0.3000000000000007
        },
        {
          "name": "F3",
          "midi": 53,
          "time": 18.90000000000001,
          "velocity": 0.7874015748031497,
          "duration": 0.3000000000000007
        },
        {
          "name": "B1",
          "midi": 35,
          "time": 19.20000000000001,
          "velocity": 0.7874015748031497,
          "duration": 2.2499999999999964
        },
        {
          "name": "B2",
          "midi": 47,
          "time": 19.20000000000001,
          "velocity": 0.7874015748031497,
          "duration": 0.3000000000000007
        },
        {
          "name": "B2",
          "midi": 47,
          "time": 19.65000000000001,
          "velocity": 0.7874015748031497,
          "duration": 0.3000000000000007
        },
        {
          "name": "B2",
          "midi": 47,
          "time": 20.10000000000001,
          "velocity": 0.7874015748031497,
          "duration": 0.3000000000000007
        },
        {
          "name": "B2",
          "midi": 47,
          "time": 20.550000000000008,
          "velocity": 0.7874015748031497,
          "duration": 0.3000000000000007
        },
        {
          "name": "B2",
          "midi": 47,
          "time": 21.000000000000007,
          "velocity": 0.7874015748031497,
          "duration": 0.3000000000000007
        },
        {
          "name": "C#3",
          "midi": 49,
          "time": 21.300000000000008,
          "velocity": 0.7874015748031497,
          "duration": 0.29999999999999716
        },
        {
          "name": "D#2",
          "midi": 39,
          "time": 21.600000000000005,
          "velocity": 0.7874015748031497,
          "duration": 2.3999999999999986
        },
        {
          "name": "D#3",
          "midi": 51,
          "time": 21.600000000000005,
          "velocity": 0.7874015748031497,
          "duration": 0.3000000000000007
        },
        {
          "name": "D#3",
          "midi": 51,
          "time": 22.050000000000004,
          "velocity": 0.7874015748031497,
          "duration": 0.3000000000000007
        },
        {
          "name": "D#3",
          "midi": 51,
          "time": 22.500000000000004,
          "velocity": 0.7874015748031497,
          "duration": 0.3000000000000007
        },
        {
          "name": "D#3",
          "midi": 51,
          "time": 22.950000000000003,
          "velocity": 0.7874015748031497,
          "duration": 0.3000000000000007
        },
        {
          "name": "D#3",
          "midi": 51,
          "time": 23.400000000000002,
          "velocity": 0.7874015748031497,
          "duration": 0.3000000000000007
        },
        {
          "name": "F3",
          "midi": 53,
          "time": 23.700000000000003,
          "velocity": 0.7874015748031497,
          "duration": 0.3000000000000007
        },
        {
          "name": "B1",
          "midi": 35,
          "time": 24.000000000000004,
          "velocity": 0.7874015748031497,
          "duration": 2.2499999999999964
        },
        {
          "name": "B2",
          "midi": 47,
          "time": 24.000000000000004,
          "velocity": 0.7874015748031497,
          "duration": 0.3000000000000007
        },
        {
          "name": "B2",
          "midi": 47,
          "time": 24.450000000000003,
          "velocity": 0.7874015748031497,
          "duration": 0.3000000000000007
        },
        {
          "name": "B2",
          "midi": 47,
          "time": 24.900000000000002,
          "velocity": 0.7874015748031497,
          "duration": 0.3000000000000007
        },
        {
          "name": "B2",
          "midi": 47,
          "time": 25.35,
          "velocity": 0.7874015748031497,
          "duration": 0.3000000000000007
        },
        {
          "name": "B2",
          "midi": 47,
          "time": 25.8,
          "velocity": 0.7874015748031497,
          "duration": 0.3000000000000007
        },
        {
          "name": "C#3",
          "midi": 49,
          "time": 26.1,
          "velocity": 0.7874015748031497,
          "duration": 0.29999999999999716
        },
        {
          "name": "D#2",
          "midi": 39,
          "time": 26.4,
          "velocity": 0.7874015748031497,
          "duration": 1.1999999999999993
        },
        {
          "name": "D#3",
          "midi": 51,
          "time": 26.4,
          "velocity": 0.7874015748031497,
          "duration": 0.3000000000000007
        },
        {
          "name": "D#3",
          "midi": 51,
          "time": 26.849999999999998,
          "velocity": 0.7874015748031497,
          "duration": 0.3000000000000007
        },
        {
          "name": "D#3",
          "midi": 51,
          "time": 27.299999999999997,
          "velocity": 0.7874015748031497,
          "duration": 0.3000000000000007
        },
        {
          "name": "D#3",
          "midi": 51,
          "time": 28.799999999999997,
          "velocity": 0.7874015748031497,
          "duration": 0.6000000000000014
        },
        {
          "name": "D#2",
          "midi": 39,
          "time": 28.799999999999997,
          "velocity": 0.7874015748031497,
          "duration": 0.6000000000000014
        },
        {
          "name": "D#2",
          "midi": 39,
          "time": 29.4,
          "velocity": 0.7874015748031497,
          "duration": 0.6000000000000014
        },
        {
          "name": "D#3",
          "midi": 51,
          "time": 29.4,
          "velocity": 0.7874015748031497,
          "duration": 0.6000000000000014
        },
        {
          "name": "D#2",
          "midi": 39,
          "time": 30,
          "velocity": 0.7874015748031497,
          "duration": 0.3000000000000007
        },
        {
          "name": "D#3",
          "midi": 51,
          "time": 30.3,
          "velocity": 0.7874015748031497,
          "duration": 0.3000000000000007
        },
        {
          "name": "D#2",
          "midi": 39,
          "time": 30.6,
          "velocity": 0.7874015748031497,
          "duration": 0.3000000000000007
        },
        {
          "name": "D#3",
          "midi": 51,
          "time": 30.900000000000002,
          "velocity": 0.7874015748031497,
          "duration": 0.3000000000000007
        },
        {
          "name": "D#2",
          "midi": 39,
          "time": 31.200000000000003,
          "velocity": 0.7874015748031497,
          "duration": 0.3000000000000007
        },
        {
          "name": "D#3",
          "midi": 51,
          "time": 31.500000000000004,
          "velocity": 0.7874015748031497,
          "duration": 0.3000000000000007
        },
        {
          "name": "D#2",
          "midi": 39,
          "time": 31.800000000000004,
          "velocity": 0.7874015748031497,
          "duration": 0.29999999999999716
        },
        {
          "name": "D#3",
          "midi": 51,
          "time": 32.1,
          "velocity": 0.7874015748031497,
          "duration": 0.29999999999999716
        },
        {
          "name": "D#2",
          "midi": 39,
          "time": 32.4,
          "velocity": 0.7874015748031497,
          "duration": 0.29999999999999716
        },
        {
          "name": "D#3",
          "midi": 51,
          "time": 32.699999999999996,
          "velocity": 0.7874015748031497,
          "duration": 0.29999999999999716
        },
        {
          "name": "D#2",
          "midi": 39,
          "time": 32.99999999999999,
          "velocity": 0.7874015748031497,
          "duration": 0.29999999999999716
        },
        {
          "name": "D#3",
          "midi": 51,
          "time": 33.29999999999999,
          "velocity": 0.7874015748031497,
          "duration": 0.29999999999999716
        },
        {
          "name": "D#3",
          "midi": 51,
          "time": 33.59999999999999,
          "velocity": 0.7874015748031497,
          "duration": 0.6000000000000014
        },
        {
          "name": "D#2",
          "midi": 39,
          "time": 33.59999999999999,
          "velocity": 0.7874015748031497,
          "duration": 0.6000000000000014
        },
        {
          "name": "D#2",
          "midi": 39,
          "time": 34.19999999999999,
          "velocity": 0.7874015748031497,
          "duration": 0.6000000000000014
        },
        {
          "name": "D#3",
          "midi": 51,
          "time": 34.19999999999999,
          "velocity": 0.7874015748031497,
          "duration": 0.6000000000000014
        },
        {
          "name": "D#2",
          "midi": 39,
          "time": 34.79999999999999,
          "velocity": 0.7874015748031497,
          "duration": 0.29999999999999716
        },
        {
          "name": "D#3",
          "midi": 51,
          "time": 35.09999999999999,
          "velocity": 0.7874015748031497,
          "duration": 0.29999999999999716
        },
        {
          "name": "D#2",
          "midi": 39,
          "time": 35.399999999999984,
          "velocity": 0.7874015748031497,
          "duration": 0.29999999999999716
        },
        {
          "name": "D#3",
          "midi": 51,
          "time": 35.69999999999998,
          "velocity": 0.7874015748031497,
          "duration": 0.29999999999999716
        },
        {
          "name": "D#2",
          "midi": 39,
          "time": 35.99999999999998,
          "velocity": 0.7874015748031497,
          "duration": 0.29999999999999716
        },
        {
          "name": "D#3",
          "midi": 51,
          "time": 36.299999999999976,
          "velocity": 0.7874015748031497,
          "duration": 0.29999999999999716
        },
        {
          "name": "D#2",
          "midi": 39,
          "time": 36.59999999999997,
          "velocity": 0.7874015748031497,
          "duration": 0.29999999999999716
        },
        {
          "name": "D#3",
          "midi": 51,
          "time": 36.89999999999997,
          "velocity": 0.7874015748031497,
          "duration": 0.29999999999999716
        },
        {
          "name": "D#2",
          "midi": 39,
          "time": 37.19999999999997,
          "velocity": 0.7874015748031497,
          "duration": 0.29999999999999716
        },
        {
          "name": "D#3",
          "midi": 51,
          "time": 37.499999999999964,
          "velocity": 0.7874015748031497,
          "duration": 0.29999999999999716
        },
        {
          "name": "D#2",
          "midi": 39,
          "time": 37.79999999999996,
          "velocity": 0.7874015748031497,
          "duration": 0.29999999999999716
        },
        {
          "name": "D#3",
          "midi": 51,
          "time": 38.09999999999996,
          "velocity": 0.7874015748031497,
          "duration": 0.29999999999999716
        },
        {
          "name": "D#2",
          "midi": 39,
          "time": 38.399999999999956,
          "velocity": 0.7874015748031497,
          "duration": 0.6000000000000014
        },
        {
          "name": "D#3",
          "midi": 51,
          "time": 38.399999999999956,
          "velocity": 0.7874015748031497,
          "duration": 0.6000000000000014
        },
        {
          "name": "D#2",
          "midi": 39,
          "time": 38.99999999999996,
          "velocity": 0.7874015748031497,
          "duration": 0.6000000000000014
        },
        {
          "name": "D#3",
          "midi": 51,
          "time": 38.99999999999996,
          "velocity": 0.7874015748031497,
          "duration": 0.6000000000000014
        },
        {
          "name": "D#2",
          "midi": 39,
          "time": 39.59999999999996,
          "velocity": 0.7874015748031497,
          "duration": 0.29999999999999716
        },
        {
          "name": "D#3",
          "midi": 51,
          "time": 39.899999999999956,
          "velocity": 0.7874015748031497,
          "duration": 0.29999999999999716
        },
        {
          "name": "D#2",
          "midi": 39,
          "time": 40.19999999999995,
          "velocity": 0.7874015748031497,
          "duration": 0.29999999999999716
        },
        {
          "name": "D#3",
          "midi": 51,
          "time": 40.49999999999995,
          "velocity": 0.7874015748031497,
          "duration": 0.29999999999999716
        },
        {
          "name": "D#2",
          "midi": 39,
          "time": 40.79999999999995,
          "velocity": 0.7874015748031497,
          "duration": 0.29999999999999716
        },
        {
          "name": "D#3",
          "midi": 51,
          "time": 41.099999999999945,
          "velocity": 0.7874015748031497,
          "duration": 0.29999999999999716
        },
        {
          "name": "D#2",
          "midi": 39,
          "time": 41.39999999999994,
          "velocity": 0.7874015748031497,
          "duration": 0.29999999999999716
        },
        {
          "name": "D#3",
          "midi": 51,
          "time": 41.69999999999994,
          "velocity": 0.7874015748031497,
          "duration": 0.29999999999999716
        },
        {
          "name": "D#2",
          "midi": 39,
          "time": 41.999999999999936,
          "velocity": 0.7874015748031497,
          "duration": 0.29999999999999716
        },
        {
          "name": "D#3",
          "midi": 51,
          "time": 42.29999999999993,
          "velocity": 0.7874015748031497,
          "duration": 0.29999999999999716
        },
        {
          "name": "D#2",
          "midi": 39,
          "time": 42.59999999999993,
          "velocity": 0.7874015748031497,
          "duration": 0.29999999999999716
        },
        {
          "name": "D#3",
          "midi": 51,
          "time": 42.89999999999993,
          "velocity": 0.7874015748031497,
          "duration": 0.29999999999999716
        },
        {
          "name": "D#2",
          "midi": 39,
          "time": 43.199999999999925,
          "velocity": 0.7874015748031497,
          "duration": 0.6000000000000014
        },
        {
          "name": "D#3",
          "midi": 51,
          "time": 43.199999999999925,
          "velocity": 0.7874015748031497,
          "duration": 0.6000000000000014
        },
        {
          "name": "D#2",
          "midi": 39,
          "time": 43.799999999999926,
          "velocity": 0.7874015748031497,
          "duration": 0.6000000000000014
        },
        {
          "name": "D#3",
          "midi": 51,
          "time": 43.799999999999926,
          "velocity": 0.7874015748031497,
          "duration": 0.6000000000000014
        },
        {
          "name": "D#2",
          "midi": 39,
          "time": 44.39999999999993,
          "velocity": 0.7874015748031497,
          "duration": 0.29999999999999716
        },
        {
          "name": "D#3",
          "midi": 51,
          "time": 44.699999999999925,
          "velocity": 0.7874015748031497,
          "duration": 0.29999999999999716
        },
        {
          "name": "D#2",
          "midi": 39,
          "time": 44.99999999999992,
          "velocity": 0.7874015748031497,
          "duration": 0.29999999999999716
        },
        {
          "name": "D#3",
          "midi": 51,
          "time": 45.29999999999992,
          "velocity": 0.7874015748031497,
          "duration": 0.29999999999999716
        },
        {
          "name": "D#2",
          "midi": 39,
          "time": 45.599999999999916,
          "velocity": 0.7874015748031497,
          "duration": 0.29999999999999716
        },
        {
          "name": "D#3",
          "midi": 51,
          "time": 45.89999999999991,
          "velocity": 0.7874015748031497,
          "duration": 0.29999999999999716
        },
        {
          "name": "D#2",
          "midi": 39,
          "time": 46.19999999999991,
          "velocity": 0.7874015748031497,
          "duration": 0.29999999999999716
        },
        {
          "name": "D#3",
          "midi": 51,
          "time": 46.49999999999991,
          "velocity": 0.7874015748031497,
          "duration": 0.29999999999999716
        },
        {
          "name": "D#2",
          "midi": 39,
          "time": 46.799999999999905,
          "velocity": 0.7874015748031497,
          "duration": 0.29999999999999716
        },
        {
          "name": "D#3",
          "midi": 51,
          "time": 47.0999999999999,
          "velocity": 0.7874015748031497,
          "duration": 0.29999999999999716
        },
        {
          "name": "D#3",
          "midi": 51,
          "time": 47.3999999999999,
          "velocity": 0.7874015748031497,
          "duration": 0.29999999999999716
        },
        {
          "name": "B2",
          "midi": 47,
          "time": 47.99999999999989,
          "velocity": 0.7874015748031497,
          "duration": 0.29999999999999716
        },
        {
          "name": "B1",
          "midi": 35,
          "time": 47.99999999999989,
          "velocity": 0.7874015748031497,
          "duration": 2.2499999999999787
        },
        {
          "name": "B2",
          "midi": 47,
          "time": 48.44999999999989,
          "velocity": 0.7874015748031497,
          "duration": 0.29999999999999716
        },
        {
          "name": "B2",
          "midi": 47,
          "time": 48.899999999999885,
          "velocity": 0.7874015748031497,
          "duration": 0.29999999999999716
        },
        {
          "name": "B2",
          "midi": 47,
          "time": 49.34999999999988,
          "velocity": 0.7874015748031497,
          "duration": 0.29999999999999716
        },
        {
          "name": "B2",
          "midi": 47,
          "time": 49.799999999999876,
          "velocity": 0.7874015748031497,
          "duration": 0.29999999999999716
        },
        {
          "name": "C#3",
          "midi": 49,
          "time": 50.09999999999987,
          "velocity": 0.7874015748031497,
          "duration": 0.29999999999999716
        },
        {
          "name": "D#2",
          "midi": 39,
          "time": 50.39999999999987,
          "velocity": 0.7874015748031497,
          "duration": 2.3999999999999773
        },
        {
          "name": "D#3",
          "midi": 51,
          "time": 50.39999999999987,
          "velocity": 0.7874015748031497,
          "duration": 0.29999999999999716
        },
        {
          "name": "D#3",
          "midi": 51,
          "time": 50.849999999999866,
          "velocity": 0.7874015748031497,
          "duration": 0.29999999999999716
        },
        {
          "name": "D#3",
          "midi": 51,
          "time": 51.29999999999986,
          "velocity": 0.7874015748031497,
          "duration": 0.29999999999999716
        },
        {
          "name": "D#3",
          "midi": 51,
          "time": 51.74999999999986,
          "velocity": 0.7874015748031497,
          "duration": 0.29999999999999716
        },
        {
          "name": "D#3",
          "midi": 51,
          "time": 52.199999999999854,
          "velocity": 0.7874015748031497,
          "duration": 0.29999999999999716
        },
        {
          "name": "F3",
          "midi": 53,
          "time": 52.49999999999985,
          "velocity": 0.7874015748031497,
          "duration": 0.29999999999999716
        },
        {
          "name": "B1",
          "midi": 35,
          "time": 52.79999999999985,
          "velocity": 0.7874015748031497,
          "duration": 2.2499999999999787
        },
        {
          "name": "B2",
          "midi": 47,
          "time": 52.79999999999985,
          "velocity": 0.7874015748031497,
          "duration": 0.29999999999999716
        },
        {
          "name": "B2",
          "midi": 47,
          "time": 53.249999999999844,
          "velocity": 0.7874015748031497,
          "duration": 0.29999999999999716
        },
        {
          "name": "B2",
          "midi": 47,
          "time": 53.69999999999984,
          "velocity": 0.7874015748031497,
          "duration": 0.29999999999999716
        },
        {
          "name": "B2",
          "midi": 47,
          "time": 54.149999999999835,
          "velocity": 0.7874015748031497,
          "duration": 0.29999999999999716
        },
        {
          "name": "B2",
          "midi": 47,
          "time": 54.59999999999983,
          "velocity": 0.7874015748031497,
          "duration": 0.29999999999999716
        },
        {
          "name": "C#3",
          "midi": 49,
          "time": 54.89999999999983,
          "velocity": 0.7874015748031497,
          "duration": 0.29999999999999716
        },
        {
          "name": "D#2",
          "midi": 39,
          "time": 55.199999999999825,
          "velocity": 0.7874015748031497,
          "duration": 2.3999999999999773
        },
        {
          "name": "D#3",
          "midi": 51,
          "time": 55.199999999999825,
          "velocity": 0.7874015748031497,
          "duration": 0.29999999999999716
        },
        {
          "name": "D#3",
          "midi": 51,
          "time": 55.64999999999982,
          "velocity": 0.7874015748031497,
          "duration": 0.29999999999999716
        },
        {
          "name": "D#3",
          "midi": 51,
          "time": 56.09999999999982,
          "velocity": 0.7874015748031497,
          "duration": 0.29999999999999716
        },
        {
          "name": "D#3",
          "midi": 51,
          "time": 56.54999999999981,
          "velocity": 0.7874015748031497,
          "duration": 0.29999999999999716
        },
        {
          "name": "D#3",
          "midi": 51,
          "time": 56.99999999999981,
          "velocity": 0.7874015748031497,
          "duration": 0.29999999999999716
        },
        {
          "name": "F3",
          "midi": 53,
          "time": 57.299999999999805,
          "velocity": 0.7874015748031497,
          "duration": 0.29999999999999716
        },
        {
          "name": "B1",
          "midi": 35,
          "time": 57.5999999999998,
          "velocity": 0.7874015748031497,
          "duration": 2.2499999999999787
        },
        {
          "name": "B2",
          "midi": 47,
          "time": 57.5999999999998,
          "velocity": 0.7874015748031497,
          "duration": 0.29999999999999716
        },
        {
          "name": "B2",
          "midi": 47,
          "time": 58.0499999999998,
          "velocity": 0.7874015748031497,
          "duration": 0.29999999999999716
        },
        {
          "name": "B2",
          "midi": 47,
          "time": 58.499999999999794,
          "velocity": 0.7874015748031497,
          "duration": 0.29999999999999716
        },
        {
          "name": "B2",
          "midi": 47,
          "time": 58.94999999999979,
          "velocity": 0.7874015748031497,
          "duration": 0.29999999999999716
        },
        {
          "name": "B2",
          "midi": 47,
          "time": 59.399999999999785,
          "velocity": 0.7874015748031497,
          "duration": 0.29999999999999716
        },
        {
          "name": "C#3",
          "midi": 49,
          "time": 59.69999999999978,
          "velocity": 0.7874015748031497,
          "duration": 0.29999999999999716
        },
        {
          "name": "D#2",
          "midi": 39,
          "time": 59.99999999999978,
          "velocity": 0.7874015748031497,
          "duration": 2.3999999999999773
        },
        {
          "name": "D#3",
          "midi": 51,
          "time": 59.99999999999978,
          "velocity": 0.7874015748031497,
          "duration": 0.29999999999999716
        },
        {
          "name": "D#3",
          "midi": 51,
          "time": 60.449999999999775,
          "velocity": 0.7874015748031497,
          "duration": 0.29999999999999716
        },
        {
          "name": "D#3",
          "midi": 51,
          "time": 60.89999999999977,
          "velocity": 0.7874015748031497,
          "duration": 0.29999999999999716
        },
        {
          "name": "D#3",
          "midi": 51,
          "time": 61.34999999999977,
          "velocity": 0.7874015748031497,
          "duration": 0.29999999999999716
        },
        {
          "name": "D#3",
          "midi": 51,
          "time": 61.79999999999976,
          "velocity": 0.7874015748031497,
          "duration": 0.29999999999999716
        },
        {
          "name": "F3",
          "midi": 53,
          "time": 62.09999999999976,
          "velocity": 0.7874015748031497,
          "duration": 0.29999999999999716
        },
        {
          "name": "B1",
          "midi": 35,
          "time": 62.39999999999976,
          "velocity": 0.7874015748031497,
          "duration": 2.249999999999993
        },
        {
          "name": "B2",
          "midi": 47,
          "time": 62.39999999999976,
          "velocity": 0.7874015748031497,
          "duration": 0.29999999999999716
        },
        {
          "name": "B2",
          "midi": 47,
          "time": 62.84999999999975,
          "velocity": 0.7874015748031497,
          "duration": 0.29999999999999716
        },
        {
          "name": "B2",
          "midi": 47,
          "time": 63.29999999999975,
          "velocity": 0.7874015748031497,
          "duration": 0.29999999999999716
        },
        {
          "name": "B2",
          "midi": 47,
          "time": 63.749999999999744,
          "velocity": 0.7874015748031497,
          "duration": 0.29999999999999716
        },
        {
          "name": "B2",
          "midi": 47,
          "time": 64.19999999999975,
          "velocity": 0.7874015748031497,
          "duration": 0.29999999999999716
        },
        {
          "name": "C#3",
          "midi": 49,
          "time": 64.49999999999974,
          "velocity": 0.7874015748031497,
          "duration": 0.30000000000001137
        },
        {
          "name": "D#2",
          "midi": 39,
          "time": 64.79999999999976,
          "velocity": 0.7874015748031497,
          "duration": 1.2000000000000028
        },
        {
          "name": "D#3",
          "midi": 51,
          "time": 64.79999999999976,
          "velocity": 0.7874015748031497,
          "duration": 0.29999999999999716
        },
        {
          "name": "D#3",
          "midi": 51,
          "time": 65.24999999999976,
          "velocity": 0.7874015748031497,
          "duration": 0.29999999999999716
        },
        {
          "name": "D#3",
          "midi": 51,
          "time": 65.69999999999976,
          "velocity": 0.7874015748031497,
          "duration": 0.29999999999999716
        },
        {
          "name": "D#3",
          "midi": 51,
          "time": 67.19999999999976,
          "velocity": 0.7874015748031497,
          "duration": 0.5999999999999943
        },
        {
          "name": "D#2",
          "midi": 39,
          "time": 67.19999999999976,
          "velocity": 0.7874015748031497,
          "duration": 0.5999999999999943
        },
        {
          "name": "D#2",
          "midi": 39,
          "time": 67.79999999999976,
          "velocity": 0.7874015748031497,
          "duration": 0.5999999999999943
        },
        {
          "name": "D#3",
          "midi": 51,
          "time": 67.79999999999976,
          "velocity": 0.7874015748031497,
          "duration": 0.5999999999999943
        },
        {
          "name": "D#2",
          "midi": 39,
          "time": 68.39999999999975,
          "velocity": 0.7874015748031497,
          "duration": 0.29999999999999716
        },
        {
          "name": "D#3",
          "midi": 51,
          "time": 68.69999999999975,
          "velocity": 0.7874015748031497,
          "duration": 0.29999999999999716
        },
        {
          "name": "D#2",
          "midi": 39,
          "time": 68.99999999999974,
          "velocity": 0.7874015748031497,
          "duration": 0.29999999999999716
        },
        {
          "name": "D#3",
          "midi": 51,
          "time": 69.29999999999974,
          "velocity": 0.7874015748031497,
          "duration": 0.29999999999999716
        },
        {
          "name": "D#2",
          "midi": 39,
          "time": 69.59999999999974,
          "velocity": 0.7874015748031497,
          "duration": 0.29999999999999716
        },
        {
          "name": "D#3",
          "midi": 51,
          "time": 69.89999999999974,
          "velocity": 0.7874015748031497,
          "duration": 0.29999999999999716
        },
        {
          "name": "D#2",
          "midi": 39,
          "time": 70.19999999999973,
          "velocity": 0.7874015748031497,
          "duration": 0.29999999999999716
        },
        {
          "name": "D#3",
          "midi": 51,
          "time": 70.49999999999973,
          "velocity": 0.7874015748031497,
          "duration": 0.29999999999999716
        },
        {
          "name": "D#2",
          "midi": 39,
          "time": 70.79999999999973,
          "velocity": 0.7874015748031497,
          "duration": 0.29999999999999716
        },
        {
          "name": "D#3",
          "midi": 51,
          "time": 71.09999999999972,
          "velocity": 0.7874015748031497,
          "duration": 0.29999999999999716
        },
        {
          "name": "D#2",
          "midi": 39,
          "time": 71.39999999999972,
          "velocity": 0.7874015748031497,
          "duration": 0.29999999999999716
        },
        {
          "name": "D#3",
          "midi": 51,
          "time": 71.69999999999972,
          "velocity": 0.7874015748031497,
          "duration": 0.29999999999999716
        },
        {
          "name": "D#3",
          "midi": 51,
          "time": 71.99999999999972,
          "velocity": 0.7874015748031497,
          "duration": 0.5999999999999943
        },
        {
          "name": "D#2",
          "midi": 39,
          "time": 71.99999999999972,
          "velocity": 0.7874015748031497,
          "duration": 0.5999999999999943
        },
        {
          "name": "D#2",
          "midi": 39,
          "time": 72.59999999999971,
          "velocity": 0.7874015748031497,
          "duration": 0.5999999999999943
        },
        {
          "name": "D#3",
          "midi": 51,
          "time": 72.59999999999971,
          "velocity": 0.7874015748031497,
          "duration": 0.5999999999999943
        },
        {
          "name": "D#2",
          "midi": 39,
          "time": 73.1999999999997,
          "velocity": 0.7874015748031497,
          "duration": 0.29999999999999716
        },
        {
          "name": "D#3",
          "midi": 51,
          "time": 73.4999999999997,
          "velocity": 0.7874015748031497,
          "duration": 0.29999999999999716
        },
        {
          "name": "D#2",
          "midi": 39,
          "time": 73.7999999999997,
          "velocity": 0.7874015748031497,
          "duration": 0.29999999999999716
        },
        {
          "name": "D#3",
          "midi": 51,
          "time": 74.0999999999997,
          "velocity": 0.7874015748031497,
          "duration": 0.29999999999999716
        },
        {
          "name": "D#2",
          "midi": 39,
          "time": 74.3999999999997,
          "velocity": 0.7874015748031497,
          "duration": 0.29999999999999716
        },
        {
          "name": "D#3",
          "midi": 51,
          "time": 74.69999999999969,
          "velocity": 0.7874015748031497,
          "duration": 0.29999999999999716
        },
        {
          "name": "D#2",
          "midi": 39,
          "time": 74.99999999999969,
          "velocity": 0.7874015748031497,
          "duration": 0.29999999999999716
        },
        {
          "name": "D#3",
          "midi": 51,
          "time": 75.29999999999968,
          "velocity": 0.7874015748031497,
          "duration": 0.29999999999999716
        },
        {
          "name": "D#2",
          "midi": 39,
          "time": 75.59999999999968,
          "velocity": 0.7874015748031497,
          "duration": 0.29999999999999716
        },
        {
          "name": "D#3",
          "midi": 51,
          "time": 75.89999999999968,
          "velocity": 0.7874015748031497,
          "duration": 0.29999999999999716
        },
        {
          "name": "D#2",
          "midi": 39,
          "time": 76.19999999999968,
          "velocity": 0.7874015748031497,
          "duration": 0.29999999999999716
        },
        {
          "name": "D#3",
          "midi": 51,
          "time": 76.49999999999967,
          "velocity": 0.7874015748031497,
          "duration": 0.29999999999999716
        },
        {
          "name": "D#2",
          "midi": 39,
          "time": 76.79999999999967,
          "velocity": 0.7874015748031497,
          "duration": 0.5999999999999943
        },
        {
          "name": "D#3",
          "midi": 51,
          "time": 76.79999999999967,
          "velocity": 0.7874015748031497,
          "duration": 0.5999999999999943
        },
        {
          "name": "D#2",
          "midi": 39,
          "time": 77.39999999999966,
          "velocity": 0.7874015748031497,
          "duration": 0.5999999999999943
        },
        {
          "name": "D#3",
          "midi": 51,
          "time": 77.39999999999966,
          "velocity": 0.7874015748031497,
          "duration": 0.5999999999999943
        },
        {
          "name": "D#2",
          "midi": 39,
          "time": 77.99999999999966,
          "velocity": 0.7874015748031497,
          "duration": 0.29999999999999716
        },
        {
          "name": "D#3",
          "midi": 51,
          "time": 78.29999999999966,
          "velocity": 0.7874015748031497,
          "duration": 0.29999999999999716
        },
        {
          "name": "D#2",
          "midi": 39,
          "time": 78.59999999999965,
          "velocity": 0.7874015748031497,
          "duration": 0.29999999999999716
        },
        {
          "name": "D#3",
          "midi": 51,
          "time": 78.89999999999965,
          "velocity": 0.7874015748031497,
          "duration": 0.29999999999999716
        },
        {
          "name": "D#2",
          "midi": 39,
          "time": 79.19999999999965,
          "velocity": 0.7874015748031497,
          "duration": 0.29999999999999716
        },
        {
          "name": "D#3",
          "midi": 51,
          "time": 79.49999999999964,
          "velocity": 0.7874015748031497,
          "duration": 0.29999999999999716
        },
        {
          "name": "D#2",
          "midi": 39,
          "time": 79.79999999999964,
          "velocity": 0.7874015748031497,
          "duration": 0.29999999999999716
        },
        {
          "name": "D#3",
          "midi": 51,
          "time": 80.09999999999964,
          "velocity": 0.7874015748031497,
          "duration": 0.29999999999999716
        },
        {
          "name": "D#2",
          "midi": 39,
          "time": 80.39999999999964,
          "velocity": 0.7874015748031497,
          "duration": 0.29999999999999716
        },
        {
          "name": "D#3",
          "midi": 51,
          "time": 80.69999999999963,
          "velocity": 0.7874015748031497,
          "duration": 0.29999999999999716
        },
        {
          "name": "D#2",
          "midi": 39,
          "time": 80.99999999999963,
          "velocity": 0.7874015748031497,
          "duration": 0.29999999999999716
        },
        {
          "name": "D#3",
          "midi": 51,
          "time": 81.29999999999963,
          "velocity": 0.7874015748031497,
          "duration": 0.29999999999999716
        },
        {
          "name": "D#2",
          "midi": 39,
          "time": 81.59999999999962,
          "velocity": 0.7874015748031497,
          "duration": 0.5999999999999943
        },
        {
          "name": "D#3",
          "midi": 51,
          "time": 81.59999999999962,
          "velocity": 0.7874015748031497,
          "duration": 0.5999999999999943
        },
        {
          "name": "D#2",
          "midi": 39,
          "time": 82.19999999999962,
          "velocity": 0.7874015748031497,
          "duration": 0.5999999999999943
        },
        {
          "name": "D#3",
          "midi": 51,
          "time": 82.19999999999962,
          "velocity": 0.7874015748031497,
          "duration": 0.5999999999999943
        },
        {
          "name": "D#2",
          "midi": 39,
          "time": 82.79999999999961,
          "velocity": 0.7874015748031497,
          "duration": 0.29999999999999716
        },
        {
          "name": "D#3",
          "midi": 51,
          "time": 83.09999999999961,
          "velocity": 0.7874015748031497,
          "duration": 0.29999999999999716
        },
        {
          "name": "D#2",
          "midi": 39,
          "time": 83.39999999999961,
          "velocity": 0.7874015748031497,
          "duration": 0.29999999999999716
        },
        {
          "name": "D#3",
          "midi": 51,
          "time": 83.6999999999996,
          "velocity": 0.7874015748031497,
          "duration": 0.29999999999999716
        },
        {
          "name": "D#2",
          "midi": 39,
          "time": 83.9999999999996,
          "velocity": 0.7874015748031497,
          "duration": 0.29999999999999716
        },
        {
          "name": "D#3",
          "midi": 51,
          "time": 84.2999999999996,
          "velocity": 0.7874015748031497,
          "duration": 0.29999999999999716
        },
        {
          "name": "D#2",
          "midi": 39,
          "time": 84.5999999999996,
          "velocity": 0.7874015748031497,
          "duration": 0.29999999999999716
        },
        {
          "name": "D#3",
          "midi": 51,
          "time": 84.8999999999996,
          "velocity": 0.7874015748031497,
          "duration": 0.29999999999999716
        },
        {
          "name": "D#2",
          "midi": 39,
          "time": 85.19999999999959,
          "velocity": 0.7874015748031497,
          "duration": 0.29999999999999716
        },
        {
          "name": "D#3",
          "midi": 51,
          "time": 85.49999999999959,
          "velocity": 0.7874015748031497,
          "duration": 0.29999999999999716
        },
        {
          "name": "D#2",
          "midi": 39,
          "time": 85.79999999999959,
          "velocity": 0.7874015748031497,
          "duration": 0.29999999999999716
        },
        {
          "name": "D#3",
          "midi": 51,
          "time": 86.09999999999958,
          "velocity": 0.7874015748031497,
          "duration": 0.29999999999999716
        },
        {
          "name": "D#3",
          "midi": 51,
          "time": 86.39999999999958,
          "velocity": 0.7874015748031497,
          "duration": 0.9000000000000057
        },
        {
          "name": "D#2",
          "midi": 39,
          "time": 86.39999999999958,
          "velocity": 0.7874015748031497,
          "duration": 2.4000000000000057
        },
        {
          "name": "D#3",
          "midi": 51,
          "time": 87.29999999999959,
          "velocity": 0.7874015748031497,
          "duration": 0.9000000000000057
        },
        {
          "name": "D#3",
          "midi": 51,
          "time": 88.19999999999959,
          "velocity": 0.7874015748031497,
          "duration": 0.5999999999999943
        },
        {
          "name": "C#2",
          "midi": 37,
          "time": 88.79999999999959,
          "velocity": 0.7874015748031497,
          "duration": 2.4000000000000057
        },
        {
          "name": "C#3",
          "midi": 49,
          "time": 88.79999999999959,
          "velocity": 0.7874015748031497,
          "duration": 0.9000000000000057
        },
        {
          "name": "C#3",
          "midi": 49,
          "time": 89.69999999999959,
          "velocity": 0.7874015748031497,
          "duration": 0.9000000000000057
        },
        {
          "name": "C#3",
          "midi": 49,
          "time": 90.5999999999996,
          "velocity": 0.7874015748031497,
          "duration": 0.5999999999999943
        },
        {
          "name": "C3",
          "midi": 48,
          "time": 91.19999999999959,
          "velocity": 0.7874015748031497,
          "duration": 0.9000000000000057
        },
        {
          "name": "C2",
          "midi": 36,
          "time": 91.19999999999959,
          "velocity": 0.7874015748031497,
          "duration": 2.4000000000000057
        },
        {
          "name": "C3",
          "midi": 48,
          "time": 92.0999999999996,
          "velocity": 0.7874015748031497,
          "duration": 0.9000000000000057
        },
        {
          "name": "C3",
          "midi": 48,
          "time": 92.9999999999996,
          "velocity": 0.7874015748031497,
          "duration": 0.5999999999999943
        },
        {
          "name": "B1",
          "midi": 35,
          "time": 93.5999999999996,
          "velocity": 0.7874015748031497,
          "duration": 2.4000000000000057
        },
        {
          "name": "B2",
          "midi": 47,
          "time": 93.5999999999996,
          "velocity": 0.7874015748031497,
          "duration": 0.9000000000000057
        },
        {
          "name": "B2",
          "midi": 47,
          "time": 94.4999999999996,
          "velocity": 0.7874015748031497,
          "duration": 0.9000000000000057
        },
        {
          "name": "B2",
          "midi": 47,
          "time": 95.39999999999961,
          "velocity": 0.7874015748031497,
          "duration": 0.5999999999999943
        },
        {
          "name": "D#3",
          "midi": 51,
          "time": 95.9999999999996,
          "velocity": 0.7874015748031497,
          "duration": 0.9000000000000057
        },
        {
          "name": "D#2",
          "midi": 39,
          "time": 95.9999999999996,
          "velocity": 0.7874015748031497,
          "duration": 2.4000000000000057
        },
        {
          "name": "D#3",
          "midi": 51,
          "time": 96.89999999999961,
          "velocity": 0.7874015748031497,
          "duration": 0.9000000000000057
        },
        {
          "name": "D#3",
          "midi": 51,
          "time": 97.79999999999961,
          "velocity": 0.7874015748031497,
          "duration": 0.5999999999999943
        },
        {
          "name": "C#3",
          "midi": 49,
          "time": 98.39999999999961,
          "velocity": 0.7874015748031497,
          "duration": 0.9000000000000057
        },
        {
          "name": "C#2",
          "midi": 37,
          "time": 98.39999999999961,
          "velocity": 0.7874015748031497,
          "duration": 2.4000000000000057
        },
        {
          "name": "C#3",
          "midi": 49,
          "time": 99.29999999999961,
          "velocity": 0.7874015748031497,
          "duration": 0.9000000000000057
        },
        {
          "name": "C#3",
          "midi": 49,
          "time": 100.19999999999962,
          "velocity": 0.7874015748031497,
          "duration": 0.5999999999999943
        },
        {
          "name": "C2",
          "midi": 36,
          "time": 100.79999999999961,
          "velocity": 0.7874015748031497,
          "duration": 2.4000000000000057
        },
        {
          "name": "C3",
          "midi": 48,
          "time": 100.79999999999961,
          "velocity": 0.7874015748031497,
          "duration": 0.9000000000000057
        },
        {
          "name": "C3",
          "midi": 48,
          "time": 101.69999999999962,
          "velocity": 0.7874015748031497,
          "duration": 0.9000000000000057
        },
        {
          "name": "C3",
          "midi": 48,
          "time": 102.59999999999962,
          "velocity": 0.7874015748031497,
          "duration": 0.5999999999999943
        },
        {
          "name": "B2",
          "midi": 47,
          "time": 103.19999999999962,
          "velocity": 0.7874015748031497,
          "duration": 0.9000000000000057
        },
        {
          "name": "B1",
          "midi": 35,
          "time": 103.19999999999962,
          "velocity": 0.7874015748031497,
          "duration": 2.4000000000000057
        },
        {
          "name": "B2",
          "midi": 47,
          "time": 104.09999999999962,
          "velocity": 0.7874015748031497,
          "duration": 0.9000000000000057
        },
        {
          "name": "B2",
          "midi": 47,
          "time": 104.99999999999963,
          "velocity": 0.7874015748031497,
          "duration": 0.5999999999999943
        },
        {
          "name": "D#3",
          "midi": 51,
          "time": 105.59999999999962,
          "velocity": 0.7874015748031497,
          "duration": 0.5999999999999943
        },
        {
          "name": "D#2",
          "midi": 39,
          "time": 105.59999999999962,
          "velocity": 0.7874015748031497,
          "duration": 0.5999999999999943
        },
        {
          "name": "D#2",
          "midi": 39,
          "time": 106.19999999999962,
          "velocity": 0.7874015748031497,
          "duration": 0.5999999999999943
        },
        {
          "name": "D#3",
          "midi": 51,
          "time": 106.19999999999962,
          "velocity": 0.7874015748031497,
          "duration": 0.5999999999999943
        },
        {
          "name": "D#2",
          "midi": 39,
          "time": 106.79999999999961,
          "velocity": 0.7874015748031497,
          "duration": 0.29999999999999716
        },
        {
          "name": "D#3",
          "midi": 51,
          "time": 107.09999999999961,
          "velocity": 0.7874015748031497,
          "duration": 0.29999999999999716
        },
        {
          "name": "D#2",
          "midi": 39,
          "time": 107.39999999999961,
          "velocity": 0.7874015748031497,
          "duration": 0.29999999999999716
        },
        {
          "name": "D#3",
          "midi": 51,
          "time": 107.6999999999996,
          "velocity": 0.7874015748031497,
          "duration": 0.29999999999999716
        },
        {
          "name": "D#2",
          "midi": 39,
          "time": 107.9999999999996,
          "velocity": 0.7874015748031497,
          "duration": 0.29999999999999716
        },
        {
          "name": "D#3",
          "midi": 51,
          "time": 108.2999999999996,
          "velocity": 0.7874015748031497,
          "duration": 0.29999999999999716
        },
        {
          "name": "D#2",
          "midi": 39,
          "time": 108.5999999999996,
          "velocity": 0.7874015748031497,
          "duration": 0.29999999999999716
        },
        {
          "name": "D#3",
          "midi": 51,
          "time": 108.8999999999996,
          "velocity": 0.7874015748031497,
          "duration": 0.29999999999999716
        },
        {
          "name": "D#2",
          "midi": 39,
          "time": 109.19999999999959,
          "velocity": 0.7874015748031497,
          "duration": 0.29999999999999716
        },
        {
          "name": "D#3",
          "midi": 51,
          "time": 109.49999999999959,
          "velocity": 0.7874015748031497,
          "duration": 0.29999999999999716
        },
        {
          "name": "D#2",
          "midi": 39,
          "time": 109.79999999999959,
          "velocity": 0.7874015748031497,
          "duration": 0.29999999999999716
        },
        {
          "name": "D#3",
          "midi": 51,
          "time": 110.09999999999958,
          "velocity": 0.7874015748031497,
          "duration": 0.29999999999999716
        },
        {
          "name": "D#3",
          "midi": 51,
          "time": 110.39999999999958,
          "velocity": 0.7874015748031497,
          "duration": 0.5999999999999943
        },
        {
          "name": "D#2",
          "midi": 39,
          "time": 110.39999999999958,
          "velocity": 0.7874015748031497,
          "duration": 0.5999999999999943
        },
        {
          "name": "D#2",
          "midi": 39,
          "time": 110.99999999999957,
          "velocity": 0.7874015748031497,
          "duration": 0.5999999999999943
        },
        {
          "name": "D#3",
          "midi": 51,
          "time": 110.99999999999957,
          "velocity": 0.7874015748031497,
          "duration": 0.5999999999999943
        },
        {
          "name": "D#2",
          "midi": 39,
          "time": 111.59999999999957,
          "velocity": 0.7874015748031497,
          "duration": 0.29999999999999716
        },
        {
          "name": "D#3",
          "midi": 51,
          "time": 111.89999999999957,
          "velocity": 0.7874015748031497,
          "duration": 0.29999999999999716
        },
        {
          "name": "D#2",
          "midi": 39,
          "time": 112.19999999999956,
          "velocity": 0.7874015748031497,
          "duration": 0.29999999999999716
        },
        {
          "name": "D#3",
          "midi": 51,
          "time": 112.49999999999956,
          "velocity": 0.7874015748031497,
          "duration": 0.29999999999999716
        },
        {
          "name": "D#2",
          "midi": 39,
          "time": 112.79999999999956,
          "velocity": 0.7874015748031497,
          "duration": 0.29999999999999716
        },
        {
          "name": "D#3",
          "midi": 51,
          "time": 113.09999999999955,
          "velocity": 0.7874015748031497,
          "duration": 0.29999999999999716
        },
        {
          "name": "D#2",
          "midi": 39,
          "time": 113.39999999999955,
          "velocity": 0.7874015748031497,
          "duration": 0.29999999999999716
        },
        {
          "name": "D#3",
          "midi": 51,
          "time": 113.69999999999955,
          "velocity": 0.7874015748031497,
          "duration": 0.29999999999999716
        },
        {
          "name": "D#2",
          "midi": 39,
          "time": 113.99999999999955,
          "velocity": 0.7874015748031497,
          "duration": 0.29999999999999716
        },
        {
          "name": "D#3",
          "midi": 51,
          "time": 114.29999999999954,
          "velocity": 0.7874015748031497,
          "duration": 0.29999999999999716
        },
        {
          "name": "D#2",
          "midi": 39,
          "time": 114.59999999999954,
          "velocity": 0.7874015748031497,
          "duration": 0.29999999999999716
        },
        {
          "name": "D#3",
          "midi": 51,
          "time": 114.89999999999954,
          "velocity": 0.7874015748031497,
          "duration": 0.29999999999999716
        },
        {
          "name": "D#2",
          "midi": 39,
          "time": 115.19999999999953,
          "velocity": 0.7874015748031497,
          "duration": 0.5999999999999943
        },
        {
          "name": "D#3",
          "midi": 51,
          "time": 115.19999999999953,
          "velocity": 0.7874015748031497,
          "duration": 0.5999999999999943
        },
        {
          "name": "D#2",
          "midi": 39,
          "time": 115.79999999999953,
          "velocity": 0.7874015748031497,
          "duration": 0.5999999999999943
        },
        {
          "name": "D#3",
          "midi": 51,
          "time": 115.79999999999953,
          "velocity": 0.7874015748031497,
          "duration": 0.5999999999999943
        },
        {
          "name": "D#2",
          "midi": 39,
          "time": 116.39999999999952,
          "velocity": 0.7874015748031497,
          "duration": 0.29999999999999716
        },
        {
          "name": "D#3",
          "midi": 51,
          "time": 116.69999999999952,
          "velocity": 0.7874015748031497,
          "duration": 0.29999999999999716
        },
        {
          "name": "D#2",
          "midi": 39,
          "time": 116.99999999999952,
          "velocity": 0.7874015748031497,
          "duration": 0.29999999999999716
        },
        {
          "name": "D#3",
          "midi": 51,
          "time": 117.29999999999951,
          "velocity": 0.7874015748031497,
          "duration": 0.29999999999999716
        },
        {
          "name": "D#2",
          "midi": 39,
          "time": 117.59999999999951,
          "velocity": 0.7874015748031497,
          "duration": 0.29999999999999716
        },
        {
          "name": "D#3",
          "midi": 51,
          "time": 117.89999999999951,
          "velocity": 0.7874015748031497,
          "duration": 0.29999999999999716
        },
        {
          "name": "D#2",
          "midi": 39,
          "time": 118.1999999999995,
          "velocity": 0.7874015748031497,
          "duration": 0.29999999999999716
        },
        {
          "name": "D#3",
          "midi": 51,
          "time": 118.4999999999995,
          "velocity": 0.7874015748031497,
          "duration": 0.29999999999999716
        },
        {
          "name": "D#2",
          "midi": 39,
          "time": 118.7999999999995,
          "velocity": 0.7874015748031497,
          "duration": 0.29999999999999716
        },
        {
          "name": "D#3",
          "midi": 51,
          "time": 119.0999999999995,
          "velocity": 0.7874015748031497,
          "duration": 0.29999999999999716
        },
        {
          "name": "D#2",
          "midi": 39,
          "time": 119.3999999999995,
          "velocity": 0.7874015748031497,
          "duration": 0.29999999999999716
        },
        {
          "name": "D#3",
          "midi": 51,
          "time": 119.69999999999949,
          "velocity": 0.7874015748031497,
          "duration": 0.29999999999999716
        },
        {
          "name": "D#2",
          "midi": 39,
          "time": 119.99999999999949,
          "velocity": 0.7874015748031497,
          "duration": 0.5999999999999943
        },
        {
          "name": "D#3",
          "midi": 51,
          "time": 119.99999999999949,
          "velocity": 0.7874015748031497,
          "duration": 0.5999999999999943
        },
        {
          "name": "D#2",
          "midi": 39,
          "time": 120.59999999999948,
          "velocity": 0.7874015748031497,
          "duration": 0.5999999999999943
        },
        {
          "name": "D#3",
          "midi": 51,
          "time": 120.59999999999948,
          "velocity": 0.7874015748031497,
          "duration": 0.5999999999999943
        },
        {
          "name": "D#2",
          "midi": 39,
          "time": 121.19999999999948,
          "velocity": 0.7874015748031497,
          "duration": 0.29999999999999716
        },
        {
          "name": "D#3",
          "midi": 51,
          "time": 121.49999999999947,
          "velocity": 0.7874015748031497,
          "duration": 0.29999999999999716
        },
        {
          "name": "D#2",
          "midi": 39,
          "time": 121.79999999999947,
          "velocity": 0.7874015748031497,
          "duration": 0.29999999999999716
        },
        {
          "name": "D#3",
          "midi": 51,
          "time": 122.09999999999947,
          "velocity": 0.7874015748031497,
          "duration": 0.29999999999999716
        },
        {
          "name": "D#2",
          "midi": 39,
          "time": 122.39999999999947,
          "velocity": 0.7874015748031497,
          "duration": 0.29999999999999716
        },
        {
          "name": "D#3",
          "midi": 51,
          "time": 122.69999999999946,
          "velocity": 0.7874015748031497,
          "duration": 0.29999999999999716
        },
        {
          "name": "D#2",
          "midi": 39,
          "time": 122.99999999999946,
          "velocity": 0.7874015748031497,
          "duration": 0.29999999999999716
        },
        {
          "name": "D#3",
          "midi": 51,
          "time": 123.29999999999946,
          "velocity": 0.7874015748031497,
          "duration": 0.29999999999999716
        },
        {
          "name": "D#2",
          "midi": 39,
          "time": 123.59999999999945,
          "velocity": 0.7874015748031497,
          "duration": 0.29999999999999716
        },
        {
          "name": "D#3",
          "midi": 51,
          "time": 123.89999999999945,
          "velocity": 0.7874015748031497,
          "duration": 0.29999999999999716
        },
        {
          "name": "D#2",
          "midi": 39,
          "time": 124.19999999999945,
          "velocity": 0.7874015748031497,
          "duration": 0.29999999999999716
        },
        {
          "name": "D#3",
          "midi": 51,
          "time": 124.49999999999945,
          "velocity": 0.7874015748031497,
          "duration": 0.29999999999999716
        }
      ],
      "controlChanges": {
        "6": [
          {
            "number": 6,
            "time": 0,
            "value": 0.09448818897637795
          },
          {
            "number": 6,
            "time": 0,
            "value": 0.09448818897637795
          },
          {
            "number": 6,
            "time": 0,
            "value": 0.09448818897637795
          },
          {
            "number": 6,
            "time": 136.79999999999944,
            "value": 0.09448818897637795
          },
          {
            "number": 6,
            "time": 136.80624999999944,
            "value": 0.09448818897637795
          },
          {
            "number": 6,
            "time": 136.80624999999944,
            "value": 0.09448818897637795
          }
        ],
        "7": [
          {
            "number": 7,
            "time": 0,
            "value": 0.7874015748031497
          },
          {
            "number": 7,
            "time": 0,
            "value": 0.7874015748031497
          },
          {
            "number": 7,
            "time": 0,
            "value": 0.7874015748031497
          },
          {
            "number": 7,
            "time": 0,
            "value": 0.7874015748031497
          },
          {
            "number": 7,
            "time": 136.79999999999944,
            "value": 0.7874015748031497
          },
          {
            "number": 7,
            "time": 136.80624999999944,
            "value": 0.7874015748031497
          },
          {
            "number": 7,
            "time": 136.80624999999944,
            "value": 0.7874015748031497
          }
        ],
        "10": [
          {
            "number": 10,
            "time": 0,
            "value": 0.5039370078740157
          },
          {
            "number": 10,
            "time": 0,
            "value": 0.5039370078740157
          },
          {
            "number": 10,
            "time": 0,
            "value": 0.5039370078740157
          },
          {
            "number": 10,
            "time": 0,
            "value": 0.5039370078740157
          },
          {
            "number": 10,
            "time": 136.79999999999944,
            "value": 0.5039370078740157
          },
          {
            "number": 10,
            "time": 136.80624999999944,
            "value": 0.5039370078740157
          },
          {
            "number": 10,
            "time": 136.80624999999944,
            "value": 0.5039370078740157
          }
        ],
        "64": [
          {
            "number": 64,
            "time": 0,
            "value": 0.12598425196850394
          },
          {
            "number": 64,
            "time": 0,
            "value": 0.12598425196850394
          },
          {
            "number": 64,
            "time": 0,
            "value": 0.12598425196850394
          },
          {
            "number": 64,
            "time": 136.79999999999944,
            "value": 0.12598425196850394
          },
          {
            "number": 64,
            "time": 136.80624999999944,
            "value": 0.12598425196850394
          },
          {
            "number": 64,
            "time": 136.80624999999944,
            "value": 0.12598425196850394
          }
        ],
        "100": [
          {
            "number": 100,
            "time": 0,
            "value": 0
          },
          {
            "number": 100,
            "time": 0,
            "value": 0
          },
          {
            "number": 100,
            "time": 0,
            "value": 0
          },
          {
            "number": 100,
            "time": 136.79999999999944,
            "value": 0
          },
          {
            "number": 100,
            "time": 136.80624999999944,
            "value": 0
          },
          {
            "number": 100,
            "time": 136.80624999999944,
            "value": 0
          }
        ],
        "101": [
          {
            "number": 101,
            "time": 0,
            "value": 0
          },
          {
            "number": 101,
            "time": 0,
            "value": 0
          },
          {
            "number": 101,
            "time": 0,
            "value": 0
          },
          {
            "number": 101,
            "time": 136.79999999999944,
            "value": 0
          },
          {
            "number": 101,
            "time": 136.80624999999944,
            "value": 0
          },
          {
            "number": 101,
            "time": 136.80624999999944,
            "value": 0
          }
        ]
      },
      "id": 3,
      "name": "MO2",
      "instrumentNumber": 0,
      "instrument": "acoustic grand piano",
      "instrumentFamily": "piano",
      "channelNumber": 0,
      "isPercussion": false
    }
  ]
}