{
  "header": {
    "PPQ": 480,
    "timeSignature": [
      4,
      4
    ],
    "bpm": 136.0001450668214,
    "name": ""
  },
  "startTime": 0,
  "duration": 112.85190168333311,
  "tracks": [
    {
      "startTime": 0.441176,
      "duration": 112.85190168333243,
      "length": 397,
      "notes": [
        {
          "name": "F4",
          "midi": 65,
          "time": 0.441176,
          "velocity": 0.6299212598425197,
          "duration": 1.3226088833333334
        },
        {
          "name": "A#4",
          "midi": 70,
          "time": 0.49908035,
          "velocity": 0.6299212598425197,
          "duration": 1.2637854166666667
        },
        {
          "name": "C#5",
          "midi": 73,
          "time": 0.5569847,
          "velocity": 0.6299212598425197,
          "duration": 1.2058810666666666
        },
        {
          "name": "F#4",
          "midi": 66,
          "time": 2.20588,
          "velocity": 0.6299212598425197,
          "duration": 1.3226088833333334
        },
        {
          "name": "A#4",
          "midi": 70,
          "time": 2.26378435,
          "velocity": 0.6299212598425197,
          "duration": 1.2637854166666669
        },
        {
          "name": "D#5",
          "midi": 75,
          "time": 2.3216886999999997,
          "velocity": 0.6299212598425197,
          "duration": 1.205881066666667
        },
        {
          "name": "D#4",
          "midi": 63,
          "time": 3.970584,
          "velocity": 0.6299212598425197,
          "duration": 1.3226088833333338
        },
        {
          "name": "G#4",
          "midi": 68,
          "time": 4.02848835,
          "velocity": 0.6299212598425197,
          "duration": 1.2637854166666669
        },
        {
          "name": "C5",
          "midi": 72,
          "time": 4.0863927,
          "velocity": 0.6299212598425197,
          "duration": 1.2058810666666666
        },
        {
          "name": "F4",
          "midi": 65,
          "time": 5.735288000000001,
          "velocity": 0.6299212598425197,
          "duration": 1.3226088833333343
        },
        {
          "name": "A#4",
          "midi": 70,
          "time": 5.793192350000001,
          "velocity": 0.6299212598425197,
          "duration": 1.2637854166666669
        },
        {
          "name": "C#5",
          "midi": 73,
          "time": 5.851096700000001,
          "velocity": 0.6299212598425197,
          "duration": 1.2058810666666666
        },
        {
          "name": "F4",
          "midi": 65,
          "time": 7.4999920000000015,
          "velocity": 0.6299212598425197,
          "duration": 1.3226088833333352
        },
        {
          "name": "A#4",
          "midi": 70,
          "time": 7.557896350000002,
          "velocity": 0.6299212598425197,
          "duration": 1.2637854166666678
        },
        {
          "name": "C#5",
          "midi": 73,
          "time": 7.615800700000002,
          "velocity": 0.6299212598425197,
          "duration": 1.2058810666666675
        },
        {
          "name": "F#4",
          "midi": 66,
          "time": 9.264696000000004,
          "velocity": 0.6299212598425197,
          "duration": 1.3226088833333325
        },
        {
          "name": "A#4",
          "midi": 70,
          "time": 9.322600350000004,
          "velocity": 0.6299212598425197,
          "duration": 1.263785416666666
        },
        {
          "name": "D#5",
          "midi": 75,
          "time": 9.380504700000003,
          "velocity": 0.6299212598425197,
          "duration": 1.2058810666666666
        },
        {
          "name": "D#4",
          "midi": 63,
          "time": 11.029400000000004,
          "velocity": 0.6299212598425197,
          "duration": 1.3226088833333325
        },
        {
          "name": "G#4",
          "midi": 68,
          "time": 11.087304350000004,
          "velocity": 0.6299212598425197,
          "duration": 1.263785416666666
        },
        {
          "name": "C5",
          "midi": 72,
          "time": 11.145208700000003,
          "velocity": 0.6299212598425197,
          "duration": 1.2058810666666666
        },
        {
          "name": "F4",
          "midi": 65,
          "time": 12.794104000000004,
          "velocity": 0.6299212598425197,
          "duration": 1.3226088833333325
        },
        {
          "name": "A#4",
          "midi": 70,
          "time": 12.852008350000004,
          "velocity": 0.6299212598425197,
          "duration": 1.263785416666666
        },
        {
          "name": "C#5",
          "midi": 73,
          "time": 12.909912700000003,
          "velocity": 0.6299212598425197,
          "duration": 1.2058810666666666
        },
        {
          "name": "F5",
          "midi": 77,
          "time": 14.117632000000004,
          "velocity": 0.6299212598425197,
          "duration": 0.20863948333333404
        },
        {
          "name": "D#5",
          "midi": 75,
          "time": 14.338220000000005,
          "velocity": 0.6299212598425197,
          "duration": 0.20863948333333404
        },
        {
          "name": "F5",
          "midi": 77,
          "time": 14.558808000000006,
          "velocity": 0.6299212598425197,
          "duration": 0.4181980833333334
        },
        {
          "name": "F5",
          "midi": 77,
          "time": 15.441160000000007,
          "velocity": 0.6299212598425197,
          "duration": 0.20863948333333404
        },
        {
          "name": "D#5",
          "midi": 75,
          "time": 15.661748000000008,
          "velocity": 0.6299212598425197,
          "duration": 0.20863948333333404
        },
        {
          "name": "F5",
          "midi": 77,
          "time": 15.88233600000001,
          "velocity": 0.6299212598425197,
          "duration": 0.20863948333333227
        },
        {
          "name": "D#5",
          "midi": 75,
          "time": 16.10292400000001,
          "velocity": 0.6299212598425197,
          "duration": 0.20863948333333227
        },
        {
          "name": "F5",
          "midi": 77,
          "time": 16.323512000000008,
          "velocity": 0.6299212598425197,
          "duration": 0.20863948333333227
        },
        {
          "name": "D#5",
          "midi": 75,
          "time": 16.544100000000007,
          "velocity": 0.6299212598425197,
          "duration": 0.20863948333333227
        },
        {
          "name": "F5",
          "midi": 77,
          "time": 16.764688000000007,
          "velocity": 0.6299212598425197,
          "duration": 0.4181980833333334
        },
        {
          "name": "A#4",
          "midi": 70,
          "time": 17.205864000000005,
          "velocity": 0.6299212598425197,
          "duration": 0.4181980833333334
        },
        {
          "name": "F5",
          "midi": 77,
          "time": 17.647040000000004,
          "velocity": 0.6299212598425197,
          "duration": 0.20863948333333227
        },
        {
          "name": "D#5",
          "midi": 75,
          "time": 17.867628000000003,
          "velocity": 0.6299212598425197,
          "duration": 0.20863948333333227
        },
        {
          "name": "F5",
          "midi": 77,
          "time": 18.088216000000003,
          "velocity": 0.6299212598425197,
          "duration": 0.4181980833333334
        },
        {
          "name": "F5",
          "midi": 77,
          "time": 18.970568000000004,
          "velocity": 0.6299212598425197,
          "duration": 0.20863948333333227
        },
        {
          "name": "D#5",
          "midi": 75,
          "time": 19.191156000000003,
          "velocity": 0.6299212598425197,
          "duration": 0.20863948333333227
        },
        {
          "name": "F5",
          "midi": 77,
          "time": 19.411744000000002,
          "velocity": 0.6299212598425197,
          "duration": 0.20863948333333227
        },
        {
          "name": "D#5",
          "midi": 75,
          "time": 19.632332,
          "velocity": 0.6299212598425197,
          "duration": 0.20863948333333227
        },
        {
          "name": "F5",
          "midi": 77,
          "time": 19.85292,
          "velocity": 0.6299212598425197,
          "duration": 0.20863948333333227
        },
        {
          "name": "D#5",
          "midi": 75,
          "time": 20.073508,
          "velocity": 0.6299212598425197,
          "duration": 0.20863948333333227
        },
        {
          "name": "F5",
          "midi": 77,
          "time": 20.294096,
          "velocity": 0.6299212598425197,
          "duration": 0.4181980833333334
        },
        {
          "name": "A#4",
          "midi": 70,
          "time": 20.735272,
          "velocity": 0.6299212598425197,
          "duration": 0.4181980833333334
        },
        {
          "name": "F5",
          "midi": 77,
          "time": 21.176447999999997,
          "velocity": 0.6299212598425197,
          "duration": 0.20863948333333227
        },
        {
          "name": "D#5",
          "midi": 75,
          "time": 21.397035999999996,
          "velocity": 0.6299212598425197,
          "duration": 0.20863948333333227
        },
        {
          "name": "F5",
          "midi": 77,
          "time": 21.617623999999996,
          "velocity": 0.6299212598425197,
          "duration": 0.4181980833333334
        },
        {
          "name": "C#5",
          "midi": 73,
          "time": 22.941151999999995,
          "velocity": 0.6299212598425197,
          "duration": 0.20863948333333227
        },
        {
          "name": "C#5",
          "midi": 73,
          "time": 23.161739999999995,
          "velocity": 0.6299212598425197,
          "duration": 0.20863948333333227
        },
        {
          "name": "A#4",
          "midi": 70,
          "time": 23.382327999999994,
          "velocity": 0.6299212598425197,
          "duration": 0.4181980833333334
        },
        {
          "name": "C#5",
          "midi": 73,
          "time": 24.705855999999994,
          "velocity": 0.6299212598425197,
          "duration": 0.20863948333333227
        },
        {
          "name": "C#5",
          "midi": 73,
          "time": 24.926443999999993,
          "velocity": 0.6299212598425197,
          "duration": 0.20863948333333227
        },
        {
          "name": "A#4",
          "midi": 70,
          "time": 25.147031999999992,
          "velocity": 0.6299212598425197,
          "duration": 0.4181980833333334
        },
        {
          "name": "A#4",
          "midi": 70,
          "time": 26.029383999999993,
          "velocity": 0.6299212598425197,
          "duration": 0.4181980833333334
        },
        {
          "name": "A#4",
          "midi": 70,
          "time": 26.470559999999992,
          "velocity": 0.6299212598425197,
          "duration": 0.4181980833333334
        },
        {
          "name": "A#4",
          "midi": 70,
          "time": 26.91173599999999,
          "velocity": 0.6299212598425197,
          "duration": 0.4181980833333334
        },
        {
          "name": "A#4",
          "midi": 70,
          "time": 27.35291199999999,
          "velocity": 0.6299212598425197,
          "duration": 0.20863948333333227
        },
        {
          "name": "A#4",
          "midi": 70,
          "time": 27.57349999999999,
          "velocity": 0.6299212598425197,
          "duration": 0.20863948333333227
        },
        {
          "name": "F5",
          "midi": 77,
          "time": 27.794087999999988,
          "velocity": 0.6299212598425197,
          "duration": 0.20863948333333227
        },
        {
          "name": "A#4",
          "midi": 70,
          "time": 28.014675999999987,
          "velocity": 0.6299212598425197,
          "duration": 0.20863948333333227
        },
        {
          "name": "F5",
          "midi": 77,
          "time": 28.235263999999987,
          "velocity": 0.6299212598425197,
          "duration": 0.20863948333333227
        },
        {
          "name": "A#4",
          "midi": 70,
          "time": 28.455851999999986,
          "velocity": 0.6299212598425197,
          "duration": 0.20863948333333227
        },
        {
          "name": "F5",
          "midi": 77,
          "time": 28.676439999999985,
          "velocity": 0.6299212598425197,
          "duration": 0.20863948333333227
        },
        {
          "name": "A#4",
          "midi": 70,
          "time": 28.897027999999985,
          "velocity": 0.6299212598425197,
          "duration": 0.20863948333333227
        },
        {
          "name": "F5",
          "midi": 77,
          "time": 29.117615999999984,
          "velocity": 0.6299212598425197,
          "duration": 0.4181980833333334
        },
        {
          "name": "F5",
          "midi": 77,
          "time": 29.558791999999983,
          "velocity": 0.6299212598425197,
          "duration": 0.20863948333333227
        },
        {
          "name": "A#4",
          "midi": 70,
          "time": 29.779379999999982,
          "velocity": 0.6299212598425197,
          "duration": 0.20863948333333227
        },
        {
          "name": "F5",
          "midi": 77,
          "time": 29.99996799999998,
          "velocity": 0.6299212598425197,
          "duration": 0.20863948333333227
        },
        {
          "name": "A#4",
          "midi": 70,
          "time": 30.22055599999998,
          "velocity": 0.6299212598425197,
          "duration": 0.20863948333333227
        },
        {
          "name": "F5",
          "midi": 77,
          "time": 30.44114399999998,
          "velocity": 0.6299212598425197,
          "duration": 0.4181980833333334
        },
        {
          "name": "F5",
          "midi": 77,
          "time": 30.88231999999998,
          "velocity": 0.6299212598425197,
          "duration": 0.20863948333333227
        },
        {
          "name": "F5",
          "midi": 77,
          "time": 31.102907999999978,
          "velocity": 0.6299212598425197,
          "duration": 0.4181980833333334
        },
        {
          "name": "F5",
          "midi": 77,
          "time": 31.76467199999998,
          "velocity": 0.6299212598425197,
          "duration": 0.20863948333333227
        },
        {
          "name": "A#4",
          "midi": 70,
          "time": 31.98525999999998,
          "velocity": 0.6299212598425197,
          "duration": 0.20863948333333227
        },
        {
          "name": "F5",
          "midi": 77,
          "time": 32.205847999999975,
          "velocity": 0.6299212598425197,
          "duration": 0.20863948333333582
        },
        {
          "name": "A#4",
          "midi": 70,
          "time": 32.426435999999974,
          "velocity": 0.6299212598425197,
          "duration": 0.20863948333333582
        },
        {
          "name": "F5",
          "midi": 77,
          "time": 32.64702399999997,
          "velocity": 0.6299212598425197,
          "duration": 0.41819808333332986
        },
        {
          "name": "F5",
          "midi": 77,
          "time": 33.08819999999997,
          "velocity": 0.6299212598425197,
          "duration": 0.20863948333333582
        },
        {
          "name": "A#4",
          "midi": 70,
          "time": 33.30878799999997,
          "velocity": 0.6299212598425197,
          "duration": 0.20863948333333582
        },
        {
          "name": "F5",
          "midi": 77,
          "time": 33.52937599999997,
          "velocity": 0.6299212598425197,
          "duration": 0.20863948333333582
        },
        {
          "name": "F5",
          "midi": 77,
          "time": 33.74996399999997,
          "velocity": 0.6299212598425197,
          "duration": 0.20863948333333582
        },
        {
          "name": "F5",
          "midi": 77,
          "time": 33.97055199999997,
          "velocity": 0.6299212598425197,
          "duration": 0.41819808333332986
        },
        {
          "name": "F5",
          "midi": 77,
          "time": 34.41172799999997,
          "velocity": 0.6299212598425197,
          "duration": 0.20863948333333582
        },
        {
          "name": "F5",
          "midi": 77,
          "time": 34.63231599999997,
          "velocity": 0.6299212598425197,
          "duration": 0.41819808333332986
        },
        {
          "name": "F5",
          "midi": 77,
          "time": 35.294079999999965,
          "velocity": 0.6299212598425197,
          "duration": 0.20863948333333582
        },
        {
          "name": "A#4",
          "midi": 70,
          "time": 35.514667999999965,
          "velocity": 0.6299212598425197,
          "duration": 0.20863948333333582
        },
        {
          "name": "F5",
          "midi": 77,
          "time": 35.735255999999964,
          "velocity": 0.6299212598425197,
          "duration": 0.20863948333333582
        },
        {
          "name": "A#4",
          "midi": 70,
          "time": 35.95584399999996,
          "velocity": 0.6299212598425197,
          "duration": 0.20863948333333582
        },
        {
          "name": "F5",
          "midi": 77,
          "time": 36.17643199999996,
          "velocity": 0.6299212598425197,
          "duration": 0.41819808333332986
        },
        {
          "name": "F5",
          "midi": 77,
          "time": 36.61760799999996,
          "velocity": 0.6299212598425197,
          "duration": 0.20863948333333582
        },
        {
          "name": "A#4",
          "midi": 70,
          "time": 36.83819599999996,
          "velocity": 0.6299212598425197,
          "duration": 0.20863948333333582
        },
        {
          "name": "F5",
          "midi": 77,
          "time": 37.05878399999996,
          "velocity": 0.6299212598425197,
          "duration": 0.20863948333333582
        },
        {
          "name": "A#4",
          "midi": 70,
          "time": 37.27937199999996,
          "velocity": 0.6299212598425197,
          "duration": 0.20863948333333582
        },
        {
          "name": "F5",
          "midi": 77,
          "time": 37.49995999999996,
          "velocity": 0.6299212598425197,
          "duration": 0.41819808333332986
        },
        {
          "name": "F5",
          "midi": 77,
          "time": 37.94113599999996,
          "velocity": 0.6299212598425197,
          "duration": 0.20863948333333582
        },
        {
          "name": "F5",
          "midi": 77,
          "time": 38.16172399999996,
          "velocity": 0.6299212598425197,
          "duration": 0.20863948333333582
        },
        {
          "name": "A#4",
          "midi": 70,
          "time": 38.382311999999956,
          "velocity": 0.6299212598425197,
          "duration": 0.20863948333333582
        },
        {
          "name": "D#5",
          "midi": 75,
          "time": 38.602899999999956,
          "velocity": 0.6299212598425197,
          "duration": 0.20863948333333582
        },
        {
          "name": "F5",
          "midi": 77,
          "time": 38.823487999999955,
          "velocity": 0.6299212598425197,
          "duration": 0.20863948333333582
        },
        {
          "name": "A#4",
          "midi": 70,
          "time": 39.044075999999954,
          "velocity": 0.6299212598425197,
          "duration": 0.20863948333333582
        },
        {
          "name": "F5",
          "midi": 77,
          "time": 39.264663999999954,
          "velocity": 0.6299212598425197,
          "duration": 0.41819808333332986
        },
        {
          "name": "F5",
          "midi": 77,
          "time": 39.70583999999995,
          "velocity": 0.6299212598425197,
          "duration": 0.20863948333333582
        },
        {
          "name": "F5",
          "midi": 77,
          "time": 39.92642799999995,
          "velocity": 0.6299212598425197,
          "duration": 0.20863948333333582
        },
        {
          "name": "A#4",
          "midi": 70,
          "time": 40.14701599999995,
          "velocity": 0.6299212598425197,
          "duration": 0.20863948333333582
        },
        {
          "name": "D#5",
          "midi": 75,
          "time": 40.36760399999995,
          "velocity": 0.6299212598425197,
          "duration": 0.20863948333333582
        },
        {
          "name": "F5",
          "midi": 77,
          "time": 40.58819199999995,
          "velocity": 0.6299212598425197,
          "duration": 0.20863948333333582
        },
        {
          "name": "F5",
          "midi": 77,
          "time": 40.80877999999995,
          "velocity": 0.6299212598425197,
          "duration": 0.41819808333332986
        },
        {
          "name": "D#5",
          "midi": 75,
          "time": 41.24995599999995,
          "velocity": 0.6299212598425197,
          "duration": 0.20863948333333582
        },
        {
          "name": "F5",
          "midi": 77,
          "time": 41.47054399999995,
          "velocity": 0.6299212598425197,
          "duration": 0.20863948333333582
        },
        {
          "name": "D#5",
          "midi": 75,
          "time": 41.691131999999946,
          "velocity": 0.6299212598425197,
          "duration": 0.20863948333333582
        },
        {
          "name": "F5",
          "midi": 77,
          "time": 41.911719999999946,
          "velocity": 0.6299212598425197,
          "duration": 0.20863948333333582
        },
        {
          "name": "D#5",
          "midi": 75,
          "time": 42.132307999999945,
          "velocity": 0.6299212598425197,
          "duration": 0.20863948333333582
        },
        {
          "name": "F5",
          "midi": 77,
          "time": 42.352895999999944,
          "velocity": 0.6299212598425197,
          "duration": 0.20863948333333582
        },
        {
          "name": "D#5",
          "midi": 75,
          "time": 42.573483999999944,
          "velocity": 0.6299212598425197,
          "duration": 0.20863948333333582
        },
        {
          "name": "F5",
          "midi": 77,
          "time": 42.79407199999994,
          "velocity": 0.6299212598425197,
          "duration": 0.20863948333333582
        },
        {
          "name": "D#5",
          "midi": 75,
          "time": 43.01465999999994,
          "velocity": 0.6299212598425197,
          "duration": 0.20863948333333582
        },
        {
          "name": "F5",
          "midi": 77,
          "time": 43.23524799999994,
          "velocity": 0.6299212598425197,
          "duration": 0.41819808333332986
        },
        {
          "name": "A#4",
          "midi": 70,
          "time": 43.67642399999994,
          "velocity": 0.6299212598425197,
          "duration": 0.41819808333332986
        },
        {
          "name": "F5",
          "midi": 77,
          "time": 44.11759999999994,
          "velocity": 0.6299212598425197,
          "duration": 0.20863948333333582
        },
        {
          "name": "D#5",
          "midi": 75,
          "time": 44.33818799999994,
          "velocity": 0.6299212598425197,
          "duration": 0.20863948333333582
        },
        {
          "name": "F5",
          "midi": 77,
          "time": 44.55877599999994,
          "velocity": 0.6299212598425197,
          "duration": 0.20863948333333582
        },
        {
          "name": "D#5",
          "midi": 75,
          "time": 44.77936399999994,
          "velocity": 0.6299212598425197,
          "duration": 0.20863948333333582
        },
        {
          "name": "F5",
          "midi": 77,
          "time": 44.999951999999936,
          "velocity": 0.6299212598425197,
          "duration": 0.41819808333332986
        },
        {
          "name": "A#4",
          "midi": 70,
          "time": 45.441127999999935,
          "velocity": 0.6299212598425197,
          "duration": 0.41819808333332986
        },
        {
          "name": "F5",
          "midi": 77,
          "time": 45.882303999999934,
          "velocity": 0.6299212598425197,
          "duration": 0.20863948333333582
        },
        {
          "name": "D#5",
          "midi": 75,
          "time": 46.10289199999993,
          "velocity": 0.6299212598425197,
          "duration": 0.20863948333333582
        },
        {
          "name": "F5",
          "midi": 77,
          "time": 46.32347999999993,
          "velocity": 0.6299212598425197,
          "duration": 0.20863948333333582
        },
        {
          "name": "D#5",
          "midi": 75,
          "time": 46.54406799999993,
          "velocity": 0.6299212598425197,
          "duration": 0.20863948333333582
        },
        {
          "name": "F5",
          "midi": 77,
          "time": 46.76465599999993,
          "velocity": 0.6299212598425197,
          "duration": 0.20863948333333582
        },
        {
          "name": "D#5",
          "midi": 75,
          "time": 46.98524399999993,
          "velocity": 0.6299212598425197,
          "duration": 0.20863948333333582
        },
        {
          "name": "F5",
          "midi": 77,
          "time": 47.20583199999993,
          "velocity": 0.6299212598425197,
          "duration": 0.20863948333333582
        },
        {
          "name": "D#5",
          "midi": 75,
          "time": 47.42641999999993,
          "velocity": 0.6299212598425197,
          "duration": 0.20863948333333582
        },
        {
          "name": "F5",
          "midi": 77,
          "time": 47.64700799999993,
          "velocity": 0.6299212598425197,
          "duration": 0.20863948333333582
        },
        {
          "name": "D#5",
          "midi": 75,
          "time": 47.86759599999993,
          "velocity": 0.6299212598425197,
          "duration": 0.20863948333333582
        },
        {
          "name": "F5",
          "midi": 77,
          "time": 48.08818399999993,
          "velocity": 0.6299212598425197,
          "duration": 0.20863948333333582
        },
        {
          "name": "D#5",
          "midi": 75,
          "time": 48.30877199999993,
          "velocity": 0.6299212598425197,
          "duration": 0.20863948333333582
        },
        {
          "name": "F5",
          "midi": 77,
          "time": 48.529359999999926,
          "velocity": 0.6299212598425197,
          "duration": 0.41819808333332986
        },
        {
          "name": "A#4",
          "midi": 70,
          "time": 48.970535999999925,
          "velocity": 0.6299212598425197,
          "duration": 0.41819808333332986
        },
        {
          "name": "A#4",
          "midi": 70,
          "time": 49.41171199999992,
          "velocity": 0.6299212598425197,
          "duration": 1.2564324833333345
        },
        {
          "name": "A#4",
          "midi": 70,
          "time": 50.735239999999926,
          "velocity": 0.6299212598425197,
          "duration": 0.20863948333333582
        },
        {
          "name": "G#4",
          "midi": 68,
          "time": 50.955827999999926,
          "velocity": 0.6299212598425197,
          "duration": 0.20863948333333582
        },
        {
          "name": "F4",
          "midi": 65,
          "time": 51.176415999999925,
          "velocity": 0.6299212598425197,
          "duration": 0.8373152833333322
        },
        {
          "name": "F4",
          "midi": 65,
          "time": 52.27935599999992,
          "velocity": 0.6299212598425197,
          "duration": 0.20863948333333582
        },
        {
          "name": "G#4",
          "midi": 68,
          "time": 52.49994399999992,
          "velocity": 0.6299212598425197,
          "duration": 0.20863948333333582
        },
        {
          "name": "F4",
          "midi": 65,
          "time": 52.72053199999992,
          "velocity": 0.6299212598425197,
          "duration": 0.20863948333333582
        },
        {
          "name": "D#4",
          "midi": 63,
          "time": 52.94111999999992,
          "velocity": 0.6299212598425197,
          "duration": 0.8373152833333322
        },
        {
          "name": "F4",
          "midi": 65,
          "time": 54.485235999999915,
          "velocity": 0.6299212598425197,
          "duration": 0.20863948333333582
        },
        {
          "name": "C#4",
          "midi": 61,
          "time": 54.705823999999915,
          "velocity": 0.6299212598425197,
          "duration": 0.20863948333333582
        },
        {
          "name": "C4",
          "midi": 60,
          "time": 54.926411999999914,
          "velocity": 0.6299212598425197,
          "duration": 0.20863948333333582
        },
        {
          "name": "A#3",
          "midi": 58,
          "time": 55.14699999999991,
          "velocity": 0.6299212598425197,
          "duration": 0.8373152833333322
        },
        {
          "name": "A#6",
          "midi": 94,
          "time": 56.47052799999991,
          "velocity": 0.6299212598425197,
          "duration": 0.8373152833333322
        },
        {
          "name": "F6",
          "midi": 89,
          "time": 57.573467999999906,
          "velocity": 0.6299212598425197,
          "duration": 0.20863948333333582
        },
        {
          "name": "F6",
          "midi": 89,
          "time": 57.794055999999905,
          "velocity": 0.6299212598425197,
          "duration": 0.20863948333333582
        },
        {
          "name": "F6",
          "midi": 89,
          "time": 58.014643999999905,
          "velocity": 0.6299212598425197,
          "duration": 0.20863948333333582
        },
        {
          "name": "F6",
          "midi": 89,
          "time": 58.235231999999904,
          "velocity": 0.6299212598425197,
          "duration": 0.41819808333332986
        },
        {
          "name": "G#6",
          "midi": 92,
          "time": 58.6764079999999,
          "velocity": 0.6299212598425197,
          "duration": 0.627756683333331
        },
        {
          "name": "F6",
          "midi": 89,
          "time": 59.3381719999999,
          "velocity": 0.6299212598425197,
          "duration": 0.20863948333333582
        },
        {
          "name": "F6",
          "midi": 89,
          "time": 59.5587599999999,
          "velocity": 0.6299212598425197,
          "duration": 0.20863948333333582
        },
        {
          "name": "F6",
          "midi": 89,
          "time": 59.7793479999999,
          "velocity": 0.6299212598425197,
          "duration": 0.20863948333333582
        },
        {
          "name": "F6",
          "midi": 89,
          "time": 59.9999359999999,
          "velocity": 0.6299212598425197,
          "duration": 0.41819808333332986
        },
        {
          "name": "G#6",
          "midi": 92,
          "time": 60.4411119999999,
          "velocity": 0.6299212598425197,
          "duration": 0.627756683333331
        },
        {
          "name": "F6",
          "midi": 89,
          "time": 61.102875999999895,
          "velocity": 0.6299212598425197,
          "duration": 0.20863948333333582
        },
        {
          "name": "F6",
          "midi": 89,
          "time": 61.323463999999895,
          "velocity": 0.6299212598425197,
          "duration": 0.20863948333333582
        },
        {
          "name": "F6",
          "midi": 89,
          "time": 61.544051999999894,
          "velocity": 0.6299212598425197,
          "duration": 0.20863948333333582
        },
        {
          "name": "F6",
          "midi": 89,
          "time": 61.76463999999989,
          "velocity": 0.6299212598425197,
          "duration": 0.41819808333332986
        },
        {
          "name": "G#6",
          "midi": 92,
          "time": 62.20581599999989,
          "velocity": 0.6299212598425197,
          "duration": 0.8373152833333322
        },
        {
          "name": "A#6",
          "midi": 94,
          "time": 63.52934399999989,
          "velocity": 0.6299212598425197,
          "duration": 0.8373152833333322
        },
        {
          "name": "F6",
          "midi": 89,
          "time": 64.63228399999988,
          "velocity": 0.6299212598425197,
          "duration": 0.2086394833333287
        },
        {
          "name": "F6",
          "midi": 89,
          "time": 64.85287199999988,
          "velocity": 0.6299212598425197,
          "duration": 0.2086394833333287
        },
        {
          "name": "F6",
          "midi": 89,
          "time": 65.07345999999987,
          "velocity": 0.6299212598425197,
          "duration": 0.2086394833333287
        },
        {
          "name": "F6",
          "midi": 89,
          "time": 65.29404799999986,
          "velocity": 0.6299212598425197,
          "duration": 0.41819808333333697
        },
        {
          "name": "G#6",
          "midi": 92,
          "time": 65.73522399999986,
          "velocity": 0.6299212598425197,
          "duration": 0.627756683333331
        },
        {
          "name": "F6",
          "midi": 89,
          "time": 66.39698799999985,
          "velocity": 0.6299212598425197,
          "duration": 0.2086394833333287
        },
        {
          "name": "F6",
          "midi": 89,
          "time": 66.61757599999984,
          "velocity": 0.6299212598425197,
          "duration": 0.2086394833333287
        },
        {
          "name": "F6",
          "midi": 89,
          "time": 66.83816399999984,
          "velocity": 0.6299212598425197,
          "duration": 0.2086394833333287
        },
        {
          "name": "F6",
          "midi": 89,
          "time": 67.05875199999983,
          "velocity": 0.6299212598425197,
          "duration": 0.41819808333333697
        },
        {
          "name": "G#6",
          "midi": 92,
          "time": 67.49992799999983,
          "velocity": 0.6299212598425197,
          "duration": 0.8373152833333393
        },
        {
          "name": "F6",
          "midi": 89,
          "time": 68.38227999999984,
          "velocity": 0.6299212598425197,
          "duration": 0.2086394833333287
        },
        {
          "name": "F6",
          "midi": 89,
          "time": 68.60286799999983,
          "velocity": 0.6299212598425197,
          "duration": 0.2086394833333287
        },
        {
          "name": "F6",
          "midi": 89,
          "time": 68.82345599999982,
          "velocity": 0.6299212598425197,
          "duration": 0.41819808333333697
        },
        {
          "name": "G#6",
          "midi": 92,
          "time": 69.26463199999982,
          "velocity": 0.6299212598425197,
          "duration": 0.8373152833333393
        },
        {
          "name": "F4",
          "midi": 65,
          "time": 70.58815999999983,
          "velocity": 0.6299212598425197,
          "duration": 0.2086394833333287
        },
        {
          "name": "F5",
          "midi": 77,
          "time": 70.58815999999983,
          "velocity": 0.6299212598425197,
          "duration": 0.2086394833333287
        },
        {
          "name": "D#4",
          "midi": 63,
          "time": 70.80874799999982,
          "velocity": 0.6299212598425197,
          "duration": 0.2086394833333287
        },
        {
          "name": "D#5",
          "midi": 75,
          "time": 70.80874799999982,
          "velocity": 0.6299212598425197,
          "duration": 0.2086394833333287
        },
        {
          "name": "F4",
          "midi": 65,
          "time": 71.02933599999982,
          "velocity": 0.6299212598425197,
          "duration": 0.8373152833333393
        },
        {
          "name": "F5",
          "midi": 77,
          "time": 71.02933599999982,
          "velocity": 0.6299212598425197,
          "duration": 0.8373152833333393
        },
        {
          "name": "F4",
          "midi": 65,
          "time": 71.91168799999983,
          "velocity": 0.6299212598425197,
          "duration": 0.2086394833333287
        },
        {
          "name": "F5",
          "midi": 77,
          "time": 71.91168799999983,
          "velocity": 0.6299212598425197,
          "duration": 0.2086394833333287
        },
        {
          "name": "D#4",
          "midi": 63,
          "time": 72.13227599999982,
          "velocity": 0.6299212598425197,
          "duration": 0.2086394833333287
        },
        {
          "name": "D#5",
          "midi": 75,
          "time": 72.13227599999982,
          "velocity": 0.6299212598425197,
          "duration": 0.2086394833333287
        },
        {
          "name": "F4",
          "midi": 65,
          "time": 72.35286399999981,
          "velocity": 0.6299212598425197,
          "duration": 0.2086394833333287
        },
        {
          "name": "F5",
          "midi": 77,
          "time": 72.35286399999981,
          "velocity": 0.6299212598425197,
          "duration": 0.2086394833333287
        },
        {
          "name": "D#4",
          "midi": 63,
          "time": 72.5734519999998,
          "velocity": 0.6299212598425197,
          "duration": 0.2086394833333287
        },
        {
          "name": "D#5",
          "midi": 75,
          "time": 72.5734519999998,
          "velocity": 0.6299212598425197,
          "duration": 0.2086394833333287
        },
        {
          "name": "F4",
          "midi": 65,
          "time": 72.7940399999998,
          "velocity": 0.6299212598425197,
          "duration": 0.2086394833333287
        },
        {
          "name": "F5",
          "midi": 77,
          "time": 72.7940399999998,
          "velocity": 0.6299212598425197,
          "duration": 0.2086394833333287
        },
        {
          "name": "D#4",
          "midi": 63,
          "time": 73.01462799999979,
          "velocity": 0.6299212598425197,
          "duration": 0.2086394833333287
        },
        {
          "name": "D#5",
          "midi": 75,
          "time": 73.01462799999979,
          "velocity": 0.6299212598425197,
          "duration": 0.2086394833333287
        },
        {
          "name": "F4",
          "midi": 65,
          "time": 73.23521599999978,
          "velocity": 0.6299212598425197,
          "duration": 0.41819808333333697
        },
        {
          "name": "F5",
          "midi": 77,
          "time": 73.23521599999978,
          "velocity": 0.6299212598425197,
          "duration": 0.41819808333333697
        },
        {
          "name": "A#3",
          "midi": 58,
          "time": 73.67639199999978,
          "velocity": 0.6299212598425197,
          "duration": 0.41819808333333697
        },
        {
          "name": "A#4",
          "midi": 70,
          "time": 73.67639199999978,
          "velocity": 0.6299212598425197,
          "duration": 0.41819808333333697
        },
        {
          "name": "F4",
          "midi": 65,
          "time": 74.11756799999978,
          "velocity": 0.6299212598425197,
          "duration": 0.2086394833333287
        },
        {
          "name": "F5",
          "midi": 77,
          "time": 74.11756799999978,
          "velocity": 0.6299212598425197,
          "duration": 0.2086394833333287
        },
        {
          "name": "D#4",
          "midi": 63,
          "time": 74.33815599999977,
          "velocity": 0.6299212598425197,
          "duration": 0.2086394833333287
        },
        {
          "name": "D#5",
          "midi": 75,
          "time": 74.33815599999977,
          "velocity": 0.6299212598425197,
          "duration": 0.2086394833333287
        },
        {
          "name": "F4",
          "midi": 65,
          "time": 74.55874399999976,
          "velocity": 0.6299212598425197,
          "duration": 0.8373152833333393
        },
        {
          "name": "F5",
          "midi": 77,
          "time": 74.55874399999976,
          "velocity": 0.6299212598425197,
          "duration": 0.8373152833333393
        },
        {
          "name": "F4",
          "midi": 65,
          "time": 75.44109599999977,
          "velocity": 0.6299212598425197,
          "duration": 0.2086394833333287
        },
        {
          "name": "F5",
          "midi": 77,
          "time": 75.44109599999977,
          "velocity": 0.6299212598425197,
          "duration": 0.2086394833333287
        },
        {
          "name": "D#4",
          "midi": 63,
          "time": 75.66168399999977,
          "velocity": 0.6299212598425197,
          "duration": 0.2086394833333287
        },
        {
          "name": "D#5",
          "midi": 75,
          "time": 75.66168399999977,
          "velocity": 0.6299212598425197,
          "duration": 0.2086394833333287
        },
        {
          "name": "F4",
          "midi": 65,
          "time": 75.88227199999976,
          "velocity": 0.6299212598425197,
          "duration": 0.2086394833333287
        },
        {
          "name": "F5",
          "midi": 77,
          "time": 75.88227199999976,
          "velocity": 0.6299212598425197,
          "duration": 0.2086394833333287
        },
        {
          "name": "D#4",
          "midi": 63,
          "time": 76.10285999999975,
          "velocity": 0.6299212598425197,
          "duration": 0.2086394833333287
        },
        {
          "name": "D#5",
          "midi": 75,
          "time": 76.10285999999975,
          "velocity": 0.6299212598425197,
          "duration": 0.2086394833333287
        },
        {
          "name": "F4",
          "midi": 65,
          "time": 76.32344799999974,
          "velocity": 0.6299212598425197,
          "duration": 0.2086394833333287
        },
        {
          "name": "F5",
          "midi": 77,
          "time": 76.32344799999974,
          "velocity": 0.6299212598425197,
          "duration": 0.2086394833333287
        },
        {
          "name": "D#4",
          "midi": 63,
          "time": 76.54403599999974,
          "velocity": 0.6299212598425197,
          "duration": 0.2086394833333287
        },
        {
          "name": "D#5",
          "midi": 75,
          "time": 76.54403599999974,
          "velocity": 0.6299212598425197,
          "duration": 0.2086394833333287
        },
        {
          "name": "F4",
          "midi": 65,
          "time": 76.76462399999973,
          "velocity": 0.6299212598425197,
          "duration": 0.41819808333333697
        },
        {
          "name": "F5",
          "midi": 77,
          "time": 76.76462399999973,
          "velocity": 0.6299212598425197,
          "duration": 0.41819808333333697
        },
        {
          "name": "A#3",
          "midi": 58,
          "time": 77.20579999999973,
          "velocity": 0.6299212598425197,
          "duration": 0.41819808333333697
        },
        {
          "name": "A#4",
          "midi": 70,
          "time": 77.20579999999973,
          "velocity": 0.6299212598425197,
          "duration": 0.41819808333333697
        },
        {
          "name": "F4",
          "midi": 65,
          "time": 77.64697599999973,
          "velocity": 0.6299212598425197,
          "duration": 0.2086394833333287
        },
        {
          "name": "F5",
          "midi": 77,
          "time": 77.64697599999973,
          "velocity": 0.6299212598425197,
          "duration": 0.2086394833333287
        },
        {
          "name": "D#4",
          "midi": 63,
          "time": 77.86756399999972,
          "velocity": 0.6299212598425197,
          "duration": 0.2086394833333287
        },
        {
          "name": "D#5",
          "midi": 75,
          "time": 77.86756399999972,
          "velocity": 0.6299212598425197,
          "duration": 0.2086394833333287
        },
        {
          "name": "F4",
          "midi": 65,
          "time": 78.08815199999971,
          "velocity": 0.6299212598425197,
          "duration": 0.8373152833333393
        },
        {
          "name": "F5",
          "midi": 77,
          "time": 78.08815199999971,
          "velocity": 0.6299212598425197,
          "duration": 0.8373152833333393
        },
        {
          "name": "F4",
          "midi": 65,
          "time": 78.97050399999972,
          "velocity": 0.6299212598425197,
          "duration": 0.2086394833333287
        },
        {
          "name": "F5",
          "midi": 77,
          "time": 78.97050399999972,
          "velocity": 0.6299212598425197,
          "duration": 0.2086394833333287
        },
        {
          "name": "D#4",
          "midi": 63,
          "time": 79.19109199999971,
          "velocity": 0.6299212598425197,
          "duration": 0.2086394833333287
        },
        {
          "name": "D#5",
          "midi": 75,
          "time": 79.19109199999971,
          "velocity": 0.6299212598425197,
          "duration": 0.2086394833333287
        },
        {
          "name": "F4",
          "midi": 65,
          "time": 79.4116799999997,
          "velocity": 0.6299212598425197,
          "duration": 0.2086394833333287
        },
        {
          "name": "F5",
          "midi": 77,
          "time": 79.4116799999997,
          "velocity": 0.6299212598425197,
          "duration": 0.2086394833333287
        },
        {
          "name": "F4",
          "midi": 65,
          "time": 79.6322679999997,
          "velocity": 0.6299212598425197,
          "duration": 0.2086394833333287
        },
        {
          "name": "F5",
          "midi": 77,
          "time": 79.6322679999997,
          "velocity": 0.6299212598425197,
          "duration": 0.2086394833333287
        },
        {
          "name": "F4",
          "midi": 65,
          "time": 79.85285599999969,
          "velocity": 0.6299212598425197,
          "duration": 0.2086394833333287
        },
        {
          "name": "F5",
          "midi": 77,
          "time": 79.85285599999969,
          "velocity": 0.6299212598425197,
          "duration": 0.2086394833333287
        },
        {
          "name": "F4",
          "midi": 65,
          "time": 80.07344399999968,
          "velocity": 0.6299212598425197,
          "duration": 0.2086394833333287
        },
        {
          "name": "F5",
          "midi": 77,
          "time": 80.07344399999968,
          "velocity": 0.6299212598425197,
          "duration": 0.2086394833333287
        },
        {
          "name": "C#5",
          "midi": 73,
          "time": 80.29403199999967,
          "velocity": 0.6299212598425197,
          "duration": 0.41819808333333697
        },
        {
          "name": "C#6",
          "midi": 85,
          "time": 80.29403199999967,
          "velocity": 0.6299212598425197,
          "duration": 0.41819808333333697
        },
        {
          "name": "C#5",
          "midi": 73,
          "time": 80.73520799999967,
          "velocity": 0.6299212598425197,
          "duration": 0.41819808333333697
        },
        {
          "name": "C#6",
          "midi": 85,
          "time": 80.73520799999967,
          "velocity": 0.6299212598425197,
          "duration": 0.41819808333333697
        },
        {
          "name": "F4",
          "midi": 65,
          "time": 81.17638399999967,
          "velocity": 0.6299212598425197,
          "duration": 0.2086394833333287
        },
        {
          "name": "F5",
          "midi": 77,
          "time": 81.17638399999967,
          "velocity": 0.6299212598425197,
          "duration": 0.2086394833333287
        },
        {
          "name": "F4",
          "midi": 65,
          "time": 81.39697199999966,
          "velocity": 0.6299212598425197,
          "duration": 0.2086394833333287
        },
        {
          "name": "F5",
          "midi": 77,
          "time": 81.39697199999966,
          "velocity": 0.6299212598425197,
          "duration": 0.2086394833333287
        },
        {
          "name": "F4",
          "midi": 65,
          "time": 81.61755999999966,
          "velocity": 0.6299212598425197,
          "duration": 0.2086394833333287
        },
        {
          "name": "F5",
          "midi": 77,
          "time": 81.61755999999966,
          "velocity": 0.6299212598425197,
          "duration": 0.2086394833333287
        },
        {
          "name": "F4",
          "midi": 65,
          "time": 81.83814799999965,
          "velocity": 0.6299212598425197,
          "duration": 0.2086394833333287
        },
        {
          "name": "F5",
          "midi": 77,
          "time": 81.83814799999965,
          "velocity": 0.6299212598425197,
          "duration": 0.2086394833333287
        },
        {
          "name": "C#5",
          "midi": 73,
          "time": 82.05873599999964,
          "velocity": 0.6299212598425197,
          "duration": 0.41819808333333697
        },
        {
          "name": "C#6",
          "midi": 85,
          "time": 82.05873599999964,
          "velocity": 0.6299212598425197,
          "duration": 0.41819808333333697
        },
        {
          "name": "C#5",
          "midi": 73,
          "time": 82.49991199999964,
          "velocity": 0.6299212598425197,
          "duration": 0.41819808333333697
        },
        {
          "name": "C#6",
          "midi": 85,
          "time": 82.49991199999964,
          "velocity": 0.6299212598425197,
          "duration": 0.41819808333333697
        },
        {
          "name": "F4",
          "midi": 65,
          "time": 82.94108799999964,
          "velocity": 0.6299212598425197,
          "duration": 0.41819808333333697
        },
        {
          "name": "A#4",
          "midi": 70,
          "time": 82.94108799999964,
          "velocity": 0.6299212598425197,
          "duration": 0.41819808333333697
        },
        {
          "name": "F4",
          "midi": 65,
          "time": 83.38226399999964,
          "velocity": 0.6299212598425197,
          "duration": 0.41819808333333697
        },
        {
          "name": "A#4",
          "midi": 70,
          "time": 83.38226399999964,
          "velocity": 0.6299212598425197,
          "duration": 0.41819808333333697
        },
        {
          "name": "F4",
          "midi": 65,
          "time": 83.82343999999964,
          "velocity": 0.6299212598425197,
          "duration": 0.8373152833333393
        },
        {
          "name": "A#4",
          "midi": 70,
          "time": 83.82343999999964,
          "velocity": 0.6299212598425197,
          "duration": 0.8373152833333393
        },
        {
          "name": "A#4",
          "midi": 70,
          "time": 84.70579199999965,
          "velocity": 0.6299212598425197,
          "duration": 0.2086394833333287
        },
        {
          "name": "A#4",
          "midi": 70,
          "time": 84.92637999999964,
          "velocity": 0.6299212598425197,
          "duration": 0.2086394833333287
        },
        {
          "name": "A#4",
          "midi": 70,
          "time": 85.14696799999963,
          "velocity": 0.6299212598425197,
          "duration": 0.2086394833333287
        },
        {
          "name": "A#4",
          "midi": 70,
          "time": 85.36755599999962,
          "velocity": 0.6299212598425197,
          "duration": 0.2086394833333287
        },
        {
          "name": "A#4",
          "midi": 70,
          "time": 85.58814399999962,
          "velocity": 0.6299212598425197,
          "duration": 0.2086394833333287
        },
        {
          "name": "A#4",
          "midi": 70,
          "time": 85.80873199999961,
          "velocity": 0.6299212598425197,
          "duration": 0.2086394833333287
        },
        {
          "name": "F5",
          "midi": 77,
          "time": 86.0293199999996,
          "velocity": 0.6299212598425197,
          "duration": 0.41819808333333697
        },
        {
          "name": "A#4",
          "midi": 70,
          "time": 86.9116719999996,
          "velocity": 0.6299212598425197,
          "duration": 0.2086394833333287
        },
        {
          "name": "A#4",
          "midi": 70,
          "time": 87.13225999999959,
          "velocity": 0.6299212598425197,
          "duration": 0.2086394833333287
        },
        {
          "name": "A#4",
          "midi": 70,
          "time": 87.35284799999958,
          "velocity": 0.6299212598425197,
          "duration": 0.2086394833333287
        },
        {
          "name": "A#4",
          "midi": 70,
          "time": 87.57343599999957,
          "velocity": 0.6299212598425197,
          "duration": 0.2086394833333287
        },
        {
          "name": "F5",
          "midi": 77,
          "time": 87.79402399999957,
          "velocity": 0.6299212598425197,
          "duration": 0.41819808333333697
        },
        {
          "name": "A#4",
          "midi": 70,
          "time": 88.23519999999957,
          "velocity": 0.6299212598425197,
          "duration": 0.2086394833333287
        },
        {
          "name": "A#4",
          "midi": 70,
          "time": 88.45578799999956,
          "velocity": 0.6299212598425197,
          "duration": 0.2086394833333287
        },
        {
          "name": "A#4",
          "midi": 70,
          "time": 88.67637599999955,
          "velocity": 0.6299212598425197,
          "duration": 0.2086394833333287
        },
        {
          "name": "A#4",
          "midi": 70,
          "time": 88.89696399999954,
          "velocity": 0.6299212598425197,
          "duration": 0.2086394833333287
        },
        {
          "name": "A#4",
          "midi": 70,
          "time": 89.11755199999953,
          "velocity": 0.6299212598425197,
          "duration": 0.2086394833333287
        },
        {
          "name": "A#4",
          "midi": 70,
          "time": 89.33813999999953,
          "velocity": 0.6299212598425197,
          "duration": 0.2086394833333287
        },
        {
          "name": "A#4",
          "midi": 70,
          "time": 89.55872799999952,
          "velocity": 0.6299212598425197,
          "duration": 0.2086394833333287
        },
        {
          "name": "A#4",
          "midi": 70,
          "time": 89.77931599999951,
          "velocity": 0.6299212598425197,
          "duration": 0.2086394833333287
        },
        {
          "name": "A#4",
          "midi": 70,
          "time": 89.9999039999995,
          "velocity": 0.6299212598425197,
          "duration": 0.8373152833333393
        },
        {
          "name": "A#4",
          "midi": 70,
          "time": 91.76460799999951,
          "velocity": 0.6299212598425197,
          "duration": 0.2086394833333287
        },
        {
          "name": "A#4",
          "midi": 70,
          "time": 91.9851959999995,
          "velocity": 0.6299212598425197,
          "duration": 0.2086394833333287
        },
        {
          "name": "A#4",
          "midi": 70,
          "time": 92.2057839999995,
          "velocity": 0.6299212598425197,
          "duration": 0.2086394833333287
        },
        {
          "name": "A#4",
          "midi": 70,
          "time": 92.42637199999949,
          "velocity": 0.6299212598425197,
          "duration": 0.2086394833333287
        },
        {
          "name": "A#4",
          "midi": 70,
          "time": 92.64695999999948,
          "velocity": 0.6299212598425197,
          "duration": 0.2086394833333287
        },
        {
          "name": "A#4",
          "midi": 70,
          "time": 92.86754799999947,
          "velocity": 0.6299212598425197,
          "duration": 0.2086394833333287
        },
        {
          "name": "F5",
          "midi": 77,
          "time": 93.08813599999947,
          "velocity": 0.6299212598425197,
          "duration": 0.41819808333333697
        },
        {
          "name": "A#4",
          "midi": 70,
          "time": 93.97048799999946,
          "velocity": 0.6299212598425197,
          "duration": 0.2086394833333287
        },
        {
          "name": "A#4",
          "midi": 70,
          "time": 94.19107599999946,
          "velocity": 0.6299212598425197,
          "duration": 0.2086394833333287
        },
        {
          "name": "A#4",
          "midi": 70,
          "time": 94.41166399999945,
          "velocity": 0.6299212598425197,
          "duration": 0.2086394833333287
        },
        {
          "name": "A#4",
          "midi": 70,
          "time": 94.63225199999944,
          "velocity": 0.6299212598425197,
          "duration": 0.2086394833333287
        },
        {
          "name": "F5",
          "midi": 77,
          "time": 94.85283999999943,
          "velocity": 0.6299212598425197,
          "duration": 0.41819808333333697
        },
        {
          "name": "A#4",
          "midi": 70,
          "time": 95.29401599999943,
          "velocity": 0.6299212598425197,
          "duration": 0.2086394833333287
        },
        {
          "name": "A#4",
          "midi": 70,
          "time": 95.51460399999942,
          "velocity": 0.6299212598425197,
          "duration": 0.2086394833333287
        },
        {
          "name": "A#4",
          "midi": 70,
          "time": 95.73519199999942,
          "velocity": 0.6299212598425197,
          "duration": 0.2086394833333287
        },
        {
          "name": "A#4",
          "midi": 70,
          "time": 95.95577999999941,
          "velocity": 0.6299212598425197,
          "duration": 0.2086394833333287
        },
        {
          "name": "A#4",
          "midi": 70,
          "time": 96.1763679999994,
          "velocity": 0.6299212598425197,
          "duration": 0.2086394833333287
        },
        {
          "name": "A#4",
          "midi": 70,
          "time": 96.39695599999939,
          "velocity": 0.6299212598425197,
          "duration": 0.2086394833333287
        },
        {
          "name": "A#4",
          "midi": 70,
          "time": 96.61754399999938,
          "velocity": 0.6299212598425197,
          "duration": 0.2086394833333287
        },
        {
          "name": "A#4",
          "midi": 70,
          "time": 96.83813199999938,
          "velocity": 0.6299212598425197,
          "duration": 0.2086394833333287
        },
        {
          "name": "A#4",
          "midi": 70,
          "time": 97.05871999999937,
          "velocity": 0.6299212598425197,
          "duration": 0.8373152833333393
        },
        {
          "name": "C#4",
          "midi": 61,
          "time": 98.82342399999938,
          "velocity": 0.6299212598425197,
          "duration": 0.2086394833333287
        },
        {
          "name": "A#4",
          "midi": 70,
          "time": 98.82342399999938,
          "velocity": 0.6299212598425197,
          "duration": 0.2086394833333287
        },
        {
          "name": "C#4",
          "midi": 61,
          "time": 99.04401199999937,
          "velocity": 0.6299212598425197,
          "duration": 0.2086394833333287
        },
        {
          "name": "A#4",
          "midi": 70,
          "time": 99.04401199999937,
          "velocity": 0.6299212598425197,
          "duration": 0.2086394833333287
        },
        {
          "name": "C#4",
          "midi": 61,
          "time": 99.26459999999936,
          "velocity": 0.6299212598425197,
          "duration": 0.2086394833333287
        },
        {
          "name": "A#4",
          "midi": 70,
          "time": 99.26459999999936,
          "velocity": 0.6299212598425197,
          "duration": 0.2086394833333287
        },
        {
          "name": "C#4",
          "midi": 61,
          "time": 99.48518799999935,
          "velocity": 0.6299212598425197,
          "duration": 0.2086394833333287
        },
        {
          "name": "A#4",
          "midi": 70,
          "time": 99.48518799999935,
          "velocity": 0.6299212598425197,
          "duration": 0.2086394833333287
        },
        {
          "name": "C#4",
          "midi": 61,
          "time": 99.70577599999935,
          "velocity": 0.6299212598425197,
          "duration": 0.2086394833333287
        },
        {
          "name": "A#4",
          "midi": 70,
          "time": 99.70577599999935,
          "velocity": 0.6299212598425197,
          "duration": 0.2086394833333287
        },
        {
          "name": "C#4",
          "midi": 61,
          "time": 99.92636399999934,
          "velocity": 0.6299212598425197,
          "duration": 0.2086394833333287
        },
        {
          "name": "A#4",
          "midi": 70,
          "time": 99.92636399999934,
          "velocity": 0.6299212598425197,
          "duration": 0.2086394833333287
        },
        {
          "name": "F4",
          "midi": 65,
          "time": 100.14695199999933,
          "velocity": 0.6299212598425197,
          "duration": 0.41819808333333697
        },
        {
          "name": "A#4",
          "midi": 70,
          "time": 100.14695199999933,
          "velocity": 0.6299212598425197,
          "duration": 0.41819808333333697
        },
        {
          "name": "F5",
          "midi": 77,
          "time": 100.14695199999933,
          "velocity": 0.6299212598425197,
          "duration": 0.41819808333333697
        },
        {
          "name": "D#4",
          "midi": 63,
          "time": 101.02930399999933,
          "velocity": 0.6299212598425197,
          "duration": 0.2086394833333287
        },
        {
          "name": "A#4",
          "midi": 70,
          "time": 101.02930399999933,
          "velocity": 0.6299212598425197,
          "duration": 0.2086394833333287
        },
        {
          "name": "C#4",
          "midi": 61,
          "time": 101.24989199999932,
          "velocity": 0.6299212598425197,
          "duration": 0.2086394833333287
        },
        {
          "name": "A#4",
          "midi": 70,
          "time": 101.24989199999932,
          "velocity": 0.6299212598425197,
          "duration": 0.2086394833333287
        },
        {
          "name": "C#4",
          "midi": 61,
          "time": 101.47047999999931,
          "velocity": 0.6299212598425197,
          "duration": 0.2086394833333287
        },
        {
          "name": "A#4",
          "midi": 70,
          "time": 101.47047999999931,
          "velocity": 0.6299212598425197,
          "duration": 0.2086394833333287
        },
        {
          "name": "C#4",
          "midi": 61,
          "time": 101.6910679999993,
          "velocity": 0.6299212598425197,
          "duration": 0.2086394833333287
        },
        {
          "name": "A#4",
          "midi": 70,
          "time": 101.6910679999993,
          "velocity": 0.6299212598425197,
          "duration": 0.2086394833333287
        },
        {
          "name": "F4",
          "midi": 65,
          "time": 101.9116559999993,
          "velocity": 0.6299212598425197,
          "duration": 0.41819808333333697
        },
        {
          "name": "A#4",
          "midi": 70,
          "time": 101.9116559999993,
          "velocity": 0.6299212598425197,
          "duration": 0.41819808333333697
        },
        {
          "name": "F5",
          "midi": 77,
          "time": 101.9116559999993,
          "velocity": 0.6299212598425197,
          "duration": 0.41819808333333697
        },
        {
          "name": "D#4",
          "midi": 63,
          "time": 102.3528319999993,
          "velocity": 0.6299212598425197,
          "duration": 0.2086394833333287
        },
        {
          "name": "A#4",
          "midi": 70,
          "time": 102.3528319999993,
          "velocity": 0.6299212598425197,
          "duration": 0.2086394833333287
        },
        {
          "name": "D#4",
          "midi": 63,
          "time": 102.57341999999929,
          "velocity": 0.6299212598425197,
          "duration": 0.2086394833333287
        },
        {
          "name": "A#4",
          "midi": 70,
          "time": 102.57341999999929,
          "velocity": 0.6299212598425197,
          "duration": 0.2086394833333287
        },
        {
          "name": "D#4",
          "midi": 63,
          "time": 102.79400799999928,
          "velocity": 0.6299212598425197,
          "duration": 0.2086394833333287
        },
        {
          "name": "A#4",
          "midi": 70,
          "time": 102.79400799999928,
          "velocity": 0.6299212598425197,
          "duration": 0.2086394833333287
        },
        {
          "name": "D#4",
          "midi": 63,
          "time": 103.01459599999927,
          "velocity": 0.6299212598425197,
          "duration": 0.2086394833333287
        },
        {
          "name": "A#4",
          "midi": 70,
          "time": 103.01459599999927,
          "velocity": 0.6299212598425197,
          "duration": 0.2086394833333287
        },
        {
          "name": "D#4",
          "midi": 63,
          "time": 103.23518399999926,
          "velocity": 0.6299212598425197,
          "duration": 0.2086394833333287
        },
        {
          "name": "A#4",
          "midi": 70,
          "time": 103.23518399999926,
          "velocity": 0.6299212598425197,
          "duration": 0.2086394833333287
        },
        {
          "name": "D#4",
          "midi": 63,
          "time": 103.45577199999926,
          "velocity": 0.6299212598425197,
          "duration": 0.2086394833333287
        },
        {
          "name": "A#4",
          "midi": 70,
          "time": 103.45577199999926,
          "velocity": 0.6299212598425197,
          "duration": 0.2086394833333287
        },
        {
          "name": "D#4",
          "midi": 63,
          "time": 103.67635999999925,
          "velocity": 0.6299212598425197,
          "duration": 0.2086394833333287
        },
        {
          "name": "A#4",
          "midi": 70,
          "time": 103.67635999999925,
          "velocity": 0.6299212598425197,
          "duration": 0.2086394833333287
        },
        {
          "name": "D#4",
          "midi": 63,
          "time": 103.89694799999924,
          "velocity": 0.6299212598425197,
          "duration": 0.2086394833333287
        },
        {
          "name": "A#4",
          "midi": 70,
          "time": 103.89694799999924,
          "velocity": 0.6299212598425197,
          "duration": 0.2086394833333287
        },
        {
          "name": "C#4",
          "midi": 61,
          "time": 104.11753599999923,
          "velocity": 0.6299212598425197,
          "duration": 0.8373152833333393
        },
        {
          "name": "A#4",
          "midi": 70,
          "time": 104.11753599999923,
          "velocity": 0.6299212598425197,
          "duration": 0.8373152833333393
        },
        {
          "name": "C#4",
          "midi": 61,
          "time": 105.88223999999924,
          "velocity": 0.6299212598425197,
          "duration": 0.2086394833333287
        },
        {
          "name": "A#4",
          "midi": 70,
          "time": 105.88223999999924,
          "velocity": 0.6299212598425197,
          "duration": 0.2086394833333287
        },
        {
          "name": "C#4",
          "midi": 61,
          "time": 106.10282799999923,
          "velocity": 0.6299212598425197,
          "duration": 0.2086394833333287
        },
        {
          "name": "A#4",
          "midi": 70,
          "time": 106.10282799999923,
          "velocity": 0.6299212598425197,
          "duration": 0.2086394833333287
        },
        {
          "name": "C#4",
          "midi": 61,
          "time": 106.32341599999923,
          "velocity": 0.6299212598425197,
          "duration": 0.2086394833333287
        },
        {
          "name": "A#4",
          "midi": 70,
          "time": 106.32341599999923,
          "velocity": 0.6299212598425197,
          "duration": 0.2086394833333287
        },
        {
          "name": "C#4",
          "midi": 61,
          "time": 106.54400399999922,
          "velocity": 0.6299212598425197,
          "duration": 0.2086394833333287
        },
        {
          "name": "A#4",
          "midi": 70,
          "time": 106.54400399999922,
          "velocity": 0.6299212598425197,
          "duration": 0.2086394833333287
        },
        {
          "name": "C#4",
          "midi": 61,
          "time": 106.76459199999921,
          "velocity": 0.6299212598425197,
          "duration": 0.2086394833333287
        },
        {
          "name": "A#4",
          "midi": 70,
          "time": 106.76459199999921,
          "velocity": 0.6299212598425197,
          "duration": 0.2086394833333287
        },
        {
          "name": "C#4",
          "midi": 61,
          "time": 106.9851799999992,
          "velocity": 0.6299212598425197,
          "duration": 0.2086394833333287
        },
        {
          "name": "A#4",
          "midi": 70,
          "time": 106.9851799999992,
          "velocity": 0.6299212598425197,
          "duration": 0.2086394833333287
        },
        {
          "name": "F4",
          "midi": 65,
          "time": 107.2057679999992,
          "velocity": 0.6299212598425197,
          "duration": 0.41819808333333697
        },
        {
          "name": "A#4",
          "midi": 70,
          "time": 107.2057679999992,
          "velocity": 0.6299212598425197,
          "duration": 0.41819808333333697
        },
        {
          "name": "F5",
          "midi": 77,
          "time": 107.2057679999992,
          "velocity": 0.6299212598425197,
          "duration": 0.41819808333333697
        },
        {
          "name": "D#4",
          "midi": 63,
          "time": 108.0881199999992,
          "velocity": 0.6299212598425197,
          "duration": 0.2086394833333287
        },
        {
          "name": "A#4",
          "midi": 70,
          "time": 108.0881199999992,
          "velocity": 0.6299212598425197,
          "duration": 0.2086394833333287
        },
        {
          "name": "C#4",
          "midi": 61,
          "time": 108.30870799999919,
          "velocity": 0.6299212598425197,
          "duration": 0.2086394833333287
        },
        {
          "name": "A#4",
          "midi": 70,
          "time": 108.30870799999919,
          "velocity": 0.6299212598425197,
          "duration": 0.2086394833333287
        },
        {
          "name": "C#4",
          "midi": 61,
          "time": 108.52929599999918,
          "velocity": 0.6299212598425197,
          "duration": 0.2086394833333287
        },
        {
          "name": "A#4",
          "midi": 70,
          "time": 108.52929599999918,
          "velocity": 0.6299212598425197,
          "duration": 0.2086394833333287
        },
        {
          "name": "C#4",
          "midi": 61,
          "time": 108.74988399999917,
          "velocity": 0.6299212598425197,
          "duration": 0.2086394833333287
        },
        {
          "name": "A#4",
          "midi": 70,
          "time": 108.74988399999917,
          "velocity": 0.6299212598425197,
          "duration": 0.2086394833333287
        },
        {
          "name": "F4",
          "midi": 65,
          "time": 108.97047199999916,
          "velocity": 0.6299212598425197,
          "duration": 0.41819808333333697
        },
        {
          "name": "A#4",
          "midi": 70,
          "time": 108.97047199999916,
          "velocity": 0.6299212598425197,
          "duration": 0.41819808333333697
        },
        {
          "name": "F5",
          "midi": 77,
          "time": 108.97047199999916,
          "velocity": 0.6299212598425197,
          "duration": 0.41819808333333697
        },
        {
          "name": "F4",
          "midi": 65,
          "time": 109.41164799999916,
          "velocity": 0.6299212598425197,
          "duration": 0.2086394833333287
        },
        {
          "name": "A#4",
          "midi": 70,
          "time": 109.41164799999916,
          "velocity": 0.6299212598425197,
          "duration": 0.2086394833333287
        },
        {
          "name": "F4",
          "midi": 65,
          "time": 109.63223599999915,
          "velocity": 0.6299212598425197,
          "duration": 0.2086394833333287
        },
        {
          "name": "A#4",
          "midi": 70,
          "time": 109.63223599999915,
          "velocity": 0.6299212598425197,
          "duration": 0.2086394833333287
        },
        {
          "name": "F4",
          "midi": 65,
          "time": 109.85282399999915,
          "velocity": 0.6299212598425197,
          "duration": 0.2086394833333287
        },
        {
          "name": "A#4",
          "midi": 70,
          "time": 109.85282399999915,
          "velocity": 0.6299212598425197,
          "duration": 0.2086394833333287
        },
        {
          "name": "F4",
          "midi": 65,
          "time": 110.07341199999914,
          "velocity": 0.6299212598425197,
          "duration": 0.2086394833333287
        },
        {
          "name": "A#4",
          "midi": 70,
          "time": 110.07341199999914,
          "velocity": 0.6299212598425197,
          "duration": 0.2086394833333287
        },
        {
          "name": "D#4",
          "midi": 63,
          "time": 110.29399999999913,
          "velocity": 0.6299212598425197,
          "duration": 0.2086394833333287
        },
        {
          "name": "A#4",
          "midi": 70,
          "time": 110.29399999999913,
          "velocity": 0.6299212598425197,
          "duration": 0.2086394833333287
        },
        {
          "name": "D#4",
          "midi": 63,
          "time": 110.51458799999912,
          "velocity": 0.6299212598425197,
          "duration": 0.2086394833333287
        },
        {
          "name": "A#4",
          "midi": 70,
          "time": 110.51458799999912,
          "velocity": 0.6299212598425197,
          "duration": 0.2086394833333287
        },
        {
          "name": "D#4",
          "midi": 63,
          "time": 110.73517599999911,
          "velocity": 0.6299212598425197,
          "duration": 0.2086394833333287
        },
        {
          "name": "A#4",
          "midi": 70,
          "time": 110.73517599999911,
          "velocity": 0.6299212598425197,
          "duration": 0.2086394833333287
        },
        {
          "name": "D#4",
          "midi": 63,
          "time": 110.9557639999991,
          "velocity": 0.6299212598425197,
          "duration": 0.2086394833333287
        },
        {
          "name": "A#4",
          "midi": 70,
          "time": 110.9557639999991,
          "velocity": 0.6299212598425197,
          "duration": 0.2086394833333287
        },
        {
          "name": "C#4",
          "midi": 61,
          "time": 111.1763519999991,
          "velocity": 0.6299212598425197,
          "duration": 1.6755496833333297
        },
        {
          "name": "A#4",
          "midi": 70,
          "time": 111.1763519999991,
          "velocity": 0.6299212598425197,
          "duration": 1.6755496833333297
        }
      ],
      "controlChanges": {
        "7": [
          {
            "number": 7,
            "time": 0,
            "value": 1
          }
        ],
        "10": [
          {
            "number": 10,
            "time": 0,
            "value": 0.5039370078740157
          }
        ],
        "91": [
          {
            "number": 91,
            "time": 0,
            "value": 0
          }
        ],
        "93": [
          {
            "number": 93,
            "time": 0,
            "value": 0
          }
        ],
        "121": [
          {
            "number": 121,
            "time": 0,
            "value": 0
          }
        ]
      },
      "id": 0,
      "instrumentNumber": 0,
      "instrument": "acoustic grand piano",
      "instrumentFamily": "piano",
      "channelNumber": 0,
      "isPercussion": false
    },
    {
      "startTime": 0,
      "duration": 112.85190168333311,
      "length": 380,
      "notes": [
        {
          "name": "A#2",
          "midi": 46,
          "time": 0,
          "velocity": 0.6299212598425197,
          "duration": 0.31341878333333334
        },
        {
          "name": "A#3",
          "midi": 58,
          "time": 0.330882,
          "velocity": 0.6299212598425197,
          "duration": 0.3134187833333334
        },
        {
          "name": "C#3",
          "midi": 49,
          "time": 0.661764,
          "velocity": 0.6299212598425197,
          "duration": 0.6277566833333335
        },
        {
          "name": "A#2",
          "midi": 46,
          "time": 1.323528,
          "velocity": 0.6299212598425197,
          "duration": 0.4181980833333334
        },
        {
          "name": "A#2",
          "midi": 46,
          "time": 1.764704,
          "velocity": 0.6299212598425197,
          "duration": 0.3134187833333333
        },
        {
          "name": "A#3",
          "midi": 58,
          "time": 2.095586,
          "velocity": 0.6299212598425197,
          "duration": 0.3134187833333333
        },
        {
          "name": "D#3",
          "midi": 51,
          "time": 2.426468,
          "velocity": 0.6299212598425197,
          "duration": 0.6277566833333332
        },
        {
          "name": "C#3",
          "midi": 49,
          "time": 3.0882319999999996,
          "velocity": 0.6299212598425197,
          "duration": 0.4181980833333334
        },
        {
          "name": "C3",
          "midi": 48,
          "time": 3.5294079999999997,
          "velocity": 0.6299212598425197,
          "duration": 0.3134187833333333
        },
        {
          "name": "C4",
          "midi": 60,
          "time": 3.8602899999999996,
          "velocity": 0.6299212598425197,
          "duration": 0.3134187833333333
        },
        {
          "name": "C#3",
          "midi": 49,
          "time": 4.191172,
          "velocity": 0.6299212598425197,
          "duration": 0.6277566833333337
        },
        {
          "name": "C3",
          "midi": 48,
          "time": 4.852936000000001,
          "velocity": 0.6299212598425197,
          "duration": 0.4181980833333334
        },
        {
          "name": "A#2",
          "midi": 46,
          "time": 5.294112000000001,
          "velocity": 0.6299212598425197,
          "duration": 0.31341878333333373
        },
        {
          "name": "A#3",
          "midi": 58,
          "time": 5.624994000000002,
          "velocity": 0.6299212598425197,
          "duration": 0.31341878333333373
        },
        {
          "name": "C3",
          "midi": 48,
          "time": 5.955876000000003,
          "velocity": 0.6299212598425197,
          "duration": 0.6277566833333337
        },
        {
          "name": "C#3",
          "midi": 49,
          "time": 6.617640000000003,
          "velocity": 0.6299212598425197,
          "duration": 0.4181980833333334
        },
        {
          "name": "A#2",
          "midi": 46,
          "time": 7.058816000000004,
          "velocity": 0.6299212598425197,
          "duration": 0.31341878333333373
        },
        {
          "name": "A#3",
          "midi": 58,
          "time": 7.3896980000000045,
          "velocity": 0.6299212598425197,
          "duration": 0.31341878333333373
        },
        {
          "name": "C#3",
          "midi": 49,
          "time": 7.720580000000005,
          "velocity": 0.6299212598425197,
          "duration": 0.6277566833333328
        },
        {
          "name": "A#2",
          "midi": 46,
          "time": 8.382344000000005,
          "velocity": 0.6299212598425197,
          "duration": 0.4181980833333334
        },
        {
          "name": "A#2",
          "midi": 46,
          "time": 8.823520000000006,
          "velocity": 0.6299212598425197,
          "duration": 0.31341878333333284
        },
        {
          "name": "A#3",
          "midi": 58,
          "time": 9.154402000000005,
          "velocity": 0.6299212598425197,
          "duration": 0.31341878333333284
        },
        {
          "name": "D#3",
          "midi": 51,
          "time": 9.485284000000004,
          "velocity": 0.6299212598425197,
          "duration": 0.6277566833333328
        },
        {
          "name": "C#3",
          "midi": 49,
          "time": 10.147048000000003,
          "velocity": 0.6299212598425197,
          "duration": 0.4181980833333334
        },
        {
          "name": "C3",
          "midi": 48,
          "time": 10.588224000000004,
          "velocity": 0.6299212598425197,
          "duration": 0.31341878333333284
        },
        {
          "name": "C4",
          "midi": 60,
          "time": 10.919106000000003,
          "velocity": 0.6299212598425197,
          "duration": 0.31341878333333284
        },
        {
          "name": "C#3",
          "midi": 49,
          "time": 11.249988000000002,
          "velocity": 0.6299212598425197,
          "duration": 0.6277566833333328
        },
        {
          "name": "C3",
          "midi": 48,
          "time": 11.911752000000002,
          "velocity": 0.6299212598425197,
          "duration": 0.4181980833333334
        },
        {
          "name": "A#2",
          "midi": 46,
          "time": 12.352928000000002,
          "velocity": 0.6299212598425197,
          "duration": 0.31341878333333284
        },
        {
          "name": "A#3",
          "midi": 58,
          "time": 12.683810000000001,
          "velocity": 0.6299212598425197,
          "duration": 0.31341878333333284
        },
        {
          "name": "C3",
          "midi": 48,
          "time": 13.014692,
          "velocity": 0.6299212598425197,
          "duration": 0.6277566833333328
        },
        {
          "name": "C#3",
          "midi": 49,
          "time": 13.676456,
          "velocity": 0.6299212598425197,
          "duration": 0.4181980833333334
        },
        {
          "name": "A#2",
          "midi": 46,
          "time": 14.117632,
          "velocity": 0.6299212598425197,
          "duration": 0.31341878333333284
        },
        {
          "name": "F3",
          "midi": 53,
          "time": 14.448514,
          "velocity": 0.6299212598425197,
          "duration": 0.10386018333333347
        },
        {
          "name": "A#3",
          "midi": 58,
          "time": 14.558807999999999,
          "velocity": 0.6299212598425197,
          "duration": 0.20863948333333404
        },
        {
          "name": "C#4",
          "midi": 61,
          "time": 14.558807999999999,
          "velocity": 0.6299212598425197,
          "duration": 0.20863948333333404
        },
        {
          "name": "C#3",
          "midi": 49,
          "time": 14.779396,
          "velocity": 0.6299212598425197,
          "duration": 0.6277566833333328
        },
        {
          "name": "A#2",
          "midi": 46,
          "time": 15.44116,
          "velocity": 0.6299212598425197,
          "duration": 0.4181980833333334
        },
        {
          "name": "F#2",
          "midi": 42,
          "time": 15.882336,
          "velocity": 0.6299212598425197,
          "duration": 0.3134187833333346
        },
        {
          "name": "F#3",
          "midi": 54,
          "time": 16.213218,
          "velocity": 0.6299212598425197,
          "duration": 0.10386018333333169
        },
        {
          "name": "A#3",
          "midi": 58,
          "time": 16.323512,
          "velocity": 0.6299212598425197,
          "duration": 0.20863948333333227
        },
        {
          "name": "D#4",
          "midi": 63,
          "time": 16.323512,
          "velocity": 0.6299212598425197,
          "duration": 0.20863948333333227
        },
        {
          "name": "D#3",
          "midi": 51,
          "time": 16.5441,
          "velocity": 0.6299212598425197,
          "duration": 0.6277566833333346
        },
        {
          "name": "C#3",
          "midi": 49,
          "time": 17.205864000000002,
          "velocity": 0.6299212598425197,
          "duration": 0.4181980833333334
        },
        {
          "name": "G#2",
          "midi": 44,
          "time": 17.64704,
          "velocity": 0.6299212598425197,
          "duration": 0.31341878333333284
        },
        {
          "name": "D#3",
          "midi": 51,
          "time": 17.977922,
          "velocity": 0.6299212598425197,
          "duration": 0.10386018333333169
        },
        {
          "name": "G#3",
          "midi": 56,
          "time": 18.088216,
          "velocity": 0.6299212598425197,
          "duration": 0.20863948333333227
        },
        {
          "name": "C4",
          "midi": 60,
          "time": 18.088216,
          "velocity": 0.6299212598425197,
          "duration": 0.20863948333333227
        },
        {
          "name": "C#3",
          "midi": 49,
          "time": 18.308804,
          "velocity": 0.6299212598425197,
          "duration": 0.6277566833333346
        },
        {
          "name": "C3",
          "midi": 48,
          "time": 18.970568,
          "velocity": 0.6299212598425197,
          "duration": 0.4181980833333334
        },
        {
          "name": "A#2",
          "midi": 46,
          "time": 19.411744,
          "velocity": 0.6299212598425197,
          "duration": 0.31341878333333284
        },
        {
          "name": "F3",
          "midi": 53,
          "time": 19.742625999999998,
          "velocity": 0.6299212598425197,
          "duration": 0.10386018333333169
        },
        {
          "name": "A#3",
          "midi": 58,
          "time": 19.852919999999997,
          "velocity": 0.6299212598425197,
          "duration": 0.20863948333333227
        },
        {
          "name": "C#4",
          "midi": 61,
          "time": 19.852919999999997,
          "velocity": 0.6299212598425197,
          "duration": 0.20863948333333227
        },
        {
          "name": "C3",
          "midi": 48,
          "time": 20.073507999999997,
          "velocity": 0.6299212598425197,
          "duration": 0.6277566833333346
        },
        {
          "name": "C#3",
          "midi": 49,
          "time": 20.735272,
          "velocity": 0.6299212598425197,
          "duration": 0.4181980833333334
        },
        {
          "name": "A#2",
          "midi": 46,
          "time": 21.176447999999997,
          "velocity": 0.6299212598425197,
          "duration": 0.31341878333333284
        },
        {
          "name": "F3",
          "midi": 53,
          "time": 21.507329999999996,
          "velocity": 0.6299212598425197,
          "duration": 0.10386018333333169
        },
        {
          "name": "A#3",
          "midi": 58,
          "time": 21.617623999999996,
          "velocity": 0.6299212598425197,
          "duration": 0.20863948333333227
        },
        {
          "name": "C#4",
          "midi": 61,
          "time": 21.617623999999996,
          "velocity": 0.6299212598425197,
          "duration": 0.20863948333333227
        },
        {
          "name": "C#3",
          "midi": 49,
          "time": 21.838211999999995,
          "velocity": 0.6299212598425197,
          "duration": 0.6277566833333346
        },
        {
          "name": "A#2",
          "midi": 46,
          "time": 22.499975999999997,
          "velocity": 0.6299212598425197,
          "duration": 0.4181980833333334
        },
        {
          "name": "F#2",
          "midi": 42,
          "time": 22.941151999999995,
          "velocity": 0.6299212598425197,
          "duration": 0.31341878333333284
        },
        {
          "name": "F#3",
          "midi": 54,
          "time": 23.272033999999994,
          "velocity": 0.6299212598425197,
          "duration": 0.10386018333333169
        },
        {
          "name": "A#3",
          "midi": 58,
          "time": 23.382327999999994,
          "velocity": 0.6299212598425197,
          "duration": 0.20863948333333227
        },
        {
          "name": "D#4",
          "midi": 63,
          "time": 23.382327999999994,
          "velocity": 0.6299212598425197,
          "duration": 0.20863948333333227
        },
        {
          "name": "D#3",
          "midi": 51,
          "time": 23.602915999999993,
          "velocity": 0.6299212598425197,
          "duration": 0.6277566833333346
        },
        {
          "name": "C#3",
          "midi": 49,
          "time": 24.264679999999995,
          "velocity": 0.6299212598425197,
          "duration": 0.4181980833333334
        },
        {
          "name": "G#2",
          "midi": 44,
          "time": 24.705855999999994,
          "velocity": 0.6299212598425197,
          "duration": 0.31341878333333284
        },
        {
          "name": "D#3",
          "midi": 51,
          "time": 25.036737999999993,
          "velocity": 0.6299212598425197,
          "duration": 0.10386018333333169
        },
        {
          "name": "G#3",
          "midi": 56,
          "time": 25.147031999999992,
          "velocity": 0.6299212598425197,
          "duration": 0.20863948333333227
        },
        {
          "name": "C4",
          "midi": 60,
          "time": 25.147031999999992,
          "velocity": 0.6299212598425197,
          "duration": 0.20863948333333227
        },
        {
          "name": "C#3",
          "midi": 49,
          "time": 25.36761999999999,
          "velocity": 0.6299212598425197,
          "duration": 0.6277566833333346
        },
        {
          "name": "C3",
          "midi": 48,
          "time": 26.029383999999993,
          "velocity": 0.6299212598425197,
          "duration": 0.4181980833333334
        },
        {
          "name": "A#2",
          "midi": 46,
          "time": 26.470559999999992,
          "velocity": 0.6299212598425197,
          "duration": 0.31341878333333284
        },
        {
          "name": "F3",
          "midi": 53,
          "time": 26.80144199999999,
          "velocity": 0.6299212598425197,
          "duration": 0.10386018333333169
        },
        {
          "name": "A#3",
          "midi": 58,
          "time": 26.91173599999999,
          "velocity": 0.6299212598425197,
          "duration": 0.20863948333333227
        },
        {
          "name": "C#4",
          "midi": 61,
          "time": 26.91173599999999,
          "velocity": 0.6299212598425197,
          "duration": 0.20863948333333227
        },
        {
          "name": "C3",
          "midi": 48,
          "time": 27.13232399999999,
          "velocity": 0.6299212598425197,
          "duration": 0.6277566833333346
        },
        {
          "name": "C#3",
          "midi": 49,
          "time": 27.79408799999999,
          "velocity": 0.6299212598425197,
          "duration": 0.4181980833333334
        },
        {
          "name": "A#2",
          "midi": 46,
          "time": 28.23526399999999,
          "velocity": 0.6299212598425197,
          "duration": 0.31341878333333284
        },
        {
          "name": "F3",
          "midi": 53,
          "time": 28.56614599999999,
          "velocity": 0.6299212598425197,
          "duration": 0.10386018333333169
        },
        {
          "name": "A#3",
          "midi": 58,
          "time": 28.67643999999999,
          "velocity": 0.6299212598425197,
          "duration": 0.20863948333333227
        },
        {
          "name": "C#4",
          "midi": 61,
          "time": 28.67643999999999,
          "velocity": 0.6299212598425197,
          "duration": 0.20863948333333227
        },
        {
          "name": "C#3",
          "midi": 49,
          "time": 28.897027999999988,
          "velocity": 0.6299212598425197,
          "duration": 0.6277566833333346
        },
        {
          "name": "A#2",
          "midi": 46,
          "time": 29.55879199999999,
          "velocity": 0.6299212598425197,
          "duration": 0.4181980833333334
        },
        {
          "name": "F#2",
          "midi": 42,
          "time": 29.99996799999999,
          "velocity": 0.6299212598425197,
          "duration": 0.31341878333333284
        },
        {
          "name": "F#3",
          "midi": 54,
          "time": 30.330849999999987,
          "velocity": 0.6299212598425197,
          "duration": 0.10386018333333169
        },
        {
          "name": "A#3",
          "midi": 58,
          "time": 30.441143999999987,
          "velocity": 0.6299212598425197,
          "duration": 0.20863948333333227
        },
        {
          "name": "D#4",
          "midi": 63,
          "time": 30.441143999999987,
          "velocity": 0.6299212598425197,
          "duration": 0.20863948333333227
        },
        {
          "name": "D#3",
          "midi": 51,
          "time": 30.661731999999986,
          "velocity": 0.6299212598425197,
          "duration": 0.6277566833333346
        },
        {
          "name": "C#3",
          "midi": 49,
          "time": 31.323495999999988,
          "velocity": 0.6299212598425197,
          "duration": 0.4181980833333334
        },
        {
          "name": "G#2",
          "midi": 44,
          "time": 31.764671999999987,
          "velocity": 0.6299212598425197,
          "duration": 0.3134187833333364
        },
        {
          "name": "D#3",
          "midi": 51,
          "time": 32.09555399999999,
          "velocity": 0.6299212598425197,
          "duration": 0.10386018333333169
        },
        {
          "name": "G#3",
          "midi": 56,
          "time": 32.20584799999999,
          "velocity": 0.6299212598425197,
          "duration": 0.20863948333333582
        },
        {
          "name": "C4",
          "midi": 60,
          "time": 32.20584799999999,
          "velocity": 0.6299212598425197,
          "duration": 0.20863948333333582
        },
        {
          "name": "C#3",
          "midi": 49,
          "time": 32.42643599999999,
          "velocity": 0.6299212598425197,
          "duration": 0.627756683333331
        },
        {
          "name": "C3",
          "midi": 48,
          "time": 33.088199999999986,
          "velocity": 0.6299212598425197,
          "duration": 0.41819808333332986
        },
        {
          "name": "A#2",
          "midi": 46,
          "time": 33.529375999999985,
          "velocity": 0.6299212598425197,
          "duration": 0.31341878333333284
        },
        {
          "name": "F3",
          "midi": 53,
          "time": 33.86025799999999,
          "velocity": 0.6299212598425197,
          "duration": 0.10386018333333169
        },
        {
          "name": "A#3",
          "midi": 58,
          "time": 33.970551999999984,
          "velocity": 0.6299212598425197,
          "duration": 0.20863948333333582
        },
        {
          "name": "C#4",
          "midi": 61,
          "time": 33.970551999999984,
          "velocity": 0.6299212598425197,
          "duration": 0.20863948333333582
        },
        {
          "name": "C3",
          "midi": 48,
          "time": 34.19113999999998,
          "velocity": 0.6299212598425197,
          "duration": 0.627756683333331
        },
        {
          "name": "C#3",
          "midi": 49,
          "time": 34.85290399999998,
          "velocity": 0.6299212598425197,
          "duration": 0.41819808333332986
        },
        {
          "name": "A#2",
          "midi": 46,
          "time": 35.29407999999998,
          "velocity": 0.6299212598425197,
          "duration": 0.31341878333333284
        },
        {
          "name": "F3",
          "midi": 53,
          "time": 35.62496199999998,
          "velocity": 0.6299212598425197,
          "duration": 0.10386018333333169
        },
        {
          "name": "A#3",
          "midi": 58,
          "time": 35.73525599999998,
          "velocity": 0.6299212598425197,
          "duration": 0.20863948333333582
        },
        {
          "name": "C#4",
          "midi": 61,
          "time": 35.73525599999998,
          "velocity": 0.6299212598425197,
          "duration": 0.20863948333333582
        },
        {
          "name": "C#3",
          "midi": 49,
          "time": 35.95584399999998,
          "velocity": 0.6299212598425197,
          "duration": 0.627756683333331
        },
        {
          "name": "A#2",
          "midi": 46,
          "time": 36.617607999999976,
          "velocity": 0.6299212598425197,
          "duration": 0.41819808333332986
        },
        {
          "name": "F#2",
          "midi": 42,
          "time": 37.058783999999974,
          "velocity": 0.6299212598425197,
          "duration": 0.31341878333333284
        },
        {
          "name": "F#3",
          "midi": 54,
          "time": 37.38966599999998,
          "velocity": 0.6299212598425197,
          "duration": 0.10386018333333169
        },
        {
          "name": "A#3",
          "midi": 58,
          "time": 37.49995999999997,
          "velocity": 0.6299212598425197,
          "duration": 0.20863948333333582
        },
        {
          "name": "D#4",
          "midi": 63,
          "time": 37.49995999999997,
          "velocity": 0.6299212598425197,
          "duration": 0.20863948333333582
        },
        {
          "name": "D#3",
          "midi": 51,
          "time": 37.72054799999997,
          "velocity": 0.6299212598425197,
          "duration": 0.627756683333331
        },
        {
          "name": "C#3",
          "midi": 49,
          "time": 38.38231199999997,
          "velocity": 0.6299212598425197,
          "duration": 0.41819808333332986
        },
        {
          "name": "G#2",
          "midi": 44,
          "time": 38.82348799999997,
          "velocity": 0.6299212598425197,
          "duration": 0.31341878333333284
        },
        {
          "name": "D#3",
          "midi": 51,
          "time": 39.15436999999997,
          "velocity": 0.6299212598425197,
          "duration": 0.10386018333333169
        },
        {
          "name": "G#3",
          "midi": 56,
          "time": 39.26466399999997,
          "velocity": 0.6299212598425197,
          "duration": 0.20863948333333582
        },
        {
          "name": "C4",
          "midi": 60,
          "time": 39.26466399999997,
          "velocity": 0.6299212598425197,
          "duration": 0.20863948333333582
        },
        {
          "name": "C#3",
          "midi": 49,
          "time": 39.48525199999997,
          "velocity": 0.6299212598425197,
          "duration": 0.627756683333331
        },
        {
          "name": "C3",
          "midi": 48,
          "time": 40.147015999999965,
          "velocity": 0.6299212598425197,
          "duration": 0.41819808333332986
        },
        {
          "name": "A#2",
          "midi": 46,
          "time": 40.588191999999964,
          "velocity": 0.6299212598425197,
          "duration": 0.31341878333333284
        },
        {
          "name": "F3",
          "midi": 53,
          "time": 40.919073999999966,
          "velocity": 0.6299212598425197,
          "duration": 0.10386018333333169
        },
        {
          "name": "A#3",
          "midi": 58,
          "time": 41.02936799999996,
          "velocity": 0.6299212598425197,
          "duration": 0.20863948333333582
        },
        {
          "name": "C#4",
          "midi": 61,
          "time": 41.02936799999996,
          "velocity": 0.6299212598425197,
          "duration": 0.20863948333333582
        },
        {
          "name": "C3",
          "midi": 48,
          "time": 41.24995599999996,
          "velocity": 0.6299212598425197,
          "duration": 0.627756683333331
        },
        {
          "name": "C#3",
          "midi": 49,
          "time": 41.91171999999996,
          "velocity": 0.6299212598425197,
          "duration": 0.41819808333332986
        },
        {
          "name": "A#2",
          "midi": 46,
          "time": 42.35289599999996,
          "velocity": 0.6299212598425197,
          "duration": 0.31341878333333284
        },
        {
          "name": "F3",
          "midi": 53,
          "time": 42.68377799999996,
          "velocity": 0.6299212598425197,
          "duration": 0.10386018333333169
        },
        {
          "name": "A#3",
          "midi": 58,
          "time": 42.79407199999996,
          "velocity": 0.6299212598425197,
          "duration": 0.20863948333333582
        },
        {
          "name": "C#4",
          "midi": 61,
          "time": 42.79407199999996,
          "velocity": 0.6299212598425197,
          "duration": 0.20863948333333582
        },
        {
          "name": "C#3",
          "midi": 49,
          "time": 43.01465999999996,
          "velocity": 0.6299212598425197,
          "duration": 0.627756683333331
        },
        {
          "name": "A#2",
          "midi": 46,
          "time": 43.676423999999955,
          "velocity": 0.6299212598425197,
          "duration": 0.41819808333332986
        },
        {
          "name": "F#2",
          "midi": 42,
          "time": 44.11759999999995,
          "velocity": 0.6299212598425197,
          "duration": 0.31341878333333284
        },
        {
          "name": "F#3",
          "midi": 54,
          "time": 44.448481999999956,
          "velocity": 0.6299212598425197,
          "duration": 0.10386018333333169
        },
        {
          "name": "A#3",
          "midi": 58,
          "time": 44.55877599999995,
          "velocity": 0.6299212598425197,
          "duration": 0.20863948333333582
        },
        {
          "name": "D#4",
          "midi": 63,
          "time": 44.55877599999995,
          "velocity": 0.6299212598425197,
          "duration": 0.20863948333333582
        },
        {
          "name": "D#3",
          "midi": 51,
          "time": 44.77936399999995,
          "velocity": 0.6299212598425197,
          "duration": 0.627756683333331
        },
        {
          "name": "C#3",
          "midi": 49,
          "time": 45.44112799999995,
          "velocity": 0.6299212598425197,
          "duration": 0.41819808333332986
        },
        {
          "name": "G#2",
          "midi": 44,
          "time": 45.88230399999995,
          "velocity": 0.6299212598425197,
          "duration": 0.31341878333333284
        },
        {
          "name": "D#3",
          "midi": 51,
          "time": 46.21318599999995,
          "velocity": 0.6299212598425197,
          "duration": 0.10386018333333169
        },
        {
          "name": "G#3",
          "midi": 56,
          "time": 46.32347999999995,
          "velocity": 0.6299212598425197,
          "duration": 0.20863948333333582
        },
        {
          "name": "C4",
          "midi": 60,
          "time": 46.32347999999995,
          "velocity": 0.6299212598425197,
          "duration": 0.20863948333333582
        },
        {
          "name": "C#3",
          "midi": 49,
          "time": 46.544067999999946,
          "velocity": 0.6299212598425197,
          "duration": 0.627756683333331
        },
        {
          "name": "C3",
          "midi": 48,
          "time": 47.205831999999944,
          "velocity": 0.6299212598425197,
          "duration": 0.41819808333332986
        },
        {
          "name": "A#2",
          "midi": 46,
          "time": 47.64700799999994,
          "velocity": 0.6299212598425197,
          "duration": 0.31341878333333284
        },
        {
          "name": "F3",
          "midi": 53,
          "time": 47.977889999999945,
          "velocity": 0.6299212598425197,
          "duration": 0.10386018333333169
        },
        {
          "name": "A#3",
          "midi": 58,
          "time": 48.08818399999994,
          "velocity": 0.6299212598425197,
          "duration": 0.20863948333333582
        },
        {
          "name": "C#4",
          "midi": 61,
          "time": 48.08818399999994,
          "velocity": 0.6299212598425197,
          "duration": 0.20863948333333582
        },
        {
          "name": "C3",
          "midi": 48,
          "time": 48.30877199999994,
          "velocity": 0.6299212598425197,
          "duration": 0.627756683333331
        },
        {
          "name": "C#3",
          "midi": 49,
          "time": 48.97053599999994,
          "velocity": 0.6299212598425197,
          "duration": 0.41819808333332986
        },
        {
          "name": "A#2",
          "midi": 46,
          "time": 49.41171199999994,
          "velocity": 0.6299212598425197,
          "duration": 0.31341878333333284
        },
        {
          "name": "F3",
          "midi": 53,
          "time": 49.74259399999994,
          "velocity": 0.6299212598425197,
          "duration": 0.10386018333333169
        },
        {
          "name": "A#3",
          "midi": 58,
          "time": 49.852887999999936,
          "velocity": 0.6299212598425197,
          "duration": 0.20863948333333582
        },
        {
          "name": "C#4",
          "midi": 61,
          "time": 49.852887999999936,
          "velocity": 0.6299212598425197,
          "duration": 0.20863948333333582
        },
        {
          "name": "C#3",
          "midi": 49,
          "time": 50.073475999999935,
          "velocity": 0.6299212598425197,
          "duration": 0.627756683333331
        },
        {
          "name": "A#2",
          "midi": 46,
          "time": 50.73523999999993,
          "velocity": 0.6299212598425197,
          "duration": 0.41819808333332986
        },
        {
          "name": "F#2",
          "midi": 42,
          "time": 51.17641599999993,
          "velocity": 0.6299212598425197,
          "duration": 0.31341878333333284
        },
        {
          "name": "F#3",
          "midi": 54,
          "time": 51.507297999999935,
          "velocity": 0.6299212598425197,
          "duration": 0.10386018333333169
        },
        {
          "name": "A#3",
          "midi": 58,
          "time": 51.61759199999993,
          "velocity": 0.6299212598425197,
          "duration": 0.20863948333333582
        },
        {
          "name": "D#4",
          "midi": 63,
          "time": 51.61759199999993,
          "velocity": 0.6299212598425197,
          "duration": 0.20863948333333582
        },
        {
          "name": "D#3",
          "midi": 51,
          "time": 51.83817999999993,
          "velocity": 0.6299212598425197,
          "duration": 0.627756683333331
        },
        {
          "name": "C#3",
          "midi": 49,
          "time": 52.49994399999993,
          "velocity": 0.6299212598425197,
          "duration": 0.41819808333332986
        },
        {
          "name": "G#2",
          "midi": 44,
          "time": 52.94111999999993,
          "velocity": 0.6299212598425197,
          "duration": 0.31341878333333284
        },
        {
          "name": "D#3",
          "midi": 51,
          "time": 53.27200199999993,
          "velocity": 0.6299212598425197,
          "duration": 0.10386018333333169
        },
        {
          "name": "G#3",
          "midi": 56,
          "time": 53.382295999999926,
          "velocity": 0.6299212598425197,
          "duration": 0.20863948333333582
        },
        {
          "name": "C4",
          "midi": 60,
          "time": 53.382295999999926,
          "velocity": 0.6299212598425197,
          "duration": 0.20863948333333582
        },
        {
          "name": "C#3",
          "midi": 49,
          "time": 53.602883999999925,
          "velocity": 0.6299212598425197,
          "duration": 0.627756683333331
        },
        {
          "name": "C3",
          "midi": 48,
          "time": 54.26464799999992,
          "velocity": 0.6299212598425197,
          "duration": 0.41819808333332986
        },
        {
          "name": "A#2",
          "midi": 46,
          "time": 54.70582399999992,
          "velocity": 0.6299212598425197,
          "duration": 0.31341878333333284
        },
        {
          "name": "F3",
          "midi": 53,
          "time": 55.036705999999924,
          "velocity": 0.6299212598425197,
          "duration": 0.31341878333333284
        },
        {
          "name": "C3",
          "midi": 48,
          "time": 55.36758799999993,
          "velocity": 0.6299212598425197,
          "duration": 0.627756683333331
        },
        {
          "name": "C#3",
          "midi": 49,
          "time": 56.029351999999925,
          "velocity": 0.6299212598425197,
          "duration": 0.41819808333332986
        },
        {
          "name": "A#3",
          "midi": 58,
          "time": 56.47052799999992,
          "velocity": 0.6299212598425197,
          "duration": 0.20863948333333582
        },
        {
          "name": "F4",
          "midi": 65,
          "time": 56.69111599999992,
          "velocity": 0.6299212598425197,
          "duration": 0.20863948333333582
        },
        {
          "name": "A#4",
          "midi": 70,
          "time": 56.91170399999992,
          "velocity": 0.6299212598425197,
          "duration": 0.20863948333333582
        },
        {
          "name": "C5",
          "midi": 72,
          "time": 57.13229199999992,
          "velocity": 0.6299212598425197,
          "duration": 0.41819808333332986
        },
        {
          "name": "C#5",
          "midi": 73,
          "time": 57.57346799999992,
          "velocity": 0.6299212598425197,
          "duration": 0.41819808333332986
        },
        {
          "name": "F#3",
          "midi": 54,
          "time": 58.23523199999992,
          "velocity": 0.6299212598425197,
          "duration": 0.20863948333333582
        },
        {
          "name": "C#4",
          "midi": 61,
          "time": 58.45581999999992,
          "velocity": 0.6299212598425197,
          "duration": 0.20863948333333582
        },
        {
          "name": "F#4",
          "midi": 66,
          "time": 58.67640799999992,
          "velocity": 0.6299212598425197,
          "duration": 0.20863948333333582
        },
        {
          "name": "G#4",
          "midi": 68,
          "time": 58.896995999999916,
          "velocity": 0.6299212598425197,
          "duration": 0.41819808333332986
        },
        {
          "name": "A#4",
          "midi": 70,
          "time": 59.338171999999915,
          "velocity": 0.6299212598425197,
          "duration": 0.41819808333332986
        },
        {
          "name": "G#3",
          "midi": 56,
          "time": 59.99993599999991,
          "velocity": 0.6299212598425197,
          "duration": 0.20863948333333582
        },
        {
          "name": "D#4",
          "midi": 63,
          "time": 60.22052399999991,
          "velocity": 0.6299212598425197,
          "duration": 0.20863948333333582
        },
        {
          "name": "G#4",
          "midi": 68,
          "time": 60.44111199999991,
          "velocity": 0.6299212598425197,
          "duration": 0.20863948333333582
        },
        {
          "name": "A#4",
          "midi": 70,
          "time": 60.66169999999991,
          "velocity": 0.6299212598425197,
          "duration": 0.41819808333332986
        },
        {
          "name": "C5",
          "midi": 72,
          "time": 61.10287599999991,
          "velocity": 0.6299212598425197,
          "duration": 0.41819808333332986
        },
        {
          "name": "A#3",
          "midi": 58,
          "time": 61.76463999999991,
          "velocity": 0.6299212598425197,
          "duration": 0.20863948333333582
        },
        {
          "name": "F4",
          "midi": 65,
          "time": 61.98522799999991,
          "velocity": 0.6299212598425197,
          "duration": 0.20863948333333582
        },
        {
          "name": "A#4",
          "midi": 70,
          "time": 62.205815999999906,
          "velocity": 0.6299212598425197,
          "duration": 0.20863948333333582
        },
        {
          "name": "C5",
          "midi": 72,
          "time": 62.426403999999906,
          "velocity": 0.6299212598425197,
          "duration": 0.41819808333332986
        },
        {
          "name": "C#5",
          "midi": 73,
          "time": 62.867579999999904,
          "velocity": 0.6299212598425197,
          "duration": 0.41819808333332986
        },
        {
          "name": "A#3",
          "midi": 58,
          "time": 63.5293439999999,
          "velocity": 0.6299212598425197,
          "duration": 0.20863948333333582
        },
        {
          "name": "F4",
          "midi": 65,
          "time": 63.7499319999999,
          "velocity": 0.6299212598425197,
          "duration": 0.20863948333333582
        },
        {
          "name": "A#4",
          "midi": 70,
          "time": 63.9705199999999,
          "velocity": 0.6299212598425197,
          "duration": 0.20863948333333582
        },
        {
          "name": "C5",
          "midi": 72,
          "time": 64.1911079999999,
          "velocity": 0.6299212598425197,
          "duration": 0.41819808333333697
        },
        {
          "name": "C#5",
          "midi": 73,
          "time": 64.6322839999999,
          "velocity": 0.6299212598425197,
          "duration": 0.41819808333333697
        },
        {
          "name": "F#3",
          "midi": 54,
          "time": 65.2940479999999,
          "velocity": 0.6299212598425197,
          "duration": 0.2086394833333287
        },
        {
          "name": "C#4",
          "midi": 61,
          "time": 65.5146359999999,
          "velocity": 0.6299212598425197,
          "duration": 0.2086394833333287
        },
        {
          "name": "F#4",
          "midi": 66,
          "time": 65.73522399999989,
          "velocity": 0.6299212598425197,
          "duration": 0.2086394833333287
        },
        {
          "name": "G#4",
          "midi": 68,
          "time": 65.95581199999988,
          "velocity": 0.6299212598425197,
          "duration": 0.41819808333333697
        },
        {
          "name": "A#4",
          "midi": 70,
          "time": 66.39698799999988,
          "velocity": 0.6299212598425197,
          "duration": 0.41819808333333697
        },
        {
          "name": "G#3",
          "midi": 56,
          "time": 67.05875199999988,
          "velocity": 0.6299212598425197,
          "duration": 0.2086394833333287
        },
        {
          "name": "D#4",
          "midi": 63,
          "time": 67.27933999999988,
          "velocity": 0.6299212598425197,
          "duration": 0.2086394833333287
        },
        {
          "name": "G#4",
          "midi": 68,
          "time": 67.49992799999987,
          "velocity": 0.6299212598425197,
          "duration": 0.2086394833333287
        },
        {
          "name": "A#4",
          "midi": 70,
          "time": 67.72051599999986,
          "velocity": 0.6299212598425197,
          "duration": 0.41819808333333697
        },
        {
          "name": "C5",
          "midi": 72,
          "time": 68.16169199999986,
          "velocity": 0.6299212598425197,
          "duration": 0.41819808333333697
        },
        {
          "name": "A#3",
          "midi": 58,
          "time": 68.82345599999987,
          "velocity": 0.6299212598425197,
          "duration": 0.2086394833333287
        },
        {
          "name": "F4",
          "midi": 65,
          "time": 69.04404399999986,
          "velocity": 0.6299212598425197,
          "duration": 0.2086394833333287
        },
        {
          "name": "A#4",
          "midi": 70,
          "time": 69.26463199999985,
          "velocity": 0.6299212598425197,
          "duration": 0.2086394833333287
        },
        {
          "name": "C5",
          "midi": 72,
          "time": 69.48521999999984,
          "velocity": 0.6299212598425197,
          "duration": 0.41819808333333697
        },
        {
          "name": "A#4",
          "midi": 70,
          "time": 69.92639599999984,
          "velocity": 0.6299212598425197,
          "duration": 0.1038601833333388
        },
        {
          "name": "F4",
          "midi": 65,
          "time": 70.03668999999985,
          "velocity": 0.6299212598425197,
          "duration": 0.1038601833333388
        },
        {
          "name": "C#4",
          "midi": 61,
          "time": 70.14698399999986,
          "velocity": 0.6299212598425197,
          "duration": 0.1038601833333388
        },
        {
          "name": "A#3",
          "midi": 58,
          "time": 70.25727799999987,
          "velocity": 0.6299212598425197,
          "duration": 0.1038601833333388
        },
        {
          "name": "F3",
          "midi": 53,
          "time": 70.36757199999988,
          "velocity": 0.6299212598425197,
          "duration": 0.1038601833333388
        },
        {
          "name": "A#2",
          "midi": 46,
          "time": 70.47786599999989,
          "velocity": 0.6299212598425197,
          "duration": 0.1038601833333388
        },
        {
          "name": "A#1",
          "midi": 34,
          "time": 70.5881599999999,
          "velocity": 0.6299212598425197,
          "duration": 0.31341878333333284
        },
        {
          "name": "A#2",
          "midi": 46,
          "time": 70.5881599999999,
          "velocity": 0.6299212598425197,
          "duration": 0.31341878333333284
        },
        {
          "name": "F3",
          "midi": 53,
          "time": 70.9190419999999,
          "velocity": 0.6299212598425197,
          "duration": 0.1038601833333388
        },
        {
          "name": "A#3",
          "midi": 58,
          "time": 71.02933599999992,
          "velocity": 0.6299212598425197,
          "duration": 0.2086394833333287
        },
        {
          "name": "C#4",
          "midi": 61,
          "time": 71.02933599999992,
          "velocity": 0.6299212598425197,
          "duration": 0.2086394833333287
        },
        {
          "name": "C#3",
          "midi": 49,
          "time": 71.24992399999991,
          "velocity": 0.6299212598425197,
          "duration": 0.627756683333331
        },
        {
          "name": "A#2",
          "midi": 46,
          "time": 71.9116879999999,
          "velocity": 0.6299212598425197,
          "duration": 0.41819808333333697
        },
        {
          "name": "F#1",
          "midi": 30,
          "time": 72.3528639999999,
          "velocity": 0.6299212598425197,
          "duration": 0.31341878333333284
        },
        {
          "name": "F#2",
          "midi": 42,
          "time": 72.3528639999999,
          "velocity": 0.6299212598425197,
          "duration": 0.31341878333333284
        },
        {
          "name": "F#3",
          "midi": 54,
          "time": 72.6837459999999,
          "velocity": 0.6299212598425197,
          "duration": 0.1038601833333388
        },
        {
          "name": "A#3",
          "midi": 58,
          "time": 72.79403999999991,
          "velocity": 0.6299212598425197,
          "duration": 0.2086394833333287
        },
        {
          "name": "D#4",
          "midi": 63,
          "time": 72.79403999999991,
          "velocity": 0.6299212598425197,
          "duration": 0.2086394833333287
        },
        {
          "name": "D#3",
          "midi": 51,
          "time": 73.0146279999999,
          "velocity": 0.6299212598425197,
          "duration": 0.627756683333331
        },
        {
          "name": "C#3",
          "midi": 49,
          "time": 73.6763919999999,
          "velocity": 0.6299212598425197,
          "duration": 0.41819808333333697
        },
        {
          "name": "G#1",
          "midi": 32,
          "time": 74.11756799999989,
          "velocity": 0.6299212598425197,
          "duration": 0.31341878333333284
        },
        {
          "name": "G#2",
          "midi": 44,
          "time": 74.11756799999989,
          "velocity": 0.6299212598425197,
          "duration": 0.31341878333333284
        },
        {
          "name": "D#3",
          "midi": 51,
          "time": 74.4484499999999,
          "velocity": 0.6299212598425197,
          "duration": 0.1038601833333388
        },
        {
          "name": "G#3",
          "midi": 56,
          "time": 74.5587439999999,
          "velocity": 0.6299212598425197,
          "duration": 0.2086394833333287
        },
        {
          "name": "C4",
          "midi": 60,
          "time": 74.5587439999999,
          "velocity": 0.6299212598425197,
          "duration": 0.2086394833333287
        },
        {
          "name": "C#3",
          "midi": 49,
          "time": 74.7793319999999,
          "velocity": 0.6299212598425197,
          "duration": 0.627756683333331
        },
        {
          "name": "C3",
          "midi": 48,
          "time": 75.44109599999989,
          "velocity": 0.6299212598425197,
          "duration": 0.41819808333333697
        },
        {
          "name": "A#1",
          "midi": 34,
          "time": 75.88227199999989,
          "velocity": 0.6299212598425197,
          "duration": 0.31341878333333284
        },
        {
          "name": "A#2",
          "midi": 46,
          "time": 75.88227199999989,
          "velocity": 0.6299212598425197,
          "duration": 0.31341878333333284
        },
        {
          "name": "F3",
          "midi": 53,
          "time": 76.21315399999989,
          "velocity": 0.6299212598425197,
          "duration": 0.1038601833333388
        },
        {
          "name": "A#3",
          "midi": 58,
          "time": 76.3234479999999,
          "velocity": 0.6299212598425197,
          "duration": 0.2086394833333287
        },
        {
          "name": "C#4",
          "midi": 61,
          "time": 76.3234479999999,
          "velocity": 0.6299212598425197,
          "duration": 0.2086394833333287
        },
        {
          "name": "C3",
          "midi": 48,
          "time": 76.54403599999989,
          "velocity": 0.6299212598425197,
          "duration": 0.627756683333331
        },
        {
          "name": "C#3",
          "midi": 49,
          "time": 77.20579999999988,
          "velocity": 0.6299212598425197,
          "duration": 0.41819808333333697
        },
        {
          "name": "A#1",
          "midi": 34,
          "time": 77.64697599999988,
          "velocity": 0.6299212598425197,
          "duration": 0.31341878333333284
        },
        {
          "name": "A#2",
          "midi": 46,
          "time": 77.64697599999988,
          "velocity": 0.6299212598425197,
          "duration": 0.31341878333333284
        },
        {
          "name": "F3",
          "midi": 53,
          "time": 77.97785799999988,
          "velocity": 0.6299212598425197,
          "duration": 0.1038601833333388
        },
        {
          "name": "A#3",
          "midi": 58,
          "time": 78.0881519999999,
          "velocity": 0.6299212598425197,
          "duration": 0.2086394833333287
        },
        {
          "name": "C#4",
          "midi": 61,
          "time": 78.0881519999999,
          "velocity": 0.6299212598425197,
          "duration": 0.2086394833333287
        },
        {
          "name": "C#3",
          "midi": 49,
          "time": 78.30873999999989,
          "velocity": 0.6299212598425197,
          "duration": 0.627756683333331
        },
        {
          "name": "A#2",
          "midi": 46,
          "time": 78.97050399999988,
          "velocity": 0.6299212598425197,
          "duration": 0.41819808333333697
        },
        {
          "name": "F#1",
          "midi": 30,
          "time": 79.41167999999988,
          "velocity": 0.6299212598425197,
          "duration": 0.31341878333333284
        },
        {
          "name": "F#2",
          "midi": 42,
          "time": 79.41167999999988,
          "velocity": 0.6299212598425197,
          "duration": 0.31341878333333284
        },
        {
          "name": "F#3",
          "midi": 54,
          "time": 79.74256199999988,
          "velocity": 0.6299212598425197,
          "duration": 0.1038601833333388
        },
        {
          "name": "A#3",
          "midi": 58,
          "time": 79.85285599999989,
          "velocity": 0.6299212598425197,
          "duration": 0.2086394833333287
        },
        {
          "name": "D#4",
          "midi": 63,
          "time": 79.85285599999989,
          "velocity": 0.6299212598425197,
          "duration": 0.2086394833333287
        },
        {
          "name": "D#3",
          "midi": 51,
          "time": 80.07344399999988,
          "velocity": 0.6299212598425197,
          "duration": 0.627756683333331
        },
        {
          "name": "C#3",
          "midi": 49,
          "time": 80.73520799999987,
          "velocity": 0.6299212598425197,
          "duration": 0.41819808333333697
        },
        {
          "name": "G#1",
          "midi": 32,
          "time": 81.17638399999987,
          "velocity": 0.6299212598425197,
          "duration": 0.31341878333333284
        },
        {
          "name": "G#2",
          "midi": 44,
          "time": 81.17638399999987,
          "velocity": 0.6299212598425197,
          "duration": 0.31341878333333284
        },
        {
          "name": "D#3",
          "midi": 51,
          "time": 81.50726599999987,
          "velocity": 0.6299212598425197,
          "duration": 0.1038601833333388
        },
        {
          "name": "G#3",
          "midi": 56,
          "time": 81.61755999999988,
          "velocity": 0.6299212598425197,
          "duration": 0.2086394833333287
        },
        {
          "name": "C4",
          "midi": 60,
          "time": 81.61755999999988,
          "velocity": 0.6299212598425197,
          "duration": 0.2086394833333287
        },
        {
          "name": "C#3",
          "midi": 49,
          "time": 81.83814799999988,
          "velocity": 0.6299212598425197,
          "duration": 0.627756683333331
        },
        {
          "name": "C3",
          "midi": 48,
          "time": 82.49991199999987,
          "velocity": 0.6299212598425197,
          "duration": 0.41819808333333697
        },
        {
          "name": "A#1",
          "midi": 34,
          "time": 82.94108799999987,
          "velocity": 0.6299212598425197,
          "duration": 0.31341878333333284
        },
        {
          "name": "A#2",
          "midi": 46,
          "time": 82.94108799999987,
          "velocity": 0.6299212598425197,
          "duration": 0.31341878333333284
        },
        {
          "name": "F3",
          "midi": 53,
          "time": 83.27196999999987,
          "velocity": 0.6299212598425197,
          "duration": 0.1038601833333388
        },
        {
          "name": "A#3",
          "midi": 58,
          "time": 83.38226399999988,
          "velocity": 0.6299212598425197,
          "duration": 0.2086394833333287
        },
        {
          "name": "C#4",
          "midi": 61,
          "time": 83.38226399999988,
          "velocity": 0.6299212598425197,
          "duration": 0.2086394833333287
        },
        {
          "name": "C3",
          "midi": 48,
          "time": 83.60285199999987,
          "velocity": 0.6299212598425197,
          "duration": 0.627756683333331
        },
        {
          "name": "C#3",
          "midi": 49,
          "time": 84.26461599999986,
          "velocity": 0.6299212598425197,
          "duration": 0.41819808333333697
        },
        {
          "name": "A#1",
          "midi": 34,
          "time": 84.70579199999986,
          "velocity": 0.6299212598425197,
          "duration": 0.31341878333333284
        },
        {
          "name": "A#2",
          "midi": 46,
          "time": 84.70579199999986,
          "velocity": 0.6299212598425197,
          "duration": 0.31341878333333284
        },
        {
          "name": "F3",
          "midi": 53,
          "time": 85.03667399999986,
          "velocity": 0.6299212598425197,
          "duration": 0.1038601833333388
        },
        {
          "name": "A#3",
          "midi": 58,
          "time": 85.14696799999987,
          "velocity": 0.6299212598425197,
          "duration": 0.2086394833333287
        },
        {
          "name": "C#4",
          "midi": 61,
          "time": 85.14696799999987,
          "velocity": 0.6299212598425197,
          "duration": 0.2086394833333287
        },
        {
          "name": "C#3",
          "midi": 49,
          "time": 85.36755599999987,
          "velocity": 0.6299212598425197,
          "duration": 0.627756683333331
        },
        {
          "name": "A#2",
          "midi": 46,
          "time": 86.02931999999986,
          "velocity": 0.6299212598425197,
          "duration": 0.41819808333333697
        },
        {
          "name": "F#1",
          "midi": 30,
          "time": 86.47049599999986,
          "velocity": 0.6299212598425197,
          "duration": 0.31341878333333284
        },
        {
          "name": "F#2",
          "midi": 42,
          "time": 86.47049599999986,
          "velocity": 0.6299212598425197,
          "duration": 0.31341878333333284
        },
        {
          "name": "F#3",
          "midi": 54,
          "time": 86.80137799999986,
          "velocity": 0.6299212598425197,
          "duration": 0.1038601833333388
        },
        {
          "name": "A#3",
          "midi": 58,
          "time": 86.91167199999987,
          "velocity": 0.6299212598425197,
          "duration": 0.2086394833333287
        },
        {
          "name": "D#4",
          "midi": 63,
          "time": 86.91167199999987,
          "velocity": 0.6299212598425197,
          "duration": 0.2086394833333287
        },
        {
          "name": "D#3",
          "midi": 51,
          "time": 87.13225999999986,
          "velocity": 0.6299212598425197,
          "duration": 0.627756683333331
        },
        {
          "name": "C#3",
          "midi": 49,
          "time": 87.79402399999985,
          "velocity": 0.6299212598425197,
          "duration": 0.41819808333333697
        },
        {
          "name": "G#1",
          "midi": 32,
          "time": 88.23519999999985,
          "velocity": 0.6299212598425197,
          "duration": 0.31341878333333284
        },
        {
          "name": "G#2",
          "midi": 44,
          "time": 88.23519999999985,
          "velocity": 0.6299212598425197,
          "duration": 0.31341878333333284
        },
        {
          "name": "D#3",
          "midi": 51,
          "time": 88.56608199999985,
          "velocity": 0.6299212598425197,
          "duration": 0.1038601833333388
        },
        {
          "name": "G#3",
          "midi": 56,
          "time": 88.67637599999986,
          "velocity": 0.6299212598425197,
          "duration": 0.2086394833333287
        },
        {
          "name": "C4",
          "midi": 60,
          "time": 88.67637599999986,
          "velocity": 0.6299212598425197,
          "duration": 0.2086394833333287
        },
        {
          "name": "C#3",
          "midi": 49,
          "time": 88.89696399999985,
          "velocity": 0.6299212598425197,
          "duration": 0.627756683333331
        },
        {
          "name": "C3",
          "midi": 48,
          "time": 89.55872799999985,
          "velocity": 0.6299212598425197,
          "duration": 0.41819808333333697
        },
        {
          "name": "A#1",
          "midi": 34,
          "time": 89.99990399999984,
          "velocity": 0.6299212598425197,
          "duration": 0.31341878333333284
        },
        {
          "name": "A#2",
          "midi": 46,
          "time": 89.99990399999984,
          "velocity": 0.6299212598425197,
          "duration": 0.31341878333333284
        },
        {
          "name": "F3",
          "midi": 53,
          "time": 90.33078599999985,
          "velocity": 0.6299212598425197,
          "duration": 0.1038601833333388
        },
        {
          "name": "A#3",
          "midi": 58,
          "time": 90.44107999999986,
          "velocity": 0.6299212598425197,
          "duration": 0.2086394833333287
        },
        {
          "name": "C#4",
          "midi": 61,
          "time": 90.44107999999986,
          "velocity": 0.6299212598425197,
          "duration": 0.2086394833333287
        },
        {
          "name": "C3",
          "midi": 48,
          "time": 90.66166799999985,
          "velocity": 0.6299212598425197,
          "duration": 0.627756683333331
        },
        {
          "name": "C#3",
          "midi": 49,
          "time": 91.32343199999984,
          "velocity": 0.6299212598425197,
          "duration": 0.41819808333333697
        },
        {
          "name": "A#1",
          "midi": 34,
          "time": 91.76460799999984,
          "velocity": 0.6299212598425197,
          "duration": 0.31341878333333284
        },
        {
          "name": "A#2",
          "midi": 46,
          "time": 91.76460799999984,
          "velocity": 0.6299212598425197,
          "duration": 0.31341878333333284
        },
        {
          "name": "F3",
          "midi": 53,
          "time": 92.09548999999984,
          "velocity": 0.6299212598425197,
          "duration": 0.1038601833333388
        },
        {
          "name": "A#3",
          "midi": 58,
          "time": 92.20578399999985,
          "velocity": 0.6299212598425197,
          "duration": 0.2086394833333287
        },
        {
          "name": "C#4",
          "midi": 61,
          "time": 92.20578399999985,
          "velocity": 0.6299212598425197,
          "duration": 0.2086394833333287
        },
        {
          "name": "C#3",
          "midi": 49,
          "time": 92.42637199999984,
          "velocity": 0.6299212598425197,
          "duration": 0.627756683333331
        },
        {
          "name": "A#2",
          "midi": 46,
          "time": 93.08813599999984,
          "velocity": 0.6299212598425197,
          "duration": 0.41819808333333697
        },
        {
          "name": "F#1",
          "midi": 30,
          "time": 93.52931199999983,
          "velocity": 0.6299212598425197,
          "duration": 0.31341878333333284
        },
        {
          "name": "F#2",
          "midi": 42,
          "time": 93.52931199999983,
          "velocity": 0.6299212598425197,
          "duration": 0.31341878333333284
        },
        {
          "name": "F#3",
          "midi": 54,
          "time": 93.86019399999984,
          "velocity": 0.6299212598425197,
          "duration": 0.1038601833333388
        },
        {
          "name": "A#3",
          "midi": 58,
          "time": 93.97048799999985,
          "velocity": 0.6299212598425197,
          "duration": 0.2086394833333287
        },
        {
          "name": "D#4",
          "midi": 63,
          "time": 93.97048799999985,
          "velocity": 0.6299212598425197,
          "duration": 0.2086394833333287
        },
        {
          "name": "D#3",
          "midi": 51,
          "time": 94.19107599999984,
          "velocity": 0.6299212598425197,
          "duration": 0.627756683333331
        },
        {
          "name": "C#3",
          "midi": 49,
          "time": 94.85283999999983,
          "velocity": 0.6299212598425197,
          "duration": 0.41819808333333697
        },
        {
          "name": "G#1",
          "midi": 32,
          "time": 95.29401599999983,
          "velocity": 0.6299212598425197,
          "duration": 0.31341878333333284
        },
        {
          "name": "G#2",
          "midi": 44,
          "time": 95.29401599999983,
          "velocity": 0.6299212598425197,
          "duration": 0.31341878333333284
        },
        {
          "name": "D#3",
          "midi": 51,
          "time": 95.62489799999983,
          "velocity": 0.6299212598425197,
          "duration": 0.1038601833333388
        },
        {
          "name": "G#3",
          "midi": 56,
          "time": 95.73519199999984,
          "velocity": 0.6299212598425197,
          "duration": 0.2086394833333287
        },
        {
          "name": "C4",
          "midi": 60,
          "time": 95.73519199999984,
          "velocity": 0.6299212598425197,
          "duration": 0.2086394833333287
        },
        {
          "name": "C#3",
          "midi": 49,
          "time": 95.95577999999983,
          "velocity": 0.6299212598425197,
          "duration": 0.627756683333331
        },
        {
          "name": "C3",
          "midi": 48,
          "time": 96.61754399999982,
          "velocity": 0.6299212598425197,
          "duration": 0.41819808333333697
        },
        {
          "name": "A#1",
          "midi": 34,
          "time": 97.05871999999982,
          "velocity": 0.6299212598425197,
          "duration": 0.31341878333333284
        },
        {
          "name": "A#2",
          "midi": 46,
          "time": 97.05871999999982,
          "velocity": 0.6299212598425197,
          "duration": 0.31341878333333284
        },
        {
          "name": "F3",
          "midi": 53,
          "time": 97.38960199999983,
          "velocity": 0.6299212598425197,
          "duration": 0.1038601833333388
        },
        {
          "name": "A#3",
          "midi": 58,
          "time": 97.49989599999984,
          "velocity": 0.6299212598425197,
          "duration": 0.2086394833333287
        },
        {
          "name": "C#4",
          "midi": 61,
          "time": 97.49989599999984,
          "velocity": 0.6299212598425197,
          "duration": 0.2086394833333287
        },
        {
          "name": "C3",
          "midi": 48,
          "time": 97.72048399999983,
          "velocity": 0.6299212598425197,
          "duration": 0.627756683333331
        },
        {
          "name": "C#3",
          "midi": 49,
          "time": 98.38224799999982,
          "velocity": 0.6299212598425197,
          "duration": 0.41819808333333697
        },
        {
          "name": "A#1",
          "midi": 34,
          "time": 98.82342399999982,
          "velocity": 0.6299212598425197,
          "duration": 0.31341878333333284
        },
        {
          "name": "A#2",
          "midi": 46,
          "time": 98.82342399999982,
          "velocity": 0.6299212598425197,
          "duration": 0.31341878333333284
        },
        {
          "name": "F3",
          "midi": 53,
          "time": 99.15430599999982,
          "velocity": 0.6299212598425197,
          "duration": 0.1038601833333388
        },
        {
          "name": "A#3",
          "midi": 58,
          "time": 99.26459999999983,
          "velocity": 0.6299212598425197,
          "duration": 0.2086394833333287
        },
        {
          "name": "C#3",
          "midi": 49,
          "time": 99.48518799999982,
          "velocity": 0.6299212598425197,
          "duration": 0.627756683333331
        },
        {
          "name": "A#2",
          "midi": 46,
          "time": 100.14695199999981,
          "velocity": 0.6299212598425197,
          "duration": 0.41819808333333697
        },
        {
          "name": "F#1",
          "midi": 30,
          "time": 100.58812799999981,
          "velocity": 0.6299212598425197,
          "duration": 0.31341878333333284
        },
        {
          "name": "F#2",
          "midi": 42,
          "time": 100.58812799999981,
          "velocity": 0.6299212598425197,
          "duration": 0.31341878333333284
        },
        {
          "name": "F#3",
          "midi": 54,
          "time": 100.91900999999982,
          "velocity": 0.6299212598425197,
          "duration": 0.1038601833333388
        },
        {
          "name": "A#3",
          "midi": 58,
          "time": 101.02930399999983,
          "velocity": 0.6299212598425197,
          "duration": 0.2086394833333287
        },
        {
          "name": "C#4",
          "midi": 61,
          "time": 101.02930399999983,
          "velocity": 0.6299212598425197,
          "duration": 0.2086394833333287
        },
        {
          "name": "D#3",
          "midi": 51,
          "time": 101.24989199999982,
          "velocity": 0.6299212598425197,
          "duration": 0.627756683333331
        },
        {
          "name": "C#3",
          "midi": 49,
          "time": 101.91165599999981,
          "velocity": 0.6299212598425197,
          "duration": 0.41819808333333697
        },
        {
          "name": "G#1",
          "midi": 32,
          "time": 102.35283199999981,
          "velocity": 0.6299212598425197,
          "duration": 0.31341878333333284
        },
        {
          "name": "G#2",
          "midi": 44,
          "time": 102.35283199999981,
          "velocity": 0.6299212598425197,
          "duration": 0.31341878333333284
        },
        {
          "name": "D#3",
          "midi": 51,
          "time": 102.68371399999981,
          "velocity": 0.6299212598425197,
          "duration": 0.1038601833333388
        },
        {
          "name": "G#3",
          "midi": 56,
          "time": 102.79400799999982,
          "velocity": 0.6299212598425197,
          "duration": 0.2086394833333287
        },
        {
          "name": "C4",
          "midi": 60,
          "time": 102.79400799999982,
          "velocity": 0.6299212598425197,
          "duration": 0.2086394833333287
        },
        {
          "name": "C#3",
          "midi": 49,
          "time": 103.01459599999981,
          "velocity": 0.6299212598425197,
          "duration": 0.627756683333331
        },
        {
          "name": "C3",
          "midi": 48,
          "time": 103.6763599999998,
          "velocity": 0.6299212598425197,
          "duration": 0.41819808333333697
        },
        {
          "name": "A#1",
          "midi": 34,
          "time": 104.1175359999998,
          "velocity": 0.6299212598425197,
          "duration": 0.31341878333333284
        },
        {
          "name": "A#2",
          "midi": 46,
          "time": 104.1175359999998,
          "velocity": 0.6299212598425197,
          "duration": 0.31341878333333284
        },
        {
          "name": "F3",
          "midi": 53,
          "time": 104.4484179999998,
          "velocity": 0.6299212598425197,
          "duration": 0.1038601833333388
        },
        {
          "name": "A#3",
          "midi": 58,
          "time": 104.55871199999982,
          "velocity": 0.6299212598425197,
          "duration": 0.2086394833333287
        },
        {
          "name": "C#4",
          "midi": 61,
          "time": 104.55871199999982,
          "velocity": 0.6299212598425197,
          "duration": 0.2086394833333287
        },
        {
          "name": "C3",
          "midi": 48,
          "time": 104.77929999999981,
          "velocity": 0.6299212598425197,
          "duration": 0.627756683333331
        },
        {
          "name": "C#3",
          "midi": 49,
          "time": 105.4410639999998,
          "velocity": 0.6299212598425197,
          "duration": 0.41819808333333697
        },
        {
          "name": "A#1",
          "midi": 34,
          "time": 105.8822399999998,
          "velocity": 0.6299212598425197,
          "duration": 0.31341878333333284
        },
        {
          "name": "A#2",
          "midi": 46,
          "time": 105.8822399999998,
          "velocity": 0.6299212598425197,
          "duration": 0.31341878333333284
        },
        {
          "name": "F3",
          "midi": 53,
          "time": 106.2131219999998,
          "velocity": 0.6299212598425197,
          "duration": 0.1038601833333388
        },
        {
          "name": "A#3",
          "midi": 58,
          "time": 106.32341599999981,
          "velocity": 0.6299212598425197,
          "duration": 0.2086394833333287
        },
        {
          "name": "C#3",
          "midi": 49,
          "time": 106.5440039999998,
          "velocity": 0.6299212598425197,
          "duration": 0.627756683333331
        },
        {
          "name": "A#2",
          "midi": 46,
          "time": 107.2057679999998,
          "velocity": 0.6299212598425197,
          "duration": 0.41819808333333697
        },
        {
          "name": "F#1",
          "midi": 30,
          "time": 107.64694399999979,
          "velocity": 0.6299212598425197,
          "duration": 0.31341878333333284
        },
        {
          "name": "F#2",
          "midi": 42,
          "time": 107.64694399999979,
          "velocity": 0.6299212598425197,
          "duration": 0.31341878333333284
        },
        {
          "name": "F#3",
          "midi": 54,
          "time": 107.9778259999998,
          "velocity": 0.6299212598425197,
          "duration": 0.1038601833333388
        },
        {
          "name": "A#3",
          "midi": 58,
          "time": 108.0881199999998,
          "velocity": 0.6299212598425197,
          "duration": 0.2086394833333287
        },
        {
          "name": "C#4",
          "midi": 61,
          "time": 108.0881199999998,
          "velocity": 0.6299212598425197,
          "duration": 0.2086394833333287
        },
        {
          "name": "D#3",
          "midi": 51,
          "time": 108.3087079999998,
          "velocity": 0.6299212598425197,
          "duration": 0.627756683333331
        },
        {
          "name": "C#3",
          "midi": 49,
          "time": 108.97047199999979,
          "velocity": 0.6299212598425197,
          "duration": 0.41819808333333697
        },
        {
          "name": "G#1",
          "midi": 32,
          "time": 109.41164799999979,
          "velocity": 0.6299212598425197,
          "duration": 0.31341878333333284
        },
        {
          "name": "G#2",
          "midi": 44,
          "time": 109.41164799999979,
          "velocity": 0.6299212598425197,
          "duration": 0.31341878333333284
        },
        {
          "name": "D#3",
          "midi": 51,
          "time": 109.74252999999979,
          "velocity": 0.6299212598425197,
          "duration": 0.1038601833333388
        },
        {
          "name": "G#3",
          "midi": 56,
          "time": 109.8528239999998,
          "velocity": 0.6299212598425197,
          "duration": 0.2086394833333287
        },
        {
          "name": "C4",
          "midi": 60,
          "time": 109.8528239999998,
          "velocity": 0.6299212598425197,
          "duration": 0.2086394833333287
        },
        {
          "name": "C#3",
          "midi": 49,
          "time": 110.07341199999979,
          "velocity": 0.6299212598425197,
          "duration": 0.627756683333331
        },
        {
          "name": "C3",
          "midi": 48,
          "time": 110.73517599999978,
          "velocity": 0.6299212598425197,
          "duration": 0.41819808333333697
        },
        {
          "name": "A#1",
          "midi": 34,
          "time": 111.17635199999978,
          "velocity": 0.6299212598425197,
          "duration": 1.6755496833333297
        },
        {
          "name": "A#2",
          "midi": 46,
          "time": 111.17635199999978,
          "velocity": 0.6299212598425197,
          "duration": 1.6755496833333297
        }
      ],
      "controlChanges": {},
      "id": 1,
      "channelNumber": 0,
      "isPercussion": false
    }
  ]
}