{
  "header": {
    "PPQ": 480,
    "timeSignature": [
      4,
      4
    ],
    "bpm": 150,
    "name": ""
  },
  "startTime": 0,
  "duration": 103.99916666666653,
  "tracks": [
    {
      "startTime": 0,
      "duration": 103.99916666666653,
      "length": 413,
      "notes": [
        {
          "name": "A#5",
          "midi": 82,
          "time": 0,
          "velocity": 0.6299212598425197,
          "duration": 0.37916666666666665
        },
        {
          "name": "A#6",
          "midi": 94,
          "time": 0,
          "velocity": 0.6299212598425197,
          "duration": 0.37916666666666665
        },
        {
          "name": "A#5",
          "midi": 82,
          "time": 0.39999999999999997,
          "velocity": 0.6299212598425197,
          "duration": 0.3791666666666666
        },
        {
          "name": "A#6",
          "midi": 94,
          "time": 0.39999999999999997,
          "velocity": 0.6299212598425197,
          "duration": 0.3791666666666666
        },
        {
          "name": "A#5",
          "midi": 82,
          "time": 0.7999999999999999,
          "velocity": 0.6299212598425197,
          "duration": 0.1891666666666667
        },
        {
          "name": "A#6",
          "midi": 94,
          "time": 0.7999999999999999,
          "velocity": 0.6299212598425197,
          "duration": 0.1891666666666667
        },
        {
          "name": "G#5",
          "midi": 80,
          "time": 1,
          "velocity": 0.6299212598425197,
          "duration": 0.1891666666666667
        },
        {
          "name": "G#6",
          "midi": 92,
          "time": 1,
          "velocity": 0.6299212598425197,
          "duration": 0.1891666666666667
        },
        {
          "name": "F5",
          "midi": 77,
          "time": 1.2,
          "velocity": 0.6299212598425197,
          "duration": 1.1391666666666669
        },
        {
          "name": "F6",
          "midi": 89,
          "time": 1.2,
          "velocity": 0.6299212598425197,
          "duration": 1.3291666666666668
        },
        {
          "name": "D#5",
          "midi": 75,
          "time": 2.6,
          "velocity": 0.6299212598425197,
          "duration": 0.18916666666666648
        },
        {
          "name": "D#6",
          "midi": 87,
          "time": 2.6,
          "velocity": 0.6299212598425197,
          "duration": 0.18916666666666648
        },
        {
          "name": "G#5",
          "midi": 80,
          "time": 2.8,
          "velocity": 0.6299212598425197,
          "duration": 0.18916666666666648
        },
        {
          "name": "G#6",
          "midi": 92,
          "time": 2.8,
          "velocity": 0.6299212598425197,
          "duration": 0.18916666666666648
        },
        {
          "name": "F5",
          "midi": 77,
          "time": 2.9999999999999996,
          "velocity": 0.6299212598425197,
          "duration": 0.18916666666666648
        },
        {
          "name": "F6",
          "midi": 89,
          "time": 2.9999999999999996,
          "velocity": 0.6299212598425197,
          "duration": 0.18916666666666648
        },
        {
          "name": "D#5",
          "midi": 75,
          "time": 3.1999999999999993,
          "velocity": 0.6299212598425197,
          "duration": 0.37916666666666643
        },
        {
          "name": "D#6",
          "midi": 87,
          "time": 3.1999999999999993,
          "velocity": 0.6299212598425197,
          "duration": 0.37916666666666643
        },
        {
          "name": "F5",
          "midi": 77,
          "time": 3.599999999999999,
          "velocity": 0.6299212598425197,
          "duration": 0.3791666666666669
        },
        {
          "name": "F6",
          "midi": 89,
          "time": 3.599999999999999,
          "velocity": 0.6299212598425197,
          "duration": 0.3791666666666669
        },
        {
          "name": "D#5",
          "midi": 75,
          "time": 3.9999999999999996,
          "velocity": 0.6299212598425197,
          "duration": 0.18916666666666648
        },
        {
          "name": "D#6",
          "midi": 87,
          "time": 3.9999999999999996,
          "velocity": 0.6299212598425197,
          "duration": 0.18916666666666648
        },
        {
          "name": "C#5",
          "midi": 73,
          "time": 4.199999999999999,
          "velocity": 0.6299212598425197,
          "duration": 0.18916666666666693
        },
        {
          "name": "C#6",
          "midi": 85,
          "time": 4.199999999999999,
          "velocity": 0.6299212598425197,
          "duration": 0.18916666666666693
        },
        {
          "name": "A#4",
          "midi": 70,
          "time": 4.3999999999999995,
          "velocity": 0.6299212598425197,
          "duration": 0.37916666666666643
        },
        {
          "name": "A#5",
          "midi": 82,
          "time": 4.3999999999999995,
          "velocity": 0.6299212598425197,
          "duration": 1.519166666666666
        },
        {
          "name": "A#4",
          "midi": 70,
          "time": 4.799999999999999,
          "velocity": 0.6299212598425197,
          "duration": 1.1391666666666662
        },
        {
          "name": "F5",
          "midi": 77,
          "time": 5.999999999999998,
          "velocity": 0.6299212598425197,
          "duration": 0.18916666666666693
        },
        {
          "name": "F6",
          "midi": 89,
          "time": 5.999999999999998,
          "velocity": 0.6299212598425197,
          "duration": 0.18916666666666693
        },
        {
          "name": "G#5",
          "midi": 80,
          "time": 6.199999999999998,
          "velocity": 0.6299212598425197,
          "duration": 0.18916666666666693
        },
        {
          "name": "G#6",
          "midi": 92,
          "time": 6.199999999999998,
          "velocity": 0.6299212598425197,
          "duration": 0.18916666666666693
        },
        {
          "name": "A#5",
          "midi": 82,
          "time": 6.399999999999999,
          "velocity": 0.6299212598425197,
          "duration": 0.37916666666666643
        },
        {
          "name": "A#6",
          "midi": 94,
          "time": 6.399999999999999,
          "velocity": 0.6299212598425197,
          "duration": 0.37916666666666643
        },
        {
          "name": "A#5",
          "midi": 82,
          "time": 6.799999999999998,
          "velocity": 0.6299212598425197,
          "duration": 0.37916666666666643
        },
        {
          "name": "A#6",
          "midi": 94,
          "time": 6.799999999999998,
          "velocity": 0.6299212598425197,
          "duration": 0.37916666666666643
        },
        {
          "name": "A#5",
          "midi": 82,
          "time": 7.1999999999999975,
          "velocity": 0.6299212598425197,
          "duration": 0.18916666666666693
        },
        {
          "name": "A#6",
          "midi": 94,
          "time": 7.1999999999999975,
          "velocity": 0.6299212598425197,
          "duration": 0.18916666666666693
        },
        {
          "name": "G#5",
          "midi": 80,
          "time": 7.399999999999998,
          "velocity": 0.6299212598425197,
          "duration": 0.18916666666666693
        },
        {
          "name": "G#6",
          "midi": 92,
          "time": 7.399999999999998,
          "velocity": 0.6299212598425197,
          "duration": 0.18916666666666693
        },
        {
          "name": "F5",
          "midi": 77,
          "time": 7.599999999999998,
          "velocity": 0.6299212598425197,
          "duration": 1.1391666666666662
        },
        {
          "name": "F6",
          "midi": 89,
          "time": 7.599999999999998,
          "velocity": 0.6299212598425197,
          "duration": 1.3291666666666657
        },
        {
          "name": "D#5",
          "midi": 75,
          "time": 8.999999999999996,
          "velocity": 0.6299212598425197,
          "duration": 0.18916666666666693
        },
        {
          "name": "D#6",
          "midi": 87,
          "time": 8.999999999999996,
          "velocity": 0.6299212598425197,
          "duration": 0.18916666666666693
        },
        {
          "name": "G#5",
          "midi": 80,
          "time": 9.199999999999998,
          "velocity": 0.6299212598425197,
          "duration": 0.18916666666666693
        },
        {
          "name": "G#6",
          "midi": 92,
          "time": 9.199999999999998,
          "velocity": 0.6299212598425197,
          "duration": 0.18916666666666693
        },
        {
          "name": "F5",
          "midi": 77,
          "time": 9.399999999999999,
          "velocity": 0.6299212598425197,
          "duration": 0.18916666666666693
        },
        {
          "name": "F6",
          "midi": 89,
          "time": 9.399999999999999,
          "velocity": 0.6299212598425197,
          "duration": 0.18916666666666693
        },
        {
          "name": "D#5",
          "midi": 75,
          "time": 9.6,
          "velocity": 0.6299212598425197,
          "duration": 0.37916666666666643
        },
        {
          "name": "D#6",
          "midi": 87,
          "time": 9.6,
          "velocity": 0.6299212598425197,
          "duration": 0.37916666666666643
        },
        {
          "name": "F5",
          "midi": 77,
          "time": 10,
          "velocity": 0.6299212598425197,
          "duration": 0.37916666666666643
        },
        {
          "name": "F6",
          "midi": 89,
          "time": 10,
          "velocity": 0.6299212598425197,
          "duration": 0.37916666666666643
        },
        {
          "name": "D#5",
          "midi": 75,
          "time": 10.4,
          "velocity": 0.6299212598425197,
          "duration": 0.18916666666666693
        },
        {
          "name": "D#6",
          "midi": 87,
          "time": 10.4,
          "velocity": 0.6299212598425197,
          "duration": 0.18916666666666693
        },
        {
          "name": "C#5",
          "midi": 73,
          "time": 10.600000000000001,
          "velocity": 0.6299212598425197,
          "duration": 0.18916666666666693
        },
        {
          "name": "C#6",
          "midi": 85,
          "time": 10.600000000000001,
          "velocity": 0.6299212598425197,
          "duration": 0.18916666666666693
        },
        {
          "name": "A#4",
          "midi": 70,
          "time": 10.800000000000002,
          "velocity": 0.6299212598425197,
          "duration": 1.519166666666667
        },
        {
          "name": "A#5",
          "midi": 82,
          "time": 10.800000000000002,
          "velocity": 0.6299212598425197,
          "duration": 1.519166666666667
        },
        {
          "name": "C#5",
          "midi": 73,
          "time": 12.400000000000002,
          "velocity": 0.6299212598425197,
          "duration": 0.12583333333333258
        },
        {
          "name": "D#5",
          "midi": 75,
          "time": 12.533333333333335,
          "velocity": 0.6299212598425197,
          "duration": 0.12583333333333258
        },
        {
          "name": "F5",
          "midi": 77,
          "time": 12.666666666666668,
          "velocity": 0.6299212598425197,
          "duration": 0.12583333333333258
        },
        {
          "name": "C#5",
          "midi": 73,
          "time": 12.8,
          "velocity": 0.6299212598425197,
          "duration": 0.37916666666666643
        },
        {
          "name": "D#5",
          "midi": 75,
          "time": 12.8,
          "velocity": 0.6299212598425197,
          "duration": 0.37916666666666643
        },
        {
          "name": "A#4",
          "midi": 70,
          "time": 13.200000000000001,
          "velocity": 0.6299212598425197,
          "duration": 0.7591666666666672
        },
        {
          "name": "C#5",
          "midi": 73,
          "time": 14.000000000000002,
          "velocity": 0.6299212598425197,
          "duration": 0.12583333333333258
        },
        {
          "name": "D#5",
          "midi": 75,
          "time": 14.133333333333335,
          "velocity": 0.6299212598425197,
          "duration": 0.12583333333333258
        },
        {
          "name": "F5",
          "midi": 77,
          "time": 14.266666666666667,
          "velocity": 0.6299212598425197,
          "duration": 0.12583333333333258
        },
        {
          "name": "D#5",
          "midi": 75,
          "time": 14.4,
          "velocity": 0.6299212598425197,
          "duration": 1.1391666666666662
        },
        {
          "name": "C#5",
          "midi": 73,
          "time": 15.6,
          "velocity": 0.6299212598425197,
          "duration": 0.12583333333333258
        },
        {
          "name": "D#5",
          "midi": 75,
          "time": 15.733333333333333,
          "velocity": 0.6299212598425197,
          "duration": 0.12583333333333258
        },
        {
          "name": "F5",
          "midi": 77,
          "time": 15.866666666666665,
          "velocity": 0.6299212598425197,
          "duration": 0.12583333333333258
        },
        {
          "name": "D#5",
          "midi": 75,
          "time": 15.999999999999998,
          "velocity": 0.6299212598425197,
          "duration": 0.3791666666666682
        },
        {
          "name": "F4",
          "midi": 65,
          "time": 16.4,
          "velocity": 0.6299212598425197,
          "duration": 0.7591666666666654
        },
        {
          "name": "A#4",
          "midi": 70,
          "time": 16.4,
          "velocity": 0.6299212598425197,
          "duration": 0.7591666666666654
        },
        {
          "name": "C#5",
          "midi": 73,
          "time": 17.199999999999996,
          "velocity": 0.6299212598425197,
          "duration": 0.12583333333333258
        },
        {
          "name": "D#5",
          "midi": 75,
          "time": 17.33333333333333,
          "velocity": 0.6299212598425197,
          "duration": 0.12583333333333258
        },
        {
          "name": "F5",
          "midi": 77,
          "time": 17.46666666666666,
          "velocity": 0.6299212598425197,
          "duration": 0.12583333333333258
        },
        {
          "name": "D#5",
          "midi": 75,
          "time": 17.599999999999994,
          "velocity": 0.6299212598425197,
          "duration": 1.139166666666668
        },
        {
          "name": "C#5",
          "midi": 73,
          "time": 18.799999999999997,
          "velocity": 0.6299212598425197,
          "duration": 0.12583333333333258
        },
        {
          "name": "D#5",
          "midi": 75,
          "time": 18.93333333333333,
          "velocity": 0.6299212598425197,
          "duration": 0.12583333333333258
        },
        {
          "name": "F5",
          "midi": 77,
          "time": 19.066666666666663,
          "velocity": 0.6299212598425197,
          "duration": 0.12583333333333258
        },
        {
          "name": "D#5",
          "midi": 75,
          "time": 19.199999999999996,
          "velocity": 0.6299212598425197,
          "duration": 0.37916666666666643
        },
        {
          "name": "A#4",
          "midi": 70,
          "time": 19.599999999999994,
          "velocity": 0.6299212598425197,
          "duration": 0.7591666666666654
        },
        {
          "name": "C#5",
          "midi": 73,
          "time": 20.39999999999999,
          "velocity": 0.6299212598425197,
          "duration": 0.12583333333333258
        },
        {
          "name": "D#5",
          "midi": 75,
          "time": 20.533333333333324,
          "velocity": 0.6299212598425197,
          "duration": 0.12583333333333258
        },
        {
          "name": "F5",
          "midi": 77,
          "time": 20.666666666666657,
          "velocity": 0.6299212598425197,
          "duration": 0.12583333333333258
        },
        {
          "name": "D#5",
          "midi": 75,
          "time": 20.79999999999999,
          "velocity": 0.6299212598425197,
          "duration": 1.139166666666668
        },
        {
          "name": "C#5",
          "midi": 73,
          "time": 21.999999999999993,
          "velocity": 0.6299212598425197,
          "duration": 0.12583333333333258
        },
        {
          "name": "D#5",
          "midi": 75,
          "time": 22.133333333333326,
          "velocity": 0.6299212598425197,
          "duration": 0.12583333333333258
        },
        {
          "name": "F5",
          "midi": 77,
          "time": 22.26666666666666,
          "velocity": 0.6299212598425197,
          "duration": 0.12583333333333258
        },
        {
          "name": "D#5",
          "midi": 75,
          "time": 22.39999999999999,
          "velocity": 0.6299212598425197,
          "duration": 0.37916666666666643
        },
        {
          "name": "A#4",
          "midi": 70,
          "time": 22.79999999999999,
          "velocity": 0.6299212598425197,
          "duration": 0.7591666666666654
        },
        {
          "name": "C#5",
          "midi": 73,
          "time": 23.599999999999987,
          "velocity": 0.6299212598425197,
          "duration": 0.12583333333333258
        },
        {
          "name": "C5",
          "midi": 72,
          "time": 23.73333333333332,
          "velocity": 0.6299212598425197,
          "duration": 0.12583333333333258
        },
        {
          "name": "A#4",
          "midi": 70,
          "time": 23.866666666666653,
          "velocity": 0.6299212598425197,
          "duration": 0.12583333333333258
        },
        {
          "name": "F5",
          "midi": 77,
          "time": 23.999999999999986,
          "velocity": 0.6299212598425197,
          "duration": 0.9491666666666667
        },
        {
          "name": "A#4",
          "midi": 70,
          "time": 24.999999999999986,
          "velocity": 0.6299212598425197,
          "duration": 0.18916666666666515
        },
        {
          "name": "F5",
          "midi": 77,
          "time": 24.999999999999986,
          "velocity": 0.6299212598425197,
          "duration": 0.18916666666666515
        },
        {
          "name": "C5",
          "midi": 72,
          "time": 25.199999999999985,
          "velocity": 0.6299212598425197,
          "duration": 0.18916666666666515
        },
        {
          "name": "D#5",
          "midi": 75,
          "time": 25.199999999999985,
          "velocity": 0.6299212598425197,
          "duration": 0.18916666666666515
        },
        {
          "name": "A#4",
          "midi": 70,
          "time": 25.399999999999984,
          "velocity": 0.6299212598425197,
          "duration": 0.18916666666666515
        },
        {
          "name": "C#5",
          "midi": 73,
          "time": 25.399999999999984,
          "velocity": 0.6299212598425197,
          "duration": 0.18916666666666515
        },
        {
          "name": "D#4",
          "midi": 63,
          "time": 25.599999999999984,
          "velocity": 0.6299212598425197,
          "duration": 0.28416666666666757
        },
        {
          "name": "D#5",
          "midi": 75,
          "time": 25.599999999999984,
          "velocity": 0.6299212598425197,
          "duration": 0.28416666666666757
        },
        {
          "name": "D#4",
          "midi": 63,
          "time": 25.899999999999984,
          "velocity": 0.6299212598425197,
          "duration": 0.09416666666666629
        },
        {
          "name": "D#5",
          "midi": 75,
          "time": 25.899999999999984,
          "velocity": 0.6299212598425197,
          "duration": 0.284166666666664
        },
        {
          "name": "D#4",
          "midi": 63,
          "time": 25.999999999999982,
          "velocity": 0.6299212598425197,
          "duration": 0.18916666666666515
        },
        {
          "name": "F4",
          "midi": 65,
          "time": 26.19999999999998,
          "velocity": 0.6299212598425197,
          "duration": 0.18916666666666515
        },
        {
          "name": "F5",
          "midi": 77,
          "time": 26.19999999999998,
          "velocity": 0.6299212598425197,
          "duration": 0.18916666666666515
        },
        {
          "name": "F4",
          "midi": 65,
          "time": 26.39999999999998,
          "velocity": 0.6299212598425197,
          "duration": 0.37916666666666643
        },
        {
          "name": "F5",
          "midi": 77,
          "time": 26.39999999999998,
          "velocity": 0.6299212598425197,
          "duration": 0.37916666666666643
        },
        {
          "name": "C#5",
          "midi": 73,
          "time": 26.999999999999982,
          "velocity": 0.6299212598425197,
          "duration": 0.18916666666666515
        },
        {
          "name": "C#6",
          "midi": 85,
          "time": 26.999999999999982,
          "velocity": 0.6299212598425197,
          "duration": 0.18916666666666515
        },
        {
          "name": "D#5",
          "midi": 75,
          "time": 27.19999999999998,
          "velocity": 0.6299212598425197,
          "duration": 0.28416666666666757
        },
        {
          "name": "D#6",
          "midi": 87,
          "time": 27.19999999999998,
          "velocity": 0.6299212598425197,
          "duration": 0.28416666666666757
        },
        {
          "name": "D#5",
          "midi": 75,
          "time": 27.499999999999982,
          "velocity": 0.6299212598425197,
          "duration": 0.09416666666666629
        },
        {
          "name": "D#6",
          "midi": 87,
          "time": 27.499999999999982,
          "velocity": 0.6299212598425197,
          "duration": 0.284166666666664
        },
        {
          "name": "D#5",
          "midi": 75,
          "time": 27.59999999999998,
          "velocity": 0.6299212598425197,
          "duration": 0.18916666666666515
        },
        {
          "name": "F5",
          "midi": 77,
          "time": 27.79999999999998,
          "velocity": 0.6299212598425197,
          "duration": 0.18916666666666515
        },
        {
          "name": "F6",
          "midi": 89,
          "time": 27.79999999999998,
          "velocity": 0.6299212598425197,
          "duration": 0.18916666666666515
        },
        {
          "name": "F5",
          "midi": 77,
          "time": 27.99999999999998,
          "velocity": 0.6299212598425197,
          "duration": 0.37916666666666643
        },
        {
          "name": "F6",
          "midi": 89,
          "time": 27.99999999999998,
          "velocity": 0.6299212598425197,
          "duration": 0.37916666666666643
        },
        {
          "name": "A#4",
          "midi": 70,
          "time": 28.399999999999977,
          "velocity": 0.6299212598425197,
          "duration": 0.37916666666666643
        },
        {
          "name": "A#5",
          "midi": 82,
          "time": 28.399999999999977,
          "velocity": 0.6299212598425197,
          "duration": 0.37916666666666643
        },
        {
          "name": "D#4",
          "midi": 63,
          "time": 28.799999999999976,
          "velocity": 0.6299212598425197,
          "duration": 0.28416666666666757
        },
        {
          "name": "D#5",
          "midi": 75,
          "time": 28.799999999999976,
          "velocity": 0.6299212598425197,
          "duration": 0.28416666666666757
        },
        {
          "name": "D#4",
          "midi": 63,
          "time": 29.099999999999977,
          "velocity": 0.6299212598425197,
          "duration": 0.09416666666666629
        },
        {
          "name": "D#5",
          "midi": 75,
          "time": 29.099999999999977,
          "velocity": 0.6299212598425197,
          "duration": 0.284166666666664
        },
        {
          "name": "D#4",
          "midi": 63,
          "time": 29.199999999999974,
          "velocity": 0.6299212598425197,
          "duration": 0.18916666666666515
        },
        {
          "name": "F4",
          "midi": 65,
          "time": 29.399999999999974,
          "velocity": 0.6299212598425197,
          "duration": 0.18916666666666515
        },
        {
          "name": "F5",
          "midi": 77,
          "time": 29.399999999999974,
          "velocity": 0.6299212598425197,
          "duration": 0.18916666666666515
        },
        {
          "name": "F4",
          "midi": 65,
          "time": 29.599999999999973,
          "velocity": 0.6299212598425197,
          "duration": 0.37916666666666643
        },
        {
          "name": "F5",
          "midi": 77,
          "time": 29.599999999999973,
          "velocity": 0.6299212598425197,
          "duration": 0.37916666666666643
        },
        {
          "name": "C#4",
          "midi": 61,
          "time": 30.199999999999974,
          "velocity": 0.6299212598425197,
          "duration": 0.18916666666666515
        },
        {
          "name": "C#5",
          "midi": 73,
          "time": 30.199999999999974,
          "velocity": 0.6299212598425197,
          "duration": 0.18916666666666515
        },
        {
          "name": "D#4",
          "midi": 63,
          "time": 30.399999999999974,
          "velocity": 0.6299212598425197,
          "duration": 0.28416666666666757
        },
        {
          "name": "D#5",
          "midi": 75,
          "time": 30.399999999999974,
          "velocity": 0.6299212598425197,
          "duration": 0.28416666666666757
        },
        {
          "name": "D#4",
          "midi": 63,
          "time": 30.699999999999974,
          "velocity": 0.6299212598425197,
          "duration": 0.09416666666666629
        },
        {
          "name": "D#5",
          "midi": 75,
          "time": 30.699999999999974,
          "velocity": 0.6299212598425197,
          "duration": 0.284166666666664
        },
        {
          "name": "D#4",
          "midi": 63,
          "time": 30.799999999999972,
          "velocity": 0.6299212598425197,
          "duration": 0.18916666666666515
        },
        {
          "name": "F4",
          "midi": 65,
          "time": 30.99999999999997,
          "velocity": 0.6299212598425197,
          "duration": 0.18916666666666515
        },
        {
          "name": "F5",
          "midi": 77,
          "time": 30.99999999999997,
          "velocity": 0.6299212598425197,
          "duration": 0.18916666666666515
        },
        {
          "name": "F4",
          "midi": 65,
          "time": 31.19999999999997,
          "velocity": 0.6299212598425197,
          "duration": 0.37916666666666643
        },
        {
          "name": "F5",
          "midi": 77,
          "time": 31.19999999999997,
          "velocity": 0.6299212598425197,
          "duration": 0.37916666666666643
        },
        {
          "name": "D#5",
          "midi": 75,
          "time": 31.59999999999997,
          "velocity": 0.7559055118110236,
          "duration": 0.09416666666666629
        },
        {
          "name": "A#4",
          "midi": 70,
          "time": 31.699999999999967,
          "velocity": 0.7559055118110236,
          "duration": 0.09416666666666629
        },
        {
          "name": "F#4",
          "midi": 66,
          "time": 31.799999999999965,
          "velocity": 0.7559055118110236,
          "duration": 0.09416666666666629
        },
        {
          "name": "C#4",
          "midi": 61,
          "time": 31.899999999999963,
          "velocity": 0.7559055118110236,
          "duration": 0.09416666666666629
        },
        {
          "name": "D#4",
          "midi": 63,
          "time": 31.99999999999996,
          "velocity": 0.7559055118110236,
          "duration": 0.28416666666666757
        },
        {
          "name": "D#5",
          "midi": 75,
          "time": 31.99999999999996,
          "velocity": 0.7559055118110236,
          "duration": 0.28416666666666757
        },
        {
          "name": "D#4",
          "midi": 63,
          "time": 32.29999999999996,
          "velocity": 0.7559055118110236,
          "duration": 0.09416666666666629
        },
        {
          "name": "D#5",
          "midi": 75,
          "time": 32.29999999999996,
          "velocity": 0.7559055118110236,
          "duration": 0.2841666666666711
        },
        {
          "name": "D#4",
          "midi": 63,
          "time": 32.39999999999996,
          "velocity": 0.7559055118110236,
          "duration": 0.18916666666667226
        },
        {
          "name": "F4",
          "midi": 65,
          "time": 32.599999999999966,
          "velocity": 0.7559055118110236,
          "duration": 0.18916666666666515
        },
        {
          "name": "F5",
          "midi": 77,
          "time": 32.599999999999966,
          "velocity": 0.7559055118110236,
          "duration": 0.18916666666666515
        },
        {
          "name": "F4",
          "midi": 65,
          "time": 32.79999999999996,
          "velocity": 0.7559055118110236,
          "duration": 0.37916666666667
        },
        {
          "name": "F5",
          "midi": 77,
          "time": 32.79999999999996,
          "velocity": 0.7559055118110236,
          "duration": 0.37916666666667
        },
        {
          "name": "A#4",
          "midi": 70,
          "time": 33.39999999999996,
          "velocity": 0.7559055118110236,
          "duration": 0.18916666666666515
        },
        {
          "name": "C#5",
          "midi": 73,
          "time": 33.39999999999996,
          "velocity": 0.7559055118110236,
          "duration": 0.18916666666666515
        },
        {
          "name": "D#5",
          "midi": 75,
          "time": 33.59999999999996,
          "velocity": 0.7559055118110236,
          "duration": 0.284166666666664
        },
        {
          "name": "D#6",
          "midi": 87,
          "time": 33.59999999999996,
          "velocity": 0.7559055118110236,
          "duration": 0.284166666666664
        },
        {
          "name": "D#5",
          "midi": 75,
          "time": 33.899999999999956,
          "velocity": 0.7559055118110236,
          "duration": 0.09416666666666629
        },
        {
          "name": "D#6",
          "midi": 87,
          "time": 33.899999999999956,
          "velocity": 0.7559055118110236,
          "duration": 0.2841666666666711
        },
        {
          "name": "D#5",
          "midi": 75,
          "time": 33.99999999999996,
          "velocity": 0.7559055118110236,
          "duration": 0.18916666666667226
        },
        {
          "name": "F5",
          "midi": 77,
          "time": 34.19999999999996,
          "velocity": 0.7559055118110236,
          "duration": 0.18916666666666515
        },
        {
          "name": "F6",
          "midi": 89,
          "time": 34.19999999999996,
          "velocity": 0.7559055118110236,
          "duration": 0.18916666666666515
        },
        {
          "name": "F5",
          "midi": 77,
          "time": 34.399999999999956,
          "velocity": 0.7559055118110236,
          "duration": 0.37916666666667
        },
        {
          "name": "F6",
          "midi": 89,
          "time": 34.399999999999956,
          "velocity": 0.7559055118110236,
          "duration": 0.37916666666667
        },
        {
          "name": "A#4",
          "midi": 70,
          "time": 34.79999999999996,
          "velocity": 0.7559055118110236,
          "duration": 0.37916666666667
        },
        {
          "name": "A#5",
          "midi": 82,
          "time": 34.79999999999996,
          "velocity": 0.7559055118110236,
          "duration": 0.37916666666667
        },
        {
          "name": "G#4",
          "midi": 68,
          "time": 35.19999999999997,
          "velocity": 0.7559055118110236,
          "duration": 0.149166666666666
        },
        {
          "name": "C5",
          "midi": 72,
          "time": 35.19999999999997,
          "velocity": 0.7559055118110236,
          "duration": 0.149166666666666
        },
        {
          "name": "D#5",
          "midi": 75,
          "time": 35.19999999999997,
          "velocity": 0.7559055118110236,
          "duration": 0.149166666666666
        },
        {
          "name": "G#4",
          "midi": 68,
          "time": 35.499999999999964,
          "velocity": 0.7086614173228346,
          "duration": 0.23916666666666941
        },
        {
          "name": "D#5",
          "midi": 75,
          "time": 35.499999999999964,
          "velocity": 0.7086614173228346,
          "duration": 0.23916666666666941
        },
        {
          "name": "A#4",
          "midi": 70,
          "time": 35.79999999999997,
          "velocity": 0.6614173228346457,
          "duration": 0.09916666666666885
        },
        {
          "name": "F5",
          "midi": 77,
          "time": 35.79999999999997,
          "velocity": 0.6614173228346457,
          "duration": 0.09916666666666885
        },
        {
          "name": "F5",
          "midi": 77,
          "time": 35.99999999999997,
          "velocity": 0.6299212598425197,
          "duration": 0.09916666666666885
        },
        {
          "name": "F6",
          "midi": 89,
          "time": 35.99999999999997,
          "velocity": 0.6299212598425197,
          "duration": 0.09916666666666885
        },
        {
          "name": "D#5",
          "midi": 75,
          "time": 36.199999999999974,
          "velocity": 0.5984251968503937,
          "duration": 0.09916666666666885
        },
        {
          "name": "D#6",
          "midi": 87,
          "time": 36.199999999999974,
          "velocity": 0.5984251968503937,
          "duration": 0.09916666666666885
        },
        {
          "name": "C#5",
          "midi": 73,
          "time": 36.39999999999998,
          "velocity": 0.5669291338582677,
          "duration": 1.139166666666668
        },
        {
          "name": "A#5",
          "midi": 82,
          "time": 37.99999999999998,
          "velocity": 0.5039370078740157,
          "duration": 0.09416666666666629
        },
        {
          "name": "C#6",
          "midi": 85,
          "time": 38.09999999999998,
          "velocity": 0.5354330708661418,
          "duration": 0.09416666666666629
        },
        {
          "name": "F6",
          "midi": 89,
          "time": 38.19999999999998,
          "velocity": 0.5669291338582677,
          "duration": 0.09416666666666629
        },
        {
          "name": "G#6",
          "midi": 92,
          "time": 38.29999999999998,
          "velocity": 0.5984251968503937,
          "duration": 0.09416666666666629
        },
        {
          "name": "A#5",
          "midi": 82,
          "time": 38.399999999999984,
          "velocity": 0.6299212598425197,
          "duration": 0.7591666666666654
        },
        {
          "name": "A#6",
          "midi": 94,
          "time": 38.399999999999984,
          "velocity": 0.6299212598425197,
          "duration": 0.7591666666666654
        },
        {
          "name": "A#5",
          "midi": 82,
          "time": 39.19999999999998,
          "velocity": 0.6299212598425197,
          "duration": 0.18916666666666515
        },
        {
          "name": "A#6",
          "midi": 94,
          "time": 39.19999999999998,
          "velocity": 0.6299212598425197,
          "duration": 0.18916666666666515
        },
        {
          "name": "G#5",
          "midi": 80,
          "time": 39.39999999999998,
          "velocity": 0.6299212598425197,
          "duration": 0.5691666666666677
        },
        {
          "name": "G#6",
          "midi": 92,
          "time": 39.39999999999998,
          "velocity": 0.6299212598425197,
          "duration": 0.5691666666666677
        },
        {
          "name": "F5",
          "midi": 77,
          "time": 39.99999999999998,
          "velocity": 0.7559055118110236,
          "duration": 0.7591666666666654
        },
        {
          "name": "F6",
          "midi": 89,
          "time": 39.99999999999998,
          "velocity": 0.7559055118110236,
          "duration": 0.7591666666666654
        },
        {
          "name": "F5",
          "midi": 77,
          "time": 40.99999999999998,
          "velocity": 0.7559055118110236,
          "duration": 0.18916666666666515
        },
        {
          "name": "F6",
          "midi": 89,
          "time": 40.99999999999998,
          "velocity": 0.7559055118110236,
          "duration": 0.18916666666666515
        },
        {
          "name": "G#5",
          "midi": 80,
          "time": 41.199999999999974,
          "velocity": 0.7559055118110236,
          "duration": 0.18916666666666515
        },
        {
          "name": "G#6",
          "midi": 92,
          "time": 41.199999999999974,
          "velocity": 0.7559055118110236,
          "duration": 0.18916666666666515
        },
        {
          "name": "F5",
          "midi": 77,
          "time": 41.39999999999997,
          "velocity": 0.7559055118110236,
          "duration": 0.18916666666666515
        },
        {
          "name": "F6",
          "midi": 89,
          "time": 41.39999999999997,
          "velocity": 0.7559055118110236,
          "duration": 0.18916666666666515
        },
        {
          "name": "D#5",
          "midi": 75,
          "time": 41.599999999999966,
          "velocity": 0.7559055118110236,
          "duration": 1.139166666666668
        },
        {
          "name": "D#6",
          "midi": 87,
          "time": 41.599999999999966,
          "velocity": 0.7559055118110236,
          "duration": 1.139166666666668
        },
        {
          "name": "D#5",
          "midi": 75,
          "time": 42.79999999999997,
          "velocity": 0.7559055118110236,
          "duration": 0.18916666666666515
        },
        {
          "name": "D#6",
          "midi": 87,
          "time": 42.79999999999997,
          "velocity": 0.7559055118110236,
          "duration": 0.18916666666666515
        },
        {
          "name": "C#5",
          "midi": 73,
          "time": 42.999999999999964,
          "velocity": 0.7559055118110236,
          "duration": 0.18916666666666515
        },
        {
          "name": "C#6",
          "midi": 85,
          "time": 42.999999999999964,
          "velocity": 0.7559055118110236,
          "duration": 0.18916666666666515
        },
        {
          "name": "A#4",
          "midi": 70,
          "time": 43.19999999999996,
          "velocity": 0.7559055118110236,
          "duration": 1.139166666666668
        },
        {
          "name": "A#5",
          "midi": 82,
          "time": 43.19999999999996,
          "velocity": 0.7559055118110236,
          "duration": 1.139166666666668
        },
        {
          "name": "A#5",
          "midi": 82,
          "time": 44.39999999999996,
          "velocity": 0.7559055118110236,
          "duration": 0.09416666666666629
        },
        {
          "name": "A#6",
          "midi": 94,
          "time": 44.39999999999996,
          "velocity": 0.7559055118110236,
          "duration": 0.09416666666666629
        },
        {
          "name": "C#6",
          "midi": 85,
          "time": 44.499999999999964,
          "velocity": 0.7559055118110236,
          "duration": 0.09416666666666629
        },
        {
          "name": "A#6",
          "midi": 94,
          "time": 44.499999999999964,
          "velocity": 0.7559055118110236,
          "duration": 0.09416666666666629
        },
        {
          "name": "F6",
          "midi": 89,
          "time": 44.599999999999966,
          "velocity": 0.7559055118110236,
          "duration": 0.09416666666666629
        },
        {
          "name": "A#6",
          "midi": 94,
          "time": 44.599999999999966,
          "velocity": 0.7559055118110236,
          "duration": 0.09416666666666629
        },
        {
          "name": "G#6",
          "midi": 92,
          "time": 44.69999999999997,
          "velocity": 0.7559055118110236,
          "duration": 0.09416666666666629
        },
        {
          "name": "A#6",
          "midi": 94,
          "time": 44.69999999999997,
          "velocity": 0.7559055118110236,
          "duration": 0.09416666666666629
        },
        {
          "name": "A#5",
          "midi": 82,
          "time": 44.79999999999997,
          "velocity": 0.7559055118110236,
          "duration": 0.7591666666666654
        },
        {
          "name": "A#6",
          "midi": 94,
          "time": 44.79999999999997,
          "velocity": 0.7559055118110236,
          "duration": 0.7591666666666654
        },
        {
          "name": "A#5",
          "midi": 82,
          "time": 45.599999999999966,
          "velocity": 0.7559055118110236,
          "duration": 0.18916666666666515
        },
        {
          "name": "A#6",
          "midi": 94,
          "time": 45.599999999999966,
          "velocity": 0.7559055118110236,
          "duration": 0.18916666666666515
        },
        {
          "name": "G#5",
          "midi": 80,
          "time": 45.79999999999996,
          "velocity": 0.7559055118110236,
          "duration": 0.5691666666666677
        },
        {
          "name": "G#6",
          "midi": 92,
          "time": 45.79999999999996,
          "velocity": 0.7559055118110236,
          "duration": 0.5691666666666677
        },
        {
          "name": "F5",
          "midi": 77,
          "time": 46.39999999999996,
          "velocity": 0.7559055118110236,
          "duration": 0.7591666666666654
        },
        {
          "name": "F6",
          "midi": 89,
          "time": 46.39999999999996,
          "velocity": 0.7559055118110236,
          "duration": 0.7591666666666654
        },
        {
          "name": "F5",
          "midi": 77,
          "time": 47.39999999999996,
          "velocity": 0.7559055118110236,
          "duration": 0.18916666666666515
        },
        {
          "name": "F6",
          "midi": 89,
          "time": 47.39999999999996,
          "velocity": 0.7559055118110236,
          "duration": 0.18916666666666515
        },
        {
          "name": "G#5",
          "midi": 80,
          "time": 47.59999999999996,
          "velocity": 0.7559055118110236,
          "duration": 0.18916666666666515
        },
        {
          "name": "G#6",
          "midi": 92,
          "time": 47.59999999999996,
          "velocity": 0.7559055118110236,
          "duration": 0.18916666666666515
        },
        {
          "name": "F5",
          "midi": 77,
          "time": 47.799999999999955,
          "velocity": 0.7559055118110236,
          "duration": 0.18916666666666515
        },
        {
          "name": "F6",
          "midi": 89,
          "time": 47.799999999999955,
          "velocity": 0.7559055118110236,
          "duration": 0.18916666666666515
        },
        {
          "name": "D#5",
          "midi": 75,
          "time": 47.99999999999995,
          "velocity": 0.7559055118110236,
          "duration": 1.139166666666668
        },
        {
          "name": "D#6",
          "midi": 87,
          "time": 47.99999999999995,
          "velocity": 0.7559055118110236,
          "duration": 1.139166666666668
        },
        {
          "name": "C5",
          "midi": 72,
          "time": 49.19999999999995,
          "velocity": 0.7559055118110236,
          "duration": 0.18916666666666515
        },
        {
          "name": "D#5",
          "midi": 75,
          "time": 49.19999999999995,
          "velocity": 0.7559055118110236,
          "duration": 0.18916666666666515
        },
        {
          "name": "A#4",
          "midi": 70,
          "time": 49.39999999999995,
          "velocity": 0.7559055118110236,
          "duration": 0.18916666666666515
        },
        {
          "name": "C#5",
          "midi": 73,
          "time": 49.39999999999995,
          "velocity": 0.7559055118110236,
          "duration": 0.18916666666666515
        },
        {
          "name": "F4",
          "midi": 65,
          "time": 49.599999999999945,
          "velocity": 0.7559055118110236,
          "duration": 0.37916666666667
        },
        {
          "name": "A#4",
          "midi": 70,
          "time": 49.599999999999945,
          "velocity": 0.7559055118110236,
          "duration": 0.37916666666667
        },
        {
          "name": "F5",
          "midi": 77,
          "time": 49.99999999999995,
          "velocity": 0.7559055118110236,
          "duration": 0.18916666666666515
        },
        {
          "name": "F5",
          "midi": 77,
          "time": 50.199999999999946,
          "velocity": 0.7559055118110236,
          "duration": 0.18916666666666515
        },
        {
          "name": "F5",
          "midi": 77,
          "time": 50.39999999999994,
          "velocity": 0.7559055118110236,
          "duration": 0.18916666666666515
        },
        {
          "name": "F5",
          "midi": 77,
          "time": 50.59999999999994,
          "velocity": 0.7559055118110236,
          "duration": 0.18916666666666515
        },
        {
          "name": "D#5",
          "midi": 75,
          "time": 50.79999999999993,
          "velocity": 0.7559055118110236,
          "duration": 0.18916666666666515
        },
        {
          "name": "C#5",
          "midi": 73,
          "time": 50.99999999999993,
          "velocity": 0.7559055118110236,
          "duration": 0.18916666666666515
        },
        {
          "name": "G#4",
          "midi": 68,
          "time": 51.199999999999925,
          "velocity": 0.7559055118110236,
          "duration": 0.37916666666667
        },
        {
          "name": "D#5",
          "midi": 75,
          "time": 51.199999999999925,
          "velocity": 0.7559055118110236,
          "duration": 0.37916666666667
        },
        {
          "name": "F#4",
          "midi": 66,
          "time": 51.59999999999993,
          "velocity": 0.7559055118110236,
          "duration": 0.7591666666666654
        },
        {
          "name": "A#4",
          "midi": 70,
          "time": 51.59999999999993,
          "velocity": 0.7559055118110236,
          "duration": 0.7591666666666654
        },
        {
          "name": "F5",
          "midi": 77,
          "time": 52.99999999999993,
          "velocity": 0.7559055118110236,
          "duration": 0.18916666666666515
        },
        {
          "name": "F5",
          "midi": 77,
          "time": 53.199999999999925,
          "velocity": 0.7559055118110236,
          "duration": 0.18916666666666515
        },
        {
          "name": "F5",
          "midi": 77,
          "time": 53.39999999999992,
          "velocity": 0.7559055118110236,
          "duration": 0.18916666666666515
        },
        {
          "name": "F5",
          "midi": 77,
          "time": 53.599999999999916,
          "velocity": 0.7559055118110236,
          "duration": 0.18916666666666515
        },
        {
          "name": "D#5",
          "midi": 75,
          "time": 53.79999999999991,
          "velocity": 0.7559055118110236,
          "duration": 0.18916666666666515
        },
        {
          "name": "C#5",
          "midi": 73,
          "time": 53.99999999999991,
          "velocity": 0.7559055118110236,
          "duration": 0.18916666666666515
        },
        {
          "name": "D#5",
          "midi": 75,
          "time": 54.1999999999999,
          "velocity": 0.7559055118110236,
          "duration": 1.3291666666666657
        },
        {
          "name": "F4",
          "midi": 65,
          "time": 55.5999999999999,
          "velocity": 0.7559055118110236,
          "duration": 0.37916666666667
        },
        {
          "name": "C#5",
          "midi": 73,
          "time": 55.5999999999999,
          "velocity": 0.7559055118110236,
          "duration": 0.37916666666667
        },
        {
          "name": "F5",
          "midi": 77,
          "time": 56.1999999999999,
          "velocity": 0.7559055118110236,
          "duration": 0.18916666666666515
        },
        {
          "name": "F5",
          "midi": 77,
          "time": 56.3999999999999,
          "velocity": 0.7559055118110236,
          "duration": 0.18916666666666515
        },
        {
          "name": "F5",
          "midi": 77,
          "time": 56.599999999999895,
          "velocity": 0.7559055118110236,
          "duration": 0.18916666666666515
        },
        {
          "name": "F5",
          "midi": 77,
          "time": 56.79999999999989,
          "velocity": 0.7559055118110236,
          "duration": 0.18916666666666515
        },
        {
          "name": "D#5",
          "midi": 75,
          "time": 56.999999999999886,
          "velocity": 0.7559055118110236,
          "duration": 0.18916666666666515
        },
        {
          "name": "C#5",
          "midi": 73,
          "time": 57.19999999999988,
          "velocity": 0.7559055118110236,
          "duration": 0.18916666666666515
        },
        {
          "name": "D#5",
          "midi": 75,
          "time": 57.39999999999988,
          "velocity": 0.7559055118110236,
          "duration": 0.18916666666666515
        },
        {
          "name": "D#5",
          "midi": 75,
          "time": 57.59999999999987,
          "velocity": 0.7559055118110236,
          "duration": 0.37916666666667
        },
        {
          "name": "A#4",
          "midi": 70,
          "time": 57.99999999999988,
          "velocity": 0.7559055118110236,
          "duration": 0.7591666666666654
        },
        {
          "name": "F5",
          "midi": 77,
          "time": 59.39999999999988,
          "velocity": 0.7559055118110236,
          "duration": 0.18916666666666515
        },
        {
          "name": "F5",
          "midi": 77,
          "time": 59.59999999999987,
          "velocity": 0.7559055118110236,
          "duration": 0.18916666666666515
        },
        {
          "name": "F5",
          "midi": 77,
          "time": 59.79999999999987,
          "velocity": 0.7559055118110236,
          "duration": 0.18916666666666515
        },
        {
          "name": "F5",
          "midi": 77,
          "time": 59.999999999999865,
          "velocity": 0.7559055118110236,
          "duration": 0.18916666666666515
        },
        {
          "name": "D#5",
          "midi": 75,
          "time": 60.19999999999986,
          "velocity": 0.7559055118110236,
          "duration": 0.18916666666666515
        },
        {
          "name": "C#5",
          "midi": 73,
          "time": 60.39999999999986,
          "velocity": 0.7559055118110236,
          "duration": 0.18916666666666515
        },
        {
          "name": "D#5",
          "midi": 75,
          "time": 60.59999999999985,
          "velocity": 0.7559055118110236,
          "duration": 1.3291666666666657
        },
        {
          "name": "C#5",
          "midi": 73,
          "time": 61.99999999999985,
          "velocity": 0.7559055118110236,
          "duration": 0.37916666666667
        },
        {
          "name": "F5",
          "midi": 77,
          "time": 62.59999999999985,
          "velocity": 0.7559055118110236,
          "duration": 0.18916666666666515
        },
        {
          "name": "F5",
          "midi": 77,
          "time": 62.79999999999985,
          "velocity": 0.7559055118110236,
          "duration": 0.18916666666666515
        },
        {
          "name": "F5",
          "midi": 77,
          "time": 62.999999999999844,
          "velocity": 0.7559055118110236,
          "duration": 0.18916666666666515
        },
        {
          "name": "F6",
          "midi": 89,
          "time": 63.19999999999984,
          "velocity": 0.7559055118110236,
          "duration": 0.051666666666669414
        },
        {
          "name": "E6",
          "midi": 88,
          "time": 63.25583333333318,
          "velocity": 0.7559055118110236,
          "duration": 0.051666666666669414
        },
        {
          "name": "D#6",
          "midi": 87,
          "time": 63.31249999999985,
          "velocity": 0.7559055118110236,
          "duration": 0.051666666666669414
        },
        {
          "name": "D6",
          "midi": 86,
          "time": 63.36916666666652,
          "velocity": 0.7559055118110236,
          "duration": 0.051666666666669414
        },
        {
          "name": "C#6",
          "midi": 85,
          "time": 63.425833333333195,
          "velocity": 0.7559055118110236,
          "duration": 0.051666666666669414
        },
        {
          "name": "C6",
          "midi": 84,
          "time": 63.48249999999987,
          "velocity": 0.7559055118110236,
          "duration": 0.051666666666669414
        },
        {
          "name": "B5",
          "midi": 83,
          "time": 63.53999999999987,
          "velocity": 0.7559055118110236,
          "duration": 0.051666666666669414
        },
        {
          "name": "A#5",
          "midi": 82,
          "time": 63.59583333333321,
          "velocity": 0.7559055118110236,
          "duration": 0.051666666666669414
        },
        {
          "name": "A5",
          "midi": 81,
          "time": 63.65249999999988,
          "velocity": 0.7559055118110236,
          "duration": 0.051666666666669414
        },
        {
          "name": "G#5",
          "midi": 80,
          "time": 63.709166666666555,
          "velocity": 0.7559055118110236,
          "duration": 0.051666666666669414
        },
        {
          "name": "G5",
          "midi": 79,
          "time": 63.76583333333323,
          "velocity": 0.7559055118110236,
          "duration": 0.051666666666669414
        },
        {
          "name": "F#5",
          "midi": 78,
          "time": 63.8224999999999,
          "velocity": 0.7559055118110236,
          "duration": 0.051666666666669414
        },
        {
          "name": "F5",
          "midi": 77,
          "time": 63.8799999999999,
          "velocity": 0.7559055118110236,
          "duration": 0.051666666666669414
        },
        {
          "name": "E5",
          "midi": 76,
          "time": 63.93583333333324,
          "velocity": 0.7559055118110236,
          "duration": 0.0591666666666697
        },
        {
          "name": "D#5",
          "midi": 75,
          "time": 63.999999999999915,
          "velocity": 0.7559055118110236,
          "duration": 0.3791666666666629
        },
        {
          "name": "A#4",
          "midi": 70,
          "time": 64.3999999999999,
          "velocity": 0.7559055118110236,
          "duration": 0.3791666666666629
        },
        {
          "name": "D#5",
          "midi": 75,
          "time": 64.7999999999999,
          "velocity": 0.7559055118110236,
          "duration": 0.3791666666666629
        },
        {
          "name": "A#4",
          "midi": 70,
          "time": 65.19999999999989,
          "velocity": 0.7559055118110236,
          "duration": 0.3791666666666629
        },
        {
          "name": "D#6",
          "midi": 87,
          "time": 65.59999999999988,
          "velocity": 0.7559055118110236,
          "duration": 0.3791666666666629
        },
        {
          "name": "A#5",
          "midi": 82,
          "time": 65.99999999999987,
          "velocity": 0.7559055118110236,
          "duration": 0.3791666666666629
        },
        {
          "name": "D#6",
          "midi": 87,
          "time": 66.39999999999986,
          "velocity": 0.7559055118110236,
          "duration": 0.284166666666664
        },
        {
          "name": "D#6",
          "midi": 87,
          "time": 66.69999999999986,
          "velocity": 0.7559055118110236,
          "duration": 0.284166666666664
        },
        {
          "name": "F6",
          "midi": 89,
          "time": 66.99999999999986,
          "velocity": 0.7559055118110236,
          "duration": 0.18916666666666515
        },
        {
          "name": "G#5",
          "midi": 80,
          "time": 67.19999999999986,
          "velocity": 0.7559055118110236,
          "duration": 1.5991666666666617
        },
        {
          "name": "C6",
          "midi": 84,
          "time": 67.25249999999986,
          "velocity": 0.7559055118110236,
          "duration": 1.5458333333333343
        },
        {
          "name": "F6",
          "midi": 89,
          "time": 67.30499999999985,
          "velocity": 0.7559055118110236,
          "duration": 1.4933333333333394
        },
        {
          "name": "F5",
          "midi": 77,
          "time": 68.99999999999986,
          "velocity": 0.7559055118110236,
          "duration": 0.18916666666666515
        },
        {
          "name": "F5",
          "midi": 77,
          "time": 69.19999999999986,
          "velocity": 0.7559055118110236,
          "duration": 0.18916666666666515
        },
        {
          "name": "F5",
          "midi": 77,
          "time": 69.39999999999986,
          "velocity": 0.7559055118110236,
          "duration": 0.18916666666666515
        },
        {
          "name": "F5",
          "midi": 77,
          "time": 69.59999999999987,
          "velocity": 0.7559055118110236,
          "duration": 0.18916666666666515
        },
        {
          "name": "D#5",
          "midi": 75,
          "time": 69.79999999999987,
          "velocity": 0.7559055118110236,
          "duration": 0.18916666666666515
        },
        {
          "name": "C#5",
          "midi": 73,
          "time": 69.99999999999987,
          "velocity": 0.7559055118110236,
          "duration": 0.18916666666666515
        },
        {
          "name": "D#5",
          "midi": 75,
          "time": 70.19999999999987,
          "velocity": 0.7559055118110236,
          "duration": 0.18916666666666515
        },
        {
          "name": "D#5",
          "midi": 75,
          "time": 70.39999999999988,
          "velocity": 0.7559055118110236,
          "duration": 0.3791666666666629
        },
        {
          "name": "A#4",
          "midi": 70,
          "time": 70.79999999999987,
          "velocity": 0.7559055118110236,
          "duration": 0.3791666666666629
        },
        {
          "name": "D#5",
          "midi": 75,
          "time": 71.19999999999986,
          "velocity": 0.7559055118110236,
          "duration": 0.3791666666666629
        },
        {
          "name": "A#4",
          "midi": 70,
          "time": 71.59999999999985,
          "velocity": 0.7559055118110236,
          "duration": 0.3791666666666629
        },
        {
          "name": "D#6",
          "midi": 87,
          "time": 71.99999999999984,
          "velocity": 0.7559055118110236,
          "duration": 0.3791666666666629
        },
        {
          "name": "A#5",
          "midi": 82,
          "time": 72.39999999999984,
          "velocity": 0.7559055118110236,
          "duration": 0.3791666666666629
        },
        {
          "name": "D#6",
          "midi": 87,
          "time": 72.79999999999983,
          "velocity": 0.7559055118110236,
          "duration": 0.284166666666664
        },
        {
          "name": "D#6",
          "midi": 87,
          "time": 73.09999999999982,
          "velocity": 0.7559055118110236,
          "duration": 0.284166666666664
        },
        {
          "name": "F6",
          "midi": 89,
          "time": 73.39999999999982,
          "velocity": 0.7559055118110236,
          "duration": 0.18916666666666515
        },
        {
          "name": "G#5",
          "midi": 80,
          "time": 73.59999999999982,
          "velocity": 0.7559055118110236,
          "duration": 1.5991666666666617
        },
        {
          "name": "C6",
          "midi": 84,
          "time": 73.65249999999982,
          "velocity": 0.7559055118110236,
          "duration": 1.5458333333333343
        },
        {
          "name": "F6",
          "midi": 89,
          "time": 73.70499999999981,
          "velocity": 0.7559055118110236,
          "duration": 1.4933333333333394
        },
        {
          "name": "C#5",
          "midi": 73,
          "time": 75.19999999999982,
          "velocity": 0.7559055118110236,
          "duration": 1.5991666666666617
        },
        {
          "name": "F5",
          "midi": 77,
          "time": 75.25249999999981,
          "velocity": 0.7559055118110236,
          "duration": 1.5458333333333343
        },
        {
          "name": "A#5",
          "midi": 82,
          "time": 75.30499999999981,
          "velocity": 0.7559055118110236,
          "duration": 1.4933333333333394
        },
        {
          "name": "C#5",
          "midi": 73,
          "time": 76.79999999999981,
          "velocity": 0.7559055118110236,
          "duration": 0.3791666666666629
        },
        {
          "name": "F5",
          "midi": 77,
          "time": 76.79999999999981,
          "velocity": 0.7559055118110236,
          "duration": 0.3791666666666629
        },
        {
          "name": "A#5",
          "midi": 82,
          "time": 76.79999999999981,
          "velocity": 0.7559055118110236,
          "duration": 0.3791666666666629
        },
        {
          "name": "C#5",
          "midi": 73,
          "time": 77.1999999999998,
          "velocity": 0.7559055118110236,
          "duration": 0.3791666666666629
        },
        {
          "name": "F5",
          "midi": 77,
          "time": 77.1999999999998,
          "velocity": 0.7559055118110236,
          "duration": 0.3791666666666629
        },
        {
          "name": "A#5",
          "midi": 82,
          "time": 77.1999999999998,
          "velocity": 0.7559055118110236,
          "duration": 0.3791666666666629
        },
        {
          "name": "A#4",
          "midi": 70,
          "time": 77.5999999999998,
          "velocity": 0.7559055118110236,
          "duration": 0.18916666666666515
        },
        {
          "name": "F5",
          "midi": 77,
          "time": 77.5999999999998,
          "velocity": 0.7559055118110236,
          "duration": 0.18916666666666515
        },
        {
          "name": "A#5",
          "midi": 82,
          "time": 77.5999999999998,
          "velocity": 0.7559055118110236,
          "duration": 0.18916666666666515
        },
        {
          "name": "F5",
          "midi": 77,
          "time": 77.7999999999998,
          "velocity": 0.7559055118110236,
          "duration": 0.18916666666666515
        },
        {
          "name": "G#5",
          "midi": 80,
          "time": 77.7999999999998,
          "velocity": 0.7559055118110236,
          "duration": 0.18916666666666515
        },
        {
          "name": "C#5",
          "midi": 73,
          "time": 77.9999999999998,
          "velocity": 0.7559055118110236,
          "duration": 1.139166666666668
        },
        {
          "name": "F5",
          "midi": 77,
          "time": 77.9999999999998,
          "velocity": 0.7559055118110236,
          "duration": 1.3291666666666657
        },
        {
          "name": "C5",
          "midi": 72,
          "time": 79.3999999999998,
          "velocity": 0.7559055118110236,
          "duration": 0.18916666666666515
        },
        {
          "name": "D#5",
          "midi": 75,
          "time": 79.3999999999998,
          "velocity": 0.7559055118110236,
          "duration": 0.18916666666666515
        },
        {
          "name": "C5",
          "midi": 72,
          "time": 79.59999999999981,
          "velocity": 0.7559055118110236,
          "duration": 0.18916666666666515
        },
        {
          "name": "F5",
          "midi": 77,
          "time": 79.59999999999981,
          "velocity": 0.7559055118110236,
          "duration": 0.18916666666666515
        },
        {
          "name": "G#5",
          "midi": 80,
          "time": 79.59999999999981,
          "velocity": 0.7559055118110236,
          "duration": 0.18916666666666515
        },
        {
          "name": "C#5",
          "midi": 73,
          "time": 79.79999999999981,
          "velocity": 0.7559055118110236,
          "duration": 0.18916666666666515
        },
        {
          "name": "F5",
          "midi": 77,
          "time": 79.79999999999981,
          "velocity": 0.7559055118110236,
          "duration": 0.18916666666666515
        },
        {
          "name": "G#4",
          "midi": 68,
          "time": 79.99999999999982,
          "velocity": 0.7559055118110236,
          "duration": 0.3791666666666629
        },
        {
          "name": "C5",
          "midi": 72,
          "time": 79.99999999999982,
          "velocity": 0.7559055118110236,
          "duration": 0.3791666666666629
        },
        {
          "name": "D#5",
          "midi": 75,
          "time": 79.99999999999982,
          "velocity": 0.7559055118110236,
          "duration": 0.3791666666666629
        },
        {
          "name": "C5",
          "midi": 72,
          "time": 80.3999999999998,
          "velocity": 0.7559055118110236,
          "duration": 0.3791666666666629
        },
        {
          "name": "F5",
          "midi": 77,
          "time": 80.3999999999998,
          "velocity": 0.7559055118110236,
          "duration": 0.3791666666666629
        },
        {
          "name": "A#4",
          "midi": 70,
          "time": 80.7999999999998,
          "velocity": 0.7559055118110236,
          "duration": 0.18916666666666515
        },
        {
          "name": "D#5",
          "midi": 75,
          "time": 80.7999999999998,
          "velocity": 0.7559055118110236,
          "duration": 0.18916666666666515
        },
        {
          "name": "G#4",
          "midi": 68,
          "time": 80.9999999999998,
          "velocity": 0.7559055118110236,
          "duration": 0.18916666666666515
        },
        {
          "name": "C#5",
          "midi": 73,
          "time": 80.9999999999998,
          "velocity": 0.7559055118110236,
          "duration": 0.18916666666666515
        },
        {
          "name": "D#4",
          "midi": 63,
          "time": 81.1999999999998,
          "velocity": 0.7559055118110236,
          "duration": 1.5191666666666634
        },
        {
          "name": "A#4",
          "midi": 70,
          "time": 81.1999999999998,
          "velocity": 0.7559055118110236,
          "duration": 1.5191666666666634
        },
        {
          "name": "F5",
          "midi": 77,
          "time": 82.7999999999998,
          "velocity": 0.7559055118110236,
          "duration": 0.18916666666666515
        },
        {
          "name": "G#5",
          "midi": 80,
          "time": 82.9999999999998,
          "velocity": 0.7559055118110236,
          "duration": 0.18916666666666515
        },
        {
          "name": "A#5",
          "midi": 82,
          "time": 83.1999999999998,
          "velocity": 0.7559055118110236,
          "duration": 0.3791666666666629
        },
        {
          "name": "A#5",
          "midi": 82,
          "time": 83.5999999999998,
          "velocity": 0.7559055118110236,
          "duration": 0.3791666666666629
        },
        {
          "name": "A#5",
          "midi": 82,
          "time": 83.99999999999979,
          "velocity": 0.7559055118110236,
          "duration": 0.18916666666666515
        },
        {
          "name": "G#5",
          "midi": 80,
          "time": 84.19999999999979,
          "velocity": 0.7559055118110236,
          "duration": 0.18916666666666515
        },
        {
          "name": "F5",
          "midi": 77,
          "time": 84.39999999999979,
          "velocity": 0.7559055118110236,
          "duration": 1.3291666666666657
        },
        {
          "name": "D#5",
          "midi": 75,
          "time": 85.7999999999998,
          "velocity": 0.7559055118110236,
          "duration": 0.18916666666666515
        },
        {
          "name": "G#5",
          "midi": 80,
          "time": 85.9999999999998,
          "velocity": 0.7559055118110236,
          "duration": 0.18916666666666515
        },
        {
          "name": "F5",
          "midi": 77,
          "time": 86.1999999999998,
          "velocity": 0.7559055118110236,
          "duration": 0.18916666666666515
        },
        {
          "name": "D#5",
          "midi": 75,
          "time": 86.3999999999998,
          "velocity": 0.6299212598425197,
          "duration": 0.3791666666666629
        },
        {
          "name": "F5",
          "midi": 77,
          "time": 86.7999999999998,
          "velocity": 0.5984251968503937,
          "duration": 0.3791666666666629
        },
        {
          "name": "D#5",
          "midi": 75,
          "time": 87.19999999999979,
          "velocity": 0.5669291338582677,
          "duration": 0.18916666666666515
        },
        {
          "name": "C#5",
          "midi": 73,
          "time": 87.39999999999979,
          "velocity": 0.5511811023622047,
          "duration": 0.18916666666666515
        },
        {
          "name": "A#4",
          "midi": 70,
          "time": 87.5999999999998,
          "velocity": 0.5354330708661418,
          "duration": 0.7591666666666725
        },
        {
          "name": "F6",
          "midi": 89,
          "time": 89.9999999999998,
          "velocity": 0.5039370078740157,
          "duration": 0.18916666666666515
        },
        {
          "name": "F6",
          "midi": 89,
          "time": 90.1999999999998,
          "velocity": 0.5039370078740157,
          "duration": 0.18916666666666515
        },
        {
          "name": "F6",
          "midi": 89,
          "time": 90.3999999999998,
          "velocity": 0.5039370078740157,
          "duration": 0.18916666666666515
        },
        {
          "name": "F5",
          "midi": 77,
          "time": 90.59999999999981,
          "velocity": 0.5039370078740157,
          "duration": 0.18916666666666515
        },
        {
          "name": "F6",
          "midi": 89,
          "time": 90.59999999999981,
          "velocity": 0.5039370078740157,
          "duration": 0.18916666666666515
        },
        {
          "name": "D#5",
          "midi": 75,
          "time": 90.79999999999981,
          "velocity": 0.5039370078740157,
          "duration": 0.18916666666666515
        },
        {
          "name": "D#6",
          "midi": 87,
          "time": 90.79999999999981,
          "velocity": 0.5039370078740157,
          "duration": 0.18916666666666515
        },
        {
          "name": "C#5",
          "midi": 73,
          "time": 90.99999999999982,
          "velocity": 0.5039370078740157,
          "duration": 0.18916666666666515
        },
        {
          "name": "C#6",
          "midi": 85,
          "time": 90.99999999999982,
          "velocity": 0.5039370078740157,
          "duration": 0.18916666666666515
        },
        {
          "name": "D#6",
          "midi": 87,
          "time": 91.19999999999982,
          "velocity": 0.3858267716535433,
          "duration": 0.3791666666666629
        },
        {
          "name": "A#4",
          "midi": 70,
          "time": 91.59999999999981,
          "velocity": 0.3858267716535433,
          "duration": 1.139166666666668
        },
        {
          "name": "A#5",
          "midi": 82,
          "time": 91.59999999999981,
          "velocity": 0.3858267716535433,
          "duration": 1.139166666666668
        },
        {
          "name": "F6",
          "midi": 89,
          "time": 92.99999999999982,
          "velocity": 0.3858267716535433,
          "duration": 0.18916666666666515
        },
        {
          "name": "F6",
          "midi": 89,
          "time": 93.19999999999982,
          "velocity": 0.3858267716535433,
          "duration": 0.18916666666666515
        },
        {
          "name": "F6",
          "midi": 89,
          "time": 93.39999999999982,
          "velocity": 0.3858267716535433,
          "duration": 0.18916666666666515
        },
        {
          "name": "F6",
          "midi": 89,
          "time": 93.59999999999982,
          "velocity": 0.3858267716535433,
          "duration": 0.18916666666666515
        },
        {
          "name": "D#5",
          "midi": 75,
          "time": 93.79999999999983,
          "velocity": 0.3858267716535433,
          "duration": 0.18916666666666515
        },
        {
          "name": "D#6",
          "midi": 87,
          "time": 93.79999999999983,
          "velocity": 0.3858267716535433,
          "duration": 0.18916666666666515
        },
        {
          "name": "C#5",
          "midi": 73,
          "time": 93.99999999999983,
          "velocity": 0.3858267716535433,
          "duration": 0.18916666666666515
        },
        {
          "name": "C#6",
          "midi": 85,
          "time": 93.99999999999983,
          "velocity": 0.3858267716535433,
          "duration": 0.18916666666666515
        },
        {
          "name": "D#5",
          "midi": 75,
          "time": 94.19999999999983,
          "velocity": 0.3858267716535433,
          "duration": 1.3291666666666657
        },
        {
          "name": "D#6",
          "midi": 87,
          "time": 94.19999999999983,
          "velocity": 0.3858267716535433,
          "duration": 1.3291666666666657
        },
        {
          "name": "C#6",
          "midi": 85,
          "time": 95.59999999999984,
          "velocity": 0.3858267716535433,
          "duration": 0.3791666666666629
        },
        {
          "name": "F6",
          "midi": 89,
          "time": 96.19999999999983,
          "velocity": 0.3858267716535433,
          "duration": 0.18916666666666515
        },
        {
          "name": "F6",
          "midi": 89,
          "time": 96.39999999999984,
          "velocity": 0.3858267716535433,
          "duration": 0.18916666666666515
        },
        {
          "name": "F6",
          "midi": 89,
          "time": 96.59999999999984,
          "velocity": 0.3858267716535433,
          "duration": 0.18916666666666515
        },
        {
          "name": "F6",
          "midi": 89,
          "time": 96.79999999999984,
          "velocity": 0.3858267716535433,
          "duration": 0.18916666666666515
        },
        {
          "name": "D#6",
          "midi": 87,
          "time": 96.99999999999984,
          "velocity": 0.3858267716535433,
          "duration": 0.18916666666666515
        },
        {
          "name": "C#6",
          "midi": 85,
          "time": 97.19999999999985,
          "velocity": 0.3858267716535433,
          "duration": 0.18916666666666515
        },
        {
          "name": "D#6",
          "midi": 87,
          "time": 97.39999999999985,
          "velocity": 0.3858267716535433,
          "duration": 0.18916666666666515
        },
        {
          "name": "D#6",
          "midi": 87,
          "time": 97.59999999999985,
          "velocity": 0.3858267716535433,
          "duration": 0.3791666666666629
        },
        {
          "name": "A#5",
          "midi": 82,
          "time": 97.99999999999984,
          "velocity": 0.3858267716535433,
          "duration": 0.7591666666666725
        },
        {
          "name": "F6",
          "midi": 89,
          "time": 99.39999999999985,
          "velocity": 0.3858267716535433,
          "duration": 0.18916666666666515
        },
        {
          "name": "F6",
          "midi": 89,
          "time": 99.59999999999985,
          "velocity": 0.3858267716535433,
          "duration": 0.18916666666666515
        },
        {
          "name": "F6",
          "midi": 89,
          "time": 99.79999999999986,
          "velocity": 0.3858267716535433,
          "duration": 0.18916666666666515
        },
        {
          "name": "F6",
          "midi": 89,
          "time": 99.99999999999986,
          "velocity": 0.3858267716535433,
          "duration": 0.18916666666666515
        },
        {
          "name": "D#6",
          "midi": 87,
          "time": 100.19999999999986,
          "velocity": 0.3858267716535433,
          "duration": 0.18916666666666515
        },
        {
          "name": "C#6",
          "midi": 85,
          "time": 100.39999999999986,
          "velocity": 0.3858267716535433,
          "duration": 0.18916666666666515
        },
        {
          "name": "D#6",
          "midi": 87,
          "time": 100.59999999999987,
          "velocity": 0.3858267716535433,
          "duration": 1.3291666666666657
        },
        {
          "name": "D#6",
          "midi": 87,
          "time": 102.39999999999986,
          "velocity": 0.3858267716535433,
          "duration": 1.5991666666666617
        },
        {
          "name": "G#6",
          "midi": 92,
          "time": 102.45249999999986,
          "velocity": 0.3858267716535433,
          "duration": 1.5458333333333343
        },
        {
          "name": "C7",
          "midi": 96,
          "time": 102.50499999999985,
          "velocity": 0.3858267716535433,
          "duration": 1.4933333333333394
        },
        {
          "name": "F7",
          "midi": 101,
          "time": 102.55999999999986,
          "velocity": 0.3858267716535433,
          "duration": 1.4391666666666652
        }
      ],
      "controlChanges": {
        "7": [
          {
            "number": 7,
            "time": 0,
            "value": 0.7874015748031497
          }
        ],
        "10": [
          {
            "number": 10,
            "time": 0,
            "value": 0.5039370078740157
          }
        ],
        "91": [
          {
            "number": 91,
            "time": 0,
            "value": 0
          }
        ],
        "93": [
          {
            "number": 93,
            "time": 0,
            "value": 0
          }
        ],
        "121": [
          {
            "number": 121,
            "time": 0,
            "value": 0
          }
        ]
      },
      "id": 0,
      "instrumentNumber": 0,
      "instrument": "acoustic grand piano",
      "instrumentFamily": "piano",
      "channelNumber": 0,
      "isPercussion": false
    },
    {
      "startTime": 0,
      "duration": 103.99833333333291,
      "length": 433,
      "notes": [
        {
          "name": "F4",
          "midi": 65,
          "time": 0,
          "velocity": 0.6299212598425197,
          "duration": 1.5191666666666668
        },
        {
          "name": "A#4",
          "midi": 70,
          "time": 0,
          "velocity": 0.6299212598425197,
          "duration": 1.5191666666666668
        },
        {
          "name": "C#5",
          "midi": 73,
          "time": 0,
          "velocity": 0.6299212598425197,
          "duration": 1.5191666666666668
        },
        {
          "name": "G#4",
          "midi": 68,
          "time": 1.6,
          "velocity": 0.6299212598425197,
          "duration": 1.5191666666666666
        },
        {
          "name": "C5",
          "midi": 72,
          "time": 1.6,
          "velocity": 0.6299212598425197,
          "duration": 1.5191666666666666
        },
        {
          "name": "C#4",
          "midi": 61,
          "time": 3.2,
          "velocity": 0.6299212598425197,
          "duration": 1.519166666666667
        },
        {
          "name": "F#4",
          "midi": 66,
          "time": 3.2,
          "velocity": 0.6299212598425197,
          "duration": 1.519166666666667
        },
        {
          "name": "A#4",
          "midi": 70,
          "time": 3.2,
          "velocity": 0.6299212598425197,
          "duration": 1.519166666666667
        },
        {
          "name": "C4",
          "midi": 60,
          "time": 4.800000000000001,
          "velocity": 0.6299212598425197,
          "duration": 0.7591666666666672
        },
        {
          "name": "D#4",
          "midi": 63,
          "time": 4.800000000000001,
          "velocity": 0.6299212598425197,
          "duration": 0.7591666666666672
        },
        {
          "name": "A#4",
          "midi": 70,
          "time": 4.800000000000001,
          "velocity": 0.6299212598425197,
          "duration": 0.7591666666666672
        },
        {
          "name": "C4",
          "midi": 60,
          "time": 5.600000000000001,
          "velocity": 0.6299212598425197,
          "duration": 0.7991666666666672
        },
        {
          "name": "F4",
          "midi": 65,
          "time": 5.652500000000002,
          "velocity": 0.6299212598425197,
          "duration": 0.7458333333333336
        },
        {
          "name": "C5",
          "midi": 72,
          "time": 5.705833333333335,
          "velocity": 0.6299212598425197,
          "duration": 0.6924999999999999
        },
        {
          "name": "F4",
          "midi": 65,
          "time": 6.400000000000002,
          "velocity": 0.6299212598425197,
          "duration": 1.519166666666667
        },
        {
          "name": "A#4",
          "midi": 70,
          "time": 6.400000000000002,
          "velocity": 0.6299212598425197,
          "duration": 1.519166666666667
        },
        {
          "name": "C#5",
          "midi": 73,
          "time": 6.400000000000002,
          "velocity": 0.6299212598425197,
          "duration": 1.519166666666667
        },
        {
          "name": "G#4",
          "midi": 68,
          "time": 8.000000000000002,
          "velocity": 0.6299212598425197,
          "duration": 1.519166666666667
        },
        {
          "name": "C5",
          "midi": 72,
          "time": 8.000000000000002,
          "velocity": 0.6299212598425197,
          "duration": 1.519166666666667
        },
        {
          "name": "C#4",
          "midi": 61,
          "time": 9.600000000000001,
          "velocity": 0.6299212598425197,
          "duration": 1.519166666666667
        },
        {
          "name": "F#4",
          "midi": 66,
          "time": 9.600000000000001,
          "velocity": 0.6299212598425197,
          "duration": 1.519166666666667
        },
        {
          "name": "A#4",
          "midi": 70,
          "time": 9.600000000000001,
          "velocity": 0.6299212598425197,
          "duration": 1.519166666666667
        },
        {
          "name": "D#4",
          "midi": 63,
          "time": 11.200000000000001,
          "velocity": 0.6299212598425197,
          "duration": 1.599166666666667
        },
        {
          "name": "A#4",
          "midi": 70,
          "time": 11.252500000000001,
          "velocity": 0.6299212598425197,
          "duration": 1.5458333333333343
        },
        {
          "name": "C#5",
          "midi": 73,
          "time": 11.305000000000001,
          "velocity": 0.6299212598425197,
          "duration": 1.493333333333334
        },
        {
          "name": "F5",
          "midi": 77,
          "time": 11.360000000000001,
          "velocity": 0.6299212598425197,
          "duration": 1.439166666666667
        },
        {
          "name": "F4",
          "midi": 65,
          "time": 12.8,
          "velocity": 0.6299212598425197,
          "duration": 1.519166666666667
        },
        {
          "name": "A#4",
          "midi": 70,
          "time": 12.8,
          "velocity": 0.6299212598425197,
          "duration": 1.519166666666667
        },
        {
          "name": "C#5",
          "midi": 73,
          "time": 12.8,
          "velocity": 0.6299212598425197,
          "duration": 1.519166666666667
        },
        {
          "name": "D#3",
          "midi": 51,
          "time": 14.4,
          "velocity": 0.6299212598425197,
          "duration": 0.5691666666666659
        },
        {
          "name": "A#3",
          "midi": 58,
          "time": 14.4,
          "velocity": 0.6299212598425197,
          "duration": 0.5691666666666659
        },
        {
          "name": "D#4",
          "midi": 63,
          "time": 14.4,
          "velocity": 0.6299212598425197,
          "duration": 0.5691666666666659
        },
        {
          "name": "A#3",
          "midi": 58,
          "time": 15,
          "velocity": 0.6299212598425197,
          "duration": 0.18916666666666693
        },
        {
          "name": "D#4",
          "midi": 63,
          "time": 15.200000000000001,
          "velocity": 0.6299212598425197,
          "duration": 0.7591666666666672
        },
        {
          "name": "D#3",
          "midi": 51,
          "time": 16,
          "velocity": 0.6299212598425197,
          "duration": 0.5691666666666677
        },
        {
          "name": "G#3",
          "midi": 56,
          "time": 16,
          "velocity": 0.6299212598425197,
          "duration": 0.5691666666666677
        },
        {
          "name": "C4",
          "midi": 60,
          "time": 16,
          "velocity": 0.6299212598425197,
          "duration": 0.5691666666666677
        },
        {
          "name": "D#3",
          "midi": 51,
          "time": 16.6,
          "velocity": 0.6299212598425197,
          "duration": 0.7591666666666654
        },
        {
          "name": "G#3",
          "midi": 56,
          "time": 16.6,
          "velocity": 0.6299212598425197,
          "duration": 0.7591666666666654
        },
        {
          "name": "C4",
          "midi": 60,
          "time": 16.6,
          "velocity": 0.6299212598425197,
          "duration": 0.7591666666666654
        },
        {
          "name": "G#3",
          "midi": 56,
          "time": 17.6,
          "velocity": 0.6299212598425197,
          "duration": 0.5691666666666677
        },
        {
          "name": "D#4",
          "midi": 63,
          "time": 17.6,
          "velocity": 0.6299212598425197,
          "duration": 0.5691666666666677
        },
        {
          "name": "G#4",
          "midi": 68,
          "time": 17.6,
          "velocity": 0.6299212598425197,
          "duration": 0.5691666666666677
        },
        {
          "name": "D#4",
          "midi": 63,
          "time": 18.200000000000003,
          "velocity": 0.6299212598425197,
          "duration": 0.18916666666666515
        },
        {
          "name": "G#4",
          "midi": 68,
          "time": 18.400000000000002,
          "velocity": 0.6299212598425197,
          "duration": 0.7591666666666654
        },
        {
          "name": "F3",
          "midi": 53,
          "time": 19.2,
          "velocity": 0.6299212598425197,
          "duration": 1.519166666666667
        },
        {
          "name": "A#3",
          "midi": 58,
          "time": 19.2,
          "velocity": 0.6299212598425197,
          "duration": 1.519166666666667
        },
        {
          "name": "C#4",
          "midi": 61,
          "time": 19.2,
          "velocity": 0.6299212598425197,
          "duration": 1.519166666666667
        },
        {
          "name": "G#3",
          "midi": 56,
          "time": 20.8,
          "velocity": 0.6299212598425197,
          "duration": 0.37916666666666643
        },
        {
          "name": "G#3",
          "midi": 56,
          "time": 21.2,
          "velocity": 0.6299212598425197,
          "duration": 0.37916666666666643
        },
        {
          "name": "C4",
          "midi": 60,
          "time": 21.2,
          "velocity": 0.6299212598425197,
          "duration": 0.37916666666666643
        },
        {
          "name": "C4",
          "midi": 60,
          "time": 21.599999999999998,
          "velocity": 0.6299212598425197,
          "duration": 0.7591666666666654
        },
        {
          "name": "D#4",
          "midi": 63,
          "time": 21.599999999999998,
          "velocity": 0.6299212598425197,
          "duration": 0.7591666666666654
        },
        {
          "name": "A#3",
          "midi": 58,
          "time": 22.399999999999995,
          "velocity": 0.6299212598425197,
          "duration": 0.37916666666666643
        },
        {
          "name": "F#3",
          "midi": 54,
          "time": 22.799999999999994,
          "velocity": 0.6299212598425197,
          "duration": 0.37916666666666643
        },
        {
          "name": "C#3",
          "midi": 49,
          "time": 23.199999999999992,
          "velocity": 0.6299212598425197,
          "duration": 0.37916666666666643
        },
        {
          "name": "G3",
          "midi": 55,
          "time": 23.59999999999999,
          "velocity": 0.6299212598425197,
          "duration": 0.37916666666666643
        },
        {
          "name": "D#3",
          "midi": 51,
          "time": 23.99999999999999,
          "velocity": 0.6299212598425197,
          "duration": 0.5691666666666642
        },
        {
          "name": "G3",
          "midi": 55,
          "time": 23.99999999999999,
          "velocity": 0.6299212598425197,
          "duration": 0.5691666666666642
        },
        {
          "name": "C4",
          "midi": 60,
          "time": 23.99999999999999,
          "velocity": 0.6299212598425197,
          "duration": 0.5691666666666642
        },
        {
          "name": "D#3",
          "midi": 51,
          "time": 24.599999999999987,
          "velocity": 0.6299212598425197,
          "duration": 0.18916666666666515
        },
        {
          "name": "G3",
          "midi": 55,
          "time": 24.599999999999987,
          "velocity": 0.6299212598425197,
          "duration": 0.18916666666666515
        },
        {
          "name": "C4",
          "midi": 60,
          "time": 24.599999999999987,
          "velocity": 0.6299212598425197,
          "duration": 0.18916666666666515
        },
        {
          "name": "G#3",
          "midi": 56,
          "time": 24.799999999999986,
          "velocity": 0.6299212598425197,
          "duration": 0.37916666666666643
        },
        {
          "name": "D#3",
          "midi": 51,
          "time": 25.199999999999985,
          "velocity": 0.6299212598425197,
          "duration": 0.37916666666666643
        },
        {
          "name": "C#3",
          "midi": 49,
          "time": 25.599999999999984,
          "velocity": 0.6299212598425197,
          "duration": 0.284166666666664
        },
        {
          "name": "C#3",
          "midi": 49,
          "time": 25.89999999999998,
          "velocity": 0.6299212598425197,
          "duration": 0.28416666666666757
        },
        {
          "name": "C#3",
          "midi": 49,
          "time": 26.19999999999998,
          "velocity": 0.6299212598425197,
          "duration": 0.18916666666666515
        },
        {
          "name": "C#4",
          "midi": 61,
          "time": 26.39999999999998,
          "velocity": 0.6299212598425197,
          "duration": 0.37916666666666643
        },
        {
          "name": "G#3",
          "midi": 56,
          "time": 26.79999999999998,
          "velocity": 0.6299212598425197,
          "duration": 0.37916666666666643
        },
        {
          "name": "D#3",
          "midi": 51,
          "time": 27.199999999999978,
          "velocity": 0.6299212598425197,
          "duration": 0.5691666666666642
        },
        {
          "name": "A#3",
          "midi": 58,
          "time": 27.799999999999976,
          "velocity": 0.6299212598425197,
          "duration": 0.5691666666666677
        },
        {
          "name": "D#4",
          "midi": 63,
          "time": 28.399999999999977,
          "velocity": 0.6299212598425197,
          "duration": 0.37916666666666643
        },
        {
          "name": "F3",
          "midi": 53,
          "time": 28.799999999999976,
          "velocity": 0.6299212598425197,
          "duration": 0.7591666666666654
        },
        {
          "name": "G#3",
          "midi": 56,
          "time": 28.799999999999976,
          "velocity": 0.6299212598425197,
          "duration": 0.7591666666666654
        },
        {
          "name": "C4",
          "midi": 60,
          "time": 28.799999999999976,
          "velocity": 0.6299212598425197,
          "duration": 0.7591666666666654
        },
        {
          "name": "C4",
          "midi": 60,
          "time": 29.599999999999973,
          "velocity": 0.6299212598425197,
          "duration": 0.37916666666666643
        },
        {
          "name": "G#3",
          "midi": 56,
          "time": 29.99999999999997,
          "velocity": 0.6299212598425197,
          "duration": 0.37916666666666643
        },
        {
          "name": "G#3",
          "midi": 56,
          "time": 30.39999999999997,
          "velocity": 0.6299212598425197,
          "duration": 0.7591666666666654
        },
        {
          "name": "D#4",
          "midi": 63,
          "time": 30.39999999999997,
          "velocity": 0.6299212598425197,
          "duration": 0.7591666666666654
        },
        {
          "name": "G#3",
          "midi": 56,
          "time": 31.199999999999967,
          "velocity": 0.6299212598425197,
          "duration": 0.7591666666666654
        },
        {
          "name": "C4",
          "midi": 60,
          "time": 31.199999999999967,
          "velocity": 0.6299212598425197,
          "duration": 0.7591666666666654
        },
        {
          "name": "C#3",
          "midi": 49,
          "time": 31.999999999999964,
          "velocity": 0.7559055118110236,
          "duration": 0.284166666666664
        },
        {
          "name": "G#3",
          "midi": 56,
          "time": 31.999999999999964,
          "velocity": 0.7559055118110236,
          "duration": 0.284166666666664
        },
        {
          "name": "C#3",
          "midi": 49,
          "time": 32.29999999999996,
          "velocity": 0.7559055118110236,
          "duration": 0.284166666666664
        },
        {
          "name": "G#3",
          "midi": 56,
          "time": 32.29999999999996,
          "velocity": 0.7559055118110236,
          "duration": 0.284166666666664
        },
        {
          "name": "C#3",
          "midi": 49,
          "time": 32.59999999999996,
          "velocity": 0.7559055118110236,
          "duration": 0.18916666666666515
        },
        {
          "name": "G#3",
          "midi": 56,
          "time": 32.59999999999996,
          "velocity": 0.7559055118110236,
          "duration": 0.18916666666666515
        },
        {
          "name": "C#4",
          "midi": 61,
          "time": 32.799999999999955,
          "velocity": 0.7559055118110236,
          "duration": 0.7591666666666654
        },
        {
          "name": "D#3",
          "midi": 51,
          "time": 33.59999999999995,
          "velocity": 0.7559055118110236,
          "duration": 0.284166666666664
        },
        {
          "name": "A#3",
          "midi": 58,
          "time": 33.59999999999995,
          "velocity": 0.7559055118110236,
          "duration": 0.284166666666664
        },
        {
          "name": "D#3",
          "midi": 51,
          "time": 33.89999999999995,
          "velocity": 0.7559055118110236,
          "duration": 0.284166666666664
        },
        {
          "name": "A#3",
          "midi": 58,
          "time": 33.89999999999995,
          "velocity": 0.7559055118110236,
          "duration": 0.284166666666664
        },
        {
          "name": "D#3",
          "midi": 51,
          "time": 34.199999999999946,
          "velocity": 0.7559055118110236,
          "duration": 0.18916666666666515
        },
        {
          "name": "A#3",
          "midi": 58,
          "time": 34.199999999999946,
          "velocity": 0.7559055118110236,
          "duration": 0.18916666666666515
        },
        {
          "name": "D#4",
          "midi": 63,
          "time": 34.39999999999994,
          "velocity": 0.7559055118110236,
          "duration": 0.7591666666666654
        },
        {
          "name": "F3",
          "midi": 53,
          "time": 35.19999999999994,
          "velocity": 0.7559055118110236,
          "duration": 1.5991666666666688
        },
        {
          "name": "G#3",
          "midi": 56,
          "time": 35.25249999999994,
          "velocity": 0.7559055118110236,
          "duration": 1.5458333333333343
        },
        {
          "name": "C4",
          "midi": 60,
          "time": 35.30499999999994,
          "velocity": 0.7559055118110236,
          "duration": 1.4933333333333323
        },
        {
          "name": "F4",
          "midi": 65,
          "time": 36.79999999999994,
          "velocity": 0.5039370078740157,
          "duration": 0.19916666666666316
        },
        {
          "name": "G#4",
          "midi": 68,
          "time": 36.79999999999994,
          "velocity": 0.5039370078740157,
          "duration": 0.19916666666666316
        },
        {
          "name": "C5",
          "midi": 72,
          "time": 36.79999999999994,
          "velocity": 0.5039370078740157,
          "duration": 0.19916666666666316
        },
        {
          "name": "F5",
          "midi": 77,
          "time": 36.79999999999994,
          "velocity": 0.5039370078740157,
          "duration": 0.19916666666666316
        },
        {
          "name": "F4",
          "midi": 65,
          "time": 37.19999999999994,
          "velocity": 0.5039370078740157,
          "duration": 0.19916666666666316
        },
        {
          "name": "G#4",
          "midi": 68,
          "time": 37.19999999999994,
          "velocity": 0.5039370078740157,
          "duration": 0.19916666666666316
        },
        {
          "name": "C5",
          "midi": 72,
          "time": 37.19999999999994,
          "velocity": 0.5039370078740157,
          "duration": 0.19916666666666316
        },
        {
          "name": "D#4",
          "midi": 63,
          "time": 37.59999999999994,
          "velocity": 0.5039370078740157,
          "duration": 0.19916666666666316
        },
        {
          "name": "G#4",
          "midi": 68,
          "time": 37.59999999999994,
          "velocity": 0.5039370078740157,
          "duration": 0.19916666666666316
        },
        {
          "name": "C#4",
          "midi": 61,
          "time": 37.999999999999936,
          "velocity": 0.5039370078740157,
          "duration": 0.37916666666667
        },
        {
          "name": "F4",
          "midi": 65,
          "time": 37.999999999999936,
          "velocity": 0.5039370078740157,
          "duration": 0.37916666666667
        },
        {
          "name": "F#3",
          "midi": 54,
          "time": 38.39999999999994,
          "velocity": 0.6299212598425197,
          "duration": 0.18916666666666515
        },
        {
          "name": "C#4",
          "midi": 61,
          "time": 38.59999999999994,
          "velocity": 0.6299212598425197,
          "duration": 0.18916666666666515
        },
        {
          "name": "F#4",
          "midi": 66,
          "time": 38.79999999999993,
          "velocity": 0.6299212598425197,
          "duration": 0.18916666666666515
        },
        {
          "name": "A#4",
          "midi": 70,
          "time": 38.99999999999993,
          "velocity": 0.6299212598425197,
          "duration": 0.18916666666666515
        },
        {
          "name": "C#5",
          "midi": 73,
          "time": 39.199999999999925,
          "velocity": 0.6299212598425197,
          "duration": 0.7591666666666654
        },
        {
          "name": "G#3",
          "midi": 56,
          "time": 39.99999999999992,
          "velocity": 0.7559055118110236,
          "duration": 0.18916666666666515
        },
        {
          "name": "D#4",
          "midi": 63,
          "time": 40.19999999999992,
          "velocity": 0.7559055118110236,
          "duration": 0.18916666666666515
        },
        {
          "name": "G#4",
          "midi": 68,
          "time": 40.39999999999991,
          "velocity": 0.7559055118110236,
          "duration": 0.18916666666666515
        },
        {
          "name": "C5",
          "midi": 72,
          "time": 40.59999999999991,
          "velocity": 0.7559055118110236,
          "duration": 0.18916666666666515
        },
        {
          "name": "D#5",
          "midi": 75,
          "time": 40.799999999999905,
          "velocity": 0.7559055118110236,
          "duration": 0.7591666666666654
        },
        {
          "name": "A#3",
          "midi": 58,
          "time": 41.5999999999999,
          "velocity": 0.7559055118110236,
          "duration": 0.18916666666666515
        },
        {
          "name": "F4",
          "midi": 65,
          "time": 41.7999999999999,
          "velocity": 0.7559055118110236,
          "duration": 0.18916666666666515
        },
        {
          "name": "A#4",
          "midi": 70,
          "time": 41.99999999999989,
          "velocity": 0.7559055118110236,
          "duration": 0.18916666666666515
        },
        {
          "name": "C#5",
          "midi": 73,
          "time": 42.19999999999989,
          "velocity": 0.7559055118110236,
          "duration": 0.18916666666666515
        },
        {
          "name": "F5",
          "midi": 77,
          "time": 42.399999999999885,
          "velocity": 0.7559055118110236,
          "duration": 0.7591666666666654
        },
        {
          "name": "A#3",
          "midi": 58,
          "time": 43.19999999999988,
          "velocity": 0.7559055118110236,
          "duration": 0.18916666666666515
        },
        {
          "name": "F4",
          "midi": 65,
          "time": 43.39999999999988,
          "velocity": 0.7559055118110236,
          "duration": 0.18916666666666515
        },
        {
          "name": "A#4",
          "midi": 70,
          "time": 43.59999999999987,
          "velocity": 0.7559055118110236,
          "duration": 0.18916666666666515
        },
        {
          "name": "C#5",
          "midi": 73,
          "time": 43.79999999999987,
          "velocity": 0.7559055118110236,
          "duration": 0.18916666666666515
        },
        {
          "name": "F5",
          "midi": 77,
          "time": 43.999999999999865,
          "velocity": 0.7559055118110236,
          "duration": 0.7591666666666654
        },
        {
          "name": "F#3",
          "midi": 54,
          "time": 44.79999999999986,
          "velocity": 0.7559055118110236,
          "duration": 0.18916666666666515
        },
        {
          "name": "C#4",
          "midi": 61,
          "time": 44.99999999999986,
          "velocity": 0.7559055118110236,
          "duration": 0.18916666666666515
        },
        {
          "name": "F#4",
          "midi": 66,
          "time": 45.199999999999854,
          "velocity": 0.7559055118110236,
          "duration": 0.18916666666666515
        },
        {
          "name": "A#4",
          "midi": 70,
          "time": 45.39999999999985,
          "velocity": 0.7559055118110236,
          "duration": 0.18916666666666515
        },
        {
          "name": "C#5",
          "midi": 73,
          "time": 45.599999999999845,
          "velocity": 0.7559055118110236,
          "duration": 0.7591666666666654
        },
        {
          "name": "G#3",
          "midi": 56,
          "time": 46.39999999999984,
          "velocity": 0.7559055118110236,
          "duration": 0.18916666666666515
        },
        {
          "name": "D#4",
          "midi": 63,
          "time": 46.59999999999984,
          "velocity": 0.7559055118110236,
          "duration": 0.18916666666666515
        },
        {
          "name": "G#4",
          "midi": 68,
          "time": 46.799999999999834,
          "velocity": 0.7559055118110236,
          "duration": 0.18916666666666515
        },
        {
          "name": "C5",
          "midi": 72,
          "time": 46.99999999999983,
          "velocity": 0.7559055118110236,
          "duration": 0.18916666666666515
        },
        {
          "name": "D#5",
          "midi": 75,
          "time": 47.199999999999825,
          "velocity": 0.7559055118110236,
          "duration": 0.7591666666666654
        },
        {
          "name": "A#3",
          "midi": 58,
          "time": 47.99999999999982,
          "velocity": 0.7559055118110236,
          "duration": 0.18916666666666515
        },
        {
          "name": "F4",
          "midi": 65,
          "time": 48.19999999999982,
          "velocity": 0.7559055118110236,
          "duration": 0.18916666666666515
        },
        {
          "name": "A#4",
          "midi": 70,
          "time": 48.399999999999814,
          "velocity": 0.7559055118110236,
          "duration": 0.18916666666666515
        },
        {
          "name": "C#5",
          "midi": 73,
          "time": 48.59999999999981,
          "velocity": 0.7559055118110236,
          "duration": 0.18916666666666515
        },
        {
          "name": "F5",
          "midi": 77,
          "time": 48.799999999999805,
          "velocity": 0.7559055118110236,
          "duration": 0.7591666666666654
        },
        {
          "name": "F3",
          "midi": 53,
          "time": 50.39999999999981,
          "velocity": 0.7559055118110236,
          "duration": 0.37916666666667
        },
        {
          "name": "A#3",
          "midi": 58,
          "time": 50.39999999999981,
          "velocity": 0.7559055118110236,
          "duration": 0.37916666666667
        },
        {
          "name": "C#4",
          "midi": 61,
          "time": 50.39999999999981,
          "velocity": 0.7559055118110236,
          "duration": 0.37916666666667
        },
        {
          "name": "F4",
          "midi": 65,
          "time": 50.39999999999981,
          "velocity": 0.7559055118110236,
          "duration": 0.37916666666667
        },
        {
          "name": "C3",
          "midi": 48,
          "time": 50.79999999999981,
          "velocity": 0.7559055118110236,
          "duration": 0.37916666666667
        },
        {
          "name": "F3",
          "midi": 53,
          "time": 50.79999999999981,
          "velocity": 0.7559055118110236,
          "duration": 0.37916666666667
        },
        {
          "name": "G#3",
          "midi": 56,
          "time": 50.79999999999981,
          "velocity": 0.7559055118110236,
          "duration": 0.37916666666667
        },
        {
          "name": "C4",
          "midi": 60,
          "time": 50.79999999999981,
          "velocity": 0.7559055118110236,
          "duration": 0.37916666666667
        },
        {
          "name": "F#2",
          "midi": 42,
          "time": 51.19999999999982,
          "velocity": 0.7559055118110236,
          "duration": 0.18916666666666515
        },
        {
          "name": "C#3",
          "midi": 49,
          "time": 51.19999999999982,
          "velocity": 0.7559055118110236,
          "duration": 0.18916666666666515
        },
        {
          "name": "C#3",
          "midi": 49,
          "time": 51.399999999999814,
          "velocity": 0.7559055118110236,
          "duration": 0.18916666666666515
        },
        {
          "name": "F#3",
          "midi": 54,
          "time": 51.59999999999981,
          "velocity": 0.7559055118110236,
          "duration": 0.18916666666666515
        },
        {
          "name": "C#4",
          "midi": 61,
          "time": 51.59999999999981,
          "velocity": 0.7559055118110236,
          "duration": 0.18916666666666515
        },
        {
          "name": "A#3",
          "midi": 58,
          "time": 51.799999999999805,
          "velocity": 0.7559055118110236,
          "duration": 0.18916666666666515
        },
        {
          "name": "C#4",
          "midi": 61,
          "time": 51.9999999999998,
          "velocity": 0.7559055118110236,
          "duration": 0.18916666666666515
        },
        {
          "name": "A#3",
          "midi": 58,
          "time": 52.1999999999998,
          "velocity": 0.7559055118110236,
          "duration": 0.18916666666666515
        },
        {
          "name": "F#3",
          "midi": 54,
          "time": 52.39999999999979,
          "velocity": 0.7559055118110236,
          "duration": 0.18916666666666515
        },
        {
          "name": "C#4",
          "midi": 61,
          "time": 52.39999999999979,
          "velocity": 0.7559055118110236,
          "duration": 0.18916666666666515
        },
        {
          "name": "C#3",
          "midi": 49,
          "time": 52.59999999999979,
          "velocity": 0.7559055118110236,
          "duration": 0.18916666666666515
        },
        {
          "name": "G#2",
          "midi": 44,
          "time": 52.799999999999784,
          "velocity": 0.7559055118110236,
          "duration": 0.18916666666666515
        },
        {
          "name": "D#3",
          "midi": 51,
          "time": 52.799999999999784,
          "velocity": 0.7559055118110236,
          "duration": 0.18916666666666515
        },
        {
          "name": "D#3",
          "midi": 51,
          "time": 52.99999999999978,
          "velocity": 0.7559055118110236,
          "duration": 0.18916666666666515
        },
        {
          "name": "G#3",
          "midi": 56,
          "time": 53.199999999999775,
          "velocity": 0.7559055118110236,
          "duration": 0.18916666666666515
        },
        {
          "name": "D#4",
          "midi": 63,
          "time": 53.199999999999775,
          "velocity": 0.7559055118110236,
          "duration": 0.18916666666666515
        },
        {
          "name": "C4",
          "midi": 60,
          "time": 53.39999999999977,
          "velocity": 0.7559055118110236,
          "duration": 0.18916666666666515
        },
        {
          "name": "D#4",
          "midi": 63,
          "time": 53.59999999999977,
          "velocity": 0.7559055118110236,
          "duration": 0.18916666666666515
        },
        {
          "name": "C4",
          "midi": 60,
          "time": 53.79999999999976,
          "velocity": 0.7559055118110236,
          "duration": 0.18916666666666515
        },
        {
          "name": "G#3",
          "midi": 56,
          "time": 53.99999999999976,
          "velocity": 0.7559055118110236,
          "duration": 0.18916666666666515
        },
        {
          "name": "D#4",
          "midi": 63,
          "time": 53.99999999999976,
          "velocity": 0.7559055118110236,
          "duration": 0.18916666666666515
        },
        {
          "name": "D#3",
          "midi": 51,
          "time": 54.199999999999754,
          "velocity": 0.7559055118110236,
          "duration": 0.18916666666666515
        },
        {
          "name": "A#2",
          "midi": 46,
          "time": 54.39999999999975,
          "velocity": 0.7559055118110236,
          "duration": 0.18916666666666515
        },
        {
          "name": "F3",
          "midi": 53,
          "time": 54.39999999999975,
          "velocity": 0.7559055118110236,
          "duration": 0.18916666666666515
        },
        {
          "name": "F3",
          "midi": 53,
          "time": 54.599999999999746,
          "velocity": 0.7559055118110236,
          "duration": 0.18916666666666515
        },
        {
          "name": "A#3",
          "midi": 58,
          "time": 54.79999999999974,
          "velocity": 0.7559055118110236,
          "duration": 0.18916666666666515
        },
        {
          "name": "F4",
          "midi": 65,
          "time": 54.79999999999974,
          "velocity": 0.7559055118110236,
          "duration": 0.18916666666666515
        },
        {
          "name": "C#4",
          "midi": 61,
          "time": 54.99999999999974,
          "velocity": 0.7559055118110236,
          "duration": 0.18916666666666515
        },
        {
          "name": "F4",
          "midi": 65,
          "time": 55.19999999999973,
          "velocity": 0.7559055118110236,
          "duration": 0.18916666666666515
        },
        {
          "name": "C#4",
          "midi": 61,
          "time": 55.39999999999973,
          "velocity": 0.7559055118110236,
          "duration": 0.18916666666666515
        },
        {
          "name": "A#3",
          "midi": 58,
          "time": 55.599999999999724,
          "velocity": 0.7559055118110236,
          "duration": 0.18916666666666515
        },
        {
          "name": "F4",
          "midi": 65,
          "time": 55.599999999999724,
          "velocity": 0.7559055118110236,
          "duration": 0.18916666666666515
        },
        {
          "name": "F3",
          "midi": 53,
          "time": 55.79999999999972,
          "velocity": 0.7559055118110236,
          "duration": 0.18916666666666515
        },
        {
          "name": "A#2",
          "midi": 46,
          "time": 55.999999999999716,
          "velocity": 0.7559055118110236,
          "duration": 0.18916666666666515
        },
        {
          "name": "F3",
          "midi": 53,
          "time": 55.999999999999716,
          "velocity": 0.7559055118110236,
          "duration": 0.18916666666666515
        },
        {
          "name": "F3",
          "midi": 53,
          "time": 56.19999999999971,
          "velocity": 0.7559055118110236,
          "duration": 0.18916666666666515
        },
        {
          "name": "A#3",
          "midi": 58,
          "time": 56.39999999999971,
          "velocity": 0.7559055118110236,
          "duration": 0.18916666666666515
        },
        {
          "name": "F4",
          "midi": 65,
          "time": 56.39999999999971,
          "velocity": 0.7559055118110236,
          "duration": 0.18916666666666515
        },
        {
          "name": "C#4",
          "midi": 61,
          "time": 56.5999999999997,
          "velocity": 0.7559055118110236,
          "duration": 0.18916666666666515
        },
        {
          "name": "F4",
          "midi": 65,
          "time": 56.7999999999997,
          "velocity": 0.7559055118110236,
          "duration": 0.18916666666666515
        },
        {
          "name": "C#4",
          "midi": 61,
          "time": 56.999999999999694,
          "velocity": 0.7559055118110236,
          "duration": 0.18916666666666515
        },
        {
          "name": "F4",
          "midi": 65,
          "time": 56.999999999999694,
          "velocity": 0.7559055118110236,
          "duration": 0.18916666666666515
        },
        {
          "name": "A#3",
          "midi": 58,
          "time": 57.19999999999969,
          "velocity": 0.7559055118110236,
          "duration": 0.18916666666666515
        },
        {
          "name": "F3",
          "midi": 53,
          "time": 57.399999999999686,
          "velocity": 0.7559055118110236,
          "duration": 0.18916666666666515
        },
        {
          "name": "F#2",
          "midi": 42,
          "time": 57.59999999999968,
          "velocity": 0.7559055118110236,
          "duration": 0.18916666666666515
        },
        {
          "name": "C#3",
          "midi": 49,
          "time": 57.59999999999968,
          "velocity": 0.7559055118110236,
          "duration": 0.18916666666666515
        },
        {
          "name": "C#3",
          "midi": 49,
          "time": 57.79999999999968,
          "velocity": 0.7559055118110236,
          "duration": 0.18916666666666515
        },
        {
          "name": "F#3",
          "midi": 54,
          "time": 57.99999999999967,
          "velocity": 0.7559055118110236,
          "duration": 0.18916666666666515
        },
        {
          "name": "C#4",
          "midi": 61,
          "time": 57.99999999999967,
          "velocity": 0.7559055118110236,
          "duration": 0.18916666666666515
        },
        {
          "name": "A#3",
          "midi": 58,
          "time": 58.19999999999967,
          "velocity": 0.7559055118110236,
          "duration": 0.18916666666666515
        },
        {
          "name": "C#5",
          "midi": 73,
          "time": 58.399999999999665,
          "velocity": 0.7559055118110236,
          "duration": 0.37916666666667
        },
        {
          "name": "D#5",
          "midi": 75,
          "time": 58.399999999999665,
          "velocity": 0.7559055118110236,
          "duration": 0.37916666666667
        },
        {
          "name": "F#4",
          "midi": 66,
          "time": 58.79999999999967,
          "velocity": 0.7559055118110236,
          "duration": 0.37916666666667
        },
        {
          "name": "A#4",
          "midi": 70,
          "time": 58.79999999999967,
          "velocity": 0.7559055118110236,
          "duration": 0.37916666666667
        },
        {
          "name": "G#2",
          "midi": 44,
          "time": 59.199999999999676,
          "velocity": 0.7559055118110236,
          "duration": 0.18916666666666515
        },
        {
          "name": "D#3",
          "midi": 51,
          "time": 59.199999999999676,
          "velocity": 0.7559055118110236,
          "duration": 0.18916666666666515
        },
        {
          "name": "D#3",
          "midi": 51,
          "time": 59.39999999999967,
          "velocity": 0.7559055118110236,
          "duration": 0.18916666666666515
        },
        {
          "name": "G#3",
          "midi": 56,
          "time": 59.59999999999967,
          "velocity": 0.7559055118110236,
          "duration": 0.18916666666666515
        },
        {
          "name": "D#4",
          "midi": 63,
          "time": 59.59999999999967,
          "velocity": 0.7559055118110236,
          "duration": 0.18916666666666515
        },
        {
          "name": "C4",
          "midi": 60,
          "time": 59.79999999999966,
          "velocity": 0.7559055118110236,
          "duration": 0.18916666666666515
        },
        {
          "name": "D#4",
          "midi": 63,
          "time": 59.99999999999966,
          "velocity": 0.7559055118110236,
          "duration": 0.18916666666666515
        },
        {
          "name": "C4",
          "midi": 60,
          "time": 60.199999999999655,
          "velocity": 0.7559055118110236,
          "duration": 0.18916666666666515
        },
        {
          "name": "G#3",
          "midi": 56,
          "time": 60.39999999999965,
          "velocity": 0.7559055118110236,
          "duration": 0.18916666666666515
        },
        {
          "name": "D#4",
          "midi": 63,
          "time": 60.39999999999965,
          "velocity": 0.7559055118110236,
          "duration": 0.18916666666666515
        },
        {
          "name": "D#3",
          "midi": 51,
          "time": 60.599999999999646,
          "velocity": 0.7559055118110236,
          "duration": 0.18916666666666515
        },
        {
          "name": "A#2",
          "midi": 46,
          "time": 60.79999999999964,
          "velocity": 0.7559055118110236,
          "duration": 0.18916666666666515
        },
        {
          "name": "F3",
          "midi": 53,
          "time": 60.99999999999964,
          "velocity": 0.7559055118110236,
          "duration": 0.18916666666666515
        },
        {
          "name": "A#3",
          "midi": 58,
          "time": 60.99999999999964,
          "velocity": 0.7559055118110236,
          "duration": 0.18916666666666515
        },
        {
          "name": "A#3",
          "midi": 58,
          "time": 61.19999999999963,
          "velocity": 0.7559055118110236,
          "duration": 0.18916666666666515
        },
        {
          "name": "C#4",
          "midi": 61,
          "time": 61.19999999999963,
          "velocity": 0.7559055118110236,
          "duration": 0.18916666666666515
        },
        {
          "name": "C#4",
          "midi": 61,
          "time": 61.39999999999963,
          "velocity": 0.7559055118110236,
          "duration": 0.18916666666666515
        },
        {
          "name": "C#4",
          "midi": 61,
          "time": 61.599999999999625,
          "velocity": 0.7559055118110236,
          "duration": 0.37916666666667
        },
        {
          "name": "F4",
          "midi": 65,
          "time": 61.599999999999625,
          "velocity": 0.7559055118110236,
          "duration": 0.37916666666667
        },
        {
          "name": "F3",
          "midi": 53,
          "time": 61.99999999999963,
          "velocity": 0.7559055118110236,
          "duration": 0.37916666666667
        },
        {
          "name": "A#3",
          "midi": 58,
          "time": 61.99999999999963,
          "velocity": 0.7559055118110236,
          "duration": 0.37916666666667
        },
        {
          "name": "A#2",
          "midi": 46,
          "time": 62.399999999999636,
          "velocity": 0.7559055118110236,
          "duration": 0.19916666666666316
        },
        {
          "name": "C#3",
          "midi": 49,
          "time": 62.399999999999636,
          "velocity": 0.7559055118110236,
          "duration": 0.19916666666666316
        },
        {
          "name": "F3",
          "midi": 53,
          "time": 62.399999999999636,
          "velocity": 0.7559055118110236,
          "duration": 0.19916666666666316
        },
        {
          "name": "A#3",
          "midi": 58,
          "time": 62.399999999999636,
          "velocity": 0.7559055118110236,
          "duration": 0.19916666666666316
        },
        {
          "name": "F#1",
          "midi": 30,
          "time": 63.99999999999963,
          "velocity": 0.7559055118110236,
          "duration": 0.5691666666666606
        },
        {
          "name": "C#2",
          "midi": 37,
          "time": 63.99999999999963,
          "velocity": 0.7559055118110236,
          "duration": 0.5691666666666606
        },
        {
          "name": "F#2",
          "midi": 42,
          "time": 63.99999999999963,
          "velocity": 0.7559055118110236,
          "duration": 0.5691666666666606
        },
        {
          "name": "C#3",
          "midi": 49,
          "time": 64.59999999999962,
          "velocity": 0.7559055118110236,
          "duration": 0.18916666666666515
        },
        {
          "name": "A#3",
          "midi": 58,
          "time": 64.79999999999963,
          "velocity": 0.7559055118110236,
          "duration": 0.18916666666666515
        },
        {
          "name": "C#3",
          "midi": 49,
          "time": 64.99999999999963,
          "velocity": 0.7559055118110236,
          "duration": 0.18916666666666515
        },
        {
          "name": "F#3",
          "midi": 54,
          "time": 65.19999999999963,
          "velocity": 0.7559055118110236,
          "duration": 0.3791666666666629
        },
        {
          "name": "G#1",
          "midi": 32,
          "time": 65.59999999999962,
          "velocity": 0.7559055118110236,
          "duration": 0.5691666666666606
        },
        {
          "name": "D#2",
          "midi": 39,
          "time": 65.59999999999962,
          "velocity": 0.7559055118110236,
          "duration": 0.5691666666666606
        },
        {
          "name": "G#2",
          "midi": 44,
          "time": 65.59999999999962,
          "velocity": 0.7559055118110236,
          "duration": 0.5691666666666606
        },
        {
          "name": "D#3",
          "midi": 51,
          "time": 66.19999999999962,
          "velocity": 0.7559055118110236,
          "duration": 0.18916666666666515
        },
        {
          "name": "C4",
          "midi": 60,
          "time": 66.39999999999962,
          "velocity": 0.7559055118110236,
          "duration": 0.18916666666666515
        },
        {
          "name": "D#3",
          "midi": 51,
          "time": 66.59999999999962,
          "velocity": 0.7559055118110236,
          "duration": 0.18916666666666515
        },
        {
          "name": "G#3",
          "midi": 56,
          "time": 66.79999999999963,
          "velocity": 0.7559055118110236,
          "duration": 0.18916666666666515
        },
        {
          "name": "D#3",
          "midi": 51,
          "time": 66.99999999999963,
          "velocity": 0.7559055118110236,
          "duration": 0.18916666666666515
        },
        {
          "name": "A#2",
          "midi": 46,
          "time": 67.19999999999963,
          "velocity": 0.7559055118110236,
          "duration": 0.18916666666666515
        },
        {
          "name": "F3",
          "midi": 53,
          "time": 67.19999999999963,
          "velocity": 0.7559055118110236,
          "duration": 0.18916666666666515
        },
        {
          "name": "F3",
          "midi": 53,
          "time": 67.39999999999964,
          "velocity": 0.7559055118110236,
          "duration": 0.18916666666666515
        },
        {
          "name": "A#3",
          "midi": 58,
          "time": 67.59999999999964,
          "velocity": 0.7559055118110236,
          "duration": 0.18916666666666515
        },
        {
          "name": "F4",
          "midi": 65,
          "time": 67.59999999999964,
          "velocity": 0.7559055118110236,
          "duration": 0.18916666666666515
        },
        {
          "name": "C#4",
          "midi": 61,
          "time": 67.79999999999964,
          "velocity": 0.7559055118110236,
          "duration": 0.18916666666666515
        },
        {
          "name": "A#3",
          "midi": 58,
          "time": 67.99999999999964,
          "velocity": 0.7559055118110236,
          "duration": 0.18916666666666515
        },
        {
          "name": "F4",
          "midi": 65,
          "time": 67.99999999999964,
          "velocity": 0.7559055118110236,
          "duration": 0.18916666666666515
        },
        {
          "name": "C#4",
          "midi": 61,
          "time": 68.19999999999965,
          "velocity": 0.7559055118110236,
          "duration": 0.18916666666666515
        },
        {
          "name": "A#3",
          "midi": 58,
          "time": 68.39999999999965,
          "velocity": 0.7559055118110236,
          "duration": 0.18916666666666515
        },
        {
          "name": "F3",
          "midi": 53,
          "time": 68.59999999999965,
          "velocity": 0.7559055118110236,
          "duration": 0.18916666666666515
        },
        {
          "name": "G#2",
          "midi": 44,
          "time": 68.79999999999966,
          "velocity": 0.7559055118110236,
          "duration": 0.18916666666666515
        },
        {
          "name": "D#3",
          "midi": 51,
          "time": 68.79999999999966,
          "velocity": 0.7559055118110236,
          "duration": 0.18916666666666515
        },
        {
          "name": "D#3",
          "midi": 51,
          "time": 68.99999999999966,
          "velocity": 0.7559055118110236,
          "duration": 0.18916666666666515
        },
        {
          "name": "G#3",
          "midi": 56,
          "time": 69.19999999999966,
          "velocity": 0.7559055118110236,
          "duration": 0.18916666666666515
        },
        {
          "name": "D#3",
          "midi": 51,
          "time": 69.39999999999966,
          "velocity": 0.7559055118110236,
          "duration": 0.18916666666666515
        },
        {
          "name": "A#3",
          "midi": 58,
          "time": 69.59999999999967,
          "velocity": 0.7559055118110236,
          "duration": 0.18916666666666515
        },
        {
          "name": "D#3",
          "midi": 51,
          "time": 69.79999999999967,
          "velocity": 0.7559055118110236,
          "duration": 0.18916666666666515
        },
        {
          "name": "G#3",
          "midi": 56,
          "time": 69.99999999999967,
          "velocity": 0.7559055118110236,
          "duration": 0.18916666666666515
        },
        {
          "name": "C#3",
          "midi": 49,
          "time": 70.19999999999968,
          "velocity": 0.7559055118110236,
          "duration": 0.18916666666666515
        },
        {
          "name": "F#1",
          "midi": 30,
          "time": 70.39999999999968,
          "velocity": 0.7559055118110236,
          "duration": 0.18916666666666515
        },
        {
          "name": "C#2",
          "midi": 37,
          "time": 70.39999999999968,
          "velocity": 0.7559055118110236,
          "duration": 0.18916666666666515
        },
        {
          "name": "F#2",
          "midi": 42,
          "time": 70.39999999999968,
          "velocity": 0.7559055118110236,
          "duration": 0.18916666666666515
        },
        {
          "name": "C#3",
          "midi": 49,
          "time": 70.59999999999968,
          "velocity": 0.7559055118110236,
          "duration": 0.18916666666666515
        },
        {
          "name": "F#3",
          "midi": 54,
          "time": 70.79999999999968,
          "velocity": 0.7559055118110236,
          "duration": 0.18916666666666515
        },
        {
          "name": "C#3",
          "midi": 49,
          "time": 70.99999999999969,
          "velocity": 0.7559055118110236,
          "duration": 0.18916666666666515
        },
        {
          "name": "A#3",
          "midi": 58,
          "time": 71.19999999999969,
          "velocity": 0.7559055118110236,
          "duration": 0.18916666666666515
        },
        {
          "name": "C#3",
          "midi": 49,
          "time": 71.3999999999997,
          "velocity": 0.7559055118110236,
          "duration": 0.18916666666666515
        },
        {
          "name": "A#3",
          "midi": 58,
          "time": 71.3999999999997,
          "velocity": 0.7559055118110236,
          "duration": 0.18916666666666515
        },
        {
          "name": "F#3",
          "midi": 54,
          "time": 71.5999999999997,
          "velocity": 0.7559055118110236,
          "duration": 0.18916666666666515
        },
        {
          "name": "A#3",
          "midi": 58,
          "time": 71.5999999999997,
          "velocity": 0.7559055118110236,
          "duration": 0.18916666666666515
        },
        {
          "name": "C#3",
          "midi": 49,
          "time": 71.7999999999997,
          "velocity": 0.7559055118110236,
          "duration": 0.18916666666666515
        },
        {
          "name": "A#3",
          "midi": 58,
          "time": 71.7999999999997,
          "velocity": 0.7559055118110236,
          "duration": 0.18916666666666515
        },
        {
          "name": "G#1",
          "midi": 32,
          "time": 71.9999999999997,
          "velocity": 0.7559055118110236,
          "duration": 0.18916666666666515
        },
        {
          "name": "D#2",
          "midi": 39,
          "time": 71.9999999999997,
          "velocity": 0.7559055118110236,
          "duration": 0.18916666666666515
        },
        {
          "name": "G#2",
          "midi": 44,
          "time": 71.9999999999997,
          "velocity": 0.7559055118110236,
          "duration": 0.18916666666666515
        },
        {
          "name": "D#3",
          "midi": 51,
          "time": 72.1999999999997,
          "velocity": 0.7559055118110236,
          "duration": 0.18916666666666515
        },
        {
          "name": "G#3",
          "midi": 56,
          "time": 72.39999999999971,
          "velocity": 0.7559055118110236,
          "duration": 0.18916666666666515
        },
        {
          "name": "D#3",
          "midi": 51,
          "time": 72.59999999999971,
          "velocity": 0.7559055118110236,
          "duration": 0.18916666666666515
        },
        {
          "name": "C4",
          "midi": 60,
          "time": 72.79999999999971,
          "velocity": 0.7559055118110236,
          "duration": 0.18916666666666515
        },
        {
          "name": "D#3",
          "midi": 51,
          "time": 72.99999999999972,
          "velocity": 0.7559055118110236,
          "duration": 0.18916666666666515
        },
        {
          "name": "C4",
          "midi": 60,
          "time": 72.99999999999972,
          "velocity": 0.7559055118110236,
          "duration": 0.18916666666666515
        },
        {
          "name": "G#3",
          "midi": 56,
          "time": 73.19999999999972,
          "velocity": 0.7559055118110236,
          "duration": 0.18916666666666515
        },
        {
          "name": "C4",
          "midi": 60,
          "time": 73.19999999999972,
          "velocity": 0.7559055118110236,
          "duration": 0.18916666666666515
        },
        {
          "name": "D#3",
          "midi": 51,
          "time": 73.39999999999972,
          "velocity": 0.7559055118110236,
          "duration": 0.18916666666666515
        },
        {
          "name": "C4",
          "midi": 60,
          "time": 73.39999999999972,
          "velocity": 0.7559055118110236,
          "duration": 0.18916666666666515
        },
        {
          "name": "A#2",
          "midi": 46,
          "time": 73.59999999999972,
          "velocity": 0.7559055118110236,
          "duration": 0.18916666666666515
        },
        {
          "name": "F3",
          "midi": 53,
          "time": 73.79999999999973,
          "velocity": 0.7559055118110236,
          "duration": 0.18916666666666515
        },
        {
          "name": "A#3",
          "midi": 58,
          "time": 73.99999999999973,
          "velocity": 0.7559055118110236,
          "duration": 0.18916666666666515
        },
        {
          "name": "C#4",
          "midi": 61,
          "time": 74.19999999999973,
          "velocity": 0.7559055118110236,
          "duration": 0.18916666666666515
        },
        {
          "name": "F4",
          "midi": 65,
          "time": 74.39999999999974,
          "velocity": 0.7559055118110236,
          "duration": 0.18916666666666515
        },
        {
          "name": "C#4",
          "midi": 61,
          "time": 74.59999999999974,
          "velocity": 0.7559055118110236,
          "duration": 0.18916666666666515
        },
        {
          "name": "A#3",
          "midi": 58,
          "time": 74.79999999999974,
          "velocity": 0.7559055118110236,
          "duration": 0.18916666666666515
        },
        {
          "name": "F3",
          "midi": 53,
          "time": 74.99999999999974,
          "velocity": 0.7559055118110236,
          "duration": 0.18916666666666515
        },
        {
          "name": "G#2",
          "midi": 44,
          "time": 75.19999999999975,
          "velocity": 0.7559055118110236,
          "duration": 0.18916666666666515
        },
        {
          "name": "D#3",
          "midi": 51,
          "time": 75.39999999999975,
          "velocity": 0.7559055118110236,
          "duration": 0.18916666666666515
        },
        {
          "name": "G#3",
          "midi": 56,
          "time": 75.59999999999975,
          "velocity": 0.7559055118110236,
          "duration": 0.18916666666666515
        },
        {
          "name": "C4",
          "midi": 60,
          "time": 75.79999999999976,
          "velocity": 0.7559055118110236,
          "duration": 0.18916666666666515
        },
        {
          "name": "D#4",
          "midi": 63,
          "time": 75.99999999999976,
          "velocity": 0.7559055118110236,
          "duration": 0.18916666666666515
        },
        {
          "name": "C4",
          "midi": 60,
          "time": 76.19999999999976,
          "velocity": 0.7559055118110236,
          "duration": 0.18916666666666515
        },
        {
          "name": "G#3",
          "midi": 56,
          "time": 76.39999999999976,
          "velocity": 0.7559055118110236,
          "duration": 0.18916666666666515
        },
        {
          "name": "D#3",
          "midi": 51,
          "time": 76.59999999999977,
          "velocity": 0.7559055118110236,
          "duration": 0.18916666666666515
        },
        {
          "name": "A#2",
          "midi": 46,
          "time": 76.79999999999977,
          "velocity": 0.7559055118110236,
          "duration": 0.284166666666664
        },
        {
          "name": "F3",
          "midi": 53,
          "time": 76.79999999999977,
          "velocity": 0.7559055118110236,
          "duration": 0.284166666666664
        },
        {
          "name": "A#3",
          "midi": 58,
          "time": 76.79999999999977,
          "velocity": 0.7559055118110236,
          "duration": 0.284166666666664
        },
        {
          "name": "A#2",
          "midi": 46,
          "time": 77.09999999999977,
          "velocity": 0.7559055118110236,
          "duration": 0.284166666666664
        },
        {
          "name": "F3",
          "midi": 53,
          "time": 77.09999999999977,
          "velocity": 0.7559055118110236,
          "duration": 0.284166666666664
        },
        {
          "name": "A#3",
          "midi": 58,
          "time": 77.09999999999977,
          "velocity": 0.7559055118110236,
          "duration": 0.284166666666664
        },
        {
          "name": "A#2",
          "midi": 46,
          "time": 77.39999999999976,
          "velocity": 0.7559055118110236,
          "duration": 0.5691666666666606
        },
        {
          "name": "F3",
          "midi": 53,
          "time": 77.39999999999976,
          "velocity": 0.7559055118110236,
          "duration": 0.5691666666666606
        },
        {
          "name": "A#3",
          "midi": 58,
          "time": 77.39999999999976,
          "velocity": 0.7559055118110236,
          "duration": 0.5691666666666606
        },
        {
          "name": "C#3",
          "midi": 49,
          "time": 77.99999999999976,
          "velocity": 0.7559055118110236,
          "duration": 0.3791666666666629
        },
        {
          "name": "G#3",
          "midi": 56,
          "time": 77.99999999999976,
          "velocity": 0.7559055118110236,
          "duration": 0.3791666666666629
        },
        {
          "name": "C#4",
          "midi": 61,
          "time": 77.99999999999976,
          "velocity": 0.7559055118110236,
          "duration": 0.3791666666666629
        },
        {
          "name": "F2",
          "midi": 41,
          "time": 78.39999999999975,
          "velocity": 0.7559055118110236,
          "duration": 0.284166666666664
        },
        {
          "name": "C3",
          "midi": 48,
          "time": 78.39999999999975,
          "velocity": 0.7559055118110236,
          "duration": 0.284166666666664
        },
        {
          "name": "F3",
          "midi": 53,
          "time": 78.39999999999975,
          "velocity": 0.7559055118110236,
          "duration": 0.284166666666664
        },
        {
          "name": "F2",
          "midi": 41,
          "time": 78.69999999999975,
          "velocity": 0.7559055118110236,
          "duration": 0.09416666666666629
        },
        {
          "name": "C3",
          "midi": 48,
          "time": 78.69999999999975,
          "velocity": 0.7559055118110236,
          "duration": 0.09416666666666629
        },
        {
          "name": "F3",
          "midi": 53,
          "time": 78.69999999999975,
          "velocity": 0.7559055118110236,
          "duration": 0.09416666666666629
        },
        {
          "name": "F2",
          "midi": 41,
          "time": 78.79999999999974,
          "velocity": 0.7559055118110236,
          "duration": 0.18916666666666515
        },
        {
          "name": "C3",
          "midi": 48,
          "time": 78.79999999999974,
          "velocity": 0.7559055118110236,
          "duration": 0.18916666666666515
        },
        {
          "name": "F3",
          "midi": 53,
          "time": 78.79999999999974,
          "velocity": 0.7559055118110236,
          "duration": 0.18916666666666515
        },
        {
          "name": "F2",
          "midi": 41,
          "time": 78.99999999999974,
          "velocity": 0.7559055118110236,
          "duration": 0.5691666666666606
        },
        {
          "name": "C3",
          "midi": 48,
          "time": 78.99999999999974,
          "velocity": 0.7559055118110236,
          "duration": 0.5691666666666606
        },
        {
          "name": "F3",
          "midi": 53,
          "time": 78.99999999999974,
          "velocity": 0.7559055118110236,
          "duration": 0.5691666666666606
        },
        {
          "name": "A#2",
          "midi": 46,
          "time": 79.59999999999974,
          "velocity": 0.7559055118110236,
          "duration": 0.3791666666666629
        },
        {
          "name": "F3",
          "midi": 53,
          "time": 79.59999999999974,
          "velocity": 0.7559055118110236,
          "duration": 0.3791666666666629
        },
        {
          "name": "A#3",
          "midi": 58,
          "time": 79.59999999999974,
          "velocity": 0.7559055118110236,
          "duration": 0.3791666666666629
        },
        {
          "name": "D#2",
          "midi": 39,
          "time": 79.99999999999973,
          "velocity": 0.7559055118110236,
          "duration": 0.284166666666664
        },
        {
          "name": "A#2",
          "midi": 46,
          "time": 79.99999999999973,
          "velocity": 0.7559055118110236,
          "duration": 0.284166666666664
        },
        {
          "name": "D#3",
          "midi": 51,
          "time": 79.99999999999973,
          "velocity": 0.7559055118110236,
          "duration": 0.284166666666664
        },
        {
          "name": "D#2",
          "midi": 39,
          "time": 80.29999999999973,
          "velocity": 0.7559055118110236,
          "duration": 0.09416666666666629
        },
        {
          "name": "A#2",
          "midi": 46,
          "time": 80.29999999999973,
          "velocity": 0.7559055118110236,
          "duration": 0.09416666666666629
        },
        {
          "name": "D#3",
          "midi": 51,
          "time": 80.29999999999973,
          "velocity": 0.7559055118110236,
          "duration": 0.09416666666666629
        },
        {
          "name": "D#2",
          "midi": 39,
          "time": 80.39999999999972,
          "velocity": 0.7559055118110236,
          "duration": 0.18916666666666515
        },
        {
          "name": "A#2",
          "midi": 46,
          "time": 80.39999999999972,
          "velocity": 0.7559055118110236,
          "duration": 0.18916666666666515
        },
        {
          "name": "D#3",
          "midi": 51,
          "time": 80.39999999999972,
          "velocity": 0.7559055118110236,
          "duration": 0.18916666666666515
        },
        {
          "name": "D#2",
          "midi": 39,
          "time": 80.59999999999972,
          "velocity": 0.7559055118110236,
          "duration": 0.5691666666666606
        },
        {
          "name": "A#2",
          "midi": 46,
          "time": 80.59999999999972,
          "velocity": 0.7559055118110236,
          "duration": 0.5691666666666606
        },
        {
          "name": "D#3",
          "midi": 51,
          "time": 80.59999999999972,
          "velocity": 0.7559055118110236,
          "duration": 0.5691666666666606
        },
        {
          "name": "D#2",
          "midi": 39,
          "time": 81.19999999999972,
          "velocity": 0.7559055118110236,
          "duration": 0.3791666666666629
        },
        {
          "name": "A#2",
          "midi": 46,
          "time": 81.19999999999972,
          "velocity": 0.7559055118110236,
          "duration": 0.3791666666666629
        },
        {
          "name": "D#3",
          "midi": 51,
          "time": 81.19999999999972,
          "velocity": 0.7559055118110236,
          "duration": 0.3791666666666629
        },
        {
          "name": "F#2",
          "midi": 42,
          "time": 81.59999999999971,
          "velocity": 0.7559055118110236,
          "duration": 0.5691666666666606
        },
        {
          "name": "C#3",
          "midi": 49,
          "time": 81.59999999999971,
          "velocity": 0.7559055118110236,
          "duration": 0.5691666666666606
        },
        {
          "name": "F#3",
          "midi": 54,
          "time": 81.59999999999971,
          "velocity": 0.7559055118110236,
          "duration": 0.5691666666666606
        },
        {
          "name": "F3",
          "midi": 53,
          "time": 82.1999999999997,
          "velocity": 0.7559055118110236,
          "duration": 0.5691666666666606
        },
        {
          "name": "C4",
          "midi": 60,
          "time": 82.1999999999997,
          "velocity": 0.7559055118110236,
          "duration": 0.5691666666666606
        },
        {
          "name": "F4",
          "midi": 65,
          "time": 82.1999999999997,
          "velocity": 0.7559055118110236,
          "duration": 0.5691666666666606
        },
        {
          "name": "F2",
          "midi": 41,
          "time": 82.7999999999997,
          "velocity": 0.7559055118110236,
          "duration": 0.3791666666666629
        },
        {
          "name": "C3",
          "midi": 48,
          "time": 82.7999999999997,
          "velocity": 0.7559055118110236,
          "duration": 0.3791666666666629
        },
        {
          "name": "F3",
          "midi": 53,
          "time": 82.7999999999997,
          "velocity": 0.7559055118110236,
          "duration": 0.3791666666666629
        },
        {
          "name": "A#2",
          "midi": 46,
          "time": 83.19999999999969,
          "velocity": 0.7559055118110236,
          "duration": 0.284166666666664
        },
        {
          "name": "F3",
          "midi": 53,
          "time": 83.19999999999969,
          "velocity": 0.7559055118110236,
          "duration": 0.284166666666664
        },
        {
          "name": "A#3",
          "midi": 58,
          "time": 83.19999999999969,
          "velocity": 0.7559055118110236,
          "duration": 0.284166666666664
        },
        {
          "name": "A#2",
          "midi": 46,
          "time": 83.49999999999969,
          "velocity": 0.7559055118110236,
          "duration": 0.284166666666664
        },
        {
          "name": "F3",
          "midi": 53,
          "time": 83.49999999999969,
          "velocity": 0.7559055118110236,
          "duration": 0.284166666666664
        },
        {
          "name": "A#3",
          "midi": 58,
          "time": 83.49999999999969,
          "velocity": 0.7559055118110236,
          "duration": 0.284166666666664
        },
        {
          "name": "A#2",
          "midi": 46,
          "time": 83.79999999999968,
          "velocity": 0.7559055118110236,
          "duration": 0.5691666666666606
        },
        {
          "name": "F3",
          "midi": 53,
          "time": 83.79999999999968,
          "velocity": 0.7559055118110236,
          "duration": 0.5691666666666606
        },
        {
          "name": "A#3",
          "midi": 58,
          "time": 83.79999999999968,
          "velocity": 0.7559055118110236,
          "duration": 0.5691666666666606
        },
        {
          "name": "A#2",
          "midi": 46,
          "time": 84.39999999999968,
          "velocity": 0.7559055118110236,
          "duration": 0.3791666666666629
        },
        {
          "name": "F3",
          "midi": 53,
          "time": 84.39999999999968,
          "velocity": 0.7559055118110236,
          "duration": 0.3791666666666629
        },
        {
          "name": "A#3",
          "midi": 58,
          "time": 84.39999999999968,
          "velocity": 0.7559055118110236,
          "duration": 0.3791666666666629
        },
        {
          "name": "F2",
          "midi": 41,
          "time": 84.79999999999967,
          "velocity": 0.7559055118110236,
          "duration": 0.284166666666664
        },
        {
          "name": "C3",
          "midi": 48,
          "time": 84.79999999999967,
          "velocity": 0.7559055118110236,
          "duration": 0.284166666666664
        },
        {
          "name": "F3",
          "midi": 53,
          "time": 84.79999999999967,
          "velocity": 0.7559055118110236,
          "duration": 0.284166666666664
        },
        {
          "name": "F2",
          "midi": 41,
          "time": 85.09999999999967,
          "velocity": 0.7559055118110236,
          "duration": 0.09416666666666629
        },
        {
          "name": "C3",
          "midi": 48,
          "time": 85.09999999999967,
          "velocity": 0.7559055118110236,
          "duration": 0.09416666666666629
        },
        {
          "name": "F3",
          "midi": 53,
          "time": 85.09999999999967,
          "velocity": 0.7559055118110236,
          "duration": 0.09416666666666629
        },
        {
          "name": "F2",
          "midi": 41,
          "time": 85.19999999999966,
          "velocity": 0.7559055118110236,
          "duration": 0.18916666666666515
        },
        {
          "name": "C3",
          "midi": 48,
          "time": 85.19999999999966,
          "velocity": 0.7559055118110236,
          "duration": 0.18916666666666515
        },
        {
          "name": "F3",
          "midi": 53,
          "time": 85.19999999999966,
          "velocity": 0.7559055118110236,
          "duration": 0.18916666666666515
        },
        {
          "name": "F2",
          "midi": 41,
          "time": 85.39999999999966,
          "velocity": 0.7559055118110236,
          "duration": 0.5691666666666606
        },
        {
          "name": "C3",
          "midi": 48,
          "time": 85.39999999999966,
          "velocity": 0.7559055118110236,
          "duration": 0.5691666666666606
        },
        {
          "name": "F3",
          "midi": 53,
          "time": 85.39999999999966,
          "velocity": 0.7559055118110236,
          "duration": 0.5691666666666606
        },
        {
          "name": "F2",
          "midi": 41,
          "time": 85.99999999999966,
          "velocity": 0.7559055118110236,
          "duration": 0.3791666666666629
        },
        {
          "name": "C3",
          "midi": 48,
          "time": 85.99999999999966,
          "velocity": 0.7559055118110236,
          "duration": 0.3791666666666629
        },
        {
          "name": "F3",
          "midi": 53,
          "time": 85.99999999999966,
          "velocity": 0.7559055118110236,
          "duration": 0.3791666666666629
        },
        {
          "name": "D#2",
          "midi": 39,
          "time": 86.39999999999965,
          "velocity": 0.6299212598425197,
          "duration": 0.284166666666664
        },
        {
          "name": "A#2",
          "midi": 46,
          "time": 86.39999999999965,
          "velocity": 0.6299212598425197,
          "duration": 0.284166666666664
        },
        {
          "name": "D#3",
          "midi": 51,
          "time": 86.39999999999965,
          "velocity": 0.6299212598425197,
          "duration": 0.284166666666664
        },
        {
          "name": "D#2",
          "midi": 39,
          "time": 86.69999999999965,
          "velocity": 0.6062992125984252,
          "duration": 0.09416666666666629
        },
        {
          "name": "A#2",
          "midi": 46,
          "time": 86.69999999999965,
          "velocity": 0.6062992125984252,
          "duration": 0.09416666666666629
        },
        {
          "name": "D#3",
          "midi": 51,
          "time": 86.69999999999965,
          "velocity": 0.6062992125984252,
          "duration": 0.09416666666666629
        },
        {
          "name": "D#2",
          "midi": 39,
          "time": 86.79999999999964,
          "velocity": 0.5984251968503937,
          "duration": 0.18916666666666515
        },
        {
          "name": "A#2",
          "midi": 46,
          "time": 86.79999999999964,
          "velocity": 0.5984251968503937,
          "duration": 0.18916666666666515
        },
        {
          "name": "D#3",
          "midi": 51,
          "time": 86.79999999999964,
          "velocity": 0.5984251968503937,
          "duration": 0.18916666666666515
        },
        {
          "name": "D#2",
          "midi": 39,
          "time": 86.99999999999964,
          "velocity": 0.5826771653543307,
          "duration": 0.5691666666666606
        },
        {
          "name": "A#2",
          "midi": 46,
          "time": 86.99999999999964,
          "velocity": 0.5826771653543307,
          "duration": 0.5691666666666606
        },
        {
          "name": "D#3",
          "midi": 51,
          "time": 86.99999999999964,
          "velocity": 0.5826771653543307,
          "duration": 0.5691666666666606
        },
        {
          "name": "D#2",
          "midi": 39,
          "time": 87.59999999999964,
          "velocity": 0.5354330708661418,
          "duration": 0.3791666666666629
        },
        {
          "name": "A#2",
          "midi": 46,
          "time": 87.59999999999964,
          "velocity": 0.5354330708661418,
          "duration": 0.3791666666666629
        },
        {
          "name": "D#3",
          "midi": 51,
          "time": 87.59999999999964,
          "velocity": 0.5354330708661418,
          "duration": 0.3791666666666629
        },
        {
          "name": "F2",
          "midi": 41,
          "time": 87.99999999999963,
          "velocity": 0.5039370078740157,
          "duration": 0.5691666666666606
        },
        {
          "name": "C3",
          "midi": 48,
          "time": 87.99999999999963,
          "velocity": 0.5039370078740157,
          "duration": 0.5691666666666606
        },
        {
          "name": "F3",
          "midi": 53,
          "time": 87.99999999999963,
          "velocity": 0.5039370078740157,
          "duration": 0.5691666666666606
        },
        {
          "name": "F2",
          "midi": 41,
          "time": 88.59999999999962,
          "velocity": 0.5039370078740157,
          "duration": 1.5191666666666634
        },
        {
          "name": "C3",
          "midi": 48,
          "time": 88.59999999999962,
          "velocity": 0.5039370078740157,
          "duration": 1.5191666666666634
        },
        {
          "name": "F3",
          "midi": 53,
          "time": 88.59999999999962,
          "velocity": 0.5039370078740157,
          "duration": 1.5191666666666634
        },
        {
          "name": "C#4",
          "midi": 61,
          "time": 91.19999999999962,
          "velocity": 0.3858267716535433,
          "duration": 1.5191666666666634
        },
        {
          "name": "F#4",
          "midi": 66,
          "time": 91.19999999999962,
          "velocity": 0.3858267716535433,
          "duration": 1.5191666666666634
        },
        {
          "name": "A#4",
          "midi": 70,
          "time": 91.19999999999962,
          "velocity": 0.3858267716535433,
          "duration": 1.5191666666666634
        },
        {
          "name": "G#4",
          "midi": 68,
          "time": 92.79999999999961,
          "velocity": 0.3858267716535433,
          "duration": 1.5191666666666634
        },
        {
          "name": "C5",
          "midi": 72,
          "time": 92.79999999999961,
          "velocity": 0.3858267716535433,
          "duration": 1.5191666666666634
        },
        {
          "name": "D#4",
          "midi": 63,
          "time": 94.39999999999961,
          "velocity": 0.3858267716535433,
          "duration": 1.5191666666666634
        },
        {
          "name": "G#4",
          "midi": 68,
          "time": 94.39999999999961,
          "velocity": 0.3858267716535433,
          "duration": 1.5191666666666634
        },
        {
          "name": "C5",
          "midi": 72,
          "time": 94.39999999999961,
          "velocity": 0.3858267716535433,
          "duration": 1.5191666666666634
        },
        {
          "name": "F4",
          "midi": 65,
          "time": 95.9999999999996,
          "velocity": 0.3858267716535433,
          "duration": 0.7591666666666725
        },
        {
          "name": "G#4",
          "midi": 68,
          "time": 95.9999999999996,
          "velocity": 0.3858267716535433,
          "duration": 0.7591666666666725
        },
        {
          "name": "C5",
          "midi": 72,
          "time": 95.9999999999996,
          "velocity": 0.3858267716535433,
          "duration": 0.7591666666666725
        },
        {
          "name": "C4",
          "midi": 60,
          "time": 96.79999999999961,
          "velocity": 0.3858267716535433,
          "duration": 0.7991666666666504
        },
        {
          "name": "F4",
          "midi": 65,
          "time": 96.85249999999961,
          "velocity": 0.3858267716535433,
          "duration": 0.7458333333333229
        },
        {
          "name": "C5",
          "midi": 72,
          "time": 96.90583333333294,
          "velocity": 0.3858267716535433,
          "duration": 0.6924999999999955
        },
        {
          "name": "F4",
          "midi": 65,
          "time": 97.5999999999996,
          "velocity": 0.3858267716535433,
          "duration": 1.5191666666666634
        },
        {
          "name": "A#4",
          "midi": 70,
          "time": 97.5999999999996,
          "velocity": 0.3858267716535433,
          "duration": 1.5191666666666634
        },
        {
          "name": "C#5",
          "midi": 73,
          "time": 97.5999999999996,
          "velocity": 0.3858267716535433,
          "duration": 1.5191666666666634
        },
        {
          "name": "G#4",
          "midi": 68,
          "time": 99.19999999999959,
          "velocity": 0.3858267716535433,
          "duration": 1.5191666666666634
        },
        {
          "name": "C5",
          "midi": 72,
          "time": 99.19999999999959,
          "velocity": 0.3858267716535433,
          "duration": 1.5191666666666634
        },
        {
          "name": "C#4",
          "midi": 61,
          "time": 100.79999999999959,
          "velocity": 0.3858267716535433,
          "duration": 1.5191666666666634
        },
        {
          "name": "F#4",
          "midi": 66,
          "time": 100.79999999999959,
          "velocity": 0.3858267716535433,
          "duration": 1.5191666666666634
        },
        {
          "name": "A#4",
          "midi": 70,
          "time": 100.79999999999959,
          "velocity": 0.3858267716535433,
          "duration": 1.5191666666666634
        },
        {
          "name": "D#4",
          "midi": 63,
          "time": 102.39999999999958,
          "velocity": 0.3858267716535433,
          "duration": 1.5991666666666617
        },
        {
          "name": "G#4",
          "midi": 68,
          "time": 102.45249999999957,
          "velocity": 0.3858267716535433,
          "duration": 1.5458333333333343
        },
        {
          "name": "C5",
          "midi": 72,
          "time": 102.50499999999957,
          "velocity": 0.3858267716535433,
          "duration": 1.4933333333333394
        }
      ],
      "controlChanges": {
        "64": [
          {
            "number": 64,
            "time": 22.40166666666666,
            "value": 1
          },
          {
            "number": 64,
            "time": 24.000833333333322,
            "value": 0
          },
          {
            "number": 64,
            "time": 25.60166666666665,
            "value": 1
          },
          {
            "number": 64,
            "time": 27.20083333333331,
            "value": 0
          },
          {
            "number": 64,
            "time": 28.80166666666664,
            "value": 1
          },
          {
            "number": 64,
            "time": 30.400833333333303,
            "value": 0
          },
          {
            "number": 64,
            "time": 32.00166666666663,
            "value": 1
          },
          {
            "number": 64,
            "time": 33.600833333333284,
            "value": 0
          },
          {
            "number": 64,
            "time": 33.60166666666662,
            "value": 1
          },
          {
            "number": 64,
            "time": 35.20083333333327,
            "value": 0
          },
          {
            "number": 64,
            "time": 73.60166666666639,
            "value": 1
          },
          {
            "number": 64,
            "time": 75.20083333333308,
            "value": 0
          },
          {
            "number": 64,
            "time": 75.20166666666641,
            "value": 1
          },
          {
            "number": 64,
            "time": 76.8008333333331,
            "value": 0
          },
          {
            "number": 64,
            "time": 76.80166666666643,
            "value": 1
          },
          {
            "number": 64,
            "time": 78.40083333333308,
            "value": 0
          },
          {
            "number": 64,
            "time": 78.40166666666642,
            "value": 1
          },
          {
            "number": 64,
            "time": 80.00083333333306,
            "value": 0
          },
          {
            "number": 64,
            "time": 80.0016666666664,
            "value": 1
          },
          {
            "number": 64,
            "time": 81.60083333333304,
            "value": 0
          },
          {
            "number": 64,
            "time": 81.60166666666638,
            "value": 1
          },
          {
            "number": 64,
            "time": 83.20083333333302,
            "value": 0
          },
          {
            "number": 64,
            "time": 83.20166666666636,
            "value": 1
          },
          {
            "number": 64,
            "time": 84.800833333333,
            "value": 0
          },
          {
            "number": 64,
            "time": 84.80166666666634,
            "value": 1
          },
          {
            "number": 64,
            "time": 86.40083333333298,
            "value": 0
          },
          {
            "number": 64,
            "time": 86.40166666666632,
            "value": 1
          },
          {
            "number": 64,
            "time": 88.00083333333296,
            "value": 0
          }
        ]
      },
      "id": 1,
      "channelNumber": 0,
      "isPercussion": false
    }
  ]
}