{
  "header": {
    "PPQ": 96,
    "timeSignature": [
      4,
      4
    ],
    "bpm": 157.999931533363,
    "name": ""
  },
  "startTime": 0,
  "duration": 112.97473249999994,
  "tracks": [
    {
      "startTime": 0,
      "duration": 0,
      "length": 0,
      "notes": [],
      "controlChanges": {},
      "id": 0
    },
    {
      "startTime": 0,
      "duration": 0,
      "length": 0,
      "notes": [],
      "controlChanges": {},
      "id": 1
    },
    {
      "startTime": 0.38370269791666667,
      "duration": 108.4217241979171,
      "length": 320,
      "notes": [
        {
          "name": "G#5",
          "midi": 80,
          "time": 0.38370269791666667,
          "velocity": 0.8346456692913385,
          "duration": 1.3291145
        },
        {
          "name": "F5",
          "midi": 77,
          "time": 0.38370269791666667,
          "velocity": 0.7244094488188977,
          "duration": 1.3291145
        },
        {
          "name": "G5",
          "midi": 79,
          "time": 1.9026906979166667,
          "velocity": 0.8503937007874016,
          "duration": 1.3291145
        },
        {
          "name": "G#5",
          "midi": 80,
          "time": 3.4216786979166667,
          "velocity": 0.8110236220472441,
          "duration": 1.3291145000000002
        },
        {
          "name": "F5",
          "midi": 77,
          "time": 3.4216786979166667,
          "velocity": 0.8110236220472441,
          "duration": 1.3291145000000002
        },
        {
          "name": "F5",
          "midi": 77,
          "time": 6.459654697916667,
          "velocity": 0.6771653543307087,
          "duration": 1.3053803125000005
        },
        {
          "name": "G#5",
          "midi": 80,
          "time": 6.459654697916667,
          "velocity": 0.8110236220472441,
          "duration": 1.3291145000000002
        },
        {
          "name": "G5",
          "midi": 79,
          "time": 7.978642697916667,
          "velocity": 0.8110236220472441,
          "duration": 1.3291144999999993
        },
        {
          "name": "G#5",
          "midi": 80,
          "time": 9.497630697916666,
          "velocity": 0.8110236220472441,
          "duration": 1.3291144999999993
        },
        {
          "name": "F5",
          "midi": 77,
          "time": 11.396365697916664,
          "velocity": 0.7637795275590551,
          "duration": 0.2848102499999996
        },
        {
          "name": "A#5",
          "midi": 82,
          "time": 11.776112697916664,
          "velocity": 0.8031496062992126,
          "duration": 0.18987349999999914
        },
        {
          "name": "G#5",
          "midi": 80,
          "time": 11.965986197916664,
          "velocity": 0.7244094488188977,
          "duration": 0.2848102499999996
        },
        {
          "name": "F5",
          "midi": 77,
          "time": 12.250796447916663,
          "velocity": 0.7165354330708661,
          "duration": 0.2848102499999996
        },
        {
          "name": "F5",
          "midi": 77,
          "time": 24.877384197916662,
          "velocity": 0.7165354330708661,
          "duration": 0.18987350000000092
        },
        {
          "name": "D#5",
          "midi": 75,
          "time": 25.067257697916663,
          "velocity": 0.10236220472440945,
          "duration": 0.18987350000000092
        },
        {
          "name": "G#5",
          "midi": 80,
          "time": 25.067257697916663,
          "velocity": 0.7165354330708661,
          "duration": 0.18987350000000092
        },
        {
          "name": "D#5",
          "midi": 75,
          "time": 25.257131197916664,
          "velocity": 0.15748031496062992,
          "duration": 0.18987350000000092
        },
        {
          "name": "G#5",
          "midi": 80,
          "time": 25.257131197916664,
          "velocity": 0.7165354330708661,
          "duration": 0.18987350000000092
        },
        {
          "name": "G#5",
          "midi": 80,
          "time": 25.447004697916665,
          "velocity": 0.7165354330708661,
          "duration": 0.18987350000000092
        },
        {
          "name": "D#5",
          "midi": 75,
          "time": 25.447004697916665,
          "velocity": 0.2204724409448819,
          "duration": 0.18987350000000092
        },
        {
          "name": "G#5",
          "midi": 80,
          "time": 25.636878197916666,
          "velocity": 0.7165354330708661,
          "duration": 0.18987350000000092
        },
        {
          "name": "D#5",
          "midi": 75,
          "time": 25.636878197916666,
          "velocity": 0.2677165354330709,
          "duration": 0.18987350000000092
        },
        {
          "name": "D#5",
          "midi": 75,
          "time": 25.826751697916666,
          "velocity": 0.31496062992125984,
          "duration": 0.18987350000000092
        },
        {
          "name": "G#5",
          "midi": 80,
          "time": 25.826751697916666,
          "velocity": 0.7165354330708661,
          "duration": 0.18987350000000092
        },
        {
          "name": "D#5",
          "midi": 75,
          "time": 26.016625197916667,
          "velocity": 0.3543307086614173,
          "duration": 0.18987350000000092
        },
        {
          "name": "G#5",
          "midi": 80,
          "time": 26.016625197916667,
          "velocity": 0.7165354330708661,
          "duration": 0.18987350000000092
        },
        {
          "name": "G#5",
          "midi": 80,
          "time": 26.20649869791667,
          "velocity": 0.7165354330708661,
          "duration": 0.18987350000000092
        },
        {
          "name": "D#5",
          "midi": 75,
          "time": 26.20649869791667,
          "velocity": 0.48031496062992124,
          "duration": 0.18987350000000092
        },
        {
          "name": "F5",
          "midi": 77,
          "time": 26.58624569791667,
          "velocity": 0.7165354330708661,
          "duration": 0.3797469999999983
        },
        {
          "name": "G#5",
          "midi": 80,
          "time": 26.96599269791667,
          "velocity": 0.4094488188976378,
          "duration": 0.18987350000000092
        },
        {
          "name": "D#5",
          "midi": 75,
          "time": 26.96599269791667,
          "velocity": 0.6062992125984252,
          "duration": 0.18987350000000092
        },
        {
          "name": "F5",
          "midi": 77,
          "time": 27.34573969791667,
          "velocity": 0.2755905511811024,
          "duration": 0.18987350000000092
        },
        {
          "name": "F5",
          "midi": 77,
          "time": 27.91536019791667,
          "velocity": 0.7165354330708661,
          "duration": 0.18987350000000092
        },
        {
          "name": "G#5",
          "midi": 80,
          "time": 28.10523369791667,
          "velocity": 0.7165354330708661,
          "duration": 0.18987350000000092
        },
        {
          "name": "D#5",
          "midi": 75,
          "time": 28.10523369791667,
          "velocity": 0.5826771653543307,
          "duration": 0.18987350000000092
        },
        {
          "name": "G#5",
          "midi": 80,
          "time": 28.29510719791667,
          "velocity": 0.7165354330708661,
          "duration": 0.18987350000000092
        },
        {
          "name": "D#5",
          "midi": 75,
          "time": 28.29510719791667,
          "velocity": 0.5748031496062992,
          "duration": 0.18987350000000092
        },
        {
          "name": "G#5",
          "midi": 80,
          "time": 28.484980697916672,
          "velocity": 0.7165354330708661,
          "duration": 0.18987350000000092
        },
        {
          "name": "D#5",
          "midi": 75,
          "time": 28.484980697916672,
          "velocity": 0.5669291338582677,
          "duration": 0.18987350000000092
        },
        {
          "name": "G#5",
          "midi": 80,
          "time": 28.674854197916673,
          "velocity": 0.7165354330708661,
          "duration": 0.18987350000000092
        },
        {
          "name": "D#5",
          "midi": 75,
          "time": 28.674854197916673,
          "velocity": 0.5590551181102362,
          "duration": 0.18987350000000092
        },
        {
          "name": "G#5",
          "midi": 80,
          "time": 28.864727697916674,
          "velocity": 0.7165354330708661,
          "duration": 0.18987350000000092
        },
        {
          "name": "D#5",
          "midi": 75,
          "time": 28.864727697916674,
          "velocity": 0.5511811023622047,
          "duration": 0.18987350000000092
        },
        {
          "name": "G#5",
          "midi": 80,
          "time": 29.054601197916675,
          "velocity": 0.7165354330708661,
          "duration": 0.18987350000000092
        },
        {
          "name": "D#5",
          "midi": 75,
          "time": 29.054601197916675,
          "velocity": 0.5275590551181102,
          "duration": 0.18987350000000092
        },
        {
          "name": "G#5",
          "midi": 80,
          "time": 29.244474697916676,
          "velocity": 0.7165354330708661,
          "duration": 0.18987350000000092
        },
        {
          "name": "D#5",
          "midi": 75,
          "time": 29.244474697916676,
          "velocity": 0.5039370078740157,
          "duration": 0.18987350000000092
        },
        {
          "name": "F5",
          "midi": 77,
          "time": 29.624221697916678,
          "velocity": 0.7165354330708661,
          "duration": 0.3797469999999983
        },
        {
          "name": "A#4",
          "midi": 70,
          "time": 36.269794197916674,
          "velocity": 0.8661417322834646,
          "duration": 0.18987349999999736
        },
        {
          "name": "G#4",
          "midi": 68,
          "time": 36.45966769791667,
          "velocity": 0.8661417322834646,
          "duration": 0.18987349999999736
        },
        {
          "name": "A#4",
          "midi": 70,
          "time": 36.64954119791667,
          "velocity": 0.8661417322834646,
          "duration": 0.18987349999999736
        },
        {
          "name": "A#4",
          "midi": 70,
          "time": 36.839414697916666,
          "velocity": 0.8661417322834646,
          "duration": 0.18987349999999736
        },
        {
          "name": "C6",
          "midi": 84,
          "time": 37.029288197916664,
          "velocity": 0.8661417322834646,
          "duration": 0.18987349999999736
        },
        {
          "name": "C5",
          "midi": 72,
          "time": 37.029288197916664,
          "velocity": 0.8661417322834646,
          "duration": 0.18987349999999736
        },
        {
          "name": "C6",
          "midi": 84,
          "time": 37.40903519791666,
          "velocity": 0.8661417322834646,
          "duration": 0.18987349999999736
        },
        {
          "name": "C5",
          "midi": 72,
          "time": 37.40903519791666,
          "velocity": 0.8661417322834646,
          "duration": 0.18987349999999736
        },
        {
          "name": "A#4",
          "midi": 70,
          "time": 38.35840269791665,
          "velocity": 0.8661417322834646,
          "duration": 0.18987349999999736
        },
        {
          "name": "C6",
          "midi": 84,
          "time": 38.54827619791665,
          "velocity": 0.8661417322834646,
          "duration": 0.18987349999999736
        },
        {
          "name": "C5",
          "midi": 72,
          "time": 38.54827619791665,
          "velocity": 0.8661417322834646,
          "duration": 0.18987349999999736
        },
        {
          "name": "C6",
          "midi": 84,
          "time": 38.928023197916644,
          "velocity": 0.8661417322834646,
          "duration": 0.18987349999999736
        },
        {
          "name": "C5",
          "midi": 72,
          "time": 38.928023197916644,
          "velocity": 0.8661417322834646,
          "duration": 0.18987349999999736
        },
        {
          "name": "A#4",
          "midi": 70,
          "time": 39.87739069791664,
          "velocity": 0.8661417322834646,
          "duration": 0.18987349999999736
        },
        {
          "name": "C6",
          "midi": 84,
          "time": 40.067264197916636,
          "velocity": 0.8661417322834646,
          "duration": 0.18987349999999736
        },
        {
          "name": "C5",
          "midi": 72,
          "time": 40.067264197916636,
          "velocity": 0.8661417322834646,
          "duration": 0.18987349999999736
        },
        {
          "name": "C6",
          "midi": 84,
          "time": 40.44701119791663,
          "velocity": 0.8661417322834646,
          "duration": 0.18987349999999736
        },
        {
          "name": "C5",
          "midi": 72,
          "time": 40.44701119791663,
          "velocity": 0.8661417322834646,
          "duration": 0.18987349999999736
        },
        {
          "name": "A#4",
          "midi": 70,
          "time": 42.915366697916625,
          "velocity": 0.8661417322834646,
          "duration": 0.18987349999999736
        },
        {
          "name": "C5",
          "midi": 72,
          "time": 43.10524019791662,
          "velocity": 0.8661417322834646,
          "duration": 0.18987349999999736
        },
        {
          "name": "C5",
          "midi": 72,
          "time": 43.29511369791662,
          "velocity": 0.8661417322834646,
          "duration": 0.18987349999999736
        },
        {
          "name": "A#4",
          "midi": 70,
          "time": 44.43435469791662,
          "velocity": 0.8661417322834646,
          "duration": 0.18987349999999736
        },
        {
          "name": "C5",
          "midi": 72,
          "time": 44.624228197916615,
          "velocity": 0.8661417322834646,
          "duration": 0.18987349999999736
        },
        {
          "name": "C5",
          "midi": 72,
          "time": 44.81410169791661,
          "velocity": 0.8661417322834646,
          "duration": 0.18987349999999736
        },
        {
          "name": "A#4",
          "midi": 70,
          "time": 45.95334269791661,
          "velocity": 0.8661417322834646,
          "duration": 0.37974700000000183
        },
        {
          "name": "F4",
          "midi": 65,
          "time": 46.33308969791661,
          "velocity": 0.8661417322834646,
          "duration": 0.37974700000000183
        },
        {
          "name": "D#5",
          "midi": 75,
          "time": 47.84812199999995,
          "velocity": 0.5039370078740157,
          "duration": 0.37974700000000183
        },
        {
          "name": "G#4",
          "midi": 68,
          "time": 47.85207769791661,
          "velocity": 0.8661417322834646,
          "duration": 0.37974700000000183
        },
        {
          "name": "G#5",
          "midi": 80,
          "time": 47.85207769791661,
          "velocity": 0.8661417322834646,
          "duration": 0.37974700000000183
        },
        {
          "name": "D5",
          "midi": 74,
          "time": 48.22786899999995,
          "velocity": 0.5039370078740157,
          "duration": 0.37974700000000183
        },
        {
          "name": "G5",
          "midi": 79,
          "time": 48.231824697916615,
          "velocity": 0.8661417322834646,
          "duration": 0.37974700000000183
        },
        {
          "name": "G4",
          "midi": 67,
          "time": 48.231824697916615,
          "velocity": 0.8661417322834646,
          "duration": 0.37974700000000183
        },
        {
          "name": "C5",
          "midi": 72,
          "time": 48.60761599999995,
          "velocity": 0.5039370078740157,
          "duration": 0.18987349999999736
        },
        {
          "name": "F5",
          "midi": 77,
          "time": 48.61157169791662,
          "velocity": 0.8661417322834646,
          "duration": 0.18987349999999736
        },
        {
          "name": "F4",
          "midi": 65,
          "time": 48.61157169791662,
          "velocity": 0.8661417322834646,
          "duration": 0.18987349999999736
        },
        {
          "name": "F4",
          "midi": 65,
          "time": 48.987362999999945,
          "velocity": 0.8346456692913385,
          "duration": 0.18987349999999736
        },
        {
          "name": "C5",
          "midi": 72,
          "time": 48.987362999999945,
          "velocity": 0.8346456692913385,
          "duration": 0.18987349999999736
        },
        {
          "name": "F5",
          "midi": 77,
          "time": 48.987362999999945,
          "velocity": 0.8346456692913385,
          "duration": 0.18987349999999736
        },
        {
          "name": "F5",
          "midi": 77,
          "time": 49.56093919791661,
          "velocity": 0.8661417322834646,
          "duration": 0.18987349999999736
        },
        {
          "name": "D#5",
          "midi": 75,
          "time": 50.510306697916604,
          "velocity": 0.8661417322834646,
          "duration": 0.18987349999999736
        },
        {
          "name": "F5",
          "midi": 77,
          "time": 50.7001801979166,
          "velocity": 0.8661417322834646,
          "duration": 0.18987349999999736
        },
        {
          "name": "F5",
          "midi": 77,
          "time": 50.8900536979166,
          "velocity": 0.8661417322834646,
          "duration": 0.18987349999999736
        },
        {
          "name": "F5",
          "midi": 77,
          "time": 51.0799271979166,
          "velocity": 0.8661417322834646,
          "duration": 0.18987349999999736
        },
        {
          "name": "F5",
          "midi": 77,
          "time": 51.269800697916594,
          "velocity": 0.8661417322834646,
          "duration": 0.37974700000000183
        },
        {
          "name": "D#5",
          "midi": 75,
          "time": 51.64559199999993,
          "velocity": 0.5039370078740157,
          "duration": 0.18987349999999736
        },
        {
          "name": "G5",
          "midi": 79,
          "time": 52.025338999999924,
          "velocity": 0.44881889763779526,
          "duration": 0.18987349999999736
        },
        {
          "name": "D#5",
          "midi": 75,
          "time": 52.02929469791659,
          "velocity": 0.7086614173228346,
          "duration": 0.18987349999999736
        },
        {
          "name": "F5",
          "midi": 77,
          "time": 52.21916819791659,
          "velocity": 0.8661417322834646,
          "duration": 0.18987349999999736
        },
        {
          "name": "F5",
          "midi": 77,
          "time": 52.409041697916585,
          "velocity": 0.8661417322834646,
          "duration": 0.18987349999999736
        },
        {
          "name": "D#5",
          "midi": 75,
          "time": 52.59891519791658,
          "velocity": 0.8661417322834646,
          "duration": 0.18987349999999736
        },
        {
          "name": "F5",
          "midi": 77,
          "time": 52.78878869791658,
          "velocity": 0.8661417322834646,
          "duration": 0.37974700000000183
        },
        {
          "name": "G5",
          "midi": 79,
          "time": 53.16853569791658,
          "velocity": 0.8661417322834646,
          "duration": 0.37974700000000183
        },
        {
          "name": "G#5",
          "midi": 80,
          "time": 53.548282697916584,
          "velocity": 0.8661417322834646,
          "duration": 0.2848102499999996
        },
        {
          "name": "G#4",
          "midi": 68,
          "time": 53.92407399999992,
          "velocity": 0.5039370078740157,
          "duration": 0.3797469999999947
        },
        {
          "name": "D#5",
          "midi": 75,
          "time": 53.92407399999992,
          "velocity": 0.5039370078740157,
          "duration": 0.3797469999999947
        },
        {
          "name": "G#5",
          "midi": 80,
          "time": 53.928029697916585,
          "velocity": 0.8661417322834646,
          "duration": 0.18987349999999736
        },
        {
          "name": "D5",
          "midi": 74,
          "time": 54.303820999999914,
          "velocity": 0.5039370078740157,
          "duration": 0.3797469999999947
        },
        {
          "name": "G4",
          "midi": 67,
          "time": 54.303820999999914,
          "velocity": 0.5039370078740157,
          "duration": 0.3797469999999947
        },
        {
          "name": "G5",
          "midi": 79,
          "time": 54.30777669791658,
          "velocity": 0.8661417322834646,
          "duration": 0.18987349999999736
        },
        {
          "name": "F4",
          "midi": 65,
          "time": 54.68356799999991,
          "velocity": 0.5039370078740157,
          "duration": 0.18987349999999736
        },
        {
          "name": "C5",
          "midi": 72,
          "time": 54.68356799999991,
          "velocity": 0.5039370078740157,
          "duration": 0.18987349999999736
        },
        {
          "name": "F5",
          "midi": 77,
          "time": 54.687523697916575,
          "velocity": 0.8661417322834646,
          "duration": 0.18987349999999736
        },
        {
          "name": "C5",
          "midi": 72,
          "time": 55.0633149999999,
          "velocity": 0.8346456692913385,
          "duration": 0.18987349999999736
        },
        {
          "name": "F4",
          "midi": 65,
          "time": 55.0633149999999,
          "velocity": 0.8346456692913385,
          "duration": 0.18987349999999736
        },
        {
          "name": "F5",
          "midi": 77,
          "time": 55.06727069791657,
          "velocity": 0.8661417322834646,
          "duration": 0.3797469999999947
        },
        {
          "name": "F5",
          "midi": 77,
          "time": 55.826764697916566,
          "velocity": 0.8661417322834646,
          "duration": 0.37974700000000183
        },
        {
          "name": "D#5",
          "midi": 75,
          "time": 56.58625869791657,
          "velocity": 0.8661417322834646,
          "duration": 0.18987349999999736
        },
        {
          "name": "F5",
          "midi": 77,
          "time": 56.77613219791657,
          "velocity": 0.8661417322834646,
          "duration": 0.18987349999999736
        },
        {
          "name": "F5",
          "midi": 77,
          "time": 56.966005697916565,
          "velocity": 0.8661417322834646,
          "duration": 0.18987349999999736
        },
        {
          "name": "F5",
          "midi": 77,
          "time": 57.15587919791656,
          "velocity": 0.8661417322834646,
          "duration": 0.18987349999999736
        },
        {
          "name": "F5",
          "midi": 77,
          "time": 57.34575269791656,
          "velocity": 0.8661417322834646,
          "duration": 0.37974700000000183
        },
        {
          "name": "C5",
          "midi": 72,
          "time": 57.72549969791656,
          "velocity": 0.8661417322834646,
          "duration": 0.18987349999999736
        },
        {
          "name": "D#5",
          "midi": 75,
          "time": 58.105246697916556,
          "velocity": 0.8661417322834646,
          "duration": 0.18987349999999736
        },
        {
          "name": "F5",
          "midi": 77,
          "time": 58.29512019791655,
          "velocity": 0.8661417322834646,
          "duration": 0.18987349999999736
        },
        {
          "name": "F5",
          "midi": 77,
          "time": 58.48499369791655,
          "velocity": 0.8661417322834646,
          "duration": 0.18987349999999736
        },
        {
          "name": "D#5",
          "midi": 75,
          "time": 58.67486719791655,
          "velocity": 0.8661417322834646,
          "duration": 0.18987349999999736
        },
        {
          "name": "F5",
          "midi": 77,
          "time": 58.864740697916545,
          "velocity": 0.8661417322834646,
          "duration": 0.37974700000000183
        },
        {
          "name": "G5",
          "midi": 79,
          "time": 59.24448769791655,
          "velocity": 0.8661417322834646,
          "duration": 0.37974700000000183
        },
        {
          "name": "G#5",
          "midi": 80,
          "time": 59.62423469791655,
          "velocity": 0.8661417322834646,
          "duration": 0.2848102499999996
        },
        {
          "name": "D#5",
          "midi": 75,
          "time": 60.000025999999885,
          "velocity": 0.905511811023622,
          "duration": 0.3797469999999947
        },
        {
          "name": "G#4",
          "midi": 68,
          "time": 60.000025999999885,
          "velocity": 0.905511811023622,
          "duration": 0.3797469999999947
        },
        {
          "name": "G#5",
          "midi": 80,
          "time": 60.00398169791655,
          "velocity": 0.8661417322834646,
          "duration": 0.18987349999999736
        },
        {
          "name": "G4",
          "midi": 67,
          "time": 60.37977299999988,
          "velocity": 0.7244094488188977,
          "duration": 0.3797469999999947
        },
        {
          "name": "D5",
          "midi": 74,
          "time": 60.37977299999988,
          "velocity": 0.7244094488188977,
          "duration": 0.3797469999999947
        },
        {
          "name": "G5",
          "midi": 79,
          "time": 60.383728697916546,
          "velocity": 0.8661417322834646,
          "duration": 0.18987349999999736
        },
        {
          "name": "C5",
          "midi": 72,
          "time": 60.759519999999874,
          "velocity": 0.6614173228346457,
          "duration": 0.18987349999999736
        },
        {
          "name": "F4",
          "midi": 65,
          "time": 60.759519999999874,
          "velocity": 0.6614173228346457,
          "duration": 0.18987349999999736
        },
        {
          "name": "F5",
          "midi": 77,
          "time": 60.76347569791654,
          "velocity": 0.8661417322834646,
          "duration": 0.18987349999999736
        },
        {
          "name": "F4",
          "midi": 65,
          "time": 61.13926699999987,
          "velocity": 0.6377952755905512,
          "duration": 0.18987349999999736
        },
        {
          "name": "C5",
          "midi": 72,
          "time": 61.13926699999987,
          "velocity": 0.6377952755905512,
          "duration": 0.18987349999999736
        },
        {
          "name": "F5",
          "midi": 77,
          "time": 61.143222697916535,
          "velocity": 0.8661417322834646,
          "duration": 0.18987349999999736
        },
        {
          "name": "F5",
          "midi": 77,
          "time": 61.52296969791653,
          "velocity": 0.8661417322834646,
          "duration": 0.18987349999999736
        },
        {
          "name": "G#5",
          "midi": 80,
          "time": 61.902716697916524,
          "velocity": 0.8661417322834646,
          "duration": 0.18987349999999736
        },
        {
          "name": "D#6",
          "midi": 87,
          "time": 62.09259019791652,
          "velocity": 0.8661417322834646,
          "duration": 0.18987349999999736
        },
        {
          "name": "D#6",
          "midi": 87,
          "time": 62.47233719791652,
          "velocity": 0.8661417322834646,
          "duration": 0.18987349999999736
        },
        {
          "name": "C6",
          "midi": 84,
          "time": 62.85208419791651,
          "velocity": 0.8661417322834646,
          "duration": 0.3797469999999947
        },
        {
          "name": "D#5",
          "midi": 75,
          "time": 63.03800199999984,
          "velocity": 0.905511811023622,
          "duration": 0.3797469999999947
        },
        {
          "name": "G#5",
          "midi": 80,
          "time": 63.04195769791651,
          "velocity": 0.8661417322834646,
          "duration": 0.18987349999999736
        },
        {
          "name": "D5",
          "midi": 74,
          "time": 63.41774899999984,
          "velocity": 0.7244094488188977,
          "duration": 0.3797469999999947
        },
        {
          "name": "G5",
          "midi": 79,
          "time": 63.4217046979165,
          "velocity": 0.8661417322834646,
          "duration": 0.18987349999999736
        },
        {
          "name": "F4",
          "midi": 65,
          "time": 63.79749599999983,
          "velocity": 0.6614173228346457,
          "duration": 0.18987349999999736
        },
        {
          "name": "C5",
          "midi": 72,
          "time": 63.79749599999983,
          "velocity": 0.6614173228346457,
          "duration": 0.18987349999999736
        },
        {
          "name": "F5",
          "midi": 77,
          "time": 63.8014516979165,
          "velocity": 0.8661417322834646,
          "duration": 0.18987349999999736
        },
        {
          "name": "C5",
          "midi": 72,
          "time": 64.17724299999983,
          "velocity": 0.6377952755905512,
          "duration": 0.18987350000000447
        },
        {
          "name": "F5",
          "midi": 77,
          "time": 64.1811986979165,
          "velocity": 0.8661417322834646,
          "duration": 0.18987350000000447
        },
        {
          "name": "F5",
          "midi": 77,
          "time": 64.56094569791651,
          "velocity": 0.8661417322834646,
          "duration": 0.18987350000000447
        },
        {
          "name": "G#5",
          "midi": 80,
          "time": 64.94069269791652,
          "velocity": 0.8661417322834646,
          "duration": 0.3797469999999947
        },
        {
          "name": "D#6",
          "midi": 87,
          "time": 65.32043969791651,
          "velocity": 0.8661417322834646,
          "duration": 0.18987350000000447
        },
        {
          "name": "D#6",
          "midi": 87,
          "time": 65.51031319791652,
          "velocity": 0.8661417322834646,
          "duration": 0.18987350000000447
        },
        {
          "name": "C6",
          "midi": 84,
          "time": 65.89006019791653,
          "velocity": 0.8661417322834646,
          "duration": 0.18987350000000447
        },
        {
          "name": "D#5",
          "midi": 75,
          "time": 66.07597799999986,
          "velocity": 0.905511811023622,
          "duration": 0.37974700000000894
        },
        {
          "name": "G#5",
          "midi": 80,
          "time": 66.07993369791653,
          "velocity": 0.8661417322834646,
          "duration": 0.18987350000000447
        },
        {
          "name": "D5",
          "midi": 74,
          "time": 66.45572499999987,
          "velocity": 0.7244094488188977,
          "duration": 0.37974700000000894
        },
        {
          "name": "G5",
          "midi": 79,
          "time": 66.45968069791654,
          "velocity": 0.8661417322834646,
          "duration": 0.18987350000000447
        },
        {
          "name": "C5",
          "midi": 72,
          "time": 66.83547199999988,
          "velocity": 0.6614173228346457,
          "duration": 0.18987350000000447
        },
        {
          "name": "F5",
          "midi": 77,
          "time": 66.83942769791655,
          "velocity": 0.8661417322834646,
          "duration": 0.18987350000000447
        },
        {
          "name": "C5",
          "midi": 72,
          "time": 67.21521899999989,
          "velocity": 0.6377952755905512,
          "duration": 0.18987350000000447
        },
        {
          "name": "F5",
          "midi": 77,
          "time": 67.21917469791656,
          "velocity": 0.8661417322834646,
          "duration": 0.18987350000000447
        },
        {
          "name": "G#5",
          "midi": 80,
          "time": 69.11790969791656,
          "velocity": 0.8661417322834646,
          "duration": 0.18987350000000447
        },
        {
          "name": "G5",
          "midi": 79,
          "time": 69.49765669791657,
          "velocity": 0.8661417322834646,
          "duration": 0.18987350000000447
        },
        {
          "name": "F5",
          "midi": 77,
          "time": 69.87740369791658,
          "velocity": 0.8661417322834646,
          "duration": 0.18987350000000447
        },
        {
          "name": "F5",
          "midi": 77,
          "time": 70.25715069791659,
          "velocity": 0.8661417322834646,
          "duration": 0.18987350000000447
        },
        {
          "name": "G#5",
          "midi": 80,
          "time": 70.6368976979166,
          "velocity": 0.5039370078740157,
          "duration": 0.18987350000000447
        },
        {
          "name": "G5",
          "midi": 79,
          "time": 71.0166446979166,
          "velocity": 0.6614173228346457,
          "duration": 0.18987350000000447
        },
        {
          "name": "F5",
          "midi": 77,
          "time": 71.39639169791661,
          "velocity": 0.5433070866141733,
          "duration": 0.18987350000000447
        },
        {
          "name": "F5",
          "midi": 77,
          "time": 71.77613869791662,
          "velocity": 0.4094488188976378,
          "duration": 0.18987350000000447
        },
        {
          "name": "D#5",
          "midi": 75,
          "time": 72.72550619791663,
          "velocity": 0.8661417322834646,
          "duration": 0.18987350000000447
        },
        {
          "name": "D#5",
          "midi": 75,
          "time": 72.91537969791663,
          "velocity": 0.8661417322834646,
          "duration": 0.18987350000000447
        },
        {
          "name": "D#5",
          "midi": 75,
          "time": 73.10525319791664,
          "velocity": 0.8661417322834646,
          "duration": 0.18987350000000447
        },
        {
          "name": "D#5",
          "midi": 75,
          "time": 73.29512669791664,
          "velocity": 0.8661417322834646,
          "duration": 0.18987350000000447
        },
        {
          "name": "C5",
          "midi": 72,
          "time": 73.48500019791665,
          "velocity": 0.8661417322834646,
          "duration": 0.18987350000000447
        },
        {
          "name": "C5",
          "midi": 72,
          "time": 73.67487369791665,
          "velocity": 0.8661417322834646,
          "duration": 0.18987350000000447
        },
        {
          "name": "C5",
          "midi": 72,
          "time": 74.24449419791665,
          "velocity": 0.8661417322834646,
          "duration": 0.18987350000000447
        },
        {
          "name": "C5",
          "midi": 72,
          "time": 74.43436769791666,
          "velocity": 0.8661417322834646,
          "duration": 0.18987350000000447
        },
        {
          "name": "C5",
          "midi": 72,
          "time": 74.62424119791666,
          "velocity": 0.8661417322834646,
          "duration": 0.18987350000000447
        },
        {
          "name": "C5",
          "midi": 72,
          "time": 74.81411469791666,
          "velocity": 0.8661417322834646,
          "duration": 0.18987350000000447
        },
        {
          "name": "A#4",
          "midi": 70,
          "time": 75.00398819791667,
          "velocity": 0.8661417322834646,
          "duration": 0.18987350000000447
        },
        {
          "name": "A#4",
          "midi": 70,
          "time": 75.19386169791667,
          "velocity": 0.8661417322834646,
          "duration": 0.18987350000000447
        },
        {
          "name": "A#4",
          "midi": 70,
          "time": 75.76348219791667,
          "velocity": 0.8661417322834646,
          "duration": 0.18987350000000447
        },
        {
          "name": "A#4",
          "midi": 70,
          "time": 75.95335569791668,
          "velocity": 0.8661417322834646,
          "duration": 0.18987350000000447
        },
        {
          "name": "A#4",
          "midi": 70,
          "time": 76.14322919791668,
          "velocity": 0.8661417322834646,
          "duration": 0.18987350000000447
        },
        {
          "name": "A#4",
          "midi": 70,
          "time": 76.33310269791669,
          "velocity": 0.8661417322834646,
          "duration": 0.18987350000000447
        },
        {
          "name": "G#4",
          "midi": 68,
          "time": 76.52297619791669,
          "velocity": 0.8661417322834646,
          "duration": 0.18987350000000447
        },
        {
          "name": "G#4",
          "midi": 68,
          "time": 76.7128496979167,
          "velocity": 0.8661417322834646,
          "duration": 0.18987350000000447
        },
        {
          "name": "G#4",
          "midi": 68,
          "time": 77.0925966979167,
          "velocity": 0.8661417322834646,
          "duration": 0.18987350000000447
        },
        {
          "name": "A#4",
          "midi": 70,
          "time": 77.28247019791671,
          "velocity": 0.8661417322834646,
          "duration": 0.18987350000000447
        },
        {
          "name": "C5",
          "midi": 72,
          "time": 77.47234369791671,
          "velocity": 0.8661417322834646,
          "duration": 0.18987350000000447
        },
        {
          "name": "C5",
          "midi": 72,
          "time": 77.85209069791672,
          "velocity": 0.8661417322834646,
          "duration": 0.3797469999999947
        },
        {
          "name": "D#5",
          "midi": 75,
          "time": 78.80145819791672,
          "velocity": 0.8661417322834646,
          "duration": 0.18987350000000447
        },
        {
          "name": "D#5",
          "midi": 75,
          "time": 78.99133169791672,
          "velocity": 0.8661417322834646,
          "duration": 0.18987350000000447
        },
        {
          "name": "D#5",
          "midi": 75,
          "time": 79.18120519791673,
          "velocity": 0.8661417322834646,
          "duration": 0.18987350000000447
        },
        {
          "name": "D#5",
          "midi": 75,
          "time": 79.37107869791673,
          "velocity": 0.8661417322834646,
          "duration": 0.18987350000000447
        },
        {
          "name": "C5",
          "midi": 72,
          "time": 79.56095219791673,
          "velocity": 0.8661417322834646,
          "duration": 0.18987350000000447
        },
        {
          "name": "C5",
          "midi": 72,
          "time": 79.75082569791674,
          "velocity": 0.8661417322834646,
          "duration": 0.18987350000000447
        },
        {
          "name": "C5",
          "midi": 72,
          "time": 80.32044619791674,
          "velocity": 0.8661417322834646,
          "duration": 0.18987350000000447
        },
        {
          "name": "C5",
          "midi": 72,
          "time": 80.51031969791674,
          "velocity": 0.8661417322834646,
          "duration": 0.18987350000000447
        },
        {
          "name": "C5",
          "midi": 72,
          "time": 80.70019319791675,
          "velocity": 0.8661417322834646,
          "duration": 0.18987350000000447
        },
        {
          "name": "C5",
          "midi": 72,
          "time": 80.89006669791675,
          "velocity": 0.8661417322834646,
          "duration": 0.18987350000000447
        },
        {
          "name": "A#4",
          "midi": 70,
          "time": 81.07994019791676,
          "velocity": 0.8661417322834646,
          "duration": 0.18987350000000447
        },
        {
          "name": "A#4",
          "midi": 70,
          "time": 81.26981369791676,
          "velocity": 0.8661417322834646,
          "duration": 0.18987350000000447
        },
        {
          "name": "A#4",
          "midi": 70,
          "time": 81.83943419791676,
          "velocity": 0.8661417322834646,
          "duration": 0.18987350000000447
        },
        {
          "name": "A#4",
          "midi": 70,
          "time": 82.02930769791676,
          "velocity": 0.8661417322834646,
          "duration": 0.18987350000000447
        },
        {
          "name": "A#4",
          "midi": 70,
          "time": 82.21918119791677,
          "velocity": 0.8661417322834646,
          "duration": 0.18987350000000447
        },
        {
          "name": "A#4",
          "midi": 70,
          "time": 82.40905469791677,
          "velocity": 0.8661417322834646,
          "duration": 0.18987350000000447
        },
        {
          "name": "G#4",
          "midi": 68,
          "time": 82.59892819791678,
          "velocity": 0.8661417322834646,
          "duration": 0.18987350000000447
        },
        {
          "name": "G#4",
          "midi": 68,
          "time": 82.78880169791678,
          "velocity": 0.8661417322834646,
          "duration": 0.18987350000000447
        },
        {
          "name": "D#5",
          "midi": 75,
          "time": 84.30383400000012,
          "velocity": 0.905511811023622,
          "duration": 0.3797469999999947
        },
        {
          "name": "G#4",
          "midi": 68,
          "time": 84.30383400000012,
          "velocity": 0.905511811023622,
          "duration": 0.3797469999999947
        },
        {
          "name": "G#5",
          "midi": 80,
          "time": 84.30778969791679,
          "velocity": 0.8661417322834646,
          "duration": 0.3797469999999947
        },
        {
          "name": "G4",
          "midi": 67,
          "time": 84.68358100000012,
          "velocity": 0.7244094488188977,
          "duration": 0.3797469999999947
        },
        {
          "name": "D5",
          "midi": 74,
          "time": 84.68358100000012,
          "velocity": 0.7244094488188977,
          "duration": 0.3797469999999947
        },
        {
          "name": "G5",
          "midi": 79,
          "time": 84.68753669791678,
          "velocity": 0.8661417322834646,
          "duration": 0.3797469999999947
        },
        {
          "name": "C5",
          "midi": 72,
          "time": 85.06332800000011,
          "velocity": 0.6614173228346457,
          "duration": 0.18987350000000447
        },
        {
          "name": "F4",
          "midi": 65,
          "time": 85.06332800000011,
          "velocity": 0.6614173228346457,
          "duration": 0.18987350000000447
        },
        {
          "name": "F5",
          "midi": 77,
          "time": 85.06728369791678,
          "velocity": 0.8661417322834646,
          "duration": 0.37974700000000894
        },
        {
          "name": "C5",
          "midi": 72,
          "time": 85.44307500000012,
          "velocity": 0.6377952755905512,
          "duration": 0.18987350000000447
        },
        {
          "name": "F4",
          "midi": 65,
          "time": 85.44307500000012,
          "velocity": 0.6377952755905512,
          "duration": 0.18987350000000447
        },
        {
          "name": "F5",
          "midi": 77,
          "time": 85.44703069791679,
          "velocity": 0.8661417322834646,
          "duration": 0.37974700000000894
        },
        {
          "name": "F5",
          "midi": 77,
          "time": 86.20652469791679,
          "velocity": 0.8661417322834646,
          "duration": 0.3797469999999947
        },
        {
          "name": "D#5",
          "midi": 75,
          "time": 86.96601869791678,
          "velocity": 0.8661417322834646,
          "duration": 0.18987350000000447
        },
        {
          "name": "F5",
          "midi": 77,
          "time": 87.15589219791678,
          "velocity": 0.8661417322834646,
          "duration": 0.18987350000000447
        },
        {
          "name": "F5",
          "midi": 77,
          "time": 87.34576569791679,
          "velocity": 0.8661417322834646,
          "duration": 0.18987350000000447
        },
        {
          "name": "F5",
          "midi": 77,
          "time": 87.5356391979168,
          "velocity": 0.8661417322834646,
          "duration": 0.18987350000000447
        },
        {
          "name": "F5",
          "midi": 77,
          "time": 87.7255126979168,
          "velocity": 0.8661417322834646,
          "duration": 0.3797469999999947
        },
        {
          "name": "C5",
          "midi": 72,
          "time": 88.1052596979168,
          "velocity": 0.8661417322834646,
          "duration": 0.18987350000000447
        },
        {
          "name": "D#5",
          "midi": 75,
          "time": 88.4850066979168,
          "velocity": 0.8661417322834646,
          "duration": 0.18987350000000447
        },
        {
          "name": "F5",
          "midi": 77,
          "time": 88.6748801979168,
          "velocity": 0.8661417322834646,
          "duration": 0.18987350000000447
        },
        {
          "name": "F5",
          "midi": 77,
          "time": 88.86475369791681,
          "velocity": 0.8661417322834646,
          "duration": 0.18987350000000447
        },
        {
          "name": "D#5",
          "midi": 75,
          "time": 89.05462719791682,
          "velocity": 0.8661417322834646,
          "duration": 0.18987350000000447
        },
        {
          "name": "F5",
          "midi": 77,
          "time": 89.24450069791682,
          "velocity": 0.8661417322834646,
          "duration": 0.3797469999999947
        },
        {
          "name": "G5",
          "midi": 79,
          "time": 89.62424769791681,
          "velocity": 0.8661417322834646,
          "duration": 0.3797469999999947
        },
        {
          "name": "G#5",
          "midi": 80,
          "time": 90.00399469791681,
          "velocity": 0.8661417322834646,
          "duration": 0.2848102500000067
        },
        {
          "name": "D#5",
          "midi": 75,
          "time": 90.37978600000015,
          "velocity": 0.905511811023622,
          "duration": 0.37974700000000894
        },
        {
          "name": "G#4",
          "midi": 68,
          "time": 90.37978600000015,
          "velocity": 0.905511811023622,
          "duration": 0.37974700000000894
        },
        {
          "name": "G#5",
          "midi": 80,
          "time": 90.38374169791682,
          "velocity": 0.8661417322834646,
          "duration": 0.18987350000000447
        },
        {
          "name": "G4",
          "midi": 67,
          "time": 90.75953300000016,
          "velocity": 0.7244094488188977,
          "duration": 0.37974700000000894
        },
        {
          "name": "D5",
          "midi": 74,
          "time": 90.75953300000016,
          "velocity": 0.7244094488188977,
          "duration": 0.37974700000000894
        },
        {
          "name": "G5",
          "midi": 79,
          "time": 90.76348869791683,
          "velocity": 0.8661417322834646,
          "duration": 0.18987350000000447
        },
        {
          "name": "C5",
          "midi": 72,
          "time": 91.13928000000017,
          "velocity": 0.6614173228346457,
          "duration": 0.18987350000000447
        },
        {
          "name": "F4",
          "midi": 65,
          "time": 91.13928000000017,
          "velocity": 0.6614173228346457,
          "duration": 0.18987350000000447
        },
        {
          "name": "F5",
          "midi": 77,
          "time": 91.14323569791684,
          "velocity": 0.8661417322834646,
          "duration": 0.18987350000000447
        },
        {
          "name": "C5",
          "midi": 72,
          "time": 91.51902700000018,
          "velocity": 0.6377952755905512,
          "duration": 0.18987350000000447
        },
        {
          "name": "F4",
          "midi": 65,
          "time": 91.51902700000018,
          "velocity": 0.6377952755905512,
          "duration": 0.18987350000000447
        },
        {
          "name": "F5",
          "midi": 77,
          "time": 91.52298269791685,
          "velocity": 0.8661417322834646,
          "duration": 0.37974700000000894
        },
        {
          "name": "F5",
          "midi": 77,
          "time": 92.28247669791685,
          "velocity": 0.8661417322834646,
          "duration": 0.3797469999999947
        },
        {
          "name": "D#5",
          "midi": 75,
          "time": 93.04197069791684,
          "velocity": 0.8661417322834646,
          "duration": 0.18987350000000447
        },
        {
          "name": "F5",
          "midi": 77,
          "time": 93.23184419791684,
          "velocity": 0.8661417322834646,
          "duration": 0.18987350000000447
        },
        {
          "name": "F5",
          "midi": 77,
          "time": 93.42171769791685,
          "velocity": 0.8661417322834646,
          "duration": 0.18987350000000447
        },
        {
          "name": "F5",
          "midi": 77,
          "time": 93.61159119791685,
          "velocity": 0.8661417322834646,
          "duration": 0.18987350000000447
        },
        {
          "name": "F5",
          "midi": 77,
          "time": 93.80146469791686,
          "velocity": 0.8661417322834646,
          "duration": 0.3797469999999947
        },
        {
          "name": "C5",
          "midi": 72,
          "time": 94.18121169791685,
          "velocity": 0.8661417322834646,
          "duration": 0.18987350000000447
        },
        {
          "name": "D#5",
          "midi": 75,
          "time": 94.56095869791686,
          "velocity": 0.8661417322834646,
          "duration": 0.18987350000000447
        },
        {
          "name": "F5",
          "midi": 77,
          "time": 94.75083219791686,
          "velocity": 0.8661417322834646,
          "duration": 0.18987350000000447
        },
        {
          "name": "F5",
          "midi": 77,
          "time": 94.94070569791687,
          "velocity": 0.8661417322834646,
          "duration": 0.18987350000000447
        },
        {
          "name": "D#5",
          "midi": 75,
          "time": 95.13057919791687,
          "velocity": 0.8661417322834646,
          "duration": 0.18987350000000447
        },
        {
          "name": "F5",
          "midi": 77,
          "time": 95.32045269791688,
          "velocity": 0.8661417322834646,
          "duration": 0.3797469999999947
        },
        {
          "name": "G5",
          "midi": 79,
          "time": 95.70019969791687,
          "velocity": 0.8661417322834646,
          "duration": 0.3797469999999947
        },
        {
          "name": "G#5",
          "midi": 80,
          "time": 96.07994669791687,
          "velocity": 0.8661417322834646,
          "duration": 0.2848102500000067
        },
        {
          "name": "D#5",
          "midi": 75,
          "time": 96.45573800000021,
          "velocity": 0.905511811023622,
          "duration": 0.37974700000000894
        },
        {
          "name": "G#4",
          "midi": 68,
          "time": 96.45573800000021,
          "velocity": 0.905511811023622,
          "duration": 0.37974700000000894
        },
        {
          "name": "G#5",
          "midi": 80,
          "time": 96.45969369791688,
          "velocity": 0.8661417322834646,
          "duration": 0.18987350000000447
        },
        {
          "name": "G4",
          "midi": 67,
          "time": 96.83548500000022,
          "velocity": 0.7244094488188977,
          "duration": 0.37974700000000894
        },
        {
          "name": "D5",
          "midi": 74,
          "time": 96.83548500000022,
          "velocity": 0.7244094488188977,
          "duration": 0.37974700000000894
        },
        {
          "name": "G5",
          "midi": 79,
          "time": 96.83944069791688,
          "velocity": 0.8661417322834646,
          "duration": 0.18987350000000447
        },
        {
          "name": "C5",
          "midi": 72,
          "time": 97.21523200000023,
          "velocity": 0.6614173228346457,
          "duration": 0.18987350000000447
        },
        {
          "name": "F4",
          "midi": 65,
          "time": 97.21523200000023,
          "velocity": 0.6614173228346457,
          "duration": 0.18987350000000447
        },
        {
          "name": "F5",
          "midi": 77,
          "time": 97.2191876979169,
          "velocity": 0.8661417322834646,
          "duration": 0.18987350000000447
        },
        {
          "name": "F4",
          "midi": 65,
          "time": 97.59497900000024,
          "velocity": 0.6377952755905512,
          "duration": 0.18987350000000447
        },
        {
          "name": "C5",
          "midi": 72,
          "time": 97.59497900000024,
          "velocity": 0.6377952755905512,
          "duration": 0.18987350000000447
        },
        {
          "name": "F5",
          "midi": 77,
          "time": 97.5989346979169,
          "velocity": 0.8661417322834646,
          "duration": 0.18987350000000447
        },
        {
          "name": "F5",
          "midi": 77,
          "time": 97.97868169791691,
          "velocity": 0.8661417322834646,
          "duration": 0.18987350000000447
        },
        {
          "name": "G#5",
          "midi": 80,
          "time": 98.35842869791692,
          "velocity": 0.8661417322834646,
          "duration": 0.18987350000000447
        },
        {
          "name": "D#6",
          "midi": 87,
          "time": 98.54830219791693,
          "velocity": 0.8661417322834646,
          "duration": 0.18987350000000447
        },
        {
          "name": "D#6",
          "midi": 87,
          "time": 98.92804919791693,
          "velocity": 0.8661417322834646,
          "duration": 0.18987350000000447
        },
        {
          "name": "C6",
          "midi": 84,
          "time": 99.30779619791694,
          "velocity": 0.8661417322834646,
          "duration": 0.37974700000000894
        },
        {
          "name": "D#5",
          "midi": 75,
          "time": 99.49371400000028,
          "velocity": 0.905511811023622,
          "duration": 0.37974700000000894
        },
        {
          "name": "G#4",
          "midi": 68,
          "time": 99.49371400000028,
          "velocity": 0.905511811023622,
          "duration": 0.37974700000000894
        },
        {
          "name": "G#5",
          "midi": 80,
          "time": 99.49766969791695,
          "velocity": 0.8661417322834646,
          "duration": 0.18987350000000447
        },
        {
          "name": "D5",
          "midi": 74,
          "time": 99.87346100000029,
          "velocity": 0.7244094488188977,
          "duration": 0.37974700000000894
        },
        {
          "name": "G4",
          "midi": 67,
          "time": 99.87346100000029,
          "velocity": 0.7244094488188977,
          "duration": 0.37974700000000894
        },
        {
          "name": "G5",
          "midi": 79,
          "time": 99.87741669791696,
          "velocity": 0.8661417322834646,
          "duration": 0.18987350000000447
        },
        {
          "name": "C5",
          "midi": 72,
          "time": 100.2532080000003,
          "velocity": 0.6614173228346457,
          "duration": 0.18987350000000447
        },
        {
          "name": "F4",
          "midi": 65,
          "time": 100.2532080000003,
          "velocity": 0.6614173228346457,
          "duration": 0.18987350000000447
        },
        {
          "name": "F5",
          "midi": 77,
          "time": 100.25716369791697,
          "velocity": 0.8661417322834646,
          "duration": 0.18987350000000447
        },
        {
          "name": "F4",
          "midi": 65,
          "time": 100.63295500000031,
          "velocity": 0.6377952755905512,
          "duration": 0.18987350000000447
        },
        {
          "name": "C5",
          "midi": 72,
          "time": 100.63295500000031,
          "velocity": 0.6377952755905512,
          "duration": 0.18987350000000447
        },
        {
          "name": "F5",
          "midi": 77,
          "time": 100.63691069791697,
          "velocity": 0.8661417322834646,
          "duration": 0.18987350000000447
        },
        {
          "name": "F5",
          "midi": 77,
          "time": 101.01665769791698,
          "velocity": 0.8661417322834646,
          "duration": 0.18987350000000447
        },
        {
          "name": "G#5",
          "midi": 80,
          "time": 101.39640469791699,
          "velocity": 0.8661417322834646,
          "duration": 0.3797469999999947
        },
        {
          "name": "D#6",
          "midi": 87,
          "time": 101.77615169791699,
          "velocity": 0.8661417322834646,
          "duration": 0.18987350000000447
        },
        {
          "name": "D#6",
          "midi": 87,
          "time": 101.96602519791699,
          "velocity": 0.8661417322834646,
          "duration": 0.18987350000000447
        },
        {
          "name": "C6",
          "midi": 84,
          "time": 102.345772197917,
          "velocity": 0.8661417322834646,
          "duration": 0.18987350000000447
        },
        {
          "name": "G#4",
          "midi": 68,
          "time": 102.53169000000034,
          "velocity": 0.905511811023622,
          "duration": 0.37974700000000894
        },
        {
          "name": "D#5",
          "midi": 75,
          "time": 102.53169000000034,
          "velocity": 0.905511811023622,
          "duration": 0.37974700000000894
        },
        {
          "name": "G#5",
          "midi": 80,
          "time": 102.535645697917,
          "velocity": 0.8661417322834646,
          "duration": 0.18987350000000447
        },
        {
          "name": "D5",
          "midi": 74,
          "time": 102.91143700000035,
          "velocity": 0.7244094488188977,
          "duration": 0.37974700000000894
        },
        {
          "name": "G4",
          "midi": 67,
          "time": 102.91143700000035,
          "velocity": 0.7244094488188977,
          "duration": 0.37974700000000894
        },
        {
          "name": "G5",
          "midi": 79,
          "time": 102.91539269791701,
          "velocity": 0.8661417322834646,
          "duration": 0.18987350000000447
        },
        {
          "name": "F4",
          "midi": 65,
          "time": 103.29118400000036,
          "velocity": 0.6614173228346457,
          "duration": 0.18987350000000447
        },
        {
          "name": "C5",
          "midi": 72,
          "time": 103.29118400000036,
          "velocity": 0.6614173228346457,
          "duration": 0.18987350000000447
        },
        {
          "name": "F5",
          "midi": 77,
          "time": 103.29513969791702,
          "velocity": 0.8661417322834646,
          "duration": 0.18987350000000447
        },
        {
          "name": "F4",
          "midi": 65,
          "time": 103.67093100000037,
          "velocity": 0.6377952755905512,
          "duration": 0.18987350000000447
        },
        {
          "name": "C5",
          "midi": 72,
          "time": 103.67093100000037,
          "velocity": 0.6377952755905512,
          "duration": 0.18987350000000447
        },
        {
          "name": "F5",
          "midi": 77,
          "time": 103.67488669791703,
          "velocity": 0.8661417322834646,
          "duration": 0.18987350000000447
        },
        {
          "name": "G#5",
          "midi": 80,
          "time": 105.57362169791703,
          "velocity": 0.8661417322834646,
          "duration": 0.18987350000000447
        },
        {
          "name": "G5",
          "midi": 79,
          "time": 105.95336869791704,
          "velocity": 0.8661417322834646,
          "duration": 0.18987350000000447
        },
        {
          "name": "F5",
          "midi": 77,
          "time": 106.33311569791705,
          "velocity": 0.8661417322834646,
          "duration": 0.18987350000000447
        },
        {
          "name": "F5",
          "midi": 77,
          "time": 106.71286269791706,
          "velocity": 0.8661417322834646,
          "duration": 0.18987350000000447
        },
        {
          "name": "G#5",
          "midi": 80,
          "time": 107.09260969791707,
          "velocity": 0.8661417322834646,
          "duration": 0.18987350000000447
        },
        {
          "name": "G5",
          "midi": 79,
          "time": 107.47235669791708,
          "velocity": 0.8661417322834646,
          "duration": 0.18987350000000447
        },
        {
          "name": "F5",
          "midi": 77,
          "time": 107.85210369791709,
          "velocity": 0.8661417322834646,
          "duration": 0.18987350000000447
        },
        {
          "name": "F5",
          "midi": 77,
          "time": 108.2318506979171,
          "velocity": 0.8661417322834646,
          "duration": 0.18987350000000447
        }
      ],
      "controlChanges": {
        "6": [
          {
            "number": 6,
            "time": 0,
            "value": 0.09448818897637795
          },
          {
            "number": 6,
            "time": 113.92410000000044,
            "value": 0.09448818897637795
          },
          {
            "number": 6,
            "time": 113.92410000000044,
            "value": 0.09448818897637795
          },
          {
            "number": 6,
            "time": 113.92410000000044,
            "value": 0.09448818897637795
          }
        ],
        "7": [
          {
            "number": 7,
            "time": 0,
            "value": 0.7874015748031497
          },
          {
            "number": 7,
            "time": 0,
            "value": 0.7874015748031497
          },
          {
            "number": 7,
            "time": 113.92410000000044,
            "value": 0.7874015748031497
          },
          {
            "number": 7,
            "time": 113.92410000000044,
            "value": 0.7874015748031497
          },
          {
            "number": 7,
            "time": 113.92410000000044,
            "value": 0.7874015748031497
          }
        ],
        "10": [
          {
            "number": 10,
            "time": 0,
            "value": 0.5039370078740157
          },
          {
            "number": 10,
            "time": 0,
            "value": 0.5039370078740157
          },
          {
            "number": 10,
            "time": 113.92410000000044,
            "value": 0.5039370078740157
          },
          {
            "number": 10,
            "time": 113.92410000000044,
            "value": 0.5039370078740157
          },
          {
            "number": 10,
            "time": 113.92410000000044,
            "value": 0.5039370078740157
          }
        ],
        "100": [
          {
            "number": 100,
            "time": 0,
            "value": 0
          },
          {
            "number": 100,
            "time": 113.92410000000044,
            "value": 0
          },
          {
            "number": 100,
            "time": 113.92410000000044,
            "value": 0
          },
          {
            "number": 100,
            "time": 113.92410000000044,
            "value": 0
          }
        ],
        "101": [
          {
            "number": 101,
            "time": 0,
            "value": 0
          },
          {
            "number": 101,
            "time": 113.92410000000044,
            "value": 0
          },
          {
            "number": 101,
            "time": 113.92410000000044,
            "value": 0
          },
          {
            "number": 101,
            "time": 113.92410000000044,
            "value": 0
          }
        ]
      },
      "id": 2,
      "name": "MIDI out",
      "instrumentNumber": 0,
      "instrument": "acoustic grand piano",
      "instrumentFamily": "piano",
      "channelNumber": 2,
      "isPercussion": false
    },
    {
      "startTime": 0.379747,
      "duration": 112.97473249999994,
      "length": 495,
      "notes": [
        {
          "name": "C#2",
          "midi": 37,
          "time": 0.379747,
          "velocity": 0.6929133858267716,
          "duration": 1.5189880000000002
        },
        {
          "name": "C#3",
          "midi": 49,
          "time": 0.5696205,
          "velocity": 0.7952755905511811,
          "duration": 1.3291145000000002
        },
        {
          "name": "F3",
          "midi": 53,
          "time": 0.759494,
          "velocity": 0.7952755905511811,
          "duration": 1.1392410000000002
        },
        {
          "name": "A#4",
          "midi": 70,
          "time": 1.1431966979166668,
          "velocity": 0.6614173228346457,
          "duration": 0.09493675000000001
        },
        {
          "name": "C5",
          "midi": 72,
          "time": 1.3330701979166668,
          "velocity": 0.6614173228346457,
          "duration": 0.09493675000000001
        },
        {
          "name": "D#5",
          "midi": 75,
          "time": 1.5229436979166668,
          "velocity": 0.6614173228346457,
          "duration": 0.09493675000000001
        },
        {
          "name": "C5",
          "midi": 72,
          "time": 1.7128171979166669,
          "velocity": 0.6614173228346457,
          "duration": 0.09493675000000001
        },
        {
          "name": "D#2",
          "midi": 39,
          "time": 1.8987350000000003,
          "velocity": 0.7952755905511811,
          "duration": 1.5189880000000002
        },
        {
          "name": "D#3",
          "midi": 51,
          "time": 2.092564197916667,
          "velocity": 0.6929133858267716,
          "duration": 1.3291145000000002
        },
        {
          "name": "G3",
          "midi": 55,
          "time": 2.282437697916667,
          "velocity": 0.6929133858267716,
          "duration": 1.1392410000000002
        },
        {
          "name": "C5",
          "midi": 72,
          "time": 2.662184697916667,
          "velocity": 0.6614173228346457,
          "duration": 0.09493675000000001
        },
        {
          "name": "A#4",
          "midi": 70,
          "time": 2.852058197916667,
          "velocity": 0.6614173228346457,
          "duration": 0.09493675000000001
        },
        {
          "name": "G#4",
          "midi": 68,
          "time": 3.041931697916667,
          "velocity": 0.6614173228346457,
          "duration": 0.09493675000000001
        },
        {
          "name": "F4",
          "midi": 65,
          "time": 3.231805197916667,
          "velocity": 0.6614173228346457,
          "duration": 0.09493675000000001
        },
        {
          "name": "F2",
          "midi": 41,
          "time": 3.4177230000000005,
          "velocity": 0.6929133858267716,
          "duration": 2.2784819999999986
        },
        {
          "name": "F3",
          "midi": 53,
          "time": 3.611552197916667,
          "velocity": 0.6929133858267716,
          "duration": 1.3291144999999989
        },
        {
          "name": "G#3",
          "midi": 56,
          "time": 3.801425697916667,
          "velocity": 0.6929133858267716,
          "duration": 1.1392409999999988
        },
        {
          "name": "G#4",
          "midi": 68,
          "time": 3.801425697916667,
          "velocity": 0.6614173228346457,
          "duration": 0.28481025000000004
        },
        {
          "name": "A#4",
          "midi": 70,
          "time": 4.181172697916667,
          "velocity": 0.6614173228346457,
          "duration": 0.2848102499999996
        },
        {
          "name": "D#5",
          "midi": 75,
          "time": 4.371046197916667,
          "velocity": 0.6614173228346457,
          "duration": 0.2848102499999996
        },
        {
          "name": "C5",
          "midi": 72,
          "time": 4.655856447916666,
          "velocity": 0.6614173228346457,
          "duration": 0.18987350000000003
        },
        {
          "name": "D#4",
          "midi": 63,
          "time": 4.940666697916666,
          "velocity": 0.6929133858267716,
          "duration": 0.7594940000000001
        },
        {
          "name": "F3",
          "midi": 53,
          "time": 5.130540197916666,
          "velocity": 0.6929133858267716,
          "duration": 0.5696205000000001
        },
        {
          "name": "G#3",
          "midi": 56,
          "time": 5.316457999999999,
          "velocity": 0.6929133858267716,
          "duration": 0.37974700000000006
        },
        {
          "name": "C5",
          "midi": 72,
          "time": 5.320413697916666,
          "velocity": 0.6614173228346457,
          "duration": 0.2848102499999996
        },
        {
          "name": "D#2",
          "midi": 39,
          "time": 5.696204999999999,
          "velocity": 0.6929133858267716,
          "duration": 0.37974700000000006
        },
        {
          "name": "C#4",
          "midi": 61,
          "time": 5.700160697916666,
          "velocity": 0.6929133858267716,
          "duration": 0.7594939999999992
        },
        {
          "name": "F5",
          "midi": 77,
          "time": 5.700160697916666,
          "velocity": 0.6614173228346457,
          "duration": 0.18987350000000003
        },
        {
          "name": "F4",
          "midi": 65,
          "time": 5.700160697916666,
          "velocity": 0.6614173228346457,
          "duration": 0.18987350000000003
        },
        {
          "name": "D#3",
          "midi": 51,
          "time": 5.890034197916666,
          "velocity": 0.6929133858267716,
          "duration": 0.5696204999999992
        },
        {
          "name": "D#5",
          "midi": 75,
          "time": 5.984970947916666,
          "velocity": 0.6614173228346457,
          "duration": 0.18987350000000003
        },
        {
          "name": "G3",
          "midi": 55,
          "time": 6.075951999999999,
          "velocity": 0.6929133858267716,
          "duration": 0.37974699999999917
        },
        {
          "name": "C5",
          "midi": 72,
          "time": 6.269781197916665,
          "velocity": 0.6614173228346457,
          "duration": 0.18987350000000003
        },
        {
          "name": "C#3",
          "midi": 49,
          "time": 6.459654697916665,
          "velocity": 0.6929133858267716,
          "duration": 1.5189879999999967
        },
        {
          "name": "F3",
          "midi": 53,
          "time": 6.459654697916665,
          "velocity": 0.6929133858267716,
          "duration": 1.5189879999999967
        },
        {
          "name": "A#4",
          "midi": 70,
          "time": 7.2191486979166655,
          "velocity": 0.6614173228346457,
          "duration": 0.09493674999999957
        },
        {
          "name": "C5",
          "midi": 72,
          "time": 7.409022197916665,
          "velocity": 0.6614173228346457,
          "duration": 0.09493674999999957
        },
        {
          "name": "D#5",
          "midi": 75,
          "time": 7.598895697916664,
          "velocity": 0.6614173228346457,
          "duration": 0.09493674999999957
        },
        {
          "name": "C5",
          "midi": 72,
          "time": 7.788769197916663,
          "velocity": 0.6614173228346457,
          "duration": 0.09493674999999957
        },
        {
          "name": "G3",
          "midi": 55,
          "time": 7.978642697916662,
          "velocity": 0.6929133858267716,
          "duration": 1.5189880000000038
        },
        {
          "name": "D#3",
          "midi": 51,
          "time": 7.978642697916662,
          "velocity": 0.6929133858267716,
          "duration": 1.5189880000000038
        },
        {
          "name": "C5",
          "midi": 72,
          "time": 8.738136697916662,
          "velocity": 0.6614173228346457,
          "duration": 0.09493675000000046
        },
        {
          "name": "A#4",
          "midi": 70,
          "time": 8.928010197916663,
          "velocity": 0.6614173228346457,
          "duration": 0.09493675000000046
        },
        {
          "name": "G#4",
          "midi": 68,
          "time": 9.117883697916664,
          "velocity": 0.6614173228346457,
          "duration": 0.09493675000000046
        },
        {
          "name": "F4",
          "midi": 65,
          "time": 9.307757197916665,
          "velocity": 0.6614173228346457,
          "duration": 0.09493675000000046
        },
        {
          "name": "G#3",
          "midi": 56,
          "time": 9.497630697916666,
          "velocity": 0.6929133858267716,
          "duration": 2.2784819999999986
        },
        {
          "name": "F3",
          "midi": 53,
          "time": 9.497630697916666,
          "velocity": 0.6929133858267716,
          "duration": 2.2784819999999986
        },
        {
          "name": "G#4",
          "midi": 68,
          "time": 9.877377697916666,
          "velocity": 0.6614173228346457,
          "duration": 0.2848102499999996
        },
        {
          "name": "A#4",
          "midi": 70,
          "time": 10.257124697916666,
          "velocity": 0.6614173228346457,
          "duration": 0.2848102499999996
        },
        {
          "name": "D#5",
          "midi": 75,
          "time": 10.446998197916665,
          "velocity": 0.6614173228346457,
          "duration": 0.2848102499999996
        },
        {
          "name": "C5",
          "midi": 72,
          "time": 10.731808447916665,
          "velocity": 0.6614173228346457,
          "duration": 0.18987349999999914
        },
        {
          "name": "D#4",
          "midi": 63,
          "time": 11.016618697916664,
          "velocity": 0.6929133858267716,
          "duration": 0.7594940000000001
        },
        {
          "name": "C5",
          "midi": 72,
          "time": 11.396365697916664,
          "velocity": 0.6614173228346457,
          "duration": 0.2848102499999996
        },
        {
          "name": "D#3",
          "midi": 51,
          "time": 11.776112697916664,
          "velocity": 0.6929133858267716,
          "duration": 0.7594939999999983
        },
        {
          "name": "G3",
          "midi": 55,
          "time": 11.776112697916664,
          "velocity": 0.6929133858267716,
          "duration": 0.7594939999999983
        },
        {
          "name": "C#4",
          "midi": 61,
          "time": 11.776112697916664,
          "velocity": 0.6929133858267716,
          "duration": 0.7594939999999983
        },
        {
          "name": "F5",
          "midi": 77,
          "time": 11.776112697916664,
          "velocity": 0.6614173228346457,
          "duration": 0.18987349999999914
        },
        {
          "name": "D#5",
          "midi": 75,
          "time": 12.060922947916664,
          "velocity": 0.6614173228346457,
          "duration": 0.18987349999999914
        },
        {
          "name": "C5",
          "midi": 72,
          "time": 12.345733197916664,
          "velocity": 0.6614173228346457,
          "duration": 0.18987349999999914
        },
        {
          "name": "C#3",
          "midi": 49,
          "time": 12.535606697916663,
          "velocity": 0.6929133858267716,
          "duration": 1.5189879999999967
        },
        {
          "name": "F3",
          "midi": 53,
          "time": 12.721524499999996,
          "velocity": 0.6929133858267716,
          "duration": 1.3291144999999975
        },
        {
          "name": "A#3",
          "midi": 58,
          "time": 12.911397999999995,
          "velocity": 0.6929133858267716,
          "duration": 1.1392409999999984
        },
        {
          "name": "C4",
          "midi": 60,
          "time": 13.101271499999994,
          "velocity": 0.6929133858267716,
          "duration": 0.9493674999999993
        },
        {
          "name": "D#5",
          "midi": 75,
          "time": 13.670891999999993,
          "velocity": 0.6929133858267716,
          "duration": 0.37974700000000006
        },
        {
          "name": "C5",
          "midi": 72,
          "time": 14.050638999999993,
          "velocity": 0.6929133858267716,
          "duration": 0.37974700000000006
        },
        {
          "name": "D#3",
          "midi": 51,
          "time": 14.05459469791666,
          "velocity": 0.6929133858267716,
          "duration": 1.5189880000000038
        },
        {
          "name": "G3",
          "midi": 55,
          "time": 14.05459469791666,
          "velocity": 0.6929133858267716,
          "duration": 1.5189880000000038
        },
        {
          "name": "C5",
          "midi": 72,
          "time": 14.81408869791666,
          "velocity": 0.6614173228346457,
          "duration": 0.09493675000000046
        },
        {
          "name": "A#4",
          "midi": 70,
          "time": 15.00396219791666,
          "velocity": 0.6614173228346457,
          "duration": 0.09493675000000046
        },
        {
          "name": "G#4",
          "midi": 68,
          "time": 15.193835697916661,
          "velocity": 0.6614173228346457,
          "duration": 0.09493675000000046
        },
        {
          "name": "F4",
          "midi": 65,
          "time": 15.383709197916662,
          "velocity": 0.6614173228346457,
          "duration": 0.09493675000000046
        },
        {
          "name": "F3",
          "midi": 53,
          "time": 15.573582697916663,
          "velocity": 0.6929133858267716,
          "duration": 1.1392409999999948
        },
        {
          "name": "G#3",
          "midi": 56,
          "time": 15.763456197916662,
          "velocity": 0.6929133858267716,
          "duration": 0.9493674999999957
        },
        {
          "name": "C4",
          "midi": 60,
          "time": 15.949373999999995,
          "velocity": 0.6929133858267716,
          "duration": 0.7594939999999966
        },
        {
          "name": "G#4",
          "midi": 68,
          "time": 15.953329697916661,
          "velocity": 0.6614173228346457,
          "duration": 0.2848102499999996
        },
        {
          "name": "A#4",
          "midi": 70,
          "time": 16.33307669791666,
          "velocity": 0.6614173228346457,
          "duration": 0.2848102499999996
        },
        {
          "name": "D#5",
          "midi": 75,
          "time": 16.52295019791666,
          "velocity": 0.6614173228346457,
          "duration": 0.28481024999999605
        },
        {
          "name": "C5",
          "midi": 72,
          "time": 16.807760447916657,
          "velocity": 0.6614173228346457,
          "duration": 0.18987350000000092
        },
        {
          "name": "D#4",
          "midi": 63,
          "time": 17.092570697916656,
          "velocity": 0.6929133858267716,
          "duration": 0.7594939999999966
        },
        {
          "name": "G#3",
          "midi": 56,
          "time": 17.092570697916656,
          "velocity": 0.6929133858267716,
          "duration": 0.7594939999999966
        },
        {
          "name": "F3",
          "midi": 53,
          "time": 17.092570697916656,
          "velocity": 0.6929133858267716,
          "duration": 0.7594939999999966
        },
        {
          "name": "C5",
          "midi": 72,
          "time": 17.472317697916655,
          "velocity": 0.6614173228346457,
          "duration": 0.2848102499999996
        },
        {
          "name": "C#4",
          "midi": 61,
          "time": 17.852064697916653,
          "velocity": 0.6929133858267716,
          "duration": 0.7594940000000001
        },
        {
          "name": "G3",
          "midi": 55,
          "time": 17.852064697916653,
          "velocity": 0.6929133858267716,
          "duration": 0.7594940000000001
        },
        {
          "name": "D#3",
          "midi": 51,
          "time": 17.852064697916653,
          "velocity": 0.6929133858267716,
          "duration": 0.7594940000000001
        },
        {
          "name": "F5",
          "midi": 77,
          "time": 17.852064697916653,
          "velocity": 0.6614173228346457,
          "duration": 0.18987350000000092
        },
        {
          "name": "F4",
          "midi": 65,
          "time": 17.852064697916653,
          "velocity": 0.6614173228346457,
          "duration": 0.18987350000000092
        },
        {
          "name": "D#5",
          "midi": 75,
          "time": 18.136874947916652,
          "velocity": 0.6614173228346457,
          "duration": 0.18987350000000092
        },
        {
          "name": "C5",
          "midi": 72,
          "time": 18.421685197916652,
          "velocity": 0.6614173228346457,
          "duration": 0.18987350000000092
        },
        {
          "name": "C#3",
          "midi": 49,
          "time": 18.611558697916653,
          "velocity": 0.6929133858267716,
          "duration": 1.139241000000002
        },
        {
          "name": "F3",
          "midi": 53,
          "time": 18.801432197916654,
          "velocity": 0.6929133858267716,
          "duration": 0.949367500000001
        },
        {
          "name": "C4",
          "midi": 60,
          "time": 18.98734999999999,
          "velocity": 0.6929133858267716,
          "duration": 0.7594940000000001
        },
        {
          "name": "D#4",
          "midi": 63,
          "time": 19.17722349999999,
          "velocity": 0.6929133858267716,
          "duration": 0.5696204999999992
        },
        {
          "name": "C#3",
          "midi": 49,
          "time": 19.750799697916655,
          "velocity": 0.6929133858267716,
          "duration": 0.29667734375000165
        },
        {
          "name": "F3",
          "midi": 53,
          "time": 19.79035667708332,
          "velocity": 0.6929133858267716,
          "duration": 0.29667734375000165
        },
        {
          "name": "C#4",
          "midi": 61,
          "time": 19.81409086458332,
          "velocity": 0.5590551181102362,
          "duration": 0.29667734375000165
        },
        {
          "name": "F4",
          "midi": 65,
          "time": 19.833869354166655,
          "velocity": 0.6141732283464567,
          "duration": 0.29667734375000165
        },
        {
          "name": "G3",
          "midi": 55,
          "time": 20.12659099999999,
          "velocity": 0.6929133858267716,
          "duration": 1.5189879999999896
        },
        {
          "name": "D#3",
          "midi": 51,
          "time": 20.130546697916657,
          "velocity": 0.6929133858267716,
          "duration": 1.5189879999999896
        },
        {
          "name": "C5",
          "midi": 72,
          "time": 20.890040697916657,
          "velocity": 0.6614173228346457,
          "duration": 0.09493674999999868
        },
        {
          "name": "A#4",
          "midi": 70,
          "time": 21.079914197916654,
          "velocity": 0.6614173228346457,
          "duration": 0.09493674999999868
        },
        {
          "name": "G#4",
          "midi": 68,
          "time": 21.26978769791665,
          "velocity": 0.6614173228346457,
          "duration": 0.09493674999999868
        },
        {
          "name": "F4",
          "midi": 65,
          "time": 21.45966119791665,
          "velocity": 0.6614173228346457,
          "duration": 0.09493674999999868
        },
        {
          "name": "G#3",
          "midi": 56,
          "time": 21.649534697916646,
          "velocity": 0.6929133858267716,
          "duration": 0.5696204999999992
        },
        {
          "name": "F3",
          "midi": 53,
          "time": 21.649534697916646,
          "velocity": 0.6929133858267716,
          "duration": 0.755538302083334
        },
        {
          "name": "G#3",
          "midi": 56,
          "time": 22.25080078124998,
          "velocity": 0.6929133858267716,
          "duration": 0.16613931250000036
        },
        {
          "name": "F4",
          "midi": 65,
          "time": 22.270579270833313,
          "velocity": 0.6929133858267716,
          "duration": 0.13844942708333363
        },
        {
          "name": "G#4",
          "midi": 68,
          "time": 22.29826915624998,
          "velocity": 0.6929133858267716,
          "duration": 0.3797469999999983
        },
        {
          "name": "F3",
          "midi": 53,
          "time": 22.78481999999998,
          "velocity": 0.6929133858267716,
          "duration": 0.18987350000000092
        },
        {
          "name": "G#3",
          "midi": 56,
          "time": 22.78481999999998,
          "velocity": 0.6929133858267716,
          "duration": 0.18987350000000092
        },
        {
          "name": "F4",
          "midi": 65,
          "time": 22.78481999999998,
          "velocity": 0.6929133858267716,
          "duration": 0.18987350000000092
        },
        {
          "name": "D#4",
          "midi": 63,
          "time": 23.168522697916647,
          "velocity": 0.6929133858267716,
          "duration": 0.7594940000000001
        },
        {
          "name": "G#3",
          "midi": 56,
          "time": 23.168522697916647,
          "velocity": 0.6929133858267716,
          "duration": 0.7594940000000001
        },
        {
          "name": "F3",
          "midi": 53,
          "time": 23.168522697916647,
          "velocity": 0.6929133858267716,
          "duration": 0.7594940000000001
        },
        {
          "name": "D#3",
          "midi": 51,
          "time": 23.928016697916647,
          "velocity": 0.6929133858267716,
          "duration": 0.7594940000000001
        },
        {
          "name": "G3",
          "midi": 55,
          "time": 23.928016697916647,
          "velocity": 0.6929133858267716,
          "duration": 0.7594940000000001
        },
        {
          "name": "C#4",
          "midi": 61,
          "time": 23.928016697916647,
          "velocity": 0.6929133858267716,
          "duration": 0.7594940000000001
        },
        {
          "name": "F3",
          "midi": 53,
          "time": 24.687510697916647,
          "velocity": 0.6929133858267716,
          "duration": 1.5189879999999967
        },
        {
          "name": "C#3",
          "midi": 49,
          "time": 24.687510697916647,
          "velocity": 0.6929133858267716,
          "duration": 1.5189879999999967
        },
        {
          "name": "G#4",
          "midi": 68,
          "time": 25.44304899999998,
          "velocity": 0.6929133858267716,
          "duration": 0.3797469999999983
        },
        {
          "name": "G#4",
          "midi": 68,
          "time": 26.202542999999977,
          "velocity": 0.6929133858267716,
          "duration": 0.18987350000000092
        },
        {
          "name": "D#3",
          "midi": 51,
          "time": 26.206498697916643,
          "velocity": 0.6929133858267716,
          "duration": 1.5189880000000002
        },
        {
          "name": "G3",
          "midi": 55,
          "time": 26.206498697916643,
          "velocity": 0.6929133858267716,
          "duration": 1.5189880000000002
        },
        {
          "name": "F4",
          "midi": 65,
          "time": 26.58228999999998,
          "velocity": 0.6929133858267716,
          "duration": 0.3797469999999983
        },
        {
          "name": "G#3",
          "midi": 56,
          "time": 27.725486697916644,
          "velocity": 0.6929133858267716,
          "duration": 2.2784820000000003
        },
        {
          "name": "F3",
          "midi": 53,
          "time": 27.725486697916644,
          "velocity": 0.6929133858267716,
          "duration": 2.2784820000000003
        },
        {
          "name": "D#4",
          "midi": 63,
          "time": 29.244474697916644,
          "velocity": 0.6929133858267716,
          "duration": 0.7594940000000001
        },
        {
          "name": "C#4",
          "midi": 61,
          "time": 30.003968697916644,
          "velocity": 0.6929133858267716,
          "duration": 0.7594940000000001
        },
        {
          "name": "G3",
          "midi": 55,
          "time": 30.003968697916644,
          "velocity": 0.6929133858267716,
          "duration": 0.7594940000000001
        },
        {
          "name": "D#3",
          "midi": 51,
          "time": 30.003968697916644,
          "velocity": 0.6929133858267716,
          "duration": 0.7594940000000001
        },
        {
          "name": "C#3",
          "midi": 49,
          "time": 30.763462697916644,
          "velocity": 0.6929133858267716,
          "duration": 1.5189880000000002
        },
        {
          "name": "F3",
          "midi": 53,
          "time": 30.763462697916644,
          "velocity": 0.6929133858267716,
          "duration": 1.5189880000000002
        },
        {
          "name": "A#4",
          "midi": 70,
          "time": 31.522956697916644,
          "velocity": 0.6614173228346457,
          "duration": 0.09493674999999868
        },
        {
          "name": "C5",
          "midi": 72,
          "time": 31.71283019791664,
          "velocity": 0.6614173228346457,
          "duration": 0.09493674999999868
        },
        {
          "name": "D#5",
          "midi": 75,
          "time": 31.90270369791664,
          "velocity": 0.6614173228346457,
          "duration": 0.09493674999999868
        },
        {
          "name": "C5",
          "midi": 72,
          "time": 32.09257719791664,
          "velocity": 0.6614173228346457,
          "duration": 0.09493675000000223
        },
        {
          "name": "G3",
          "midi": 55,
          "time": 32.282450697916644,
          "velocity": 0.6929133858267716,
          "duration": 1.5189880000000144
        },
        {
          "name": "D#3",
          "midi": 51,
          "time": 32.282450697916644,
          "velocity": 0.6929133858267716,
          "duration": 1.5189880000000144
        },
        {
          "name": "C5",
          "midi": 72,
          "time": 33.04194469791664,
          "velocity": 0.6614173228346457,
          "duration": 0.09493675000000223
        },
        {
          "name": "A#4",
          "midi": 70,
          "time": 33.231818197916645,
          "velocity": 0.6614173228346457,
          "duration": 0.09493675000000223
        },
        {
          "name": "G#4",
          "midi": 68,
          "time": 33.42169169791665,
          "velocity": 0.6614173228346457,
          "duration": 0.09493675000000223
        },
        {
          "name": "F4",
          "midi": 65,
          "time": 33.611565197916654,
          "velocity": 0.6614173228346457,
          "duration": 0.09493675000000223
        },
        {
          "name": "F3",
          "midi": 53,
          "time": 33.80143869791666,
          "velocity": 0.6929133858267716,
          "duration": 2.278482000000004
        },
        {
          "name": "G#3",
          "midi": 56,
          "time": 33.80143869791666,
          "velocity": 0.6929133858267716,
          "duration": 2.278482000000004
        },
        {
          "name": "G#4",
          "midi": 68,
          "time": 34.18118569791666,
          "velocity": 0.6614173228346457,
          "duration": 0.2848102499999996
        },
        {
          "name": "A#4",
          "midi": 70,
          "time": 34.56093269791666,
          "velocity": 0.6614173228346457,
          "duration": 0.2848102499999996
        },
        {
          "name": "D#5",
          "midi": 75,
          "time": 34.75080619791666,
          "velocity": 0.6614173228346457,
          "duration": 0.2848102499999996
        },
        {
          "name": "C5",
          "midi": 72,
          "time": 35.03561644791666,
          "velocity": 0.6614173228346457,
          "duration": 0.18987349999999736
        },
        {
          "name": "D#4",
          "midi": 63,
          "time": 35.32042669791666,
          "velocity": 0.6929133858267716,
          "duration": 0.7594940000000037
        },
        {
          "name": "F5",
          "midi": 77,
          "time": 35.696217999999995,
          "velocity": 0.6614173228346457,
          "duration": 0.2848102499999996
        },
        {
          "name": "G#5",
          "midi": 80,
          "time": 35.696217999999995,
          "velocity": 0.6614173228346457,
          "duration": 0.2848102499999996
        },
        {
          "name": "C5",
          "midi": 72,
          "time": 35.70017369791666,
          "velocity": 0.6614173228346457,
          "duration": 0.2848102499999996
        },
        {
          "name": "D#5",
          "midi": 75,
          "time": 36.075965,
          "velocity": 0.6614173228346457,
          "duration": 0.2848102499999996
        },
        {
          "name": "C#4",
          "midi": 61,
          "time": 36.07992069791666,
          "velocity": 0.6929133858267716,
          "duration": 0.7594939999999966
        },
        {
          "name": "G3",
          "midi": 55,
          "time": 36.07992069791666,
          "velocity": 0.6929133858267716,
          "duration": 0.7594939999999966
        },
        {
          "name": "D#3",
          "midi": 51,
          "time": 36.07992069791666,
          "velocity": 0.6929133858267716,
          "duration": 0.7594939999999966
        },
        {
          "name": "C#2",
          "midi": 37,
          "time": 36.83545899999999,
          "velocity": 0.6929133858267716,
          "duration": 1.3053803124999988
        },
        {
          "name": "F3",
          "midi": 53,
          "time": 36.83941469791666,
          "velocity": 0.6929133858267716,
          "duration": 1.5189880000000002
        },
        {
          "name": "C#3",
          "midi": 49,
          "time": 36.83941469791666,
          "velocity": 0.6929133858267716,
          "duration": 1.5189880000000002
        },
        {
          "name": "F4",
          "midi": 65,
          "time": 37.59495299999999,
          "velocity": 0.6929133858267716,
          "duration": 0.5458863125000022
        },
        {
          "name": "C#4",
          "midi": 61,
          "time": 37.59495299999999,
          "velocity": 0.6929133858267716,
          "duration": 0.5458863125000022
        },
        {
          "name": "D#2",
          "midi": 39,
          "time": 38.35444699999999,
          "velocity": 0.6929133858267716,
          "duration": 1.3053803124999988
        },
        {
          "name": "D#3",
          "midi": 51,
          "time": 38.35840269791666,
          "velocity": 0.6929133858267716,
          "duration": 1.5189880000000002
        },
        {
          "name": "G3",
          "midi": 55,
          "time": 38.35840269791666,
          "velocity": 0.6929133858267716,
          "duration": 1.5189880000000002
        },
        {
          "name": "G4",
          "midi": 67,
          "time": 39.11394099999999,
          "velocity": 0.6929133858267716,
          "duration": 0.5458863125000022
        },
        {
          "name": "D#4",
          "midi": 63,
          "time": 39.11394099999999,
          "velocity": 0.6929133858267716,
          "duration": 0.5458863125000022
        },
        {
          "name": "F2",
          "midi": 41,
          "time": 39.87343499999999,
          "velocity": 0.6929133858267716,
          "duration": 1.3053803124999988
        },
        {
          "name": "F3",
          "midi": 53,
          "time": 39.87739069791666,
          "velocity": 0.6929133858267716,
          "duration": 2.278482000000004
        },
        {
          "name": "G#3",
          "midi": 56,
          "time": 39.87739069791666,
          "velocity": 0.6929133858267716,
          "duration": 2.278482000000004
        },
        {
          "name": "F4",
          "midi": 65,
          "time": 40.63292899999999,
          "velocity": 0.6929133858267716,
          "duration": 0.5458863125000022
        },
        {
          "name": "G#4",
          "midi": 68,
          "time": 40.63292899999999,
          "velocity": 0.6929133858267716,
          "duration": 0.5458863125000022
        },
        {
          "name": "G#4",
          "midi": 68,
          "time": 41.392422999999994,
          "velocity": 0.6929133858267716,
          "duration": 0.5458863125000022
        },
        {
          "name": "F2",
          "midi": 41,
          "time": 41.392422999999994,
          "velocity": 0.6929133858267716,
          "duration": 0.925633312500004
        },
        {
          "name": "D#4",
          "midi": 63,
          "time": 41.39637869791666,
          "velocity": 0.6929133858267716,
          "duration": 0.7594940000000037
        },
        {
          "name": "G4",
          "midi": 67,
          "time": 42.151917,
          "velocity": 0.6929133858267716,
          "duration": 0.5458863125000022
        },
        {
          "name": "D#2",
          "midi": 39,
          "time": 42.151917,
          "velocity": 0.6929133858267716,
          "duration": 0.925633312500004
        },
        {
          "name": "C#4",
          "midi": 61,
          "time": 42.155872697916664,
          "velocity": 0.6929133858267716,
          "duration": 0.7594940000000037
        },
        {
          "name": "G3",
          "midi": 55,
          "time": 42.155872697916664,
          "velocity": 0.6929133858267716,
          "duration": 0.7594940000000037
        },
        {
          "name": "D#3",
          "midi": 51,
          "time": 42.155872697916664,
          "velocity": 0.6929133858267716,
          "duration": 0.7594940000000037
        },
        {
          "name": "C#2",
          "midi": 37,
          "time": 42.911411,
          "velocity": 0.6929133858267716,
          "duration": 0.9256333124999969
        },
        {
          "name": "C#3",
          "midi": 49,
          "time": 42.91536669791667,
          "velocity": 0.6929133858267716,
          "duration": 1.5189880000000002
        },
        {
          "name": "F3",
          "midi": 53,
          "time": 42.91536669791667,
          "velocity": 0.6929133858267716,
          "duration": 1.5189880000000002
        },
        {
          "name": "C#2",
          "midi": 37,
          "time": 44.050652,
          "velocity": 0.6929133858267716,
          "duration": 0.5458863125000022
        },
        {
          "name": "D#2",
          "midi": 39,
          "time": 44.430399,
          "velocity": 0.6929133858267716,
          "duration": 0.9256333124999969
        },
        {
          "name": "G3",
          "midi": 55,
          "time": 44.43435469791667,
          "velocity": 0.6929133858267716,
          "duration": 1.5189880000000002
        },
        {
          "name": "D#3",
          "midi": 51,
          "time": 44.43435469791667,
          "velocity": 0.6929133858267716,
          "duration": 1.5189880000000002
        },
        {
          "name": "D#2",
          "midi": 39,
          "time": 45.56964,
          "velocity": 0.6929133858267716,
          "duration": 0.5458863125000022
        },
        {
          "name": "F5",
          "midi": 77,
          "time": 45.949387,
          "velocity": 0.6929133858267716,
          "duration": 0.16613931250000036
        },
        {
          "name": "F2",
          "midi": 41,
          "time": 45.949387,
          "velocity": 0.6929133858267716,
          "duration": 0.16613931250000036
        },
        {
          "name": "F3",
          "midi": 53,
          "time": 45.949387,
          "velocity": 0.6929133858267716,
          "duration": 0.7634496979166556
        },
        {
          "name": "F1",
          "midi": 29,
          "time": 45.949387,
          "velocity": 0.6929133858267716,
          "duration": 0.7357598124999924
        },
        {
          "name": "G#3",
          "midi": 56,
          "time": 45.95334269791667,
          "velocity": 0.6929133858267716,
          "duration": 0.7594939999999895
        },
        {
          "name": "F5",
          "midi": 77,
          "time": 46.1392605,
          "velocity": 0.6929133858267716,
          "duration": 0.16613931250000036
        },
        {
          "name": "F2",
          "midi": 41,
          "time": 46.1392605,
          "velocity": 0.6929133858267716,
          "duration": 0.16613931250000036
        },
        {
          "name": "F2",
          "midi": 41,
          "time": 46.329133999999996,
          "velocity": 0.6929133858267716,
          "duration": 0.16613931250000036
        },
        {
          "name": "F5",
          "midi": 77,
          "time": 46.329133999999996,
          "velocity": 0.6929133858267716,
          "duration": 0.16613931250000036
        },
        {
          "name": "F5",
          "midi": 77,
          "time": 46.519007499999994,
          "velocity": 0.6929133858267716,
          "duration": 0.16613931250000036
        },
        {
          "name": "F2",
          "midi": 41,
          "time": 46.519007499999994,
          "velocity": 0.6929133858267716,
          "duration": 0.16613931250000036
        },
        {
          "name": "C#2",
          "midi": 37,
          "time": 48.98736299999999,
          "velocity": 1,
          "duration": 0.3560128124999977
        },
        {
          "name": "C#3",
          "midi": 49,
          "time": 48.991318697916654,
          "velocity": 1,
          "duration": 1.5189879999999931
        },
        {
          "name": "F3",
          "midi": 53,
          "time": 48.991318697916654,
          "velocity": 1,
          "duration": 1.5189879999999931
        },
        {
          "name": "C#2",
          "midi": 37,
          "time": 49.55698349999999,
          "velocity": 0.8031496062992126,
          "duration": 0.3560128124999977
        },
        {
          "name": "C#2",
          "midi": 37,
          "time": 50.126603999999986,
          "velocity": 0.6771653543307087,
          "duration": 0.3560128124999977
        },
        {
          "name": "D#2",
          "midi": 39,
          "time": 50.50635099999998,
          "velocity": 0.6771653543307087,
          "duration": 0.3560128124999977
        },
        {
          "name": "G3",
          "midi": 55,
          "time": 50.51030669791665,
          "velocity": 0.6929133858267716,
          "duration": 1.5189879999999931
        },
        {
          "name": "D#3",
          "midi": 51,
          "time": 50.51030669791665,
          "velocity": 0.6929133858267716,
          "duration": 1.5189879999999931
        },
        {
          "name": "D#2",
          "midi": 39,
          "time": 51.07597149999998,
          "velocity": 0.6771653543307087,
          "duration": 0.3560128124999977
        },
        {
          "name": "D#2",
          "midi": 39,
          "time": 51.64559199999998,
          "velocity": 0.6771653543307087,
          "duration": 0.3560128124999977
        },
        {
          "name": "F2",
          "midi": 41,
          "time": 52.025338999999974,
          "velocity": 0.6771653543307087,
          "duration": 0.3560128124999977
        },
        {
          "name": "G#3",
          "midi": 56,
          "time": 52.02929469791664,
          "velocity": 0.6929133858267716,
          "duration": 2.2784819999999897
        },
        {
          "name": "F3",
          "midi": 53,
          "time": 52.02929469791664,
          "velocity": 0.6929133858267716,
          "duration": 2.2784819999999897
        },
        {
          "name": "F2",
          "midi": 41,
          "time": 52.59495949999997,
          "velocity": 0.6771653543307087,
          "duration": 0.3560128124999977
        },
        {
          "name": "F2",
          "midi": 41,
          "time": 53.16457999999997,
          "velocity": 0.6771653543307087,
          "duration": 0.3560128124999977
        },
        {
          "name": "F1",
          "midi": 29,
          "time": 53.54432699999997,
          "velocity": 0.6771653543307087,
          "duration": 0.18987349999999736
        },
        {
          "name": "F4",
          "midi": 65,
          "time": 53.54432699999997,
          "velocity": 0.6929133858267716,
          "duration": 0.7594939999999966
        },
        {
          "name": "F2",
          "midi": 41,
          "time": 53.734200499999965,
          "velocity": 0.6771653543307087,
          "duration": 0.37974700000000183
        },
        {
          "name": "D#1",
          "midi": 27,
          "time": 54.113947499999966,
          "velocity": 0.6771653543307087,
          "duration": 0.18987349999999736
        },
        {
          "name": "D#2",
          "midi": 39,
          "time": 54.303820999999964,
          "velocity": 0.6771653543307087,
          "duration": 0.37974700000000183
        },
        {
          "name": "D#4",
          "midi": 63,
          "time": 54.303820999999964,
          "velocity": 0.6929133858267716,
          "duration": 0.7594940000000108
        },
        {
          "name": "G3",
          "midi": 55,
          "time": 54.30777669791663,
          "velocity": 0.6929133858267716,
          "duration": 0.7594940000000108
        },
        {
          "name": "D#3",
          "midi": 51,
          "time": 54.30777669791663,
          "velocity": 0.6929133858267716,
          "duration": 0.7594940000000108
        },
        {
          "name": "D#1",
          "midi": 27,
          "time": 54.683567999999966,
          "velocity": 0.7716535433070866,
          "duration": 0.09493675000000223
        },
        {
          "name": "D#2",
          "midi": 39,
          "time": 54.683567999999966,
          "velocity": 0.7716535433070866,
          "duration": 0.09493675000000223
        },
        {
          "name": "D#2",
          "midi": 39,
          "time": 54.87344149999997,
          "velocity": 0.8740157480314961,
          "duration": 0.09493675000000223
        },
        {
          "name": "D#1",
          "midi": 27,
          "time": 54.87344149999997,
          "velocity": 0.8740157480314961,
          "duration": 0.09493675000000223
        },
        {
          "name": "D#2",
          "midi": 39,
          "time": 54.96837824999997,
          "velocity": 0.8267716535433071,
          "duration": 0.09493675000000223
        },
        {
          "name": "D#1",
          "midi": 27,
          "time": 54.96837824999997,
          "velocity": 0.8267716535433071,
          "duration": 0.09493675000000223
        },
        {
          "name": "C#1",
          "midi": 25,
          "time": 55.063314999999974,
          "velocity": 0.6771653543307087,
          "duration": 0.18987349999999736
        },
        {
          "name": "F3",
          "midi": 53,
          "time": 55.06727069791664,
          "velocity": 0.6929133858267716,
          "duration": 1.518987999999979
        },
        {
          "name": "C#3",
          "midi": 49,
          "time": 55.06727069791664,
          "velocity": 0.6929133858267716,
          "duration": 1.518987999999979
        },
        {
          "name": "C#2",
          "midi": 37,
          "time": 55.25318849999997,
          "velocity": 0.8267716535433071,
          "duration": 0.18987349999999736
        },
        {
          "name": "C#1",
          "midi": 25,
          "time": 55.44306199999997,
          "velocity": 0.8582677165354331,
          "duration": 0.18987349999999736
        },
        {
          "name": "C#2",
          "midi": 37,
          "time": 55.63293549999997,
          "velocity": 0.8582677165354331,
          "duration": 0.18987349999999736
        },
        {
          "name": "C#1",
          "midi": 25,
          "time": 55.822808999999964,
          "velocity": 0.8582677165354331,
          "duration": 0.18987349999999736
        },
        {
          "name": "C#2",
          "midi": 37,
          "time": 56.01268249999996,
          "velocity": 0.8582677165354331,
          "duration": 0.18987349999999736
        },
        {
          "name": "C#1",
          "midi": 25,
          "time": 56.20255599999996,
          "velocity": 0.8582677165354331,
          "duration": 0.18987349999999736
        },
        {
          "name": "C#2",
          "midi": 37,
          "time": 56.392429499999956,
          "velocity": 0.8503937007874016,
          "duration": 0.18987349999999736
        },
        {
          "name": "D#1",
          "midi": 27,
          "time": 56.58230299999995,
          "velocity": 0.8503937007874016,
          "duration": 0.18987349999999736
        },
        {
          "name": "G3",
          "midi": 55,
          "time": 56.58625869791662,
          "velocity": 0.6929133858267716,
          "duration": 1.518987999999979
        },
        {
          "name": "D#3",
          "midi": 51,
          "time": 56.58625869791662,
          "velocity": 0.6929133858267716,
          "duration": 1.518987999999979
        },
        {
          "name": "D#2",
          "midi": 39,
          "time": 56.77217649999995,
          "velocity": 0.8346456692913385,
          "duration": 0.18987349999999736
        },
        {
          "name": "D#1",
          "midi": 27,
          "time": 56.96204999999995,
          "velocity": 0.8346456692913385,
          "duration": 0.18987349999999736
        },
        {
          "name": "D#2",
          "midi": 39,
          "time": 57.151923499999945,
          "velocity": 0.8267716535433071,
          "duration": 0.18987349999999736
        },
        {
          "name": "D#1",
          "midi": 27,
          "time": 57.34179699999994,
          "velocity": 0.8188976377952756,
          "duration": 0.18987349999999736
        },
        {
          "name": "D#2",
          "midi": 39,
          "time": 57.53167049999994,
          "velocity": 0.8188976377952756,
          "duration": 0.18987349999999736
        },
        {
          "name": "D#1",
          "midi": 27,
          "time": 57.72154399999994,
          "velocity": 0.8188976377952756,
          "duration": 0.18987349999999736
        },
        {
          "name": "D#2",
          "midi": 39,
          "time": 57.911417499999935,
          "velocity": 0.8188976377952756,
          "duration": 0.18987349999999736
        },
        {
          "name": "F1",
          "midi": 29,
          "time": 58.10129099999993,
          "velocity": 0.8031496062992126,
          "duration": 0.18987349999999736
        },
        {
          "name": "F3",
          "midi": 53,
          "time": 58.1052466979166,
          "velocity": 0.6929133858267716,
          "duration": 2.2784819999999684
        },
        {
          "name": "G#3",
          "midi": 56,
          "time": 58.1052466979166,
          "velocity": 0.6929133858267716,
          "duration": 2.2784819999999684
        },
        {
          "name": "F2",
          "midi": 41,
          "time": 58.29116449999993,
          "velocity": 0.8031496062992126,
          "duration": 0.18987349999999736
        },
        {
          "name": "F1",
          "midi": 29,
          "time": 58.48103799999993,
          "velocity": 0.7952755905511811,
          "duration": 0.18987349999999736
        },
        {
          "name": "F2",
          "midi": 41,
          "time": 58.670911499999924,
          "velocity": 0.7874015748031497,
          "duration": 0.18987349999999736
        },
        {
          "name": "F1",
          "midi": 29,
          "time": 58.86078499999992,
          "velocity": 0.7795275590551181,
          "duration": 0.18987349999999736
        },
        {
          "name": "F2",
          "midi": 41,
          "time": 59.05065849999992,
          "velocity": 0.7795275590551181,
          "duration": 0.18987349999999736
        },
        {
          "name": "F1",
          "midi": 29,
          "time": 59.24053199999992,
          "velocity": 0.7795275590551181,
          "duration": 0.18987349999999736
        },
        {
          "name": "F2",
          "midi": 41,
          "time": 59.430405499999914,
          "velocity": 0.7795275590551181,
          "duration": 0.18987349999999736
        },
        {
          "name": "F1",
          "midi": 29,
          "time": 59.62027899999991,
          "velocity": 0.7795275590551181,
          "duration": 0.18987349999999736
        },
        {
          "name": "D#4",
          "midi": 63,
          "time": 59.62423469791658,
          "velocity": 0.6929133858267716,
          "duration": 0.7594939999999895
        },
        {
          "name": "F2",
          "midi": 41,
          "time": 59.81015249999991,
          "velocity": 0.7795275590551181,
          "duration": 0.18987349999999736
        },
        {
          "name": "F1",
          "midi": 29,
          "time": 60.000025999999906,
          "velocity": 0.7795275590551181,
          "duration": 0.18987349999999736
        },
        {
          "name": "F2",
          "midi": 41,
          "time": 60.1898994999999,
          "velocity": 0.7874015748031497,
          "duration": 0.18987349999999736
        },
        {
          "name": "D#1",
          "midi": 27,
          "time": 60.3797729999999,
          "velocity": 0.7874015748031497,
          "duration": 0.18987349999999736
        },
        {
          "name": "C#4",
          "midi": 61,
          "time": 60.38372869791657,
          "velocity": 0.6929133858267716,
          "duration": 0.7594939999999895
        },
        {
          "name": "G3",
          "midi": 55,
          "time": 60.38372869791657,
          "velocity": 0.6929133858267716,
          "duration": 0.7594939999999895
        },
        {
          "name": "D#3",
          "midi": 51,
          "time": 60.38372869791657,
          "velocity": 0.6929133858267716,
          "duration": 0.7594939999999895
        },
        {
          "name": "D#2",
          "midi": 39,
          "time": 60.5696464999999,
          "velocity": 0.7952755905511811,
          "duration": 0.18987349999999736
        },
        {
          "name": "D#1",
          "midi": 27,
          "time": 60.759519999999895,
          "velocity": 0.6771653543307087,
          "duration": 0.18987349999999736
        },
        {
          "name": "C#1",
          "midi": 25,
          "time": 61.13926699999989,
          "velocity": 0.6771653543307087,
          "duration": 0.3797469999999947
        },
        {
          "name": "C#2",
          "midi": 37,
          "time": 61.13926699999989,
          "velocity": 0.6771653543307087,
          "duration": 0.3797469999999947
        },
        {
          "name": "F2",
          "midi": 41,
          "time": 61.32914049999989,
          "velocity": 0.6771653543307087,
          "duration": 0.3797469999999947
        },
        {
          "name": "C#3",
          "midi": 49,
          "time": 61.519013999999885,
          "velocity": 0.6771653543307087,
          "duration": 0.3797469999999947
        },
        {
          "name": "F4",
          "midi": 65,
          "time": 61.70888749999988,
          "velocity": 0.6771653543307087,
          "duration": 0.7594939999999966
        },
        {
          "name": "C#4",
          "midi": 61,
          "time": 61.70888749999988,
          "velocity": 0.6771653543307087,
          "duration": 0.7594939999999966
        },
        {
          "name": "F3",
          "midi": 53,
          "time": 61.70888749999988,
          "velocity": 0.6771653543307087,
          "duration": 0.7594939999999966
        },
        {
          "name": "G#4",
          "midi": 68,
          "time": 62.658254999999876,
          "velocity": 0.6929133858267716,
          "duration": 0.18987349999999736
        },
        {
          "name": "D#2",
          "midi": 39,
          "time": 62.658254999999876,
          "velocity": 0.8740157480314961,
          "duration": 0.18987349999999736
        },
        {
          "name": "D#4",
          "midi": 63,
          "time": 62.658254999999876,
          "velocity": 0.2047244094488189,
          "duration": 0.18987349999999736
        },
        {
          "name": "C4",
          "midi": 60,
          "time": 62.658254999999876,
          "velocity": 0.2047244094488189,
          "duration": 0.18987349999999736
        },
        {
          "name": "D#3",
          "midi": 51,
          "time": 62.66221069791654,
          "velocity": 0.6929133858267716,
          "duration": 0.18987349999999736
        },
        {
          "name": "G3",
          "midi": 55,
          "time": 62.66221069791654,
          "velocity": 0.6929133858267716,
          "duration": 0.18987349999999736
        },
        {
          "name": "D#2",
          "midi": 39,
          "time": 63.227875499999875,
          "velocity": 0.8740157480314961,
          "duration": 0.18987349999999736
        },
        {
          "name": "D#4",
          "midi": 63,
          "time": 63.227875499999875,
          "velocity": 0.2047244094488189,
          "duration": 0.18987349999999736
        },
        {
          "name": "C4",
          "midi": 60,
          "time": 63.227875499999875,
          "velocity": 0.2047244094488189,
          "duration": 0.18987349999999736
        },
        {
          "name": "G4",
          "midi": 67,
          "time": 63.227875499999875,
          "velocity": 0.8740157480314961,
          "duration": 0.18987349999999736
        },
        {
          "name": "G3",
          "midi": 55,
          "time": 63.23183119791654,
          "velocity": 0.6929133858267716,
          "duration": 0.18987349999999736
        },
        {
          "name": "D#3",
          "midi": 51,
          "time": 63.23183119791654,
          "velocity": 0.6929133858267716,
          "duration": 0.18987349999999736
        },
        {
          "name": "D#2",
          "midi": 39,
          "time": 63.797495999999875,
          "velocity": 0.8740157480314961,
          "duration": 0.18987349999999736
        },
        {
          "name": "D#4",
          "midi": 63,
          "time": 63.797495999999875,
          "velocity": 0.2047244094488189,
          "duration": 0.18987349999999736
        },
        {
          "name": "C4",
          "midi": 60,
          "time": 63.797495999999875,
          "velocity": 0.2047244094488189,
          "duration": 0.18987349999999736
        },
        {
          "name": "F4",
          "midi": 65,
          "time": 63.797495999999875,
          "velocity": 0.8740157480314961,
          "duration": 0.18987349999999736
        },
        {
          "name": "G3",
          "midi": 55,
          "time": 63.80145169791654,
          "velocity": 0.6929133858267716,
          "duration": 0.18987349999999736
        },
        {
          "name": "D#3",
          "midi": 51,
          "time": 63.80145169791654,
          "velocity": 0.6929133858267716,
          "duration": 0.18987349999999736
        },
        {
          "name": "F2",
          "midi": 41,
          "time": 64.17724299999988,
          "velocity": 0.8740157480314961,
          "duration": 0.18987350000000447
        },
        {
          "name": "G#2",
          "midi": 44,
          "time": 64.36711649999988,
          "velocity": 0.8740157480314961,
          "duration": 0.18987350000000447
        },
        {
          "name": "F3",
          "midi": 53,
          "time": 64.55698999999989,
          "velocity": 0.8740157480314961,
          "duration": 0.7594940000000037
        },
        {
          "name": "C5",
          "midi": 72,
          "time": 64.74686349999989,
          "velocity": 0.8740157480314961,
          "duration": 0.5696204999999992
        },
        {
          "name": "G#4",
          "midi": 68,
          "time": 64.74686349999989,
          "velocity": 0.8740157480314961,
          "duration": 0.5696204999999992
        },
        {
          "name": "F4",
          "midi": 65,
          "time": 64.74686349999989,
          "velocity": 0.8740157480314961,
          "duration": 0.5696204999999992
        },
        {
          "name": "G#3",
          "midi": 56,
          "time": 64.74686349999989,
          "velocity": 0.8740157480314961,
          "duration": 0.5696204999999992
        },
        {
          "name": "F2",
          "midi": 41,
          "time": 65.31648399999989,
          "velocity": 0.7874015748031497,
          "duration": 0.3797469999999947
        },
        {
          "name": "D#4",
          "midi": 63,
          "time": 65.70018669791655,
          "velocity": 0.7874015748031497,
          "duration": 0.18987350000000447
        },
        {
          "name": "G#3",
          "midi": 56,
          "time": 65.70018669791655,
          "velocity": 0.7874015748031497,
          "duration": 0.18987350000000447
        },
        {
          "name": "F3",
          "midi": 53,
          "time": 65.70018669791655,
          "velocity": 0.7874015748031497,
          "duration": 0.18987350000000447
        },
        {
          "name": "C#4",
          "midi": 61,
          "time": 66.45968069791655,
          "velocity": 0.6929133858267716,
          "duration": 0.18987350000000447
        },
        {
          "name": "G3",
          "midi": 55,
          "time": 66.45968069791655,
          "velocity": 0.6929133858267716,
          "duration": 0.18987350000000447
        },
        {
          "name": "D#3",
          "midi": 51,
          "time": 66.45968069791655,
          "velocity": 0.6929133858267716,
          "duration": 0.18987350000000447
        },
        {
          "name": "C#3",
          "midi": 49,
          "time": 66.83942769791656,
          "velocity": 0.6929133858267716,
          "duration": 0.18987350000000447
        },
        {
          "name": "F3",
          "midi": 53,
          "time": 66.83942769791656,
          "velocity": 0.6929133858267716,
          "duration": 0.18987350000000447
        },
        {
          "name": "C4",
          "midi": 60,
          "time": 66.83942769791656,
          "velocity": 0.6929133858267716,
          "duration": 0.18987350000000447
        },
        {
          "name": "C#2",
          "midi": 37,
          "time": 67.2152189999999,
          "velocity": 0.8267716535433071,
          "duration": 1.424051250000005
        },
        {
          "name": "F3",
          "midi": 53,
          "time": 67.21917469791657,
          "velocity": 0.6929133858267716,
          "duration": 1.5189880000000073
        },
        {
          "name": "C#3",
          "midi": 49,
          "time": 67.21917469791657,
          "velocity": 0.6929133858267716,
          "duration": 1.5189880000000073
        },
        {
          "name": "D#2",
          "midi": 39,
          "time": 68.73420699999991,
          "velocity": 0.8267716535433071,
          "duration": 1.424051250000005
        },
        {
          "name": "D#3",
          "midi": 51,
          "time": 68.73816269791658,
          "velocity": 0.6929133858267716,
          "duration": 1.5189880000000073
        },
        {
          "name": "G3",
          "midi": 55,
          "time": 68.73816269791658,
          "velocity": 0.6929133858267716,
          "duration": 1.5189880000000073
        },
        {
          "name": "F2",
          "midi": 41,
          "time": 70.25319499999992,
          "velocity": 0.8267716535433071,
          "duration": 1.2341777500000006
        },
        {
          "name": "G#3",
          "midi": 56,
          "time": 70.25715069791659,
          "velocity": 0.6929133858267716,
          "duration": 1.3291145000000029
        },
        {
          "name": "F3",
          "midi": 53,
          "time": 70.25715069791659,
          "velocity": 0.6929133858267716,
          "duration": 1.3291145000000029
        },
        {
          "name": "C#2",
          "midi": 37,
          "time": 73.29117099999992,
          "velocity": 0.8267716535433071,
          "duration": 1.4240512499999909
        },
        {
          "name": "F3",
          "midi": 53,
          "time": 73.29512669791659,
          "velocity": 0.6929133858267716,
          "duration": 0.3797469999999947
        },
        {
          "name": "C#3",
          "midi": 49,
          "time": 73.29512669791659,
          "velocity": 0.6929133858267716,
          "duration": 0.3797469999999947
        },
        {
          "name": "F3",
          "midi": 53,
          "time": 73.86474719791659,
          "velocity": 0.6929133858267716,
          "duration": 0.3797469999999947
        },
        {
          "name": "C#3",
          "midi": 49,
          "time": 73.86474719791659,
          "velocity": 0.6929133858267716,
          "duration": 0.3797469999999947
        },
        {
          "name": "F3",
          "midi": 53,
          "time": 74.43436769791658,
          "velocity": 0.6929133858267716,
          "duration": 0.3797469999999947
        },
        {
          "name": "C#3",
          "midi": 49,
          "time": 74.43436769791658,
          "velocity": 0.6929133858267716,
          "duration": 0.3797469999999947
        },
        {
          "name": "D#2",
          "midi": 39,
          "time": 74.81015899999991,
          "velocity": 0.8267716535433071,
          "duration": 1.5189879999999931
        },
        {
          "name": "D#3",
          "midi": 51,
          "time": 74.81411469791658,
          "velocity": 0.6929133858267716,
          "duration": 0.3797469999999947
        },
        {
          "name": "G3",
          "midi": 55,
          "time": 74.81411469791658,
          "velocity": 0.6929133858267716,
          "duration": 0.3797469999999947
        },
        {
          "name": "D#3",
          "midi": 51,
          "time": 75.38373519791658,
          "velocity": 0.6929133858267716,
          "duration": 0.3797469999999947
        },
        {
          "name": "G3",
          "midi": 55,
          "time": 75.38373519791658,
          "velocity": 0.6929133858267716,
          "duration": 0.3797469999999947
        },
        {
          "name": "D#3",
          "midi": 51,
          "time": 75.95335569791658,
          "velocity": 0.6929133858267716,
          "duration": 0.3797469999999947
        },
        {
          "name": "G3",
          "midi": 55,
          "time": 75.95335569791658,
          "velocity": 0.6929133858267716,
          "duration": 0.3797469999999947
        },
        {
          "name": "F2",
          "midi": 41,
          "time": 76.3291469999999,
          "velocity": 0.8267716535433071,
          "duration": 2.2784819999999826
        },
        {
          "name": "F3",
          "midi": 53,
          "time": 76.33310269791657,
          "velocity": 0.6929133858267716,
          "duration": 0.3797469999999947
        },
        {
          "name": "G#3",
          "midi": 56,
          "time": 76.33310269791657,
          "velocity": 0.6929133858267716,
          "duration": 0.3797469999999947
        },
        {
          "name": "F3",
          "midi": 53,
          "time": 76.90272319791657,
          "velocity": 0.6929133858267716,
          "duration": 0.3797469999999947
        },
        {
          "name": "G#3",
          "midi": 56,
          "time": 76.90272319791657,
          "velocity": 0.6929133858267716,
          "duration": 0.3797469999999947
        },
        {
          "name": "F3",
          "midi": 53,
          "time": 77.47234369791657,
          "velocity": 0.6929133858267716,
          "duration": 1.1392409999999842
        },
        {
          "name": "G#3",
          "midi": 56,
          "time": 77.47234369791657,
          "velocity": 0.6929133858267716,
          "duration": 1.135285302083318
        },
        {
          "name": "D#4",
          "midi": 63,
          "time": 77.85209069791657,
          "velocity": 0.6929133858267716,
          "duration": 0.3797469999999947
        },
        {
          "name": "G3",
          "midi": 55,
          "time": 78.60762899999989,
          "velocity": 0.6929133858267716,
          "duration": 0.3797469999999947
        },
        {
          "name": "D#3",
          "midi": 51,
          "time": 78.60762899999989,
          "velocity": 0.6929133858267716,
          "duration": 0.3797469999999947
        },
        {
          "name": "D#2",
          "midi": 39,
          "time": 78.60762899999989,
          "velocity": 0.8267716535433071,
          "duration": 0.7594939999999895
        },
        {
          "name": "C#4",
          "midi": 61,
          "time": 78.99133169791655,
          "velocity": 0.6929133858267716,
          "duration": 0.3797469999999947
        },
        {
          "name": "G3",
          "midi": 55,
          "time": 78.99133169791655,
          "velocity": 0.6929133858267716,
          "duration": 0.3797469999999947
        },
        {
          "name": "D#3",
          "midi": 51,
          "time": 78.99133169791655,
          "velocity": 0.6929133858267716,
          "duration": 0.3797469999999947
        },
        {
          "name": "C#2",
          "midi": 37,
          "time": 79.36712299999988,
          "velocity": 0.6929133858267716,
          "duration": 1.5189879999999931
        },
        {
          "name": "F3",
          "midi": 53,
          "time": 79.37107869791654,
          "velocity": 0.6929133858267716,
          "duration": 0.3797469999999947
        },
        {
          "name": "C#3",
          "midi": 49,
          "time": 79.37107869791654,
          "velocity": 0.6929133858267716,
          "duration": 0.3797469999999947
        },
        {
          "name": "F3",
          "midi": 53,
          "time": 79.94069919791654,
          "velocity": 0.6929133858267716,
          "duration": 0.3797469999999947
        },
        {
          "name": "C#3",
          "midi": 49,
          "time": 79.94069919791654,
          "velocity": 0.6929133858267716,
          "duration": 0.3797469999999947
        },
        {
          "name": "C#3",
          "midi": 49,
          "time": 80.51031969791654,
          "velocity": 0.6929133858267716,
          "duration": 0.3797469999999947
        },
        {
          "name": "F3",
          "midi": 53,
          "time": 80.51031969791654,
          "velocity": 0.6929133858267716,
          "duration": 0.3797469999999947
        },
        {
          "name": "D#2",
          "midi": 39,
          "time": 80.88611099999987,
          "velocity": 0.6929133858267716,
          "duration": 1.5189879999999931
        },
        {
          "name": "G3",
          "midi": 55,
          "time": 80.89006669791654,
          "velocity": 0.6929133858267716,
          "duration": 0.3797469999999947
        },
        {
          "name": "D#3",
          "midi": 51,
          "time": 80.89006669791654,
          "velocity": 0.6929133858267716,
          "duration": 0.3797469999999947
        },
        {
          "name": "G3",
          "midi": 55,
          "time": 81.45968719791654,
          "velocity": 0.6929133858267716,
          "duration": 0.3797469999999947
        },
        {
          "name": "D#3",
          "midi": 51,
          "time": 81.45968719791654,
          "velocity": 0.6929133858267716,
          "duration": 0.3797469999999947
        },
        {
          "name": "G3",
          "midi": 55,
          "time": 82.02930769791654,
          "velocity": 0.6929133858267716,
          "duration": 0.3797469999999947
        },
        {
          "name": "D#3",
          "midi": 51,
          "time": 82.02930769791654,
          "velocity": 0.6929133858267716,
          "duration": 0.3797469999999947
        },
        {
          "name": "F2",
          "midi": 41,
          "time": 82.40509899999986,
          "velocity": 0.6929133858267716,
          "duration": 1.5189880000000073
        },
        {
          "name": "G#3",
          "midi": 56,
          "time": 82.40905469791653,
          "velocity": 0.6929133858267716,
          "duration": 0.3797469999999947
        },
        {
          "name": "F3",
          "midi": 53,
          "time": 82.40905469791653,
          "velocity": 0.6929133858267716,
          "duration": 0.3797469999999947
        },
        {
          "name": "F3",
          "midi": 53,
          "time": 82.97867519791653,
          "velocity": 0.6929133858267716,
          "duration": 0.3797469999999947
        },
        {
          "name": "G#3",
          "midi": 56,
          "time": 82.97867519791653,
          "velocity": 0.6929133858267716,
          "duration": 0.3797469999999947
        },
        {
          "name": "F3",
          "midi": 53,
          "time": 83.54829569791653,
          "velocity": 0.6929133858267716,
          "duration": 0.18987350000000447
        },
        {
          "name": "G#3",
          "midi": 56,
          "time": 83.54829569791653,
          "velocity": 0.6929133858267716,
          "duration": 0.18987350000000447
        },
        {
          "name": "F4",
          "midi": 65,
          "time": 83.73816919791653,
          "velocity": 0.6929133858267716,
          "duration": 0.18987350000000447
        },
        {
          "name": "G#4",
          "midi": 68,
          "time": 83.73816919791653,
          "velocity": 0.6929133858267716,
          "duration": 0.18987350000000447
        },
        {
          "name": "C#4",
          "midi": 61,
          "time": 85.35209394791654,
          "velocity": 0.889763779527559,
          "duration": 0.18987349999999026
        },
        {
          "name": "F4",
          "midi": 65,
          "time": 85.3916509270832,
          "velocity": 0.889763779527559,
          "duration": 0.18987349999999026
        },
        {
          "name": "C#2",
          "midi": 37,
          "time": 85.44307499999987,
          "velocity": 0.889763779527559,
          "duration": 1.5189879999999505
        },
        {
          "name": "C#3",
          "midi": 49,
          "time": 85.44307499999987,
          "velocity": 0.889763779527559,
          "duration": 1.5189879999999505
        },
        {
          "name": "F3",
          "midi": 53,
          "time": 85.44307499999987,
          "velocity": 0.889763779527559,
          "duration": 1.5189879999999505
        },
        {
          "name": "C#5",
          "midi": 73,
          "time": 85.44307499999987,
          "velocity": 0.889763779527559,
          "duration": 0.18987349999999026
        },
        {
          "name": "C#6",
          "midi": 85,
          "time": 86.13136643749985,
          "velocity": 0.889763779527559,
          "duration": 0.18987349999999026
        },
        {
          "name": "F6",
          "midi": 89,
          "time": 86.15905632291651,
          "velocity": 0.889763779527559,
          "duration": 0.18987349999999026
        },
        {
          "name": "C7",
          "midi": 96,
          "time": 86.20256899999984,
          "velocity": 0.889763779527559,
          "duration": 0.18987349999999026
        },
        {
          "name": "D#4",
          "midi": 63,
          "time": 86.8710819479165,
          "velocity": 0.889763779527559,
          "duration": 0.18987349999999026
        },
        {
          "name": "G4",
          "midi": 67,
          "time": 86.91063892708316,
          "velocity": 0.889763779527559,
          "duration": 0.18987349999999026
        },
        {
          "name": "D#2",
          "midi": 39,
          "time": 86.96206299999982,
          "velocity": 0.889763779527559,
          "duration": 1.5189879999999505
        },
        {
          "name": "D#5",
          "midi": 75,
          "time": 86.96206299999982,
          "velocity": 0.889763779527559,
          "duration": 0.18987349999999026
        },
        {
          "name": "D#3",
          "midi": 51,
          "time": 86.96601869791648,
          "velocity": 0.8661417322834646,
          "duration": 1.5189879999999505
        },
        {
          "name": "G3",
          "midi": 55,
          "time": 86.96601869791648,
          "velocity": 0.8661417322834646,
          "duration": 1.5189879999999505
        },
        {
          "name": "D#6",
          "midi": 87,
          "time": 87.6503544374998,
          "velocity": 0.889763779527559,
          "duration": 0.18987349999999026
        },
        {
          "name": "G6",
          "midi": 91,
          "time": 87.67804432291646,
          "velocity": 0.889763779527559,
          "duration": 0.18987349999999026
        },
        {
          "name": "D#7",
          "midi": 99,
          "time": 87.72155699999979,
          "velocity": 0.889763779527559,
          "duration": 0.18987349999999026
        },
        {
          "name": "F4",
          "midi": 65,
          "time": 88.39006994791644,
          "velocity": 0.889763779527559,
          "duration": 0.18987349999999026
        },
        {
          "name": "G#4",
          "midi": 68,
          "time": 88.4296269270831,
          "velocity": 0.889763779527559,
          "duration": 0.18987349999999026
        },
        {
          "name": "F2",
          "midi": 41,
          "time": 88.48105099999977,
          "velocity": 0.889763779527559,
          "duration": 1.5189879999999647
        },
        {
          "name": "F5",
          "midi": 77,
          "time": 88.48105099999977,
          "velocity": 0.889763779527559,
          "duration": 0.18987349999999026
        },
        {
          "name": "G#3",
          "midi": 56,
          "time": 88.48500669791643,
          "velocity": 0.8661417322834646,
          "duration": 2.2784819999999684
        },
        {
          "name": "F3",
          "midi": 53,
          "time": 88.48500669791643,
          "velocity": 0.8661417322834646,
          "duration": 2.2784819999999684
        },
        {
          "name": "F6",
          "midi": 89,
          "time": 89.16934243749975,
          "velocity": 0.889763779527559,
          "duration": 0.18987349999999026
        },
        {
          "name": "A6",
          "midi": 93,
          "time": 89.19703232291641,
          "velocity": 0.889763779527559,
          "duration": 0.18987349999999026
        },
        {
          "name": "F7",
          "midi": 101,
          "time": 89.24054499999974,
          "velocity": 0.889763779527559,
          "duration": 0.18987349999999026
        },
        {
          "name": "F2",
          "midi": 41,
          "time": 90.00003899999973,
          "velocity": 0.889763779527559,
          "duration": 0.7594940000000037
        },
        {
          "name": "D#2",
          "midi": 39,
          "time": 90.75953299999973,
          "velocity": 0.889763779527559,
          "duration": 0.7594940000000037
        },
        {
          "name": "G3",
          "midi": 55,
          "time": 90.7634886979164,
          "velocity": 0.8661417322834646,
          "duration": 0.7594940000000037
        },
        {
          "name": "D#3",
          "midi": 51,
          "time": 90.7634886979164,
          "velocity": 0.8661417322834646,
          "duration": 0.7594940000000037
        },
        {
          "name": "C7",
          "midi": 96,
          "time": 91.51902699999974,
          "velocity": 0.889763779527559,
          "duration": 1.1392409999999984
        },
        {
          "name": "C#2",
          "midi": 37,
          "time": 91.5229826979164,
          "velocity": 0.889763779527559,
          "duration": 1.5189879999999931
        },
        {
          "name": "C#3",
          "midi": 49,
          "time": 91.5229826979164,
          "velocity": 0.8661417322834646,
          "duration": 1.5189879999999931
        },
        {
          "name": "F3",
          "midi": 53,
          "time": 91.5229826979164,
          "velocity": 0.8661417322834646,
          "duration": 1.5189879999999931
        },
        {
          "name": "A#6",
          "midi": 94,
          "time": 92.65826799999974,
          "velocity": 0.889763779527559,
          "duration": 0.3797469999999947
        },
        {
          "name": "G#6",
          "midi": 92,
          "time": 93.03801499999973,
          "velocity": 0.889763779527559,
          "duration": 0.7594940000000037
        },
        {
          "name": "D#2",
          "midi": 39,
          "time": 93.0419706979164,
          "velocity": 0.889763779527559,
          "duration": 1.5189880000000073
        },
        {
          "name": "D#3",
          "midi": 51,
          "time": 93.0419706979164,
          "velocity": 0.8661417322834646,
          "duration": 1.5189880000000073
        },
        {
          "name": "G3",
          "midi": 55,
          "time": 93.0419706979164,
          "velocity": 0.8661417322834646,
          "duration": 1.5189880000000073
        },
        {
          "name": "G6",
          "midi": 91,
          "time": 93.79750899999974,
          "velocity": 0.889763779527559,
          "duration": 0.7594940000000037
        },
        {
          "name": "G6",
          "midi": 91,
          "time": 94.55700299999974,
          "velocity": 0.889763779527559,
          "duration": 1.1392409999999984
        },
        {
          "name": "F2",
          "midi": 41,
          "time": 94.5609586979164,
          "velocity": 0.889763779527559,
          "duration": 1.5189879999999931
        },
        {
          "name": "F3",
          "midi": 53,
          "time": 94.5609586979164,
          "velocity": 0.8661417322834646,
          "duration": 2.278481999999997
        },
        {
          "name": "G#3",
          "midi": 56,
          "time": 94.5609586979164,
          "velocity": 0.8661417322834646,
          "duration": 2.278481999999997
        },
        {
          "name": "F6",
          "midi": 89,
          "time": 95.69624399999974,
          "velocity": 0.889763779527559,
          "duration": 0.9493674999999939
        },
        {
          "name": "F2",
          "midi": 41,
          "time": 96.0799466979164,
          "velocity": 0.889763779527559,
          "duration": 0.7594940000000037
        },
        {
          "name": "G3",
          "midi": 55,
          "time": 96.8394406979164,
          "velocity": 0.8661417322834646,
          "duration": 0.09493675000000223
        },
        {
          "name": "D#3",
          "midi": 51,
          "time": 96.8394406979164,
          "velocity": 0.8661417322834646,
          "duration": 0.09493675000000223
        },
        {
          "name": "D#2",
          "midi": 39,
          "time": 96.8394406979164,
          "velocity": 0.889763779527559,
          "duration": 0.09493675000000223
        },
        {
          "name": "D#2",
          "midi": 39,
          "time": 97.02535849999974,
          "velocity": 0.889763779527559,
          "duration": 0.09493675000000223
        },
        {
          "name": "D#3",
          "midi": 51,
          "time": 97.0293141979164,
          "velocity": 0.8661417322834646,
          "duration": 0.09493675000000223
        },
        {
          "name": "G3",
          "midi": 55,
          "time": 97.0293141979164,
          "velocity": 0.8661417322834646,
          "duration": 0.09493675000000223
        },
        {
          "name": "D#2",
          "midi": 39,
          "time": 97.21523199999974,
          "velocity": 0.889763779527559,
          "duration": 0.09493675000000223
        },
        {
          "name": "G3",
          "midi": 55,
          "time": 97.21918769791641,
          "velocity": 0.8661417322834646,
          "duration": 0.09493675000000223
        },
        {
          "name": "D#3",
          "midi": 51,
          "time": 97.21918769791641,
          "velocity": 0.8661417322834646,
          "duration": 0.09493675000000223
        },
        {
          "name": "C#3",
          "midi": 49,
          "time": 97.59497899999974,
          "velocity": 0.8661417322834646,
          "duration": 1.3291145000000313
        },
        {
          "name": "C#1",
          "midi": 25,
          "time": 97.59497899999974,
          "velocity": 0.6771653543307087,
          "duration": 0.18987350000000447
        },
        {
          "name": "F3",
          "midi": 53,
          "time": 97.5989346979164,
          "velocity": 0.8661417322834646,
          "duration": 1.5189880000000358
        },
        {
          "name": "C#2",
          "midi": 37,
          "time": 97.78485249999974,
          "velocity": 0.6771653543307087,
          "duration": 0.18987350000000447
        },
        {
          "name": "C#1",
          "midi": 25,
          "time": 97.97472599999975,
          "velocity": 0.6771653543307087,
          "duration": 0.18987350000000447
        },
        {
          "name": "C#2",
          "midi": 37,
          "time": 98.16459949999975,
          "velocity": 0.6771653543307087,
          "duration": 0.18987350000000447
        },
        {
          "name": "C#1",
          "midi": 25,
          "time": 98.35447299999976,
          "velocity": 0.6771653543307087,
          "duration": 0.18987350000000447
        },
        {
          "name": "C#2",
          "midi": 37,
          "time": 98.54434649999976,
          "velocity": 0.6771653543307087,
          "duration": 0.18987350000000447
        },
        {
          "name": "C#1",
          "midi": 25,
          "time": 98.73421999999977,
          "velocity": 0.6771653543307087,
          "duration": 0.18987350000000447
        },
        {
          "name": "C#2",
          "midi": 37,
          "time": 98.92409349999977,
          "velocity": 0.6771653543307087,
          "duration": 0.18987350000000447
        },
        {
          "name": "D#1",
          "midi": 27,
          "time": 99.11396699999977,
          "velocity": 0.6771653543307087,
          "duration": 0.18987350000000447
        },
        {
          "name": "G3",
          "midi": 55,
          "time": 99.11792269791644,
          "velocity": 0.8661417322834646,
          "duration": 1.5189880000000358
        },
        {
          "name": "D#3",
          "midi": 51,
          "time": 99.11792269791644,
          "velocity": 0.8661417322834646,
          "duration": 1.5189880000000358
        },
        {
          "name": "D#2",
          "midi": 39,
          "time": 99.30384049999978,
          "velocity": 0.6771653543307087,
          "duration": 0.18987350000000447
        },
        {
          "name": "D#1",
          "midi": 27,
          "time": 99.49371399999978,
          "velocity": 0.6771653543307087,
          "duration": 0.18987350000000447
        },
        {
          "name": "D#2",
          "midi": 39,
          "time": 99.68358749999979,
          "velocity": 0.6771653543307087,
          "duration": 0.18987350000000447
        },
        {
          "name": "D#1",
          "midi": 27,
          "time": 99.87346099999979,
          "velocity": 0.6771653543307087,
          "duration": 0.18987350000000447
        },
        {
          "name": "D#2",
          "midi": 39,
          "time": 100.0633344999998,
          "velocity": 0.6771653543307087,
          "duration": 0.18987350000000447
        },
        {
          "name": "D#1",
          "midi": 27,
          "time": 100.2532079999998,
          "velocity": 0.6771653543307087,
          "duration": 0.18987350000000447
        },
        {
          "name": "D#2",
          "midi": 39,
          "time": 100.4430814999998,
          "velocity": 0.6771653543307087,
          "duration": 0.18987350000000447
        },
        {
          "name": "F1",
          "midi": 29,
          "time": 100.63295499999981,
          "velocity": 0.6771653543307087,
          "duration": 0.18987350000000447
        },
        {
          "name": "F3",
          "midi": 53,
          "time": 100.63691069791648,
          "velocity": 0.8661417322834646,
          "duration": 2.2784820000000536
        },
        {
          "name": "G#3",
          "midi": 56,
          "time": 100.63691069791648,
          "velocity": 0.8661417322834646,
          "duration": 2.2784820000000536
        },
        {
          "name": "F2",
          "midi": 41,
          "time": 100.82282849999982,
          "velocity": 0.6771653543307087,
          "duration": 0.18987350000000447
        },
        {
          "name": "F1",
          "midi": 29,
          "time": 101.01270199999982,
          "velocity": 0.6771653543307087,
          "duration": 0.18987350000000447
        },
        {
          "name": "F2",
          "midi": 41,
          "time": 101.20257549999982,
          "velocity": 0.6771653543307087,
          "duration": 0.18987350000000447
        },
        {
          "name": "F1",
          "midi": 29,
          "time": 101.39244899999983,
          "velocity": 0.6771653543307087,
          "duration": 0.18987350000000447
        },
        {
          "name": "F2",
          "midi": 41,
          "time": 101.58232249999983,
          "velocity": 0.6771653543307087,
          "duration": 0.18987350000000447
        },
        {
          "name": "F1",
          "midi": 29,
          "time": 101.77219599999984,
          "velocity": 0.6771653543307087,
          "duration": 0.18987350000000447
        },
        {
          "name": "F2",
          "midi": 41,
          "time": 101.96206949999984,
          "velocity": 0.6771653543307087,
          "duration": 0.18987350000000447
        },
        {
          "name": "F1",
          "midi": 29,
          "time": 102.15194299999985,
          "velocity": 0.6771653543307087,
          "duration": 0.18987350000000447
        },
        {
          "name": "F2",
          "midi": 41,
          "time": 102.34181649999985,
          "velocity": 0.6771653543307087,
          "duration": 0.18987350000000447
        },
        {
          "name": "F1",
          "midi": 29,
          "time": 102.53168999999986,
          "velocity": 0.6771653543307087,
          "duration": 0.18987350000000447
        },
        {
          "name": "F2",
          "midi": 41,
          "time": 102.72156349999986,
          "velocity": 0.6771653543307087,
          "duration": 0.18987350000000447
        },
        {
          "name": "D#1",
          "midi": 27,
          "time": 102.91143699999986,
          "velocity": 0.6771653543307087,
          "duration": 0.18987350000000447
        },
        {
          "name": "D#3",
          "midi": 51,
          "time": 102.91539269791653,
          "velocity": 0.8661417322834646,
          "duration": 0.7594940000000179
        },
        {
          "name": "G3",
          "midi": 55,
          "time": 102.91539269791653,
          "velocity": 0.8661417322834646,
          "duration": 0.7594940000000179
        },
        {
          "name": "D#2",
          "midi": 39,
          "time": 103.10131049999987,
          "velocity": 0.6771653543307087,
          "duration": 0.18987350000000447
        },
        {
          "name": "D#1",
          "midi": 27,
          "time": 103.29118399999987,
          "velocity": 0.8661417322834646,
          "duration": 0.18987350000000447
        },
        {
          "name": "D#2",
          "midi": 39,
          "time": 103.48105749999988,
          "velocity": 0.8661417322834646,
          "duration": 0.18987350000000447
        },
        {
          "name": "C#1",
          "midi": 25,
          "time": 103.67093099999988,
          "velocity": 0.6771653543307087,
          "duration": 0.18987350000000447
        },
        {
          "name": "C#3",
          "midi": 49,
          "time": 103.67488669791655,
          "velocity": 0.8661417322834646,
          "duration": 1.5189880000000358
        },
        {
          "name": "F3",
          "midi": 53,
          "time": 103.67488669791655,
          "velocity": 0.8661417322834646,
          "duration": 1.5189880000000358
        },
        {
          "name": "C#2",
          "midi": 37,
          "time": 103.86080449999989,
          "velocity": 0.6771653543307087,
          "duration": 0.18987350000000447
        },
        {
          "name": "C#1",
          "midi": 25,
          "time": 104.05067799999989,
          "velocity": 0.6771653543307087,
          "duration": 0.18987350000000447
        },
        {
          "name": "C#2",
          "midi": 37,
          "time": 104.2405514999999,
          "velocity": 0.6771653543307087,
          "duration": 0.18987350000000447
        },
        {
          "name": "C#1",
          "midi": 25,
          "time": 104.4304249999999,
          "velocity": 0.6771653543307087,
          "duration": 0.18987350000000447
        },
        {
          "name": "C#2",
          "midi": 37,
          "time": 104.6202984999999,
          "velocity": 0.6771653543307087,
          "duration": 0.18987350000000447
        },
        {
          "name": "C#1",
          "midi": 25,
          "time": 104.81017199999991,
          "velocity": 0.6771653543307087,
          "duration": 0.18987350000000447
        },
        {
          "name": "C#2",
          "midi": 37,
          "time": 105.00004549999991,
          "velocity": 0.6771653543307087,
          "duration": 0.18987350000000447
        },
        {
          "name": "D#1",
          "midi": 27,
          "time": 105.18991899999992,
          "velocity": 0.6771653543307087,
          "duration": 0.18987350000000447
        },
        {
          "name": "G3",
          "midi": 55,
          "time": 105.19387469791658,
          "velocity": 0.8661417322834646,
          "duration": 1.5189880000000215
        },
        {
          "name": "D#3",
          "midi": 51,
          "time": 105.19387469791658,
          "velocity": 0.8661417322834646,
          "duration": 1.5189880000000215
        },
        {
          "name": "D#2",
          "midi": 39,
          "time": 105.37979249999992,
          "velocity": 0.6771653543307087,
          "duration": 0.18987350000000447
        },
        {
          "name": "D#1",
          "midi": 27,
          "time": 105.56966599999993,
          "velocity": 0.6771653543307087,
          "duration": 0.18987350000000447
        },
        {
          "name": "D#2",
          "midi": 39,
          "time": 105.75953949999993,
          "velocity": 0.6771653543307087,
          "duration": 0.18987350000000447
        },
        {
          "name": "D#1",
          "midi": 27,
          "time": 105.94941299999994,
          "velocity": 0.6771653543307087,
          "duration": 0.18987350000000447
        },
        {
          "name": "D#2",
          "midi": 39,
          "time": 106.13928649999994,
          "velocity": 0.6771653543307087,
          "duration": 0.18987350000000447
        },
        {
          "name": "G#2",
          "midi": 44,
          "time": 106.70890699999994,
          "velocity": 0.6771653543307087,
          "duration": 2.0886084999999923
        },
        {
          "name": "F2",
          "midi": 41,
          "time": 106.70890699999994,
          "velocity": 0.6771653543307087,
          "duration": 2.0886084999999923
        },
        {
          "name": "G#3",
          "midi": 56,
          "time": 106.7128626979166,
          "velocity": 0.8661417322834646,
          "duration": 1.5189879999999931
        },
        {
          "name": "F3",
          "midi": 53,
          "time": 106.7128626979166,
          "velocity": 0.8661417322834646,
          "duration": 1.5189879999999931
        },
        {
          "name": "D#4",
          "midi": 63,
          "time": 108.84498387499993,
          "velocity": 0.6771653543307087,
          "duration": 0.9493675000000081
        },
        {
          "name": "A#4",
          "midi": 70,
          "time": 108.91223073958326,
          "velocity": 0.6771653543307087,
          "duration": 0.9493675000000081
        },
        {
          "name": "D#5",
          "midi": 75,
          "time": 108.99530039583327,
          "velocity": 0.6771653543307087,
          "duration": 0.9493675000000081
        },
        {
          "name": "C5",
          "midi": 72,
          "time": 109.93675649999994,
          "velocity": 0.6771653543307087,
          "duration": 3.026108906250002
        },
        {
          "name": "F5",
          "midi": 77,
          "time": 109.93675649999994,
          "velocity": 0.6771653543307087,
          "duration": 3.026108906250002
        },
        {
          "name": "F4",
          "midi": 65,
          "time": 109.94071219791661,
          "velocity": 0.6771653543307087,
          "duration": 3.026108906250002
        },
        {
          "name": "G#4",
          "midi": 68,
          "time": 109.94862359374994,
          "velocity": 0.6771653543307087,
          "duration": 3.026108906250002
        }
      ],
      "controlChanges": {
        "6": [
          {
            "number": 6,
            "time": 0,
            "value": 0.09448818897637795
          },
          {
            "number": 6,
            "time": 113.92409999999994,
            "value": 0.09448818897637795
          },
          {
            "number": 6,
            "time": 113.92409999999994,
            "value": 0.09448818897637795
          },
          {
            "number": 6,
            "time": 113.92409999999994,
            "value": 0.09448818897637795
          }
        ],
        "7": [
          {
            "number": 7,
            "time": 0,
            "value": 0.7874015748031497
          },
          {
            "number": 7,
            "time": 0,
            "value": 0.7874015748031497
          },
          {
            "number": 7,
            "time": 113.92409999999994,
            "value": 0.7874015748031497
          },
          {
            "number": 7,
            "time": 113.92409999999994,
            "value": 0.7874015748031497
          },
          {
            "number": 7,
            "time": 113.92409999999994,
            "value": 0.7874015748031497
          }
        ],
        "10": [
          {
            "number": 10,
            "time": 0,
            "value": 0.5039370078740157
          },
          {
            "number": 10,
            "time": 0,
            "value": 0.5039370078740157
          },
          {
            "number": 10,
            "time": 113.92409999999994,
            "value": 0.5039370078740157
          },
          {
            "number": 10,
            "time": 113.92409999999994,
            "value": 0.5039370078740157
          },
          {
            "number": 10,
            "time": 113.92409999999994,
            "value": 0.5039370078740157
          }
        ],
        "100": [
          {
            "number": 100,
            "time": 0,
            "value": 0
          },
          {
            "number": 100,
            "time": 113.92409999999994,
            "value": 0
          },
          {
            "number": 100,
            "time": 113.92409999999994,
            "value": 0
          },
          {
            "number": 100,
            "time": 113.92409999999994,
            "value": 0
          }
        ],
        "101": [
          {
            "number": 101,
            "time": 0,
            "value": 0
          },
          {
            "number": 101,
            "time": 113.92409999999994,
            "value": 0
          },
          {
            "number": 101,
            "time": 113.92409999999994,
            "value": 0
          },
          {
            "number": 101,
            "time": 113.92409999999994,
            "value": 0
          }
        ]
      },
      "id": 3,
      "name": "MIDI out #3",
      "instrumentNumber": 0,
      "instrument": "acoustic grand piano",
      "instrumentFamily": "piano",
      "channelNumber": 2,
      "isPercussion": false
    }
  ]
}